<svg width="78" height="109" viewBox="0 0 78 109" fill="none" xmlns="http://www.w3.org/2000/svg">
<path d="M74.6076 0.0556641H2.81628C1.2917 0.0556641 0.0557861 1.29158 0.0557861 2.81615V105.531C0.0557861 107.055 1.2917 108.291 2.81628 108.291H74.6076C76.1322 108.291 77.3681 107.055 77.3681 105.531V2.81615C77.3681 1.29158 76.1322 0.0556641 74.6076 0.0556641Z" fill="white"/>
<path d="M74.6029 108.342H2.81626C1.26406 108.342 0 107.078 0 105.526V2.81626C0 1.26406 1.26406 0 2.81626 0H74.6029C76.1551 0 77.4192 1.26406 77.4192 2.81626V105.531C77.4192 107.083 76.1551 108.347 74.6029 108.347V108.342ZM2.81626 0.106888C1.31983 0.106888 0.106888 1.31983 0.106888 2.81626V105.531C0.106888 107.022 1.31983 108.235 2.81161 108.235H74.6029C76.0947 108.235 77.3077 107.022 77.3077 105.531V2.81626C77.3077 1.32448 76.0947 0.111535 74.6029 0.111535H2.81626V0.106888Z" fill="#65A7DD"/>
<path d="M69.3375 8.58814C69.3375 8.7322 69.2214 8.85303 69.0726 8.85303C68.9239 8.85303 68.8077 8.73685 68.8077 8.58814C68.8077 8.43942 68.9239 8.32324 69.0726 8.32324C69.2214 8.32324 69.3375 8.43942 69.3375 8.58814Z" fill="white"/>
<path d="M56.7295 8.58814C56.7295 8.7322 56.6133 8.85303 56.4646 8.85303C56.3159 8.85303 56.1997 8.73685 56.1997 8.58814C56.1997 8.43942 56.3159 8.32324 56.4646 8.32324C56.6133 8.32324 56.7295 8.43942 56.7295 8.58814Z" fill="white"/>
<path d="M45.1298 8.58814C45.1298 8.7322 45.0136 8.85303 44.8649 8.85303C44.7162 8.85303 44.6 8.73685 44.6 8.58814C44.6 8.43942 44.7162 8.32324 44.8649 8.32324C45.0136 8.32324 45.1298 8.43942 45.1298 8.58814Z" fill="white"/>
<path d="M33.4884 8.67188C33.4884 8.81594 33.3722 8.93677 33.2235 8.93677C33.0748 8.93677 32.9586 8.82059 32.9586 8.67188C32.9586 8.52316 33.0748 8.40698 33.2235 8.40698C33.3722 8.40698 33.4884 8.52316 33.4884 8.67188Z" fill="white"/>
<path d="M69.3375 18.4126C69.3375 18.5567 69.2214 18.6775 69.0726 18.6775C68.9239 18.6775 68.8077 18.5613 68.8077 18.4126C68.8077 18.2639 68.9239 18.1477 69.0726 18.1477C69.2214 18.1477 69.3375 18.2639 69.3375 18.4126Z" fill="white"/>
<path d="M69.3375 27.3772C69.3375 27.5213 69.2214 27.6421 69.0726 27.6421C68.9239 27.6421 68.8077 27.5259 68.8077 27.3772C68.8077 27.2285 68.9239 27.1123 69.0726 27.1123C69.2214 27.1123 69.3375 27.2285 69.3375 27.3772Z" fill="white"/>
<path d="M69.3375 36.7739C69.3375 36.918 69.2214 37.0388 69.0726 37.0388C68.9239 37.0388 68.8077 36.9226 68.8077 36.7739C68.8077 36.6252 68.9239 36.509 69.0726 36.509C69.2214 36.509 69.3375 36.6252 69.3375 36.7739Z" fill="white"/>
<path d="M69.3375 42.7131C69.3375 42.8572 69.2214 42.978 69.0726 42.978C68.9239 42.978 68.8077 42.8619 68.8077 42.7131C68.8077 42.5644 68.9239 42.4482 69.0726 42.4482C69.2214 42.4482 69.3375 42.5644 69.3375 42.7131Z" fill="white"/>
<path d="M69.3375 48.6758C69.3375 48.8198 69.2214 48.9407 69.0726 48.9407C68.9239 48.9407 68.8077 48.8245 68.8077 48.6758C68.8077 48.5271 68.9239 48.4109 69.0726 48.4109C69.2214 48.4109 69.3375 48.5271 69.3375 48.6758Z" fill="white"/>
<path d="M8.78333 8.85303C8.78333 8.9971 8.66715 9.11793 8.51844 9.11793C8.36972 9.11793 8.25354 9.00174 8.25354 8.85303C8.25354 8.70432 8.36972 8.58813 8.51844 8.58813C8.66715 8.58813 8.78333 8.70432 8.78333 8.85303Z" fill="white"/>
<path d="M21.5355 8.67188C21.5355 8.81594 21.4193 8.93677 21.2706 8.93677C21.1219 8.93677 21.0057 8.82059 21.0057 8.67188C21.0057 8.52316 21.1219 8.40698 21.2706 8.40698C21.4193 8.40698 21.5355 8.52316 21.5355 8.67188Z" fill="white"/>
<path d="M8.78333 18.2034C8.78333 18.3474 8.66715 18.4683 8.51844 18.4683C8.36972 18.4683 8.25354 18.3521 8.25354 18.2034C8.25354 18.0547 8.36972 17.9385 8.51844 17.9385C8.66715 17.9385 8.78333 18.0547 8.78333 18.2034Z" fill="white"/>
<path d="M8.78333 27.4421C8.78333 27.5862 8.66715 27.707 8.51844 27.707C8.36972 27.707 8.25354 27.5909 8.25354 27.4421C8.25354 27.2934 8.36972 27.1772 8.51844 27.1772C8.66715 27.1772 8.78333 27.2934 8.78333 27.4421Z" fill="white"/>
<path d="M8.78333 36.709C8.78333 36.8531 8.66715 36.9739 8.51844 36.9739C8.36972 36.9739 8.25354 36.8577 8.25354 36.709C8.25354 36.5603 8.36972 36.4441 8.51844 36.4441C8.66715 36.4441 8.78333 36.5603 8.78333 36.709Z" fill="white"/>
<path d="M8.78333 42.7131C8.78333 42.8572 8.66715 42.978 8.51844 42.978C8.36972 42.978 8.25354 42.8619 8.25354 42.7131C8.25354 42.5644 8.36972 42.4482 8.51844 42.4482C8.66715 42.4482 8.78333 42.5644 8.78333 42.7131Z" fill="white"/>
<path d="M8.78333 48.9407C8.78333 49.0847 8.66715 49.2056 8.51844 49.2056C8.36972 49.2056 8.25354 49.0894 8.25354 48.9407C8.25354 48.792 8.36972 48.6758 8.51844 48.6758C8.66715 48.6758 8.78333 48.792 8.78333 48.9407Z" fill="white"/>
<path d="M8.78333 54.9495C8.78333 55.0935 8.66715 55.2144 8.51844 55.2144C8.36972 55.2144 8.25354 55.0982 8.25354 54.9495C8.25354 54.8008 8.36972 54.6846 8.51844 54.6846C8.66715 54.6846 8.78333 54.8008 8.78333 54.9495Z" fill="white"/>
<path d="M8.78333 60.9585C8.78333 61.1026 8.66715 61.2234 8.51844 61.2234C8.36972 61.2234 8.25354 61.1072 8.25354 60.9585C8.25354 60.8098 8.36972 60.6936 8.51844 60.6936C8.66715 60.6936 8.78333 60.8098 8.78333 60.9585Z" fill="white"/>
<path d="M8.78333 67.1858C8.78333 67.3299 8.66715 67.4507 8.51844 67.4507C8.36972 67.4507 8.25354 67.3345 8.25354 67.1858C8.25354 67.0371 8.36972 66.9209 8.51844 66.9209C8.66715 66.9209 8.78333 67.0371 8.78333 67.1858Z" fill="white"/>
<path d="M8.78333 73.4273C8.78333 73.5713 8.66715 73.6922 8.51844 73.6922C8.36972 73.6922 8.25354 73.576 8.25354 73.4273C8.25354 73.2785 8.36972 73.1624 8.51844 73.1624C8.66715 73.1624 8.78333 73.2785 8.78333 73.4273Z" fill="white"/>
<path d="M8.78333 79.0039C8.78333 79.148 8.66715 79.2688 8.51844 79.2688C8.36972 79.2688 8.25354 79.1526 8.25354 79.0039C8.25354 78.8552 8.36972 78.739 8.51844 78.739C8.66715 78.739 8.78333 78.8552 8.78333 79.0039Z" fill="white"/>
<path d="M8.78333 85.2266C8.78333 85.3706 8.66715 85.4915 8.51844 85.4915C8.36972 85.4915 8.25354 85.3753 8.25354 85.2266C8.25354 85.0778 8.36972 84.9617 8.51844 84.9617C8.66715 84.9617 8.78333 85.0778 8.78333 85.2266Z" fill="white"/>
<path d="M8.78333 91.2913C8.78333 91.4353 8.66715 91.5562 8.51844 91.5562C8.36972 91.5562 8.25354 91.44 8.25354 91.2913C8.25354 91.1426 8.36972 91.0264 8.51844 91.0264C8.66715 91.0264 8.78333 91.1426 8.78333 91.2913Z" fill="white"/>
<path d="M8.89026 100.209C8.89026 100.354 8.77408 100.474 8.62537 100.474C8.47666 100.474 8.36047 100.358 8.36047 100.209C8.36047 100.061 8.47666 99.9446 8.62537 99.9446C8.77408 99.9446 8.89026 100.061 8.89026 100.209Z" fill="white"/>
<path d="M18.4312 100.47C18.4312 100.614 18.315 100.735 18.1663 100.735C18.0175 100.735 17.9014 100.618 17.9014 100.47C17.9014 100.321 18.0175 100.205 18.1663 100.205C18.315 100.205 18.4312 100.321 18.4312 100.47Z" fill="white"/>
<path d="M30.7232 100.47C30.7232 100.614 30.607 100.735 30.4583 100.735C30.3095 100.735 30.1934 100.618 30.1934 100.47C30.1934 100.321 30.3095 100.205 30.4583 100.205C30.607 100.205 30.7232 100.321 30.7232 100.47Z" fill="white"/>
<path d="M42.9921 100.47C42.9921 100.614 42.8759 100.735 42.7272 100.735C42.5785 100.735 42.4623 100.618 42.4623 100.47C42.4623 100.321 42.5785 100.205 42.7272 100.205C42.8759 100.205 42.9921 100.321 42.9921 100.47Z" fill="white"/>
<path d="M54.9448 100.47C54.9448 100.614 54.8287 100.735 54.6799 100.735C54.5312 100.735 54.415 100.618 54.415 100.47C54.415 100.321 54.5312 100.205 54.6799 100.205C54.8287 100.205 54.9448 100.321 54.9448 100.47Z" fill="white"/>
<path d="M69.3375 54.8054C69.3375 54.9495 69.2214 55.0703 69.0726 55.0703C68.9239 55.0703 68.8077 54.9541 68.8077 54.8054C68.8077 54.6567 68.9239 54.5405 69.0726 54.5405C69.2214 54.5405 69.3375 54.6567 69.3375 54.8054Z" fill="white"/>
<path d="M69.3375 60.5356C69.3375 60.6797 69.2214 60.8005 69.0726 60.8005C68.9239 60.8005 68.8077 60.6844 68.8077 60.5356C68.8077 60.3869 68.9239 60.2708 69.0726 60.2708C69.2214 60.2708 69.3375 60.3869 69.3375 60.5356Z" fill="white"/>
<path d="M69.3375 66.7119C69.3375 66.856 69.2214 66.9768 69.0726 66.9768C68.9239 66.9768 68.8077 66.8606 68.8077 66.7119C68.8077 66.5632 68.9239 66.447 69.0726 66.447C69.2214 66.447 69.3375 66.5632 69.3375 66.7119Z" fill="white"/>
<path d="M69.3375 72.7998C69.3375 72.9439 69.2214 73.0647 69.0726 73.0647C68.9239 73.0647 68.8077 72.9485 68.8077 72.7998C68.8077 72.6511 68.9239 72.5349 69.0726 72.5349C69.2214 72.5349 69.3375 72.6511 69.3375 72.7998Z" fill="white"/>
<path d="M69.3375 78.7297C69.3375 78.8738 69.2214 78.9946 69.0726 78.9946C68.9239 78.9946 68.8077 78.8785 68.8077 78.7297C68.8077 78.581 68.9239 78.4648 69.0726 78.4648C69.2214 78.4648 69.3375 78.581 69.3375 78.7297Z" fill="white"/>
<path d="M69.3375 84.5713C69.3375 84.7154 69.2214 84.8362 69.0726 84.8362C68.9239 84.8362 68.8077 84.72 68.8077 84.5713C68.8077 84.4226 68.9239 84.3064 69.0726 84.3064C69.2214 84.3064 69.3375 84.4226 69.3375 84.5713Z" fill="white"/>
<path d="M69.3375 90.5386C69.3375 90.6826 69.2214 90.8035 69.0726 90.8035C68.9239 90.8035 68.8077 90.6873 68.8077 90.5386C68.8077 90.3899 68.9239 90.2737 69.0726 90.2737C69.2214 90.2737 69.3375 90.3899 69.3375 90.5386Z" fill="white"/>
<path d="M69.3375 99.6333C69.3375 99.7774 69.2214 99.8982 69.0726 99.8982C68.9239 99.8982 68.8077 99.782 68.8077 99.6333C68.8077 99.4846 68.9239 99.3684 69.0726 99.3684C69.2214 99.3684 69.3375 99.4846 69.3375 99.6333Z" fill="white"/>
<path d="M6.9662 11.4416H7.3008C7.65399 11.4416 7.91424 11.2231 8.0769 10.7816L10.0148 5.30713H10.2379L12.1944 11.0419C12.2548 11.1906 12.3245 11.2975 12.4128 11.3533C12.4965 11.409 12.6034 11.4369 12.7381 11.4369H13.2447V11.725H10.447V11.4369H11.0419C11.1302 11.4369 11.2092 11.4137 11.2696 11.3672C11.33 11.3207 11.3579 11.2696 11.3579 11.2092C11.3579 11.1302 11.3439 11.0651 11.3207 11.0094L10.8978 9.81035H8.78793L8.56951 10.4145C8.48586 10.6562 8.44403 10.8281 8.44403 10.9396C8.44403 11.0698 8.47656 11.186 8.54163 11.2882C8.60669 11.3858 8.72287 11.4369 8.88553 11.4369H9.43391V11.725H6.96155V11.4369L6.9662 11.4416ZM8.88553 9.53151H10.7956L9.85681 6.78032L8.88088 9.53151H8.88553Z" fill="#272425"/>
<path d="M66.6699 96.0083H69.1423V96.2964H68.5939C68.4312 96.2964 68.3151 96.3476 68.25 96.4452C68.1849 96.5427 68.1524 96.6589 68.1524 96.7937C68.1524 96.9006 68.1942 97.0772 68.2779 97.3188L68.4963 97.923H70.6062L71.0291 96.724C71.0523 96.6682 71.0663 96.6032 71.0663 96.5242C71.0663 96.4637 71.0384 96.4126 70.978 96.3662C70.9175 96.3197 70.8432 96.2964 70.7502 96.2964H70.1554V96.0083H72.9531V96.2964H72.4465C72.3117 96.2964 72.2048 96.3243 72.1212 96.3801C72.0375 96.4359 71.9632 96.5427 71.9028 96.6915L69.9463 102.426H69.7232L67.7853 96.9517C67.6226 96.5149 67.3624 96.2918 67.0092 96.2918H66.6746V96.0037L66.6699 96.0083ZM69.5652 100.962L70.5039 98.2111H68.5939L69.5698 100.962H69.5652Z" fill="#272425"/>
<path d="M7.87713 15.9076C8.3558 16.4327 9.09472 16.1213 9.09472 16.1213C8.89024 16.3397 8.75082 16.5163 8.7787 16.8788C8.7787 16.8928 8.7787 16.9021 8.7787 16.916C8.7787 17.4923 9.24343 17.957 9.81969 17.957C10.396 17.957 10.8607 17.4923 10.8607 16.916C10.8607 16.8417 10.8514 16.7719 10.8374 16.7069C10.8142 16.4559 10.6887 16.3072 10.5214 16.126C10.5214 16.126 11.2604 16.4373 11.739 15.9122C12.2177 15.3871 11.9807 14.7643 11.8273 14.5598C11.674 14.3554 11.4509 14.0115 10.9165 14.0533C10.4424 14.0905 10.3727 14.1695 10.0474 14.4297C10.0846 13.7187 10.5168 13.2307 10.5168 13.2307H9.09472C9.35496 13.5049 9.58733 14.1369 9.55944 14.4251C9.24343 14.1695 9.16907 14.0905 8.6997 14.0579C8.16526 14.0161 7.93754 14.36 7.78883 14.5645C7.64011 14.769 7.39846 15.3917 7.87713 15.9168V15.9076Z" fill="#151515"/>
<path d="M48.5315 49.0799C46.2079 46.5425 42.6388 48.0482 42.6388 48.0482C43.6379 46.984 44.3025 46.1335 44.177 44.3861C44.177 44.3257 44.177 44.2699 44.177 44.2095C44.177 41.4304 41.9231 39.1765 39.144 39.1765C36.3649 39.1765 34.111 41.4304 34.111 44.2095C34.111 44.5581 34.1482 44.902 34.2132 45.2319C34.3294 46.4402 34.9243 47.1699 35.7468 48.0528C35.7468 48.0528 32.1777 46.5471 29.8541 49.0845C27.5304 51.622 28.6923 54.6334 29.4219 55.6233C30.1515 56.6131 31.2483 58.2722 33.8322 58.0817C36.1186 57.9097 36.4532 57.524 38.024 56.2692C37.8381 59.7175 35.7422 62.0737 35.7422 62.0737H42.6248C41.3608 60.7446 40.2408 57.6913 40.3848 56.3018C41.9231 57.5287 42.2716 57.9144 44.5395 58.0817C47.1234 58.2722 48.2155 56.6131 48.9498 55.6233C49.6794 54.6334 50.8412 51.622 48.5176 49.0845L48.5315 49.0799Z" fill="#151515"/>
<path d="M67.9015 91.7189C68.3802 91.1937 69.1191 91.5051 69.1191 91.5051C68.9146 91.2867 68.7752 91.1101 68.8031 90.7476C68.8031 90.7337 68.8031 90.7244 68.8031 90.7104C68.8031 90.1342 69.2678 89.6694 69.844 89.6694C70.4203 89.6694 70.885 90.1342 70.885 90.7104C70.885 90.7848 70.8757 90.8545 70.8618 90.9196C70.8386 91.1705 70.7131 91.3192 70.5458 91.5005C70.5458 91.5005 71.2847 91.1891 71.7634 91.7142C72.242 92.2394 72.005 92.8621 71.8517 93.0666C71.6983 93.2711 71.4752 93.615 70.9408 93.5732C70.4668 93.536 70.3971 93.457 70.0718 93.1967C70.1089 93.9078 70.5411 94.3957 70.5411 94.3957H69.1191C69.3793 94.1215 69.6117 93.4895 69.5838 93.2014C69.2678 93.457 69.1934 93.536 68.7241 93.5685C68.1896 93.6103 67.9619 93.2664 67.8132 93.062C67.6598 92.8575 67.4228 92.2347 67.9015 91.7096V91.7189Z" fill="#151515"/>
</svg>
