<svg width="79" height="109" viewBox="0 0 79 109" fill="none" xmlns="http://www.w3.org/2000/svg">
<path d="M3.61288 0.0556641H75.3856C76.91 0.0556641 78.1461 1.29184 78.1461 2.81615V105.531C78.1461 107.055 76.91 108.291 75.3856 108.291H3.61288C2.08857 108.291 0.852417 107.055 0.852417 105.531V2.81615C0.852417 1.29184 2.08857 0.0556641 3.61288 0.0556641Z" fill="white"/>
<path d="M75.3902 108.342H3.61748C2.06529 108.342 0.805908 107.078 0.805908 105.526V2.81626C0.805908 1.26406 2.06994 0 3.61748 0H75.3902C76.9424 0 78.2018 1.26406 78.2018 2.81626V105.531C78.2018 107.083 76.9378 108.347 75.3902 108.347V108.342ZM3.61283 0.106888C2.12105 0.106888 0.908135 1.31983 0.908135 2.81161V105.531C0.908135 107.022 2.12105 108.235 3.61283 108.235H75.3856C76.8774 108.235 78.0903 107.022 78.0903 105.531V2.81626C78.0903 1.32448 76.8774 0.111535 75.3856 0.111535H3.61283V0.106888Z" fill="#65A7DD"/>
<path d="M11.49 15.5407C11.0113 15.0155 10.2724 15.3269 10.2724 15.3269C10.4769 15.1085 10.6162 14.9319 10.5884 14.5694C10.5884 14.5554 10.5884 14.5461 10.5884 14.5322C10.5884 13.9559 10.1236 13.4912 9.54737 13.4912C8.9711 13.4912 8.50638 13.9559 8.50638 14.5322C8.50638 14.6066 8.51569 14.6763 8.52964 14.7413C8.55287 14.9923 8.67832 15.141 8.84562 15.3222C8.84562 15.3222 8.1067 15.0109 7.62803 15.536C7.14936 16.0612 7.3864 16.6839 7.53976 16.8884C7.69312 17.0929 7.91617 17.4368 8.45061 17.3949C8.92464 17.3578 8.99434 17.2788 9.31965 17.0185C9.28247 17.7295 8.85027 18.2175 8.85027 18.2175H10.2724C10.0121 17.9433 9.77976 17.3113 9.80764 17.0232C10.1237 17.2788 10.198 17.3578 10.6674 17.3903C11.2018 17.4321 11.4295 17.0882 11.5782 16.8837C11.7269 16.6793 11.9686 16.0565 11.49 15.5314V15.5407Z" fill="#151515"/>
<path d="M7.58618 11.4137H8.45057C8.53887 11.4137 8.60395 11.3952 8.64578 11.358C8.68296 11.3208 8.70619 11.2604 8.70619 11.1767V6.74786H7.58618V6.42255H8.08342C8.40873 6.42255 8.66901 6.33425 8.87349 6.16231C9.07332 5.98571 9.19877 5.77658 9.24989 5.53027H9.53802V11.1767C9.53802 11.2604 9.55661 11.3208 9.59844 11.358C9.63562 11.3952 9.7007 11.4137 9.79364 11.4137H10.658V11.7019H7.59083V11.4137H7.58618Z" fill="black"/>
<path d="M13.2141 11.3859C12.8841 11.0792 12.6285 10.6795 12.4426 10.1822C12.2614 9.68497 12.1685 9.16448 12.1685 8.6161C12.1685 8.06772 12.2614 7.54722 12.4426 7.04996C12.6239 6.5527 12.8841 6.15303 13.2141 5.84631C13.5441 5.53959 13.9251 5.38623 14.348 5.38623C14.7709 5.38623 15.1474 5.53959 15.482 5.84631C15.8166 6.15303 16.0722 6.5527 16.2581 7.04996C16.4393 7.54722 16.5323 8.06772 16.5323 8.6161C16.5323 9.16448 16.4393 9.68497 16.2581 10.1822C16.0768 10.6795 15.8166 11.0792 15.482 11.3859C15.1474 11.6926 14.7709 11.846 14.348 11.846C13.9251 11.846 13.5441 11.6926 13.2141 11.3859ZM15.3379 10.7074C15.4959 10.1404 15.5749 9.44331 15.5749 8.6161C15.5749 7.78888 15.4959 7.08714 15.3379 6.52482C15.1799 5.95785 14.8499 5.67901 14.3527 5.67901C13.8554 5.67901 13.5254 5.95785 13.3674 6.52017C13.2094 7.08249 13.1304 7.77958 13.1304 8.6161C13.1304 9.45261 13.2094 10.1497 13.3674 10.712C13.5254 11.2743 13.8554 11.5532 14.3527 11.5532C14.8499 11.5532 15.1799 11.2697 15.3379 10.7074Z" fill="black"/>
<path d="M68.1963 92.5555C68.6749 93.0806 69.4138 92.7693 69.4138 92.7693C69.2094 92.9877 69.0699 93.1643 69.0978 93.5268C69.0978 93.5407 69.0978 93.55 69.0978 93.564C69.0978 94.1402 69.5625 94.605 70.1388 94.605C70.715 94.605 71.1798 94.1402 71.1798 93.564C71.1798 93.4896 71.1705 93.4199 71.1566 93.3548C71.1333 93.1039 71.0078 92.9552 70.8405 92.7739C70.8405 92.7739 71.5794 93.0853 72.0581 92.5601C72.5368 92.035 72.2998 91.4123 72.1464 91.2078C71.9931 91.0033 71.77 90.6594 71.2355 90.7012C70.7615 90.7384 70.6918 90.8174 70.3712 91.0777C70.4083 90.3666 70.8405 89.8787 70.8405 89.8787H69.4184C69.6787 90.1529 69.911 90.7849 69.8832 91.073C69.5671 90.8174 69.4928 90.7384 69.0234 90.7059C68.489 90.6641 68.2613 91.008 68.1126 91.2124C67.9639 91.4169 67.7222 92.0397 68.2008 92.5648L68.1963 92.5555Z" fill="#151515"/>
<path d="M72.0952 96.6868H71.2308C71.1425 96.6868 71.0775 96.7054 71.0356 96.7426C70.9984 96.7798 70.9752 96.8402 70.9752 96.9238V101.353H72.0952V101.678H71.5979C71.2726 101.678 71.0124 101.766 70.8079 101.938C70.6081 102.115 70.4826 102.324 70.4315 102.57H70.1433V96.9238C70.1433 96.8402 70.1247 96.7798 70.0829 96.7426C70.0457 96.7054 69.9807 96.6868 69.8877 96.6868H69.0233V96.3987H72.0905V96.6868H72.0952Z" fill="black"/>
<path d="M66.4673 96.7147C66.7973 97.0214 67.0529 97.4211 67.2388 97.9184C67.4201 98.4156 67.513 98.9361 67.513 99.4845C67.513 100.033 67.4201 100.553 67.2388 101.051C67.0576 101.548 66.7973 101.948 66.4673 102.254C66.1374 102.561 65.7563 102.714 65.3334 102.714C64.9105 102.714 64.5341 102.561 64.1995 102.254C63.8649 101.948 63.6093 101.548 63.4234 101.051C63.2422 100.553 63.1492 100.033 63.1492 99.4845C63.1492 98.9361 63.2422 98.4156 63.4234 97.9184C63.6046 97.4211 63.8649 97.0214 64.1995 96.7147C64.5341 96.408 64.9105 96.2546 65.3334 96.2546C65.7563 96.2546 66.1374 96.408 66.4673 96.7147ZM64.3436 97.3932C64.1855 97.9602 64.1065 98.6573 64.1065 99.4845C64.1065 100.312 64.1855 101.013 64.3436 101.576C64.5016 102.143 64.8315 102.422 65.3288 102.422C65.826 102.422 66.156 102.143 66.314 101.58C66.472 101.018 66.551 100.321 66.551 99.4845C66.551 98.648 66.472 97.9509 66.314 97.3886C66.156 96.8263 65.826 96.5474 65.3288 96.5474C64.8315 96.5474 64.5016 96.8309 64.3436 97.3932Z" fill="black"/>
<path d="M46.1774 31.281C44.5136 29.4639 41.9622 30.542 41.9622 30.542C42.6779 29.7799 43.1519 29.1711 43.0636 27.921C43.0636 27.8791 43.0636 27.8373 43.0636 27.7955C43.0636 25.8065 41.451 24.1938 39.462 24.1938C37.4729 24.1938 35.8603 25.8065 35.8603 27.7955C35.8603 28.0465 35.8882 28.2881 35.9347 28.5251C36.0184 29.3895 36.4459 29.9147 37.0315 30.542C37.0315 30.542 34.4755 29.4639 32.8164 31.281C31.1527 33.0981 31.9845 35.2497 32.5097 35.9608C33.0348 36.6718 33.8156 37.8569 35.6652 37.7221C37.301 37.6013 37.5427 37.3224 38.6627 36.4255C38.5279 38.8932 37.0315 40.5802 37.0315 40.5802H41.9529C41.0467 39.6275 40.2474 37.4433 40.3496 36.4487C41.4464 37.3271 41.702 37.6013 43.3193 37.7221C45.1642 37.8615 45.9496 36.6718 46.4747 35.9608C46.9999 35.2544 47.8271 33.0981 46.168 31.281H46.1774Z" fill="#151515"/>
<path d="M28.4757 18.9052C26.8119 17.0881 24.2606 18.1663 24.2606 18.1663C24.9763 17.4042 25.4503 16.7954 25.362 15.5452C25.362 15.5034 25.362 15.4616 25.362 15.4198C25.362 13.4307 23.7494 11.8181 21.7604 11.8181C19.7713 11.8181 18.1587 13.4307 18.1587 15.4198C18.1587 15.6707 18.1866 15.9124 18.2331 16.1494C18.3167 17.0138 18.7443 17.5389 19.3298 18.1663C19.3298 18.1663 16.7738 17.0881 15.1147 18.9052C13.451 20.7223 14.2829 22.874 14.808 23.5851C15.3332 24.2961 16.1139 25.4811 17.9635 25.3464C19.5993 25.2255 19.841 24.9467 20.961 24.0498C20.8263 26.5175 19.3298 28.2045 19.3298 28.2045H24.2513C23.3451 27.2518 22.5458 25.0675 22.648 24.073C23.7448 24.9514 24.0003 25.2255 25.6176 25.3464C27.4625 25.4858 28.248 24.2961 28.7731 23.5851C29.2982 22.8787 30.1254 20.7223 28.4664 18.9052H28.4757Z" fill="#151515"/>
<path d="M28.4757 42.2207C26.8119 40.4036 24.2606 41.4817 24.2606 41.4817C24.9763 40.7196 25.4503 40.1108 25.362 38.8607C25.362 38.8188 25.362 38.777 25.362 38.7352C25.362 36.7462 23.7494 35.1335 21.7604 35.1335C19.7713 35.1335 18.1587 36.7462 18.1587 38.7352C18.1587 38.9861 18.1866 39.2278 18.2331 39.4648C18.3167 40.3292 18.7443 40.8544 19.3298 41.4817C19.3298 41.4817 16.7738 40.4036 15.1147 42.2207C13.451 44.0378 14.2829 46.1894 14.808 46.9005C15.3332 47.6115 16.1139 48.7966 17.9635 48.6618C19.5993 48.541 19.841 48.2621 20.961 47.3652C20.8263 49.8329 19.3298 51.5199 19.3298 51.5199H24.2513C23.3451 50.5672 22.5458 48.383 22.648 47.3884C23.7448 48.2668 24.0003 48.541 25.6176 48.6618C27.4625 48.8012 28.248 47.6115 28.7731 46.9005C29.2982 46.1941 30.1254 44.0378 28.4664 42.2207H28.4757Z" fill="#151515"/>
<path d="M28.4757 91.0497C26.8119 92.8668 24.2606 91.7886 24.2606 91.7886C24.9763 92.5508 25.4503 93.1596 25.362 94.4097C25.362 94.4515 25.362 94.4934 25.362 94.5352C25.362 96.5242 23.7494 98.1368 21.7604 98.1368C19.7713 98.1368 18.1587 96.5242 18.1587 94.5352C18.1587 94.2842 18.1866 94.0379 18.2331 93.8056C18.3167 92.9412 18.7443 92.416 19.3298 91.7886C19.3298 91.7886 16.7738 92.8668 15.1147 91.0497C13.451 89.2326 14.2829 87.0809 14.808 86.3699C15.3332 85.6635 16.1139 84.4738 17.9635 84.6086C19.5993 84.7294 19.841 85.0082 20.961 85.9052C20.8263 83.4375 19.3298 81.7505 19.3298 81.7505H24.2513C23.3451 82.7032 22.5458 84.8874 22.648 85.8819C23.7448 85.0036 24.0003 84.7294 25.6176 84.6086C27.4625 84.4691 28.248 85.6589 28.7731 86.3699C29.2982 87.0763 30.1254 89.2326 28.4664 91.0497H28.4757Z" fill="#151515"/>
<path d="M64.8363 18.9052C63.1725 17.0881 60.6212 18.1663 60.6212 18.1663C61.3369 17.4042 61.8109 16.7954 61.7226 15.5452C61.7226 15.5034 61.7226 15.4616 61.7226 15.4198C61.7226 13.4307 60.11 11.8181 58.121 11.8181C56.1319 11.8181 54.5193 13.4307 54.5193 15.4198C54.5193 15.6707 54.5472 15.9124 54.5937 16.1494C54.6773 17.0138 55.1049 17.5389 55.6904 18.1663C55.6904 18.1663 53.1344 17.0881 51.4753 18.9052C49.8116 20.7223 50.6435 22.874 51.1686 23.5851C51.6938 24.2961 52.4745 25.4811 54.3241 25.3464C55.9599 25.2255 56.2016 24.9467 57.3216 24.0498C57.1869 26.5175 55.6904 28.2045 55.6904 28.2045H60.6119C59.7057 27.2518 58.9064 25.0675 59.0086 24.073C60.1054 24.9514 60.361 25.2255 61.9782 25.3464C63.8232 25.4858 64.6086 24.2961 65.1337 23.5851C65.6588 22.8787 66.4861 20.7223 64.827 18.9052H64.8363Z" fill="#151515"/>
<path d="M64.8363 42.2207C63.1725 40.4036 60.6212 41.4817 60.6212 41.4817C61.3369 40.7196 61.8109 40.1108 61.7226 38.8607C61.7226 38.8188 61.7226 38.777 61.7226 38.7352C61.7226 36.7462 60.11 35.1335 58.121 35.1335C56.1319 35.1335 54.5193 36.7462 54.5193 38.7352C54.5193 38.9861 54.5472 39.2278 54.5937 39.4648C54.6773 40.3292 55.1049 40.8544 55.6904 41.4817C55.6904 41.4817 53.1344 40.4036 51.4753 42.2207C49.8116 44.0378 50.6435 46.1894 51.1686 46.9005C51.6938 47.6115 52.4745 48.7966 54.3241 48.6618C55.9599 48.541 56.2016 48.2621 57.3216 47.3652C57.1869 49.8329 55.6904 51.5199 55.6904 51.5199H60.6119C59.7057 50.5672 58.9064 48.383 59.0086 47.3884C60.1054 48.2668 60.361 48.541 61.9782 48.6618C63.8232 48.8012 64.6086 47.6115 65.1337 46.9005C65.6588 46.1941 66.4861 44.0378 64.827 42.2207H64.8363Z" fill="#151515"/>
<path d="M64.8363 91.0497C63.1725 92.8668 60.6212 91.7886 60.6212 91.7886C61.3369 92.5508 61.8109 93.1596 61.7226 94.4097C61.7226 94.4515 61.7226 94.4934 61.7226 94.5352C61.7226 96.5242 60.11 98.1368 58.121 98.1368C56.1319 98.1368 54.5193 96.5242 54.5193 94.5352C54.5193 94.2842 54.5472 94.0379 54.5937 93.8056C54.6773 92.9412 55.1049 92.416 55.6904 91.7886C55.6904 91.7886 53.1344 92.8668 51.4753 91.0497C49.8116 89.2326 50.6435 87.0809 51.1686 86.3699C51.6938 85.6635 52.4745 84.4738 54.3241 84.6086C55.9599 84.7294 56.2016 85.0082 57.3216 85.9052C57.1869 83.4375 55.6904 81.7505 55.6904 81.7505H60.6119C59.7057 82.7032 58.9064 84.8874 59.0086 85.8819C60.1054 85.0036 60.361 84.7294 61.9782 84.6086C63.8232 84.4691 64.6086 85.6589 65.1337 86.3699C65.6588 87.0763 66.4861 89.2326 64.827 91.0497H64.8363Z" fill="#151515"/>
<path d="M28.4757 67.7389C26.8119 69.556 24.2606 68.4778 24.2606 68.4778C24.9763 69.24 25.4503 69.8488 25.362 71.0989C25.362 71.1407 25.362 71.1826 25.362 71.2244C25.362 73.2134 23.7494 74.826 21.7604 74.826C19.7713 74.826 18.1587 73.2134 18.1587 71.2244C18.1587 70.9734 18.1866 70.7271 18.2331 70.4948C18.3167 69.6304 18.7443 69.1052 19.3298 68.4778C19.3298 68.4778 16.7738 69.556 15.1147 67.7389C13.451 65.9218 14.2829 63.7701 14.808 63.0591C15.3332 62.3481 16.1139 61.163 17.9635 61.2978C19.5993 61.4186 19.841 61.6974 20.961 62.5944C20.8263 60.1267 19.3298 58.4397 19.3298 58.4397H24.2513C23.3451 59.3924 22.5458 61.5766 22.648 62.5711C23.7448 61.6928 24.0003 61.4186 25.6176 61.2978C27.4625 61.1584 28.248 62.3481 28.7731 63.0591C29.2982 63.7655 30.1254 65.9218 28.4664 67.7389H28.4757Z" fill="#151515"/>
<path d="M64.8363 67.7389C63.1725 69.556 60.6212 68.4778 60.6212 68.4778C61.3369 69.24 61.8109 69.8488 61.7226 71.0989C61.7226 71.1407 61.7226 71.1826 61.7226 71.2244C61.7226 73.2134 60.11 74.826 58.121 74.826C56.1319 74.826 54.5193 73.2134 54.5193 71.2244C54.5193 70.9734 54.5472 70.7271 54.5937 70.4948C54.6773 69.6304 55.1049 69.1052 55.6904 68.4778C55.6904 68.4778 53.1344 69.556 51.4753 67.7389C49.8116 65.9218 50.6435 63.7701 51.1686 63.0591C51.6938 62.3481 52.4745 61.163 54.3241 61.2978C55.9599 61.4186 56.2016 61.6974 57.3216 62.5944C57.1869 60.1267 55.6904 58.4397 55.6904 58.4397H60.6119C59.7057 59.3924 58.9064 61.5766 59.0086 62.5711C60.1054 61.6928 60.361 61.4186 61.9782 61.2978C63.8232 61.1584 64.6086 62.3481 65.1337 63.0591C65.6588 63.7655 66.4861 65.9218 64.827 67.7389H64.8363Z" fill="#151515"/>
<path d="M46.1774 77.2985C44.5136 79.1156 41.9622 78.0374 41.9622 78.0374C42.6779 78.7996 43.1519 79.4084 43.0636 80.6585C43.0636 80.7003 43.0636 80.7421 43.0636 80.784C43.0636 82.773 41.451 84.3856 39.462 84.3856C37.4729 84.3856 35.8603 82.773 35.8603 80.784C35.8603 80.533 35.8882 80.2867 35.9347 80.0543C36.0184 79.1899 36.4459 78.6648 37.0315 78.0374C37.0315 78.0374 34.4755 79.1156 32.8164 77.2985C31.1527 75.4814 31.9845 73.3297 32.5097 72.6187C33.0348 71.9123 33.8156 70.7226 35.6652 70.8573C37.301 70.9782 37.5427 71.257 38.6627 72.1539C38.5279 69.6862 37.0315 67.9993 37.0315 67.9993H41.9529C41.0467 68.952 40.2474 71.1362 40.3496 72.1307C41.4464 71.2524 41.702 70.9782 43.3193 70.8573C45.1642 70.7179 45.9496 71.9076 46.4747 72.6187C46.9999 73.3251 47.8271 75.4814 46.168 77.2985H46.1774Z" fill="#151515"/>
</svg>
