<svg width="78" height="109" viewBox="0 0 78 109" fill="none" xmlns="http://www.w3.org/2000/svg">
<path d="M74.6945 0.0556641H2.90319C1.37861 0.0556641 0.1427 1.29158 0.1427 2.81615V105.531C0.1427 107.055 1.37861 108.291 2.90319 108.291H74.6945C76.2191 108.291 77.455 107.055 77.455 105.531V2.81615C77.455 1.29158 76.2191 0.0556641 74.6945 0.0556641Z" fill="white"/>
<path d="M74.6898 108.342H2.90317C1.35098 108.342 0.0869141 107.078 0.0869141 105.526V2.81626C0.0869141 1.26406 1.35098 0 2.90317 0H74.6945C76.2467 0 77.5108 1.26406 77.5108 2.81626V105.531C77.5108 107.083 76.2467 108.347 74.6945 108.347L74.6898 108.342ZM2.90317 0.106888C1.41139 0.106888 0.198452 1.31983 0.198452 2.81161V105.531C0.198452 107.022 1.41139 108.235 2.90317 108.235H74.6945C76.1863 108.235 77.3992 107.022 77.3992 105.531V2.81626C77.3992 1.32448 76.1863 0.111535 74.6945 0.111535H2.90317V0.106888Z" fill="#65A7DD"/>
<path d="M69.4245 8.58814C69.4245 8.7322 69.3083 8.85303 69.1596 8.85303C69.0108 8.85303 68.8947 8.73685 68.8947 8.58814C68.8947 8.43942 69.0108 8.32324 69.1596 8.32324C69.3083 8.32324 69.4245 8.43942 69.4245 8.58814Z" fill="white"/>
<path d="M56.8163 8.58814C56.8163 8.7322 56.7001 8.85303 56.5514 8.85303C56.4027 8.85303 56.2865 8.73685 56.2865 8.58814C56.2865 8.43942 56.4027 8.32324 56.5514 8.32324C56.7001 8.32324 56.8163 8.43942 56.8163 8.58814Z" fill="white"/>
<path d="M45.2167 8.58814C45.2167 8.7322 45.1005 8.85303 44.9518 8.85303C44.8031 8.85303 44.6869 8.73685 44.6869 8.58814C44.6869 8.43942 44.8031 8.32324 44.9518 8.32324C45.1005 8.32324 45.2167 8.43942 45.2167 8.58814Z" fill="white"/>
<path d="M33.5753 8.67188C33.5753 8.81594 33.4591 8.93677 33.3104 8.93677C33.1617 8.93677 33.0455 8.82059 33.0455 8.67188C33.0455 8.52316 33.1617 8.40698 33.3104 8.40698C33.4591 8.40698 33.5753 8.52316 33.5753 8.67188Z" fill="white"/>
<path d="M69.4245 18.4126C69.4245 18.5567 69.3083 18.6775 69.1596 18.6775C69.0108 18.6775 68.8947 18.5613 68.8947 18.4126C68.8947 18.2639 69.0108 18.1477 69.1596 18.1477C69.3083 18.1477 69.4245 18.2639 69.4245 18.4126Z" fill="white"/>
<path d="M69.4245 27.3772C69.4245 27.5213 69.3083 27.6421 69.1596 27.6421C69.0108 27.6421 68.8947 27.5259 68.8947 27.3772C68.8947 27.2285 69.0108 27.1123 69.1596 27.1123C69.3083 27.1123 69.4245 27.2285 69.4245 27.3772Z" fill="white"/>
<path d="M69.4245 36.7739C69.4245 36.918 69.3083 37.0388 69.1596 37.0388C69.0108 37.0388 68.8947 36.9226 68.8947 36.7739C68.8947 36.6252 69.0108 36.509 69.1596 36.509C69.3083 36.509 69.4245 36.6252 69.4245 36.7739Z" fill="white"/>
<path d="M69.4245 42.7131C69.4245 42.8572 69.3083 42.978 69.1596 42.978C69.0108 42.978 68.8947 42.8619 68.8947 42.7131C68.8947 42.5644 69.0108 42.4482 69.1596 42.4482C69.3083 42.4482 69.4245 42.5644 69.4245 42.7131Z" fill="white"/>
<path d="M69.4245 48.6758C69.4245 48.8198 69.3083 48.9407 69.1596 48.9407C69.0108 48.9407 68.8947 48.8245 68.8947 48.6758C68.8947 48.5271 69.0108 48.4109 69.1596 48.4109C69.3083 48.4109 69.4245 48.5271 69.4245 48.6758Z" fill="white"/>
<path d="M8.87024 8.85303C8.87024 8.9971 8.75407 9.11793 8.60535 9.11793C8.45664 9.11793 8.34045 9.00174 8.34045 8.85303C8.34045 8.70432 8.45664 8.58813 8.60535 8.58813C8.75407 8.58813 8.87024 8.70432 8.87024 8.85303Z" fill="white"/>
<path d="M21.6224 8.67188C21.6224 8.81594 21.5063 8.93677 21.3576 8.93677C21.2088 8.93677 21.0927 8.82059 21.0927 8.67188C21.0927 8.52316 21.2088 8.40698 21.3576 8.40698C21.5063 8.40698 21.6224 8.52316 21.6224 8.67188Z" fill="white"/>
<path d="M8.87024 18.2034C8.87024 18.3474 8.75407 18.4683 8.60535 18.4683C8.45664 18.4683 8.34045 18.3521 8.34045 18.2034C8.34045 18.0547 8.45664 17.9385 8.60535 17.9385C8.75407 17.9385 8.87024 18.0547 8.87024 18.2034Z" fill="white"/>
<path d="M8.87024 27.4421C8.87024 27.5862 8.75407 27.707 8.60535 27.707C8.45664 27.707 8.34045 27.5909 8.34045 27.4421C8.34045 27.2934 8.45664 27.1772 8.60535 27.1772C8.75407 27.1772 8.87024 27.2934 8.87024 27.4421Z" fill="white"/>
<path d="M8.87024 36.709C8.87024 36.8531 8.75407 36.9739 8.60535 36.9739C8.45664 36.9739 8.34045 36.8577 8.34045 36.709C8.34045 36.5603 8.45664 36.4441 8.60535 36.4441C8.75407 36.4441 8.87024 36.5603 8.87024 36.709Z" fill="white"/>
<path d="M8.87024 42.7131C8.87024 42.8572 8.75407 42.978 8.60535 42.978C8.45664 42.978 8.34045 42.8619 8.34045 42.7131C8.34045 42.5644 8.45664 42.4482 8.60535 42.4482C8.75407 42.4482 8.87024 42.5644 8.87024 42.7131Z" fill="white"/>
<path d="M8.87024 48.9407C8.87024 49.0847 8.75407 49.2056 8.60535 49.2056C8.45664 49.2056 8.34045 49.0894 8.34045 48.9407C8.34045 48.792 8.45664 48.6758 8.60535 48.6758C8.75407 48.6758 8.87024 48.792 8.87024 48.9407Z" fill="white"/>
<path d="M8.87024 54.9495C8.87024 55.0935 8.75407 55.2144 8.60535 55.2144C8.45664 55.2144 8.34045 55.0982 8.34045 54.9495C8.34045 54.8008 8.45664 54.6846 8.60535 54.6846C8.75407 54.6846 8.87024 54.8008 8.87024 54.9495Z" fill="white"/>
<path d="M8.87024 60.9585C8.87024 61.1026 8.75407 61.2234 8.60535 61.2234C8.45664 61.2234 8.34045 61.1072 8.34045 60.9585C8.34045 60.8098 8.45664 60.6936 8.60535 60.6936C8.75407 60.6936 8.87024 60.8098 8.87024 60.9585Z" fill="white"/>
<path d="M8.87024 67.1858C8.87024 67.3299 8.75407 67.4507 8.60535 67.4507C8.45664 67.4507 8.34045 67.3345 8.34045 67.1858C8.34045 67.0371 8.45664 66.9209 8.60535 66.9209C8.75407 66.9209 8.87024 67.0371 8.87024 67.1858Z" fill="white"/>
<path d="M8.87024 73.4273C8.87024 73.5713 8.75407 73.6922 8.60535 73.6922C8.45664 73.6922 8.34045 73.576 8.34045 73.4273C8.34045 73.2785 8.45664 73.1624 8.60535 73.1624C8.75407 73.1624 8.87024 73.2785 8.87024 73.4273Z" fill="white"/>
<path d="M8.87024 79.0039C8.87024 79.148 8.75407 79.2688 8.60535 79.2688C8.45664 79.2688 8.34045 79.1526 8.34045 79.0039C8.34045 78.8552 8.45664 78.739 8.60535 78.739C8.75407 78.739 8.87024 78.8552 8.87024 79.0039Z" fill="white"/>
<path d="M8.87024 85.2266C8.87024 85.3706 8.75407 85.4915 8.60535 85.4915C8.45664 85.4915 8.34045 85.3753 8.34045 85.2266C8.34045 85.0778 8.45664 84.9617 8.60535 84.9617C8.75407 84.9617 8.87024 85.0778 8.87024 85.2266Z" fill="white"/>
<path d="M8.87024 91.2913C8.87024 91.4353 8.75407 91.5562 8.60535 91.5562C8.45664 91.5562 8.34045 91.44 8.34045 91.2913C8.34045 91.1426 8.45664 91.0264 8.60535 91.0264C8.75407 91.0264 8.87024 91.1426 8.87024 91.2913Z" fill="white"/>
<path d="M8.97718 100.209C8.97718 100.354 8.86099 100.474 8.71228 100.474C8.56357 100.474 8.44739 100.358 8.44739 100.209C8.44739 100.061 8.56357 99.9446 8.71228 99.9446C8.86099 99.9446 8.97718 100.061 8.97718 100.209Z" fill="white"/>
<path d="M18.5181 100.47C18.5181 100.614 18.4019 100.735 18.2532 100.735C18.1045 100.735 17.9883 100.618 17.9883 100.47C17.9883 100.321 18.1045 100.205 18.2532 100.205C18.4019 100.205 18.5181 100.321 18.5181 100.47Z" fill="white"/>
<path d="M30.8101 100.47C30.8101 100.614 30.6939 100.735 30.5452 100.735C30.3965 100.735 30.2803 100.618 30.2803 100.47C30.2803 100.321 30.3965 100.205 30.5452 100.205C30.6939 100.205 30.8101 100.321 30.8101 100.47Z" fill="white"/>
<path d="M43.079 100.47C43.079 100.614 42.9628 100.735 42.8141 100.735C42.6654 100.735 42.5492 100.618 42.5492 100.47C42.5492 100.321 42.6654 100.205 42.8141 100.205C42.9628 100.205 43.079 100.321 43.079 100.47Z" fill="white"/>
<path d="M55.0365 100.47C55.0365 100.614 54.9203 100.735 54.7716 100.735C54.6229 100.735 54.5067 100.618 54.5067 100.47C54.5067 100.321 54.6229 100.205 54.7716 100.205C54.9203 100.205 55.0365 100.321 55.0365 100.47Z" fill="white"/>
<path d="M69.4245 54.8054C69.4245 54.9495 69.3083 55.0703 69.1596 55.0703C69.0108 55.0703 68.8947 54.9541 68.8947 54.8054C68.8947 54.6567 69.0108 54.5405 69.1596 54.5405C69.3083 54.5405 69.4245 54.6567 69.4245 54.8054Z" fill="white"/>
<path d="M69.4245 60.5356C69.4245 60.6797 69.3083 60.8005 69.1596 60.8005C69.0108 60.8005 68.8947 60.6844 68.8947 60.5356C68.8947 60.3869 69.0108 60.2708 69.1596 60.2708C69.3083 60.2708 69.4245 60.3869 69.4245 60.5356Z" fill="white"/>
<path d="M69.4245 66.7119C69.4245 66.856 69.3083 66.9768 69.1596 66.9768C69.0108 66.9768 68.8947 66.8606 68.8947 66.7119C68.8947 66.5632 69.0108 66.447 69.1596 66.447C69.3083 66.447 69.4245 66.5632 69.4245 66.7119Z" fill="white"/>
<path d="M69.4245 72.7998C69.4245 72.9439 69.3083 73.0647 69.1596 73.0647C69.0108 73.0647 68.8947 72.9485 68.8947 72.7998C68.8947 72.6511 69.0108 72.5349 69.1596 72.5349C69.3083 72.5349 69.4245 72.6511 69.4245 72.7998Z" fill="white"/>
<path d="M69.4245 78.7297C69.4245 78.8738 69.3083 78.9946 69.1596 78.9946C69.0108 78.9946 68.8947 78.8785 68.8947 78.7297C68.8947 78.581 69.0108 78.4648 69.1596 78.4648C69.3083 78.4648 69.4245 78.581 69.4245 78.7297Z" fill="white"/>
<path d="M69.4245 84.5713C69.4245 84.7154 69.3083 84.8362 69.1596 84.8362C69.0108 84.8362 68.8947 84.72 68.8947 84.5713C68.8947 84.4226 69.0108 84.3064 69.1596 84.3064C69.3083 84.3064 69.4245 84.4226 69.4245 84.5713Z" fill="white"/>
<path d="M69.4245 90.5386C69.4245 90.6826 69.3083 90.8035 69.1596 90.8035C69.0108 90.8035 68.8947 90.6873 68.8947 90.5386C68.8947 90.3899 69.0108 90.2737 69.1596 90.2737C69.3083 90.2737 69.4245 90.3899 69.4245 90.5386Z" fill="white"/>
<path d="M69.4245 99.6333C69.4245 99.7774 69.3083 99.8982 69.1596 99.8982C69.0108 99.8982 68.8947 99.782 68.8947 99.6333C68.8947 99.4846 69.0108 99.3684 69.1596 99.3684C69.3083 99.3684 69.4245 99.4846 69.4245 99.6333Z" fill="white"/>
<path d="M46.0532 86.1933C44.3895 88.0104 41.8381 86.9322 41.8381 86.9322C42.5538 87.6943 43.0278 88.3031 42.9395 89.5533C42.9395 89.5951 42.9395 89.6369 42.9395 89.6787C42.9395 91.6678 41.3269 93.2804 39.3379 93.2804C37.3488 93.2804 35.7362 91.6678 35.7362 89.6787C35.7362 89.4278 35.7641 89.1861 35.8106 88.9491C35.8942 88.0847 36.3218 87.5596 36.9073 86.9322C36.9073 86.9322 34.3513 88.0104 32.6922 86.1933C31.0285 84.3762 31.8604 82.2245 32.3855 81.5134C32.9107 80.8071 33.6914 79.6174 35.541 79.7521C37.1769 79.873 37.4185 80.1518 38.5432 81.0487C38.4084 78.581 36.912 76.894 36.912 76.894H41.8381C40.9319 77.8467 40.1326 80.031 40.2348 81.0255C41.3362 80.1471 41.5872 79.873 43.2044 79.7521C45.0494 79.6127 45.8348 80.8024 46.3599 81.5134C46.8851 82.2198 47.7123 84.3762 46.0532 86.1933Z" fill="#151515"/>
<path d="M7.3832 10.7491C7.50867 10.4238 7.79216 10.0753 8.22901 9.7035L9.0934 8.96458C9.37689 8.73222 9.59066 8.47197 9.73938 8.18849C9.88809 7.905 9.96244 7.57969 9.96244 7.21255C9.96244 6.74318 9.84626 6.38069 9.61854 6.12509C9.39083 5.86949 9.06552 5.74401 8.64262 5.74401C8.45208 5.74401 8.26618 5.79048 8.08959 5.87878C7.91299 5.96708 7.76892 6.08791 7.65739 6.23662C7.54585 6.38534 7.49008 6.53405 7.49008 6.69206C7.49008 6.83612 7.52262 6.94301 7.58768 7.01272C7.65274 7.08243 7.74569 7.12426 7.85722 7.14285C8.04776 7.17538 8.19183 7.23579 8.28477 7.33803C8.37772 7.43562 8.42419 7.55645 8.42419 7.69587C8.42419 7.81205 8.38236 7.905 8.30336 7.984C8.21971 8.06301 8.10817 8.10019 7.96411 8.10019C7.7178 8.10019 7.51332 8.00259 7.35067 7.80741C7.18801 7.61222 7.10901 7.35662 7.10901 7.03596C7.10901 6.71529 7.18801 6.45505 7.34137 6.20409C7.49473 5.95779 7.70851 5.76725 7.9827 5.62783C8.25689 5.48841 8.56361 5.4187 8.89822 5.4187C9.28394 5.4187 9.62784 5.49306 9.93456 5.63712C10.2413 5.78119 10.4829 5.99032 10.6549 6.25986C10.8315 6.5294 10.9151 6.85007 10.9151 7.2172C10.9151 7.58434 10.785 7.9143 10.5294 8.21172C10.2692 8.5045 9.92991 8.80193 9.51166 9.104L8.62867 9.78715C8.37772 9.96375 8.18253 10.1264 8.04776 10.2891C7.91299 10.4471 7.84328 10.6144 7.84328 10.7817C7.84328 10.9257 7.93622 11.0001 8.12211 11.0001H9.82768C10.0693 11.0001 10.2366 10.949 10.3389 10.8421C10.4365 10.7352 10.5062 10.5865 10.5434 10.3959L10.641 9.86151H10.8408L10.7153 11.739H7.19731C7.19731 11.4091 7.26237 11.0791 7.38785 10.7538L7.3832 10.7491Z" fill="#272425"/>
<path d="M71.7295 96.9889C71.604 97.3142 71.3205 97.6627 70.8836 98.0345L70.0193 98.7734C69.7358 99.0105 69.522 99.2661 69.3733 99.5496C69.2246 99.833 69.1502 100.158 69.1502 100.525C69.1502 100.995 69.2664 101.357 69.4941 101.613C69.7218 101.869 70.0471 101.994 70.47 101.994C70.6606 101.994 70.8465 101.948 71.0231 101.859C71.1997 101.771 71.3437 101.65 71.4553 101.501C71.5668 101.353 71.6226 101.204 71.6226 101.046C71.6226 100.902 71.59 100.795 71.525 100.725C71.4599 100.656 71.367 100.614 71.2554 100.595C71.0649 100.567 70.9208 100.502 70.8279 100.4C70.7349 100.302 70.6885 100.182 70.6885 100.042C70.6885 99.926 70.7303 99.833 70.8093 99.754C70.8929 99.675 71.0045 99.6378 71.1485 99.6378C71.3948 99.6378 71.5993 99.7354 71.762 99.9306C71.9246 100.126 72.0036 100.381 72.0036 100.702C72.0036 101.023 71.9246 101.288 71.7713 101.534C71.6179 101.78 71.4041 101.971 71.1299 102.11C70.8558 102.25 70.549 102.319 70.2144 102.319C69.8287 102.319 69.4848 102.245 69.1781 102.101C68.8714 101.957 68.6297 101.748 68.4578 101.478C68.2812 101.209 68.1975 100.888 68.1975 100.521C68.1975 100.154 68.3276 99.8237 68.5832 99.5263C68.8435 99.2335 69.1827 98.9361 69.601 98.634L70.484 97.9509C70.7349 97.7743 70.9301 97.6116 71.0649 97.449C71.1997 97.291 71.2694 97.1237 71.2694 96.9564C71.2694 96.8123 71.1764 96.7379 70.9905 96.7379H69.285C69.0433 96.7379 68.876 96.7891 68.7738 96.8959C68.6762 97.0028 68.6065 97.1516 68.5693 97.3421L68.4717 97.8765H68.2719L68.3973 95.999H71.9153C71.9153 96.329 71.8503 96.6589 71.7248 96.9842L71.7295 96.9889Z" fill="#272425"/>
<path d="M7.00207 15.9076C7.48074 16.4327 8.21966 16.1213 8.21966 16.1213C8.01518 16.3397 7.87576 16.5163 7.90364 16.8788C7.90364 16.8928 7.90364 16.9021 7.90364 16.916C7.90364 17.4923 8.36837 17.957 8.94463 17.957C9.5209 17.957 9.98563 17.4923 9.98563 16.916C9.98563 16.8417 9.97633 16.7719 9.96239 16.7069C9.93915 16.4559 9.81368 16.3072 9.64638 16.126C9.64638 16.126 10.3853 16.4373 10.864 15.9122C11.3426 15.3871 11.1056 14.7643 10.9523 14.5598C10.7989 14.3554 10.5758 14.0115 10.0414 14.0533C9.56737 14.0905 9.49766 14.1695 9.17235 14.4297C9.20953 13.7187 9.64173 13.2307 9.64173 13.2307H8.21966C8.4799 13.5049 8.71227 14.1369 8.68438 14.4251C8.36837 14.1695 8.29401 14.0905 7.82463 14.0579C7.2902 14.0161 7.06248 14.36 6.91377 14.5645C6.76041 14.769 6.5234 15.3917 7.00207 15.9168V15.9076Z" fill="#151515"/>
<path d="M46.0532 19.2026C44.3895 17.3855 41.8381 18.4637 41.8381 18.4637C42.5538 17.7015 43.0278 17.0927 42.9395 15.8426C42.9395 15.8008 42.9395 15.759 42.9395 15.7171C42.9395 13.7281 41.3269 12.1155 39.3379 12.1155C37.3488 12.1155 35.7362 13.7281 35.7362 15.7171C35.7362 15.9681 35.7641 16.2144 35.8106 16.4468C35.8942 17.3111 36.3218 17.8363 36.9073 18.4637C36.9073 18.4637 34.3513 17.3855 32.6922 19.2026C31.0285 21.0197 31.8604 23.1714 32.3855 23.8824C32.9107 24.5888 33.6914 25.7785 35.541 25.6437C37.1769 25.5229 37.4185 25.2441 38.5432 24.3471C38.4084 26.8149 36.912 28.5018 36.912 28.5018H41.8381C40.9319 27.5491 40.1326 25.3649 40.2348 24.3704C41.3362 25.2487 41.5872 25.5229 43.2044 25.6437C45.0494 25.7832 45.8348 24.5934 46.3599 23.8824C46.8851 23.176 47.7123 21.0197 46.0532 19.2026Z" fill="#151515"/>
<path d="M67.5608 91.7189C68.0395 91.1937 68.7784 91.5051 68.7784 91.5051C68.5739 91.2867 68.4345 91.1101 68.4624 90.7476C68.4624 90.7337 68.4624 90.7244 68.4624 90.7104C68.4624 90.1342 68.9271 89.6694 69.5034 89.6694C70.0797 89.6694 70.5444 90.1342 70.5444 90.7104C70.5444 90.7848 70.5351 90.8545 70.5212 90.9196C70.4979 91.1705 70.3725 91.3192 70.2052 91.5005C70.2052 91.5005 70.9441 91.1891 71.4227 91.7142C71.9014 92.2394 71.6644 92.8621 71.511 93.0666C71.3577 93.2711 71.1346 93.615 70.6002 93.5732C70.1262 93.536 70.0564 93.457 69.7311 93.1967C69.7683 93.9078 70.2005 94.3957 70.2005 94.3957H68.7784C69.0387 94.1215 69.271 93.4895 69.2432 93.2014C68.9271 93.457 68.8528 93.536 68.3834 93.5685C67.849 93.6103 67.6213 93.2664 67.4725 93.062C67.3238 92.8575 67.0822 92.2347 67.5608 91.7096V91.7189Z" fill="#151515"/>
</svg>
