<svg width="78" height="109" viewBox="0 0 78 109" fill="none" xmlns="http://www.w3.org/2000/svg">
<path d="M74.7816 0.0556641H2.99023C1.46565 0.0556641 0.229736 1.29158 0.229736 2.81615V105.531C0.229736 107.055 1.46565 108.291 2.99023 108.291H74.7816C76.3061 108.291 77.542 107.055 77.542 105.531V2.81615C77.542 1.29158 76.3061 0.0556641 74.7816 0.0556641Z" fill="white"/>
<path d="M74.7815 108.342H2.99021C1.43801 108.342 0.17395 107.078 0.17395 105.526V2.81626C0.17395 1.26406 1.43801 0 2.99021 0H74.7815C76.3337 0 77.5978 1.26406 77.5978 2.81626V105.531C77.5978 107.083 76.3337 108.347 74.7815 108.347V108.342ZM2.99021 0.106888C1.49843 0.106888 0.285481 1.31983 0.285481 2.81161V105.531C0.285481 107.022 1.49843 108.235 2.99021 108.235H74.7815C76.2733 108.235 77.4862 107.022 77.4862 105.531V2.81626C77.4862 1.32448 76.2733 0.111535 74.7815 0.111535H2.99021V0.106888Z" fill="#65A7DD"/>
<path d="M45.7081 19.2026C44.0444 17.3855 41.493 18.4637 41.493 18.4637C42.2087 17.7015 42.6827 17.0927 42.5944 15.8426C42.5944 15.8008 42.5944 15.759 42.5944 15.7171C42.5944 13.7281 40.9818 12.1155 38.9928 12.1155C37.0037 12.1155 35.3911 13.7281 35.3911 15.7171C35.3911 15.9681 35.419 16.2144 35.4655 16.4468C35.5491 17.3111 35.9767 17.8363 36.5622 18.4637C36.5622 18.4637 34.0062 17.3855 32.3472 19.2026C30.6834 21.0197 31.5153 23.1714 32.0404 23.8824C32.5656 24.5888 33.3463 25.7785 35.1959 25.6437C36.8318 25.5229 37.0734 25.2441 38.1981 24.3471C38.0633 26.8149 36.5669 28.5018 36.5669 28.5018H41.493C40.5868 27.5491 39.7875 25.3649 39.8897 24.3704C40.9911 25.2487 41.2421 25.5229 42.8593 25.6437C44.7043 25.7832 45.4897 24.5934 46.0148 23.8824C46.54 23.176 47.3672 21.0197 45.7081 19.2026Z" fill="#151515"/>
<path d="M45.7081 51.7336C44.0444 49.9165 41.493 50.9947 41.493 50.9947C42.2087 50.2325 42.6827 49.6237 42.5944 48.3736C42.5944 48.3318 42.5944 48.29 42.5944 48.2481C42.5944 46.2591 40.9818 44.6465 38.9928 44.6465C37.0037 44.6465 35.3911 46.2591 35.3911 48.2481C35.3911 48.4991 35.419 48.7454 35.4655 48.9778C35.5491 49.8422 35.9767 50.3673 36.5622 50.9947C36.5622 50.9947 34.0062 49.9165 32.3472 51.7336C30.6834 53.5507 31.5153 55.7024 32.0404 56.4134C32.5656 57.1198 33.3463 58.3095 35.1959 58.1747C36.8318 58.0539 37.0734 57.7751 38.1981 56.8781C38.0633 59.3459 36.5669 61.0328 36.5669 61.0328H41.493C40.5868 60.0801 39.7875 57.8959 39.8897 56.9014C40.9911 57.7797 41.2421 58.0539 42.8593 58.1747C44.7043 58.3142 45.4897 57.1245 46.0148 56.4134C46.54 55.707 47.3672 53.5507 45.7081 51.7336Z" fill="#151515"/>
<path d="M45.7081 86.1933C44.0444 88.0104 41.493 86.9322 41.493 86.9322C42.2087 87.6943 42.6827 88.3031 42.5944 89.5533C42.5944 89.5951 42.5944 89.6369 42.5944 89.6787C42.5944 91.6678 40.9818 93.2804 38.9928 93.2804C37.0037 93.2804 35.3911 91.6678 35.3911 89.6787C35.3911 89.4278 35.419 89.1861 35.4655 88.9491C35.5491 88.0847 35.9767 87.5596 36.5622 86.9322C36.5622 86.9322 34.0062 88.0104 32.3472 86.1933C30.6834 84.3762 31.5153 82.2245 32.0404 81.5134C32.5656 80.8071 33.3463 79.6174 35.1959 79.7521C36.8318 79.873 37.0734 80.1518 38.1981 81.0487C38.0633 78.581 36.5669 76.894 36.5669 76.894H41.493C40.5868 77.8467 39.7875 80.031 39.8897 81.0255C40.9911 80.1471 41.2421 79.873 42.8593 79.7521C44.7043 79.6127 45.4897 80.8024 46.0148 81.5134C46.54 82.2198 47.3672 84.3762 45.7081 86.1933Z" fill="#151515"/>
<path d="M7.27039 11.5671C6.95902 11.358 6.80103 11.0559 6.80103 10.6609C6.80103 10.4424 6.86609 10.2612 6.99157 10.1078C7.11704 9.95448 7.28433 9.87548 7.48882 9.87548C7.66076 9.87548 7.80019 9.92195 7.89778 10.0149C7.99537 10.1078 8.0465 10.238 8.0465 10.396C8.0465 10.5215 8.00932 10.633 7.93497 10.7259C7.86061 10.8189 7.76301 10.8653 7.64218 10.8653C7.43306 10.8653 7.32617 10.9165 7.32617 11.0187C7.32617 11.3998 7.70259 11.5857 8.4601 11.5857C8.89694 11.5857 9.21761 11.437 9.4128 11.1349C9.60799 10.8328 9.70558 10.475 9.70558 10.0521C9.70558 9.56876 9.60333 9.21091 9.39421 8.96926C9.18508 8.7276 8.93413 8.60677 8.63206 8.60677C8.54376 8.60677 8.4694 8.61141 8.40898 8.62536C8.35322 8.6393 8.27886 8.65789 8.19521 8.69042C7.99538 8.75548 7.84201 8.78801 7.73512 8.78801C7.64682 8.78801 7.56318 8.76478 7.49812 8.72295C7.42841 8.68112 7.39588 8.61606 7.39588 8.53241C7.39588 8.44876 7.4284 8.3837 7.49347 8.34187C7.55853 8.30005 7.64218 8.27681 7.73512 8.27681C7.83736 8.27681 7.97678 8.29075 8.15803 8.32328C8.27886 8.34187 8.44151 8.35117 8.65529 8.35117C8.94342 8.35117 9.16649 8.22104 9.31985 7.96079C9.47321 7.70055 9.54757 7.39847 9.54757 7.06387C9.54757 6.67349 9.45927 6.34818 9.27802 6.08794C9.09678 5.82769 8.83653 5.70221 8.49263 5.70221C8.14873 5.70221 7.88849 5.75798 7.73977 5.87416C7.59106 5.99034 7.52135 6.11582 7.52135 6.25989C7.52135 6.31565 7.54459 6.37142 7.58642 6.42719C7.62824 6.48296 7.68401 6.52943 7.75837 6.56661C7.97679 6.65491 8.08367 6.80362 8.08367 7.0081C8.08367 7.13358 8.04185 7.24046 7.9582 7.31947C7.87454 7.39847 7.75372 7.4403 7.59571 7.4403C7.41911 7.4403 7.27039 7.36594 7.14027 7.21723C7.01014 7.06851 6.94509 6.90586 6.94509 6.72462C6.94509 6.30171 7.10774 5.98105 7.4284 5.74868C7.74906 5.52097 8.13944 5.40479 8.59487 5.40479C9.14325 5.40479 9.5801 5.54885 9.9147 5.84163C10.2493 6.13441 10.4166 6.51549 10.4166 6.98951C10.4166 7.24046 10.3562 7.46818 10.24 7.66337C10.1238 7.85855 9.97512 8.01656 9.79852 8.14204C9.62192 8.26752 9.44068 8.34652 9.26408 8.38834V8.4627C9.46392 8.49988 9.6684 8.58353 9.88682 8.7183C10.1052 8.85307 10.2865 9.03432 10.4352 9.26204C10.5839 9.48975 10.6629 9.75 10.6629 10.0474C10.6629 10.4146 10.5653 10.7352 10.3655 11.0094C10.1657 11.2836 9.90076 11.4927 9.56615 11.6414C9.23155 11.7902 8.86441 11.8645 8.4601 11.8645C7.97678 11.8645 7.58176 11.7623 7.27039 11.5531V11.5671Z" fill="#272425"/>
<path d="M71.2589 96.1756C71.5702 96.3847 71.7282 96.6868 71.7282 97.0818C71.7282 97.3002 71.6632 97.4815 71.5377 97.6349C71.4122 97.7882 71.2449 97.8626 71.0404 97.8626C70.8685 97.8626 70.7291 97.8161 70.6315 97.7232C70.5339 97.6302 70.4828 97.5001 70.4828 97.3421C70.4828 97.2166 70.5199 97.1051 70.5943 97.0121C70.6687 96.9192 70.7663 96.8727 70.8871 96.8727C71.0962 96.8727 71.2031 96.8216 71.2031 96.7193C71.2031 96.3383 70.822 96.1524 70.0645 96.1524C69.6277 96.1524 69.307 96.3011 69.1118 96.6032C68.9166 96.9052 68.819 97.2631 68.819 97.686C68.819 98.1693 68.9213 98.5271 69.1304 98.7688C69.3395 99.0105 69.5905 99.1313 69.8926 99.1313C69.9809 99.1313 70.0552 99.1266 70.1156 99.1127C70.1714 99.0988 70.2458 99.0802 70.3294 99.0476C70.5292 98.9826 70.6826 98.95 70.7895 98.95C70.8778 98.95 70.9614 98.9733 71.0265 99.0151C71.0962 99.0569 71.1287 99.122 71.1287 99.2056C71.1287 99.2893 71.0962 99.3544 71.0311 99.3962C70.9661 99.438 70.8824 99.4612 70.7895 99.4612C70.6873 99.4612 70.5478 99.4473 70.3666 99.4148C70.2458 99.3962 70.0831 99.3869 69.8693 99.3869C69.5812 99.3869 69.3581 99.517 69.2048 99.7773C69.0514 100.038 68.977 100.34 68.977 100.674C68.977 101.065 69.0653 101.39 69.2466 101.65C69.4278 101.91 69.6881 102.036 70.032 102.036C70.3759 102.036 70.6361 101.98 70.7848 101.864C70.9336 101.748 71.0033 101.622 71.0033 101.478C71.0033 101.422 70.98 101.367 70.9382 101.311C70.8964 101.255 70.8406 101.209 70.7662 101.171C70.5478 101.083 70.4409 100.934 70.4409 100.73C70.4409 100.604 70.4828 100.498 70.5664 100.419C70.6501 100.34 70.7709 100.298 70.9289 100.298C71.1055 100.298 71.2542 100.372 71.3843 100.521C71.5145 100.67 71.5795 100.832 71.5795 101.013C71.5795 101.436 71.4169 101.757 71.0962 101.989C70.7755 102.217 70.3852 102.333 69.9297 102.333C69.3814 102.333 68.9445 102.189 68.6099 101.896C68.2753 101.604 68.108 101.223 68.108 100.749C68.108 100.498 68.1684 100.27 68.2846 100.075C68.4008 99.8795 68.5495 99.7215 68.7261 99.596C68.9027 99.4705 69.0839 99.3915 69.2605 99.3497V99.2753C69.0607 99.2382 68.8562 99.1545 68.6378 99.0198C68.4194 98.885 68.2381 98.7037 68.0894 98.476C67.9407 98.2483 67.8617 97.9881 67.8617 97.6906C67.8617 97.3235 67.9593 97.0028 68.1591 96.7286C68.359 96.4544 68.6239 96.2453 68.9585 96.0966C69.2931 95.9479 69.6602 95.8735 70.0645 95.8735C70.5478 95.8735 70.9429 95.9758 71.2542 96.1849L71.2589 96.1756Z" fill="#272425"/>
<path d="M6.74053 15.9078C7.2192 16.4329 7.95812 16.1216 7.95812 16.1216C7.75364 16.34 7.61422 16.5166 7.64211 16.8791C7.64211 16.893 7.64211 16.9023 7.64211 16.9163C7.64211 17.4925 8.10683 17.9573 8.68309 17.9573C9.25936 17.9573 9.72408 17.4925 9.72408 16.9163C9.72408 16.8419 9.71479 16.7722 9.70085 16.7071C9.67761 16.4562 9.55214 16.3075 9.38484 16.1262C9.38484 16.1262 10.1238 16.4376 10.6024 15.9124C11.0811 15.3873 10.8441 14.7646 10.6907 14.5601C10.5374 14.3556 10.3143 14.0117 9.77986 14.0535C9.30584 14.0907 9.23612 14.1697 8.91081 14.43C8.94798 13.7189 9.38019 13.231 9.38019 13.231H7.95812C8.21837 13.5051 8.45073 14.1372 8.42285 14.4253C8.10683 14.1697 8.03247 14.0907 7.5631 14.0582C7.02866 14.0163 6.80094 14.3602 6.65223 14.5647C6.50352 14.7692 6.26186 15.3919 6.74053 15.9171V15.9078Z" fill="#151515"/>
<path d="M67.2995 91.7189C67.7782 91.1937 68.5171 91.5051 68.5171 91.5051C68.3126 91.2867 68.1732 91.1101 68.2011 90.7476C68.2011 90.7337 68.2011 90.7244 68.2011 90.7104C68.2011 90.1342 68.6658 89.6694 69.2421 89.6694C69.8183 89.6694 70.283 90.1342 70.283 90.7104C70.283 90.7848 70.2738 90.8545 70.2598 90.9196C70.2366 91.1705 70.1111 91.3192 69.9438 91.5005C69.9438 91.5005 70.6827 91.1891 71.1614 91.7142C71.6401 92.2394 71.403 92.8621 71.2497 93.0666C71.0963 93.2711 70.8733 93.615 70.3388 93.5732C69.8648 93.536 69.7951 93.457 69.4698 93.1967C69.5069 93.9078 69.9391 94.3957 69.9391 94.3957H68.5171C68.7773 94.1215 69.0097 93.4895 68.9818 93.2014C68.6658 93.457 68.5914 93.536 68.1221 93.5685C67.5876 93.6103 67.3599 93.2664 67.2112 93.062C67.0625 92.8575 66.8208 92.2347 67.2995 91.7096V91.7189Z" fill="#151515"/>
</svg>
