<svg width="78" height="109" viewBox="0 0 78 109" fill="none" xmlns="http://www.w3.org/2000/svg">
<path d="M74.8685 0.0556641H3.07714C1.55256 0.0556641 0.31665 1.29158 0.31665 2.81615V105.531C0.31665 107.055 1.55256 108.291 3.07714 108.291H74.8685C76.393 108.291 77.6289 107.055 77.6289 105.531V2.81615C77.6289 1.29158 76.393 0.0556641 74.8685 0.0556641Z" fill="white"/>
<path d="M74.8684 108.342H3.07712C1.52493 108.342 0.260864 107.078 0.260864 105.526V2.81626C0.260864 1.26406 1.52493 0 3.07712 0H74.8684C76.4206 0 77.6847 1.26406 77.6847 2.81626V105.531C77.6847 107.083 76.4206 108.347 74.8684 108.347V108.342ZM3.07712 0.106888C1.58534 0.106888 0.372395 1.31983 0.372395 2.81161V105.531C0.372395 107.022 1.58534 108.235 3.07712 108.235H74.8684C76.3602 108.235 77.5732 107.022 77.5732 105.531V2.81626C77.5732 1.32448 76.3602 0.111535 74.8684 0.111535H3.07712V0.106888Z" fill="#65A7DD"/>
<path d="M69.5984 8.58814C69.5984 8.7322 69.4822 8.85303 69.3335 8.85303C69.1848 8.85303 69.0686 8.73685 69.0686 8.58814C69.0686 8.43942 69.1848 8.32324 69.3335 8.32324C69.4822 8.32324 69.5984 8.43942 69.5984 8.58814Z" fill="white"/>
<path d="M56.9904 8.58814C56.9904 8.7322 56.8742 8.85303 56.7255 8.85303C56.5768 8.85303 56.4606 8.73685 56.4606 8.58814C56.4606 8.43942 56.5768 8.32324 56.7255 8.32324C56.8742 8.32324 56.9904 8.43942 56.9904 8.58814Z" fill="white"/>
<path d="M33.7539 8.67188C33.7539 8.81594 33.6377 8.93677 33.489 8.93677C33.3403 8.93677 33.2241 8.82059 33.2241 8.67188C33.2241 8.52316 33.3403 8.40698 33.489 8.40698C33.6377 8.40698 33.7539 8.52316 33.7539 8.67188Z" fill="white"/>
<path d="M69.5984 18.4126C69.5984 18.5567 69.4822 18.6775 69.3335 18.6775C69.1848 18.6775 69.0686 18.5613 69.0686 18.4126C69.0686 18.2639 69.1848 18.1477 69.3335 18.1477C69.4822 18.1477 69.5984 18.2639 69.5984 18.4126Z" fill="white"/>
<path d="M69.5984 27.3772C69.5984 27.5213 69.4822 27.6421 69.3335 27.6421C69.1848 27.6421 69.0686 27.5259 69.0686 27.3772C69.0686 27.2285 69.1848 27.1123 69.3335 27.1123C69.4822 27.1123 69.5984 27.2285 69.5984 27.3772Z" fill="white"/>
<path d="M9.04884 8.85303C9.04884 8.9971 8.93266 9.11793 8.78394 9.11793C8.63523 9.11793 8.51904 9.00174 8.51904 8.85303C8.51904 8.70432 8.63523 8.58813 8.78394 8.58813C8.93266 8.58813 9.04884 8.70432 9.04884 8.85303Z" fill="white"/>
<path d="M21.7964 8.67188C21.7964 8.81594 21.6802 8.93677 21.5315 8.93677C21.3828 8.93677 21.2666 8.82059 21.2666 8.67188C21.2666 8.52316 21.3828 8.40698 21.5315 8.40698C21.6802 8.40698 21.7964 8.52316 21.7964 8.67188Z" fill="white"/>
<path d="M9.04884 18.2034C9.04884 18.3474 8.93266 18.4683 8.78394 18.4683C8.63523 18.4683 8.51904 18.3521 8.51904 18.2034C8.51904 18.0547 8.63523 17.9385 8.78394 17.9385C8.93266 17.9385 9.04884 18.0547 9.04884 18.2034Z" fill="white"/>
<path d="M9.04884 27.4421C9.04884 27.5862 8.93266 27.707 8.78394 27.707C8.63523 27.707 8.51904 27.5909 8.51904 27.4421C8.51904 27.2934 8.63523 27.1772 8.78394 27.1772C8.93266 27.1772 9.04884 27.2934 9.04884 27.4421Z" fill="white"/>
<path d="M9.04884 36.709C9.04884 36.8531 8.93266 36.9739 8.78394 36.9739C8.63523 36.9739 8.51904 36.8577 8.51904 36.709C8.51904 36.5603 8.63523 36.4441 8.78394 36.4441C8.93266 36.4441 9.04884 36.5603 9.04884 36.709Z" fill="white"/>
<path d="M9.04884 42.7131C9.04884 42.8572 8.93266 42.978 8.78394 42.978C8.63523 42.978 8.51904 42.8619 8.51904 42.7131C8.51904 42.5644 8.63523 42.4482 8.78394 42.4482C8.93266 42.4482 9.04884 42.5644 9.04884 42.7131Z" fill="white"/>
<path d="M9.04884 48.9407C9.04884 49.0847 8.93266 49.2056 8.78394 49.2056C8.63523 49.2056 8.51904 49.0894 8.51904 48.9407C8.51904 48.792 8.63523 48.6758 8.78394 48.6758C8.93266 48.6758 9.04884 48.792 9.04884 48.9407Z" fill="white"/>
<path d="M9.04884 54.9495C9.04884 55.0935 8.93266 55.2144 8.78394 55.2144C8.63523 55.2144 8.51904 55.0982 8.51904 54.9495C8.51904 54.8008 8.63523 54.6846 8.78394 54.6846C8.93266 54.6846 9.04884 54.8008 9.04884 54.9495Z" fill="white"/>
<path d="M9.04884 79.0039C9.04884 79.148 8.93266 79.2688 8.78394 79.2688C8.63523 79.2688 8.51904 79.1526 8.51904 79.0039C8.51904 78.8552 8.63523 78.739 8.78394 78.739C8.93266 78.739 9.04884 78.8552 9.04884 79.0039Z" fill="white"/>
<path d="M9.04884 85.2266C9.04884 85.3706 8.93266 85.4915 8.78394 85.4915C8.63523 85.4915 8.51904 85.3753 8.51904 85.2266C8.51904 85.0778 8.63523 84.9617 8.78394 84.9617C8.93266 84.9617 9.04884 85.0778 9.04884 85.2266Z" fill="white"/>
<path d="M9.04884 91.2913C9.04884 91.4353 8.93266 91.5562 8.78394 91.5562C8.63523 91.5562 8.51904 91.44 8.51904 91.2913C8.51904 91.1426 8.63523 91.0264 8.78394 91.0264C8.93266 91.0264 9.04884 91.1426 9.04884 91.2913Z" fill="white"/>
<path d="M9.15577 100.209C9.15577 100.354 9.03959 100.474 8.89088 100.474C8.74216 100.474 8.62598 100.358 8.62598 100.209C8.62598 100.061 8.74216 99.9446 8.89088 99.9446C9.03959 99.9446 9.15577 100.061 9.15577 100.209Z" fill="white"/>
<path d="M30.984 100.47C30.984 100.614 30.8678 100.735 30.7191 100.735C30.5704 100.735 30.4542 100.618 30.4542 100.47C30.4542 100.321 30.5704 100.205 30.7191 100.205C30.8678 100.205 30.984 100.321 30.984 100.47Z" fill="white"/>
<path d="M43.2576 100.47C43.2576 100.614 43.1414 100.735 42.9927 100.735C42.844 100.735 42.7278 100.618 42.7278 100.47C42.7278 100.321 42.844 100.205 42.9927 100.205C43.1414 100.205 43.2576 100.321 43.2576 100.47Z" fill="white"/>
<path d="M55.2105 100.47C55.2105 100.614 55.0943 100.735 54.9456 100.735C54.7968 100.735 54.6807 100.618 54.6807 100.47C54.6807 100.321 54.7968 100.205 54.9456 100.205C55.0943 100.205 55.2105 100.321 55.2105 100.47Z" fill="white"/>
<path d="M69.5984 72.7998C69.5984 72.9439 69.4822 73.0647 69.3335 73.0647C69.1848 73.0647 69.0686 72.9485 69.0686 72.7998C69.0686 72.6511 69.1848 72.5349 69.3335 72.5349C69.4822 72.5349 69.5984 72.6511 69.5984 72.7998Z" fill="white"/>
<path d="M69.5984 78.7297C69.5984 78.8738 69.4822 78.9946 69.3335 78.9946C69.1848 78.9946 69.0686 78.8785 69.0686 78.7297C69.0686 78.581 69.1848 78.4648 69.3335 78.4648C69.4822 78.4648 69.5984 78.581 69.5984 78.7297Z" fill="white"/>
<path d="M69.5984 84.5713C69.5984 84.7154 69.4822 84.8362 69.3335 84.8362C69.1848 84.8362 69.0686 84.72 69.0686 84.5713C69.0686 84.4226 69.1848 84.3064 69.3335 84.3064C69.4822 84.3064 69.5984 84.4226 69.5984 84.5713Z" fill="white"/>
<path d="M69.5984 90.5386C69.5984 90.6826 69.4822 90.8035 69.3335 90.8035C69.1848 90.8035 69.0686 90.6873 69.0686 90.5386C69.0686 90.3899 69.1848 90.2737 69.3335 90.2737C69.4822 90.2737 69.5984 90.3899 69.5984 90.5386Z" fill="white"/>
<path d="M69.5984 99.6333C69.5984 99.7774 69.4822 99.8982 69.3335 99.8982C69.1848 99.8982 69.0686 99.782 69.0686 99.6333C69.0686 99.4846 69.1848 99.3684 69.3335 99.3684C69.4822 99.3684 69.5984 99.4846 69.5984 99.6333Z" fill="white"/>
<path d="M32.1507 19.2026C30.4869 17.3855 27.9356 18.4637 27.9356 18.4637C28.6512 17.7015 29.1253 17.0927 29.037 15.8426C29.037 15.8008 29.037 15.759 29.037 15.7171C29.037 13.7281 27.4244 12.1155 25.4353 12.1155C23.4463 12.1155 21.8337 13.7281 21.8337 15.7171C21.8337 15.9681 21.8615 16.2144 21.908 16.4468C21.9917 17.3111 22.4192 17.8363 23.0048 18.4637C23.0048 18.4637 20.4488 17.3855 18.7897 19.2026C17.1306 21.0197 17.9578 23.1714 18.483 23.8824C19.0081 24.5888 19.7889 25.7785 21.6385 25.6437C23.2743 25.5229 23.516 25.2441 24.6406 24.3471C24.5059 26.8149 23.0094 28.5018 23.0094 28.5018H27.9356C27.0293 27.5491 26.23 25.3649 26.3323 24.3704C27.4337 25.2487 27.6846 25.5229 29.3019 25.6437C31.1468 25.7832 31.9322 24.5934 32.4574 23.8824C32.9825 23.176 33.8097 21.0197 32.1507 19.2026Z" fill="#151515"/>
<path d="M58.4728 19.2026C56.8091 17.3855 54.2577 18.4637 54.2577 18.4637C54.9734 17.7015 55.4474 17.0927 55.3591 15.8426C55.3591 15.8008 55.3591 15.759 55.3591 15.7171C55.3591 13.7281 53.7465 12.1155 51.7575 12.1155C49.7684 12.1155 48.1558 13.7281 48.1558 15.7171C48.1558 15.9681 48.1837 16.2144 48.2302 16.4468C48.3138 17.3111 48.7414 17.8363 49.3269 18.4637C49.3269 18.4637 46.7709 17.3855 45.1118 19.2026C43.4528 21.0197 44.28 23.1714 44.8051 23.8824C45.3303 24.5888 46.111 25.7785 47.9606 25.6437C49.5965 25.5229 49.8381 25.2441 50.9628 24.3471C50.828 26.8149 49.3316 28.5018 49.3316 28.5018H54.2577C53.3515 27.5491 52.5521 25.3649 52.6544 24.3704C53.7558 25.2487 54.0067 25.5229 55.624 25.6437C57.469 25.7832 58.2544 24.5934 58.7795 23.8824C59.3046 23.176 60.1319 21.0197 58.4728 19.2026Z" fill="#151515"/>
<path d="M7.53854 11.4416H8.41224C8.49589 11.4416 8.5563 11.423 8.59812 11.3858C8.6353 11.3486 8.65854 11.2882 8.65854 11.2046V9.99628H6.36743V9.67097L9.16509 5.54883H9.4904V9.67097H10.5825V9.99628H9.4904V11.2046C9.4904 11.2882 9.50899 11.3486 9.55081 11.3858C9.58799 11.423 9.65306 11.4416 9.73672 11.4416H10.6104V11.7297H7.5432V11.4416H7.53854ZM6.78103 9.67562H8.65854V6.91513L6.78103 9.67562Z" fill="#272425"/>
<path d="M70.4071 96.2964H69.5334C69.4497 96.2964 69.3893 96.315 69.3475 96.3522C69.3103 96.3894 69.2871 96.4498 69.2871 96.5334V97.7417H71.5782V98.0671L68.7805 102.189H68.4552V98.0671H67.3631V97.7417H68.4552V96.5334C68.4552 96.4498 68.4366 96.3894 68.3948 96.3522C68.3576 96.315 68.2925 96.2964 68.2089 96.2964H67.3352V96.0083H70.4024V96.2964H70.4071ZM71.1646 98.0624H69.2871V100.823L71.1646 98.0624Z" fill="#272425"/>
<path d="M6.479 15.9076C6.95767 16.4327 7.69658 16.1213 7.69658 16.1213C7.4921 16.3397 7.35269 16.5163 7.38057 16.8788C7.38057 16.8928 7.38057 16.9021 7.38057 16.916C7.38057 17.4923 7.8453 17.957 8.42156 17.957C8.99782 17.957 9.46255 17.4923 9.46255 16.916C9.46255 16.8417 9.45326 16.7719 9.43932 16.7069C9.41608 16.4559 9.29061 16.3072 9.12331 16.126C9.12331 16.126 9.86222 16.4373 10.3409 15.9122C10.8196 15.3871 10.5826 14.7643 10.4292 14.5598C10.2758 14.3554 10.0528 14.0115 9.51833 14.0533C9.0443 14.0905 8.97458 14.1695 8.64927 14.4297C8.68645 13.7187 9.11865 13.2307 9.11865 13.2307H7.69658C7.95683 13.5049 8.1892 14.1369 8.16131 14.4251C7.8453 14.1695 7.77094 14.0905 7.30156 14.0579C6.76712 14.0161 6.53941 14.36 6.3907 14.5645C6.23734 14.769 6.00033 15.3917 6.479 15.9168V15.9076Z" fill="#151515"/>
<path d="M32.1507 86.1933C30.4869 88.0104 27.9356 86.9322 27.9356 86.9322C28.6512 87.6943 29.1253 88.3031 29.037 89.5533C29.037 89.5951 29.037 89.6369 29.037 89.6787C29.037 91.6678 27.4244 93.2804 25.4353 93.2804C23.4463 93.2804 21.8337 91.6678 21.8337 89.6787C21.8337 89.4278 21.8615 89.1815 21.908 88.9491C21.9917 88.0847 22.4192 87.5596 23.0048 86.9322C23.0048 86.9322 20.4488 88.0104 18.7897 86.1933C17.1306 84.3762 17.9578 82.2245 18.483 81.5134C19.0081 80.8024 19.7889 79.6174 21.6385 79.7521C23.2743 79.873 23.516 80.1518 24.6406 81.0487C24.5059 78.581 23.0094 76.894 23.0094 76.894H27.9356C27.0293 77.8467 26.23 80.031 26.3323 81.0255C27.4337 80.1471 27.6846 79.873 29.3019 79.7521C31.1468 79.6127 31.9322 80.8024 32.4574 81.5134C32.9825 82.2198 33.8097 84.3762 32.1507 86.1933Z" fill="#151515"/>
<path d="M58.4728 86.1933C56.8091 88.0104 54.2577 86.9322 54.2577 86.9322C54.9734 87.6943 55.4474 88.3031 55.3591 89.5533C55.3591 89.5951 55.3591 89.6369 55.3591 89.6787C55.3591 91.6678 53.7465 93.2804 51.7575 93.2804C49.7684 93.2804 48.1558 91.6678 48.1558 89.6787C48.1558 89.4278 48.1837 89.1815 48.2302 88.9491C48.3138 88.0847 48.7414 87.5596 49.3269 86.9322C49.3269 86.9322 46.7709 88.0104 45.1118 86.1933C43.4528 84.3762 44.28 82.2245 44.8051 81.5134C45.3303 80.8071 46.111 79.6174 47.9606 79.7521C49.5965 79.873 49.8381 80.1518 50.9628 81.0487C50.828 78.581 49.3316 76.894 49.3316 76.894H54.2577C53.3515 77.8467 52.5521 80.031 52.6544 81.0255C53.7558 80.1471 54.0067 79.873 55.624 79.7521C57.469 79.6127 58.2544 80.8024 58.7795 81.5134C59.3046 82.2198 60.1319 84.3762 58.4728 86.1933Z" fill="#151515"/>
<path d="M67.0377 91.7189C67.5164 91.1937 68.2553 91.5051 68.2553 91.5051C68.0508 91.2867 67.9114 91.1101 67.9393 90.7476C67.9393 90.7337 67.9393 90.7244 67.9393 90.7104C67.9393 90.1342 68.404 89.6694 68.9803 89.6694C69.5565 89.6694 70.0213 90.1342 70.0213 90.7104C70.0213 90.7848 70.012 90.8545 69.998 90.9196C69.9748 91.1705 69.8493 91.3192 69.682 91.5005C69.682 91.5005 70.4209 91.1891 70.8996 91.7142C71.3783 92.2394 71.1413 92.8621 70.9879 93.0666C70.8345 93.2711 70.6115 93.615 70.077 93.5732C69.603 93.536 69.5333 93.457 69.208 93.1967C69.2452 93.9078 69.6774 94.3957 69.6774 94.3957H68.2553C68.5155 94.1215 68.7479 93.4895 68.72 93.2014C68.404 93.457 68.3297 93.536 67.8603 93.5685C67.3259 93.6103 67.0981 93.2664 66.9494 93.062C66.7961 92.8575 66.559 92.2347 67.0377 91.7096V91.7189Z" fill="#151515"/>
</svg>
