<svg width="78" height="109" viewBox="0 0 78 109" fill="none" xmlns="http://www.w3.org/2000/svg">
<path d="M74.9554 0.0556641H3.16406C1.63948 0.0556641 0.403564 1.29158 0.403564 2.81615V105.531C0.403564 107.055 1.63948 108.291 3.16406 108.291H74.9554C76.4799 108.291 77.7159 107.055 77.7159 105.531V2.81615C77.7159 1.29158 76.4799 0.0556641 74.9554 0.0556641Z" fill="white"/>
<path d="M74.9555 108.342H3.16416C1.61196 108.342 0.3479 107.078 0.3479 105.526V2.81626C0.3479 1.26406 1.61196 0 3.16416 0H74.9555C76.5077 0 77.7717 1.26406 77.7717 2.81626V105.531C77.7717 107.083 76.5077 108.347 74.9555 108.347V108.342ZM3.16416 0.106888C1.67238 0.106888 0.459431 1.31983 0.459431 2.81161V105.531C0.459431 107.022 1.67238 108.235 3.16416 108.235H74.9555C76.4473 108.235 77.6602 107.022 77.6602 105.531V2.81626C77.6602 1.32448 76.4473 0.111535 74.9555 0.111535H3.16416V0.106888Z" fill="#65A7DD"/>
<path d="M69.6854 8.58814C69.6854 8.7322 69.5693 8.85303 69.4205 8.85303C69.2718 8.85303 69.1556 8.73685 69.1556 8.58814C69.1556 8.43942 69.2718 8.32324 69.4205 8.32324C69.5693 8.32324 69.6854 8.43942 69.6854 8.58814Z" fill="white"/>
<path d="M57.0773 8.58814C57.0773 8.7322 56.9611 8.85303 56.8124 8.85303C56.6637 8.85303 56.5475 8.73685 56.5475 8.58814C56.5475 8.43942 56.6637 8.32324 56.8124 8.32324C56.9611 8.32324 57.0773 8.43942 57.0773 8.58814Z" fill="white"/>
<path d="M45.4824 8.58814C45.4824 8.7322 45.3662 8.85303 45.2175 8.85303C45.0688 8.85303 44.9526 8.73685 44.9526 8.58814C44.9526 8.43942 45.0688 8.32324 45.2175 8.32324C45.3662 8.32324 45.4824 8.43942 45.4824 8.58814Z" fill="white"/>
<path d="M33.8408 8.67188C33.8408 8.81594 33.7246 8.93677 33.5759 8.93677C33.4272 8.93677 33.311 8.82059 33.311 8.67188C33.311 8.52316 33.4272 8.40698 33.5759 8.40698C33.7246 8.40698 33.8408 8.52316 33.8408 8.67188Z" fill="white"/>
<path d="M69.6854 18.4126C69.6854 18.5567 69.5693 18.6775 69.4205 18.6775C69.2718 18.6775 69.1556 18.5613 69.1556 18.4126C69.1556 18.2639 69.2718 18.1477 69.4205 18.1477C69.5693 18.1477 69.6854 18.2639 69.6854 18.4126Z" fill="white"/>
<path d="M69.6854 27.3772C69.6854 27.5213 69.5693 27.6421 69.4205 27.6421C69.2718 27.6421 69.1556 27.5259 69.1556 27.3772C69.1556 27.2285 69.2718 27.1123 69.4205 27.1123C69.5693 27.1123 69.6854 27.2285 69.6854 27.3772Z" fill="white"/>
<path d="M69.6854 36.7739C69.6854 36.918 69.5693 37.0388 69.4205 37.0388C69.2718 37.0388 69.1556 36.9226 69.1556 36.7739C69.1556 36.6252 69.2718 36.509 69.4205 36.509C69.5693 36.509 69.6854 36.6252 69.6854 36.7739Z" fill="white"/>
<path d="M69.6854 42.7131C69.6854 42.8572 69.5693 42.978 69.4205 42.978C69.2718 42.978 69.1556 42.8619 69.1556 42.7131C69.1556 42.5644 69.2718 42.4482 69.4205 42.4482C69.5693 42.4482 69.6854 42.5644 69.6854 42.7131Z" fill="white"/>
<path d="M69.6854 48.6758C69.6854 48.8198 69.5693 48.9407 69.4205 48.9407C69.2718 48.9407 69.1556 48.8245 69.1556 48.6758C69.1556 48.5271 69.2718 48.4109 69.4205 48.4109C69.5693 48.4109 69.6854 48.5271 69.6854 48.6758Z" fill="white"/>
<path d="M9.13597 8.85303C9.13597 8.9971 9.01981 9.11793 8.8711 9.11793C8.72239 9.11793 8.6062 9.00174 8.6062 8.85303C8.6062 8.70432 8.72239 8.58813 8.8711 8.58813C9.01981 8.58813 9.13597 8.70432 9.13597 8.85303Z" fill="white"/>
<path d="M21.888 8.67188C21.888 8.81594 21.7719 8.93677 21.6232 8.93677C21.4745 8.93677 21.3583 8.82059 21.3583 8.67188C21.3583 8.52316 21.4745 8.40698 21.6232 8.40698C21.7719 8.40698 21.888 8.52316 21.888 8.67188Z" fill="white"/>
<path d="M9.13597 18.2034C9.13597 18.3474 9.01981 18.4683 8.8711 18.4683C8.72239 18.4683 8.6062 18.3521 8.6062 18.2034C8.6062 18.0547 8.72239 17.9385 8.8711 17.9385C9.01981 17.9385 9.13597 18.0547 9.13597 18.2034Z" fill="white"/>
<path d="M9.13597 27.4421C9.13597 27.5862 9.01981 27.707 8.8711 27.707C8.72239 27.707 8.6062 27.5909 8.6062 27.4421C8.6062 27.2934 8.72239 27.1772 8.8711 27.1772C9.01981 27.1772 9.13597 27.2934 9.13597 27.4421Z" fill="white"/>
<path d="M9.13597 36.709C9.13597 36.8531 9.01981 36.9739 8.8711 36.9739C8.72239 36.9739 8.6062 36.8577 8.6062 36.709C8.6062 36.5603 8.72239 36.4441 8.8711 36.4441C9.01981 36.4441 9.13597 36.5603 9.13597 36.709Z" fill="white"/>
<path d="M9.13597 42.7131C9.13597 42.8572 9.01981 42.978 8.8711 42.978C8.72239 42.978 8.6062 42.8619 8.6062 42.7131C8.6062 42.5644 8.72239 42.4482 8.8711 42.4482C9.01981 42.4482 9.13597 42.5644 9.13597 42.7131Z" fill="white"/>
<path d="M9.13597 48.9407C9.13597 49.0847 9.01981 49.2056 8.8711 49.2056C8.72239 49.2056 8.6062 49.0894 8.6062 48.9407C8.6062 48.792 8.72239 48.6758 8.8711 48.6758C9.01981 48.6758 9.13597 48.792 9.13597 48.9407Z" fill="white"/>
<path d="M9.13597 54.9495C9.13597 55.0935 9.01981 55.2144 8.8711 55.2144C8.72239 55.2144 8.6062 55.0982 8.6062 54.9495C8.6062 54.8008 8.72239 54.6846 8.8711 54.6846C9.01981 54.6846 9.13597 54.8008 9.13597 54.9495Z" fill="white"/>
<path d="M9.13597 60.9585C9.13597 61.1026 9.01981 61.2234 8.8711 61.2234C8.72239 61.2234 8.6062 61.1072 8.6062 60.9585C8.6062 60.8098 8.72239 60.6936 8.8711 60.6936C9.01981 60.6936 9.13597 60.8098 9.13597 60.9585Z" fill="white"/>
<path d="M9.13597 67.1858C9.13597 67.3299 9.01981 67.4507 8.8711 67.4507C8.72239 67.4507 8.6062 67.3345 8.6062 67.1858C8.6062 67.0371 8.72239 66.9209 8.8711 66.9209C9.01981 66.9209 9.13597 67.0371 9.13597 67.1858Z" fill="white"/>
<path d="M9.13597 73.4273C9.13597 73.5713 9.01981 73.6922 8.8711 73.6922C8.72239 73.6922 8.6062 73.576 8.6062 73.4273C8.6062 73.2785 8.72239 73.1624 8.8711 73.1624C9.01981 73.1624 9.13597 73.2785 9.13597 73.4273Z" fill="white"/>
<path d="M9.13597 79.0039C9.13597 79.148 9.01981 79.2688 8.8711 79.2688C8.72239 79.2688 8.6062 79.1526 8.6062 79.0039C8.6062 78.8552 8.72239 78.739 8.8711 78.739C9.01981 78.739 9.13597 78.8552 9.13597 79.0039Z" fill="white"/>
<path d="M9.13597 85.2266C9.13597 85.3706 9.01981 85.4915 8.8711 85.4915C8.72239 85.4915 8.6062 85.3753 8.6062 85.2266C8.6062 85.0778 8.72239 84.9617 8.8711 84.9617C9.01981 84.9617 9.13597 85.0778 9.13597 85.2266Z" fill="white"/>
<path d="M9.13597 91.2913C9.13597 91.4353 9.01981 91.5562 8.8711 91.5562C8.72239 91.5562 8.6062 91.44 8.6062 91.2913C8.6062 91.1426 8.72239 91.0264 8.8711 91.0264C9.01981 91.0264 9.13597 91.1426 9.13597 91.2913Z" fill="white"/>
<path d="M9.24281 100.209C9.24281 100.354 9.12662 100.474 8.97791 100.474C8.8292 100.474 8.71301 100.358 8.71301 100.209C8.71301 100.061 8.8292 99.9446 8.97791 99.9446C9.12662 99.9446 9.24281 100.061 9.24281 100.209Z" fill="white"/>
<path d="M18.779 100.47C18.779 100.614 18.6629 100.735 18.5142 100.735C18.3655 100.735 18.2493 100.618 18.2493 100.47C18.2493 100.321 18.3655 100.205 18.5142 100.205C18.6629 100.205 18.779 100.321 18.779 100.47Z" fill="white"/>
<path d="M31.0712 100.47C31.0712 100.614 30.955 100.735 30.8063 100.735C30.6576 100.735 30.5414 100.618 30.5414 100.47C30.5414 100.321 30.6576 100.205 30.8063 100.205C30.955 100.205 31.0712 100.321 31.0712 100.47Z" fill="white"/>
<path d="M43.3445 100.47C43.3445 100.614 43.2283 100.735 43.0796 100.735C42.9309 100.735 42.8147 100.618 42.8147 100.47C42.8147 100.321 42.9309 100.205 43.0796 100.205C43.2283 100.205 43.3445 100.321 43.3445 100.47Z" fill="white"/>
<path d="M55.2975 100.47C55.2975 100.614 55.1813 100.735 55.0326 100.735C54.8839 100.735 54.7677 100.618 54.7677 100.47C54.7677 100.321 54.8839 100.205 55.0326 100.205C55.1813 100.205 55.2975 100.321 55.2975 100.47Z" fill="white"/>
<path d="M69.6854 54.8054C69.6854 54.9495 69.5693 55.0703 69.4205 55.0703C69.2718 55.0703 69.1556 54.9541 69.1556 54.8054C69.1556 54.6567 69.2718 54.5405 69.4205 54.5405C69.5693 54.5405 69.6854 54.6567 69.6854 54.8054Z" fill="white"/>
<path d="M69.6854 60.5356C69.6854 60.6797 69.5693 60.8005 69.4205 60.8005C69.2718 60.8005 69.1556 60.6844 69.1556 60.5356C69.1556 60.3869 69.2718 60.2708 69.4205 60.2708C69.5693 60.2708 69.6854 60.3869 69.6854 60.5356Z" fill="white"/>
<path d="M69.6854 66.7119C69.6854 66.856 69.5693 66.9768 69.4205 66.9768C69.2718 66.9768 69.1556 66.8606 69.1556 66.7119C69.1556 66.5632 69.2718 66.447 69.4205 66.447C69.5693 66.447 69.6854 66.5632 69.6854 66.7119Z" fill="white"/>
<path d="M69.6854 72.7998C69.6854 72.9439 69.5693 73.0647 69.4205 73.0647C69.2718 73.0647 69.1556 72.9485 69.1556 72.7998C69.1556 72.6511 69.2718 72.5349 69.4205 72.5349C69.5693 72.5349 69.6854 72.6511 69.6854 72.7998Z" fill="white"/>
<path d="M69.6854 78.7297C69.6854 78.8738 69.5693 78.9946 69.4205 78.9946C69.2718 78.9946 69.1556 78.8785 69.1556 78.7297C69.1556 78.581 69.2718 78.4648 69.4205 78.4648C69.5693 78.4648 69.6854 78.581 69.6854 78.7297Z" fill="white"/>
<path d="M69.6854 84.5713C69.6854 84.7154 69.5693 84.8362 69.4205 84.8362C69.2718 84.8362 69.1556 84.72 69.1556 84.5713C69.1556 84.4226 69.2718 84.3064 69.4205 84.3064C69.5693 84.3064 69.6854 84.4226 69.6854 84.5713Z" fill="white"/>
<path d="M69.6854 90.5386C69.6854 90.6826 69.5693 90.8035 69.4205 90.8035C69.2718 90.8035 69.1556 90.6873 69.1556 90.5386C69.1556 90.3899 69.2718 90.2737 69.4205 90.2737C69.5693 90.2737 69.6854 90.3899 69.6854 90.5386Z" fill="white"/>
<path d="M69.6854 99.6333C69.6854 99.7774 69.5693 99.8982 69.4205 99.8982C69.2718 99.8982 69.1556 99.782 69.1556 99.6333C69.1556 99.4846 69.2718 99.3684 69.4205 99.3684C69.5693 99.3684 69.6854 99.4846 69.6854 99.6333Z" fill="white"/>
<path d="M10.2839 16.7072C9.80522 16.182 9.0663 16.4934 9.0663 16.4934C9.27078 16.275 9.41019 16.0984 9.38231 15.7359C9.38231 15.7219 9.38231 15.7126 9.38231 15.6987C9.38231 15.1224 8.91759 14.6577 8.34132 14.6577C7.76506 14.6577 7.30033 15.1224 7.30033 15.6987C7.30033 15.7731 7.30962 15.8428 7.32357 15.9078C7.3468 16.1588 7.47228 16.3075 7.63958 16.4887C7.63958 16.4887 6.90066 16.1774 6.42199 16.7025C5.94332 17.2277 6.18033 17.8504 6.33369 18.0549C6.48705 18.2594 6.71013 18.6033 7.24457 18.5614C7.71859 18.5243 7.7883 18.4453 8.11361 18.185C8.07643 18.896 7.64423 19.384 7.64423 19.384H9.0663C8.80605 19.1098 8.57369 18.4778 8.60157 18.1897C8.91759 18.4453 8.99193 18.5243 9.46131 18.5568C9.99575 18.5986 10.2235 18.2547 10.3722 18.0502C10.5255 17.8458 10.7626 17.223 10.2839 16.6979V16.7072Z" fill="#151515"/>
<path d="M6.84015 12.8359C6.59384 12.7197 6.40332 12.5617 6.27319 12.3572C6.14307 12.1574 6.07336 11.9296 6.07336 11.6833C6.07336 11.3999 6.14771 11.1861 6.29177 11.0327C6.43584 10.884 6.60315 10.8097 6.79834 10.8097C6.961 10.8097 7.08648 10.8608 7.17942 10.9584C7.27237 11.056 7.31883 11.1814 7.31883 11.3348C7.31883 11.437 7.29095 11.53 7.23053 11.6183C7.17012 11.7066 7.09112 11.7716 6.99817 11.8135C6.91452 11.8553 6.84946 11.8971 6.79834 11.9389C6.75187 11.9808 6.72397 12.0365 6.72397 12.1109C6.72397 12.3014 6.79834 12.4548 6.94706 12.5617C7.09577 12.6686 7.35135 12.7243 7.71384 12.7243C8.15998 12.7243 8.48065 12.5338 8.68049 12.1481C8.88032 11.7623 8.97792 11.2744 8.97792 10.6888C8.97792 10.1358 8.88033 9.71289 8.68979 9.41546C8.49925 9.12269 8.18323 8.97397 7.75103 8.97397C7.57443 8.97397 7.42573 9.00186 7.30026 9.05298C7.17478 9.1041 7.04465 9.19704 6.91452 9.32717C6.85411 9.38758 6.80298 9.46658 6.76581 9.56418C6.72863 9.66177 6.70539 9.75007 6.70539 9.81978C6.70539 9.88484 6.68681 9.94061 6.65428 9.98243C6.62174 10.0243 6.57991 10.0475 6.52414 10.0475C6.42654 10.0475 6.38007 9.97314 6.38007 9.81978V6.70609L6.5799 6.55273C6.70538 6.65962 6.89127 6.75257 7.13293 6.82228C7.37459 6.89663 7.60232 6.92916 7.8161 6.92916C8.10423 6.92916 8.36448 6.90128 8.60149 6.85016C8.8385 6.79439 9.07551 6.6968 9.32181 6.55273L9.42869 6.67821C9.21027 6.9617 8.94539 7.18941 8.62937 7.36136C8.31336 7.53331 7.97874 7.61696 7.62554 7.61696C7.40247 7.61696 7.22589 7.60302 7.09112 7.57514C6.961 7.54725 6.83087 7.50078 6.70539 7.43572V9.15986L6.76115 9.17845C6.90522 9.01115 7.08182 8.88103 7.29095 8.78808C7.50008 8.69513 7.71386 8.64866 7.93693 8.64866C8.56896 8.64866 9.06157 8.83455 9.41011 9.20634C9.76331 9.57812 9.93991 10.0707 9.93991 10.6842C9.93991 11.121 9.83766 11.5207 9.63783 11.8739C9.43799 12.2271 9.16846 12.5059 8.8292 12.7104C8.4946 12.9102 8.12281 13.0125 7.71849 13.0125C7.38389 13.0125 7.09111 12.9521 6.8448 12.8359H6.84015Z" fill="black"/>
<path d="M67.004 93.722C67.4827 94.2471 68.2216 93.9358 68.2216 93.9358C68.0171 94.1542 67.8777 94.3308 67.9056 94.6933C67.9056 94.7072 67.9056 94.7165 67.9056 94.7305C67.9056 95.3067 68.3703 95.7715 68.9466 95.7715C69.5228 95.7715 69.9876 95.3067 69.9876 94.7305C69.9876 94.6561 69.9783 94.5864 69.9643 94.5213C69.9411 94.2704 69.8156 94.1217 69.6483 93.9404C69.6483 93.9404 70.3872 94.2518 70.8659 93.7266C71.3446 93.2015 71.1076 92.5788 70.9542 92.3743C70.8009 92.1698 70.5778 91.8259 70.0433 91.8677C69.5693 91.9049 69.4996 91.9839 69.1743 92.2442C69.2115 91.5331 69.6437 91.0452 69.6437 91.0452H68.2216C68.4819 91.3194 68.7142 91.9514 68.6863 92.2395C68.3703 91.9839 68.296 91.9049 67.8266 91.8724C67.2922 91.8306 67.0644 92.1745 66.9157 92.3789C66.7624 92.5834 66.5254 93.2062 67.004 93.7313V93.722Z" fill="#151515"/>
<path d="M70.443 97.5931C70.6893 97.7093 70.8799 97.8673 71.01 98.0718C71.1401 98.2716 71.2098 98.4993 71.2098 98.7456C71.2098 99.0291 71.1355 99.2429 70.9914 99.3962C70.8473 99.545 70.68 99.6193 70.4848 99.6193C70.3222 99.6193 70.1967 99.5682 70.1038 99.4706C70.0108 99.373 69.9643 99.2475 69.9643 99.0942C69.9643 98.9919 69.9922 98.899 70.0526 98.8107C70.1131 98.7224 70.1921 98.6573 70.285 98.6155C70.3687 98.5737 70.4337 98.5318 70.4848 98.49C70.5313 98.4482 70.5592 98.3924 70.5592 98.3181C70.5592 98.1275 70.4848 97.9742 70.3361 97.8673C70.1874 97.7604 69.9318 97.7046 69.5693 97.7046C69.1232 97.7046 68.8025 97.8952 68.6027 98.2809C68.4029 98.6666 68.3053 99.1546 68.3053 99.7401C68.3053 100.293 68.4028 100.716 68.5934 101.013C68.7839 101.306 69.0999 101.455 69.5321 101.455C69.7087 101.455 69.8575 101.427 69.9829 101.376C70.1084 101.325 70.2385 101.232 70.3687 101.102C70.4291 101.041 70.4802 100.962 70.5174 100.865C70.5545 100.767 70.5778 100.679 70.5778 100.609C70.5778 100.544 70.5964 100.488 70.6289 100.447C70.6614 100.405 70.7033 100.381 70.759 100.381C70.8566 100.381 70.9031 100.456 70.9031 100.609V103.723L70.7033 103.876C70.5778 103.769 70.3919 103.676 70.1502 103.607C69.9086 103.537 69.6809 103.5 69.4671 103.5C69.1789 103.5 68.9187 103.528 68.6817 103.579C68.4447 103.635 68.2077 103.732 67.9614 103.876L67.8545 103.751C68.0729 103.467 68.3378 103.24 68.6538 103.072C68.9698 102.9 69.3044 102.817 69.6576 102.817C69.8807 102.817 70.0573 102.831 70.1921 102.858C70.3222 102.886 70.4523 102.933 70.5778 102.998V101.274L70.522 101.255C70.378 101.422 70.2013 101.553 69.9922 101.646C69.7831 101.738 69.5693 101.785 69.3462 101.785C68.7142 101.785 68.2216 101.599 67.8731 101.227C67.5199 100.855 67.3433 100.363 67.3433 99.7494C67.3433 99.3126 67.4455 98.9129 67.6453 98.5597C67.8452 98.2065 68.1147 97.9277 68.454 97.7232C68.7886 97.5234 69.1604 97.4211 69.5647 97.4211C69.8993 97.4211 70.1921 97.4816 70.4384 97.5977L70.443 97.5931Z" fill="black"/>
<path d="M32.5164 21.7912C30.8527 19.9741 28.3014 21.0523 28.3014 21.0523C29.0171 20.2901 29.4911 19.6813 29.4028 18.4312C29.4028 18.3894 29.4028 18.3476 29.4028 18.3058C29.4028 16.3167 27.7902 14.7041 25.8011 14.7041C23.8121 14.7041 22.1995 16.3167 22.1995 18.3058C22.1995 18.5567 22.2274 18.803 22.2738 19.0354C22.3575 19.8998 22.785 20.4249 23.3706 21.0523C23.3706 21.0523 20.8146 19.9741 19.1555 21.7912C17.4918 23.6083 18.3236 25.76 18.8488 26.471C19.3739 27.1774 20.1547 28.3671 22.0043 28.2324C23.6401 28.1115 23.8818 27.8327 25.0064 26.9358C24.8717 29.4035 23.3752 31.0904 23.3752 31.0904H28.3014C27.3952 30.1377 26.5958 27.9535 26.6981 26.959C27.7995 27.8373 28.0504 28.1115 29.6677 28.2324C31.5127 28.3718 32.298 27.1821 32.8232 26.471C33.3483 25.7646 34.1755 23.6083 32.5164 21.7912Z" fill="#151515"/>
<path d="M58.8434 21.7912C57.1796 19.9741 54.6283 21.0523 54.6283 21.0523C55.3439 20.2901 55.818 19.6813 55.7297 18.4312C55.7297 18.3894 55.7297 18.3476 55.7297 18.3058C55.7297 16.3167 54.1171 14.7041 52.128 14.7041C50.139 14.7041 48.5264 16.3167 48.5264 18.3058C48.5264 18.5567 48.5543 18.803 48.6007 19.0354C48.6844 19.8998 49.1119 20.4249 49.6975 21.0523C49.6975 21.0523 47.1415 19.9741 45.4824 21.7912C43.8187 23.6083 44.6505 25.76 45.1757 26.471C45.7008 27.1774 46.4816 28.3671 48.3312 28.2324C49.967 28.1115 50.2087 27.8327 51.3333 26.9358C51.1986 29.4035 49.7021 31.0904 49.7021 31.0904H54.6283C53.722 30.1377 52.9227 27.9535 53.0249 26.959C54.1263 27.8373 54.3773 28.1115 55.9946 28.2324C57.8395 28.3718 58.6249 27.1821 59.1501 26.471C59.6752 25.76 60.5024 23.6083 58.8434 21.7912Z" fill="#151515"/>
<path d="M44.8412 54.3408C43.1774 52.5237 40.6261 53.6019 40.6261 53.6019C41.3417 52.8397 41.8158 52.2309 41.7275 50.9808C41.7275 50.939 41.7275 50.8971 41.7275 50.8553C41.7275 48.8663 40.1149 47.2537 38.1258 47.2537C36.1368 47.2537 34.5242 48.8663 34.5242 50.8553C34.5242 51.1063 34.5521 51.3526 34.5985 51.5849C34.6822 52.4493 35.1097 52.9745 35.6953 53.6019C35.6953 53.6019 33.1393 52.5237 31.4802 54.3408C29.8165 56.1579 30.6483 58.3096 31.1735 59.0206C31.6986 59.727 32.4794 60.9167 34.329 60.7819C35.9648 60.6611 36.2065 60.3823 37.3312 59.4853C37.1964 61.953 35.6999 63.64 35.6999 63.64H40.6261C39.7198 62.6873 38.9205 60.5031 39.0227 59.5086C40.1241 60.3869 40.3751 60.6611 41.9924 60.7819C43.8373 60.9213 44.6228 59.7316 45.1479 59.0206C45.673 58.3096 46.5002 56.1579 44.8412 54.3408Z" fill="#151515"/>
<path d="M32.5164 88.7819C30.8527 90.599 28.3014 89.5208 28.3014 89.5208C29.0171 90.283 29.4911 90.8918 29.4028 92.1419C29.4028 92.1837 29.4028 92.2255 29.4028 92.2674C29.4028 94.2564 27.7902 95.869 25.8011 95.869C23.8121 95.869 22.1995 94.2564 22.1995 92.2674C22.1995 92.0164 22.2274 91.7701 22.2738 91.5377C22.3575 90.6733 22.785 90.1482 23.3706 89.5208C23.3706 89.5208 20.8146 90.599 19.1555 88.7819C17.4918 86.9648 18.3236 84.8131 18.8488 84.1021C19.3739 83.3957 20.1547 82.206 22.0043 82.3407C23.6401 82.4616 23.8818 82.7404 25.0064 83.6373C24.8717 81.1696 23.3752 79.4827 23.3752 79.4827H28.3014C27.3952 80.4354 26.5958 82.6196 26.6981 83.6141C27.7995 82.7358 28.0504 82.4616 29.6677 82.3407C31.5127 82.2013 32.298 83.391 32.8232 84.1021C33.3483 84.8085 34.1755 86.9648 32.5164 88.7819Z" fill="#151515"/>
<path d="M58.8434 88.7819C57.1796 90.599 54.6283 89.5208 54.6283 89.5208C55.3439 90.283 55.818 90.8918 55.7297 92.1419C55.7297 92.1837 55.7297 92.2255 55.7297 92.2674C55.7297 94.2564 54.1171 95.869 52.128 95.869C50.139 95.869 48.5264 94.2564 48.5264 92.2674C48.5264 92.0164 48.5543 91.7701 48.6007 91.5377C48.6844 90.6733 49.1119 90.1482 49.6975 89.5208C49.6975 89.5208 47.1415 90.599 45.4824 88.7819C43.8187 86.9648 44.6505 84.8131 45.1757 84.1021C45.7008 83.3957 46.4816 82.206 48.3312 82.3407C49.967 82.4616 50.2087 82.7404 51.3333 83.6373C51.1986 81.1696 49.7021 79.4827 49.7021 79.4827H54.6283C53.722 80.4354 52.9227 82.6196 53.0249 83.6141C54.1263 82.7358 54.3773 82.4616 55.9946 82.3407C57.8395 82.2013 58.6249 83.391 59.1501 84.1021C59.6752 84.8131 60.5024 86.9648 58.8434 88.7819Z" fill="#151515"/>
</svg>
