<svg width="78" height="109" viewBox="0 0 78 109" fill="none" xmlns="http://www.w3.org/2000/svg">
<path d="M75.0424 0.0556641H3.25109C1.72652 0.0556641 0.490601 1.29158 0.490601 2.81615V105.531C0.490601 107.055 1.72652 108.291 3.25109 108.291H75.0424C76.567 108.291 77.8029 107.055 77.8029 105.531V2.81615C77.8029 1.29158 76.567 0.0556641 75.0424 0.0556641Z" fill="white"/>
<path d="M75.0424 108.342H3.25107C1.69888 108.342 0.434814 107.078 0.434814 105.526V2.81626C0.434814 1.26406 1.69888 0 3.25107 0H75.0424C76.5946 0 77.8586 1.26406 77.8586 2.81626V105.531C77.8586 107.083 76.5946 108.347 75.0424 108.347V108.342ZM3.25107 0.106888C1.75929 0.106888 0.546345 1.31983 0.546345 2.81161V105.531C0.546345 107.022 1.75929 108.235 3.25107 108.235H75.0424C76.5342 108.235 77.7471 107.022 77.7471 105.531V2.81626C77.7471 1.32448 76.5342 0.111535 75.0424 0.111535H3.25107V0.106888Z" fill="#65A7DD"/>
<path d="M69.7725 8.58814C69.7725 8.7322 69.6563 8.85303 69.5076 8.85303C69.3589 8.85303 69.2427 8.73685 69.2427 8.58814C69.2427 8.43942 69.3589 8.32324 69.5076 8.32324C69.6563 8.32324 69.7725 8.43942 69.7725 8.58814Z" fill="white"/>
<path d="M57.1643 8.58814C57.1643 8.7322 57.0481 8.85303 56.8994 8.85303C56.7507 8.85303 56.6345 8.73685 56.6345 8.58814C56.6345 8.43942 56.7507 8.32324 56.8994 8.32324C57.0481 8.32324 57.1643 8.43942 57.1643 8.58814Z" fill="white"/>
<path d="M45.5693 8.58814C45.5693 8.7322 45.4532 8.85303 45.3044 8.85303C45.1557 8.85303 45.0396 8.73685 45.0396 8.58814C45.0396 8.43942 45.1557 8.32324 45.3044 8.32324C45.4532 8.32324 45.5693 8.43942 45.5693 8.58814Z" fill="white"/>
<path d="M33.9277 8.67188C33.9277 8.81594 33.8116 8.93677 33.6628 8.93677C33.5141 8.93677 33.3979 8.82059 33.3979 8.67188C33.3979 8.52316 33.5141 8.40698 33.6628 8.40698C33.8116 8.40698 33.9277 8.52316 33.9277 8.67188Z" fill="white"/>
<path d="M69.7725 18.4126C69.7725 18.5567 69.6563 18.6775 69.5076 18.6775C69.3589 18.6775 69.2427 18.5613 69.2427 18.4126C69.2427 18.2639 69.3589 18.1477 69.5076 18.1477C69.6563 18.1477 69.7725 18.2639 69.7725 18.4126Z" fill="white"/>
<path d="M69.7725 27.3772C69.7725 27.5213 69.6563 27.6421 69.5076 27.6421C69.3589 27.6421 69.2427 27.5259 69.2427 27.3772C69.2427 27.2285 69.3589 27.1123 69.5076 27.1123C69.6563 27.1123 69.7725 27.2285 69.7725 27.3772Z" fill="white"/>
<path d="M69.7725 36.7739C69.7725 36.918 69.6563 37.0388 69.5076 37.0388C69.3589 37.0388 69.2427 36.9226 69.2427 36.7739C69.2427 36.6252 69.3589 36.509 69.5076 36.509C69.6563 36.509 69.7725 36.6252 69.7725 36.7739Z" fill="white"/>
<path d="M69.7725 42.7131C69.7725 42.8572 69.6563 42.978 69.5076 42.978C69.3589 42.978 69.2427 42.8619 69.2427 42.7131C69.2427 42.5644 69.3589 42.4482 69.5076 42.4482C69.6563 42.4482 69.7725 42.5644 69.7725 42.7131Z" fill="white"/>
<path d="M69.7725 48.6758C69.7725 48.8198 69.6563 48.9407 69.5076 48.9407C69.3589 48.9407 69.2427 48.8245 69.2427 48.6758C69.2427 48.5271 69.3589 48.4109 69.5076 48.4109C69.6563 48.4109 69.7725 48.5271 69.7725 48.6758Z" fill="white"/>
<path d="M9.22288 8.85303C9.22288 8.9971 9.10673 9.11793 8.95801 9.11793C8.8093 9.11793 8.69312 9.00174 8.69312 8.85303C8.69312 8.70432 8.8093 8.58813 8.95801 8.58813C9.10673 8.58813 9.22288 8.70432 9.22288 8.85303Z" fill="white"/>
<path d="M21.975 8.67188C21.975 8.81594 21.8588 8.93677 21.7101 8.93677C21.5614 8.93677 21.4452 8.82059 21.4452 8.67188C21.4452 8.52316 21.5614 8.40698 21.7101 8.40698C21.8588 8.40698 21.975 8.52316 21.975 8.67188Z" fill="white"/>
<path d="M9.22288 18.2034C9.22288 18.3474 9.10673 18.4683 8.95801 18.4683C8.8093 18.4683 8.69312 18.3521 8.69312 18.2034C8.69312 18.0547 8.8093 17.9385 8.95801 17.9385C9.10673 17.9385 9.22288 18.0547 9.22288 18.2034Z" fill="white"/>
<path d="M9.22288 27.4421C9.22288 27.5862 9.10673 27.707 8.95801 27.707C8.8093 27.707 8.69312 27.5909 8.69312 27.4421C8.69312 27.2934 8.8093 27.1772 8.95801 27.1772C9.10673 27.1772 9.22288 27.2934 9.22288 27.4421Z" fill="white"/>
<path d="M9.22288 36.709C9.22288 36.8531 9.10673 36.9739 8.95801 36.9739C8.8093 36.9739 8.69312 36.8577 8.69312 36.709C8.69312 36.5603 8.8093 36.4441 8.95801 36.4441C9.10673 36.4441 9.22288 36.5603 9.22288 36.709Z" fill="white"/>
<path d="M9.22288 42.7131C9.22288 42.8572 9.10673 42.978 8.95801 42.978C8.8093 42.978 8.69312 42.8619 8.69312 42.7131C8.69312 42.5644 8.8093 42.4482 8.95801 42.4482C9.10673 42.4482 9.22288 42.5644 9.22288 42.7131Z" fill="white"/>
<path d="M9.22288 48.9407C9.22288 49.0847 9.10673 49.2056 8.95801 49.2056C8.8093 49.2056 8.69312 49.0894 8.69312 48.9407C8.69312 48.792 8.8093 48.6758 8.95801 48.6758C9.10673 48.6758 9.22288 48.792 9.22288 48.9407Z" fill="white"/>
<path d="M9.22288 54.9495C9.22288 55.0935 9.10673 55.2144 8.95801 55.2144C8.8093 55.2144 8.69312 55.0982 8.69312 54.9495C8.69312 54.8008 8.8093 54.6846 8.95801 54.6846C9.10673 54.6846 9.22288 54.8008 9.22288 54.9495Z" fill="white"/>
<path d="M9.22288 60.9585C9.22288 61.1026 9.10673 61.2234 8.95801 61.2234C8.8093 61.2234 8.69312 61.1072 8.69312 60.9585C8.69312 60.8098 8.8093 60.6936 8.95801 60.6936C9.10673 60.6936 9.22288 60.8098 9.22288 60.9585Z" fill="white"/>
<path d="M9.22288 67.1858C9.22288 67.3299 9.10673 67.4507 8.95801 67.4507C8.8093 67.4507 8.69312 67.3345 8.69312 67.1858C8.69312 67.0371 8.8093 66.9209 8.95801 66.9209C9.10673 66.9209 9.22288 67.0371 9.22288 67.1858Z" fill="white"/>
<path d="M9.22288 73.4273C9.22288 73.5713 9.10673 73.6922 8.95801 73.6922C8.8093 73.6922 8.69312 73.576 8.69312 73.4273C8.69312 73.2785 8.8093 73.1624 8.95801 73.1624C9.10673 73.1624 9.22288 73.2785 9.22288 73.4273Z" fill="white"/>
<path d="M9.22288 79.0039C9.22288 79.148 9.10673 79.2688 8.95801 79.2688C8.8093 79.2688 8.69312 79.1526 8.69312 79.0039C8.69312 78.8552 8.8093 78.739 8.95801 78.739C9.10673 78.739 9.22288 78.8552 9.22288 79.0039Z" fill="white"/>
<path d="M9.22288 85.2266C9.22288 85.3706 9.10673 85.4915 8.95801 85.4915C8.8093 85.4915 8.69312 85.3753 8.69312 85.2266C8.69312 85.0778 8.8093 84.9617 8.95801 84.9617C9.10673 84.9617 9.22288 85.0778 9.22288 85.2266Z" fill="white"/>
<path d="M9.22288 91.2913C9.22288 91.4353 9.10673 91.5562 8.95801 91.5562C8.8093 91.5562 8.69312 91.44 8.69312 91.2913C8.69312 91.1426 8.8093 91.0264 8.95801 91.0264C9.10673 91.0264 9.22288 91.1426 9.22288 91.2913Z" fill="white"/>
<path d="M9.32972 100.209C9.32972 100.354 9.21354 100.474 9.06483 100.474C8.91611 100.474 8.79993 100.358 8.79993 100.209C8.79993 100.061 8.91611 99.9446 9.06483 99.9446C9.21354 99.9446 9.32972 100.061 9.32972 100.209Z" fill="white"/>
<path d="M18.8707 100.47C18.8707 100.614 18.7545 100.735 18.6058 100.735C18.4571 100.735 18.3409 100.618 18.3409 100.47C18.3409 100.321 18.4571 100.205 18.6058 100.205C18.7545 100.205 18.8707 100.321 18.8707 100.47Z" fill="white"/>
<path d="M31.1581 100.47C31.1581 100.614 31.0419 100.735 30.8932 100.735C30.7445 100.735 30.6283 100.618 30.6283 100.47C30.6283 100.321 30.7445 100.205 30.8932 100.205C31.0419 100.205 31.1581 100.321 31.1581 100.47Z" fill="white"/>
<path d="M43.4315 100.47C43.4315 100.614 43.3153 100.735 43.1666 100.735C43.0179 100.735 42.9017 100.618 42.9017 100.47C42.9017 100.321 43.0179 100.205 43.1666 100.205C43.3153 100.205 43.4315 100.321 43.4315 100.47Z" fill="white"/>
<path d="M55.3844 100.47C55.3844 100.614 55.2682 100.735 55.1195 100.735C54.9708 100.735 54.8546 100.618 54.8546 100.47C54.8546 100.321 54.9708 100.205 55.1195 100.205C55.2682 100.205 55.3844 100.321 55.3844 100.47Z" fill="white"/>
<path d="M69.7725 54.8054C69.7725 54.9495 69.6563 55.0703 69.5076 55.0703C69.3589 55.0703 69.2427 54.9541 69.2427 54.8054C69.2427 54.6567 69.3589 54.5405 69.5076 54.5405C69.6563 54.5405 69.7725 54.6567 69.7725 54.8054Z" fill="white"/>
<path d="M69.7725 60.5356C69.7725 60.6797 69.6563 60.8005 69.5076 60.8005C69.3589 60.8005 69.2427 60.6844 69.2427 60.5356C69.2427 60.3869 69.3589 60.2708 69.5076 60.2708C69.6563 60.2708 69.7725 60.3869 69.7725 60.5356Z" fill="white"/>
<path d="M69.7725 66.7119C69.7725 66.856 69.6563 66.9768 69.5076 66.9768C69.3589 66.9768 69.2427 66.8606 69.2427 66.7119C69.2427 66.5632 69.3589 66.447 69.5076 66.447C69.6563 66.447 69.7725 66.5632 69.7725 66.7119Z" fill="white"/>
<path d="M69.7725 72.7998C69.7725 72.9439 69.6563 73.0647 69.5076 73.0647C69.3589 73.0647 69.2427 72.9485 69.2427 72.7998C69.2427 72.6511 69.3589 72.5349 69.5076 72.5349C69.6563 72.5349 69.7725 72.6511 69.7725 72.7998Z" fill="white"/>
<path d="M69.7725 78.7297C69.7725 78.8738 69.6563 78.9946 69.5076 78.9946C69.3589 78.9946 69.2427 78.8785 69.2427 78.7297C69.2427 78.581 69.3589 78.4648 69.5076 78.4648C69.6563 78.4648 69.7725 78.581 69.7725 78.7297Z" fill="white"/>
<path d="M69.7725 84.5713C69.7725 84.7154 69.6563 84.8362 69.5076 84.8362C69.3589 84.8362 69.2427 84.72 69.2427 84.5713C69.2427 84.4226 69.3589 84.3064 69.5076 84.3064C69.6563 84.3064 69.7725 84.4226 69.7725 84.5713Z" fill="white"/>
<path d="M69.7725 90.5386C69.7725 90.6826 69.6563 90.8035 69.5076 90.8035C69.3589 90.8035 69.2427 90.6873 69.2427 90.5386C69.2427 90.3899 69.3589 90.2737 69.5076 90.2737C69.6563 90.2737 69.7725 90.3899 69.7725 90.5386Z" fill="white"/>
<path d="M69.7725 99.6333C69.7725 99.7774 69.6563 99.8982 69.5076 99.8982C69.3589 99.8982 69.2427 99.782 69.2427 99.6333C69.2427 99.4846 69.3589 99.3684 69.5076 99.3684C69.6563 99.3684 69.7725 99.4846 69.7725 99.6333Z" fill="white"/>
<path d="M32.975 20.9314C31.3113 19.1143 28.7599 20.1924 28.7599 20.1924C29.4756 19.4303 29.9496 18.8215 29.8613 17.5714C29.8613 17.5295 29.8613 17.4877 29.8613 17.4459C29.8613 15.4568 28.2487 13.8442 26.2597 13.8442C24.2706 13.8442 22.658 15.4568 22.658 17.4459C22.658 17.6968 22.6859 17.9431 22.7324 18.1755C22.816 19.0399 23.2436 19.5651 23.8291 20.1924C23.8291 20.1924 21.2731 19.1143 19.614 20.9314C17.955 22.7484 18.7822 24.9001 19.3073 25.6112C19.8324 26.3176 20.6132 27.5073 22.4628 27.3725C24.0987 27.2517 24.3403 26.9728 25.465 26.0759C25.3302 28.5436 23.8338 30.2306 23.8338 30.2306H28.7599C27.8537 29.2779 27.0543 27.0937 27.1566 26.0991C28.258 26.9775 28.509 27.2517 30.1262 27.3725C31.9712 27.5119 32.7566 26.3222 33.2817 25.6112C33.8069 24.9048 34.6341 22.7484 32.975 20.9314Z" fill="#151515"/>
<path d="M32.975 53.4763C31.3113 51.6592 28.7599 52.7374 28.7599 52.7374C29.4756 51.9752 29.9496 51.3664 29.8613 50.1163C29.8613 50.0745 29.8613 50.0326 29.8613 49.9908C29.8613 48.0018 28.2487 46.3892 26.2597 46.3892C24.2706 46.3892 22.658 48.0018 22.658 49.9908C22.658 50.2418 22.6859 50.4834 22.7324 50.7204C22.816 51.5848 23.2436 52.11 23.8291 52.7374C23.8291 52.7374 21.2731 51.6592 19.614 53.4763C17.955 55.2934 18.7822 57.4451 19.3073 58.1561C19.8324 58.8625 20.6132 60.0522 22.4628 59.9174C24.0987 59.7966 24.3403 59.5178 25.465 58.6208C25.3302 61.0885 23.8338 62.7755 23.8338 62.7755H28.7599C27.8537 61.8228 27.0543 59.6386 27.1566 58.6441C28.258 59.5224 28.509 59.7966 30.1262 59.9174C31.9712 60.0568 32.7566 58.8671 33.2817 58.1561C33.8069 57.4497 34.6341 55.2934 32.975 53.4763Z" fill="#151515"/>
<path d="M32.975 87.922C31.3113 89.7391 28.7599 88.661 28.7599 88.661C29.4756 89.4231 29.9496 90.0319 29.8613 91.282C29.8613 91.3238 29.8613 91.3657 29.8613 91.4075C29.8613 93.3965 28.2487 95.0091 26.2597 95.0091C24.2706 95.0091 22.658 93.3965 22.658 91.4075C22.658 91.1565 22.6859 90.9102 22.7324 90.6779C22.816 89.8135 23.2436 89.2883 23.8291 88.661C23.8291 88.661 21.2731 89.7391 19.614 87.922C17.955 86.1049 18.7822 83.9532 19.3073 83.2422C19.8324 82.5358 20.6132 81.3461 22.4628 81.4809C24.0987 81.6017 24.3403 81.8806 25.465 82.7775C25.3302 80.3098 23.8338 78.6228 23.8338 78.6228H28.7599C27.8537 79.5755 27.0543 81.7597 27.1566 82.7542C28.258 81.8759 28.509 81.6017 30.1262 81.4809C31.9712 81.3415 32.7566 82.5312 33.2817 83.2422C33.8069 83.9486 34.6341 86.1049 32.975 87.922Z" fill="#151515"/>
<path d="M60.7473 20.9314C59.0836 19.1143 56.5322 20.1924 56.5322 20.1924C57.2479 19.4303 57.7219 18.8215 57.6336 17.5714C57.6336 17.5295 57.6336 17.4877 57.6336 17.4459C57.6336 15.4568 56.021 13.8442 54.032 13.8442C52.0429 13.8442 50.4303 15.4568 50.4303 17.4459C50.4303 17.6968 50.4582 17.9431 50.5047 18.1755C50.5883 19.0399 51.0158 19.5651 51.6014 20.1924C51.6014 20.1924 49.0454 19.1143 47.3863 20.9314C45.7226 22.7484 46.5545 24.9001 47.0796 25.6112C47.6047 26.3176 48.3855 27.5073 50.2351 27.3725C51.8709 27.2517 52.1126 26.9728 53.2373 26.0759C53.1025 28.5436 51.6061 30.2306 51.6061 30.2306H56.5322C55.626 29.2779 54.8266 27.0937 54.9289 26.0991C56.0303 26.9775 56.2812 27.2517 57.8985 27.3725C59.7435 27.5119 60.5289 26.3222 61.054 25.6112C61.5791 24.9048 62.4064 22.7484 60.7473 20.9314Z" fill="#151515"/>
<path d="M60.7473 53.4763C59.0836 51.6592 56.5322 52.7374 56.5322 52.7374C57.2479 51.9752 57.7219 51.3664 57.6336 50.1163C57.6336 50.0745 57.6336 50.0326 57.6336 49.9908C57.6336 48.0018 56.021 46.3892 54.032 46.3892C52.0429 46.3892 50.4303 48.0018 50.4303 49.9908C50.4303 50.2418 50.4582 50.4834 50.5047 50.7204C50.5883 51.5848 51.0158 52.11 51.6014 52.7374C51.6014 52.7374 49.0454 51.6592 47.3863 53.4763C45.7226 55.2934 46.5545 57.4451 47.0796 58.1561C47.6047 58.8625 48.3855 60.0522 50.2351 59.9174C51.8709 59.7966 52.1126 59.5178 53.2373 58.6208C53.1025 61.0885 51.6061 62.7755 51.6061 62.7755H56.5322C55.626 61.8228 54.8266 59.6386 54.9289 58.6441C56.0303 59.5224 56.2812 59.7966 57.8985 59.9174C59.7435 60.0568 60.5289 58.8671 61.054 58.1561C61.5791 57.4497 62.4064 55.2934 60.7473 53.4763Z" fill="#151515"/>
<path d="M60.7473 87.922C59.0836 89.7391 56.5322 88.661 56.5322 88.661C57.2479 89.4231 57.7219 90.0319 57.6336 91.282C57.6336 91.3238 57.6336 91.3657 57.6336 91.4075C57.6336 93.3965 56.021 95.0091 54.032 95.0091C52.0429 95.0091 50.4303 93.3965 50.4303 91.4075C50.4303 91.1565 50.4582 90.9102 50.5047 90.6779C50.5883 89.8135 51.0158 89.2883 51.6014 88.661C51.6014 88.661 49.0454 89.7391 47.3863 87.922C45.7226 86.1049 46.5545 83.9532 47.0796 83.2422C47.6047 82.5358 48.3855 81.3461 50.2351 81.4809C51.8709 81.6017 52.1126 81.8806 53.2373 82.7775C53.1025 80.3098 51.6061 78.6228 51.6061 78.6228H56.5322C55.626 79.5755 54.8266 81.7597 54.9289 82.7542C56.0303 81.8759 56.2812 81.6017 57.8985 81.4809C59.7435 81.3415 60.5289 82.5312 61.054 83.2422C61.5791 83.9486 62.4064 86.1049 60.7473 87.922Z" fill="#151515"/>
<path d="M11.9739 15.8424C11.4953 15.3173 10.7564 15.6286 10.7564 15.6286C10.9608 15.4102 11.1003 15.2336 11.0724 14.8711C11.0724 14.8572 11.0724 14.8479 11.0724 14.834C11.0724 14.2577 10.6077 13.793 10.0314 13.793C9.45512 13.793 8.99037 14.2577 8.99037 14.834C8.99037 14.9083 8.99969 14.978 9.01363 15.0431C9.03687 15.294 9.16234 15.4428 9.32964 15.624C9.32964 15.624 8.59072 15.3126 8.11205 15.8378C7.63338 16.3629 7.87039 16.9857 8.02375 17.1901C8.17711 17.3946 8.40017 17.7385 8.9346 17.6967C9.40863 17.6595 9.47834 17.5805 9.80365 17.3203C9.76647 18.0313 9.33429 18.5193 9.33429 18.5193H10.7564C10.4961 18.2451 10.2637 17.613 10.2916 17.3249C10.6076 17.5805 10.682 17.6595 11.1514 17.692C11.6858 17.7339 11.9135 17.39 12.0622 17.1855C12.211 16.981 12.4526 16.3583 11.9739 15.8331V15.8424Z" fill="#151515"/>
<path d="M8.64186 11.7901C8.34443 11.5484 8.11208 11.2045 7.95407 10.7584C7.79142 10.3123 7.7124 9.78248 7.7124 9.17368C7.7124 8.68107 7.77748 8.19775 7.90296 7.72373C8.02843 7.2497 8.21432 6.85468 8.45133 6.54332C8.88818 5.97635 9.40403 5.69751 9.99424 5.69751C10.4218 5.69751 10.7657 5.84158 11.0306 6.12971C11.1189 6.2366 11.1839 6.35742 11.2258 6.4922C11.2676 6.62697 11.2862 6.74315 11.2862 6.84539C11.2862 7.05452 11.2118 7.22647 11.0585 7.36124C10.9562 7.44954 10.8354 7.49601 10.6867 7.49601C10.538 7.49601 10.4404 7.44024 10.3614 7.33336C10.3335 7.29153 10.3102 7.25435 10.3009 7.21717C10.2917 7.17999 10.287 7.13352 10.287 7.07311C10.287 6.98016 10.3242 6.89186 10.4032 6.80356C10.459 6.74315 10.5147 6.69203 10.5751 6.6502C10.6309 6.61303 10.6681 6.57585 10.6867 6.53867C10.7099 6.50149 10.7192 6.45502 10.7192 6.39925C10.7192 6.29236 10.6588 6.19477 10.5333 6.11577C10.4078 6.03676 10.222 5.99494 9.97101 5.99494C9.75258 5.99494 9.5481 6.06 9.35291 6.18548C9.15772 6.31095 8.99507 6.52473 8.8603 6.81751C8.75806 7.04058 8.67905 7.31941 8.62793 7.65867C8.57217 7.99327 8.54429 8.27675 8.54429 8.50447V8.90879L8.60935 8.93667C8.71624 8.70895 8.88352 8.51841 9.11124 8.37435C9.33896 8.22564 9.55275 8.15128 9.76652 8.15128C10.1708 8.15128 10.5101 8.24887 10.7843 8.4487C11.0166 8.61601 11.1979 8.84372 11.3234 9.13186C11.4488 9.41534 11.5139 9.72206 11.5139 10.0474C11.5139 10.3727 11.4395 10.698 11.2955 11.028C11.1514 11.3533 10.9376 11.6275 10.6588 11.8459C10.38 12.0643 10.05 12.1712 9.66892 12.1712C9.28784 12.1712 8.93466 12.0504 8.63724 11.8087L8.64186 11.7901ZM10.4729 11.3393C10.6402 10.9908 10.7192 10.5958 10.7192 10.1496C10.7192 9.66629 10.6448 9.26663 10.5008 8.95061C10.3567 8.62995 10.1151 8.47194 9.78045 8.47194C9.57132 8.47194 9.3808 8.54165 9.2135 8.68107C9.04619 8.82049 8.91143 9.01567 8.81384 9.27128C8.71624 9.52688 8.66512 9.81966 8.66512 10.1496C8.66512 10.6469 8.74412 11.0605 8.89748 11.3811C9.05549 11.7018 9.31108 11.8645 9.67357 11.8645C10.0361 11.8645 10.3056 11.6879 10.4729 11.3393Z" fill="black"/>
<path d="M68.694 92.8621C69.1726 93.3873 69.9116 93.0759 69.9116 93.0759C69.7071 93.2943 69.5677 93.4709 69.5955 93.8334C69.5955 93.8474 69.5955 93.8567 69.5955 93.8706C69.5955 94.4469 70.0603 94.9116 70.6365 94.9116C71.2128 94.9116 71.6775 94.4469 71.6775 93.8706C71.6775 93.7963 71.6682 93.7265 71.6543 93.6615C71.631 93.4105 71.5056 93.2618 71.3383 93.0806C71.3383 93.0806 72.0772 93.3919 72.5559 92.8668C73.0345 92.3416 72.7975 91.7189 72.6442 91.5144C72.4908 91.3099 72.2677 90.966 71.7333 91.0079C71.2593 91.0451 71.1895 91.1241 70.8642 91.3843C70.9014 90.6733 71.3336 90.1853 71.3336 90.1853H69.9116C70.1718 90.4595 70.4042 91.0915 70.3763 91.3797C70.0603 91.1241 69.9859 91.0451 69.5165 91.0125C68.9821 90.9707 68.7544 91.3146 68.6057 91.5191C68.4523 91.7236 68.2153 92.3463 68.694 92.8714V92.8621Z" fill="#151515"/>
<path d="M72.0216 96.9192C72.319 97.1608 72.5514 97.5047 72.7094 97.9509C72.8674 98.397 72.951 98.9268 72.951 99.5356C72.951 100.028 72.886 100.512 72.7605 100.986C72.635 101.46 72.4491 101.855 72.2121 102.166C71.7753 102.733 71.2594 103.012 70.6692 103.012C70.2417 103.012 69.8978 102.868 69.6329 102.58C69.5446 102.473 69.4795 102.352 69.4377 102.217C69.4005 102.082 69.3772 101.966 69.3772 101.864C69.3772 101.655 69.4516 101.483 69.605 101.348C69.7072 101.26 69.8281 101.213 69.9768 101.213C70.1255 101.213 70.2231 101.269 70.3021 101.376C70.33 101.418 70.3532 101.46 70.3625 101.492C70.3718 101.529 70.3764 101.576 70.3764 101.636C70.3764 101.724 70.3392 101.817 70.2602 101.906C70.2045 101.966 70.1487 102.017 70.0883 102.059C70.0325 102.096 69.9954 102.133 69.9768 102.171C69.9535 102.208 69.9442 102.259 69.9442 102.31C69.9442 102.417 70.0046 102.515 70.1301 102.594C70.2556 102.677 70.4415 102.714 70.6924 102.714C70.9109 102.714 71.1154 102.649 71.3105 102.524C71.5057 102.398 71.6684 102.189 71.8031 101.892C71.9054 101.669 71.9844 101.39 72.0355 101.051C72.0913 100.711 72.1192 100.433 72.1192 100.2V99.7958L72.0541 99.768C71.9472 99.9957 71.7799 100.186 71.5522 100.33C71.3245 100.479 71.1107 100.549 70.8969 100.549C70.4926 100.549 70.1534 100.451 69.8792 100.251C69.6468 100.084 69.4656 99.8563 69.3401 99.5728C69.2146 99.2846 69.1495 98.9826 69.1495 98.6573C69.1495 98.3319 69.2239 98.0066 69.368 97.6767C69.512 97.3467 69.7258 97.0772 70.0046 96.8588C70.2835 96.6403 70.6134 96.5334 70.9945 96.5334C71.3756 96.5334 71.7288 96.6543 72.0262 96.8959L72.0216 96.9192ZM70.1905 97.37C70.0232 97.7185 69.9442 98.1135 69.9442 98.5597C69.9442 99.0383 70.0186 99.4427 70.1626 99.7587C70.3067 100.079 70.5484 100.237 70.883 100.237C71.0921 100.237 71.2826 100.168 71.45 100.028C71.6173 99.8888 71.752 99.6936 71.8496 99.438C71.9472 99.1824 71.9983 98.8896 71.9983 98.5597C71.9983 98.0624 71.9193 97.6488 71.766 97.3281C71.608 97.0075 71.3524 96.8448 70.9899 96.8448C70.6274 96.8448 70.3578 97.0168 70.1905 97.37Z" fill="black"/>
</svg>
