<svg width="78" height="109" viewBox="0 0 78 109" fill="none" xmlns="http://www.w3.org/2000/svg">
<path d="M75.1294 0.0556641H3.33813C1.81355 0.0556641 0.577637 1.29158 0.577637 2.81615V105.531C0.577637 107.055 1.81355 108.291 3.33813 108.291H75.1294C76.654 108.291 77.8899 107.055 77.8899 105.531V2.81615C77.8899 1.29158 76.654 0.0556641 75.1294 0.0556641Z" fill="white"/>
<path d="M75.1293 108.342H3.33798C1.78579 108.342 0.521729 107.078 0.521729 105.526V2.81626C0.521729 1.26406 1.78579 0 3.33798 0H75.1293C76.6815 0 77.9456 1.26406 77.9456 2.81626V105.531C77.9456 107.083 76.6815 108.347 75.1293 108.347V108.342ZM3.33798 0.106888C1.8462 0.106888 0.633259 1.31983 0.633259 2.81161V105.531C0.633259 107.022 1.8462 108.235 3.33798 108.235H75.1293C76.6211 108.235 77.834 107.022 77.834 105.531V2.81626C77.834 1.32448 76.6211 0.111535 75.1293 0.111535H3.33798V0.106888Z" fill="#65A7DD"/>
<path d="M69.8594 8.58814C69.8594 8.7322 69.7432 8.85303 69.5945 8.85303C69.4458 8.85303 69.3296 8.73685 69.3296 8.58814C69.3296 8.43942 69.4458 8.32324 69.5945 8.32324C69.7432 8.32324 69.8594 8.43942 69.8594 8.58814Z" fill="white"/>
<path d="M57.2512 8.58814C57.2512 8.7322 57.135 8.85303 56.9863 8.85303C56.8376 8.85303 56.7214 8.73685 56.7214 8.58814C56.7214 8.43942 56.8376 8.32324 56.9863 8.32324C57.135 8.32324 57.2512 8.43942 57.2512 8.58814Z" fill="white"/>
<path d="M45.6563 8.58814C45.6563 8.7322 45.5401 8.85303 45.3914 8.85303C45.2427 8.85303 45.1265 8.73685 45.1265 8.58814C45.1265 8.43942 45.2427 8.32324 45.3914 8.32324C45.5401 8.32324 45.6563 8.43942 45.6563 8.58814Z" fill="white"/>
<path d="M34.0148 8.67188C34.0148 8.81594 33.8986 8.93677 33.7499 8.93677C33.6012 8.93677 33.485 8.82059 33.485 8.67188C33.485 8.52316 33.6012 8.40698 33.7499 8.40698C33.8986 8.40698 34.0148 8.52316 34.0148 8.67188Z" fill="white"/>
<path d="M69.8594 18.4126C69.8594 18.5567 69.7432 18.6775 69.5945 18.6775C69.4458 18.6775 69.3296 18.5613 69.3296 18.4126C69.3296 18.2639 69.4458 18.1477 69.5945 18.1477C69.7432 18.1477 69.8594 18.2639 69.8594 18.4126Z" fill="white"/>
<path d="M69.8594 27.3772C69.8594 27.5213 69.7432 27.6421 69.5945 27.6421C69.4458 27.6421 69.3296 27.5259 69.3296 27.3772C69.3296 27.2285 69.4458 27.1123 69.5945 27.1123C69.7432 27.1123 69.8594 27.2285 69.8594 27.3772Z" fill="white"/>
<path d="M69.8594 36.7739C69.8594 36.918 69.7432 37.0388 69.5945 37.0388C69.4458 37.0388 69.3296 36.9226 69.3296 36.7739C69.3296 36.6252 69.4458 36.509 69.5945 36.509C69.7432 36.509 69.8594 36.6252 69.8594 36.7739Z" fill="white"/>
<path d="M69.8594 42.7131C69.8594 42.8572 69.7432 42.978 69.5945 42.978C69.4458 42.978 69.3296 42.8619 69.3296 42.7131C69.3296 42.5644 69.4458 42.4482 69.5945 42.4482C69.7432 42.4482 69.8594 42.5644 69.8594 42.7131Z" fill="white"/>
<path d="M69.8594 48.6758C69.8594 48.8198 69.7432 48.9407 69.5945 48.9407C69.4458 48.9407 69.3296 48.8245 69.3296 48.6758C69.3296 48.5271 69.4458 48.4109 69.5945 48.4109C69.7432 48.4109 69.8594 48.5271 69.8594 48.6758Z" fill="white"/>
<path d="M9.3098 8.85303C9.3098 8.9971 9.19364 9.11793 9.04493 9.11793C8.89621 9.11793 8.78003 9.00174 8.78003 8.85303C8.78003 8.70432 8.89621 8.58813 9.04493 8.58813C9.19364 8.58813 9.3098 8.70432 9.3098 8.85303Z" fill="white"/>
<path d="M22.0619 8.67188C22.0619 8.81594 21.9457 8.93677 21.797 8.93677C21.6483 8.93677 21.5321 8.82059 21.5321 8.67188C21.5321 8.52316 21.6483 8.40698 21.797 8.40698C21.9457 8.40698 22.0619 8.52316 22.0619 8.67188Z" fill="white"/>
<path d="M9.3098 18.2034C9.3098 18.3474 9.19364 18.4683 9.04493 18.4683C8.89621 18.4683 8.78003 18.3521 8.78003 18.2034C8.78003 18.0547 8.89621 17.9385 9.04493 17.9385C9.19364 17.9385 9.3098 18.0547 9.3098 18.2034Z" fill="white"/>
<path d="M9.3098 27.4421C9.3098 27.5862 9.19364 27.707 9.04493 27.707C8.89621 27.707 8.78003 27.5909 8.78003 27.4421C8.78003 27.2934 8.89621 27.1772 9.04493 27.1772C9.19364 27.1772 9.3098 27.2934 9.3098 27.4421Z" fill="white"/>
<path d="M9.3098 36.709C9.3098 36.8531 9.19364 36.9739 9.04493 36.9739C8.89621 36.9739 8.78003 36.8577 8.78003 36.709C8.78003 36.5603 8.89621 36.4441 9.04493 36.4441C9.19364 36.4441 9.3098 36.5603 9.3098 36.709Z" fill="white"/>
<path d="M9.3098 42.7131C9.3098 42.8572 9.19364 42.978 9.04493 42.978C8.89621 42.978 8.78003 42.8619 8.78003 42.7131C8.78003 42.5644 8.89621 42.4482 9.04493 42.4482C9.19364 42.4482 9.3098 42.5644 9.3098 42.7131Z" fill="white"/>
<path d="M9.3098 48.9407C9.3098 49.0847 9.19364 49.2056 9.04493 49.2056C8.89621 49.2056 8.78003 49.0894 8.78003 48.9407C8.78003 48.792 8.89621 48.6758 9.04493 48.6758C9.19364 48.6758 9.3098 48.792 9.3098 48.9407Z" fill="white"/>
<path d="M9.3098 54.9495C9.3098 55.0935 9.19364 55.2144 9.04493 55.2144C8.89621 55.2144 8.78003 55.0982 8.78003 54.9495C8.78003 54.8008 8.89621 54.6846 9.04493 54.6846C9.19364 54.6846 9.3098 54.8008 9.3098 54.9495Z" fill="white"/>
<path d="M9.3098 60.9585C9.3098 61.1026 9.19364 61.2234 9.04493 61.2234C8.89621 61.2234 8.78003 61.1072 8.78003 60.9585C8.78003 60.8098 8.89621 60.6936 9.04493 60.6936C9.19364 60.6936 9.3098 60.8098 9.3098 60.9585Z" fill="white"/>
<path d="M9.3098 67.1858C9.3098 67.3299 9.19364 67.4507 9.04493 67.4507C8.89621 67.4507 8.78003 67.3345 8.78003 67.1858C8.78003 67.0371 8.89621 66.9209 9.04493 66.9209C9.19364 66.9209 9.3098 67.0371 9.3098 67.1858Z" fill="white"/>
<path d="M9.3098 73.4273C9.3098 73.5713 9.19364 73.6922 9.04493 73.6922C8.89621 73.6922 8.78003 73.576 8.78003 73.4273C8.78003 73.2785 8.89621 73.1624 9.04493 73.1624C9.19364 73.1624 9.3098 73.2785 9.3098 73.4273Z" fill="white"/>
<path d="M9.3098 79.0039C9.3098 79.148 9.19364 79.2688 9.04493 79.2688C8.89621 79.2688 8.78003 79.1526 8.78003 79.0039C8.78003 78.8552 8.89621 78.739 9.04493 78.739C9.19364 78.739 9.3098 78.8552 9.3098 79.0039Z" fill="white"/>
<path d="M9.3098 85.2266C9.3098 85.3706 9.19364 85.4915 9.04493 85.4915C8.89621 85.4915 8.78003 85.3753 8.78003 85.2266C8.78003 85.0778 8.89621 84.9617 9.04493 84.9617C9.19364 84.9617 9.3098 85.0778 9.3098 85.2266Z" fill="white"/>
<path d="M9.3098 91.2913C9.3098 91.4353 9.19364 91.5562 9.04493 91.5562C8.89621 91.5562 8.78003 91.44 8.78003 91.2913C8.78003 91.1426 8.89621 91.0264 9.04493 91.0264C9.19364 91.0264 9.3098 91.1426 9.3098 91.2913Z" fill="white"/>
<path d="M9.41676 100.209C9.41676 100.354 9.30058 100.474 9.15186 100.474C9.00315 100.474 8.88696 100.358 8.88696 100.209C8.88696 100.061 9.00315 99.9446 9.15186 99.9446C9.30058 99.9446 9.41676 100.061 9.41676 100.209Z" fill="white"/>
<path d="M18.9576 100.47C18.9576 100.614 18.8414 100.735 18.6927 100.735C18.544 100.735 18.4279 100.618 18.4279 100.47C18.4279 100.321 18.544 100.205 18.6927 100.205C18.8414 100.205 18.9576 100.321 18.9576 100.47Z" fill="white"/>
<path d="M31.2496 100.47C31.2496 100.614 31.1335 100.735 30.9847 100.735C30.836 100.735 30.7198 100.618 30.7198 100.47C30.7198 100.321 30.836 100.205 30.9847 100.205C31.1335 100.205 31.2496 100.321 31.2496 100.47Z" fill="white"/>
<path d="M43.5184 100.47C43.5184 100.614 43.4023 100.735 43.2535 100.735C43.1048 100.735 42.9886 100.618 42.9886 100.47C42.9886 100.321 43.1048 100.205 43.2535 100.205C43.4023 100.205 43.5184 100.321 43.5184 100.47Z" fill="white"/>
<path d="M55.4713 100.47C55.4713 100.614 55.3551 100.735 55.2064 100.735C55.0577 100.735 54.9415 100.618 54.9415 100.47C54.9415 100.321 55.0577 100.205 55.2064 100.205C55.3551 100.205 55.4713 100.321 55.4713 100.47Z" fill="white"/>
<path d="M69.8594 54.8054C69.8594 54.9495 69.7432 55.0703 69.5945 55.0703C69.4458 55.0703 69.3296 54.9541 69.3296 54.8054C69.3296 54.6567 69.4458 54.5405 69.5945 54.5405C69.7432 54.5405 69.8594 54.6567 69.8594 54.8054Z" fill="white"/>
<path d="M69.8594 60.5356C69.8594 60.6797 69.7432 60.8005 69.5945 60.8005C69.4458 60.8005 69.3296 60.6844 69.3296 60.5356C69.3296 60.3869 69.4458 60.2708 69.5945 60.2708C69.7432 60.2708 69.8594 60.3869 69.8594 60.5356Z" fill="white"/>
<path d="M69.8594 66.7119C69.8594 66.856 69.7432 66.9768 69.5945 66.9768C69.4458 66.9768 69.3296 66.8606 69.3296 66.7119C69.3296 66.5632 69.4458 66.447 69.5945 66.447C69.7432 66.447 69.8594 66.5632 69.8594 66.7119Z" fill="white"/>
<path d="M69.8594 72.7998C69.8594 72.9439 69.7432 73.0647 69.5945 73.0647C69.4458 73.0647 69.3296 72.9485 69.3296 72.7998C69.3296 72.6511 69.4458 72.5349 69.5945 72.5349C69.7432 72.5349 69.8594 72.6511 69.8594 72.7998Z" fill="white"/>
<path d="M69.8594 78.7297C69.8594 78.8738 69.7432 78.9946 69.5945 78.9946C69.4458 78.9946 69.3296 78.8785 69.3296 78.7297C69.3296 78.581 69.4458 78.4648 69.5945 78.4648C69.7432 78.4648 69.8594 78.581 69.8594 78.7297Z" fill="white"/>
<path d="M69.8594 84.5713C69.8594 84.7154 69.7432 84.8362 69.5945 84.8362C69.4458 84.8362 69.3296 84.72 69.3296 84.5713C69.3296 84.4226 69.4458 84.3064 69.5945 84.3064C69.7432 84.3064 69.8594 84.4226 69.8594 84.5713Z" fill="white"/>
<path d="M69.8594 90.5386C69.8594 90.6826 69.7432 90.8035 69.5945 90.8035C69.4458 90.8035 69.3296 90.6873 69.3296 90.5386C69.3296 90.3899 69.4458 90.2737 69.5945 90.2737C69.7432 90.2737 69.8594 90.3899 69.8594 90.5386Z" fill="white"/>
<path d="M69.8594 99.6333C69.8594 99.7774 69.7432 99.8982 69.5945 99.8982C69.4458 99.8982 69.3296 99.782 69.3296 99.6333C69.3296 99.4846 69.4458 99.3684 69.5945 99.3684C69.7432 99.3684 69.8594 99.4846 69.8594 99.6333Z" fill="white"/>
<path d="M46.99 37.1689C45.3263 35.3518 42.7749 36.43 42.7749 36.43C43.4906 35.6678 43.9646 35.059 43.8763 33.8089C43.8763 33.7671 43.8763 33.7253 43.8763 33.6834C43.8763 31.6944 42.2637 30.0818 40.2747 30.0818C38.2856 30.0818 36.673 31.6944 36.673 33.6834C36.673 33.9344 36.7009 34.1807 36.7474 34.4131C36.831 35.2775 37.2586 35.8026 37.8441 36.43C37.8441 36.43 35.2881 35.3518 33.629 37.1689C31.97 38.986 32.7972 41.1377 33.3223 41.8487C33.8475 42.5551 34.6282 43.7448 36.4778 43.61C38.1137 43.4892 38.3554 43.2104 39.48 42.3135C39.3452 44.7812 37.8488 46.4681 37.8488 46.4681H42.7749C41.8687 45.5154 41.0693 43.3312 41.1716 42.3367C42.273 43.215 42.524 43.4892 44.1412 43.61C45.9862 43.7495 46.7716 42.5598 47.2967 41.8487C47.8219 41.1423 48.6491 38.986 46.99 37.1689Z" fill="#151515"/>
<path d="M29.716 20.9314C28.0523 19.1143 25.501 20.1924 25.501 20.1924C26.2166 19.4303 26.6907 18.8215 26.6024 17.5714C26.6024 17.5295 26.6024 17.4877 26.6024 17.4459C26.6024 15.4568 24.9897 13.8442 23.0007 13.8442C21.0117 13.8442 19.3991 15.4568 19.3991 17.4459C19.3991 17.6968 19.427 17.9431 19.4734 18.1755C19.5571 19.0399 19.9846 19.5651 20.5702 20.1924C20.5702 20.1924 18.0142 19.1143 16.3551 20.9314C14.6914 22.7484 15.5232 24.9001 16.0484 25.6112C16.5735 26.3176 17.3543 27.5073 19.2039 27.3725C20.8397 27.2517 21.0814 26.9728 22.206 26.0759C22.0712 28.5436 20.5748 30.2306 20.5748 30.2306H25.501C24.5947 29.2779 23.7954 27.0937 23.8976 26.0991C24.999 26.9775 25.25 27.2517 26.8673 27.3725C28.7122 27.5119 29.4976 26.3222 30.0228 25.6112C30.5479 24.9048 31.3751 22.7484 29.716 20.9314Z" fill="#151515"/>
<path d="M29.716 53.4763C28.0523 51.6592 25.501 52.7374 25.501 52.7374C26.2166 51.9752 26.6907 51.3664 26.6024 50.1163C26.6024 50.0745 26.6024 50.0326 26.6024 49.9908C26.6024 48.0018 24.9897 46.3892 23.0007 46.3892C21.0117 46.3892 19.3991 48.0018 19.3991 49.9908C19.3991 50.2418 19.427 50.4834 19.4734 50.7204C19.5571 51.5848 19.9846 52.11 20.5702 52.7374C20.5702 52.7374 18.0142 51.6592 16.3551 53.4763C14.6914 55.2934 15.5232 57.4451 16.0484 58.1561C16.5735 58.8625 17.3543 60.0522 19.2039 59.9174C20.8397 59.7966 21.0814 59.5178 22.206 58.6208C22.0712 61.0885 20.5748 62.7755 20.5748 62.7755H25.501C24.5947 61.8228 23.7954 59.6386 23.8976 58.6441C24.999 59.5224 25.25 59.7966 26.8673 59.9174C28.7122 60.0568 29.4976 58.8671 30.0228 58.1561C30.5479 57.4497 31.3751 55.2934 29.716 53.4763Z" fill="#151515"/>
<path d="M29.716 87.922C28.0523 89.7391 25.501 88.661 25.501 88.661C26.2166 89.4231 26.6907 90.0319 26.6024 91.282C26.6024 91.3238 26.6024 91.3657 26.6024 91.4075C26.6024 93.3965 24.9897 95.0091 23.0007 95.0091C21.0117 95.0091 19.3991 93.3965 19.3991 91.4075C19.3991 91.1565 19.427 90.9102 19.4734 90.6779C19.5571 89.8135 19.9846 89.2883 20.5702 88.661C20.5702 88.661 18.0142 89.7391 16.3551 87.922C14.6914 86.1049 15.5232 83.9532 16.0484 83.2422C16.5735 82.5358 17.3543 81.3461 19.2039 81.4809C20.8397 81.6017 21.0814 81.8806 22.206 82.7775C22.0712 80.3098 20.5748 78.6228 20.5748 78.6228H25.501C24.5947 79.5755 23.7954 81.7597 23.8976 82.7542C24.999 81.8759 25.25 81.6017 26.8673 81.4809C28.7122 81.3415 29.4976 82.5312 30.0228 83.2422C30.5479 83.9486 31.3751 86.1049 29.716 87.922Z" fill="#151515"/>
<path d="M66.0811 20.9314C64.4173 19.1143 61.866 20.1924 61.866 20.1924C62.5817 19.4303 63.0557 18.8215 62.9674 17.5714C62.9674 17.5295 62.9674 17.4877 62.9674 17.4459C62.9674 15.4568 61.3548 13.8442 59.3657 13.8442C57.3767 13.8442 55.7641 15.4568 55.7641 17.4459C55.7641 17.6968 55.792 17.9431 55.8385 18.1755C55.9221 19.0399 56.3497 19.5651 56.9352 20.1924C56.9352 20.1924 54.3792 19.1143 52.7201 20.9314C51.061 22.7484 51.8882 24.9001 52.4134 25.6112C52.9385 26.3176 53.7193 27.5073 55.5689 27.3725C57.2048 27.2517 57.4464 26.9728 58.571 26.0759C58.4363 28.5436 56.9399 30.2306 56.9399 30.2306H61.866C60.9598 29.2779 60.1604 27.0937 60.2627 26.0991C61.3641 26.9775 61.615 27.2517 63.2323 27.3725C65.0773 27.5119 65.8626 26.3222 66.3878 25.6112C66.9129 24.9048 67.7402 22.7484 66.0811 20.9314Z" fill="#151515"/>
<path d="M66.0811 53.4763C64.4173 51.6592 61.866 52.7374 61.866 52.7374C62.5817 51.9752 63.0557 51.3664 62.9674 50.1163C62.9674 50.0745 62.9674 50.0326 62.9674 49.9908C62.9674 48.0018 61.3548 46.3892 59.3657 46.3892C57.3767 46.3892 55.7641 48.0018 55.7641 49.9908C55.7641 50.2418 55.792 50.4834 55.8385 50.7204C55.9221 51.5848 56.3497 52.11 56.9352 52.7374C56.9352 52.7374 54.3792 51.6592 52.7201 53.4763C51.061 55.2934 51.8882 57.4451 52.4134 58.1561C52.9385 58.8625 53.7193 60.0522 55.5689 59.9174C57.2048 59.7966 57.4464 59.5178 58.571 58.6208C58.4363 61.0885 56.9399 62.7755 56.9399 62.7755H61.866C60.9598 61.8228 60.1604 59.6386 60.2627 58.6441C61.3641 59.5224 61.615 59.7966 63.2323 59.9174C65.0773 60.0568 65.8626 58.8671 66.3878 58.1561C66.9129 57.4497 67.7402 55.2934 66.0811 53.4763Z" fill="#151515"/>
<path d="M66.0811 87.922C64.4173 89.7391 61.866 88.661 61.866 88.661C62.5817 89.4231 63.0557 90.0319 62.9674 91.282C62.9674 91.3238 62.9674 91.3657 62.9674 91.4075C62.9674 93.3965 61.3548 95.0091 59.3657 95.0091C57.3767 95.0091 55.7641 93.3965 55.7641 91.4075C55.7641 91.1565 55.792 90.9102 55.8385 90.6779C55.9221 89.8135 56.3497 89.2883 56.9352 88.661C56.9352 88.661 54.3792 89.7391 52.7201 87.922C51.061 86.1049 51.8882 83.9532 52.4134 83.2422C52.9385 82.5358 53.7193 81.3461 55.5689 81.4809C57.2048 81.6017 57.4464 81.8806 58.571 82.7775C58.4363 80.3098 56.9399 78.6228 56.9399 78.6228H61.866C60.9598 79.5755 60.1604 81.7597 60.2627 82.7542C61.3641 81.8759 61.615 81.6017 63.2323 81.4809C65.0773 81.3415 65.8626 82.5312 66.3878 83.2422C66.9129 83.9486 67.7402 86.1049 66.0811 87.922Z" fill="#151515"/>
<path d="M11.8983 15.8424C11.4196 15.3173 10.6807 15.6286 10.6807 15.6286C10.8852 15.4102 11.0246 15.2336 10.9967 14.8711C10.9967 14.8572 10.9967 14.8479 10.9967 14.834C10.9967 14.2577 10.532 13.793 9.9557 13.793C9.37944 13.793 8.91471 14.2577 8.91471 14.834C8.91471 14.9083 8.924 14.978 8.93795 15.0431C8.96118 15.294 9.08666 15.4428 9.25396 15.624C9.25396 15.624 8.51504 15.3126 8.03637 15.8378C7.5577 16.3629 7.79471 16.9857 7.94807 17.1901C8.10143 17.3946 8.32451 17.7385 8.85895 17.6967C9.33297 17.6595 9.40268 17.5805 9.72799 17.3203C9.69081 18.0313 9.25861 18.5193 9.25861 18.5193H10.6807C10.4204 18.2451 10.1881 17.613 10.216 17.3249C10.532 17.5805 10.6063 17.6595 11.0757 17.692C11.6102 17.7339 11.8379 17.39 11.9866 17.1855C12.1399 16.981 12.3769 16.3583 11.8983 15.8331V15.8424Z" fill="#151515"/>
<path d="M8.94736 11.9156C8.81724 11.7576 8.75219 11.5484 8.75219 11.2835C8.75219 10.9211 8.84049 10.5539 9.01708 10.1682C9.19368 9.78712 9.42138 9.39675 9.70022 9.00173L10.4205 7.96538C10.5507 7.77949 10.6622 7.57966 10.7505 7.36588C10.8388 7.15211 10.8806 6.96621 10.8806 6.81285C10.8806 6.72455 10.8574 6.65949 10.8109 6.62696C10.7645 6.59443 10.6947 6.57584 10.5971 6.57584H8.72893C8.48727 6.57584 8.31998 6.62696 8.21774 6.73385C8.12014 6.84074 8.05043 6.98945 8.01325 7.17999L7.91565 7.70978H7.71582L7.84131 5.83228H11.3035C11.3035 6.14364 11.2571 6.50148 11.1641 6.9058C11.0712 7.31011 10.9132 7.67725 10.6901 8.00721L10.1743 8.7833C9.92795 9.14579 9.80245 9.53616 9.80245 9.95442C9.80245 10.2147 9.82106 10.4377 9.85824 10.6329L9.91401 10.9489C9.96048 11.1906 9.98835 11.3997 9.98835 11.581C9.98835 11.9574 9.81175 12.1479 9.45855 12.1479C9.24013 12.1479 9.06818 12.0689 8.93806 11.9156H8.94736Z" fill="black"/>
<path d="M68.6186 92.8621C69.0973 93.3873 69.8362 93.0759 69.8362 93.0759C69.6317 93.2943 69.4922 93.4709 69.5201 93.8334C69.5201 93.8474 69.5201 93.8567 69.5201 93.8706C69.5201 94.4469 69.9849 94.9116 70.5611 94.9116C71.1374 94.9116 71.6021 94.4469 71.6021 93.8706C71.6021 93.7963 71.5928 93.7265 71.5789 93.6615C71.5557 93.4105 71.4302 93.2618 71.2629 93.0806C71.2629 93.0806 72.0018 93.3919 72.4805 92.8668C72.9591 92.3416 72.7221 91.7189 72.5688 91.5144C72.4154 91.3099 72.1923 90.966 71.6579 91.0079C71.1839 91.0451 71.1142 91.1241 70.7889 91.3843C70.826 90.6733 71.2582 90.1853 71.2582 90.1853H69.8362C70.0964 90.4595 70.3288 91.0915 70.3009 91.3797C69.9849 91.1241 69.9105 91.0451 69.4411 91.0125C68.9067 90.9707 68.679 91.3146 68.5303 91.5191C68.3816 91.7236 68.1399 92.3463 68.6186 92.8714V92.8621Z" fill="#151515"/>
<path d="M71.5649 96.7936C71.695 96.9517 71.7601 97.1608 71.7601 97.4257C71.7601 97.7882 71.6718 98.1553 71.4952 98.541C71.3186 98.9221 71.0909 99.3125 70.8121 99.7075L70.0917 100.744C69.9616 100.93 69.8501 101.13 69.7618 101.343C69.6735 101.557 69.6317 101.743 69.6317 101.896C69.6317 101.985 69.6549 102.05 69.7014 102.082C69.7478 102.115 69.8175 102.133 69.9151 102.133H71.7834C72.025 102.133 72.1923 102.082 72.2945 101.975C72.3921 101.868 72.4619 101.72 72.499 101.529L72.5966 100.999H72.7965L72.671 102.877H69.2087C69.2087 102.566 69.2552 102.208 69.3482 101.803C69.4411 101.399 69.5991 101.032 69.8222 100.702L70.338 99.9259C70.5843 99.5634 70.7098 99.1731 70.7098 98.7548C70.7098 98.4946 70.6912 98.2715 70.654 98.0763L70.5983 97.7603C70.5518 97.5186 70.5239 97.3095 70.5239 97.1282C70.5239 96.7472 70.7005 96.5613 71.0537 96.5613C71.2722 96.5613 71.4441 96.6403 71.5742 96.7936H71.5649Z" fill="black"/>
</svg>
