<svg width="79" height="109" viewBox="0 0 79 109" fill="none" xmlns="http://www.w3.org/2000/svg">
<path d="M75.2164 0.0556641H3.42504C1.90047 0.0556641 0.664551 1.29158 0.664551 2.81615V105.531C0.664551 107.055 1.90047 108.291 3.42504 108.291H75.2164C76.741 108.291 77.9768 107.055 77.9768 105.531V2.81615C77.9768 1.29158 76.741 0.0556641 75.2164 0.0556641Z" fill="white"/>
<path d="M75.2162 108.342H3.4249C1.8727 108.342 0.608643 107.078 0.608643 105.526V2.81626C0.608643 1.26406 1.8727 0 3.4249 0H75.2162C76.7684 0 78.0325 1.26406 78.0325 2.81626V105.531C78.0325 107.083 76.7684 108.347 75.2162 108.347V108.342ZM3.42955 0.106888C1.93777 0.106888 0.720173 1.31983 0.720173 2.81161V105.531C0.720173 107.022 1.93312 108.235 3.42955 108.235H75.2209C76.7127 108.235 77.9256 107.022 77.9256 105.531V2.81626C77.9256 1.32448 76.7127 0.111535 75.2209 0.111535H3.42955V0.106888Z" fill="#65A7DD"/>
<path d="M69.9464 8.58814C69.9464 8.7322 69.8302 8.85303 69.6815 8.85303C69.5328 8.85303 69.4166 8.73685 69.4166 8.58814C69.4166 8.43942 69.5328 8.32324 69.6815 8.32324C69.8302 8.32324 69.9464 8.43942 69.9464 8.58814Z" fill="white"/>
<path d="M57.3428 8.58814C57.3428 8.7322 57.2266 8.85303 57.0779 8.85303C56.9292 8.85303 56.813 8.73685 56.813 8.58814C56.813 8.43942 56.9292 8.32324 57.0779 8.32324C57.2266 8.32324 57.3428 8.43942 57.3428 8.58814Z" fill="white"/>
<path d="M45.7432 8.58814C45.7432 8.7322 45.627 8.85303 45.4783 8.85303C45.3296 8.85303 45.2134 8.73685 45.2134 8.58814C45.2134 8.43942 45.3296 8.32324 45.4783 8.32324C45.627 8.32324 45.7432 8.43942 45.7432 8.58814Z" fill="white"/>
<path d="M34.1017 8.67188C34.1017 8.81594 33.9855 8.93677 33.8368 8.93677C33.6881 8.93677 33.5719 8.82059 33.5719 8.67188C33.5719 8.52316 33.6881 8.40698 33.8368 8.40698C33.9855 8.40698 34.1017 8.52316 34.1017 8.67188Z" fill="white"/>
<path d="M69.9464 18.4126C69.9464 18.5567 69.8302 18.6775 69.6815 18.6775C69.5328 18.6775 69.4166 18.5613 69.4166 18.4126C69.4166 18.2639 69.5328 18.1477 69.6815 18.1477C69.8302 18.1477 69.9464 18.2639 69.9464 18.4126Z" fill="white"/>
<path d="M69.9464 27.3772C69.9464 27.5213 69.8302 27.6421 69.6815 27.6421C69.5328 27.6421 69.4166 27.5259 69.4166 27.3772C69.4166 27.2285 69.5328 27.1123 69.6815 27.1123C69.8302 27.1123 69.9464 27.2285 69.9464 27.3772Z" fill="white"/>
<path d="M69.9464 36.7739C69.9464 36.918 69.8302 37.0388 69.6815 37.0388C69.5328 37.0388 69.4166 36.9226 69.4166 36.7739C69.4166 36.6252 69.5328 36.509 69.6815 36.509C69.8302 36.509 69.9464 36.6252 69.9464 36.7739Z" fill="white"/>
<path d="M69.9464 42.7131C69.9464 42.8572 69.8302 42.978 69.6815 42.978C69.5328 42.978 69.4166 42.8619 69.4166 42.7131C69.4166 42.5644 69.5328 42.4482 69.6815 42.4482C69.8302 42.4482 69.9464 42.5644 69.9464 42.7131Z" fill="white"/>
<path d="M69.9464 48.6758C69.9464 48.8198 69.8302 48.9407 69.6815 48.9407C69.5328 48.9407 69.4166 48.8245 69.4166 48.6758C69.4166 48.5271 69.5328 48.4109 69.6815 48.4109C69.8302 48.4109 69.9464 48.5271 69.9464 48.6758Z" fill="white"/>
<path d="M9.39683 8.85303C9.39683 8.9971 9.28068 9.11793 9.13196 9.11793C8.98325 9.11793 8.86707 9.00174 8.86707 8.85303C8.86707 8.70432 8.98325 8.58813 9.13196 8.58813C9.28068 8.58813 9.39683 8.70432 9.39683 8.85303Z" fill="white"/>
<path d="M22.1489 8.67188C22.1489 8.81594 22.0328 8.93677 21.884 8.93677C21.7353 8.93677 21.6191 8.82059 21.6191 8.67188C21.6191 8.52316 21.7353 8.40698 21.884 8.40698C22.0328 8.40698 22.1489 8.52316 22.1489 8.67188Z" fill="white"/>
<path d="M9.39683 18.2034C9.39683 18.3474 9.28068 18.4683 9.13196 18.4683C8.98325 18.4683 8.86707 18.3521 8.86707 18.2034C8.86707 18.0547 8.98325 17.9385 9.13196 17.9385C9.28068 17.9385 9.39683 18.0547 9.39683 18.2034Z" fill="white"/>
<path d="M9.39683 27.4421C9.39683 27.5862 9.28068 27.707 9.13196 27.707C8.98325 27.707 8.86707 27.5909 8.86707 27.4421C8.86707 27.2934 8.98325 27.1772 9.13196 27.1772C9.28068 27.1772 9.39683 27.2934 9.39683 27.4421Z" fill="white"/>
<path d="M9.39683 36.709C9.39683 36.8531 9.28068 36.9739 9.13196 36.9739C8.98325 36.9739 8.86707 36.8577 8.86707 36.709C8.86707 36.5603 8.98325 36.4441 9.13196 36.4441C9.28068 36.4441 9.39683 36.5603 9.39683 36.709Z" fill="white"/>
<path d="M9.39683 42.7131C9.39683 42.8572 9.28068 42.978 9.13196 42.978C8.98325 42.978 8.86707 42.8619 8.86707 42.7131C8.86707 42.5644 8.98325 42.4482 9.13196 42.4482C9.28068 42.4482 9.39683 42.5644 9.39683 42.7131Z" fill="white"/>
<path d="M9.39683 48.9407C9.39683 49.0847 9.28068 49.2056 9.13196 49.2056C8.98325 49.2056 8.86707 49.0894 8.86707 48.9407C8.86707 48.792 8.98325 48.6758 9.13196 48.6758C9.28068 48.6758 9.39683 48.792 9.39683 48.9407Z" fill="white"/>
<path d="M9.39683 54.9495C9.39683 55.0935 9.28068 55.2144 9.13196 55.2144C8.98325 55.2144 8.86707 55.0982 8.86707 54.9495C8.86707 54.8008 8.98325 54.6846 9.13196 54.6846C9.28068 54.6846 9.39683 54.8008 9.39683 54.9495Z" fill="white"/>
<path d="M9.39683 60.9585C9.39683 61.1026 9.28068 61.2234 9.13196 61.2234C8.98325 61.2234 8.86707 61.1072 8.86707 60.9585C8.86707 60.8098 8.98325 60.6936 9.13196 60.6936C9.28068 60.6936 9.39683 60.8098 9.39683 60.9585Z" fill="white"/>
<path d="M9.39683 67.1858C9.39683 67.3299 9.28068 67.4507 9.13196 67.4507C8.98325 67.4507 8.86707 67.3345 8.86707 67.1858C8.86707 67.0371 8.98325 66.9209 9.13196 66.9209C9.28068 66.9209 9.39683 67.0371 9.39683 67.1858Z" fill="white"/>
<path d="M9.39683 73.4273C9.39683 73.5713 9.28068 73.6922 9.13196 73.6922C8.98325 73.6922 8.86707 73.576 8.86707 73.4273C8.86707 73.2785 8.98325 73.1624 9.13196 73.1624C9.28068 73.1624 9.39683 73.2785 9.39683 73.4273Z" fill="white"/>
<path d="M9.39683 79.0039C9.39683 79.148 9.28068 79.2688 9.13196 79.2688C8.98325 79.2688 8.86707 79.1526 8.86707 79.0039C8.86707 78.8552 8.98325 78.739 9.13196 78.739C9.28068 78.739 9.39683 78.8552 9.39683 79.0039Z" fill="white"/>
<path d="M9.39683 85.2266C9.39683 85.3706 9.28068 85.4915 9.13196 85.4915C8.98325 85.4915 8.86707 85.3753 8.86707 85.2266C8.86707 85.0778 8.98325 84.9617 9.13196 84.9617C9.28068 84.9617 9.39683 85.0778 9.39683 85.2266Z" fill="white"/>
<path d="M9.39683 91.2913C9.39683 91.4353 9.28068 91.5562 9.13196 91.5562C8.98325 91.5562 8.86707 91.44 8.86707 91.2913C8.86707 91.1426 8.98325 91.0264 9.13196 91.0264C9.28068 91.0264 9.39683 91.1426 9.39683 91.2913Z" fill="white"/>
<path d="M9.50367 100.209C9.50367 100.354 9.38749 100.474 9.23878 100.474C9.09006 100.474 8.97388 100.358 8.97388 100.209C8.97388 100.061 9.09006 99.9446 9.23878 99.9446C9.38749 99.9446 9.50367 100.061 9.50367 100.209Z" fill="white"/>
<path d="M19.0445 100.47C19.0445 100.614 18.9284 100.735 18.7796 100.735C18.6309 100.735 18.5148 100.618 18.5148 100.47C18.5148 100.321 18.6309 100.205 18.7796 100.205C18.9284 100.205 19.0445 100.321 19.0445 100.47Z" fill="white"/>
<path d="M31.3366 100.47C31.3366 100.614 31.2204 100.735 31.0717 100.735C30.9229 100.735 30.8068 100.618 30.8068 100.47C30.8068 100.321 30.9229 100.205 31.0717 100.205C31.2204 100.205 31.3366 100.321 31.3366 100.47Z" fill="white"/>
<path d="M43.6054 100.47C43.6054 100.614 43.4891 100.735 43.3404 100.735C43.1917 100.735 43.0756 100.618 43.0756 100.47C43.0756 100.321 43.1917 100.205 43.3404 100.205C43.4891 100.205 43.6054 100.321 43.6054 100.47Z" fill="white"/>
<path d="M55.5584 100.47C55.5584 100.614 55.4422 100.735 55.2935 100.735C55.1448 100.735 55.0286 100.618 55.0286 100.47C55.0286 100.321 55.1448 100.205 55.2935 100.205C55.4422 100.205 55.5584 100.321 55.5584 100.47Z" fill="white"/>
<path d="M69.9464 54.8054C69.9464 54.9495 69.8302 55.0703 69.6815 55.0703C69.5328 55.0703 69.4166 54.9541 69.4166 54.8054C69.4166 54.6567 69.5328 54.5405 69.6815 54.5405C69.8302 54.5405 69.9464 54.6567 69.9464 54.8054Z" fill="white"/>
<path d="M69.9464 60.5356C69.9464 60.6797 69.8302 60.8005 69.6815 60.8005C69.5328 60.8005 69.4166 60.6844 69.4166 60.5356C69.4166 60.3869 69.5328 60.2708 69.6815 60.2708C69.8302 60.2708 69.9464 60.3869 69.9464 60.5356Z" fill="white"/>
<path d="M69.9464 66.7119C69.9464 66.856 69.8302 66.9768 69.6815 66.9768C69.5328 66.9768 69.4166 66.8606 69.4166 66.7119C69.4166 66.5632 69.5328 66.447 69.6815 66.447C69.8302 66.447 69.9464 66.5632 69.9464 66.7119Z" fill="white"/>
<path d="M69.9464 72.7998C69.9464 72.9439 69.8302 73.0647 69.6815 73.0647C69.5328 73.0647 69.4166 72.9485 69.4166 72.7998C69.4166 72.6511 69.5328 72.5349 69.6815 72.5349C69.8302 72.5349 69.9464 72.6511 69.9464 72.7998Z" fill="white"/>
<path d="M69.9464 78.7297C69.9464 78.8738 69.8302 78.9946 69.6815 78.9946C69.5328 78.9946 69.4166 78.8785 69.4166 78.7297C69.4166 78.581 69.5328 78.4648 69.6815 78.4648C69.8302 78.4648 69.9464 78.581 69.9464 78.7297Z" fill="white"/>
<path d="M69.9464 84.5713C69.9464 84.7154 69.8302 84.8362 69.6815 84.8362C69.5328 84.8362 69.4166 84.72 69.4166 84.5713C69.4166 84.4226 69.5328 84.3064 69.6815 84.3064C69.8302 84.3064 69.9464 84.4226 69.9464 84.5713Z" fill="white"/>
<path d="M69.9464 90.5386C69.9464 90.6826 69.8302 90.8035 69.6815 90.8035C69.5328 90.8035 69.4166 90.6873 69.4166 90.5386C69.4166 90.3899 69.5328 90.2737 69.6815 90.2737C69.8302 90.2737 69.9464 90.3899 69.9464 90.5386Z" fill="white"/>
<path d="M69.9464 99.6333C69.9464 99.7774 69.8302 99.8982 69.6815 99.8982C69.5328 99.8982 69.4166 99.782 69.4166 99.6333C69.4166 99.4846 69.5328 99.3684 69.6815 99.3684C69.8302 99.3684 69.9464 99.4846 69.9464 99.6333Z" fill="white"/>
<path d="M11.8227 15.8427C11.344 15.3175 10.6051 15.6289 10.6051 15.6289C10.8096 15.4105 10.949 15.2339 10.9211 14.8714C10.9211 14.8574 10.9211 14.8481 10.9211 14.8342C10.9211 14.2579 10.4564 13.7932 9.88014 13.7932C9.30388 13.7932 8.83915 14.2579 8.83915 14.8342C8.83915 14.9086 8.84844 14.9783 8.86238 15.0433C8.88562 15.2943 9.01109 15.443 9.1784 15.6242C9.1784 15.6242 8.43948 15.3129 7.96081 15.838C7.48214 16.3632 7.71915 16.9859 7.87251 17.1904C8.02587 17.3949 8.24895 17.7388 8.78339 17.6969C9.25741 17.6598 9.32712 17.5808 9.65243 17.3205C9.61525 18.0315 9.18305 18.5195 9.18305 18.5195H10.6051C10.3449 18.2453 10.1125 17.6133 10.1404 17.3252C10.4564 17.5808 10.5307 17.6598 11.0001 17.6923C11.5346 17.7341 11.7623 17.3902 11.911 17.1857C12.0644 16.9813 12.3014 16.3585 11.8227 15.8334V15.8427Z" fill="#151515"/>
<path d="M8.38368 11.9435C8.08161 11.8041 7.8353 11.6089 7.65406 11.3486C7.47281 11.0884 7.37988 10.7863 7.37988 10.4378C7.37988 10.0009 7.50535 9.65701 7.75166 9.4107C7.99797 9.1644 8.25822 9.00174 8.53705 8.92274V8.88556L8.43945 8.83909C8.11879 8.70896 7.87715 8.51378 7.70985 8.25353C7.54255 7.99328 7.45888 7.69585 7.45888 7.35195C7.45888 7.04058 7.55647 6.7571 7.74701 6.5015C7.93755 6.2459 8.18849 6.04607 8.49522 5.90665C8.80194 5.76723 9.12263 5.69287 9.45258 5.69287C9.86155 5.69287 10.2101 5.76723 10.4936 5.91594C10.7771 6.06465 10.9955 6.25519 11.1395 6.4922C11.2836 6.72922 11.358 6.98017 11.358 7.24507C11.358 7.57038 11.2557 7.84921 11.0466 8.08622C10.8375 8.32324 10.5958 8.50448 10.3216 8.62996V8.66714L10.5307 8.75079C11.2418 9.03892 11.595 9.49435 11.595 10.1124C11.595 10.4842 11.5113 10.8281 11.3394 11.1348C11.1674 11.4462 10.9165 11.6925 10.5819 11.8738C10.2473 12.055 9.8476 12.148 9.38752 12.148C9.03432 12.148 8.70436 12.0782 8.39764 11.9388L8.38368 11.9435ZM10.2844 11.6553C10.4936 11.5159 10.6469 11.3486 10.7399 11.1534C10.8328 10.9582 10.8793 10.7724 10.8793 10.6004C10.8793 10.2658 10.8049 10.0149 10.6562 9.8522C10.5075 9.68954 10.2937 9.55012 10.0102 9.43859L8.79265 8.99709C8.54634 9.09933 8.35581 9.26199 8.21639 9.48506C8.07697 9.70813 8.00726 10.0334 8.00726 10.461C8.00726 10.9443 8.15132 11.2975 8.4441 11.5252C8.73688 11.7529 9.07614 11.8691 9.46651 11.8691C9.79647 11.8691 10.066 11.7994 10.2798 11.66L10.2844 11.6553ZM10.6098 8.03975C10.7166 7.83062 10.7724 7.58432 10.7724 7.30083C10.7724 7.05453 10.712 6.83146 10.5911 6.62698C10.4703 6.42714 10.3077 6.26913 10.1078 6.15295C9.90801 6.03677 9.68494 5.981 9.44328 5.981C9.0715 5.981 8.75547 6.08789 8.49987 6.29702C8.24427 6.50615 8.11879 6.78498 8.11879 7.13818C8.11879 7.38913 8.17921 7.59361 8.30469 7.74233C8.43017 7.89104 8.6207 8.02116 8.8856 8.12805L10.0474 8.56954C10.3123 8.42548 10.4982 8.24888 10.6051 8.03511L10.6098 8.03975Z" fill="black"/>
<path d="M68.5429 92.8621C69.0216 93.3873 69.7605 93.0759 69.7605 93.0759C69.556 93.2943 69.4166 93.4709 69.4445 93.8334C69.4445 93.8474 69.4445 93.8567 69.4445 93.8706C69.4445 94.4469 69.9092 94.9116 70.4854 94.9116C71.0617 94.9116 71.5264 94.4469 71.5264 93.8706C71.5264 93.7963 71.5172 93.7265 71.5032 93.6615C71.48 93.4105 71.3545 93.2618 71.1872 93.0806C71.1872 93.0806 71.9261 93.3919 72.4048 92.8668C72.8834 92.3416 72.6465 91.7189 72.4931 91.5144C72.3397 91.3099 72.1166 90.966 71.5822 91.0079C71.1082 91.0451 71.0385 91.1241 70.7132 91.3843C70.7503 90.6733 71.1825 90.1853 71.1825 90.1853H69.7605C70.0207 90.4595 70.2531 91.0915 70.2252 91.3797C69.9092 91.1241 69.8348 91.0451 69.3654 91.0125C68.831 90.9707 68.6033 91.3146 68.4546 91.5191C68.3059 91.7236 68.0642 92.3463 68.5429 92.8714V92.8621Z" fill="#151515"/>
<path d="M71.9773 96.7658C72.2794 96.9052 72.5258 97.1004 72.707 97.3606C72.8882 97.6209 72.9812 97.9229 72.9812 98.2715C72.9812 98.7083 72.8557 99.0522 72.6094 99.2985C72.3631 99.5448 72.1028 99.7075 71.824 99.7865V99.8237L71.9216 99.8701C72.2422 100 72.4839 100.195 72.6512 100.456C72.8185 100.716 72.9022 101.013 72.9022 101.357C72.9022 101.669 72.8046 101.952 72.614 102.208C72.4235 102.463 72.1725 102.663 71.8658 102.803C71.5591 102.942 71.2385 103.016 70.9085 103.016C70.4995 103.016 70.151 102.942 69.8675 102.798C69.584 102.649 69.3656 102.459 69.2215 102.222C69.0775 101.985 69.0031 101.734 69.0031 101.469C69.0031 101.144 69.1053 100.865 69.3145 100.623C69.5236 100.386 69.7653 100.205 70.0395 100.079V100.042L69.8303 99.9584C69.1193 99.6703 68.7661 99.2149 68.7661 98.5968C68.7661 98.225 68.8497 97.8811 69.0217 97.5744C69.1936 97.263 69.4446 97.0167 69.7792 96.8355C70.1138 96.6496 70.5135 96.5613 70.9736 96.5613C71.3268 96.5613 71.6567 96.631 71.9635 96.7704L71.9773 96.7658ZM70.0766 97.0539C69.8675 97.1933 69.7141 97.3606 69.6212 97.5558C69.5283 97.751 69.4818 97.9369 69.4818 98.1088C69.4818 98.4434 69.5562 98.6944 69.7049 98.857C69.8536 99.0197 70.0673 99.1591 70.3508 99.2706L71.5684 99.7121C71.8147 99.6099 72.0053 99.4472 72.1447 99.2242C72.2841 99.0011 72.3538 98.6758 72.3538 98.2482C72.3538 97.7649 72.2097 97.4117 71.9169 97.184C71.6242 96.9563 71.2849 96.8401 70.8946 96.8401C70.5646 96.8401 70.2951 96.9098 70.0813 97.0492L70.0766 97.0539ZM69.7513 100.669C69.6444 100.879 69.5887 101.125 69.5887 101.408C69.5887 101.655 69.6491 101.878 69.7699 102.082C69.8907 102.282 70.0534 102.44 70.2532 102.556C70.4531 102.672 70.6762 102.728 70.9178 102.728C71.2896 102.728 71.6056 102.621 71.8612 102.412C72.1168 102.203 72.2423 101.924 72.2423 101.576C72.2423 101.325 72.1819 101.12 72.0564 100.972C71.9309 100.823 71.7404 100.693 71.4755 100.586L70.3136 100.144C70.0487 100.288 69.8629 100.465 69.756 100.679L69.7513 100.669Z" fill="black"/>
<path d="M46.0221 37.1689C44.3584 35.3518 41.807 36.43 41.807 36.43C42.5227 35.6678 42.9967 35.059 42.9084 33.8089C42.9084 33.7671 42.9084 33.7253 42.9084 33.6834C42.9084 31.6944 41.2958 30.0818 39.3068 30.0818C37.3178 30.0818 35.7051 31.6944 35.7051 33.6834C35.7051 33.9344 35.733 34.176 35.7795 34.4131C35.8632 35.2775 36.2907 35.8026 36.8763 36.43C36.8763 36.43 34.3202 35.3518 32.6611 37.1689C31.0021 38.986 31.8293 41.1377 32.3544 41.8487C32.8796 42.5551 33.6603 43.7448 35.5099 43.61C37.1458 43.4892 37.3875 43.2104 38.5121 42.3135C38.3774 44.7812 36.8809 46.4681 36.8809 46.4681H41.807C40.9008 45.5154 40.1014 43.3312 40.2037 42.3367C41.3051 43.215 41.5561 43.4892 43.1733 43.61C45.0183 43.7495 45.8037 42.5598 46.3288 41.8487C46.854 41.1423 47.6812 38.986 46.0221 37.1689Z" fill="#151515"/>
<path d="M28.7528 20.9314C27.0891 19.1143 24.5377 20.1924 24.5377 20.1924C25.2534 19.4303 25.7274 18.8215 25.6391 17.5714C25.6391 17.5295 25.6391 17.4877 25.6391 17.4459C25.6391 15.4568 24.0265 13.8442 22.0375 13.8442C20.0484 13.8442 18.4358 15.4568 18.4358 17.4459C18.4358 17.6968 18.4637 17.9431 18.5102 18.1755C18.5939 19.0399 19.0214 19.5651 19.607 20.1924C19.607 20.1924 17.0509 19.1143 15.3919 20.9314C13.7328 22.7484 14.56 24.9001 15.0852 25.6112C15.6103 26.3176 16.391 27.5073 18.2407 27.3725C19.8765 27.2517 20.1182 26.9728 21.2428 26.0759C21.108 28.5436 19.6116 30.2306 19.6116 30.2306H24.5377C23.6315 29.2779 22.8322 27.0937 22.9344 26.0991C24.0358 26.9775 24.2868 27.2517 25.904 27.3725C27.749 27.5119 28.5344 26.3222 29.0595 25.6112C29.5847 24.9048 30.4119 22.7484 28.7528 20.9314Z" fill="#151515"/>
<path d="M28.7528 53.4763C27.0891 51.6592 24.5377 52.7374 24.5377 52.7374C25.2534 51.9752 25.7274 51.3664 25.6391 50.1163C25.6391 50.0745 25.6391 50.0326 25.6391 49.9908C25.6391 48.0018 24.0265 46.3892 22.0375 46.3892C20.0484 46.3892 18.4358 48.0018 18.4358 49.9908C18.4358 50.2418 18.4637 50.4834 18.5102 50.7204C18.5939 51.5848 19.0214 52.11 19.607 52.7374C19.607 52.7374 17.0509 51.6592 15.3919 53.4763C13.7328 55.2934 14.56 57.4451 15.0852 58.1561C15.6103 58.8625 16.391 60.0522 18.2407 59.9174C19.8765 59.7966 20.1182 59.5178 21.2428 58.6208C21.108 61.0885 19.6116 62.7755 19.6116 62.7755H24.5377C23.6315 61.8228 22.8322 59.6386 22.9344 58.6441C24.0358 59.5224 24.2868 59.7966 25.904 59.9174C27.749 60.0568 28.5344 58.8671 29.0595 58.1561C29.5847 57.4497 30.4119 55.2934 28.7528 53.4763Z" fill="#151515"/>
<path d="M28.7528 87.922C27.0891 89.7391 24.5377 88.661 24.5377 88.661C25.2534 89.4231 25.7274 90.0319 25.6391 91.282C25.6391 91.3238 25.6391 91.3657 25.6391 91.4075C25.6391 93.3965 24.0265 95.0091 22.0375 95.0091C20.0484 95.0091 18.4358 93.3965 18.4358 91.4075C18.4358 91.1565 18.4637 90.9149 18.5102 90.6779C18.5939 89.8135 19.0214 89.2883 19.607 88.661C19.607 88.661 17.0509 89.7391 15.3919 87.922C13.7328 86.1049 14.56 83.9532 15.0852 83.2422C15.6103 82.5358 16.391 81.3461 18.2407 81.4809C19.8765 81.6017 20.1182 81.8806 21.2428 82.7775C21.108 80.3098 19.6116 78.6228 19.6116 78.6228H24.5377C23.6315 79.5755 22.8322 81.7597 22.9344 82.7542C24.0358 81.8759 24.2868 81.6017 25.904 81.4809C27.749 81.3415 28.5344 82.5312 29.0595 83.2422C29.5847 83.9486 30.4119 86.1049 28.7528 87.922Z" fill="#151515"/>
<path d="M65.1133 20.9314C63.4496 19.1143 60.8982 20.1924 60.8982 20.1924C61.6139 19.4303 62.0879 18.8215 61.9996 17.5714C61.9996 17.5295 61.9996 17.4877 61.9996 17.4459C61.9996 15.4568 60.387 13.8442 58.3979 13.8442C56.4089 13.8442 54.7963 15.4568 54.7963 17.4459C54.7963 17.6968 54.8242 17.9431 54.8707 18.1755C54.9543 19.0399 55.3819 19.5651 55.9674 20.1924C55.9674 20.1924 53.4114 19.1143 51.7523 20.9314C50.0933 22.7484 50.9205 24.9001 51.4456 25.6112C51.9708 26.3176 52.7515 27.5073 54.6011 27.3725C56.237 27.2517 56.4786 26.9728 57.6033 26.0759C57.4685 28.5436 55.9721 30.2306 55.9721 30.2306H60.8982C59.992 29.2779 59.1926 27.0937 59.2949 26.0991C60.3963 26.9775 60.6473 27.2517 62.2645 27.3725C64.1095 27.5119 64.8948 26.3222 65.42 25.6112C65.9451 24.9048 66.7724 22.7484 65.1133 20.9314Z" fill="#151515"/>
<path d="M65.1133 53.4763C63.4496 51.6592 60.8982 52.7374 60.8982 52.7374C61.6139 51.9752 62.0879 51.3664 61.9996 50.1163C61.9996 50.0745 61.9996 50.0326 61.9996 49.9908C61.9996 48.0018 60.387 46.3892 58.3979 46.3892C56.4089 46.3892 54.7963 48.0018 54.7963 49.9908C54.7963 50.2418 54.8242 50.4834 54.8707 50.7204C54.9543 51.5848 55.3819 52.11 55.9674 52.7374C55.9674 52.7374 53.4114 51.6592 51.7523 53.4763C50.0933 55.2934 50.9205 57.4451 51.4456 58.1561C51.9708 58.8625 52.7515 60.0522 54.6011 59.9174C56.237 59.7966 56.4786 59.5178 57.6033 58.6208C57.4685 61.0885 55.9721 62.7755 55.9721 62.7755H60.8982C59.992 61.8228 59.1926 59.6386 59.2949 58.6441C60.3963 59.5224 60.6473 59.7966 62.2645 59.9174C64.1095 60.0568 64.8948 58.8671 65.42 58.1561C65.9451 57.4497 66.7724 55.2934 65.1133 53.4763Z" fill="#151515"/>
<path d="M65.1133 87.922C63.4496 89.7391 60.8982 88.661 60.8982 88.661C61.6139 89.4231 62.0879 90.0319 61.9996 91.282C61.9996 91.3238 61.9996 91.3657 61.9996 91.4075C61.9996 93.3965 60.387 95.0091 58.3979 95.0091C56.4089 95.0091 54.7963 93.3965 54.7963 91.4075C54.7963 91.1565 54.8242 90.9149 54.8707 90.6779C54.9543 89.8135 55.3819 89.2883 55.9674 88.661C55.9674 88.661 53.4114 89.7391 51.7523 87.922C50.0933 86.1049 50.9205 83.9532 51.4456 83.2422C51.9708 82.5358 52.7515 81.3461 54.6011 81.4809C56.237 81.6017 56.4786 81.8806 57.6033 82.7775C57.4685 80.3098 55.9721 78.6228 55.9721 78.6228H60.8982C59.992 79.5755 59.1926 81.7597 59.2949 82.7542C60.3963 81.8759 60.6473 81.6017 62.2645 81.4809C64.1095 81.3415 64.8948 82.5312 65.42 83.2422C65.9451 83.9486 66.7724 86.1049 65.1133 87.922Z" fill="#151515"/>
<path d="M46.0222 70.7316C44.3585 72.5487 41.8071 71.4705 41.8071 71.4705C42.5228 72.2327 42.9968 72.8415 42.9085 74.0916C42.9085 74.1334 42.9085 74.1752 42.9085 74.2171C42.9085 76.2061 41.2959 77.8187 39.3069 77.8187C37.3178 77.8187 35.7052 76.2061 35.7052 74.2171C35.7052 73.9661 35.7331 73.7245 35.7796 73.4874C35.8633 72.623 36.2908 72.0979 36.8764 71.4705C36.8764 71.4705 34.3203 72.5487 32.6612 70.7316C30.9975 68.9145 31.8294 66.7628 32.3545 66.0518C32.8797 65.3454 33.6604 64.1557 35.51 64.2905C37.1459 64.4113 37.3876 64.6901 38.5122 65.5871C38.3774 63.1193 36.881 61.4324 36.881 61.4324H41.8071C40.9009 62.3851 40.1015 64.5693 40.2038 65.5638C41.3052 64.6855 41.5561 64.4113 43.1734 64.2905C45.0184 64.151 45.8038 65.3407 46.3289 66.0518C46.8541 66.7582 47.6813 68.9145 46.0222 70.7316Z" fill="#151515"/>
</svg>
