<svg width="79" height="109" viewBox="0 0 79 109" fill="none" xmlns="http://www.w3.org/2000/svg">
<path d="M3.52572 0.0556641H75.2985C76.8228 0.0556641 78.0589 1.29184 78.0589 2.81615V105.531C78.0589 107.055 76.8228 108.291 75.2985 108.291H3.52572C2.00141 108.291 0.765259 107.055 0.765259 105.531V2.81615C0.765259 1.29184 2.00141 0.0556641 3.52572 0.0556641Z" fill="white"/>
<path d="M75.3031 108.342H3.53033C1.97813 108.342 0.71875 107.078 0.71875 105.526V2.81626C0.71875 1.26406 1.98278 0 3.53033 0H75.3031C76.8553 0 78.1147 1.26406 78.1147 2.81626V105.531C78.1147 107.083 76.8506 108.347 75.3031 108.347V108.342ZM3.52567 0.106888C2.03389 0.106888 0.820977 1.31983 0.820977 2.81161V105.531C0.820977 107.022 2.03389 108.235 3.52567 108.235H75.2984C76.7902 108.235 78.0031 107.022 78.0031 105.531V2.81626C78.0031 1.32448 76.7902 0.111535 75.2984 0.111535H3.52567V0.106888Z" fill="#65A7DD"/>
<path d="M10.771 15.5407C10.2923 15.0155 9.55338 15.3269 9.55338 15.3269C9.75786 15.1085 9.89724 14.9319 9.86936 14.5694C9.86936 14.5554 9.86936 14.5461 9.86936 14.5322C9.86936 13.9559 9.40464 13.4912 8.82837 13.4912C8.25211 13.4912 7.78738 13.9559 7.78738 14.5322C7.78738 14.6066 7.7967 14.6763 7.81064 14.7413C7.83388 14.9923 7.95932 15.141 8.12663 15.3222C8.12663 15.3222 7.38771 15.0109 6.90904 15.536C6.43037 16.0612 6.66741 16.6839 6.82077 16.8884C6.97413 17.0929 7.19718 17.4368 7.73162 17.3949C8.20564 17.3578 8.27534 17.2788 8.59601 17.0185C8.55883 17.7295 8.12663 18.2175 8.12663 18.2175H9.54872C9.28848 17.9433 9.05611 17.3113 9.084 17.0232C9.40001 17.2788 9.47436 17.3578 9.94373 17.3903C10.4782 17.4321 10.7059 17.0882 10.8546 16.8837C11.0033 16.6793 11.245 16.0565 10.7663 15.5314L10.771 15.5407Z" fill="#151515"/>
<path d="M6.97871 11.4138C6.89041 11.3069 6.82533 11.1861 6.7835 11.0513C6.74633 10.9212 6.72309 10.8003 6.72309 10.6981C6.72309 10.489 6.79744 10.317 6.9508 10.1823C7.05769 10.094 7.18319 10.0475 7.32261 10.0475C7.46202 10.0475 7.56889 10.1032 7.64789 10.2101C7.67578 10.252 7.69902 10.2891 7.70831 10.3263C7.7176 10.3635 7.72227 10.41 7.72227 10.4704C7.72227 10.5587 7.68509 10.6516 7.60608 10.7399C7.55032 10.8003 7.49455 10.8515 7.43414 10.8933C7.37837 10.9305 7.34119 10.9676 7.32261 11.0048C7.29937 11.042 7.29004 11.0885 7.29004 11.1442C7.29004 11.2511 7.35047 11.3487 7.47595 11.4277C7.59678 11.5067 7.78735 11.5486 8.03831 11.5486C8.25673 11.5486 8.46119 11.4835 8.65638 11.358C8.85156 11.2325 9.01419 11.0234 9.14896 10.726C9.2512 10.5029 9.3302 10.2241 9.38132 9.88482C9.43709 9.54557 9.46035 9.26209 9.46035 9.04366V8.63935L9.39528 8.61147C9.28839 8.83918 9.12111 9.02972 8.89339 9.17379C8.67032 9.3225 8.45188 9.39686 8.23811 9.39686C7.83379 9.39686 7.49457 9.29927 7.22038 9.09943C6.98801 8.93213 6.80675 8.70441 6.68128 8.41628C6.5558 8.1328 6.49072 7.82607 6.49072 7.50076C6.49072 7.17545 6.56507 6.85014 6.70913 6.52019C6.8532 6.19023 7.06703 5.92069 7.34586 5.70226C7.6247 5.48384 7.95466 5.37695 8.33109 5.37695C8.70752 5.37695 9.06535 5.49778 9.36277 5.73944C9.6602 5.9811 9.89255 6.325 10.0506 6.77114C10.2132 7.21728 10.2922 7.74707 10.2922 8.35587C10.2922 8.84848 10.2272 9.3318 10.1017 9.80582C9.9762 10.2798 9.79034 10.6749 9.55333 10.9862C9.11648 11.5532 8.6006 11.832 8.0104 11.832C7.58284 11.832 7.23895 11.688 6.97406 11.3998L6.97871 11.4138ZM8.79116 8.86242C8.95847 8.723 9.09323 8.52782 9.19082 8.27221C9.28842 8.01661 9.33951 7.72383 9.33951 7.39388C9.33951 6.89662 9.26051 6.48301 9.10715 6.16235C8.94914 5.84168 8.69358 5.67903 8.33109 5.67903C7.9686 5.67903 7.69901 5.85562 7.53171 6.20417C7.36441 6.55272 7.28545 6.94774 7.28545 7.39388C7.28545 7.87719 7.35979 8.27686 7.50386 8.59288C7.64792 8.91354 7.88955 9.07155 8.22415 9.07155C8.43328 9.07155 8.62386 9.00184 8.79116 8.86242Z" fill="black"/>
<path d="M67.4772 92.5555C67.9559 93.0806 68.6948 92.7693 68.6948 92.7693C68.4903 92.9877 68.3509 93.1643 68.3788 93.5268C68.3788 93.5407 68.3788 93.55 68.3788 93.564C68.3788 94.1402 68.8435 94.605 69.4198 94.605C69.9961 94.605 70.4608 94.1402 70.4608 93.564C70.4608 93.4896 70.4515 93.4199 70.4375 93.3548C70.4143 93.1039 70.2889 92.9552 70.1216 92.7739C70.1216 92.7739 70.8605 93.0853 71.3391 92.5601C71.8178 92.035 71.5808 91.4123 71.4274 91.2078C71.274 91.0033 71.051 90.6594 70.5166 90.7012C70.0425 90.7384 69.9728 90.8174 69.6475 91.0777C69.6847 90.3666 70.1169 89.8787 70.1169 89.8787H68.6948C68.955 90.1529 69.1874 90.7849 69.1595 91.073C68.8435 90.8174 68.7692 90.7384 68.2998 90.7059C67.7654 90.6641 67.5377 91.008 67.3889 91.2124C67.2402 91.4169 66.9985 92.0397 67.4772 92.5648V92.5555Z" fill="#151515"/>
<path d="M71.2693 96.6868C71.3576 96.7937 71.4227 96.9145 71.4645 97.0493C71.5017 97.1794 71.525 97.3003 71.525 97.4025C71.525 97.6116 71.4506 97.7836 71.2972 97.9183C71.1904 98.0066 71.0649 98.0531 70.9254 98.0531C70.786 98.0531 70.6792 97.9973 70.6001 97.8905C70.5723 97.8486 70.549 97.8115 70.5397 97.7743C70.5304 97.7371 70.5258 97.6906 70.5258 97.6302C70.5258 97.5419 70.563 97.449 70.642 97.3607C70.6977 97.3003 70.7535 97.2491 70.8139 97.2073C70.8697 97.1701 70.9068 97.1329 70.9254 97.0958C70.9487 97.0586 70.9579 97.0121 70.9579 96.9564C70.9579 96.8495 70.8976 96.7519 70.7721 96.6729C70.6513 96.5939 70.4607 96.552 70.2097 96.552C69.9913 96.552 69.7869 96.6171 69.5917 96.7426C69.3965 96.8681 69.2338 97.0772 69.099 97.3746C68.9968 97.5977 68.9178 97.8765 68.8667 98.2158C68.8109 98.555 68.7877 98.8385 68.7877 99.0569V99.4612L68.8528 99.4891C68.9597 99.2614 69.1269 99.0709 69.3546 98.9268C69.5777 98.7781 69.7962 98.7037 70.0099 98.7037C70.4142 98.7037 70.7535 98.8013 71.0277 99.0012C71.26 99.1685 71.4413 99.3962 71.5668 99.6843C71.6922 99.9678 71.7573 100.275 71.7573 100.6C71.7573 100.925 71.6829 101.25 71.5389 101.58C71.3948 101.91 71.181 102.18 70.9022 102.398C70.6233 102.617 70.2934 102.724 69.917 102.724C69.5405 102.724 69.1827 102.603 68.8853 102.361C68.5878 102.119 68.3555 101.776 68.1975 101.329C68.0348 100.883 67.9558 100.354 67.9558 99.7447C67.9558 99.2521 68.0209 98.7688 68.1464 98.2948C68.2718 97.8207 68.4577 97.4257 68.6947 97.1144C69.1316 96.5474 69.6474 96.2686 70.2376 96.2686C70.6652 96.2686 71.0091 96.4126 71.274 96.7008L71.2693 96.6868ZM69.4569 99.2382C69.2896 99.3776 69.1548 99.5728 69.0572 99.8284C68.9596 100.084 68.9085 100.377 68.9085 100.707C68.9085 101.204 68.9875 101.618 69.1409 101.938C69.2989 102.259 69.5545 102.422 69.917 102.422C70.2794 102.422 70.549 102.245 70.7163 101.896C70.8836 101.548 70.9626 101.153 70.9626 100.707C70.9626 100.223 70.8883 99.8237 70.7442 99.5077C70.6001 99.1871 70.3585 99.029 70.0239 99.029C69.8148 99.029 69.6242 99.0988 69.4569 99.2382Z" fill="black"/>
<path d="M45.491 54.0434C43.8272 52.2263 41.2758 53.3045 41.2758 53.3045C41.9915 52.5423 42.4655 51.9335 42.3772 50.6834C42.3772 50.6416 42.3772 50.5998 42.3772 50.5579C42.3772 48.5689 40.7646 46.9563 38.7756 46.9563C36.7865 46.9563 35.1739 48.5689 35.1739 50.5579C35.1739 50.8089 35.2018 51.0552 35.2483 51.2876C35.332 52.152 35.7595 52.6771 36.3451 53.3045C36.3451 53.3045 33.7891 52.2263 32.13 54.0434C30.4663 55.8605 31.2981 58.0122 31.8233 58.7232C32.3484 59.4343 33.1292 60.6193 34.9788 60.4846C36.6146 60.3637 36.8563 60.0849 37.9763 59.188C37.8415 61.6557 36.3451 63.3426 36.3451 63.3426H41.2666C40.3604 62.3899 39.561 60.2057 39.6632 59.2112C40.7646 60.0895 41.0156 60.3637 42.6329 60.4846C44.4778 60.624 45.2632 59.4343 45.7884 58.7232C46.3135 58.0168 47.1407 55.8605 45.4816 54.0434H45.491Z" fill="#151515"/>
<path d="M27.7895 18.9099C26.1258 17.0928 23.5744 18.1709 23.5744 18.1709C24.2901 17.4088 24.7641 16.8 24.6758 15.5499C24.6758 15.5081 24.6758 15.4662 24.6758 15.4244C24.6758 13.4354 23.0632 11.8228 21.0742 11.8228C19.0851 11.8228 17.4725 13.4354 17.4725 15.4244C17.4725 15.6754 17.5004 15.9217 17.5469 16.154C17.6305 17.0184 18.0581 17.5436 18.6436 18.1709C18.6436 18.1709 16.0877 17.0928 14.4286 18.9099C12.7648 20.727 13.5967 22.8787 14.1218 23.5897C14.647 24.3007 15.4277 25.4858 17.2774 25.351C18.9132 25.2302 19.1549 24.9513 20.2748 24.0544C20.1401 26.5221 18.6436 28.2091 18.6436 28.2091H23.5651C22.6589 27.2564 21.8596 25.0722 21.9618 24.0777C23.0586 24.956 23.3142 25.2302 24.9314 25.351C26.7764 25.4904 27.5618 24.3007 28.0869 23.5897C28.6121 22.8833 29.4393 20.727 27.7802 18.9099H27.7895Z" fill="#151515"/>
<path d="M27.7895 42.2207C26.1258 40.4036 23.5744 41.4817 23.5744 41.4817C24.2901 40.7196 24.7641 40.1108 24.6758 38.8607C24.6758 38.8188 24.6758 38.777 24.6758 38.7352C24.6758 36.7462 23.0632 35.1335 21.0742 35.1335C19.0851 35.1335 17.4725 36.7462 17.4725 38.7352C17.4725 38.9861 17.5004 39.2325 17.5469 39.4648C17.6305 40.3292 18.0581 40.8544 18.6436 41.4817C18.6436 41.4817 16.0877 40.4036 14.4286 42.2207C12.7648 44.0378 13.5967 46.1894 14.1218 46.9005C14.647 47.6069 15.4277 48.7966 17.2774 48.6618C18.9132 48.541 19.1549 48.2621 20.2748 47.3652C20.1401 49.8329 18.6436 51.5199 18.6436 51.5199H23.5651C22.6589 50.5672 21.8596 48.383 21.9618 47.3884C23.0586 48.2668 23.3142 48.541 24.9314 48.6618C26.7764 48.8012 27.5618 47.6115 28.0869 46.9005C28.6121 46.1941 29.4393 44.0378 27.7802 42.2207H27.7895Z" fill="#151515"/>
<path d="M27.7895 91.0543C26.1258 92.8714 23.5744 91.7933 23.5744 91.7933C24.2901 92.5554 24.7641 93.1642 24.6758 94.4143C24.6758 94.4562 24.6758 94.498 24.6758 94.5398C24.6758 96.5289 23.0632 98.1415 21.0742 98.1415C19.0851 98.1415 17.4725 96.5289 17.4725 94.5398C17.4725 94.2889 17.5004 94.0472 17.5469 93.8102C17.6305 92.9458 18.0581 92.4207 18.6436 91.7933C18.6436 91.7933 16.0877 92.8714 14.4286 91.0543C12.7648 89.2373 13.5967 87.0856 14.1218 86.3745C14.647 85.6635 15.4277 84.4784 17.2774 84.6132C18.9132 84.734 19.1549 85.0129 20.2748 85.9098C20.1401 83.4421 18.6436 81.7551 18.6436 81.7551H23.5651C22.6589 82.7078 21.8596 84.892 21.9618 85.8866C23.0586 85.0082 23.3142 84.734 24.9314 84.6132C26.7764 84.4738 27.5618 85.6635 28.0869 86.3745C28.6121 87.0809 29.4393 89.2373 27.7802 91.0543H27.7895Z" fill="#151515"/>
<path d="M64.1498 18.9099C62.486 17.0928 59.9346 18.1709 59.9346 18.1709C60.6503 17.4088 61.1243 16.8 61.036 15.5499C61.036 15.5081 61.036 15.4662 61.036 15.4244C61.036 13.4354 59.4234 11.8228 57.4344 11.8228C55.4454 11.8228 53.8327 13.4354 53.8327 15.4244C53.8327 15.6754 53.8606 15.9217 53.9071 16.154C53.9908 17.0184 54.4183 17.5436 55.0039 18.1709C55.0039 18.1709 52.4479 17.0928 50.7888 18.9099C49.1251 20.727 49.9569 22.8787 50.4821 23.5897C51.0072 24.3007 51.788 25.4858 53.6376 25.351C55.2734 25.2302 55.5151 24.9513 56.6351 24.0544C56.5003 26.5221 55.0039 28.2091 55.0039 28.2091H59.9253C59.0191 27.2564 58.2198 25.0722 58.322 24.0777C59.4188 24.956 59.6744 25.2302 61.2917 25.351C63.1366 25.4904 63.9221 24.3007 64.4472 23.5897C64.9723 22.8787 65.7995 20.727 64.1405 18.9099H64.1498Z" fill="#151515"/>
<path d="M64.1498 42.2207C62.486 40.4036 59.9346 41.4817 59.9346 41.4817C60.6503 40.7196 61.1243 40.1108 61.036 38.8607C61.036 38.8188 61.036 38.777 61.036 38.7352C61.036 36.7462 59.4234 35.1335 57.4344 35.1335C55.4454 35.1335 53.8327 36.7462 53.8327 38.7352C53.8327 38.9861 53.8606 39.2325 53.9071 39.4648C53.9908 40.3292 54.4183 40.8544 55.0039 41.4817C55.0039 41.4817 52.4479 40.4036 50.7888 42.2207C49.1251 44.0378 49.9569 46.1894 50.4821 46.9005C51.0072 47.6069 51.788 48.7966 53.6376 48.6618C55.2734 48.541 55.5151 48.2621 56.6351 47.3652C56.5003 49.8329 55.0039 51.5199 55.0039 51.5199H59.9253C59.0191 50.5672 58.2198 48.383 58.322 47.3884C59.4188 48.2668 59.6744 48.541 61.2917 48.6618C63.1366 48.8012 63.9221 47.6115 64.4472 46.9005C64.9723 46.1941 65.7995 44.0378 64.1405 42.2207H64.1498Z" fill="#151515"/>
<path d="M64.1498 91.0543C62.486 92.8714 59.9346 91.7933 59.9346 91.7933C60.6503 92.5554 61.1243 93.1642 61.036 94.4143C61.036 94.4562 61.036 94.498 61.036 94.5398C61.036 96.5289 59.4234 98.1415 57.4344 98.1415C55.4454 98.1415 53.8327 96.5289 53.8327 94.5398C53.8327 94.2889 53.8606 94.0472 53.9071 93.8102C53.9908 92.9458 54.4183 92.4207 55.0039 91.7933C55.0039 91.7933 52.4479 92.8714 50.7888 91.0543C49.1251 89.2373 49.9569 87.0856 50.4821 86.3745C51.0072 85.6635 51.788 84.4784 53.6376 84.6132C55.2734 84.734 55.5151 85.0129 56.6351 85.9098C56.5003 83.4421 55.0039 81.7551 55.0039 81.7551H59.9253C59.0191 82.7078 58.2198 84.892 58.322 85.8866C59.4188 85.0082 59.6744 84.734 61.2917 84.6132C63.1366 84.4738 63.9221 85.6635 64.4472 86.3745C64.9723 87.0856 65.7995 89.2373 64.1405 91.0543H64.1498Z" fill="#151515"/>
<path d="M27.7895 67.7389C26.1258 69.556 23.5744 68.4778 23.5744 68.4778C24.2901 69.24 24.7641 69.8488 24.6758 71.0989C24.6758 71.1407 24.6758 71.1826 24.6758 71.2244C24.6758 73.2134 23.0632 74.826 21.0742 74.826C19.0851 74.826 17.4725 73.2134 17.4725 71.2244C17.4725 70.9734 17.5004 70.7271 17.5469 70.4948C17.6305 69.6304 18.0581 69.1052 18.6436 68.4778C18.6436 68.4778 16.0877 69.556 14.4286 67.7389C12.7648 65.9218 13.5967 63.7701 14.1218 63.0591C14.647 62.3527 15.4277 61.163 17.2774 61.2978C18.9132 61.4186 19.1549 61.6974 20.2748 62.5944C20.1401 60.1267 18.6436 58.4397 18.6436 58.4397H23.5651C22.6589 59.3924 21.8596 61.5766 21.9618 62.5711C23.0586 61.6928 23.3142 61.4186 24.9314 61.2978C26.7764 61.1584 27.5618 62.3481 28.0869 63.0591C28.6121 63.7655 29.4393 65.9218 27.7802 67.7389H27.7895Z" fill="#151515"/>
<path d="M64.1498 67.7389C62.486 69.556 59.9346 68.4778 59.9346 68.4778C60.6503 69.24 61.1243 69.8488 61.036 71.0989C61.036 71.1407 61.036 71.1826 61.036 71.2244C61.036 73.2134 59.4234 74.826 57.4344 74.826C55.4454 74.826 53.8327 73.2134 53.8327 71.2244C53.8327 70.9734 53.8606 70.7271 53.9071 70.4948C53.9908 69.6304 54.4183 69.1052 55.0039 68.4778C55.0039 68.4778 52.4479 69.556 50.7888 67.7389C49.1251 65.9218 49.9569 63.7701 50.4821 63.0591C51.0072 62.3527 51.788 61.163 53.6376 61.2978C55.2734 61.4186 55.5151 61.6974 56.6351 62.5944C56.5003 60.1267 55.0039 58.4397 55.0039 58.4397H59.9253C59.0191 59.3924 58.2198 61.5766 58.322 62.5711C59.4188 61.6928 59.6744 61.4186 61.2917 61.2978C63.1366 61.1584 63.9221 62.3481 64.4472 63.0591C64.9723 63.7655 65.7995 65.9218 64.1405 67.7389H64.1498Z" fill="#151515"/>
</svg>
