<svg width="78" height="110" viewBox="0 0 78 110" fill="none" xmlns="http://www.w3.org/2000/svg">
<path d="M2.81164 0.966797H74.5565C76.0808 0.966797 77.317 2.20298 77.317 3.72729V106.418C77.317 107.943 76.0808 109.179 74.5565 109.179H2.81164C1.28733 109.179 0.0511475 107.943 0.0511475 106.418V3.72729C0.0511475 2.20298 1.28733 0.966797 2.81164 0.966797Z" fill="white"/>
<path d="M74.5565 109.23H2.81161C1.25942 109.23 0 107.971 0 106.419V3.73201C0 2.17982 1.25942 0.92041 2.81161 0.92041H74.5565C76.1087 0.92041 77.3681 2.18447 77.3681 3.73201V106.419C77.3681 107.971 76.1087 109.23 74.5565 109.23ZM2.81161 1.02267C1.31983 1.02267 0.106888 2.23561 0.106888 3.72739V106.414C0.106888 107.906 1.31983 109.119 2.81161 109.119H74.5565C76.0482 109.119 77.2612 107.906 77.2612 106.414V3.72739C77.2612 2.23561 76.0482 1.02267 74.5565 1.02267H2.81161Z" fill="#65A7DD"/>
<path d="M69.0261 9.76417C69.1724 9.76417 69.291 9.64557 69.291 9.49927C69.291 9.35298 69.1724 9.23438 69.0261 9.23438C68.8798 9.23438 68.7612 9.35298 68.7612 9.49927C68.7612 9.64557 68.8798 9.76417 69.0261 9.76417Z" fill="white"/>
<path d="M56.4274 9.76417C56.5737 9.76417 56.6923 9.64557 56.6923 9.49927C56.6923 9.35298 56.5737 9.23438 56.4274 9.23438C56.2811 9.23438 56.1625 9.35298 56.1625 9.49927C56.1625 9.64557 56.2811 9.76417 56.4274 9.76417Z" fill="white"/>
<path d="M44.837 9.76417C44.9833 9.76417 45.1019 9.64557 45.1019 9.49927C45.1019 9.35298 44.9833 9.23438 44.837 9.23438C44.6907 9.23438 44.5721 9.35298 44.5721 9.49927C44.5721 9.64557 44.6907 9.76417 44.837 9.76417Z" fill="white"/>
<path d="M33.2048 9.85255C33.3511 9.85255 33.4697 9.73395 33.4697 9.58765C33.4697 9.44136 33.3511 9.32275 33.2048 9.32275C33.0585 9.32275 32.9399 9.44136 32.9399 9.58765C32.9399 9.73395 33.0585 9.85255 33.2048 9.85255Z" fill="white"/>
<path d="M69.0261 19.5884C69.1724 19.5884 69.291 19.4698 69.291 19.3235C69.291 19.1772 69.1724 19.0586 69.0261 19.0586C68.8798 19.0586 68.7612 19.1772 68.7612 19.3235C68.7612 19.4698 68.8798 19.5884 69.0261 19.5884Z" fill="white"/>
<path d="M69.0261 28.5532C69.1724 28.5532 69.291 28.4346 69.291 28.2883C69.291 28.142 69.1724 28.0234 69.0261 28.0234C68.8798 28.0234 68.7612 28.142 68.7612 28.2883C68.7612 28.4346 68.8798 28.5532 69.0261 28.5532Z" fill="white"/>
<path d="M69.0261 37.9453C69.1724 37.9453 69.291 37.8267 69.291 37.6804C69.291 37.5341 69.1724 37.4155 69.0261 37.4155C68.8798 37.4155 68.7612 37.5341 68.7612 37.6804C68.7612 37.8267 68.8798 37.9453 69.0261 37.9453Z" fill="white"/>
<path d="M69.0261 43.8848C69.1724 43.8848 69.291 43.7662 69.291 43.6199C69.291 43.4736 69.1724 43.355 69.0261 43.355C68.8798 43.355 68.7612 43.4736 68.7612 43.6199C68.7612 43.7662 68.8798 43.8848 69.0261 43.8848Z" fill="white"/>
<path d="M69.0261 49.8472C69.1724 49.8472 69.291 49.7286 69.291 49.5823C69.291 49.436 69.1724 49.3174 69.0261 49.3174C68.8798 49.3174 68.7612 49.436 68.7612 49.5823C68.7612 49.7286 68.8798 49.8472 69.0261 49.8472Z" fill="white"/>
<path d="M8.5138 10.0293C8.66009 10.0293 8.77869 9.91071 8.77869 9.76441C8.77869 9.61811 8.66009 9.49951 8.5138 9.49951C8.3675 9.49951 8.2489 9.61811 8.2489 9.76441C8.2489 9.91071 8.3675 10.0293 8.5138 10.0293Z" fill="white"/>
<path d="M21.5216 9.58765C21.5216 9.73172 21.4054 9.85255 21.2567 9.85255C21.108 9.85255 20.9918 9.73637 20.9918 9.58765C20.9918 9.43894 21.108 9.32275 21.2567 9.32275C21.4054 9.32275 21.5216 9.43894 21.5216 9.58765Z" fill="white"/>
<path d="M8.5138 19.3794C8.66009 19.3794 8.77869 19.2608 8.77869 19.1145C8.77869 18.9682 8.66009 18.8496 8.5138 18.8496C8.3675 18.8496 8.2489 18.9682 8.2489 19.1145C8.2489 19.2608 8.3675 19.3794 8.5138 19.3794Z" fill="white"/>
<path d="M8.5138 28.6138C8.66009 28.6138 8.77869 28.4952 8.77869 28.3489C8.77869 28.2026 8.66009 28.084 8.5138 28.084C8.3675 28.084 8.2489 28.2026 8.2489 28.3489C8.2489 28.4952 8.3675 28.6138 8.5138 28.6138Z" fill="white"/>
<path d="M8.5138 37.8804C8.66009 37.8804 8.77869 37.7618 8.77869 37.6155C8.77869 37.4692 8.66009 37.3506 8.5138 37.3506C8.3675 37.3506 8.2489 37.4692 8.2489 37.6155C8.2489 37.7618 8.3675 37.8804 8.5138 37.8804Z" fill="white"/>
<path d="M8.5138 43.8848C8.66009 43.8848 8.77869 43.7662 8.77869 43.6199C8.77869 43.4736 8.66009 43.355 8.5138 43.355C8.3675 43.355 8.2489 43.4736 8.2489 43.6199C8.2489 43.7662 8.3675 43.8848 8.5138 43.8848Z" fill="white"/>
<path d="M8.5138 50.1074C8.66009 50.1074 8.77869 49.9888 8.77869 49.8425C8.77869 49.6962 8.66009 49.5776 8.5138 49.5776C8.3675 49.5776 8.2489 49.6962 8.2489 49.8425C8.2489 49.9888 8.3675 50.1074 8.5138 50.1074Z" fill="white"/>
<path d="M8.5138 56.1162C8.66009 56.1162 8.77869 55.9976 8.77869 55.8513C8.77869 55.705 8.66009 55.5864 8.5138 55.5864C8.3675 55.5864 8.2489 55.705 8.2489 55.8513C8.2489 55.9976 8.3675 56.1162 8.5138 56.1162Z" fill="white"/>
<path d="M8.5138 62.1206C8.66009 62.1206 8.77869 62.002 8.77869 61.8557C8.77869 61.7094 8.66009 61.5908 8.5138 61.5908C8.3675 61.5908 8.2489 61.7094 8.2489 61.8557C8.2489 62.002 8.3675 62.1206 8.5138 62.1206Z" fill="white"/>
<path d="M8.5138 68.3482C8.66009 68.3482 8.77869 68.2296 8.77869 68.0833C8.77869 67.937 8.66009 67.8184 8.5138 67.8184C8.3675 67.8184 8.2489 67.937 8.2489 68.0833C8.2489 68.2296 8.3675 68.3482 8.5138 68.3482Z" fill="white"/>
<path d="M8.5138 74.5845C8.66009 74.5845 8.77869 74.4659 8.77869 74.3196C8.77869 74.1733 8.66009 74.0547 8.5138 74.0547C8.3675 74.0547 8.2489 74.1733 8.2489 74.3196C8.2489 74.4659 8.3675 74.5845 8.5138 74.5845Z" fill="white"/>
<path d="M8.5138 80.1611C8.66009 80.1611 8.77869 80.0425 8.77869 79.8962C8.77869 79.7499 8.66009 79.6313 8.5138 79.6313C8.3675 79.6313 8.2489 79.7499 8.2489 79.8962C8.2489 80.0425 8.3675 80.1611 8.5138 80.1611Z" fill="white"/>
<path d="M8.77869 86.1238C8.77869 86.2679 8.66251 86.3887 8.5138 86.3887C8.36508 86.3887 8.2489 86.2725 8.2489 86.1238C8.2489 85.9751 8.36508 85.8589 8.5138 85.8589C8.66251 85.8589 8.77869 85.9751 8.77869 86.1238Z" fill="white"/>
<path d="M8.5138 92.4487C8.66009 92.4487 8.77869 92.3301 8.77869 92.1838C8.77869 92.0375 8.66009 91.9189 8.5138 91.9189C8.3675 91.9189 8.2489 92.0375 8.2489 92.1838C8.2489 92.3301 8.3675 92.4487 8.5138 92.4487Z" fill="white"/>
<path d="M8.62073 101.362C8.76703 101.362 8.88563 101.244 8.88563 101.097C8.88563 100.951 8.76703 100.833 8.62073 100.833C8.47443 100.833 8.35583 100.951 8.35583 101.097C8.35583 101.244 8.47443 101.362 8.62073 101.362Z" fill="white"/>
<path d="M18.1569 101.627C18.3032 101.627 18.4218 101.508 18.4218 101.362C18.4218 101.216 18.3032 101.097 18.1569 101.097C18.0106 101.097 17.892 101.216 17.892 101.362C17.892 101.508 18.0106 101.627 18.1569 101.627Z" fill="white"/>
<path d="M30.7047 101.362C30.7047 101.506 30.5885 101.627 30.4398 101.627C30.2911 101.627 30.1749 101.511 30.1749 101.362C30.1749 101.213 30.2911 101.097 30.4398 101.097C30.5885 101.097 30.7047 101.213 30.7047 101.362Z" fill="white"/>
<path d="M42.7039 101.627C42.8502 101.627 42.9688 101.508 42.9688 101.362C42.9688 101.216 42.8502 101.097 42.7039 101.097C42.5576 101.097 42.439 101.216 42.439 101.362C42.439 101.508 42.5576 101.627 42.7039 101.627Z" fill="white"/>
<path d="M54.6475 101.627C54.7938 101.627 54.9124 101.508 54.9124 101.362C54.9124 101.216 54.7938 101.097 54.6475 101.097C54.5012 101.097 54.3826 101.216 54.3826 101.362C54.3826 101.508 54.5012 101.627 54.6475 101.627Z" fill="white"/>
<path d="M69.0261 55.9722C69.1724 55.9722 69.291 55.8536 69.291 55.7073C69.291 55.561 69.1724 55.4424 69.0261 55.4424C68.8798 55.4424 68.7612 55.561 68.7612 55.7073C68.7612 55.8536 68.8798 55.9722 69.0261 55.9722Z" fill="white"/>
<path d="M69.0261 61.6978C69.1724 61.6978 69.291 61.5792 69.291 61.4329C69.291 61.2866 69.1724 61.168 69.0261 61.168C68.8798 61.168 68.7612 61.2866 68.7612 61.4329C68.7612 61.5792 68.8798 61.6978 69.0261 61.6978Z" fill="white"/>
<path d="M69.0261 67.874C69.1724 67.874 69.291 67.7554 69.291 67.6091C69.291 67.4628 69.1724 67.3442 69.0261 67.3442C68.8798 67.3442 68.7612 67.4628 68.7612 67.6091C68.7612 67.7554 68.8798 67.874 69.0261 67.874Z" fill="white"/>
<path d="M69.0261 73.9619C69.1724 73.9619 69.291 73.8433 69.291 73.697C69.291 73.5507 69.1724 73.4321 69.0261 73.4321C68.8798 73.4321 68.7612 73.5507 68.7612 73.697C68.7612 73.8433 68.8798 73.9619 69.0261 73.9619Z" fill="white"/>
<path d="M69.0261 79.8872C69.1724 79.8872 69.291 79.7686 69.291 79.6223C69.291 79.476 69.1724 79.3574 69.0261 79.3574C68.8798 79.3574 68.7612 79.476 68.7612 79.6223C68.7612 79.7686 68.8798 79.8872 69.0261 79.8872Z" fill="white"/>
<path d="M69.0261 85.7334C69.1724 85.7334 69.291 85.6148 69.291 85.4685C69.291 85.3222 69.1724 85.2036 69.0261 85.2036C68.8798 85.2036 68.7612 85.3222 68.7612 85.4685C68.7612 85.6148 68.8798 85.7334 69.0261 85.7334Z" fill="white"/>
<path d="M69.0261 91.6958C69.1724 91.6958 69.291 91.5772 69.291 91.4309C69.291 91.2846 69.1724 91.166 69.0261 91.166C68.8798 91.166 68.7612 91.2846 68.7612 91.4309C68.7612 91.5772 68.8798 91.6958 69.0261 91.6958Z" fill="white"/>
<path d="M69.0261 100.791C69.1724 100.791 69.291 100.672 69.291 100.526C69.291 100.379 69.1724 100.261 69.0261 100.261C68.8798 100.261 68.7612 100.379 68.7612 100.526C68.7612 100.672 68.8798 100.791 69.0261 100.791Z" fill="white"/>
<path d="M37.3363 40.9941L25.8389 54.9546L37.3363 69.1427L49.1264 55.0661L37.3363 40.9941Z" fill="#AF0F07"/>
<path d="M8.39298 12.9849L6.19946 15.4107L8.15597 18.069L10.4053 15.6292L8.39298 12.9849Z" fill="#AF0F07"/>
<path d="M68.5846 87.2441L66.3865 89.6654L68.343 92.3283L70.5923 89.8838L68.5846 87.2441Z" fill="#AF0F07"/>
<path d="M5.2793 10.5358H5.6139C5.9671 10.5358 6.22734 10.3174 6.39 9.87589L8.32792 4.40137H8.55099L10.5075 10.1361C10.5679 10.2848 10.6376 10.3917 10.7259 10.4475C10.8096 10.5033 10.9165 10.5311 11.0512 10.5311H11.5578V10.8193H8.76476V10.5311H9.35962C9.44792 10.5311 9.52692 10.5079 9.58269 10.4615C9.6431 10.415 9.67098 10.3638 9.67098 10.3034C9.67098 10.2244 9.65704 10.1594 9.63381 10.1036L9.2109 8.90459H7.10103L6.88261 9.50876C6.79896 9.75042 6.75713 9.92237 6.75713 10.0339C6.75713 10.164 6.78967 10.2802 6.85473 10.3825C6.91979 10.48 7.03597 10.5311 7.19863 10.5311H7.74701V10.8193H5.2793V10.5311V10.5358ZM7.19863 8.62577H9.10866L8.16991 5.87458L7.19398 8.62577H7.19863Z" fill="#A43E32"/>
<path d="M64.9458 94.5774H67.4135V94.8655H66.8651C66.7025 94.8655 66.5909 94.9167 66.5212 95.0143C66.4562 95.1118 66.4236 95.228 66.4236 95.3628C66.4236 95.4697 66.4655 95.6463 66.5491 95.8879L66.7675 96.4921H68.8774L69.3003 95.2931C69.3235 95.2373 69.3375 95.1723 69.3375 95.0932C69.3375 95.0328 69.3096 94.9817 69.2492 94.9352C69.1888 94.8888 69.1144 94.8655 69.0261 94.8655H68.4313V94.5774H71.2243V94.8655H70.7177C70.5876 94.8655 70.4761 94.8934 70.3924 94.9492C70.3088 95.005 70.2344 95.1118 70.174 95.2605L68.2175 100.995H67.9944L66.0565 95.5208C65.8938 95.0839 65.6336 94.8609 65.2804 94.8609H64.9458V94.5728V94.5774ZM67.8411 99.5268L68.7798 96.7756H66.8698L67.8457 99.5268H67.8411Z" fill="#AF0F07"/>
</svg>
