<svg width="79" height="110" viewBox="0 0 79 110" fill="none" xmlns="http://www.w3.org/2000/svg">
<path d="M3.61288 0.967054H75.3577C76.882 0.967054 78.1182 2.20323 78.1182 3.72755V106.414C78.1182 107.938 76.882 109.175 75.3577 109.175H3.61288C2.08857 109.175 0.852417 107.938 0.852417 106.414V3.72289C0.852417 2.19858 2.08857 0.962402 3.61288 0.962402V0.967054Z" fill="white"/>
<path d="M75.3576 109.23H3.61272C2.06053 109.23 0.801147 107.971 0.801147 106.419V3.73201C0.801147 2.17982 2.06053 0.92041 3.61272 0.92041H75.3576C76.9098 0.92041 78.1692 2.18447 78.1692 3.73201V106.419C78.1692 107.971 76.9098 109.23 75.3576 109.23ZM3.61272 1.02267C2.12094 1.02267 0.908026 2.23561 0.908026 3.72739V106.414C0.908026 107.906 2.12094 109.119 3.61272 109.119H75.3576C76.8493 109.119 78.0623 107.906 78.0623 106.414V3.72739C78.0623 2.23561 76.8493 1.02267 75.3576 1.02267H3.61272Z" fill="#65A7DD"/>
<path d="M69.8275 9.76417C69.9738 9.76417 70.0924 9.64557 70.0924 9.49927C70.0924 9.35298 69.9738 9.23438 69.8275 9.23438C69.6812 9.23438 69.5626 9.35298 69.5626 9.49927C69.5626 9.64557 69.6812 9.76417 69.8275 9.76417Z" fill="white"/>
<path d="M57.2287 9.76417C57.375 9.76417 57.4937 9.64557 57.4937 9.49927C57.4937 9.35298 57.375 9.23438 57.2287 9.23438C57.0824 9.23438 56.9639 9.35298 56.9639 9.49927C56.9639 9.64557 57.0824 9.76417 57.2287 9.76417Z" fill="white"/>
<path d="M45.6383 9.76417C45.7846 9.76417 45.9032 9.64557 45.9032 9.49927C45.9032 9.35298 45.7846 9.23438 45.6383 9.23438C45.492 9.23438 45.3734 9.35298 45.3734 9.49927C45.3734 9.64557 45.492 9.76417 45.6383 9.76417Z" fill="white"/>
<path d="M34.0014 9.85255C34.1477 9.85255 34.2664 9.73395 34.2664 9.58765C34.2664 9.44136 34.1477 9.32275 34.0014 9.32275C33.8551 9.32275 33.7366 9.44136 33.7366 9.58765C33.7366 9.73395 33.8551 9.85255 34.0014 9.85255Z" fill="white"/>
<path d="M69.8275 19.5884C69.9738 19.5884 70.0924 19.4698 70.0924 19.3235C70.0924 19.1772 69.9738 19.0586 69.8275 19.0586C69.6812 19.0586 69.5626 19.1772 69.5626 19.3235C69.5626 19.4698 69.6812 19.5884 69.8275 19.5884Z" fill="white"/>
<path d="M69.8275 28.5532C69.9738 28.5532 70.0924 28.4346 70.0924 28.2883C70.0924 28.142 69.9738 28.0234 69.8275 28.0234C69.6812 28.0234 69.5626 28.142 69.5626 28.2883C69.5626 28.4346 69.6812 28.5532 69.8275 28.5532Z" fill="white"/>
<path d="M69.8275 37.9453C69.9738 37.9453 70.0924 37.8267 70.0924 37.6804C70.0924 37.5341 69.9738 37.4155 69.8275 37.4155C69.6812 37.4155 69.5626 37.5341 69.5626 37.6804C69.5626 37.8267 69.6812 37.9453 69.8275 37.9453Z" fill="white"/>
<path d="M69.8275 43.8848C69.9738 43.8848 70.0924 43.7662 70.0924 43.6199C70.0924 43.4736 69.9738 43.355 69.8275 43.355C69.6812 43.355 69.5626 43.4736 69.5626 43.6199C69.5626 43.7662 69.6812 43.8848 69.8275 43.8848Z" fill="white"/>
<path d="M69.8275 49.8472C69.9738 49.8472 70.0924 49.7286 70.0924 49.5823C70.0924 49.436 69.9738 49.3174 69.8275 49.3174C69.6812 49.3174 69.5626 49.436 69.5626 49.5823C69.5626 49.7286 69.6812 49.8472 69.8275 49.8472Z" fill="white"/>
<path d="M9.31504 10.0293C9.46134 10.0293 9.57997 9.91071 9.57997 9.76441C9.57997 9.61811 9.46134 9.49951 9.31504 9.49951C9.16874 9.49951 9.05017 9.61811 9.05017 9.76441C9.05017 9.91071 9.16874 10.0293 9.31504 10.0293Z" fill="white"/>
<path d="M22.3228 9.58765C22.3228 9.73172 22.2066 9.85255 22.0579 9.85255C21.9092 9.85255 21.793 9.73637 21.793 9.58765C21.793 9.43894 21.9092 9.32275 22.0579 9.32275C22.2066 9.32275 22.3228 9.43894 22.3228 9.58765Z" fill="white"/>
<path d="M9.31504 19.3794C9.46134 19.3794 9.57997 19.2608 9.57997 19.1145C9.57997 18.9682 9.46134 18.8496 9.31504 18.8496C9.16874 18.8496 9.05017 18.9682 9.05017 19.1145C9.05017 19.2608 9.16874 19.3794 9.31504 19.3794Z" fill="white"/>
<path d="M9.31504 28.6138C9.46134 28.6138 9.57997 28.4952 9.57997 28.3489C9.57997 28.2026 9.46134 28.084 9.31504 28.084C9.16874 28.084 9.05017 28.2026 9.05017 28.3489C9.05017 28.4952 9.16874 28.6138 9.31504 28.6138Z" fill="white"/>
<path d="M9.31504 37.8804C9.46134 37.8804 9.57997 37.7618 9.57997 37.6155C9.57997 37.4692 9.46134 37.3506 9.31504 37.3506C9.16874 37.3506 9.05017 37.4692 9.05017 37.6155C9.05017 37.7618 9.16874 37.8804 9.31504 37.8804Z" fill="white"/>
<path d="M9.31504 43.8848C9.46134 43.8848 9.57997 43.7662 9.57997 43.6199C9.57997 43.4736 9.46134 43.355 9.31504 43.355C9.16874 43.355 9.05017 43.4736 9.05017 43.6199C9.05017 43.7662 9.16874 43.8848 9.31504 43.8848Z" fill="white"/>
<path d="M9.31504 50.1074C9.46134 50.1074 9.57997 49.9888 9.57997 49.8425C9.57997 49.6962 9.46134 49.5776 9.31504 49.5776C9.16874 49.5776 9.05017 49.6962 9.05017 49.8425C9.05017 49.9888 9.16874 50.1074 9.31504 50.1074Z" fill="white"/>
<path d="M9.31504 56.1162C9.46134 56.1162 9.57997 55.9976 9.57997 55.8513C9.57997 55.705 9.46134 55.5864 9.31504 55.5864C9.16874 55.5864 9.05017 55.705 9.05017 55.8513C9.05017 55.9976 9.16874 56.1162 9.31504 56.1162Z" fill="white"/>
<path d="M9.31504 62.1206C9.46134 62.1206 9.57997 62.002 9.57997 61.8557C9.57997 61.7094 9.46134 61.5908 9.31504 61.5908C9.16874 61.5908 9.05017 61.7094 9.05017 61.8557C9.05017 62.002 9.16874 62.1206 9.31504 62.1206Z" fill="white"/>
<path d="M9.31504 68.3482C9.46134 68.3482 9.57997 68.2296 9.57997 68.0833C9.57997 67.937 9.46134 67.8184 9.31504 67.8184C9.16874 67.8184 9.05017 67.937 9.05017 68.0833C9.05017 68.2296 9.16874 68.3482 9.31504 68.3482Z" fill="white"/>
<path d="M9.31504 74.5845C9.46134 74.5845 9.57997 74.4659 9.57997 74.3196C9.57997 74.1733 9.46134 74.0547 9.31504 74.0547C9.16874 74.0547 9.05017 74.1733 9.05017 74.3196C9.05017 74.4659 9.16874 74.5845 9.31504 74.5845Z" fill="white"/>
<path d="M9.31504 80.1611C9.46134 80.1611 9.57997 80.0425 9.57997 79.8962C9.57997 79.7499 9.46134 79.6313 9.31504 79.6313C9.16874 79.6313 9.05017 79.7499 9.05017 79.8962C9.05017 80.0425 9.16874 80.1611 9.31504 80.1611Z" fill="white"/>
<path d="M9.31504 86.3887C9.46134 86.3887 9.57997 86.2701 9.57997 86.1238C9.57997 85.9775 9.46134 85.8589 9.31504 85.8589C9.16874 85.8589 9.05017 85.9775 9.05017 86.1238C9.05017 86.2701 9.16874 86.3887 9.31504 86.3887Z" fill="white"/>
<path d="M9.31504 92.4487C9.46134 92.4487 9.57997 92.3301 9.57997 92.1838C9.57997 92.0375 9.46134 91.9189 9.31504 91.9189C9.16874 91.9189 9.05017 92.0375 9.05017 92.1838C9.05017 92.3301 9.16874 92.4487 9.31504 92.4487Z" fill="white"/>
<path d="M9.42198 101.362C9.56827 101.362 9.6869 101.244 9.6869 101.097C9.6869 100.951 9.56827 100.833 9.42198 100.833C9.27568 100.833 9.1571 100.951 9.1571 101.097C9.1571 101.244 9.27568 101.362 9.42198 101.362Z" fill="white"/>
<path d="M18.9535 101.627C19.0998 101.627 19.2184 101.508 19.2184 101.362C19.2184 101.216 19.0998 101.097 18.9535 101.097C18.8072 101.097 18.6886 101.216 18.6886 101.362C18.6886 101.508 18.8072 101.627 18.9535 101.627Z" fill="white"/>
<path d="M31.5012 101.362C31.5012 101.506 31.3851 101.627 31.2364 101.627C31.0876 101.627 30.9714 101.511 30.9714 101.362C30.9714 101.213 31.0876 101.097 31.2364 101.097C31.3851 101.097 31.5012 101.213 31.5012 101.362Z" fill="white"/>
<path d="M43.5005 101.627C43.6468 101.627 43.7654 101.508 43.7654 101.362C43.7654 101.216 43.6468 101.097 43.5005 101.097C43.3542 101.097 43.2356 101.216 43.2356 101.362C43.2356 101.508 43.3542 101.627 43.5005 101.627Z" fill="white"/>
<path d="M55.4487 101.627C55.595 101.627 55.7136 101.508 55.7136 101.362C55.7136 101.216 55.595 101.097 55.4487 101.097C55.3024 101.097 55.1838 101.216 55.1838 101.362C55.1838 101.508 55.3024 101.627 55.4487 101.627Z" fill="white"/>
<path d="M69.8275 55.9722C69.9738 55.9722 70.0924 55.8536 70.0924 55.7073C70.0924 55.561 69.9738 55.4424 69.8275 55.4424C69.6812 55.4424 69.5626 55.561 69.5626 55.7073C69.5626 55.8536 69.6812 55.9722 69.8275 55.9722Z" fill="white"/>
<path d="M69.8275 61.6978C69.9738 61.6978 70.0924 61.5792 70.0924 61.4329C70.0924 61.2866 69.9738 61.168 69.8275 61.168C69.6812 61.168 69.5626 61.2866 69.5626 61.4329C69.5626 61.5792 69.6812 61.6978 69.8275 61.6978Z" fill="white"/>
<path d="M69.8275 67.874C69.9738 67.874 70.0924 67.7554 70.0924 67.6091C70.0924 67.4628 69.9738 67.3442 69.8275 67.3442C69.6812 67.3442 69.5626 67.4628 69.5626 67.6091C69.5626 67.7554 69.6812 67.874 69.8275 67.874Z" fill="white"/>
<path d="M69.8275 73.9619C69.9738 73.9619 70.0924 73.8433 70.0924 73.697C70.0924 73.5507 69.9738 73.4321 69.8275 73.4321C69.6812 73.4321 69.5626 73.5507 69.5626 73.697C69.5626 73.8433 69.6812 73.9619 69.8275 73.9619Z" fill="white"/>
<path d="M69.8275 79.8872C69.9738 79.8872 70.0924 79.7686 70.0924 79.6223C70.0924 79.476 69.9738 79.3574 69.8275 79.3574C69.6812 79.3574 69.5626 79.476 69.5626 79.6223C69.5626 79.7686 69.6812 79.8872 69.8275 79.8872Z" fill="white"/>
<path d="M69.8275 85.7334C69.9738 85.7334 70.0924 85.6148 70.0924 85.4685C70.0924 85.3222 69.9738 85.2036 69.8275 85.2036C69.6812 85.2036 69.5626 85.3222 69.5626 85.4685C69.5626 85.6148 69.6812 85.7334 69.8275 85.7334Z" fill="white"/>
<path d="M69.8275 91.6958C69.9738 91.6958 70.0924 91.5772 70.0924 91.4309C70.0924 91.2846 69.9738 91.166 69.8275 91.166C69.6812 91.166 69.5626 91.2846 69.5626 91.4309C69.5626 91.5772 69.6812 91.6958 69.8275 91.6958Z" fill="white"/>
<path d="M70.0924 100.526C70.0924 100.67 69.9762 100.791 69.8275 100.791C69.6788 100.791 69.5626 100.674 69.5626 100.526C69.5626 100.377 69.6788 100.261 69.8275 100.261C69.9762 100.261 70.0924 100.377 70.0924 100.526Z" fill="white"/>
<path d="M67.778 91.1851L65.5845 93.6109L67.541 96.2692L69.7903 93.8294L67.778 91.1851Z" fill="#AF0F07"/>
<path d="M9.2593 14.3652L7.0658 16.7911L9.02229 19.4494L11.2716 17.0095L9.2593 14.3652Z" fill="#AF0F07"/>
<path d="M6.8335 12.5016H7.69789C7.78618 12.5016 7.85127 12.483 7.89309 12.4459C7.93027 12.4087 7.95351 12.3483 7.95351 12.2646V7.83575H6.8335V7.51044H7.33073C7.65604 7.51044 7.91632 7.42214 8.1208 7.25019C8.32064 7.07359 8.44608 6.86447 8.49255 6.61816H8.78068V12.2646C8.78068 12.3483 8.79927 12.4087 8.8411 12.4459C8.87828 12.483 8.94336 12.5016 9.03631 12.5016H9.9007V12.7898H6.8335V12.5016Z" fill="#A43E32"/>
<path d="M12.4613 12.4738C12.1313 12.1671 11.8757 11.7674 11.6898 11.2701C11.5039 10.7729 11.4156 10.2524 11.4156 9.70399C11.4156 9.15561 11.5086 8.63512 11.6898 8.13786C11.8711 7.6406 12.1313 7.24092 12.4613 6.9342C12.7912 6.62748 13.1723 6.47412 13.5952 6.47412C14.0181 6.47412 14.3946 6.62748 14.7245 6.9342C15.0545 7.24092 15.3147 7.6406 15.5006 8.13786C15.6819 8.63512 15.7748 9.15561 15.7748 9.70399C15.7748 10.2524 15.6819 10.7729 15.5006 11.2701C15.3194 11.7674 15.0591 12.1671 14.7245 12.4738C14.3899 12.7805 14.0135 12.9339 13.5952 12.9339C13.1769 12.9339 12.7912 12.7805 12.4613 12.4738ZM14.5851 11.7953C14.7431 11.2283 14.8221 10.5312 14.8221 9.70399C14.8221 8.87678 14.7431 8.17503 14.5851 7.61271C14.4271 7.04574 14.0971 6.7669 13.5999 6.7669C13.1026 6.7669 12.7726 7.04574 12.6146 7.60806C12.4566 8.17038 12.3776 8.86748 12.3776 9.70399C12.3776 10.5405 12.4566 11.2376 12.6146 11.7999C12.7726 12.3622 13.1026 12.6411 13.5999 12.6411C14.0971 12.6411 14.4271 12.3576 14.5851 11.7953Z" fill="#A43E32"/>
<path d="M71.3146 97.7559H70.4502C70.3619 97.7559 70.2969 97.7745 70.255 97.8117C70.2179 97.8488 70.1946 97.9093 70.1946 97.9929V102.422H71.3146V102.747H70.8173C70.492 102.747 70.2318 102.835 70.0273 103.007C69.8275 103.179 69.702 103.393 69.6555 103.639H69.3674V97.9929C69.3674 97.9093 69.3488 97.8488 69.307 97.8117C69.2651 97.7745 69.2048 97.7559 69.1118 97.7559H68.2474V97.4678H71.3146V97.7559Z" fill="#AF0F07"/>
<path d="M65.6914 97.7838C66.0214 98.0905 66.277 98.4902 66.4629 98.9875C66.6441 99.4847 66.7371 100.005 66.7371 100.554C66.7371 101.102 66.6441 101.622 66.4629 102.12C66.2816 102.617 66.0214 103.017 65.6914 103.323C65.3615 103.63 64.9804 103.783 64.5575 103.783C64.1346 103.783 63.7582 103.63 63.4282 103.323C63.0936 103.017 62.838 102.617 62.6521 102.12C62.4709 101.622 62.3779 101.102 62.3779 100.554C62.3779 100.005 62.4709 99.4847 62.6521 98.9875C62.8333 98.4902 63.0936 98.0905 63.4282 97.7838C63.7628 97.4771 64.1392 97.3237 64.5575 97.3237C64.9757 97.3237 65.3615 97.4771 65.6914 97.7838ZM63.5676 98.4623C63.4096 99.0293 63.3306 99.7264 63.3306 100.554C63.3306 101.381 63.4096 102.083 63.5676 102.645C63.7256 103.212 64.0556 103.491 64.5528 103.491C65.0501 103.491 65.38 103.212 65.5381 102.65C65.6961 102.087 65.7751 101.39 65.7751 100.554C65.7751 99.7171 65.6961 99.02 65.5381 98.4577C65.38 97.8953 65.0501 97.6165 64.5528 97.6165C64.0556 97.6165 63.7256 97.9 63.5676 98.4623Z" fill="#AF0F07"/>
<path d="M24.4747 12.4922L18.2938 19.9975L24.4747 27.6238L30.8089 20.058L24.4747 12.4922Z" fill="#AF0F07"/>
<path d="M40.624 25.0586L34.4478 32.564L40.624 40.1855L46.9629 32.6244L40.624 25.0586Z" fill="#AF0F07"/>
<path d="M40.3868 69.9326L34.2059 77.4333L40.3868 85.0595L46.7257 77.4938L40.3868 69.9326Z" fill="#AF0F07"/>
<path d="M24.4747 35.6636L18.2938 43.169L24.4747 50.7905L30.8089 43.2294L24.4747 35.6636Z" fill="#AF0F07"/>
<path d="M24.4747 58.835L18.2938 66.3357L24.4747 73.9619L30.8089 66.3961L24.4747 58.835Z" fill="#AF0F07"/>
<path d="M24.4747 82.002L18.2938 89.5073L24.4747 97.1335L30.8089 89.5677L24.4747 82.002Z" fill="#AF0F07"/>
<path d="M55.8066 12.4922L49.6304 19.9975L55.8066 27.6238L62.1455 20.058L55.8066 12.4922Z" fill="#AF0F07"/>
<path d="M55.8066 35.6636L49.6304 43.169L55.8066 50.7905L62.1455 43.2294L55.8066 35.6636Z" fill="#AF0F07"/>
<path d="M55.8066 58.835L49.6304 66.3357L55.8066 73.9619L62.1455 66.3961L55.8066 58.835Z" fill="#AF0F07"/>
<path d="M55.8066 82.002L49.6304 89.5073L55.8066 97.1335L62.1455 89.5677L55.8066 82.002Z" fill="#AF0F07"/>
</svg>
