<svg width="78" height="110" viewBox="0 0 78 110" fill="none" xmlns="http://www.w3.org/2000/svg">
<path d="M2.90783 0.967054H74.6527C76.177 0.967054 77.4132 2.20323 77.4132 3.72755V106.414C77.4132 107.938 76.177 109.175 74.6527 109.175H2.90783C1.38352 109.175 0.147339 107.938 0.147339 106.414V3.72289C0.147339 2.19858 1.38352 0.962402 2.90783 0.962402V0.967054Z" fill="white"/>
<path d="M74.6527 109.23H2.9078C1.35561 109.23 0.0961914 107.971 0.0961914 106.419V3.73201C0.0961914 2.17982 1.35561 0.92041 2.9078 0.92041H74.6527C76.2049 0.92041 77.4643 2.18447 77.4643 3.73201V106.419C77.4643 107.971 76.2049 109.23 74.6527 109.23ZM2.9078 1.02267C1.41602 1.02267 0.203077 2.23561 0.203077 3.72739V106.414C0.203077 107.906 1.41602 109.119 2.9078 109.119H74.6527C76.1444 109.119 77.3574 107.906 77.3574 106.414V3.72739C77.3574 2.23561 76.1444 1.02267 74.6527 1.02267H2.9078Z" fill="#65A7DD"/>
<path d="M69.3872 9.49927C69.3872 9.64334 69.271 9.76417 69.1223 9.76417C68.9736 9.76417 68.8574 9.64799 68.8574 9.49927C68.8574 9.35056 68.9736 9.23438 69.1223 9.23438C69.271 9.23438 69.3872 9.35056 69.3872 9.49927Z" fill="white"/>
<path d="M56.5237 9.76417C56.67 9.76417 56.7886 9.64557 56.7886 9.49927C56.7886 9.35298 56.67 9.23438 56.5237 9.23438C56.3774 9.23438 56.2588 9.35298 56.2588 9.49927C56.2588 9.64557 56.3774 9.76417 56.5237 9.76417Z" fill="white"/>
<path d="M45.1981 9.49927C45.1981 9.64334 45.0819 9.76417 44.9332 9.76417C44.7845 9.76417 44.6683 9.64799 44.6683 9.49927C44.6683 9.35056 44.7845 9.23438 44.9332 9.23438C45.0819 9.23438 45.1981 9.35056 45.1981 9.49927Z" fill="white"/>
<path d="M33.2964 9.85255C33.4427 9.85255 33.5613 9.73395 33.5613 9.58765C33.5613 9.44136 33.4427 9.32275 33.2964 9.32275C33.1501 9.32275 33.0315 9.44136 33.0315 9.58765C33.0315 9.73395 33.1501 9.85255 33.2964 9.85255Z" fill="white"/>
<path d="M69.3872 19.3235C69.3872 19.4676 69.271 19.5884 69.1223 19.5884C68.9736 19.5884 68.8574 19.4722 68.8574 19.3235C68.8574 19.1748 68.9736 19.0586 69.1223 19.0586C69.271 19.0586 69.3872 19.1748 69.3872 19.3235Z" fill="white"/>
<path d="M69.3872 28.2883C69.3872 28.4324 69.271 28.5532 69.1223 28.5532C68.9736 28.5532 68.8574 28.437 68.8574 28.2883C68.8574 28.1396 68.9736 28.0234 69.1223 28.0234C69.271 28.0234 69.3872 28.1396 69.3872 28.2883Z" fill="white"/>
<path d="M69.3872 37.6804C69.3872 37.8245 69.271 37.9453 69.1223 37.9453C68.9736 37.9453 68.8574 37.8291 68.8574 37.6804C68.8574 37.5317 68.9736 37.4155 69.1223 37.4155C69.271 37.4155 69.3872 37.5317 69.3872 37.6804Z" fill="white"/>
<path d="M69.3872 43.6199C69.3872 43.7639 69.271 43.8848 69.1223 43.8848C68.9736 43.8848 68.8574 43.7686 68.8574 43.6199C68.8574 43.4712 68.9736 43.355 69.1223 43.355C69.271 43.355 69.3872 43.4712 69.3872 43.6199Z" fill="white"/>
<path d="M69.3872 49.5823C69.3872 49.7263 69.271 49.8472 69.1223 49.8472C68.9736 49.8472 68.8574 49.731 68.8574 49.5823C68.8574 49.4336 68.9736 49.3174 69.1223 49.3174C69.271 49.3174 69.3872 49.4336 69.3872 49.5823Z" fill="white"/>
<path d="M8.61011 10.0293C8.7564 10.0293 8.87501 9.91071 8.87501 9.76441C8.87501 9.61811 8.7564 9.49951 8.61011 9.49951C8.46381 9.49951 8.34521 9.61811 8.34521 9.76441C8.34521 9.91071 8.46381 10.0293 8.61011 10.0293Z" fill="white"/>
<path d="M21.353 9.85255C21.4993 9.85255 21.6179 9.73395 21.6179 9.58765C21.6179 9.44136 21.4993 9.32275 21.353 9.32275C21.2067 9.32275 21.0881 9.44136 21.0881 9.58765C21.0881 9.73395 21.2067 9.85255 21.353 9.85255Z" fill="white"/>
<path d="M8.61011 19.3794C8.7564 19.3794 8.87501 19.2608 8.87501 19.1145C8.87501 18.9682 8.7564 18.8496 8.61011 18.8496C8.46381 18.8496 8.34521 18.9682 8.34521 19.1145C8.34521 19.2608 8.46381 19.3794 8.61011 19.3794Z" fill="white"/>
<path d="M8.61011 28.6138C8.7564 28.6138 8.87501 28.4952 8.87501 28.3489C8.87501 28.2026 8.7564 28.084 8.61011 28.084C8.46381 28.084 8.34521 28.2026 8.34521 28.3489C8.34521 28.4952 8.46381 28.6138 8.61011 28.6138Z" fill="white"/>
<path d="M8.61011 37.8804C8.7564 37.8804 8.87501 37.7618 8.87501 37.6155C8.87501 37.4692 8.7564 37.3506 8.61011 37.3506C8.46381 37.3506 8.34521 37.4692 8.34521 37.6155C8.34521 37.7618 8.46381 37.8804 8.61011 37.8804Z" fill="white"/>
<path d="M8.61011 43.8848C8.7564 43.8848 8.87501 43.7662 8.87501 43.6199C8.87501 43.4736 8.7564 43.355 8.61011 43.355C8.46381 43.355 8.34521 43.4736 8.34521 43.6199C8.34521 43.7662 8.46381 43.8848 8.61011 43.8848Z" fill="white"/>
<path d="M8.61011 50.1074C8.7564 50.1074 8.87501 49.9888 8.87501 49.8425C8.87501 49.6962 8.7564 49.5776 8.61011 49.5776C8.46381 49.5776 8.34521 49.6962 8.34521 49.8425C8.34521 49.9888 8.46381 50.1074 8.61011 50.1074Z" fill="white"/>
<path d="M8.61011 56.1162C8.7564 56.1162 8.87501 55.9976 8.87501 55.8513C8.87501 55.705 8.7564 55.5864 8.61011 55.5864C8.46381 55.5864 8.34521 55.705 8.34521 55.8513C8.34521 55.9976 8.46381 56.1162 8.61011 56.1162Z" fill="white"/>
<path d="M8.61011 62.1206C8.7564 62.1206 8.87501 62.002 8.87501 61.8557C8.87501 61.7094 8.7564 61.5908 8.61011 61.5908C8.46381 61.5908 8.34521 61.7094 8.34521 61.8557C8.34521 62.002 8.46381 62.1206 8.61011 62.1206Z" fill="white"/>
<path d="M8.61011 68.3482C8.7564 68.3482 8.87501 68.2296 8.87501 68.0833C8.87501 67.937 8.7564 67.8184 8.61011 67.8184C8.46381 67.8184 8.34521 67.937 8.34521 68.0833C8.34521 68.2296 8.46381 68.3482 8.61011 68.3482Z" fill="white"/>
<path d="M8.61011 74.5845C8.7564 74.5845 8.87501 74.4659 8.87501 74.3196C8.87501 74.1733 8.7564 74.0547 8.61011 74.0547C8.46381 74.0547 8.34521 74.1733 8.34521 74.3196C8.34521 74.4659 8.46381 74.5845 8.61011 74.5845Z" fill="white"/>
<path d="M8.61011 80.1611C8.7564 80.1611 8.87501 80.0425 8.87501 79.8962C8.87501 79.7499 8.7564 79.6313 8.61011 79.6313C8.46381 79.6313 8.34521 79.7499 8.34521 79.8962C8.34521 80.0425 8.46381 80.1611 8.61011 80.1611Z" fill="white"/>
<path d="M8.87501 86.1238C8.87501 86.2679 8.75882 86.3887 8.61011 86.3887C8.46139 86.3887 8.34521 86.2725 8.34521 86.1238C8.34521 85.9751 8.46139 85.8589 8.61011 85.8589C8.75882 85.8589 8.87501 85.9751 8.87501 86.1238Z" fill="white"/>
<path d="M8.61011 92.4487C8.7564 92.4487 8.87501 92.3301 8.87501 92.1838C8.87501 92.0375 8.7564 91.9189 8.61011 91.9189C8.46381 91.9189 8.34521 92.0375 8.34521 92.1838C8.34521 92.3301 8.46381 92.4487 8.61011 92.4487Z" fill="white"/>
<path d="M8.71693 101.362C8.86322 101.362 8.98182 101.244 8.98182 101.097C8.98182 100.951 8.86322 100.833 8.71693 100.833C8.57063 100.833 8.45203 100.951 8.45203 101.097C8.45203 101.244 8.57063 101.362 8.71693 101.362Z" fill="white"/>
<path d="M18.2485 101.627C18.3948 101.627 18.5134 101.508 18.5134 101.362C18.5134 101.216 18.3948 101.097 18.2485 101.097C18.1022 101.097 17.9836 101.216 17.9836 101.362C17.9836 101.508 18.1022 101.627 18.2485 101.627Z" fill="white"/>
<path d="M30.5312 101.627C30.6775 101.627 30.7961 101.508 30.7961 101.362C30.7961 101.216 30.6775 101.097 30.5312 101.097C30.385 101.097 30.2664 101.216 30.2664 101.362C30.2664 101.508 30.385 101.627 30.5312 101.627Z" fill="white"/>
<path d="M42.7955 101.627C42.9418 101.627 43.0604 101.508 43.0604 101.362C43.0604 101.216 42.9418 101.097 42.7955 101.097C42.6492 101.097 42.5306 101.216 42.5306 101.362C42.5306 101.508 42.6492 101.627 42.7955 101.627Z" fill="white"/>
<path d="M55.0086 101.362C55.0086 101.506 54.8924 101.627 54.7437 101.627C54.5949 101.627 54.4788 101.511 54.4788 101.362C54.4788 101.213 54.5949 101.097 54.7437 101.097C54.8924 101.097 55.0086 101.213 55.0086 101.362Z" fill="white"/>
<path d="M69.3872 55.7073C69.3872 55.8513 69.271 55.9722 69.1223 55.9722C68.9736 55.9722 68.8574 55.856 68.8574 55.7073C68.8574 55.5586 68.9736 55.4424 69.1223 55.4424C69.271 55.4424 69.3872 55.5586 69.3872 55.7073Z" fill="white"/>
<path d="M69.3872 61.4329C69.3872 61.5769 69.271 61.6978 69.1223 61.6978C68.9736 61.6978 68.8574 61.5816 68.8574 61.4329C68.8574 61.2842 68.9736 61.168 69.1223 61.168C69.271 61.168 69.3872 61.2842 69.3872 61.4329Z" fill="white"/>
<path d="M69.3872 67.6091C69.3872 67.7532 69.271 67.874 69.1223 67.874C68.9736 67.874 68.8574 67.7579 68.8574 67.6091C68.8574 67.4604 68.9736 67.3442 69.1223 67.3442C69.271 67.3442 69.3872 67.4604 69.3872 67.6091Z" fill="white"/>
<path d="M69.3872 73.697C69.3872 73.8411 69.271 73.9619 69.1223 73.9619C68.9736 73.9619 68.8574 73.8457 68.8574 73.697C68.8574 73.5483 68.9736 73.4321 69.1223 73.4321C69.271 73.4321 69.3872 73.5483 69.3872 73.697Z" fill="white"/>
<path d="M69.3872 79.6223C69.3872 79.7664 69.271 79.8872 69.1223 79.8872C68.9736 79.8872 68.8574 79.771 68.8574 79.6223C68.8574 79.4736 68.9736 79.3574 69.1223 79.3574C69.271 79.3574 69.3872 79.4736 69.3872 79.6223Z" fill="white"/>
<path d="M69.3872 85.4685C69.3872 85.6125 69.271 85.7334 69.1223 85.7334C68.9736 85.7334 68.8574 85.6172 68.8574 85.4685C68.8574 85.3198 68.9736 85.2036 69.1223 85.2036C69.271 85.2036 69.3872 85.3198 69.3872 85.4685Z" fill="white"/>
<path d="M69.3872 91.4309C69.3872 91.575 69.271 91.6958 69.1223 91.6958C68.9736 91.6958 68.8574 91.5796 68.8574 91.4309C68.8574 91.2822 68.9736 91.166 69.1223 91.166C69.271 91.166 69.3872 91.2822 69.3872 91.4309Z" fill="white"/>
<path d="M69.3872 100.526C69.3872 100.67 69.271 100.791 69.1223 100.791C68.9736 100.791 68.8574 100.674 68.8574 100.526C68.8574 100.377 68.9736 100.261 69.1223 100.261C69.271 100.261 69.3872 100.377 69.3872 100.526Z" fill="white"/>
<path d="M38.3807 8.95068L32.1998 16.456L38.3807 24.0776L44.715 16.5165L38.3807 8.95068Z" fill="#AF0F07"/>
<path d="M38.3807 78.4604L32.1998 85.9658L38.3807 93.592L44.715 86.0262L38.3807 78.4604Z" fill="#AF0F07"/>
<path d="M8.11285 12.269L5.91467 14.6949L7.87118 17.3532L10.1205 14.9134L8.11285 12.269Z" fill="#AF0F07"/>
<path d="M69.5036 87.2437L67.3054 89.6649L69.2619 92.3278L71.5112 89.8833L69.5036 87.2437Z" fill="#AF0F07"/>
<path d="M6.26784 9.83847C6.39332 9.51316 6.6768 9.16461 7.11364 8.79283L7.97804 8.05393C8.26152 7.82156 8.4753 7.56129 8.62401 7.27781C8.77273 6.99432 8.84709 6.66903 8.84709 6.30189C8.84709 5.83251 8.7309 5.47001 8.50319 5.21441C8.27547 4.95881 7.95016 4.83336 7.52725 4.83336C7.33671 4.83336 7.15083 4.87982 6.97423 4.96812C6.79763 5.05642 6.65356 5.17726 6.54203 5.32597C6.43049 5.47468 6.37473 5.62339 6.37473 5.7814C6.37473 5.92546 6.40726 6.03235 6.47232 6.10206C6.53738 6.17177 6.63033 6.21358 6.74187 6.23217C6.93241 6.26005 7.07647 6.32514 7.16942 6.42738C7.26236 6.52497 7.30883 6.64578 7.30883 6.7852C7.30883 6.90138 7.26701 6.99432 7.188 7.07333C7.109 7.15233 6.99282 7.18951 6.84875 7.18951C6.60245 7.18951 6.39796 7.09194 6.23531 6.89676C6.07265 6.70157 5.99365 6.44595 5.99365 6.12529C5.99365 5.80463 6.068 5.54439 6.22136 5.29809C6.37473 5.05178 6.5885 4.86122 6.86269 4.7218C7.13688 4.58238 7.43896 4.5127 7.77821 4.5127C8.16393 4.5127 8.50783 4.58704 8.81455 4.7311C9.12127 4.87517 9.36294 5.08431 9.53488 5.35385C9.70683 5.6234 9.79513 5.94406 9.79513 6.31119C9.79513 6.67833 9.66501 7.00829 9.40941 7.30107C9.14916 7.59385 8.8099 7.89127 8.39165 8.19334L7.50867 8.87648C7.25771 9.05307 7.06253 9.21574 6.92775 9.37839C6.79298 9.5364 6.72327 9.7037 6.72327 9.871C6.72327 10.0151 6.81622 10.0894 7.00211 10.0894H8.70767C8.94933 10.0894 9.11662 10.0383 9.21887 9.93142C9.31646 9.82453 9.38617 9.67581 9.42335 9.48527L9.52094 8.9555H9.72077L9.5953 10.833H6.08194C6.08194 10.503 6.14701 10.1731 6.27249 9.85243L6.26784 9.83847Z" fill="#A43E32"/>
<path d="M70.5771 95.5624C70.4516 95.8877 70.1681 96.2363 69.7313 96.608L68.8669 97.3469C68.5834 97.5793 68.3696 97.8396 68.2209 98.1231C68.0722 98.4065 67.9979 98.7318 67.9979 99.099C67.9979 99.5684 68.114 99.9309 68.3418 100.186C68.5695 100.442 68.8948 100.568 69.3177 100.568C69.5082 100.568 69.6941 100.521 69.8707 100.433C70.0473 100.344 70.1914 100.224 70.3029 100.075C70.4144 99.9262 70.4702 99.7775 70.4702 99.6195C70.4702 99.4754 70.4377 99.3685 70.3726 99.2988C70.3076 99.2291 70.2146 99.1873 70.1031 99.1687C69.9125 99.1408 69.7685 99.0757 69.6755 98.9735C69.5826 98.8759 69.5361 98.7551 69.5361 98.6157C69.5361 98.4995 69.5779 98.4065 69.6569 98.3275C69.7359 98.2485 69.8521 98.2114 69.9962 98.2114C70.2425 98.2114 70.447 98.309 70.6096 98.5041C70.7723 98.6993 70.8513 98.9549 70.8513 99.2756C70.8513 99.5962 70.7769 99.8565 70.6236 100.103C70.4702 100.349 70.2564 100.54 69.9822 100.679C69.7081 100.818 69.406 100.888 69.0667 100.888C68.681 100.888 68.3371 100.814 68.0304 100.67C67.7237 100.526 67.482 100.317 67.3101 100.047C67.1381 99.7775 67.0498 99.4568 67.0498 99.0897C67.0498 98.7225 67.1799 98.3926 67.4355 98.0998C67.6958 97.807 68.035 97.5096 68.4533 97.2075L69.3363 96.5244C69.5872 96.3478 69.7824 96.1851 69.9172 96.0225C70.052 95.8645 70.1217 95.6972 70.1217 95.5299C70.1217 95.3858 70.0287 95.3115 69.8428 95.3115H68.1373C67.8956 95.3115 67.7283 95.3626 67.6261 95.4694C67.5285 95.5763 67.4588 95.7251 67.4216 95.9156L67.324 96.4454H67.1242L67.2496 94.5679H70.763C70.763 94.8978 70.6979 95.2278 70.5725 95.5484L70.5771 95.5624Z" fill="#AF0F07"/>
</svg>
