<svg width="78" height="110" viewBox="0 0 78 110" fill="none" xmlns="http://www.w3.org/2000/svg">
<path d="M2.99937 0.966797H74.7442C76.2685 0.966797 77.5047 2.20298 77.5047 3.72729V106.418C77.5047 107.943 76.2685 109.179 74.7442 109.179H2.99937C1.47506 109.179 0.238892 107.943 0.238892 106.418V3.73191C0.238892 2.2076 1.47506 0.971449 2.99937 0.971449V0.966797Z" fill="white"/>
<path d="M74.749 109.23H3.00411C1.45191 109.23 0.192505 107.971 0.192505 106.419V3.73201C0.192505 2.17982 1.45191 0.92041 3.00411 0.92041H74.749C76.3012 0.92041 77.5606 2.18447 77.5606 3.73201V106.419C77.5606 107.971 76.3012 109.23 74.749 109.23ZM3.00411 1.02267C1.51233 1.02267 0.299383 2.23561 0.299383 3.72739V106.414C0.299383 107.906 1.51233 109.119 3.00411 109.119H74.749C76.2407 109.119 77.4537 107.906 77.4537 106.414V3.72739C77.4537 2.23561 76.2407 1.02267 74.749 1.02267H3.00411Z" fill="#65A7DD"/>
<path d="M7.80473 12.269L5.61121 14.6949L7.56771 17.3532L9.817 14.9134L7.80473 12.269Z" fill="#AF0F07"/>
<path d="M69.321 87.2437L67.1274 89.6649L69.0839 92.3278L71.3332 89.8833L69.321 87.2437Z" fill="#AF0F07"/>
<path d="M6.72658 10.6564C6.41521 10.4473 6.2572 10.1452 6.2572 9.7502C6.2572 9.53177 6.32227 9.35053 6.44774 9.19717C6.57322 9.04381 6.74053 8.96946 6.94501 8.96946C7.11696 8.96946 7.25638 9.01592 7.35397 9.10887C7.45156 9.20181 7.50267 9.32729 7.50267 9.48995C7.50267 9.61543 7.4655 9.72697 7.39114 9.81992C7.31679 9.91286 7.21919 9.95933 7.09836 9.95933C6.88923 9.95933 6.78235 10.0105 6.78235 10.1127C6.78235 10.4891 7.15878 10.6797 7.91629 10.6797C8.35313 10.6797 8.67379 10.531 8.86898 10.2289C9.06416 9.92681 9.16176 9.56896 9.16176 9.14606C9.16176 8.66738 9.05953 8.30489 8.8504 8.06323C8.64127 7.82157 8.39031 7.70076 8.08824 7.70076C7.99994 7.70076 7.92558 7.70539 7.86516 7.71933C7.80939 7.73328 7.73969 7.75187 7.65139 7.7844C7.45156 7.84946 7.2982 7.88201 7.19131 7.88201C7.10301 7.88201 7.01936 7.86341 6.9543 7.81694C6.88459 7.77511 6.85205 7.71003 6.85205 7.62638C6.85205 7.54273 6.88458 7.47768 6.94964 7.43586C7.01471 7.39403 7.09837 7.37079 7.19131 7.37079C7.29355 7.37079 7.43297 7.38475 7.61422 7.41728C7.73505 7.43587 7.89769 7.44516 8.11147 7.44516C8.3996 7.44516 8.62268 7.31502 8.77604 7.05477C8.9294 6.79453 9.00375 6.49246 9.00375 6.15785C9.00375 5.76748 8.91546 5.44218 8.73422 5.18193C8.55297 4.92168 8.29272 4.7962 7.94882 4.7962C7.60492 4.7962 7.34466 4.85196 7.19595 4.96815C7.04724 5.08433 6.97289 5.20981 6.97289 5.35388C6.97289 5.40965 6.99147 5.46541 7.03794 5.52118C7.07977 5.57694 7.13555 5.62341 7.2099 5.66059C7.42833 5.74889 7.53521 5.89761 7.53521 6.10209C7.53521 6.22756 7.49339 6.33444 7.40973 6.41345C7.32608 6.4971 7.20525 6.53428 7.04725 6.53428C6.87065 6.53428 6.72193 6.45994 6.59181 6.31587C6.46168 6.16716 6.39663 6.00448 6.39663 5.82323C6.39663 5.40033 6.55927 5.07968 6.87994 4.84731C7.2006 4.6196 7.59098 4.50342 8.04641 4.50342C8.59479 4.50342 9.03164 4.64749 9.36624 4.94026C9.70084 5.23304 9.86814 5.61411 9.86814 6.08813C9.86814 6.33908 9.80774 6.56681 9.69156 6.76199C9.57537 6.95718 9.42665 7.1152 9.25006 7.24068C9.07346 7.36615 8.89222 7.44514 8.71562 7.48697V7.56134C8.91546 7.59852 9.11993 7.68217 9.33836 7.81694C9.55678 7.95171 9.73802 8.13294 9.88673 8.36066C10.0354 8.58838 10.1098 8.84863 10.1098 9.14606C10.1098 9.51319 10.0122 9.83386 9.81238 10.108C9.61254 10.3822 9.34765 10.5914 9.01304 10.7401C8.67844 10.8888 8.31131 10.9632 7.907 10.9632C7.42833 10.9632 7.02865 10.8609 6.71728 10.6518L6.72658 10.6564Z" fill="#A43E32"/>
<path d="M70.6779 94.7447C70.9893 94.9538 71.1473 95.2559 71.1473 95.6509C71.1473 95.8693 71.0822 96.0506 70.9568 96.204C70.8313 96.3573 70.664 96.4317 70.4595 96.4317C70.2875 96.4317 70.1481 96.3852 70.0505 96.2923C69.9529 96.1993 69.9018 96.0738 69.9018 95.9112C69.9018 95.7857 69.939 95.6741 70.0134 95.5812C70.0877 95.4883 70.1853 95.4418 70.3061 95.4418C70.5153 95.4418 70.6222 95.3907 70.6222 95.2884C70.6222 94.9073 70.2411 94.7215 69.4882 94.7215C69.0514 94.7215 68.7307 94.8702 68.5355 95.1722C68.3403 95.4743 68.2427 95.8322 68.2427 96.2551C68.2427 96.7337 68.345 97.0962 68.5541 97.3379C68.7632 97.5796 69.0142 97.7004 69.3163 97.7004C69.4046 97.7004 69.4789 97.6957 69.5393 97.6818C69.5951 97.6678 69.6648 97.6492 69.7531 97.6167C69.9529 97.5517 70.1063 97.5191 70.2132 97.5191C70.3015 97.5191 70.3851 97.5377 70.4502 97.5842C70.5199 97.626 70.5524 97.6911 70.5524 97.7747C70.5524 97.8584 70.5199 97.9234 70.4549 97.9653C70.3898 98.0071 70.3061 98.0303 70.2132 98.0303C70.1109 98.0303 69.9715 98.0164 69.7903 97.9839C69.6695 97.9653 69.5068 97.956 69.293 97.956C69.0049 97.956 68.7818 98.0861 68.6285 98.3463C68.4751 98.6066 68.3961 98.9087 68.3961 99.2433C68.3961 99.6336 68.4844 99.959 68.6656 100.219C68.8469 100.479 69.1071 100.605 69.451 100.605C69.7949 100.605 70.0552 100.549 70.2039 100.433C70.3526 100.317 70.4223 100.191 70.4223 100.047C70.4223 99.9915 70.3991 99.9357 70.3573 99.8799C70.3154 99.8242 70.2597 99.7777 70.1853 99.7405C69.9669 99.6522 69.86 99.5035 69.86 99.299C69.86 99.1736 69.9018 99.0667 69.9855 98.9877C70.0691 98.904 70.19 98.8668 70.348 98.8668C70.5199 98.8668 70.6733 98.9412 70.8034 99.0853C70.9335 99.234 70.9986 99.3966 70.9986 99.5779C70.9986 100.001 70.8359 100.321 70.5153 100.554C70.1946 100.782 69.8042 100.898 69.3488 100.898C68.8004 100.898 68.3636 100.754 68.029 100.461C67.6944 100.168 67.5271 99.787 67.5271 99.313C67.5271 99.062 67.5875 98.8343 67.7037 98.6391C67.8198 98.4439 67.9686 98.2859 68.1452 98.1604C68.3217 98.035 68.503 97.956 68.6796 97.9142V97.8398C68.4798 97.8026 68.2753 97.719 68.0569 97.5842C67.8384 97.4494 67.6572 97.2682 67.5085 97.0405C67.3598 96.8127 67.2854 96.5525 67.2854 96.2551C67.2854 95.8879 67.383 95.5673 67.5828 95.2931C67.7827 95.0189 68.0475 94.8098 68.3822 94.661C68.7168 94.5123 69.0839 94.438 69.4882 94.438C69.9669 94.438 70.3665 94.5402 70.6779 94.7493V94.7447Z" fill="#AF0F07"/>
<path d="M38.6256 8.95068L32.4493 16.456L38.6256 24.0776L44.9645 16.5165L38.6256 8.95068Z" fill="#AF0F07"/>
<path d="M38.6256 78.4604L32.4493 85.9658L38.6256 93.592L44.9645 86.0262L38.6256 78.4604Z" fill="#AF0F07"/>
<path d="M38.6256 43.708L32.4493 51.2087L38.6256 58.8349L44.9645 51.2692L38.6256 43.708Z" fill="#AF0F07"/>
</svg>
