<svg width="78" height="110" viewBox="0 0 78 110" fill="none" xmlns="http://www.w3.org/2000/svg">
<path d="M3.09582 0.967054H74.8407C76.365 0.967054 77.6012 2.20323 77.6012 3.72755V106.414C77.6012 107.938 76.365 109.175 74.8407 109.175H3.09582C1.57151 109.175 0.335327 107.938 0.335327 106.414V3.72289C0.335327 2.19858 1.57151 0.962402 3.09582 0.962402V0.967054Z" fill="white"/>
<path d="M74.8406 109.23H3.0958C1.5436 109.23 0.28418 107.971 0.28418 106.419V3.73201C0.28418 2.17982 1.5436 0.92041 3.0958 0.92041H74.8406C76.3928 0.92041 77.6523 2.18447 77.6523 3.73201V106.419C77.6523 107.971 76.3928 109.23 74.8406 109.23ZM3.0958 1.02267C1.60402 1.02267 0.391072 2.23561 0.391072 3.72739V106.414C0.391072 107.906 1.60402 109.119 3.0958 109.119H74.8406C76.3324 109.119 77.5454 107.906 77.5454 106.414V3.72739C77.5454 2.23561 76.3324 1.02267 74.8406 1.02267H3.0958Z" fill="#65A7DD"/>
<path d="M69.3106 9.76417C69.4569 9.76417 69.5755 9.64557 69.5755 9.49927C69.5755 9.35298 69.4569 9.23438 69.3106 9.23438C69.1643 9.23438 69.0457 9.35298 69.0457 9.49927C69.0457 9.64557 69.1643 9.76417 69.3106 9.76417Z" fill="white"/>
<path d="M56.7118 9.76417C56.8581 9.76417 56.9767 9.64557 56.9767 9.49927C56.9767 9.35298 56.8581 9.23438 56.7118 9.23438C56.5655 9.23438 56.4469 9.35298 56.4469 9.49927C56.4469 9.64557 56.5655 9.76417 56.7118 9.76417Z" fill="white"/>
<path d="M33.4891 9.85255C33.6354 9.85255 33.754 9.73395 33.754 9.58765C33.754 9.44136 33.6354 9.32275 33.4891 9.32275C33.3428 9.32275 33.2242 9.44136 33.2242 9.58765C33.2242 9.73395 33.3428 9.85255 33.4891 9.85255Z" fill="white"/>
<path d="M69.3106 19.5884C69.4569 19.5884 69.5755 19.4698 69.5755 19.3235C69.5755 19.1772 69.4569 19.0586 69.3106 19.0586C69.1643 19.0586 69.0457 19.1772 69.0457 19.3235C69.0457 19.4698 69.1643 19.5884 69.3106 19.5884Z" fill="white"/>
<path d="M69.3106 28.5532C69.4569 28.5532 69.5755 28.4346 69.5755 28.2883C69.5755 28.142 69.4569 28.0234 69.3106 28.0234C69.1643 28.0234 69.0457 28.142 69.0457 28.2883C69.0457 28.4346 69.1643 28.5532 69.3106 28.5532Z" fill="white"/>
<path d="M8.7981 10.0293C8.9444 10.0293 9.063 9.91071 9.063 9.76441C9.063 9.61811 8.9444 9.49951 8.7981 9.49951C8.6518 9.49951 8.5332 9.61811 8.5332 9.76441C8.5332 9.91071 8.6518 10.0293 8.7981 10.0293Z" fill="white"/>
<path d="M21.8059 9.58765C21.8059 9.73172 21.6897 9.85255 21.541 9.85255C21.3923 9.85255 21.2761 9.73637 21.2761 9.58765C21.2761 9.43894 21.3923 9.32275 21.541 9.32275C21.6897 9.32275 21.8059 9.43894 21.8059 9.58765Z" fill="white"/>
<path d="M8.7981 19.3794C8.9444 19.3794 9.063 19.2608 9.063 19.1145C9.063 18.9682 8.9444 18.8496 8.7981 18.8496C8.6518 18.8496 8.5332 18.9682 8.5332 19.1145C8.5332 19.2608 8.6518 19.3794 8.7981 19.3794Z" fill="white"/>
<path d="M8.7981 28.6138C8.9444 28.6138 9.063 28.4952 9.063 28.3489C9.063 28.2026 8.9444 28.084 8.7981 28.084C8.6518 28.084 8.5332 28.2026 8.5332 28.3489C8.5332 28.4952 8.6518 28.6138 8.7981 28.6138Z" fill="white"/>
<path d="M8.7981 37.8804C8.9444 37.8804 9.063 37.7618 9.063 37.6155C9.063 37.4692 8.9444 37.3506 8.7981 37.3506C8.6518 37.3506 8.5332 37.4692 8.5332 37.6155C8.5332 37.7618 8.6518 37.8804 8.7981 37.8804Z" fill="white"/>
<path d="M8.7981 43.8848C8.9444 43.8848 9.063 43.7662 9.063 43.6199C9.063 43.4736 8.9444 43.355 8.7981 43.355C8.6518 43.355 8.5332 43.4736 8.5332 43.6199C8.5332 43.7662 8.6518 43.8848 8.7981 43.8848Z" fill="white"/>
<path d="M8.7981 50.1074C8.9444 50.1074 9.063 49.9888 9.063 49.8425C9.063 49.6962 8.9444 49.5776 8.7981 49.5776C8.6518 49.5776 8.5332 49.6962 8.5332 49.8425C8.5332 49.9888 8.6518 50.1074 8.7981 50.1074Z" fill="white"/>
<path d="M8.7981 56.1162C8.9444 56.1162 9.063 55.9976 9.063 55.8513C9.063 55.705 8.9444 55.5864 8.7981 55.5864C8.6518 55.5864 8.5332 55.705 8.5332 55.8513C8.5332 55.9976 8.6518 56.1162 8.7981 56.1162Z" fill="white"/>
<path d="M8.7981 80.1611C8.9444 80.1611 9.063 80.0425 9.063 79.8962C9.063 79.7499 8.9444 79.6313 8.7981 79.6313C8.6518 79.6313 8.5332 79.7499 8.5332 79.8962C8.5332 80.0425 8.6518 80.1611 8.7981 80.1611Z" fill="white"/>
<path d="M9.063 86.1238C9.063 86.2679 8.94682 86.3887 8.7981 86.3887C8.64939 86.3887 8.5332 86.2725 8.5332 86.1238C8.5332 85.9751 8.64939 85.8589 8.7981 85.8589C8.94682 85.8589 9.063 85.9751 9.063 86.1238Z" fill="white"/>
<path d="M8.7981 92.4487C8.9444 92.4487 9.063 92.3301 9.063 92.1838C9.063 92.0375 8.9444 91.9189 8.7981 91.9189C8.6518 91.9189 8.5332 92.0375 8.5332 92.1838C8.5332 92.3301 8.6518 92.4487 8.7981 92.4487Z" fill="white"/>
<path d="M9.16981 101.097C9.16981 101.241 9.05363 101.362 8.90491 101.362C8.7562 101.362 8.64001 101.246 8.64001 101.097C8.64001 100.949 8.7562 100.833 8.90491 100.833C9.05363 100.833 9.16981 100.949 9.16981 101.097Z" fill="white"/>
<path d="M30.9889 101.362C30.9889 101.506 30.8727 101.627 30.724 101.627C30.5753 101.627 30.4591 101.511 30.4591 101.362C30.4591 101.213 30.5753 101.097 30.724 101.097C30.8727 101.097 30.9889 101.213 30.9889 101.362Z" fill="white"/>
<path d="M42.9883 101.627C43.1346 101.627 43.2532 101.508 43.2532 101.362C43.2532 101.216 43.1346 101.097 42.9883 101.097C42.842 101.097 42.7234 101.216 42.7234 101.362C42.7234 101.508 42.842 101.627 42.9883 101.627Z" fill="white"/>
<path d="M54.9318 101.627C55.0781 101.627 55.1967 101.508 55.1967 101.362C55.1967 101.216 55.0781 101.097 54.9318 101.097C54.7855 101.097 54.6669 101.216 54.6669 101.362C54.6669 101.508 54.7855 101.627 54.9318 101.627Z" fill="white"/>
<path d="M69.3106 73.9619C69.4569 73.9619 69.5755 73.8433 69.5755 73.697C69.5755 73.5507 69.4569 73.4321 69.3106 73.4321C69.1643 73.4321 69.0457 73.5507 69.0457 73.697C69.0457 73.8433 69.1643 73.9619 69.3106 73.9619Z" fill="white"/>
<path d="M69.3106 79.8872C69.4569 79.8872 69.5755 79.7686 69.5755 79.6223C69.5755 79.476 69.4569 79.3574 69.3106 79.3574C69.1643 79.3574 69.0457 79.476 69.0457 79.6223C69.0457 79.7686 69.1643 79.8872 69.3106 79.8872Z" fill="white"/>
<path d="M69.3106 85.7334C69.4569 85.7334 69.5755 85.6148 69.5755 85.4685C69.5755 85.3222 69.4569 85.2036 69.3106 85.2036C69.1643 85.2036 69.0457 85.3222 69.0457 85.4685C69.0457 85.6148 69.1643 85.7334 69.3106 85.7334Z" fill="white"/>
<path d="M69.3106 91.6958C69.4569 91.6958 69.5755 91.5772 69.5755 91.4309C69.5755 91.2846 69.4569 91.166 69.3106 91.166C69.1643 91.166 69.0457 91.2846 69.0457 91.4309C69.0457 91.5772 69.1643 91.6958 69.3106 91.6958Z" fill="white"/>
<path d="M69.3106 100.791C69.4569 100.791 69.5755 100.672 69.5755 100.526C69.5755 100.379 69.4569 100.261 69.3106 100.261C69.1643 100.261 69.0457 100.379 69.0457 100.526C69.0457 100.672 69.1643 100.791 69.3106 100.791Z" fill="white"/>
<path d="M9.19767 12.269L7.00415 14.6949L8.96066 17.3532L11.2099 14.9134L9.19767 12.269Z" fill="#AF0F07"/>
<path d="M68.5668 88.5034L66.3733 90.9293L68.3298 93.5922L70.5791 91.1477L68.5668 88.5034Z" fill="#AF0F07"/>
<path d="M7.56662 10.5358H8.44031C8.52396 10.5358 8.58438 10.5172 8.6262 10.4801C8.66338 10.4429 8.68662 10.3825 8.68662 10.2988V9.09053H6.39551V8.76521L9.18852 4.64307H9.51383V8.76521H10.606V9.09053H9.51383V10.2988C9.51383 10.3825 9.53243 10.4429 9.57425 10.4801C9.61143 10.5172 9.67649 10.5358 9.76014 10.5358H10.6338V10.824H7.56662V10.5358ZM6.80911 8.76986H8.68197V6.00937L6.80911 8.76986Z" fill="#A43E32"/>
<path d="M70.3978 94.8658H69.5241C69.4404 94.8658 69.38 94.8844 69.3382 94.9215C69.301 94.9587 69.2778 95.0191 69.2778 95.1028V96.3111H71.5689V96.6364L68.7759 100.759H68.4506V96.6364H67.3584V96.3111H68.4506V95.1028C68.4506 95.0191 68.432 94.9587 68.3901 94.9215C68.353 94.8844 68.2879 94.8658 68.2043 94.8658H67.3306V94.5776H70.3978V94.8658ZM71.1553 96.6317H69.2824V99.3922L71.1553 96.6317Z" fill="#AF0F07"/>
<path d="M25.9977 8.95117L19.8214 16.4565L25.9977 24.0781L32.3366 16.5169L25.9977 8.95117Z" fill="#AF0F07"/>
<path d="M25.9977 78.4604L19.8214 85.9658L25.9977 93.592L32.3366 86.0262L25.9977 78.4604Z" fill="#AF0F07"/>
<path d="M52.1805 8.95117L46.0043 16.4565L52.1805 24.0781L58.5194 16.5169L52.1805 8.95117Z" fill="#AF0F07"/>
<path d="M52.1805 78.4604L46.0043 85.9658L52.1805 93.592L58.5194 86.0262L52.1805 78.4604Z" fill="#AF0F07"/>
</svg>
