<svg width="78" height="110" viewBox="0 0 78 110" fill="none" xmlns="http://www.w3.org/2000/svg">
<path d="M3.19189 0.967054H74.9367C76.461 0.967054 77.6972 2.20323 77.6972 3.72755V106.414C77.6972 107.938 76.461 109.175 74.9367 109.175H3.19189C1.66758 109.175 0.431396 107.938 0.431396 106.414V3.72289C0.431396 2.19858 1.66758 0.962402 3.19189 0.962402V0.967054Z" fill="white"/>
<path d="M74.9368 109.23H3.19198C1.63978 109.23 0.380371 107.971 0.380371 106.419V3.73201C0.380371 2.17982 1.63978 0.92041 3.19198 0.92041H74.9368C76.489 0.92041 77.7484 2.18447 77.7484 3.73201V106.419C77.7484 107.971 76.489 109.23 74.9368 109.23ZM3.19198 1.02267C1.7002 1.02267 0.48725 2.23561 0.48725 3.72739V106.414C0.48725 107.906 1.7002 109.119 3.19198 109.119H74.9368C76.4286 109.119 77.6415 107.906 77.6415 106.414V3.72739C77.6415 2.23561 76.4286 1.02267 74.9368 1.02267H3.19198Z" fill="#65A7DD"/>
<path d="M69.6714 9.49927C69.6714 9.64334 69.5552 9.76417 69.4065 9.76417C69.2578 9.76417 69.1416 9.64799 69.1416 9.49927C69.1416 9.35056 69.2578 9.23438 69.4065 9.23438C69.5552 9.23438 69.6714 9.35056 69.6714 9.49927Z" fill="white"/>
<path d="M57.0726 9.49927C57.0726 9.64334 56.9565 9.76417 56.8077 9.76417C56.659 9.76417 56.5428 9.64799 56.5428 9.49927C56.5428 9.35056 56.659 9.23438 56.8077 9.23438C56.9565 9.23438 57.0726 9.35056 57.0726 9.49927Z" fill="white"/>
<path d="M45.4823 9.49927C45.4823 9.64334 45.3661 9.76417 45.2174 9.76417C45.0687 9.76417 44.9525 9.64799 44.9525 9.49927C44.9525 9.35056 45.0687 9.23438 45.2174 9.23438C45.3661 9.23438 45.4823 9.35056 45.4823 9.49927Z" fill="white"/>
<path d="M33.5805 9.85255C33.7267 9.85255 33.8453 9.73395 33.8453 9.58765C33.8453 9.44136 33.7267 9.32275 33.5805 9.32275C33.4342 9.32275 33.3156 9.44136 33.3156 9.58765C33.3156 9.73395 33.4342 9.85255 33.5805 9.85255Z" fill="white"/>
<path d="M69.6714 19.3235C69.6714 19.4676 69.5552 19.5884 69.4065 19.5884C69.2578 19.5884 69.1416 19.4722 69.1416 19.3235C69.1416 19.1748 69.2578 19.0586 69.4065 19.0586C69.5552 19.0586 69.6714 19.1748 69.6714 19.3235Z" fill="white"/>
<path d="M69.6714 28.2883C69.6714 28.4324 69.5552 28.5532 69.4065 28.5532C69.2578 28.5532 69.1416 28.437 69.1416 28.2883C69.1416 28.1396 69.2578 28.0234 69.4065 28.0234C69.5552 28.0234 69.6714 28.1396 69.6714 28.2883Z" fill="white"/>
<path d="M69.6714 37.6804C69.6714 37.8245 69.5552 37.9453 69.4065 37.9453C69.2578 37.9453 69.1416 37.8291 69.1416 37.6804C69.1416 37.5317 69.2578 37.4155 69.4065 37.4155C69.5552 37.4155 69.6714 37.5317 69.6714 37.6804Z" fill="white"/>
<path d="M69.6714 43.6199C69.6714 43.7639 69.5552 43.8848 69.4065 43.8848C69.2578 43.8848 69.1416 43.7686 69.1416 43.6199C69.1416 43.4712 69.2578 43.355 69.4065 43.355C69.5552 43.355 69.6714 43.4712 69.6714 43.6199Z" fill="white"/>
<path d="M69.6714 49.5823C69.6714 49.7263 69.5552 49.8472 69.4065 49.8472C69.2578 49.8472 69.1416 49.731 69.1416 49.5823C69.1416 49.4336 69.2578 49.3174 69.4065 49.3174C69.5552 49.3174 69.6714 49.4336 69.6714 49.5823Z" fill="white"/>
<path d="M8.89417 10.0293C9.04047 10.0293 9.15907 9.91071 9.15907 9.76441C9.15907 9.61811 9.04047 9.49951 8.89417 9.49951C8.74787 9.49951 8.62927 9.61811 8.62927 9.76441C8.62927 9.91071 8.74787 10.0293 8.89417 10.0293Z" fill="white"/>
<path d="M21.902 9.58765C21.902 9.73172 21.7858 9.85255 21.6371 9.85255C21.4884 9.85255 21.3722 9.73637 21.3722 9.58765C21.3722 9.43894 21.4884 9.32275 21.6371 9.32275C21.7858 9.32275 21.902 9.43894 21.902 9.58765Z" fill="white"/>
<path d="M8.89417 19.3794C9.04047 19.3794 9.15907 19.2608 9.15907 19.1145C9.15907 18.9682 9.04047 18.8496 8.89417 18.8496C8.74787 18.8496 8.62927 18.9682 8.62927 19.1145C8.62927 19.2608 8.74787 19.3794 8.89417 19.3794Z" fill="white"/>
<path d="M8.89417 28.6138C9.04047 28.6138 9.15907 28.4952 9.15907 28.3489C9.15907 28.2026 9.04047 28.084 8.89417 28.084C8.74787 28.084 8.62927 28.2026 8.62927 28.3489C8.62927 28.4952 8.74787 28.6138 8.89417 28.6138Z" fill="white"/>
<path d="M8.89417 37.8804C9.04047 37.8804 9.15907 37.7618 9.15907 37.6155C9.15907 37.4692 9.04047 37.3506 8.89417 37.3506C8.74787 37.3506 8.62927 37.4692 8.62927 37.6155C8.62927 37.7618 8.74787 37.8804 8.89417 37.8804Z" fill="white"/>
<path d="M8.89417 43.8848C9.04047 43.8848 9.15907 43.7662 9.15907 43.6199C9.15907 43.4736 9.04047 43.355 8.89417 43.355C8.74787 43.355 8.62927 43.4736 8.62927 43.6199C8.62927 43.7662 8.74787 43.8848 8.89417 43.8848Z" fill="white"/>
<path d="M8.89417 50.1074C9.04047 50.1074 9.15907 49.9888 9.15907 49.8425C9.15907 49.6962 9.04047 49.5776 8.89417 49.5776C8.74787 49.5776 8.62927 49.6962 8.62927 49.8425C8.62927 49.9888 8.74787 50.1074 8.89417 50.1074Z" fill="white"/>
<path d="M8.89417 56.1162C9.04047 56.1162 9.15907 55.9976 9.15907 55.8513C9.15907 55.705 9.04047 55.5864 8.89417 55.5864C8.74787 55.5864 8.62927 55.705 8.62927 55.8513C8.62927 55.9976 8.74787 56.1162 8.89417 56.1162Z" fill="white"/>
<path d="M8.89417 62.1206C9.04047 62.1206 9.15907 62.002 9.15907 61.8557C9.15907 61.7094 9.04047 61.5908 8.89417 61.5908C8.74787 61.5908 8.62927 61.7094 8.62927 61.8557C8.62927 62.002 8.74787 62.1206 8.89417 62.1206Z" fill="white"/>
<path d="M8.89417 68.3482C9.04047 68.3482 9.15907 68.2296 9.15907 68.0833C9.15907 67.937 9.04047 67.8184 8.89417 67.8184C8.74787 67.8184 8.62927 67.937 8.62927 68.0833C8.62927 68.2296 8.74787 68.3482 8.89417 68.3482Z" fill="white"/>
<path d="M8.89417 74.5845C9.04047 74.5845 9.15907 74.4659 9.15907 74.3196C9.15907 74.1733 9.04047 74.0547 8.89417 74.0547C8.74787 74.0547 8.62927 74.1733 8.62927 74.3196C8.62927 74.4659 8.74787 74.5845 8.89417 74.5845Z" fill="white"/>
<path d="M8.89417 80.1611C9.04047 80.1611 9.15907 80.0425 9.15907 79.8962C9.15907 79.7499 9.04047 79.6313 8.89417 79.6313C8.74787 79.6313 8.62927 79.7499 8.62927 79.8962C8.62927 80.0425 8.74787 80.1611 8.89417 80.1611Z" fill="white"/>
<path d="M9.15443 86.1238C9.15443 86.2679 9.03825 86.3887 8.88953 86.3887C8.74082 86.3887 8.62463 86.2725 8.62463 86.1238C8.62463 85.9751 8.74082 85.8589 8.88953 85.8589C9.03825 85.8589 9.15443 85.9751 9.15443 86.1238Z" fill="white"/>
<path d="M8.89417 92.4487C9.04047 92.4487 9.15907 92.3301 9.15907 92.1838C9.15907 92.0375 9.04047 91.9189 8.89417 91.9189C8.74787 91.9189 8.62927 92.0375 8.62927 92.1838C8.62927 92.3301 8.74787 92.4487 8.89417 92.4487Z" fill="white"/>
<path d="M9.00098 101.362C9.14728 101.362 9.26588 101.244 9.26588 101.097C9.26588 100.951 9.14728 100.833 9.00098 100.833C8.85469 100.833 8.73608 100.951 8.73608 101.097C8.73608 101.244 8.85469 101.362 9.00098 101.362Z" fill="white"/>
<path d="M18.5326 101.627C18.6789 101.627 18.7975 101.508 18.7975 101.362C18.7975 101.216 18.6789 101.097 18.5326 101.097C18.3863 101.097 18.2677 101.216 18.2677 101.362C18.2677 101.508 18.3863 101.627 18.5326 101.627Z" fill="white"/>
<path d="M30.8153 101.627C30.9616 101.627 31.0802 101.508 31.0802 101.362C31.0802 101.216 30.9616 101.097 30.8153 101.097C30.669 101.097 30.5504 101.216 30.5504 101.362C30.5504 101.508 30.669 101.627 30.8153 101.627Z" fill="white"/>
<path d="M43.0796 101.627C43.2259 101.627 43.3445 101.508 43.3445 101.362C43.3445 101.216 43.2259 101.097 43.0796 101.097C42.9333 101.097 42.8147 101.216 42.8147 101.362C42.8147 101.508 42.9333 101.627 43.0796 101.627Z" fill="white"/>
<path d="M55.0278 101.627C55.1741 101.627 55.2927 101.508 55.2927 101.362C55.2927 101.216 55.1741 101.097 55.0278 101.097C54.8815 101.097 54.7629 101.216 54.7629 101.362C54.7629 101.508 54.8815 101.627 55.0278 101.627Z" fill="white"/>
<path d="M69.6714 55.7073C69.6714 55.8513 69.5552 55.9722 69.4065 55.9722C69.2578 55.9722 69.1416 55.856 69.1416 55.7073C69.1416 55.5586 69.2578 55.4424 69.4065 55.4424C69.5552 55.4424 69.6714 55.5586 69.6714 55.7073Z" fill="white"/>
<path d="M69.6714 61.4329C69.6714 61.5769 69.5552 61.6978 69.4065 61.6978C69.2578 61.6978 69.1416 61.5816 69.1416 61.4329C69.1416 61.2842 69.2578 61.168 69.4065 61.168C69.5552 61.168 69.6714 61.2842 69.6714 61.4329Z" fill="white"/>
<path d="M69.6714 67.6091C69.6714 67.7532 69.5552 67.874 69.4065 67.874C69.2578 67.874 69.1416 67.7579 69.1416 67.6091C69.1416 67.4604 69.2578 67.3442 69.4065 67.3442C69.5552 67.3442 69.6714 67.4604 69.6714 67.6091Z" fill="white"/>
<path d="M69.6714 73.697C69.6714 73.8411 69.5552 73.9619 69.4065 73.9619C69.2578 73.9619 69.1416 73.8457 69.1416 73.697C69.1416 73.5483 69.2578 73.4321 69.4065 73.4321C69.5552 73.4321 69.6714 73.5483 69.6714 73.697Z" fill="white"/>
<path d="M69.6714 79.6223C69.6714 79.7664 69.5552 79.8872 69.4065 79.8872C69.2578 79.8872 69.1416 79.771 69.1416 79.6223C69.1416 79.4736 69.2578 79.3574 69.4065 79.3574C69.5552 79.3574 69.6714 79.4736 69.6714 79.6223Z" fill="white"/>
<path d="M69.6714 85.4685C69.6714 85.6125 69.5552 85.7334 69.4065 85.7334C69.2578 85.7334 69.1416 85.6172 69.1416 85.4685C69.1416 85.3198 69.2578 85.2036 69.4065 85.2036C69.5552 85.2036 69.6714 85.3198 69.6714 85.4685Z" fill="white"/>
<path d="M69.6714 91.4309C69.6714 91.575 69.5552 91.6958 69.4065 91.6958C69.2578 91.6958 69.1416 91.5796 69.1416 91.4309C69.1416 91.2822 69.2578 91.166 69.4065 91.166C69.5552 91.166 69.6714 91.2822 69.6714 91.4309Z" fill="white"/>
<path d="M69.6714 100.526C69.6714 100.67 69.5552 100.791 69.4065 100.791C69.2578 100.791 69.1416 100.674 69.1416 100.526C69.1416 100.377 69.2578 100.261 69.4065 100.261C69.5552 100.261 69.6714 100.377 69.6714 100.526Z" fill="white"/>
<path d="M7.43951 14.7412L5.24597 17.1625L7.19784 19.8253L9.45179 17.3809L7.43951 14.7412Z" fill="#AF0F07"/>
<path d="M68.9604 90.6733L66.7668 93.0992L68.7234 95.7575L70.9726 93.3176L68.9604 90.6733Z" fill="#AF0F07"/>
<path d="M6.38937 12.65C6.14307 12.5339 5.95254 12.3759 5.82242 12.1714C5.69229 11.9669 5.62256 11.7438 5.62256 11.4975C5.62256 11.214 5.69228 11.0003 5.841 10.8469C5.98506 10.6982 6.15235 10.6238 6.34753 10.6238C6.51019 10.6238 6.63567 10.675 6.72862 10.7726C6.82156 10.8701 6.86806 10.9956 6.86806 11.1443C6.86806 11.2466 6.84017 11.3395 6.77976 11.4278C6.71934 11.5161 6.64034 11.5812 6.54739 11.623C6.46374 11.6648 6.39865 11.7066 6.34753 11.7485C6.30106 11.7903 6.27319 11.8461 6.27319 11.9204C6.27319 12.111 6.34754 12.2643 6.49625 12.3712C6.64496 12.4781 6.90058 12.5339 7.26307 12.5339C7.70921 12.5339 8.02988 12.3433 8.22971 11.9576C8.42954 11.5719 8.52711 11.0886 8.52711 10.4984C8.52711 9.94535 8.42952 9.52242 8.23898 9.225C8.04845 8.93222 7.73245 8.78353 7.30025 8.78353C7.12365 8.78353 6.97493 8.8114 6.84945 8.86252C6.72397 8.91364 6.59384 9.00657 6.46372 9.1367C6.4033 9.19711 6.35221 9.27612 6.31503 9.37371C6.27785 9.47131 6.25461 9.5596 6.25461 9.62931C6.25461 9.69437 6.236 9.75015 6.20347 9.79198C6.17094 9.83381 6.12913 9.85705 6.07336 9.85705C5.97577 9.85705 5.9293 9.78267 5.9293 9.63396V6.52492L6.12913 6.37158C6.2546 6.47847 6.4405 6.5714 6.68215 6.6411C6.92381 6.71081 7.15154 6.74801 7.36067 6.74801C7.6488 6.74801 7.90905 6.72011 8.14606 6.66899C8.37843 6.61322 8.62008 6.51565 8.86639 6.37158L8.97326 6.49704C8.75484 6.78052 8.48996 7.00825 8.17394 7.17555C7.85793 7.34286 7.52331 7.43115 7.17011 7.43115C6.94704 7.43115 6.77044 7.41722 6.64032 7.38934C6.51019 7.36146 6.38009 7.31496 6.25461 7.2499V8.97405L6.31038 8.99263C6.45444 8.82533 6.63104 8.69522 6.83552 8.60228C7.04465 8.50933 7.2584 8.46286 7.48147 8.46286C8.11351 8.46286 8.60149 8.64873 8.95469 9.02051C9.30788 9.3923 9.47983 9.88493 9.47983 10.4984C9.47983 10.9352 9.37758 11.3349 9.17775 11.6881C8.97791 12.0413 8.70837 12.3201 8.36912 12.5246C8.03452 12.7244 7.66273 12.8266 7.25841 12.8266C6.92381 12.8266 6.63103 12.7662 6.38472 12.65H6.38937Z" fill="#A43E32"/>
<path d="M69.955 97.3841C70.2013 97.5003 70.3918 97.6583 70.5219 97.8628C70.652 98.0673 70.7217 98.2903 70.7217 98.5366C70.7217 98.8201 70.6521 99.0339 70.5033 99.1873C70.3593 99.336 70.192 99.4103 69.9968 99.4103C69.8341 99.4103 69.7086 99.3592 69.6157 99.2616C69.5227 99.164 69.4763 99.0385 69.4763 98.8898C69.4763 98.7876 69.5042 98.6947 69.5646 98.6064C69.625 98.5181 69.704 98.453 69.7969 98.4112C69.8806 98.3694 69.9457 98.3275 69.9968 98.2857C70.0432 98.2439 70.0711 98.1881 70.0711 98.1137C70.0711 97.9232 69.9968 97.7699 69.8481 97.663C69.6993 97.5561 69.4438 97.5003 69.0813 97.5003C68.6351 97.5003 68.3145 97.6908 68.1146 98.0766C67.9148 98.4623 67.8172 98.9456 67.8172 99.5358C67.8172 100.089 67.9148 100.512 68.1053 100.809C68.2959 101.107 68.6119 101.251 69.0441 101.251C69.2207 101.251 69.3694 101.223 69.4949 101.176C69.6203 101.125 69.7505 101.032 69.8806 100.902C69.941 100.842 69.9921 100.763 70.0293 100.665C70.0665 100.568 70.0897 100.479 70.0897 100.41C70.0897 100.344 70.1083 100.289 70.1408 100.247C70.1734 100.205 70.2152 100.182 70.271 100.182C70.3686 100.182 70.415 100.256 70.415 100.405V103.514L70.2152 103.667C70.0897 103.56 69.9038 103.467 69.6622 103.398C69.4205 103.328 69.1928 103.291 68.9837 103.291C68.6955 103.291 68.4353 103.319 68.1983 103.37C67.9659 103.426 67.7243 103.523 67.4779 103.667L67.371 103.542C67.5895 103.258 67.8544 103.031 68.1704 102.859C68.4864 102.687 68.821 102.603 69.1742 102.603C69.3973 102.603 69.5739 102.617 69.704 102.645C69.8341 102.673 69.9642 102.719 70.0897 102.784V101.06L70.034 101.042C69.8899 101.209 69.7133 101.339 69.5088 101.432C69.2997 101.525 69.0859 101.571 68.8628 101.571C68.2308 101.571 67.7428 101.385 67.3896 101.014C67.0365 100.642 66.8645 100.149 66.8645 99.5358C66.8645 99.099 66.9668 98.6993 67.1666 98.3461C67.3664 97.9929 67.636 97.7141 67.9752 97.5096C68.3098 97.3098 68.6816 97.2075 69.0859 97.2075C69.4205 97.2075 69.7133 97.2679 69.9596 97.3841H69.955Z" fill="#A43E32"/>
<path d="M24.6252 11.8599L18.4443 19.3652L24.6252 26.9914L30.9595 19.4256L24.6252 11.8599Z" fill="#AF0F07"/>
<path d="M24.6252 81.3696L18.4443 88.875L24.6252 96.5012L30.9595 88.9354L24.6252 81.3696Z" fill="#AF0F07"/>
<path d="M51.6632 11.8599L45.4869 19.3652L51.6632 26.9914L58.0021 19.4256L51.6632 11.8599Z" fill="#AF0F07"/>
<path d="M51.6632 81.3696L45.4869 88.875L51.6632 96.5012L58.0021 88.9354L51.6632 81.3696Z" fill="#AF0F07"/>
<path d="M37.8933 46.6172L31.717 54.1226L37.8933 61.7441L44.2322 54.183L37.8933 46.6172Z" fill="#AF0F07"/>
</svg>
