<svg width="78" height="110" viewBox="0 0 78 110" fill="none" xmlns="http://www.w3.org/2000/svg">
<path d="M3.28344 0.967054H75.0283C76.5526 0.967054 77.7888 2.20323 77.7888 3.72755V106.414C77.7888 107.938 76.5526 109.175 75.0283 109.175H3.28344C1.75913 109.175 0.522949 107.938 0.522949 106.414V3.72289C0.522949 2.19858 1.75913 0.962402 3.28344 0.962402V0.967054Z" fill="white"/>
<path d="M75.0284 109.23H3.28353C1.73133 109.23 0.471924 107.971 0.471924 106.419V3.73201C0.471924 2.17982 1.73133 0.92041 3.28353 0.92041H75.0284C76.5806 0.92041 77.84 2.18447 77.84 3.73201V106.419C77.84 107.971 76.5806 109.23 75.0284 109.23ZM3.28353 1.02267C1.79175 1.02267 0.578802 2.23561 0.578802 3.72739V106.414C0.578802 107.906 1.79175 109.119 3.28353 109.119H75.0284C76.5202 109.119 77.7331 107.906 77.7331 106.414V3.72739C77.7331 2.23561 76.5202 1.02267 75.0284 1.02267H3.28353Z" fill="#65A7DD"/>
<path d="M69.4981 9.76417C69.6444 9.76417 69.763 9.64557 69.763 9.49927C69.763 9.35298 69.6444 9.23438 69.4981 9.23438C69.3518 9.23438 69.2332 9.35298 69.2332 9.49927C69.2332 9.64557 69.3518 9.76417 69.4981 9.76417Z" fill="white"/>
<path d="M57.1643 9.49927C57.1643 9.64334 57.0481 9.76417 56.8994 9.76417C56.7507 9.76417 56.6345 9.64799 56.6345 9.49927C56.6345 9.35056 56.7507 9.23438 56.8994 9.23438C57.0481 9.23438 57.1643 9.35056 57.1643 9.49927Z" fill="white"/>
<path d="M45.309 9.76417C45.4553 9.76417 45.5739 9.64557 45.5739 9.49927C45.5739 9.35298 45.4553 9.23438 45.309 9.23438C45.1627 9.23438 45.0441 9.35298 45.0441 9.49927C45.0441 9.64557 45.1627 9.76417 45.309 9.76417Z" fill="white"/>
<path d="M33.9416 9.58765C33.9416 9.73172 33.8255 9.85255 33.6768 9.85255C33.5281 9.85255 33.4119 9.73637 33.4119 9.58765C33.4119 9.43894 33.5281 9.32275 33.6768 9.32275C33.8255 9.32275 33.9416 9.43894 33.9416 9.58765Z" fill="white"/>
<path d="M69.4981 19.5884C69.6444 19.5884 69.763 19.4698 69.763 19.3235C69.763 19.1772 69.6444 19.0586 69.4981 19.0586C69.3518 19.0586 69.2332 19.1772 69.2332 19.3235C69.2332 19.4698 69.3518 19.5884 69.4981 19.5884Z" fill="white"/>
<path d="M69.4981 28.5532C69.6444 28.5532 69.763 28.4346 69.763 28.2883C69.763 28.142 69.6444 28.0234 69.4981 28.0234C69.3518 28.0234 69.2332 28.142 69.2332 28.2883C69.2332 28.4346 69.3518 28.5532 69.4981 28.5532Z" fill="white"/>
<path d="M69.4981 37.9453C69.6444 37.9453 69.763 37.8267 69.763 37.6804C69.763 37.5341 69.6444 37.4155 69.4981 37.4155C69.3518 37.4155 69.2332 37.5341 69.2332 37.6804C69.2332 37.8267 69.3518 37.9453 69.4981 37.9453Z" fill="white"/>
<path d="M69.4981 43.8848C69.6444 43.8848 69.763 43.7662 69.763 43.6199C69.763 43.4736 69.6444 43.355 69.4981 43.355C69.3518 43.355 69.2332 43.4736 69.2332 43.6199C69.2332 43.7662 69.3518 43.8848 69.4981 43.8848Z" fill="white"/>
<path d="M69.4981 49.8472C69.6444 49.8472 69.763 49.7286 69.763 49.5823C69.763 49.436 69.6444 49.3174 69.4981 49.3174C69.3518 49.3174 69.2332 49.436 69.2332 49.5823C69.2332 49.7286 69.3518 49.8472 69.4981 49.8472Z" fill="white"/>
<path d="M9.25072 9.76441C9.25072 9.90848 9.13456 10.0293 8.98585 10.0293C8.83713 10.0293 8.72095 9.91312 8.72095 9.76441C8.72095 9.6157 8.83713 9.49951 8.98585 9.49951C9.13456 9.49951 9.25072 9.6157 9.25072 9.76441Z" fill="white"/>
<path d="M21.7286 9.85255C21.8749 9.85255 21.9935 9.73395 21.9935 9.58765C21.9935 9.44136 21.8749 9.32275 21.7286 9.32275C21.5823 9.32275 21.4637 9.44136 21.4637 9.58765C21.4637 9.73395 21.5823 9.85255 21.7286 9.85255Z" fill="white"/>
<path d="M9.25072 19.1145C9.25072 19.2586 9.13456 19.3794 8.98585 19.3794C8.83713 19.3794 8.72095 19.2632 8.72095 19.1145C8.72095 18.9658 8.83713 18.8496 8.98585 18.8496C9.13456 18.8496 9.25072 18.9658 9.25072 19.1145Z" fill="white"/>
<path d="M9.25072 28.3489C9.25072 28.4929 9.13456 28.6138 8.98585 28.6138C8.83713 28.6138 8.72095 28.4976 8.72095 28.3489C8.72095 28.2002 8.83713 28.084 8.98585 28.084C9.13456 28.084 9.25072 28.2002 9.25072 28.3489Z" fill="white"/>
<path d="M9.25072 37.6155C9.25072 37.7596 9.13456 37.8804 8.98585 37.8804C8.83713 37.8804 8.72095 37.7642 8.72095 37.6155C8.72095 37.4668 8.83713 37.3506 8.98585 37.3506C9.13456 37.3506 9.25072 37.4668 9.25072 37.6155Z" fill="white"/>
<path d="M9.25072 43.6199C9.25072 43.7639 9.13456 43.8848 8.98585 43.8848C8.83713 43.8848 8.72095 43.7686 8.72095 43.6199C8.72095 43.4712 8.83713 43.355 8.98585 43.355C9.13456 43.355 9.25072 43.4712 9.25072 43.6199Z" fill="white"/>
<path d="M9.25072 49.8425C9.25072 49.9866 9.13456 50.1074 8.98585 50.1074C8.83713 50.1074 8.72095 49.9912 8.72095 49.8425C8.72095 49.6938 8.83713 49.5776 8.98585 49.5776C9.13456 49.5776 9.25072 49.6938 9.25072 49.8425Z" fill="white"/>
<path d="M9.25072 55.8513C9.25072 55.9954 9.13456 56.1162 8.98585 56.1162C8.83713 56.1162 8.72095 56 8.72095 55.8513C8.72095 55.7026 8.83713 55.5864 8.98585 55.5864C9.13456 55.5864 9.25072 55.7026 9.25072 55.8513Z" fill="white"/>
<path d="M9.25072 61.8557C9.25072 61.9998 9.13456 62.1206 8.98585 62.1206C8.83713 62.1206 8.72095 62.0044 8.72095 61.8557C8.72095 61.707 8.83713 61.5908 8.98585 61.5908C9.13456 61.5908 9.25072 61.707 9.25072 61.8557Z" fill="white"/>
<path d="M9.25072 68.0833C9.25072 68.2273 9.13456 68.3482 8.98585 68.3482C8.83713 68.3482 8.72095 68.232 8.72095 68.0833C8.72095 67.9345 8.83713 67.8184 8.98585 67.8184C9.13456 67.8184 9.25072 67.9345 9.25072 68.0833Z" fill="white"/>
<path d="M9.25072 74.3196C9.25072 74.4637 9.13456 74.5845 8.98585 74.5845C8.83713 74.5845 8.72095 74.4683 8.72095 74.3196C8.72095 74.1709 8.83713 74.0547 8.98585 74.0547C9.13456 74.0547 9.25072 74.1709 9.25072 74.3196Z" fill="white"/>
<path d="M9.25072 79.8962C9.25072 80.0403 9.13456 80.1611 8.98585 80.1611C8.83713 80.1611 8.72095 80.045 8.72095 79.8962C8.72095 79.7475 8.83713 79.6313 8.98585 79.6313C9.13456 79.6313 9.25072 79.7475 9.25072 79.8962Z" fill="white"/>
<path d="M9.25072 86.1238C9.25072 86.2679 9.13456 86.3887 8.98585 86.3887C8.83713 86.3887 8.72095 86.2725 8.72095 86.1238C8.72095 85.9751 8.83713 85.8589 8.98585 85.8589C9.13456 85.8589 9.25072 85.9751 9.25072 86.1238Z" fill="white"/>
<path d="M9.25072 92.1838C9.25072 92.3279 9.13456 92.4487 8.98585 92.4487C8.83713 92.4487 8.72095 92.3326 8.72095 92.1838C8.72095 92.0351 8.83713 91.9189 8.98585 91.9189C9.13456 91.9189 9.25072 92.0351 9.25072 92.1838Z" fill="white"/>
<path d="M9.35756 101.097C9.35756 101.241 9.24137 101.362 9.09266 101.362C8.94394 101.362 8.82776 101.246 8.82776 101.097C8.82776 100.949 8.94394 100.833 9.09266 100.833C9.24137 100.833 9.35756 100.949 9.35756 101.097Z" fill="white"/>
<path d="M18.8892 101.362C18.8892 101.506 18.773 101.627 18.6243 101.627C18.4756 101.627 18.3594 101.511 18.3594 101.362C18.3594 101.213 18.4756 101.097 18.6243 101.097C18.773 101.097 18.8892 101.213 18.8892 101.362Z" fill="white"/>
<path d="M30.9116 101.627C31.0579 101.627 31.1765 101.508 31.1765 101.362C31.1765 101.216 31.0579 101.097 30.9116 101.097C30.7653 101.097 30.6467 101.216 30.6467 101.362C30.6467 101.508 30.7653 101.627 30.9116 101.627Z" fill="white"/>
<path d="M43.4408 101.362C43.4408 101.506 43.3246 101.627 43.1759 101.627C43.0272 101.627 42.911 101.511 42.911 101.362C42.911 101.213 43.0272 101.097 43.1759 101.097C43.3246 101.097 43.4408 101.213 43.4408 101.362Z" fill="white"/>
<path d="M55.3843 101.362C55.3843 101.506 55.2681 101.627 55.1194 101.627C54.9707 101.627 54.8545 101.511 54.8545 101.362C54.8545 101.213 54.9707 101.097 55.1194 101.097C55.2681 101.097 55.3843 101.213 55.3843 101.362Z" fill="white"/>
<path d="M69.4981 55.9722C69.6444 55.9722 69.763 55.8536 69.763 55.7073C69.763 55.561 69.6444 55.4424 69.4981 55.4424C69.3518 55.4424 69.2332 55.561 69.2332 55.7073C69.2332 55.8536 69.3518 55.9722 69.4981 55.9722Z" fill="white"/>
<path d="M69.4981 61.6978C69.6444 61.6978 69.763 61.5792 69.763 61.4329C69.763 61.2866 69.6444 61.168 69.4981 61.168C69.3518 61.168 69.2332 61.2866 69.2332 61.4329C69.2332 61.5792 69.3518 61.6978 69.4981 61.6978Z" fill="white"/>
<path d="M69.4981 67.874C69.6444 67.874 69.763 67.7554 69.763 67.6091C69.763 67.4628 69.6444 67.3442 69.4981 67.3442C69.3518 67.3442 69.2332 67.4628 69.2332 67.6091C69.2332 67.7554 69.3518 67.874 69.4981 67.874Z" fill="white"/>
<path d="M69.4981 73.9619C69.6444 73.9619 69.763 73.8433 69.763 73.697C69.763 73.5507 69.6444 73.4321 69.4981 73.4321C69.3518 73.4321 69.2332 73.5507 69.2332 73.697C69.2332 73.8433 69.3518 73.9619 69.4981 73.9619Z" fill="white"/>
<path d="M69.4981 79.8872C69.6444 79.8872 69.763 79.7686 69.763 79.6223C69.763 79.476 69.6444 79.3574 69.4981 79.3574C69.3518 79.3574 69.2332 79.476 69.2332 79.6223C69.2332 79.7686 69.3518 79.8872 69.4981 79.8872Z" fill="white"/>
<path d="M69.4981 85.7334C69.6444 85.7334 69.763 85.6148 69.763 85.4685C69.763 85.3222 69.6444 85.2036 69.4981 85.2036C69.3518 85.2036 69.2332 85.3222 69.2332 85.4685C69.2332 85.6148 69.3518 85.7334 69.4981 85.7334Z" fill="white"/>
<path d="M69.4981 91.6958C69.6444 91.6958 69.763 91.5772 69.763 91.4309C69.763 91.2846 69.6444 91.166 69.4981 91.166C69.3518 91.166 69.2332 91.2846 69.2332 91.4309C69.2332 91.5772 69.3518 91.6958 69.4981 91.6958Z" fill="white"/>
<path d="M69.4981 100.791C69.6444 100.791 69.763 100.672 69.763 100.526C69.763 100.379 69.6444 100.261 69.4981 100.261C69.3518 100.261 69.2332 100.379 69.2332 100.526C69.2332 100.672 69.3518 100.791 69.4981 100.791Z" fill="white"/>
<path d="M7.78202 14.1001L5.58386 16.5213L7.54035 19.1842L9.78965 16.7398L7.78202 14.1001Z" fill="#AF0F07"/>
<path d="M69.3261 90.6733L67.1326 93.0992L69.0891 95.7575L71.3384 93.3176L69.3261 90.6733Z" fill="#AF0F07"/>
<path d="M6.84328 12.4688C6.54585 12.2272 6.31814 11.8833 6.15549 11.4371C5.99283 10.991 5.91382 10.4612 5.91382 9.85705C5.91382 9.36444 5.9789 8.88112 6.10437 8.4071C6.22985 7.93308 6.41574 7.53804 6.65275 7.22667C7.08959 6.6597 7.60545 6.38086 8.19565 6.38086C8.6232 6.38086 8.96709 6.52492 9.23199 6.81305C9.32029 6.91994 9.38534 7.04078 9.42717 7.17556C9.46435 7.30568 9.48758 7.42651 9.48758 7.52875C9.48758 7.73788 9.41324 7.90983 9.26452 8.0446C9.16228 8.1329 9.04146 8.17936 8.89275 8.17936C8.74403 8.17936 8.64643 8.1236 8.56743 8.01671C8.53955 7.97489 8.51631 7.93771 8.50701 7.90053C8.49772 7.86335 8.49309 7.81688 8.49309 7.75647C8.49309 7.66817 8.53026 7.57521 8.60927 7.48692C8.66504 7.4265 8.7208 7.37537 8.78122 7.33355C8.83698 7.29637 8.87416 7.2592 8.89275 7.22202C8.91134 7.18484 8.92528 7.13837 8.92528 7.0826C8.92528 6.97572 8.86485 6.87813 8.73938 6.79913C8.6139 6.71548 8.428 6.67829 8.17705 6.67829C7.95862 6.67829 7.75416 6.74334 7.55898 6.86882C7.36379 6.9943 7.20114 7.20345 7.06637 7.50087C6.96412 7.72394 6.88512 8.00277 6.834 8.33738C6.77823 8.67663 6.75498 8.95547 6.75498 9.18319V9.5875L6.82005 9.61538C6.92693 9.38767 7.09424 9.20176 7.32196 9.05305C7.54503 8.90434 7.76344 8.83464 7.97722 8.83464C8.38153 8.83464 8.72078 8.93224 8.99497 9.13208C9.22734 9.29938 9.4086 9.52708 9.53407 9.81521C9.65955 10.1033 9.7246 10.4054 9.7246 10.7307C9.7246 11.0561 9.65491 11.3814 9.50619 11.7067C9.36213 12.0366 9.14835 12.3062 8.86952 12.5246C8.59068 12.743 8.26072 12.8499 7.88429 12.8499C7.50786 12.8499 7.15001 12.7291 6.85258 12.4874L6.84328 12.4688ZM8.67431 12.018C8.84161 11.6695 8.92063 11.2745 8.92063 10.8283C8.92063 10.3496 8.85091 9.94533 8.70684 9.62931C8.56278 9.30865 8.32112 9.15065 7.98652 9.15065C7.77739 9.15065 7.58687 9.22037 7.41956 9.35979C7.25226 9.49921 7.11747 9.69437 7.01988 9.94997C6.92228 10.2056 6.87116 10.4984 6.87116 10.8283C6.87116 11.3256 6.95016 11.7392 7.10352 12.0599C7.26153 12.3805 7.51715 12.5432 7.87964 12.5432C8.24213 12.5432 8.51166 12.3712 8.67896 12.0227L8.67431 12.018Z" fill="#A43E32"/>
<path d="M70.1813 97.57C70.4787 97.8117 70.7064 98.1556 70.869 98.6017C71.0317 99.0479 71.1107 99.5777 71.1107 100.182C71.1107 100.674 71.0456 101.158 70.9202 101.632C70.7947 102.106 70.6088 102.501 70.3718 102.812C69.9349 103.379 69.4191 103.658 68.8289 103.658C68.4013 103.658 68.0574 103.514 67.7925 103.226C67.7042 103.119 67.6392 102.998 67.5974 102.863C67.5602 102.733 67.5369 102.612 67.5369 102.51C67.5369 102.301 67.6113 102.129 67.76 101.994C67.8622 101.906 67.9831 101.859 68.1318 101.859C68.2805 101.859 68.3781 101.915 68.4571 102.022C68.485 102.064 68.5082 102.101 68.5175 102.138C68.5268 102.175 68.5315 102.222 68.5315 102.282C68.5315 102.371 68.4943 102.464 68.4153 102.552C68.3595 102.612 68.3037 102.663 68.2433 102.705C68.1875 102.742 68.1504 102.78 68.1318 102.817C68.1132 102.854 68.0992 102.9 68.0992 102.956C68.0992 103.063 68.1597 103.161 68.2851 103.24C68.4106 103.323 68.5965 103.361 68.8475 103.361C69.0659 103.361 69.2704 103.296 69.4656 103.17C69.6607 103.045 69.8234 102.835 69.9582 102.538C70.0604 102.315 70.1394 102.036 70.1905 101.701C70.2463 101.362 70.2696 101.083 70.2696 100.856V100.451L70.2045 100.423C70.0976 100.651 69.9303 100.837 69.7026 100.986C69.4795 101.135 69.2611 101.204 69.0473 101.204C68.643 101.204 68.3037 101.107 68.0296 100.907C67.7972 100.739 67.6159 100.512 67.4905 100.224C67.365 99.9355 67.2999 99.6334 67.2999 99.3081C67.2999 98.9828 67.3696 98.6575 67.5183 98.3322C67.6624 98.0023 67.8762 97.7327 68.155 97.5143C68.4338 97.2959 68.7638 97.189 69.1403 97.189C69.5167 97.189 69.8745 97.3098 70.1719 97.5514L70.1813 97.57ZM68.3502 98.0208C68.1829 98.3694 68.1039 98.7644 68.1039 99.2105C68.1039 99.6892 68.1736 100.094 68.3177 100.41C68.4618 100.73 68.7034 100.888 69.038 100.888C69.2471 100.888 69.4377 100.819 69.605 100.679C69.7723 100.54 69.9071 100.344 70.0047 100.089C70.1022 99.8333 70.1534 99.5405 70.1534 99.2105C70.1534 98.7133 70.0744 98.2997 69.921 97.979C69.763 97.6583 69.5074 97.4957 69.1449 97.4957C68.7824 97.4957 68.5129 97.6676 68.3456 98.0162L68.3502 98.0208Z" fill="#A43E32"/>
<path d="M23.6107 11.8599L17.4344 19.3652L23.6107 26.9914L29.9496 19.4256L23.6107 11.8599Z" fill="#AF0F07"/>
<path d="M23.6107 81.3696L17.4344 88.875L23.6107 96.5012L29.9496 88.9354L23.6107 81.3696Z" fill="#AF0F07"/>
<path d="M23.6107 46.6172L17.4344 54.1226L23.6107 61.7441L29.9496 54.183L23.6107 46.6172Z" fill="#AF0F07"/>
<path d="M53.6554 11.8599L47.4791 19.3652L53.6554 26.9914L59.9943 19.4256L53.6554 11.8599Z" fill="#AF0F07"/>
<path d="M53.6554 81.3696L47.4791 88.875L53.6554 96.5012L59.9943 88.9354L53.6554 81.3696Z" fill="#AF0F07"/>
<path d="M53.6554 46.6172L47.4791 54.1226L53.6554 61.7441L59.9943 54.183L53.6554 46.6172Z" fill="#AF0F07"/>
</svg>
