<svg width="78" height="110" viewBox="0 0 78 110" fill="none" xmlns="http://www.w3.org/2000/svg">
<path d="M3.37988 0.967054H75.1247C76.649 0.967054 77.8852 2.20323 77.8852 3.72755V106.414C77.8852 107.938 76.649 109.175 75.1247 109.175H3.37988C1.85556 109.175 0.619385 107.938 0.619385 106.414V3.72289C0.619385 2.19858 1.85556 0.962402 3.37988 0.962402V0.967054Z" fill="white"/>
<path d="M75.1247 109.23H3.37987C1.82768 109.23 0.568237 107.971 0.568237 106.419V3.73201C0.568237 2.17982 1.82768 0.92041 3.37987 0.92041H75.1247C76.6769 0.92041 77.9363 2.18447 77.9363 3.73201V106.419C77.9363 107.971 76.6769 109.23 75.1247 109.23ZM3.37987 1.02267C1.88809 1.02267 0.675144 2.23561 0.675144 3.72739V106.414C0.675144 107.906 1.88809 109.119 3.37987 109.119H75.1247C76.6165 109.119 77.8294 107.906 77.8294 106.414V3.72739C77.8294 2.23561 76.6165 1.02267 75.1247 1.02267H3.37987Z" fill="#65A7DD"/>
<path d="M69.8593 9.49927C69.8593 9.64334 69.7431 9.76417 69.5944 9.76417C69.4457 9.76417 69.3295 9.64799 69.3295 9.49927C69.3295 9.35056 69.4457 9.23438 69.5944 9.23438C69.7431 9.23438 69.8593 9.35056 69.8593 9.49927Z" fill="white"/>
<path d="M56.9956 9.76417C57.1419 9.76417 57.2605 9.64557 57.2605 9.49927C57.2605 9.35298 57.1419 9.23438 56.9956 9.23438C56.8493 9.23438 56.7307 9.35298 56.7307 9.49927C56.7307 9.64557 56.8493 9.76417 56.9956 9.76417Z" fill="white"/>
<path d="M45.6703 9.49927C45.6703 9.64334 45.5541 9.76417 45.4054 9.76417C45.2567 9.76417 45.1405 9.64799 45.1405 9.49927C45.1405 9.35056 45.2567 9.23438 45.4054 9.23438C45.5541 9.23438 45.6703 9.35056 45.6703 9.49927Z" fill="white"/>
<path d="M34.0335 9.58765C34.0335 9.73172 33.9173 9.85255 33.7686 9.85255C33.6198 9.85255 33.5037 9.73637 33.5037 9.58765C33.5037 9.43894 33.6198 9.32275 33.7686 9.32275C33.9173 9.32275 34.0335 9.43894 34.0335 9.58765Z" fill="white"/>
<path d="M69.8593 19.3235C69.8593 19.4676 69.7431 19.5884 69.5944 19.5884C69.4457 19.5884 69.3295 19.4722 69.3295 19.3235C69.3295 19.1748 69.4457 19.0586 69.5944 19.0586C69.7431 19.0586 69.8593 19.1748 69.8593 19.3235Z" fill="white"/>
<path d="M69.8593 28.2883C69.8593 28.4324 69.7431 28.5532 69.5944 28.5532C69.4457 28.5532 69.3295 28.437 69.3295 28.2883C69.3295 28.1396 69.4457 28.0234 69.5944 28.0234C69.7431 28.0234 69.8593 28.1396 69.8593 28.2883Z" fill="white"/>
<path d="M69.8593 37.6804C69.8593 37.8245 69.7431 37.9453 69.5944 37.9453C69.4457 37.9453 69.3295 37.8291 69.3295 37.6804C69.3295 37.5317 69.4457 37.4155 69.5944 37.4155C69.7431 37.4155 69.8593 37.5317 69.8593 37.6804Z" fill="white"/>
<path d="M69.8593 43.6199C69.8593 43.7639 69.7431 43.8848 69.5944 43.8848C69.4457 43.8848 69.3295 43.7686 69.3295 43.6199C69.3295 43.4712 69.4457 43.355 69.5944 43.355C69.7431 43.355 69.8593 43.4712 69.8593 43.6199Z" fill="white"/>
<path d="M69.8593 49.5823C69.8593 49.7263 69.7431 49.8472 69.5944 49.8472C69.4457 49.8472 69.3295 49.731 69.3295 49.5823C69.3295 49.4336 69.4457 49.3174 69.5944 49.3174C69.7431 49.3174 69.8593 49.4336 69.8593 49.5823Z" fill="white"/>
<path d="M9.08204 10.0293C9.22834 10.0293 9.34694 9.91071 9.34694 9.76441C9.34694 9.61811 9.22834 9.49951 9.08204 9.49951C8.93574 9.49951 8.81714 9.61811 8.81714 9.76441C8.81714 9.91071 8.93574 10.0293 9.08204 10.0293Z" fill="white"/>
<path d="M22.0897 9.58765C22.0897 9.73172 21.9735 9.85255 21.8248 9.85255C21.6761 9.85255 21.5599 9.73637 21.5599 9.58765C21.5599 9.43894 21.6761 9.32275 21.8248 9.32275C21.9735 9.32275 22.0897 9.43894 22.0897 9.58765Z" fill="white"/>
<path d="M9.08204 19.3794C9.22834 19.3794 9.34694 19.2608 9.34694 19.1145C9.34694 18.9682 9.22834 18.8496 9.08204 18.8496C8.93574 18.8496 8.81714 18.9682 8.81714 19.1145C8.81714 19.2608 8.93574 19.3794 9.08204 19.3794Z" fill="white"/>
<path d="M9.08204 28.6138C9.22834 28.6138 9.34694 28.4952 9.34694 28.3489C9.34694 28.2026 9.22834 28.084 9.08204 28.084C8.93574 28.084 8.81714 28.2026 8.81714 28.3489C8.81714 28.4952 8.93574 28.6138 9.08204 28.6138Z" fill="white"/>
<path d="M9.08204 37.8804C9.22834 37.8804 9.34694 37.7618 9.34694 37.6155C9.34694 37.4692 9.22834 37.3506 9.08204 37.3506C8.93574 37.3506 8.81714 37.4692 8.81714 37.6155C8.81714 37.7618 8.93574 37.8804 9.08204 37.8804Z" fill="white"/>
<path d="M9.08204 43.8848C9.22834 43.8848 9.34694 43.7662 9.34694 43.6199C9.34694 43.4736 9.22834 43.355 9.08204 43.355C8.93574 43.355 8.81714 43.4736 8.81714 43.6199C8.81714 43.7662 8.93574 43.8848 9.08204 43.8848Z" fill="white"/>
<path d="M9.08204 50.1074C9.22834 50.1074 9.34694 49.9888 9.34694 49.8425C9.34694 49.6962 9.22834 49.5776 9.08204 49.5776C8.93574 49.5776 8.81714 49.6962 8.81714 49.8425C8.81714 49.9888 8.93574 50.1074 9.08204 50.1074Z" fill="white"/>
<path d="M9.08204 56.1162C9.22834 56.1162 9.34694 55.9976 9.34694 55.8513C9.34694 55.705 9.22834 55.5864 9.08204 55.5864C8.93574 55.5864 8.81714 55.705 8.81714 55.8513C8.81714 55.9976 8.93574 56.1162 9.08204 56.1162Z" fill="white"/>
<path d="M9.08204 62.1206C9.22834 62.1206 9.34694 62.002 9.34694 61.8557C9.34694 61.7094 9.22834 61.5908 9.08204 61.5908C8.93574 61.5908 8.81714 61.7094 8.81714 61.8557C8.81714 62.002 8.93574 62.1206 9.08204 62.1206Z" fill="white"/>
<path d="M9.08204 68.3482C9.22834 68.3482 9.34694 68.2296 9.34694 68.0833C9.34694 67.937 9.22834 67.8184 9.08204 67.8184C8.93574 67.8184 8.81714 67.937 8.81714 68.0833C8.81714 68.2296 8.93574 68.3482 9.08204 68.3482Z" fill="white"/>
<path d="M9.08204 74.5845C9.22834 74.5845 9.34694 74.4659 9.34694 74.3196C9.34694 74.1733 9.22834 74.0547 9.08204 74.0547C8.93574 74.0547 8.81714 74.1733 8.81714 74.3196C8.81714 74.4659 8.93574 74.5845 9.08204 74.5845Z" fill="white"/>
<path d="M9.08204 80.1611C9.22834 80.1611 9.34694 80.0425 9.34694 79.8962C9.34694 79.7499 9.22834 79.6313 9.08204 79.6313C8.93574 79.6313 8.81714 79.7499 8.81714 79.8962C8.81714 80.0425 8.93574 80.1611 9.08204 80.1611Z" fill="white"/>
<path d="M9.34694 86.1238C9.34694 86.2679 9.23075 86.3887 9.08204 86.3887C8.93332 86.3887 8.81714 86.2725 8.81714 86.1238C8.81714 85.9751 8.93332 85.8589 9.08204 85.8589C9.23075 85.8589 9.34694 85.9751 9.34694 86.1238Z" fill="white"/>
<path d="M9.08204 92.4487C9.22834 92.4487 9.34694 92.3301 9.34694 92.1838C9.34694 92.0375 9.22834 91.9189 9.08204 91.9189C8.93574 91.9189 8.81714 92.0375 8.81714 92.1838C8.81714 92.3301 8.93574 92.4487 9.08204 92.4487Z" fill="white"/>
<path d="M9.18897 101.362C9.33527 101.362 9.45384 101.244 9.45384 101.097C9.45384 100.951 9.33527 100.833 9.18897 100.833C9.04267 100.833 8.92407 100.951 8.92407 101.097C8.92407 101.244 9.04267 101.362 9.18897 101.362Z" fill="white"/>
<path d="M18.9855 101.362C18.9855 101.506 18.8693 101.627 18.7206 101.627C18.5718 101.627 18.4557 101.511 18.4557 101.362C18.4557 101.213 18.5718 101.097 18.7206 101.097C18.8693 101.097 18.9855 101.213 18.9855 101.362Z" fill="white"/>
<path d="M31.2682 101.362C31.2682 101.506 31.152 101.627 31.0033 101.627C30.8546 101.627 30.7384 101.511 30.7384 101.362C30.7384 101.213 30.8546 101.097 31.0033 101.097C31.152 101.097 31.2682 101.213 31.2682 101.362Z" fill="white"/>
<path d="M43.5325 101.362C43.5325 101.506 43.4163 101.627 43.2676 101.627C43.1189 101.627 43.0027 101.511 43.0027 101.362C43.0027 101.213 43.1189 101.097 43.2676 101.097C43.4163 101.097 43.5325 101.213 43.5325 101.362Z" fill="white"/>
<path d="M55.2157 101.627C55.362 101.627 55.4806 101.508 55.4806 101.362C55.4806 101.216 55.362 101.097 55.2157 101.097C55.0694 101.097 54.9508 101.216 54.9508 101.362C54.9508 101.508 55.0694 101.627 55.2157 101.627Z" fill="white"/>
<path d="M69.8593 55.7073C69.8593 55.8513 69.7431 55.9722 69.5944 55.9722C69.4457 55.9722 69.3295 55.856 69.3295 55.7073C69.3295 55.5586 69.4457 55.4424 69.5944 55.4424C69.7431 55.4424 69.8593 55.5586 69.8593 55.7073Z" fill="white"/>
<path d="M69.8593 61.4329C69.8593 61.5769 69.7431 61.6978 69.5944 61.6978C69.4457 61.6978 69.3295 61.5816 69.3295 61.4329C69.3295 61.2842 69.4457 61.168 69.5944 61.168C69.7431 61.168 69.8593 61.2842 69.8593 61.4329Z" fill="white"/>
<path d="M69.8593 67.6091C69.8593 67.7532 69.7431 67.874 69.5944 67.874C69.4457 67.874 69.3295 67.7579 69.3295 67.6091C69.3295 67.4604 69.4457 67.3442 69.5944 67.3442C69.7431 67.3442 69.8593 67.4604 69.8593 67.6091Z" fill="white"/>
<path d="M69.8593 73.697C69.8593 73.8411 69.7431 73.9619 69.5944 73.9619C69.4457 73.9619 69.3295 73.8457 69.3295 73.697C69.3295 73.5483 69.4457 73.4321 69.5944 73.4321C69.7431 73.4321 69.8593 73.5483 69.8593 73.697Z" fill="white"/>
<path d="M69.8593 79.6223C69.8593 79.7664 69.7431 79.8872 69.5944 79.8872C69.4457 79.8872 69.3295 79.771 69.3295 79.6223C69.3295 79.4736 69.4457 79.3574 69.5944 79.3574C69.7431 79.3574 69.8593 79.4736 69.8593 79.6223Z" fill="white"/>
<path d="M69.8593 85.4685C69.8593 85.6125 69.7431 85.7334 69.5944 85.7334C69.4457 85.7334 69.3295 85.6172 69.3295 85.4685C69.3295 85.3198 69.4457 85.2036 69.5944 85.2036C69.7431 85.2036 69.8593 85.3198 69.8593 85.4685Z" fill="white"/>
<path d="M69.8593 91.4309C69.8593 91.575 69.7431 91.6958 69.5944 91.6958C69.4457 91.6958 69.3295 91.5796 69.3295 91.4309C69.3295 91.2822 69.4457 91.166 69.5944 91.166C69.7431 91.166 69.8593 91.2822 69.8593 91.4309Z" fill="white"/>
<path d="M69.8593 100.526C69.8593 100.67 69.7431 100.791 69.5944 100.791C69.4457 100.791 69.3295 100.674 69.3295 100.526C69.3295 100.377 69.4457 100.261 69.5944 100.261C69.7431 100.261 69.8593 100.377 69.8593 100.526Z" fill="white"/>
<path d="M8.12467 14.1001L5.92651 16.5213L7.88303 19.1842L10.1323 16.7398L8.12467 14.1001Z" fill="#AF0F07"/>
<path d="M69.6361 90.6738L67.4426 93.0997L69.3991 95.758L71.6484 93.3181L69.6361 90.6738Z" fill="#AF0F07"/>
<path d="M7.56709 12.5945C7.43696 12.4365 7.37191 12.2274 7.37191 11.9625C7.37191 11.6 7.46021 11.2329 7.63681 10.8472C7.8134 10.4661 8.04113 10.0757 8.31532 9.68069L9.03565 8.64432C9.16577 8.45843 9.27731 8.25861 9.36561 8.04483C9.45391 7.83105 9.49572 7.64516 9.49572 7.4918C9.49572 7.4035 9.47247 7.33843 9.426 7.3059C9.37953 7.27337 9.30984 7.25479 9.21224 7.25479H7.34868C7.10702 7.25479 6.93973 7.30592 6.83749 7.41281C6.73989 7.51969 6.67018 7.66839 6.633 7.85893L6.5354 8.38873H6.33557L6.46106 6.51123H9.92326C9.92326 6.8226 9.8768 7.18044 9.78385 7.58475C9.69091 7.98907 9.53289 8.3562 9.30982 8.68616L8.79398 9.46225C8.54767 9.82474 8.4222 10.2151 8.4222 10.6334C8.4222 10.8936 8.44079 11.1167 8.47796 11.3072L8.53373 11.6232C8.5802 11.8649 8.6081 12.074 8.6081 12.2553C8.6081 12.6364 8.4315 12.8223 8.0783 12.8223C7.85988 12.8223 7.68794 12.7433 7.56246 12.5899L7.56709 12.5945Z" fill="#A43E32"/>
<path d="M70.1427 97.4445C70.2728 97.6025 70.3379 97.8116 70.3379 98.0765C70.3379 98.439 70.2496 98.8062 70.073 99.1919C69.8964 99.573 69.6687 99.9633 69.3945 100.358L68.6741 101.395C68.544 101.581 68.4325 101.78 68.3442 101.994C68.2559 102.208 68.214 102.394 68.214 102.547C68.214 102.636 68.2373 102.701 68.2838 102.733C68.3302 102.766 68.4 102.784 68.4975 102.784H70.3611C70.6028 102.784 70.7701 102.733 70.8723 102.626C70.9699 102.519 71.0396 102.371 71.0768 102.18L71.1744 101.65H71.3742L71.2487 103.528H67.7865C67.7865 103.216 67.833 102.859 67.9259 102.454C68.0189 102.05 68.1769 101.683 68.3999 101.353L68.9158 100.577C69.1621 100.214 69.2829 99.8239 69.2829 99.4057C69.2829 99.1454 69.2644 98.9224 69.2272 98.7318L69.1714 98.4158C69.1249 98.1741 69.1017 97.965 69.1017 97.7838C69.1017 97.4027 69.2783 97.2168 69.6315 97.2168C69.8499 97.2168 70.0219 97.2958 70.152 97.4492L70.1427 97.4445Z" fill="#A43E32"/>
<path d="M23.9207 11.8604L17.7445 19.3657L23.9207 26.9919L30.2597 19.4261L23.9207 11.8604Z" fill="#AF0F07"/>
<path d="M38.9454 26.9409L32.7645 34.4416L38.9454 42.0679L45.2797 34.5021L38.9454 26.9409Z" fill="#AF0F07"/>
<path d="M23.9207 81.3696L17.7445 88.875L23.9207 96.5012L30.2597 88.9354L23.9207 81.3696Z" fill="#AF0F07"/>
<path d="M23.9207 46.6172L17.7445 54.1226L23.9207 61.7441L30.2597 54.183L23.9207 46.6172Z" fill="#AF0F07"/>
<path d="M53.9655 11.8604L47.7893 19.3657L53.9655 26.9919L60.3045 19.4261L53.9655 11.8604Z" fill="#AF0F07"/>
<path d="M53.9655 81.3696L47.7893 88.875L53.9655 96.5012L60.3045 88.9354L53.9655 81.3696Z" fill="#AF0F07"/>
<path d="M53.9655 46.6172L47.7893 54.1226L53.9655 61.7441L60.3045 54.183L53.9655 46.6172Z" fill="#AF0F07"/>
</svg>
