<svg width="79" height="110" viewBox="0 0 79 110" fill="none" xmlns="http://www.w3.org/2000/svg">
<path d="M3.47607 0.967054H75.2209C76.7453 0.967054 77.9814 2.20323 77.9814 3.72755V106.414C77.9814 107.938 76.7453 109.175 75.2209 109.175H3.47607C1.95176 109.175 0.715576 107.938 0.715576 106.414V3.72289C0.715576 2.19858 1.95176 0.962402 3.47607 0.962402V0.967054Z" fill="white"/>
<path d="M75.221 109.23H3.47615C1.92396 109.23 0.664551 107.971 0.664551 106.419V3.73201C0.664551 2.17982 1.92396 0.92041 3.47615 0.92041H75.221C76.7732 0.92041 78.0326 2.18447 78.0326 3.73201V106.419C78.0326 107.971 76.7732 109.23 75.221 109.23ZM3.47615 1.02267C1.98438 1.02267 0.771429 2.23561 0.771429 3.72739V106.414C0.771429 107.906 1.98438 109.119 3.47615 109.119H75.221C76.7128 109.119 77.9257 107.906 77.9257 106.414V3.72739C77.9257 2.23561 76.7128 1.02267 75.221 1.02267H3.47615Z" fill="#65A7DD"/>
<path d="M69.9556 9.49927C69.9556 9.64334 69.8394 9.76417 69.6907 9.76417C69.542 9.76417 69.4258 9.64799 69.4258 9.49927C69.4258 9.35056 69.542 9.23438 69.6907 9.23438C69.8394 9.23438 69.9556 9.35056 69.9556 9.49927Z" fill="white"/>
<path d="M57.092 9.76417C57.2383 9.76417 57.3568 9.64557 57.3568 9.49927C57.3568 9.35298 57.2383 9.23438 57.092 9.23438C56.9457 9.23438 56.827 9.35298 56.827 9.49927C56.827 9.64557 56.9457 9.76417 57.092 9.76417Z" fill="white"/>
<path d="M45.7666 9.49927C45.7666 9.64334 45.6504 9.76417 45.5017 9.76417C45.353 9.76417 45.2368 9.64799 45.2368 9.49927C45.2368 9.35056 45.353 9.23438 45.5017 9.23438C45.6504 9.23438 45.7666 9.35056 45.7666 9.49927Z" fill="white"/>
<path d="M33.8649 9.85255C34.0112 9.85255 34.1298 9.73395 34.1298 9.58765C34.1298 9.44136 34.0112 9.32275 33.8649 9.32275C33.7186 9.32275 33.6 9.44136 33.6 9.58765C33.6 9.73395 33.7186 9.85255 33.8649 9.85255Z" fill="white"/>
<path d="M69.9556 19.3235C69.9556 19.4676 69.8394 19.5884 69.6907 19.5884C69.542 19.5884 69.4258 19.4722 69.4258 19.3235C69.4258 19.1748 69.542 19.0586 69.6907 19.0586C69.8394 19.0586 69.9556 19.1748 69.9556 19.3235Z" fill="white"/>
<path d="M69.9556 28.2883C69.9556 28.4324 69.8394 28.5532 69.6907 28.5532C69.542 28.5532 69.4258 28.437 69.4258 28.2883C69.4258 28.1396 69.542 28.0234 69.6907 28.0234C69.8394 28.0234 69.9556 28.1396 69.9556 28.2883Z" fill="white"/>
<path d="M69.9556 37.6804C69.9556 37.8245 69.8394 37.9453 69.6907 37.9453C69.542 37.9453 69.4258 37.8291 69.4258 37.6804C69.4258 37.5317 69.542 37.4155 69.6907 37.4155C69.8394 37.4155 69.9556 37.5317 69.9556 37.6804Z" fill="white"/>
<path d="M69.9556 43.6199C69.9556 43.7639 69.8394 43.8848 69.6907 43.8848C69.542 43.8848 69.4258 43.7686 69.4258 43.6199C69.4258 43.4712 69.542 43.355 69.6907 43.355C69.8394 43.355 69.9556 43.4712 69.9556 43.6199Z" fill="white"/>
<path d="M69.9556 49.5823C69.9556 49.7263 69.8394 49.8472 69.6907 49.8472C69.542 49.8472 69.4258 49.731 69.4258 49.5823C69.4258 49.4336 69.542 49.3174 69.6907 49.3174C69.8394 49.3174 69.9556 49.4336 69.9556 49.5823Z" fill="white"/>
<path d="M9.17371 10.0293C9.32001 10.0293 9.43861 9.91071 9.43861 9.76441C9.43861 9.61811 9.32001 9.49951 9.17371 9.49951C9.02741 9.49951 8.90881 9.61811 8.90881 9.76441C8.90881 9.91071 9.02741 10.0293 9.17371 10.0293Z" fill="white"/>
<path d="M21.9213 9.85255C22.0676 9.85255 22.1862 9.73395 22.1862 9.58765C22.1862 9.44136 22.0676 9.32275 21.9213 9.32275C21.775 9.32275 21.6564 9.44136 21.6564 9.58765C21.6564 9.73395 21.775 9.85255 21.9213 9.85255Z" fill="white"/>
<path d="M9.17371 19.3794C9.32001 19.3794 9.43861 19.2608 9.43861 19.1145C9.43861 18.9682 9.32001 18.8496 9.17371 18.8496C9.02741 18.8496 8.90881 18.9682 8.90881 19.1145C8.90881 19.2608 9.02741 19.3794 9.17371 19.3794Z" fill="white"/>
<path d="M9.17371 28.6138C9.32001 28.6138 9.43861 28.4952 9.43861 28.3489C9.43861 28.2026 9.32001 28.084 9.17371 28.084C9.02741 28.084 8.90881 28.2026 8.90881 28.3489C8.90881 28.4952 9.02741 28.6138 9.17371 28.6138Z" fill="white"/>
<path d="M9.17371 37.8804C9.32001 37.8804 9.43861 37.7618 9.43861 37.6155C9.43861 37.4692 9.32001 37.3506 9.17371 37.3506C9.02741 37.3506 8.90881 37.4692 8.90881 37.6155C8.90881 37.7618 9.02741 37.8804 9.17371 37.8804Z" fill="white"/>
<path d="M9.17371 43.8848C9.32001 43.8848 9.43861 43.7662 9.43861 43.6199C9.43861 43.4736 9.32001 43.355 9.17371 43.355C9.02741 43.355 8.90881 43.4736 8.90881 43.6199C8.90881 43.7662 9.02741 43.8848 9.17371 43.8848Z" fill="white"/>
<path d="M9.17371 50.1074C9.32001 50.1074 9.43861 49.9888 9.43861 49.8425C9.43861 49.6962 9.32001 49.5776 9.17371 49.5776C9.02741 49.5776 8.90881 49.6962 8.90881 49.8425C8.90881 49.9888 9.02741 50.1074 9.17371 50.1074Z" fill="white"/>
<path d="M9.17371 56.1162C9.32001 56.1162 9.43861 55.9976 9.43861 55.8513C9.43861 55.705 9.32001 55.5864 9.17371 55.5864C9.02741 55.5864 8.90881 55.705 8.90881 55.8513C8.90881 55.9976 9.02741 56.1162 9.17371 56.1162Z" fill="white"/>
<path d="M9.17371 62.1206C9.32001 62.1206 9.43861 62.002 9.43861 61.8557C9.43861 61.7094 9.32001 61.5908 9.17371 61.5908C9.02741 61.5908 8.90881 61.7094 8.90881 61.8557C8.90881 62.002 9.02741 62.1206 9.17371 62.1206Z" fill="white"/>
<path d="M9.17371 68.3482C9.32001 68.3482 9.43861 68.2296 9.43861 68.0833C9.43861 67.937 9.32001 67.8184 9.17371 67.8184C9.02741 67.8184 8.90881 67.937 8.90881 68.0833C8.90881 68.2296 9.02741 68.3482 9.17371 68.3482Z" fill="white"/>
<path d="M9.17371 74.5845C9.32001 74.5845 9.43861 74.4659 9.43861 74.3196C9.43861 74.1733 9.32001 74.0547 9.17371 74.0547C9.02741 74.0547 8.90881 74.1733 8.90881 74.3196C8.90881 74.4659 9.02741 74.5845 9.17371 74.5845Z" fill="white"/>
<path d="M9.17371 80.1611C9.32001 80.1611 9.43861 80.0425 9.43861 79.8962C9.43861 79.7499 9.32001 79.6313 9.17371 79.6313C9.02741 79.6313 8.90881 79.7499 8.90881 79.8962C8.90881 80.0425 9.02741 80.1611 9.17371 80.1611Z" fill="white"/>
<path d="M9.43861 86.1238C9.43861 86.2679 9.32243 86.3887 9.17371 86.3887C9.025 86.3887 8.90881 86.2725 8.90881 86.1238C8.90881 85.9751 9.025 85.8589 9.17371 85.8589C9.32243 85.8589 9.43861 85.9751 9.43861 86.1238Z" fill="white"/>
<path d="M9.17371 92.4487C9.32001 92.4487 9.43861 92.3301 9.43861 92.1838C9.43861 92.0375 9.32001 91.9189 9.17371 91.9189C9.02741 91.9189 8.90881 92.0375 8.90881 92.1838C8.90881 92.3301 9.02741 92.4487 9.17371 92.4487Z" fill="white"/>
<path d="M9.28062 101.362C9.42692 101.362 9.54552 101.244 9.54552 101.097C9.54552 100.951 9.42692 100.833 9.28062 100.833C9.13432 100.833 9.01575 100.951 9.01575 101.097C9.01575 101.244 9.13432 101.362 9.28062 101.362Z" fill="white"/>
<path d="M18.8169 101.627C18.9632 101.627 19.0818 101.508 19.0818 101.362C19.0818 101.216 18.9632 101.097 18.8169 101.097C18.6706 101.097 18.552 101.216 18.552 101.362C18.552 101.508 18.6706 101.627 18.8169 101.627Z" fill="white"/>
<path d="M31.0996 101.627C31.2459 101.627 31.3645 101.508 31.3645 101.362C31.3645 101.216 31.2459 101.097 31.0996 101.097C30.9533 101.097 30.8347 101.216 30.8347 101.362C30.8347 101.508 30.9533 101.627 31.0996 101.627Z" fill="white"/>
<path d="M43.3639 101.627C43.5102 101.627 43.6287 101.508 43.6287 101.362C43.6287 101.216 43.5102 101.097 43.3639 101.097C43.2176 101.097 43.099 101.216 43.099 101.362C43.099 101.508 43.2176 101.627 43.3639 101.627Z" fill="white"/>
<path d="M55.312 101.627C55.4583 101.627 55.5769 101.508 55.5769 101.362C55.5769 101.216 55.4583 101.097 55.312 101.097C55.1657 101.097 55.0471 101.216 55.0471 101.362C55.0471 101.508 55.1657 101.627 55.312 101.627Z" fill="white"/>
<path d="M69.9556 55.7073C69.9556 55.8513 69.8394 55.9722 69.6907 55.9722C69.542 55.9722 69.4258 55.856 69.4258 55.7073C69.4258 55.5586 69.542 55.4424 69.6907 55.4424C69.8394 55.4424 69.9556 55.5586 69.9556 55.7073Z" fill="white"/>
<path d="M69.9556 61.4329C69.9556 61.5769 69.8394 61.6978 69.6907 61.6978C69.542 61.6978 69.4258 61.5816 69.4258 61.4329C69.4258 61.2842 69.542 61.168 69.6907 61.168C69.8394 61.168 69.9556 61.2842 69.9556 61.4329Z" fill="white"/>
<path d="M69.9556 67.6091C69.9556 67.7532 69.8394 67.874 69.6907 67.874C69.542 67.874 69.4258 67.7579 69.4258 67.6091C69.4258 67.4604 69.542 67.3442 69.6907 67.3442C69.8394 67.3442 69.9556 67.4604 69.9556 67.6091Z" fill="white"/>
<path d="M69.9556 73.697C69.9556 73.8411 69.8394 73.9619 69.6907 73.9619C69.542 73.9619 69.4258 73.8457 69.4258 73.697C69.4258 73.5483 69.542 73.4321 69.6907 73.4321C69.8394 73.4321 69.9556 73.5483 69.9556 73.697Z" fill="white"/>
<path d="M69.9556 79.6223C69.9556 79.7664 69.8394 79.8872 69.6907 79.8872C69.542 79.8872 69.4258 79.771 69.4258 79.6223C69.4258 79.4736 69.542 79.3574 69.6907 79.3574C69.8394 79.3574 69.9556 79.4736 69.9556 79.6223Z" fill="white"/>
<path d="M69.9556 85.4685C69.9556 85.6125 69.8394 85.7334 69.6907 85.7334C69.542 85.7334 69.4258 85.6172 69.4258 85.4685C69.4258 85.3198 69.542 85.2036 69.6907 85.2036C69.8394 85.2036 69.9556 85.3198 69.9556 85.4685Z" fill="white"/>
<path d="M69.9556 91.4309C69.9556 91.575 69.8394 91.6958 69.6907 91.6958C69.542 91.6958 69.4258 91.5796 69.4258 91.4309C69.4258 91.2822 69.542 91.166 69.6907 91.166C69.8394 91.166 69.9556 91.2822 69.9556 91.4309Z" fill="white"/>
<path d="M69.9556 100.526C69.9556 100.67 69.8394 100.791 69.6907 100.791C69.542 100.791 69.4258 100.674 69.4258 100.526C69.4258 100.377 69.542 100.261 69.6907 100.261C69.8394 100.261 69.9556 100.377 69.9556 100.526Z" fill="white"/>
<path d="M8.46282 14.1001L6.26929 16.5213L8.22581 19.1842L10.4751 16.7398L8.46282 14.1001Z" fill="#AF0F07"/>
<path d="M70.1324 90.6733L67.9342 93.0992L69.8907 95.7575L72.14 93.3176L70.1324 90.6733Z" fill="#AF0F07"/>
<path d="M7.42189 12.6222C7.11982 12.4827 6.87354 12.2829 6.69229 12.0273C6.51105 11.7671 6.41809 11.465 6.41809 11.1164C6.41809 10.6796 6.54356 10.3357 6.78987 10.0894C7.03617 9.84311 7.29642 9.68043 7.57526 9.60143V9.56427L7.47769 9.51778C7.15702 9.38765 6.91536 9.19246 6.74806 8.93221C6.58076 8.67197 6.49709 8.37454 6.49709 8.03064C6.49709 7.71927 6.59468 7.43581 6.78522 7.18021C6.97576 6.9246 7.22673 6.72476 7.53345 6.58534C7.84017 6.44592 8.15619 6.37158 8.49079 6.37158C8.89975 6.37158 9.2483 6.44593 9.53178 6.59464C9.81526 6.74336 10.0337 6.93389 10.1778 7.1709C10.3218 7.40791 10.3962 7.65887 10.3962 7.92376C10.3962 8.24907 10.2939 8.52791 10.0848 8.76492C9.87568 9.00193 9.63402 9.18317 9.35983 9.30864V9.34583L9.56897 9.42948C10.28 9.71761 10.6332 10.173 10.6332 10.7911C10.6332 11.1629 10.5495 11.5068 10.3776 11.8135C10.2056 12.1249 9.95468 12.3712 9.62008 12.5525C9.28547 12.7337 8.89045 12.8266 8.42572 12.8266C8.07253 12.8266 7.74257 12.757 7.4405 12.6175L7.42189 12.6222ZM9.31799 12.334C9.52712 12.1946 9.68047 12.0273 9.77342 11.8321C9.86637 11.637 9.91286 11.4511 9.91286 11.2791C9.91286 10.9445 9.83849 10.6935 9.68977 10.5309C9.54106 10.3682 9.32731 10.2288 9.04382 10.1173L7.82623 9.6758C7.57993 9.77804 7.38936 9.94069 7.24995 10.1638C7.11053 10.3868 7.04084 10.7121 7.04084 11.1397C7.04084 11.6183 7.18491 11.9762 7.47769 12.2039C7.77047 12.4316 8.10969 12.5478 8.50007 12.5478C8.83002 12.5478 9.09957 12.4781 9.31334 12.3387L9.31799 12.334ZM9.64331 8.71846C9.7502 8.50933 9.80595 8.26301 9.80595 7.97953C9.80595 7.73322 9.74556 7.51014 9.62473 7.30566C9.5039 7.10583 9.34588 6.94784 9.1414 6.83166C8.94156 6.71548 8.7185 6.65971 8.47684 6.65971C8.10505 6.65971 7.78905 6.7666 7.53345 6.97572C7.27785 7.18485 7.15237 7.46834 7.15237 7.81688C7.15237 8.06784 7.21277 8.27231 7.33824 8.42102C7.46372 8.56974 7.65426 8.69987 7.91916 8.80676L9.08098 9.24826C9.34587 9.10419 9.53177 8.92758 9.63866 8.71381L9.64331 8.71846Z" fill="#A43E32"/>
<path d="M70.9736 97.4164C71.2757 97.5558 71.522 97.7557 71.7032 98.0113C71.8845 98.2715 71.9774 98.5736 71.9774 98.9221C71.9774 99.359 71.852 99.7029 71.6056 99.9492C71.3593 100.195 71.0991 100.358 70.8202 100.437V100.474L70.9179 100.521C71.2385 100.651 71.4802 100.846 71.6475 101.106C71.8148 101.367 71.8984 101.664 71.8984 102.008C71.8984 102.319 71.8008 102.603 71.6103 102.858C71.4198 103.114 71.1688 103.314 70.8621 103.453C70.5554 103.593 70.2393 103.667 69.9047 103.667C69.4958 103.667 69.1472 103.593 68.8637 103.444C68.5802 103.295 68.3618 103.105 68.2178 102.868C68.0737 102.631 67.9993 102.38 67.9993 102.115C67.9993 101.789 68.1016 101.511 68.3107 101.274C68.5199 101.037 68.7615 100.855 69.0357 100.73V100.693L68.8266 100.609C68.1155 100.321 67.7623 99.8655 67.7623 99.2474C67.7623 98.8756 67.846 98.5317 68.018 98.225C68.1899 97.9137 68.4409 97.6674 68.7755 97.4861C69.1101 97.3049 69.5051 97.2119 69.9698 97.2119C70.323 97.2119 70.6529 97.2816 70.955 97.421L70.9736 97.4164ZM69.0775 97.7045C68.8684 97.8439 68.715 98.0113 68.6221 98.2064C68.5291 98.4016 68.4827 98.5875 68.4827 98.7595C68.4827 99.0941 68.557 99.345 68.7057 99.5077C68.8545 99.6703 69.0682 99.8098 69.3517 99.9213L70.5693 100.363C70.8156 100.261 71.0062 100.098 71.1456 99.8748C71.285 99.6517 71.3547 99.3264 71.3547 98.8989C71.3547 98.4202 71.2106 98.0624 70.9179 97.8347C70.6251 97.6069 70.2858 97.4907 69.8954 97.4907C69.5655 97.4907 69.2959 97.5605 69.0821 97.6999L69.0775 97.7045ZM68.7522 101.32C68.6453 101.529 68.5896 101.776 68.5896 102.059C68.5896 102.305 68.65 102.528 68.7708 102.733C68.8916 102.933 69.0496 103.091 69.2541 103.207C69.4539 103.323 69.677 103.379 69.9187 103.379C70.2905 103.379 70.6065 103.272 70.8621 103.063C71.1177 102.854 71.2431 102.57 71.2431 102.222C71.2431 101.971 71.1827 101.766 71.0572 101.618C70.9318 101.469 70.7412 101.339 70.4763 101.232L69.3145 100.79C69.0496 100.934 68.8637 101.111 68.7569 101.325L68.7522 101.32Z" fill="#A43E32"/>
<path d="M24.2312 11.8599L18.0503 19.3652L24.2312 26.9914L30.5654 19.4256L24.2312 11.8599Z" fill="#AF0F07"/>
<path d="M39.2512 26.9404L33.075 34.4412L39.2512 42.0674L45.5901 34.5016L39.2512 26.9404Z" fill="#AF0F07"/>
<path d="M39.2512 66.1914L33.075 73.6968L39.2512 81.3183L45.5901 73.7572L39.2512 66.1914Z" fill="#AF0F07"/>
<path d="M24.2312 81.3696L18.0503 88.875L24.2312 96.5012L30.5654 88.9354L24.2312 81.3696Z" fill="#AF0F07"/>
<path d="M24.2312 46.6172L18.0503 54.1226L24.2312 61.7441L30.5654 54.183L24.2312 46.6172Z" fill="#AF0F07"/>
<path d="M54.2758 11.8599L48.0995 19.3652L54.2758 26.9914L60.6147 19.4256L54.2758 11.8599Z" fill="#AF0F07"/>
<path d="M54.2758 81.3696L48.0995 88.875L54.2758 96.5012L60.6147 88.9354L54.2758 81.3696Z" fill="#AF0F07"/>
<path d="M54.2758 46.6172L48.0995 54.1226L54.2758 61.7441L60.6147 54.183L54.2758 46.6172Z" fill="#AF0F07"/>
</svg>
