<svg width="79" height="110" viewBox="0 0 79 110" fill="none" xmlns="http://www.w3.org/2000/svg">
<path d="M3.52584 0.966797H75.2707C76.795 0.966797 78.0312 2.20298 78.0312 3.72729V106.414C78.0312 107.938 76.795 109.174 75.2707 109.174H3.52584C2.00153 109.174 0.765381 107.938 0.765381 106.414V3.72729C0.765381 2.20298 2.00153 0.966797 3.52584 0.966797Z" fill="white"/>
<path d="M75.2707 109.23H3.52581C1.97361 109.23 0.714233 107.971 0.714233 106.419V3.73201C0.714233 2.17982 1.97361 0.92041 3.52581 0.92041H75.2707C76.8229 0.92041 78.0823 2.18447 78.0823 3.73201V106.419C78.0823 107.971 76.8229 109.23 75.2707 109.23ZM3.52581 1.02267C2.03403 1.02267 0.821112 2.23561 0.821112 3.72739V106.414C0.821112 107.906 2.03403 109.119 3.52581 109.119H75.2707C76.7624 109.119 77.9754 107.906 77.9754 106.414V3.72739C77.9754 2.23561 76.7624 1.02267 75.2707 1.02267H3.52581Z" fill="#65A7DD"/>
<path d="M69.7405 9.76417C69.8868 9.76417 70.0054 9.64557 70.0054 9.49927C70.0054 9.35298 69.8868 9.23438 69.7405 9.23438C69.5942 9.23438 69.4756 9.35298 69.4756 9.49927C69.4756 9.64557 69.5942 9.76417 69.7405 9.76417Z" fill="white"/>
<path d="M57.1417 9.76417C57.288 9.76417 57.4066 9.64557 57.4066 9.49927C57.4066 9.35298 57.288 9.23438 57.1417 9.23438C56.9954 9.23438 56.8768 9.35298 56.8768 9.49927C56.8768 9.64557 56.9954 9.76417 57.1417 9.76417Z" fill="white"/>
<path d="M45.5513 9.76417C45.6976 9.76417 45.8162 9.64557 45.8162 9.49927C45.8162 9.35298 45.6976 9.23438 45.5513 9.23438C45.405 9.23438 45.2864 9.35298 45.2864 9.49927C45.2864 9.64557 45.405 9.76417 45.5513 9.76417Z" fill="white"/>
<path d="M34.1795 9.58765C34.1795 9.73172 34.0632 9.85255 33.9145 9.85255C33.7658 9.85255 33.6497 9.73637 33.6497 9.58765C33.6497 9.43894 33.7658 9.32275 33.9145 9.32275C34.0632 9.32275 34.1795 9.43894 34.1795 9.58765Z" fill="white"/>
<path d="M69.7405 19.5884C69.8868 19.5884 70.0054 19.4698 70.0054 19.3235C70.0054 19.1772 69.8868 19.0586 69.7405 19.0586C69.5942 19.0586 69.4756 19.1772 69.4756 19.3235C69.4756 19.4698 69.5942 19.5884 69.7405 19.5884Z" fill="white"/>
<path d="M69.7405 28.5532C69.8868 28.5532 70.0054 28.4346 70.0054 28.2883C70.0054 28.142 69.8868 28.0234 69.7405 28.0234C69.5942 28.0234 69.4756 28.142 69.4756 28.2883C69.4756 28.4346 69.5942 28.5532 69.7405 28.5532Z" fill="white"/>
<path d="M69.7405 37.9453C69.8868 37.9453 70.0054 37.8267 70.0054 37.6804C70.0054 37.5341 69.8868 37.4155 69.7405 37.4155C69.5942 37.4155 69.4756 37.5341 69.4756 37.6804C69.4756 37.8267 69.5942 37.9453 69.7405 37.9453Z" fill="white"/>
<path d="M69.7405 43.8848C69.8868 43.8848 70.0054 43.7662 70.0054 43.6199C70.0054 43.4736 69.8868 43.355 69.7405 43.355C69.5942 43.355 69.4756 43.4736 69.4756 43.6199C69.4756 43.7662 69.5942 43.8848 69.7405 43.8848Z" fill="white"/>
<path d="M69.7405 49.8472C69.8868 49.8472 70.0054 49.7286 70.0054 49.5823C70.0054 49.436 69.8868 49.3174 69.7405 49.3174C69.5942 49.3174 69.4756 49.436 69.4756 49.5823C69.4756 49.7286 69.5942 49.8472 69.7405 49.8472Z" fill="white"/>
<path d="M9.22813 10.0293C9.37443 10.0293 9.49305 9.91071 9.49305 9.76441C9.49305 9.61811 9.37443 9.49951 9.22813 9.49951C9.08183 9.49951 8.96326 9.61811 8.96326 9.76441C8.96326 9.91071 9.08183 10.0293 9.22813 10.0293Z" fill="white"/>
<path d="M21.971 9.85255C22.1173 9.85255 22.2359 9.73395 22.2359 9.58765C22.2359 9.44136 22.1173 9.32275 21.971 9.32275C21.8247 9.32275 21.7061 9.44136 21.7061 9.58765C21.7061 9.73395 21.8247 9.85255 21.971 9.85255Z" fill="white"/>
<path d="M9.22813 19.3794C9.37443 19.3794 9.49305 19.2608 9.49305 19.1145C9.49305 18.9682 9.37443 18.8496 9.22813 18.8496C9.08183 18.8496 8.96326 18.9682 8.96326 19.1145C8.96326 19.2608 9.08183 19.3794 9.22813 19.3794Z" fill="white"/>
<path d="M9.22813 28.6138C9.37443 28.6138 9.49305 28.4952 9.49305 28.3489C9.49305 28.2026 9.37443 28.084 9.22813 28.084C9.08183 28.084 8.96326 28.2026 8.96326 28.3489C8.96326 28.4952 9.08183 28.6138 9.22813 28.6138Z" fill="white"/>
<path d="M9.22813 37.8804C9.37443 37.8804 9.49305 37.7618 9.49305 37.6155C9.49305 37.4692 9.37443 37.3506 9.22813 37.3506C9.08183 37.3506 8.96326 37.4692 8.96326 37.6155C8.96326 37.7618 9.08183 37.8804 9.22813 37.8804Z" fill="white"/>
<path d="M9.22813 43.8848C9.37443 43.8848 9.49305 43.7662 9.49305 43.6199C9.49305 43.4736 9.37443 43.355 9.22813 43.355C9.08183 43.355 8.96326 43.4736 8.96326 43.6199C8.96326 43.7662 9.08183 43.8848 9.22813 43.8848Z" fill="white"/>
<path d="M9.22813 50.1074C9.37443 50.1074 9.49305 49.9888 9.49305 49.8425C9.49305 49.6962 9.37443 49.5776 9.22813 49.5776C9.08183 49.5776 8.96326 49.6962 8.96326 49.8425C8.96326 49.9888 9.08183 50.1074 9.22813 50.1074Z" fill="white"/>
<path d="M9.22813 56.1162C9.37443 56.1162 9.49305 55.9976 9.49305 55.8513C9.49305 55.705 9.37443 55.5864 9.22813 55.5864C9.08183 55.5864 8.96326 55.705 8.96326 55.8513C8.96326 55.9976 9.08183 56.1162 9.22813 56.1162Z" fill="white"/>
<path d="M9.22813 62.1206C9.37443 62.1206 9.49305 62.002 9.49305 61.8557C9.49305 61.7094 9.37443 61.5908 9.22813 61.5908C9.08183 61.5908 8.96326 61.7094 8.96326 61.8557C8.96326 62.002 9.08183 62.1206 9.22813 62.1206Z" fill="white"/>
<path d="M9.22813 68.3482C9.37443 68.3482 9.49305 68.2296 9.49305 68.0833C9.49305 67.937 9.37443 67.8184 9.22813 67.8184C9.08183 67.8184 8.96326 67.937 8.96326 68.0833C8.96326 68.2296 9.08183 68.3482 9.22813 68.3482Z" fill="white"/>
<path d="M9.22813 74.5845C9.37443 74.5845 9.49305 74.4659 9.49305 74.3196C9.49305 74.1733 9.37443 74.0547 9.22813 74.0547C9.08183 74.0547 8.96326 74.1733 8.96326 74.3196C8.96326 74.4659 9.08183 74.5845 9.22813 74.5845Z" fill="white"/>
<path d="M9.22813 80.1611C9.37443 80.1611 9.49305 80.0425 9.49305 79.8962C9.49305 79.7499 9.37443 79.6313 9.22813 79.6313C9.08183 79.6313 8.96326 79.7499 8.96326 79.8962C8.96326 80.0425 9.08183 80.1611 9.22813 80.1611Z" fill="white"/>
<path d="M9.22813 86.3887C9.37443 86.3887 9.49305 86.2701 9.49305 86.1238C9.49305 85.9775 9.37443 85.8589 9.22813 85.8589C9.08183 85.8589 8.96326 85.9775 8.96326 86.1238C8.96326 86.2701 9.08183 86.3887 9.22813 86.3887Z" fill="white"/>
<path d="M9.22813 92.4487C9.37443 92.4487 9.49305 92.3301 9.49305 92.1838C9.49305 92.0375 9.37443 91.9189 9.22813 91.9189C9.08183 91.9189 8.96326 92.0375 8.96326 92.1838C8.96326 92.3301 9.08183 92.4487 9.22813 92.4487Z" fill="white"/>
<path d="M9.33494 101.362C9.48124 101.362 9.59987 101.244 9.59987 101.097C9.59987 100.951 9.48124 100.833 9.33494 100.833C9.18864 100.833 9.07007 100.951 9.07007 101.097C9.07007 101.244 9.18864 101.362 9.33494 101.362Z" fill="white"/>
<path d="M19.1315 101.362C19.1315 101.506 19.0153 101.627 18.8666 101.627C18.7178 101.627 18.6017 101.511 18.6017 101.362C18.6017 101.213 18.7178 101.097 18.8666 101.097C19.0153 101.097 19.1315 101.213 19.1315 101.362Z" fill="white"/>
<path d="M31.1541 101.627C31.3004 101.627 31.419 101.508 31.419 101.362C31.419 101.216 31.3004 101.097 31.1541 101.097C31.0078 101.097 30.8892 101.216 30.8892 101.362C30.8892 101.508 31.0078 101.627 31.1541 101.627Z" fill="white"/>
<path d="M43.4136 101.627C43.5599 101.627 43.6785 101.508 43.6785 101.362C43.6785 101.216 43.5599 101.097 43.4136 101.097C43.2673 101.097 43.1487 101.216 43.1487 101.362C43.1487 101.508 43.2673 101.627 43.4136 101.627Z" fill="white"/>
<path d="M55.6267 101.362C55.6267 101.506 55.5105 101.627 55.3618 101.627C55.2131 101.627 55.0969 101.511 55.0969 101.362C55.0969 101.213 55.2131 101.097 55.3618 101.097C55.5105 101.097 55.6267 101.213 55.6267 101.362Z" fill="white"/>
<path d="M69.7405 55.9722C69.8868 55.9722 70.0054 55.8536 70.0054 55.7073C70.0054 55.561 69.8868 55.4424 69.7405 55.4424C69.5942 55.4424 69.4756 55.561 69.4756 55.7073C69.4756 55.8536 69.5942 55.9722 69.7405 55.9722Z" fill="white"/>
<path d="M69.7405 61.6978C69.8868 61.6978 70.0054 61.5792 70.0054 61.4329C70.0054 61.2866 69.8868 61.168 69.7405 61.168C69.5942 61.168 69.4756 61.2866 69.4756 61.4329C69.4756 61.5792 69.5942 61.6978 69.7405 61.6978Z" fill="white"/>
<path d="M69.7405 67.874C69.8868 67.874 70.0054 67.7554 70.0054 67.6091C70.0054 67.4628 69.8868 67.3442 69.7405 67.3442C69.5942 67.3442 69.4756 67.4628 69.4756 67.6091C69.4756 67.7554 69.5942 67.874 69.7405 67.874Z" fill="white"/>
<path d="M69.7405 73.9619C69.8868 73.9619 70.0054 73.8433 70.0054 73.697C70.0054 73.5507 69.8868 73.4321 69.7405 73.4321C69.5942 73.4321 69.4756 73.5507 69.4756 73.697C69.4756 73.8433 69.5942 73.9619 69.7405 73.9619Z" fill="white"/>
<path d="M69.7405 79.8872C69.8868 79.8872 70.0054 79.7686 70.0054 79.6223C70.0054 79.476 69.8868 79.3574 69.7405 79.3574C69.5942 79.3574 69.4756 79.476 69.4756 79.6223C69.4756 79.7686 69.5942 79.8872 69.7405 79.8872Z" fill="white"/>
<path d="M69.7405 85.7334C69.8868 85.7334 70.0054 85.6148 70.0054 85.4685C70.0054 85.3222 69.8868 85.2036 69.7405 85.2036C69.5942 85.2036 69.4756 85.3222 69.4756 85.4685C69.4756 85.6148 69.5942 85.7334 69.7405 85.7334Z" fill="white"/>
<path d="M69.7405 91.6958C69.8868 91.6958 70.0054 91.5772 70.0054 91.4309C70.0054 91.2846 69.8868 91.166 69.7405 91.166C69.5942 91.166 69.4756 91.2846 69.4756 91.4309C69.4756 91.5772 69.5942 91.6958 69.7405 91.6958Z" fill="white"/>
<path d="M70.0054 100.526C70.0054 100.67 69.8892 100.791 69.7405 100.791C69.5917 100.791 69.4756 100.674 69.4756 100.526C69.4756 100.377 69.5917 100.261 69.7405 100.261C69.8892 100.261 70.0054 100.377 70.0054 100.526Z" fill="white"/>
<path d="M69.6291 90.6133L67.4309 93.0345L69.3875 95.6974L71.6367 93.2529L69.6291 90.6133Z" fill="#AF0F07"/>
<path d="M7.8619 14.8901L5.66833 17.3114L7.62488 19.9743L9.87415 17.5298L7.8619 14.8901Z" fill="#AF0F07"/>
<path d="M6.61175 12.5017C6.52346 12.3948 6.45843 12.2739 6.4166 12.1392C6.37478 12.0044 6.35619 11.8882 6.35619 11.786C6.35619 11.5768 6.43054 11.4049 6.5839 11.2701C6.69079 11.1818 6.81623 11.1354 6.95565 11.1354C7.09507 11.1354 7.20199 11.1911 7.28099 11.298C7.30888 11.3398 7.33212 11.377 7.34141 11.4142C7.3507 11.4514 7.35531 11.4978 7.35531 11.5583C7.35531 11.6466 7.31813 11.7395 7.23913 11.8278C7.18336 11.8882 7.12759 11.9393 7.06718 11.9811C7.01141 12.0183 6.97424 12.0555 6.95565 12.0927C6.93241 12.1299 6.92314 12.1764 6.92314 12.2321C6.92314 12.339 6.98357 12.4366 7.10905 12.5156C7.23452 12.5946 7.4204 12.6364 7.67135 12.6364C7.88977 12.6364 8.09423 12.5714 8.28942 12.4459C8.4846 12.3204 8.64729 12.1113 8.78206 11.8139C8.8843 11.5908 8.96331 11.3119 9.01907 10.9727C9.07484 10.6334 9.09804 10.35 9.09804 10.1315V9.72722L9.03297 9.69934C8.92609 9.92706 8.7588 10.1176 8.53109 10.2617C8.30802 10.4104 8.08958 10.4847 7.8758 10.4847C7.47149 10.4847 7.13226 10.3871 6.85807 10.1873C6.62571 10.02 6.44445 9.7923 6.31897 9.50881C6.1935 9.22533 6.12842 8.91859 6.12842 8.59328C6.12842 8.26797 6.20282 7.94267 6.34688 7.61736C6.49095 7.29205 6.70472 7.01786 6.98356 6.79944C7.2624 6.58101 7.59235 6.47412 7.96878 6.47412C8.34521 6.47412 8.70304 6.59496 9.00047 6.83662C9.29789 7.07828 9.5256 7.42217 9.68826 7.86831C9.85091 8.31445 9.92993 8.84425 9.92993 9.45305C9.92993 9.94566 9.86485 10.429 9.73937 10.903C9.61389 11.377 9.42803 11.772 9.19102 12.0834C8.75418 12.6504 8.2383 12.9292 7.64809 12.9292C7.22054 12.9292 6.87665 12.7852 6.61175 12.497V12.5017ZM8.42421 9.95028C8.59151 9.81087 8.72628 9.6157 8.82387 9.3601C8.92146 9.1045 8.97261 8.81171 8.97261 8.48175C8.97261 7.98449 8.8936 7.57087 8.7356 7.25021C8.57759 6.92955 8.32197 6.7669 7.95948 6.7669C7.59699 6.7669 7.32746 6.9435 7.16016 7.29205C6.99286 7.6406 6.91384 8.03561 6.91384 8.48175C6.91384 8.96042 6.98818 9.36475 7.13225 9.68076C7.27631 10.0014 7.518 10.1594 7.8526 10.1594C8.06173 10.1594 8.25225 10.0897 8.41956 9.95028H8.42421Z" fill="#A43E32"/>
<path d="M70.8746 97.7561C70.9629 97.863 71.0279 97.9839 71.0698 98.1186C71.107 98.2488 71.1302 98.3696 71.1302 98.4718C71.1302 98.681 71.0558 98.8529 70.9024 98.9877C70.7955 99.076 70.6701 99.1224 70.5307 99.1224C70.3913 99.1224 70.2843 99.0667 70.2053 98.9598C70.1774 98.918 70.1542 98.8761 70.1449 98.8436C70.1356 98.8064 70.131 98.76 70.131 98.6995C70.131 98.6112 70.1682 98.5183 70.2472 98.43C70.303 98.3696 70.3587 98.3184 70.4191 98.2766C70.4749 98.2394 70.5121 98.2023 70.5307 98.1651C70.5539 98.1279 70.5632 98.0814 70.5632 98.0257C70.5632 97.9188 70.5028 97.8212 70.3773 97.7422C70.2518 97.6586 70.0659 97.6214 69.815 97.6214C69.5965 97.6214 69.3921 97.6864 69.1969 97.8119C69.0017 97.9374 68.839 98.1465 68.7043 98.4439C68.602 98.667 68.523 98.9459 68.4672 99.2851C68.4115 99.6244 68.3883 99.9078 68.3883 100.126V100.531L68.4533 100.558C68.5602 100.331 68.7275 100.14 68.9552 99.9961C69.1783 99.8474 69.3967 99.7731 69.6105 99.7731C70.0148 99.7731 70.3541 99.8707 70.6282 100.07C70.8606 100.238 71.0419 100.466 71.1673 100.754C71.2928 101.037 71.3579 101.344 71.3579 101.669C71.3579 101.994 71.2835 102.32 71.1394 102.65C70.9954 102.975 70.7816 103.249 70.5028 103.468C70.2239 103.686 69.894 103.793 69.5175 103.793C69.1411 103.793 68.7833 103.672 68.4859 103.43C68.1884 103.189 67.9607 102.845 67.7981 102.399C67.6354 101.953 67.5564 101.423 67.5564 100.814C67.5564 100.321 67.6215 99.8381 67.747 99.3641C67.8724 98.8901 68.0583 98.4951 68.2953 98.1837C68.7321 97.6167 69.248 97.3379 69.8382 97.3379C70.2658 97.3379 70.6097 97.482 70.8746 97.7701V97.7561ZM69.0621 100.308C68.8948 100.447 68.76 100.642 68.6625 100.898C68.5649 101.153 68.5138 101.446 68.5138 101.776C68.5138 102.273 68.5927 102.687 68.7507 103.008C68.9087 103.328 69.1644 103.491 69.5268 103.491C69.8893 103.491 70.1589 103.314 70.3262 102.966C70.4935 102.617 70.5725 102.222 70.5725 101.776C70.5725 101.297 70.4981 100.898 70.3541 100.577C70.21 100.256 69.9683 100.098 69.6337 100.098C69.4246 100.098 69.2341 100.168 69.0668 100.308H69.0621Z" fill="#AF0F07"/>
<path d="M23.3141 12.4922L17.1378 19.9975L23.3141 27.6238L29.653 20.058L23.3141 12.4922Z" fill="#AF0F07"/>
<path d="M39.4683 48.2441L33.292 55.7495L39.4683 63.3757L45.8071 55.8099L39.4683 48.2441Z" fill="#AF0F07"/>
<path d="M23.3141 35.6636L17.1378 43.169L23.3141 50.7905L29.653 43.2294L23.3141 35.6636Z" fill="#AF0F07"/>
<path d="M23.3141 58.835L17.1378 66.3357L23.3141 73.9619L29.653 66.3961L23.3141 58.835Z" fill="#AF0F07"/>
<path d="M23.3141 82.002L17.1378 89.5073L23.3141 97.1335L29.653 89.5677L23.3141 82.002Z" fill="#AF0F07"/>
<path d="M55.5058 12.4922L49.3296 19.9975L55.5058 27.6238L61.8447 20.058L55.5058 12.4922Z" fill="#AF0F07"/>
<path d="M55.5058 35.6636L49.3296 43.169L55.5058 50.7905L61.8447 43.2294L55.5058 35.6636Z" fill="#AF0F07"/>
<path d="M55.5058 58.835L49.3296 66.3357L55.5058 73.9619L61.8447 66.3961L55.5058 58.835Z" fill="#AF0F07"/>
<path d="M55.5058 82.002L49.3296 89.5073L55.5058 97.1335L61.8447 89.5677L55.5058 82.002Z" fill="#AF0F07"/>
</svg>
