<svg width="78" height="109" viewBox="0 0 78 109" fill="none" xmlns="http://www.w3.org/2000/svg">
<path d="M74.6076 0.6521H2.81628C1.2917 0.6521 0.0557861 1.88799 0.0557861 3.41256V106.127C0.0557861 107.652 1.2917 108.887 2.81628 108.887H74.6076C76.1322 108.887 77.3681 107.652 77.3681 106.127V3.41256C77.3681 1.88799 76.1322 0.6521 74.6076 0.6521Z" fill="white"/>
<path d="M74.6029 108.943H2.81626C1.26406 108.943 0 107.679 0 106.127V3.41269C0 1.8605 1.26406 0.596436 2.81626 0.596436H74.6029C76.1551 0.596436 77.4192 1.8605 77.4192 3.41269V106.127C77.4192 107.679 76.1551 108.943 74.6029 108.943ZM2.81626 0.707994C1.32448 0.707994 0.111535 1.92091 0.111535 3.41269V106.127C0.111535 107.619 1.32448 108.832 2.81626 108.832H74.6029C76.0947 108.832 77.3077 107.619 77.3077 106.127V3.41269C77.3077 1.92091 76.0947 0.707994 74.6029 0.707994H2.81626Z" fill="#65A7DD"/>
<path d="M69.3375 9.18922C69.3375 9.33328 69.2214 9.45409 69.0726 9.45409C68.9239 9.45409 68.8077 9.33793 68.8077 9.18922C68.8077 9.0405 68.9239 8.92432 69.0726 8.92432C69.2214 8.92432 69.3375 9.0405 69.3375 9.18922Z" fill="white"/>
<path d="M56.7295 9.18922C56.7295 9.33328 56.6133 9.45409 56.4646 9.45409C56.3159 9.45409 56.1997 9.33793 56.1997 9.18922C56.1997 9.0405 56.3159 8.92432 56.4646 8.92432C56.6133 8.92432 56.7295 9.0405 56.7295 9.18922Z" fill="white"/>
<path d="M45.1298 9.18922C45.1298 9.33328 45.0136 9.45409 44.8649 9.45409C44.7162 9.45409 44.6 9.33793 44.6 9.18922C44.6 9.0405 44.7162 8.92432 44.8649 8.92432C45.0136 8.92432 45.1298 9.0405 45.1298 9.18922Z" fill="white"/>
<path d="M33.4884 9.27296C33.4884 9.41702 33.3722 9.53785 33.2235 9.53785C33.0748 9.53785 32.9586 9.42167 32.9586 9.27296C32.9586 9.12424 33.0748 9.00806 33.2235 9.00806C33.3722 9.00806 33.4884 9.12424 33.4884 9.27296Z" fill="white"/>
<path d="M69.3375 19.0137C69.3375 19.1577 69.2214 19.2786 69.0726 19.2786C68.9239 19.2786 68.8077 19.1624 68.8077 19.0137C68.8077 18.865 68.9239 18.7488 69.0726 18.7488C69.2214 18.7488 69.3375 18.865 69.3375 19.0137Z" fill="white"/>
<path d="M69.3375 27.9783C69.3375 28.1223 69.2214 28.2432 69.0726 28.2432C68.9239 28.2432 68.8077 28.127 68.8077 27.9783C68.8077 27.8296 68.9239 27.7134 69.0726 27.7134C69.2214 27.7134 69.3375 27.8296 69.3375 27.9783Z" fill="white"/>
<path d="M69.3375 37.375C69.3375 37.5191 69.2214 37.6399 69.0726 37.6399C68.9239 37.6399 68.8077 37.5237 68.8077 37.375C68.8077 37.2263 68.9239 37.1101 69.0726 37.1101C69.2214 37.1101 69.3375 37.2263 69.3375 37.375Z" fill="white"/>
<path d="M69.3375 43.3142C69.3375 43.4583 69.2214 43.5791 69.0726 43.5791C68.9239 43.5791 68.8077 43.4629 68.8077 43.3142C68.8077 43.1655 68.9239 43.0493 69.0726 43.0493C69.2214 43.0493 69.3375 43.1655 69.3375 43.3142Z" fill="white"/>
<path d="M69.3375 49.2768C69.3375 49.4209 69.2214 49.5417 69.0726 49.5417C68.9239 49.5417 68.8077 49.4255 68.8077 49.2768C68.8077 49.1281 68.9239 49.012 69.0726 49.012C69.2214 49.012 69.3375 49.1281 69.3375 49.2768Z" fill="white"/>
<path d="M8.78333 9.45408C8.78333 9.59815 8.66715 9.71898 8.51844 9.71898C8.36972 9.71898 8.25354 9.60279 8.25354 9.45408C8.25354 9.30537 8.36972 9.18921 8.51844 9.18921C8.66715 9.18921 8.78333 9.30537 8.78333 9.45408Z" fill="white"/>
<path d="M21.5355 9.27296C21.5355 9.41702 21.4193 9.53785 21.2706 9.53785C21.1219 9.53785 21.0057 9.42167 21.0057 9.27296C21.0057 9.12424 21.1219 9.00806 21.2706 9.00806C21.4193 9.00806 21.5355 9.12424 21.5355 9.27296Z" fill="white"/>
<path d="M8.78333 18.8044C8.78333 18.9485 8.66715 19.0693 8.51844 19.0693C8.36972 19.0693 8.25354 18.9532 8.25354 18.8044C8.25354 18.6557 8.36972 18.5396 8.51844 18.5396C8.66715 18.5396 8.78333 18.6557 8.78333 18.8044Z" fill="white"/>
<path d="M8.78333 28.0434C8.78333 28.1875 8.66715 28.3083 8.51844 28.3083C8.36972 28.3083 8.25354 28.1921 8.25354 28.0434C8.25354 27.8947 8.36972 27.7786 8.51844 27.7786C8.66715 27.7786 8.78333 27.8947 8.78333 28.0434Z" fill="white"/>
<path d="M8.78333 37.31C8.78333 37.4541 8.66715 37.5749 8.51844 37.5749C8.36972 37.5749 8.25354 37.4587 8.25354 37.31C8.25354 37.1613 8.36972 37.0452 8.51844 37.0452C8.66715 37.0452 8.78333 37.1613 8.78333 37.31Z" fill="white"/>
<path d="M8.78333 43.3142C8.78333 43.4583 8.66715 43.5791 8.51844 43.5791C8.36972 43.5791 8.25354 43.4629 8.25354 43.3142C8.25354 43.1655 8.36972 43.0493 8.51844 43.0493C8.66715 43.0493 8.78333 43.1655 8.78333 43.3142Z" fill="white"/>
<path d="M8.78333 49.5418C8.78333 49.6858 8.66715 49.8067 8.51844 49.8067C8.36972 49.8067 8.25354 49.6905 8.25354 49.5418C8.25354 49.393 8.36972 49.2769 8.51844 49.2769C8.66715 49.2769 8.78333 49.393 8.78333 49.5418Z" fill="white"/>
<path d="M8.78333 55.5505C8.78333 55.6946 8.66715 55.8154 8.51844 55.8154C8.36972 55.8154 8.25354 55.6992 8.25354 55.5505C8.25354 55.4018 8.36972 55.2856 8.51844 55.2856C8.66715 55.2856 8.78333 55.4018 8.78333 55.5505Z" fill="white"/>
<path d="M8.78333 61.5596C8.78333 61.7036 8.66715 61.8244 8.51844 61.8244C8.36972 61.8244 8.25354 61.7083 8.25354 61.5596C8.25354 61.4109 8.36972 61.2947 8.51844 61.2947C8.66715 61.2947 8.78333 61.4109 8.78333 61.5596Z" fill="white"/>
<path d="M8.78333 67.7869C8.78333 67.9309 8.66715 68.0518 8.51844 68.0518C8.36972 68.0518 8.25354 67.9356 8.25354 67.7869C8.25354 67.6382 8.36972 67.522 8.51844 67.522C8.66715 67.522 8.78333 67.6382 8.78333 67.7869Z" fill="white"/>
<path d="M8.78333 74.0237C8.78333 74.1677 8.66715 74.2886 8.51844 74.2886C8.36972 74.2886 8.25354 74.1724 8.25354 74.0237C8.25354 73.8749 8.36972 73.7588 8.51844 73.7588C8.66715 73.7588 8.78333 73.8749 8.78333 74.0237Z" fill="white"/>
<path d="M8.78333 79.6003C8.78333 79.7444 8.66715 79.8652 8.51844 79.8652C8.36972 79.8652 8.25354 79.749 8.25354 79.6003C8.25354 79.4516 8.36972 79.3354 8.51844 79.3354C8.66715 79.3354 8.78333 79.4516 8.78333 79.6003Z" fill="white"/>
<path d="M8.78333 85.8276C8.78333 85.9717 8.66715 86.0925 8.51844 86.0925C8.36972 86.0925 8.25354 85.9764 8.25354 85.8276C8.25354 85.6789 8.36972 85.5627 8.51844 85.5627C8.66715 85.5627 8.78333 85.6789 8.78333 85.8276Z" fill="white"/>
<path d="M8.78333 91.8923C8.78333 92.0364 8.66715 92.1572 8.51844 92.1572C8.36972 92.1572 8.25354 92.0411 8.25354 91.8923C8.25354 91.7436 8.36972 91.6274 8.51844 91.6274C8.66715 91.6274 8.78333 91.7436 8.78333 91.8923Z" fill="white"/>
<path d="M8.89026 100.811C8.89026 100.955 8.77408 101.075 8.62537 101.075C8.47666 101.075 8.36047 100.959 8.36047 100.811C8.36047 100.662 8.47666 100.546 8.62537 100.546C8.77408 100.546 8.89026 100.662 8.89026 100.811Z" fill="white"/>
<path d="M18.4312 101.071C18.4312 101.215 18.315 101.336 18.1663 101.336C18.0175 101.336 17.9014 101.22 17.9014 101.071C17.9014 100.922 18.0175 100.806 18.1663 100.806C18.315 100.806 18.4312 100.922 18.4312 101.071Z" fill="white"/>
<path d="M30.7232 101.071C30.7232 101.215 30.607 101.336 30.4583 101.336C30.3095 101.336 30.1934 101.22 30.1934 101.071C30.1934 100.922 30.3095 100.806 30.4583 100.806C30.607 100.806 30.7232 100.922 30.7232 101.071Z" fill="white"/>
<path d="M42.9921 101.071C42.9921 101.215 42.8759 101.336 42.7272 101.336C42.5785 101.336 42.4623 101.22 42.4623 101.071C42.4623 100.922 42.5785 100.806 42.7272 100.806C42.8759 100.806 42.9921 100.922 42.9921 101.071Z" fill="white"/>
<path d="M54.9448 101.071C54.9448 101.215 54.8287 101.336 54.6799 101.336C54.5312 101.336 54.415 101.22 54.415 101.071C54.415 100.922 54.5312 100.806 54.6799 100.806C54.8287 100.806 54.9448 100.922 54.9448 101.071Z" fill="white"/>
<path d="M69.3375 55.4065C69.3375 55.5505 69.2214 55.6714 69.0726 55.6714C68.9239 55.6714 68.8077 55.5552 68.8077 55.4065C68.8077 55.2578 68.9239 55.1416 69.0726 55.1416C69.2214 55.1416 69.3375 55.2578 69.3375 55.4065Z" fill="white"/>
<path d="M69.3375 61.1367C69.3375 61.2808 69.2214 61.4016 69.0726 61.4016C68.9239 61.4016 68.8077 61.2854 68.8077 61.1367C68.8077 60.988 68.9239 60.8718 69.0726 60.8718C69.2214 60.8718 69.3375 60.988 69.3375 61.1367Z" fill="white"/>
<path d="M69.3375 67.313C69.3375 67.457 69.2214 67.5779 69.0726 67.5779C68.9239 67.5779 68.8077 67.4617 68.8077 67.313C68.8077 67.1643 68.9239 67.0481 69.0726 67.0481C69.2214 67.0481 69.3375 67.1643 69.3375 67.313Z" fill="white"/>
<path d="M69.3375 73.4009C69.3375 73.545 69.2214 73.6658 69.0726 73.6658C68.9239 73.6658 68.8077 73.5496 68.8077 73.4009C68.8077 73.2522 68.9239 73.136 69.0726 73.136C69.2214 73.136 69.3375 73.2522 69.3375 73.4009Z" fill="white"/>
<path d="M69.3375 79.3308C69.3375 79.4749 69.2214 79.5957 69.0726 79.5957C68.9239 79.5957 68.8077 79.4795 68.8077 79.3308C68.8077 79.1821 68.9239 79.0659 69.0726 79.0659C69.2214 79.0659 69.3375 79.1821 69.3375 79.3308Z" fill="white"/>
<path d="M69.3375 85.1724C69.3375 85.3164 69.2214 85.4372 69.0726 85.4372C68.9239 85.4372 68.8077 85.3211 68.8077 85.1724C68.8077 85.0237 68.9239 84.9075 69.0726 84.9075C69.2214 84.9075 69.3375 85.0237 69.3375 85.1724Z" fill="white"/>
<path d="M69.3375 91.1397C69.3375 91.2837 69.2214 91.4046 69.0726 91.4046C68.9239 91.4046 68.8077 91.2884 68.8077 91.1397C68.8077 90.9909 68.9239 90.8748 69.0726 90.8748C69.2214 90.8748 69.3375 90.9909 69.3375 91.1397Z" fill="white"/>
<path d="M69.3375 100.234C69.3375 100.378 69.2214 100.499 69.0726 100.499C68.9239 100.499 68.8077 100.383 68.8077 100.234C68.8077 100.086 68.9239 99.9695 69.0726 99.9695C69.2214 99.9695 69.3375 100.086 69.3375 100.234Z" fill="white"/>
<path d="M44.205 42.6962C39.2742 42.5754 38.1402 46.3397 37.88 48.1521C37.6197 46.3397 36.4858 42.5754 31.555 42.6962C25.0721 42.8542 24.217 50.1133 26.4802 53.7846C28.7434 57.456 29.9145 58.6271 32.1824 60.9693C34.3155 63.1768 36.8622 65.6585 37.8056 67.1781C37.8056 67.1781 37.8568 67.3547 37.8846 67.3083C37.9125 67.3547 37.9636 67.1781 37.9636 67.1781C38.907 65.6585 41.4538 63.1722 43.5869 60.9693C45.8501 58.6271 47.0212 57.456 49.2891 53.7846C51.5523 50.1133 50.6926 42.8542 44.2142 42.6962H44.205Z" fill="#AF0F07"/>
<path d="M9.44318 14.1385C8.56019 14.1153 8.35571 14.7938 8.30924 15.1191C8.26277 14.7938 8.05829 14.1199 7.1753 14.1385C6.01348 14.1664 5.86012 15.4677 6.26443 16.1276C6.66875 16.7875 6.88252 16.9966 7.28684 17.4149C7.66791 17.8099 8.128 18.256 8.2953 18.5302C8.2953 18.5302 8.30459 18.5627 8.30924 18.5534C8.31389 18.5627 8.32318 18.5302 8.32318 18.5302C8.49048 18.256 8.95057 17.8145 9.33164 17.4149C9.73596 16.9966 9.94973 16.7828 10.354 16.1276C10.7584 15.4677 10.605 14.1664 9.44318 14.1385Z" fill="#AF0F07"/>
<path d="M5.49769 11.8476H5.83229C6.18549 11.8476 6.44574 11.6291 6.60839 11.1877L8.54631 5.71313H8.76938L10.7259 11.4479C10.7863 11.5966 10.856 11.7035 10.9443 11.7593C11.028 11.815 11.1349 11.8429 11.2696 11.8429H11.7762V12.131H8.97851V11.8429H9.57336C9.66166 11.8429 9.74066 11.8197 9.80108 11.7732C9.86149 11.7267 9.88938 11.6756 9.88938 11.6152C9.88938 11.5362 9.87544 11.4711 9.8522 11.4154L9.4293 10.2164H7.31943L7.101 10.8205C7.01735 11.0622 6.97553 11.2341 6.97553 11.3456C6.97553 11.4804 7.00806 11.592 7.07312 11.6942C7.13818 11.7918 7.25436 11.8429 7.41702 11.8429H7.9654V12.131H5.49304V11.8429L5.49769 11.8476ZM7.41702 9.93753H9.32706L8.3883 7.18635L7.41237 9.93753H7.41702Z" fill="#A43E32"/>
<path d="M65.2014 95.9124H67.6738V96.2005H67.1254C66.9627 96.2005 66.8466 96.2516 66.7815 96.3492C66.7164 96.4468 66.6839 96.563 66.6839 96.6978C66.6839 96.8047 66.7257 96.9813 66.8094 97.2183L67.0278 97.8224H69.1377L69.5606 96.6234C69.5838 96.5676 69.5977 96.5026 69.5977 96.4236C69.5977 96.3632 69.5699 96.3121 69.5095 96.2656C69.449 96.2191 69.3747 96.1959 69.2817 96.1959H68.6869V95.9077H71.4846V96.1959H70.978C70.8432 96.1959 70.7363 96.2237 70.6527 96.2795C70.569 96.3353 70.4947 96.4422 70.4343 96.5909L68.4778 102.326H68.2547L66.3168 96.8511C66.1541 96.4143 65.8939 96.1912 65.5407 96.1912H65.2061V95.9031L65.2014 95.9124ZM68.0967 100.866L69.0354 98.1152H67.1254L68.1013 100.866H68.0967Z" fill="#AF0F07"/>
<path d="M70.002 93.7142C69.119 93.7374 68.9146 93.0589 68.8681 92.7336C68.8216 93.0589 68.6171 93.7328 67.7341 93.7142C66.5723 93.6863 66.419 92.3851 66.8233 91.7251C67.2276 91.0652 67.4414 90.8561 67.8457 90.4378C68.2268 90.0428 68.6868 89.5967 68.8541 89.3225C68.8541 89.3225 68.8634 89.29 68.8681 89.2993C68.8727 89.29 68.882 89.3225 68.882 89.3225C69.0493 89.5967 69.5094 90.0382 69.8905 90.4378C70.2948 90.8561 70.5086 91.0699 70.9129 91.7251C71.3172 92.3851 71.1638 93.6863 70.002 93.7142Z" fill="#AF0F07"/>
</svg>
