<svg width="79" height="109" viewBox="0 0 79 109" fill="none" xmlns="http://www.w3.org/2000/svg">
<path d="M3.61288 0.6521H75.3577C76.882 0.6521 78.1182 1.88825 78.1182 3.41256V106.104C78.1182 107.628 76.882 108.864 75.3577 108.864H3.61288C2.08857 108.864 0.852417 107.628 0.852417 106.104V3.41256C0.852417 1.88825 2.08857 0.6521 3.61288 0.6521Z" fill="white"/>
<path d="M75.3576 108.915H3.61272C2.06053 108.915 0.801147 107.651 0.801147 106.104V3.41732C0.801147 1.86512 2.06053 0.605713 3.61272 0.605713H75.3576C76.9098 0.605713 78.1692 1.86512 78.1692 3.41732V106.104C78.1692 107.656 76.9098 108.915 75.3576 108.915ZM3.61272 0.707968C2.12094 0.707968 0.908026 1.92089 0.908026 3.41267V106.099C0.908026 107.591 2.12094 108.804 3.61272 108.804H75.3576C76.8493 108.804 78.0623 107.591 78.0623 106.099V3.41267C78.0623 1.92089 76.8493 0.707968 75.3576 0.707968H3.61272Z" fill="#65A7DD"/>
<path d="M7.3866 11.4989H8.25099C8.33928 11.4989 8.40437 11.4803 8.44619 11.4432C8.48337 11.406 8.50661 11.3456 8.50661 11.2619V6.83307H7.3866V6.50775H7.88389C8.2092 6.50775 8.46942 6.41945 8.6739 6.2475C8.87374 6.07555 8.99924 5.86178 9.04571 5.61548H9.33384V11.2619C9.33384 11.3456 9.35243 11.406 9.39426 11.4432C9.43144 11.4803 9.49646 11.4989 9.58941 11.4989H10.4539V11.7871H7.3866V11.4989Z" fill="#A43E32"/>
<path d="M13.0098 11.4711C12.6798 11.1644 12.4242 10.7647 12.2383 10.2674C12.057 9.77015 11.9641 9.24966 11.9641 8.70128C11.9641 8.1529 12.057 7.6324 12.2383 7.13514C12.4195 6.63788 12.6798 6.23823 13.0098 5.93151C13.3397 5.62479 13.7208 5.47144 14.1437 5.47144C14.5666 5.47144 14.943 5.62479 15.273 5.93151C15.6076 6.23823 15.8631 6.63788 16.049 7.13514C16.2303 7.6324 16.3232 8.1529 16.3232 8.70128C16.3232 9.24966 16.2303 9.77015 16.049 10.2674C15.8678 10.7647 15.6076 11.1644 15.273 11.4711C14.9384 11.7778 14.5619 11.9312 14.1437 11.9312C13.7254 11.9312 13.3397 11.7778 13.0098 11.4711ZM15.1335 10.7926C15.2915 10.2256 15.3706 9.5285 15.3706 8.70128C15.3706 7.87406 15.2915 7.17232 15.1335 6.61C14.9755 6.04303 14.6456 5.76422 14.1483 5.76422C13.6511 5.76422 13.3211 6.04305 13.1631 6.60538C13.0051 7.1677 12.9261 7.86477 12.9261 8.70128C12.9261 9.53779 13.0051 10.2349 13.1631 10.7972C13.3211 11.3595 13.6511 11.6384 14.1483 11.6384C14.6456 11.6384 14.9755 11.3549 15.1335 10.7926Z" fill="#A43E32"/>
<path d="M71.8675 96.7535H71.0031C70.9148 96.7535 70.8498 96.772 70.808 96.8092C70.7661 96.8464 70.7475 96.9068 70.7475 96.9905V101.419H71.8675V101.745H71.3703C71.0449 101.745 70.7847 101.833 70.5802 102.005C70.3804 102.181 70.2549 102.391 70.2084 102.637H69.9203V96.9905C69.9203 96.9068 69.9017 96.8464 69.8599 96.8092C69.8181 96.772 69.7576 96.7535 69.6647 96.7535H68.8003V96.4653H71.8675V96.7535Z" fill="#AF0F07"/>
<path d="M66.2398 96.7767C66.5697 97.0834 66.8254 97.4831 67.0113 97.9804C67.1925 98.4776 67.2854 98.9981 67.2854 99.5465C67.2854 100.095 67.1925 100.615 67.0113 101.113C66.83 101.61 66.5697 102.01 66.2398 102.316C65.9098 102.623 65.5288 102.776 65.1059 102.776C64.683 102.776 64.3065 102.623 63.9766 102.316C63.642 102.01 63.3864 101.61 63.2005 101.113C63.0193 100.615 62.9263 100.095 62.9263 99.5465C62.9263 98.9981 63.0193 98.4776 63.2005 97.9804C63.3817 97.4831 63.642 97.0834 63.9766 96.7767C64.3112 96.47 64.6876 96.3167 65.1059 96.3167C65.5241 96.3167 65.9098 96.47 66.2398 96.7767ZM64.116 97.4552C63.958 98.0222 63.879 98.7193 63.879 99.5465C63.879 100.374 63.958 101.075 64.116 101.638C64.274 102.205 64.604 102.484 65.1012 102.484C65.5985 102.484 65.9284 102.205 66.0864 101.642C66.2445 101.08 66.3235 100.383 66.3235 99.5465C66.3235 98.71 66.2445 98.0129 66.0864 97.4506C65.9284 96.8883 65.5985 96.6094 65.1012 96.6094C64.604 96.6094 64.274 96.8929 64.116 97.4552Z" fill="#AF0F07"/>
<path d="M69.8973 94.3602C69.0143 94.3834 68.8098 93.7049 68.7634 93.3843C68.7169 93.7096 68.5124 94.3834 67.6294 94.3602C66.4676 94.3323 66.3142 93.0311 66.7185 92.3712C67.1229 91.7113 67.332 91.5021 67.7409 91.0839C68.122 90.6888 68.5775 90.2427 68.7494 89.9685C68.7494 89.9685 68.7587 89.936 68.7634 89.9453C68.768 89.936 68.7773 89.9685 68.7773 89.9685C68.9446 90.2427 69.4047 90.6842 69.7857 91.0839C70.1901 91.5021 70.3992 91.7159 70.8082 92.3712C71.2125 93.0311 71.0591 94.3323 69.8973 94.3602Z" fill="#AF0F07"/>
<path d="M11.9733 14.2223C11.0903 14.199 10.8859 14.8776 10.8394 15.1982C10.7929 14.8729 10.5884 14.199 9.70544 14.2223C8.54362 14.2501 8.39027 15.5514 8.79459 16.2113C9.1989 16.8712 9.40801 17.0804 9.81697 17.4986C10.198 17.8936 10.6535 18.3398 10.8255 18.614C10.8255 18.614 10.8348 18.6465 10.8394 18.6372C10.8441 18.6465 10.8534 18.614 10.8534 18.614C11.0207 18.3398 11.4807 17.8983 11.8618 17.4986C12.2661 17.0804 12.4753 16.8666 12.8842 16.2113C13.2885 15.5514 13.1351 14.2501 11.9733 14.2223Z" fill="#AF0F07"/>
<path d="M26.7425 13.2323C24.1958 13.1719 23.6102 15.1145 23.4755 16.0532C23.3407 15.1191 22.7552 13.1719 20.2085 13.2323C16.8624 13.3113 16.4163 17.0664 17.5874 18.9624C18.7585 20.8585 19.3626 21.4627 20.5337 22.6756C21.6352 23.8142 22.9503 25.0969 23.4383 25.8869C23.4383 25.8869 23.4662 25.9798 23.4801 25.952C23.4941 25.9752 23.522 25.8869 23.522 25.8869C24.0099 25.1015 25.3251 23.8189 26.4265 22.6756C27.5977 21.4627 28.2018 20.8585 29.3729 18.9624C30.544 17.0664 30.0979 13.3113 26.7518 13.2323H26.7425Z" fill="#AF0F07"/>
<path d="M42.7942 23.9816C40.2475 23.9212 39.6619 25.8638 39.5272 26.8025C39.3924 25.8684 38.8068 23.9212 36.2601 23.9816C32.914 24.0606 32.4679 27.8156 33.639 29.7117C34.8101 31.6078 35.4143 32.212 36.5854 33.4249C37.6868 34.5635 39.002 35.8462 39.49 36.6362C39.49 36.6362 39.5179 36.7291 39.5318 36.7012C39.5457 36.7245 39.5736 36.6362 39.5736 36.6362C40.0616 35.8508 41.3768 34.5681 42.4782 33.4249C43.6493 32.2166 44.2535 31.6078 45.4246 29.7117C46.5957 27.8156 46.1496 24.0606 42.8035 23.9816H42.7942Z" fill="#AF0F07"/>
<path d="M42.9476 85.9438C40.4009 86.0043 39.8153 84.0617 39.6805 83.1229C39.5458 84.057 38.9603 86.0043 36.4135 85.9438C33.0675 85.8648 32.6213 82.1098 33.7925 80.2137C34.9636 78.3176 35.5677 77.7135 36.7388 76.5005C37.8402 75.362 39.1554 74.0793 39.6434 73.2893C39.6434 73.2893 39.6712 73.1963 39.6852 73.2242C39.6991 73.201 39.7271 73.2893 39.7271 73.2893C40.215 74.0747 41.5302 75.3573 42.6316 76.5005C43.8027 77.7088 44.4069 78.3176 45.578 80.2137C46.7491 82.1098 46.3029 85.8648 42.9569 85.9438H42.9476Z" fill="#AF0F07"/>
<path d="M26.7425 36.706C24.1958 36.6456 23.6102 38.5881 23.4755 39.5269C23.3407 38.5928 22.7552 36.6456 20.2085 36.706C16.8624 36.785 16.4163 40.54 17.5874 42.4361C18.7585 44.3322 19.3626 44.9363 20.5337 46.1493C21.6352 47.2878 22.9503 48.5705 23.4383 49.3606C23.4383 49.3606 23.4662 49.4535 23.4801 49.4256C23.4941 49.4488 23.522 49.3606 23.522 49.3606C24.0099 48.5752 25.3251 47.2925 26.4265 46.1493C27.5977 44.941 28.2018 44.3322 29.3729 42.4361C30.544 40.54 30.0979 36.785 26.7518 36.706H26.7425Z" fill="#AF0F07"/>
<path d="M26.7425 96.3818C24.1958 96.4422 23.6102 94.4997 23.4755 93.5609C23.3407 94.495 22.7552 96.4422 20.2085 96.3818C16.8624 96.3028 16.4163 92.5478 17.5874 90.6517C18.7585 88.7556 19.3626 88.1515 20.5337 86.9385C21.6352 85.7999 22.9503 84.5173 23.4383 83.7272C23.4383 83.7272 23.4662 83.6343 23.4801 83.6622C23.4941 83.639 23.522 83.7272 23.522 83.7272C24.0099 84.5126 25.3251 85.7953 26.4265 86.9385C27.5977 88.1468 28.2018 88.7556 29.3729 90.6517C30.544 92.5478 30.0979 96.3028 26.7518 96.3818H26.7425Z" fill="#AF0F07"/>
<path d="M26.7425 72.9082C24.1958 72.9686 23.6102 71.026 23.4755 70.0873C23.3407 71.0214 22.7552 72.9686 20.2085 72.9082C16.8624 72.8292 16.4163 69.0742 17.5874 67.1781C18.7585 65.282 19.3626 64.6778 20.5337 63.4649C21.6352 62.3263 22.9503 61.0437 23.4383 60.2536C23.4383 60.2536 23.4662 60.1607 23.4801 60.1886C23.4941 60.1653 23.522 60.2536 23.522 60.2536C24.0099 61.039 25.3251 62.3217 26.4265 63.4649C27.5977 64.6778 28.2018 65.282 29.3729 67.1781C30.544 69.0742 30.0979 72.8292 26.7518 72.9082H26.7425Z" fill="#AF0F07"/>
<path d="M61.0813 13.2323C58.5346 13.1719 57.949 15.1145 57.8142 16.0532C57.6794 15.1191 57.0939 13.1719 54.5472 13.2323C51.2011 13.3113 50.755 17.0664 51.9261 18.9624C53.0973 20.8585 53.7014 21.4627 54.8725 22.6756C55.9739 23.8142 57.2891 25.0969 57.7771 25.8869C57.7771 25.8869 57.8049 25.9798 57.8189 25.952C57.8328 25.9752 57.8607 25.8869 57.8607 25.8869C58.3486 25.1015 59.6638 23.8189 60.7652 22.6756C61.9364 21.4627 62.5405 20.8585 63.7117 18.9624C64.8828 17.0664 64.4366 13.3113 61.0906 13.2323H61.0813Z" fill="#AF0F07"/>
<path d="M61.0813 36.706C58.5346 36.6456 57.949 38.5881 57.8142 39.5269C57.6794 38.5928 57.0939 36.6456 54.5472 36.706C51.2011 36.785 50.755 40.54 51.9261 42.4361C53.0973 44.3322 53.7014 44.9363 54.8725 46.1493C55.9739 47.2878 57.2891 48.5705 57.7771 49.3606C57.7771 49.3606 57.8049 49.4535 57.8189 49.4256C57.8328 49.4488 57.8607 49.3606 57.8607 49.3606C58.3486 48.5752 59.6638 47.2925 60.7652 46.1493C61.9364 44.941 62.5405 44.3322 63.7117 42.4361C64.8828 40.54 64.4366 36.785 61.0906 36.706H61.0813Z" fill="#AF0F07"/>
<path d="M61.0813 96.3818C58.5346 96.4422 57.949 94.4997 57.8142 93.5609C57.6794 94.495 57.0939 96.4422 54.5472 96.3818C51.2011 96.3028 50.755 92.5478 51.9261 90.6517C53.0973 88.7556 53.7014 88.1515 54.8725 86.9385C55.9739 85.7999 57.2891 84.5173 57.7771 83.7272C57.7771 83.7272 57.8049 83.6343 57.8189 83.6622C57.8328 83.639 57.8607 83.7272 57.8607 83.7272C58.3486 84.5126 59.6638 85.7953 60.7652 86.9385C61.9364 88.1468 62.5405 88.7556 63.7117 90.6517C64.8828 92.5478 64.4366 96.3028 61.0906 96.3818H61.0813Z" fill="#AF0F07"/>
<path d="M61.0813 72.9082C58.5346 72.9686 57.949 71.026 57.8142 70.0873C57.6794 71.0214 57.0939 72.9686 54.5472 72.9082C51.2011 72.8292 50.755 69.0742 51.9261 67.1781C53.0973 65.282 53.7014 64.6778 54.8725 63.4649C55.9739 62.3263 57.2891 61.0437 57.7771 60.2536C57.7771 60.2536 57.8049 60.1607 57.8189 60.1886C57.8328 60.1653 57.8607 60.2536 57.8607 60.2536C58.3486 61.039 59.6638 62.3217 60.7652 63.4649C61.9364 64.6778 62.5405 65.282 63.7117 67.1781C64.8828 69.0742 64.4366 72.8292 61.0906 72.9082H61.0813Z" fill="#AF0F07"/>
<path d="M69.8275 9.44948C69.9738 9.44948 70.0924 9.33087 70.0924 9.18458C70.0924 9.03828 69.9738 8.91968 69.8275 8.91968C69.6812 8.91968 69.5626 9.03828 69.5626 9.18458C69.5626 9.33087 69.6812 9.44948 69.8275 9.44948Z" fill="white"/>
<path d="M57.2287 9.44948C57.375 9.44948 57.4937 9.33087 57.4937 9.18458C57.4937 9.03828 57.375 8.91968 57.2287 8.91968C57.0824 8.91968 56.9639 9.03828 56.9639 9.18458C56.9639 9.33087 57.0824 9.44948 57.2287 9.44948Z" fill="white"/>
<path d="M45.6383 9.44948C45.7846 9.44948 45.9032 9.33087 45.9032 9.18458C45.9032 9.03828 45.7846 8.91968 45.6383 8.91968C45.492 8.91968 45.3734 9.03828 45.3734 9.18458C45.3734 9.33087 45.492 9.44948 45.6383 9.44948Z" fill="white"/>
<path d="M34.2709 9.27296C34.2709 9.41702 34.1547 9.53785 34.006 9.53785C33.8572 9.53785 33.7411 9.42167 33.7411 9.27296C33.7411 9.12424 33.8572 9.00806 34.006 9.00806C34.1547 9.00806 34.2709 9.12424 34.2709 9.27296Z" fill="white"/>
<path d="M69.8275 19.2739C69.9738 19.2739 70.0924 19.1553 70.0924 19.009C70.0924 18.8627 69.9738 18.7441 69.8275 18.7441C69.6812 18.7441 69.5626 18.8627 69.5626 19.009C69.5626 19.1553 69.6812 19.2739 69.8275 19.2739Z" fill="white"/>
<path d="M69.8275 28.2385C69.9738 28.2385 70.0924 28.1199 70.0924 27.9736C70.0924 27.8273 69.9738 27.7087 69.8275 27.7087C69.6812 27.7087 69.5626 27.8273 69.5626 27.9736C69.5626 28.1199 69.6812 28.2385 69.8275 28.2385Z" fill="white"/>
<path d="M69.8275 37.6306C69.9738 37.6306 70.0924 37.512 70.0924 37.3657C70.0924 37.2194 69.9738 37.1008 69.8275 37.1008C69.6812 37.1008 69.5626 37.2194 69.5626 37.3657C69.5626 37.512 69.6812 37.6306 69.8275 37.6306Z" fill="white"/>
<path d="M69.8275 43.5698C69.9738 43.5698 70.0924 43.4512 70.0924 43.3049C70.0924 43.1586 69.9738 43.04 69.8275 43.04C69.6812 43.04 69.5626 43.1586 69.5626 43.3049C69.5626 43.4512 69.6812 43.5698 69.8275 43.5698Z" fill="white"/>
<path d="M69.8275 49.5325C69.9738 49.5325 70.0924 49.4139 70.0924 49.2676C70.0924 49.1213 69.9738 49.0027 69.8275 49.0027C69.6812 49.0027 69.5626 49.1213 69.5626 49.2676C69.5626 49.4139 69.6812 49.5325 69.8275 49.5325Z" fill="white"/>
<path d="M9.31504 9.71437C9.46134 9.71437 9.57997 9.59577 9.57997 9.44947C9.57997 9.30317 9.46134 9.18457 9.31504 9.18457C9.16874 9.18457 9.05017 9.30317 9.05017 9.44947C9.05017 9.59577 9.16874 9.71437 9.31504 9.71437Z" fill="white"/>
<path d="M22.3228 9.27296C22.3228 9.41702 22.2066 9.53785 22.0579 9.53785C21.9092 9.53785 21.793 9.42167 21.793 9.27296C21.793 9.12424 21.9092 9.00806 22.0579 9.00806C22.2066 9.00806 22.3228 9.12424 22.3228 9.27296Z" fill="white"/>
<path d="M9.57997 18.7998C9.57997 18.9439 9.46375 19.0647 9.31504 19.0647C9.16633 19.0647 9.05017 18.9485 9.05017 18.7998C9.05017 18.6511 9.16633 18.5349 9.31504 18.5349C9.46375 18.5349 9.57997 18.6511 9.57997 18.7998Z" fill="white"/>
<path d="M9.31504 28.2988C9.46134 28.2988 9.57997 28.1802 9.57997 28.0339C9.57997 27.8876 9.46134 27.769 9.31504 27.769C9.16874 27.769 9.05017 27.8876 9.05017 28.0339C9.05017 28.1802 9.16874 28.2988 9.31504 28.2988Z" fill="white"/>
<path d="M9.31504 37.5657C9.46134 37.5657 9.57997 37.4471 9.57997 37.3008C9.57997 37.1545 9.46134 37.0359 9.31504 37.0359C9.16874 37.0359 9.05017 37.1545 9.05017 37.3008C9.05017 37.4471 9.16874 37.5657 9.31504 37.5657Z" fill="white"/>
<path d="M9.31504 43.5698C9.46134 43.5698 9.57997 43.4512 9.57997 43.3049C9.57997 43.1586 9.46134 43.04 9.31504 43.04C9.16874 43.04 9.05017 43.1586 9.05017 43.3049C9.05017 43.4512 9.16874 43.5698 9.31504 43.5698Z" fill="white"/>
<path d="M9.31504 49.7927C9.46134 49.7927 9.57997 49.6741 9.57997 49.5278C9.57997 49.3815 9.46134 49.2629 9.31504 49.2629C9.16874 49.2629 9.05017 49.3815 9.05017 49.5278C9.05017 49.6741 9.16874 49.7927 9.31504 49.7927Z" fill="white"/>
<path d="M9.31504 55.8015C9.46134 55.8015 9.57997 55.6829 9.57997 55.5366C9.57997 55.3903 9.46134 55.2717 9.31504 55.2717C9.16874 55.2717 9.05017 55.3903 9.05017 55.5366C9.05017 55.6829 9.16874 55.8015 9.31504 55.8015Z" fill="white"/>
<path d="M9.31504 61.8059C9.46134 61.8059 9.57997 61.6873 9.57997 61.541C9.57997 61.3947 9.46134 61.2761 9.31504 61.2761C9.16874 61.2761 9.05017 61.3947 9.05017 61.541C9.05017 61.6873 9.16874 61.8059 9.31504 61.8059Z" fill="white"/>
<path d="M9.31504 68.0332C9.46134 68.0332 9.57997 67.9146 9.57997 67.7683C9.57997 67.622 9.46134 67.5034 9.31504 67.5034C9.16874 67.5034 9.05017 67.622 9.05017 67.7683C9.05017 67.9146 9.16874 68.0332 9.31504 68.0332Z" fill="white"/>
<path d="M9.31504 74.2698C9.46134 74.2698 9.57997 74.1512 9.57997 74.0049C9.57997 73.8586 9.46134 73.74 9.31504 73.74C9.16874 73.74 9.05017 73.8586 9.05017 74.0049C9.05017 74.1512 9.16874 74.2698 9.31504 74.2698Z" fill="white"/>
<path d="M9.31504 79.8467C9.46134 79.8467 9.57997 79.7281 9.57997 79.5818C9.57997 79.4355 9.46134 79.3169 9.31504 79.3169C9.16874 79.3169 9.05017 79.4355 9.05017 79.5818C9.05017 79.7281 9.16874 79.8467 9.31504 79.8467Z" fill="white"/>
<path d="M9.57997 85.8044C9.57997 85.9485 9.46375 86.0693 9.31504 86.0693C9.16633 86.0693 9.05017 85.9532 9.05017 85.8044C9.05017 85.6557 9.16633 85.5396 9.31504 85.5396C9.46375 85.5396 9.57997 85.6557 9.57997 85.8044Z" fill="white"/>
<path d="M9.31504 92.134C9.46134 92.134 9.57997 92.0154 9.57997 91.8691C9.57997 91.7228 9.46134 91.6042 9.31504 91.6042C9.16874 91.6042 9.05017 91.7228 9.05017 91.8691C9.05017 92.0154 9.16874 92.134 9.31504 92.134Z" fill="white"/>
<path d="M9.42198 101.048C9.56827 101.048 9.6869 100.929 9.6869 100.783C9.6869 100.636 9.56827 100.518 9.42198 100.518C9.27568 100.518 9.1571 100.636 9.1571 100.783C9.1571 100.929 9.27568 101.048 9.42198 101.048Z" fill="white"/>
<path d="M19.2184 101.048C19.2184 101.192 19.1022 101.313 18.9535 101.313C18.8048 101.313 18.6886 101.196 18.6886 101.048C18.6886 100.899 18.8048 100.783 18.9535 100.783C19.1022 100.783 19.2184 100.899 19.2184 101.048Z" fill="white"/>
<path d="M31.5059 101.048C31.5059 101.192 31.3897 101.313 31.241 101.313C31.0923 101.313 30.9761 101.196 30.9761 101.048C30.9761 100.899 31.0923 100.783 31.241 100.783C31.3897 100.783 31.5059 100.899 31.5059 101.048Z" fill="white"/>
<path d="M43.5052 101.313C43.6515 101.313 43.77 101.194 43.77 101.048C43.77 100.901 43.6515 100.783 43.5052 100.783C43.3589 100.783 43.2402 100.901 43.2402 101.048C43.2402 101.194 43.3589 101.313 43.5052 101.313Z" fill="white"/>
<path d="M55.4487 101.313C55.595 101.313 55.7136 101.194 55.7136 101.048C55.7136 100.901 55.595 100.783 55.4487 100.783C55.3024 100.783 55.1838 100.901 55.1838 101.048C55.1838 101.194 55.3024 101.313 55.4487 101.313Z" fill="white"/>
<path d="M69.8275 55.6575C69.9738 55.6575 70.0924 55.5389 70.0924 55.3926C70.0924 55.2463 69.9738 55.1277 69.8275 55.1277C69.6812 55.1277 69.5626 55.2463 69.5626 55.3926C69.5626 55.5389 69.6812 55.6575 69.8275 55.6575Z" fill="white"/>
<path d="M69.8275 61.3831C69.9738 61.3831 70.0924 61.2645 70.0924 61.1182C70.0924 60.9719 69.9738 60.8533 69.8275 60.8533C69.6812 60.8533 69.5626 60.9719 69.5626 61.1182C69.5626 61.2645 69.6812 61.3831 69.8275 61.3831Z" fill="white"/>
<path d="M69.8275 67.5591C69.9738 67.5591 70.0924 67.4405 70.0924 67.2942C70.0924 67.1479 69.9738 67.0293 69.8275 67.0293C69.6812 67.0293 69.5626 67.1479 69.5626 67.2942C69.5626 67.4405 69.6812 67.5591 69.8275 67.5591Z" fill="white"/>
<path d="M69.8275 73.6472C69.9738 73.6472 70.0924 73.5286 70.0924 73.3823C70.0924 73.236 69.9738 73.1174 69.8275 73.1174C69.6812 73.1174 69.5626 73.236 69.5626 73.3823C69.5626 73.5286 69.6812 73.6472 69.8275 73.6472Z" fill="white"/>
<path d="M69.8275 79.5725C69.9738 79.5725 70.0924 79.4539 70.0924 79.3076C70.0924 79.1613 69.9738 79.0427 69.8275 79.0427C69.6812 79.0427 69.5626 79.1613 69.5626 79.3076C69.5626 79.4539 69.6812 79.5725 69.8275 79.5725Z" fill="white"/>
<path d="M69.8275 85.414C69.9738 85.414 70.0924 85.2954 70.0924 85.1491C70.0924 85.0029 69.9738 84.8843 69.8275 84.8843C69.6812 84.8843 69.5626 85.0029 69.5626 85.1491C69.5626 85.2954 69.6812 85.414 69.8275 85.414Z" fill="white"/>
<path d="M69.8275 91.3811C69.9738 91.3811 70.0924 91.2625 70.0924 91.1162C70.0924 90.9699 69.9738 90.8513 69.8275 90.8513C69.6812 90.8513 69.5626 90.9699 69.5626 91.1162C69.5626 91.2625 69.6812 91.3811 69.8275 91.3811Z" fill="white"/>
<path d="M69.8275 100.476C69.9738 100.476 70.0924 100.357 70.0924 100.211C70.0924 100.065 69.9738 99.9463 69.8275 99.9463C69.6812 99.9463 69.5626 100.065 69.5626 100.211C69.5626 100.357 69.6812 100.476 69.8275 100.476Z" fill="white"/>
</svg>
