<svg width="78" height="109" viewBox="0 0 78 109" fill="none" xmlns="http://www.w3.org/2000/svg">
<path d="M74.6945 0.6521H2.90319C1.37861 0.6521 0.1427 1.88799 0.1427 3.41256V106.127C0.1427 107.652 1.37861 108.887 2.90319 108.887H74.6945C76.2191 108.887 77.455 107.652 77.455 106.127V3.41256C77.455 1.88799 76.2191 0.6521 74.6945 0.6521Z" fill="white"/>
<path d="M74.6898 108.943H2.90317C1.35098 108.943 0.0869141 107.679 0.0869141 106.127V3.41269C0.0869141 1.8605 1.35098 0.596436 2.90317 0.596436H74.6945C76.2467 0.596436 77.5108 1.8605 77.5108 3.41269V106.127C77.5108 107.679 76.2467 108.943 74.6945 108.943H74.6898ZM2.89853 0.707994C1.40675 0.707994 0.1938 1.92091 0.1938 3.41269V106.127C0.1938 107.619 1.40675 108.832 2.89853 108.832H74.6898C76.1816 108.832 77.3946 107.619 77.3946 106.127V3.41269C77.3946 1.92091 76.1816 0.707994 74.6898 0.707994H2.90317H2.89853Z" fill="#65A7DD"/>
<path d="M69.4245 9.18922C69.4245 9.33328 69.3083 9.45409 69.1596 9.45409C69.0108 9.45409 68.8947 9.33793 68.8947 9.18922C68.8947 9.0405 69.0108 8.92432 69.1596 8.92432C69.3083 8.92432 69.4245 9.0405 69.4245 9.18922Z" fill="white"/>
<path d="M56.8163 9.18922C56.8163 9.33328 56.7001 9.45409 56.5514 9.45409C56.4027 9.45409 56.2865 9.33793 56.2865 9.18922C56.2865 9.0405 56.4027 8.92432 56.5514 8.92432C56.7001 8.92432 56.8163 9.0405 56.8163 9.18922Z" fill="white"/>
<path d="M45.2167 9.18922C45.2167 9.33328 45.1005 9.45409 44.9518 9.45409C44.8031 9.45409 44.6869 9.33793 44.6869 9.18922C44.6869 9.0405 44.8031 8.92432 44.9518 8.92432C45.1005 8.92432 45.2167 9.0405 45.2167 9.18922Z" fill="white"/>
<path d="M33.5753 9.27296C33.5753 9.41702 33.4591 9.53785 33.3104 9.53785C33.1617 9.53785 33.0455 9.42167 33.0455 9.27296C33.0455 9.12424 33.1617 9.00806 33.3104 9.00806C33.4591 9.00806 33.5753 9.12424 33.5753 9.27296Z" fill="white"/>
<path d="M69.4245 19.0137C69.4245 19.1577 69.3083 19.2786 69.1596 19.2786C69.0108 19.2786 68.8947 19.1624 68.8947 19.0137C68.8947 18.865 69.0108 18.7488 69.1596 18.7488C69.3083 18.7488 69.4245 18.865 69.4245 19.0137Z" fill="white"/>
<path d="M69.4245 27.9783C69.4245 28.1223 69.3083 28.2432 69.1596 28.2432C69.0108 28.2432 68.8947 28.127 68.8947 27.9783C68.8947 27.8296 69.0108 27.7134 69.1596 27.7134C69.3083 27.7134 69.4245 27.8296 69.4245 27.9783Z" fill="white"/>
<path d="M69.4245 37.375C69.4245 37.5191 69.3083 37.6399 69.1596 37.6399C69.0108 37.6399 68.8947 37.5237 68.8947 37.375C68.8947 37.2263 69.0108 37.1101 69.1596 37.1101C69.3083 37.1101 69.4245 37.2263 69.4245 37.375Z" fill="white"/>
<path d="M69.4245 43.3142C69.4245 43.4583 69.3083 43.5791 69.1596 43.5791C69.0108 43.5791 68.8947 43.4629 68.8947 43.3142C68.8947 43.1655 69.0108 43.0493 69.1596 43.0493C69.3083 43.0493 69.4245 43.1655 69.4245 43.3142Z" fill="white"/>
<path d="M69.4245 49.2768C69.4245 49.4209 69.3083 49.5417 69.1596 49.5417C69.0108 49.5417 68.8947 49.4255 68.8947 49.2768C68.8947 49.1281 69.0108 49.012 69.1596 49.012C69.3083 49.012 69.4245 49.1281 69.4245 49.2768Z" fill="white"/>
<path d="M8.87024 9.45408C8.87024 9.59815 8.75407 9.71898 8.60535 9.71898C8.45664 9.71898 8.34045 9.60279 8.34045 9.45408C8.34045 9.30537 8.45664 9.18921 8.60535 9.18921C8.75407 9.18921 8.87024 9.30537 8.87024 9.45408Z" fill="white"/>
<path d="M21.6224 9.27296C21.6224 9.41702 21.5063 9.53785 21.3576 9.53785C21.2088 9.53785 21.0927 9.42167 21.0927 9.27296C21.0927 9.12424 21.2088 9.00806 21.3576 9.00806C21.5063 9.00806 21.6224 9.12424 21.6224 9.27296Z" fill="white"/>
<path d="M8.87024 18.8044C8.87024 18.9485 8.75407 19.0693 8.60535 19.0693C8.45664 19.0693 8.34045 18.9532 8.34045 18.8044C8.34045 18.6557 8.45664 18.5396 8.60535 18.5396C8.75407 18.5396 8.87024 18.6557 8.87024 18.8044Z" fill="white"/>
<path d="M8.87024 28.0434C8.87024 28.1875 8.75407 28.3083 8.60535 28.3083C8.45664 28.3083 8.34045 28.1921 8.34045 28.0434C8.34045 27.8947 8.45664 27.7786 8.60535 27.7786C8.75407 27.7786 8.87024 27.8947 8.87024 28.0434Z" fill="white"/>
<path d="M8.87024 37.31C8.87024 37.4541 8.75407 37.5749 8.60535 37.5749C8.45664 37.5749 8.34045 37.4587 8.34045 37.31C8.34045 37.1613 8.45664 37.0452 8.60535 37.0452C8.75407 37.0452 8.87024 37.1613 8.87024 37.31Z" fill="white"/>
<path d="M8.87024 43.3142C8.87024 43.4583 8.75407 43.5791 8.60535 43.5791C8.45664 43.5791 8.34045 43.4629 8.34045 43.3142C8.34045 43.1655 8.45664 43.0493 8.60535 43.0493C8.75407 43.0493 8.87024 43.1655 8.87024 43.3142Z" fill="white"/>
<path d="M8.87024 49.5418C8.87024 49.6858 8.75407 49.8067 8.60535 49.8067C8.45664 49.8067 8.34045 49.6905 8.34045 49.5418C8.34045 49.393 8.45664 49.2769 8.60535 49.2769C8.75407 49.2769 8.87024 49.393 8.87024 49.5418Z" fill="white"/>
<path d="M8.87024 55.5505C8.87024 55.6946 8.75407 55.8154 8.60535 55.8154C8.45664 55.8154 8.34045 55.6992 8.34045 55.5505C8.34045 55.4018 8.45664 55.2856 8.60535 55.2856C8.75407 55.2856 8.87024 55.4018 8.87024 55.5505Z" fill="white"/>
<path d="M8.87024 61.5596C8.87024 61.7036 8.75407 61.8244 8.60535 61.8244C8.45664 61.8244 8.34045 61.7083 8.34045 61.5596C8.34045 61.4109 8.45664 61.2947 8.60535 61.2947C8.75407 61.2947 8.87024 61.4109 8.87024 61.5596Z" fill="white"/>
<path d="M8.87024 67.7869C8.87024 67.9309 8.75407 68.0518 8.60535 68.0518C8.45664 68.0518 8.34045 67.9356 8.34045 67.7869C8.34045 67.6382 8.45664 67.522 8.60535 67.522C8.75407 67.522 8.87024 67.6382 8.87024 67.7869Z" fill="white"/>
<path d="M8.87024 74.0237C8.87024 74.1677 8.75407 74.2886 8.60535 74.2886C8.45664 74.2886 8.34045 74.1724 8.34045 74.0237C8.34045 73.8749 8.45664 73.7588 8.60535 73.7588C8.75407 73.7588 8.87024 73.8749 8.87024 74.0237Z" fill="white"/>
<path d="M8.87024 79.6003C8.87024 79.7444 8.75407 79.8652 8.60535 79.8652C8.45664 79.8652 8.34045 79.749 8.34045 79.6003C8.34045 79.4516 8.45664 79.3354 8.60535 79.3354C8.75407 79.3354 8.87024 79.4516 8.87024 79.6003Z" fill="white"/>
<path d="M8.87024 85.8276C8.87024 85.9717 8.75407 86.0925 8.60535 86.0925C8.45664 86.0925 8.34045 85.9764 8.34045 85.8276C8.34045 85.6789 8.45664 85.5627 8.60535 85.5627C8.75407 85.5627 8.87024 85.6789 8.87024 85.8276Z" fill="white"/>
<path d="M8.87024 91.8923C8.87024 92.0364 8.75407 92.1572 8.60535 92.1572C8.45664 92.1572 8.34045 92.0411 8.34045 91.8923C8.34045 91.7436 8.45664 91.6274 8.60535 91.6274C8.75407 91.6274 8.87024 91.7436 8.87024 91.8923Z" fill="white"/>
<path d="M8.97718 100.811C8.97718 100.955 8.86099 101.075 8.71228 101.075C8.56357 101.075 8.44739 100.959 8.44739 100.811C8.44739 100.662 8.56357 100.546 8.71228 100.546C8.86099 100.546 8.97718 100.662 8.97718 100.811Z" fill="white"/>
<path d="M18.5181 101.071C18.5181 101.215 18.4019 101.336 18.2532 101.336C18.1045 101.336 17.9883 101.22 17.9883 101.071C17.9883 100.922 18.1045 100.806 18.2532 100.806C18.4019 100.806 18.5181 100.922 18.5181 101.071Z" fill="white"/>
<path d="M30.8101 101.071C30.8101 101.215 30.6939 101.336 30.5452 101.336C30.3965 101.336 30.2803 101.22 30.2803 101.071C30.2803 100.922 30.3965 100.806 30.5452 100.806C30.6939 100.806 30.8101 100.922 30.8101 101.071Z" fill="white"/>
<path d="M43.079 101.071C43.079 101.215 42.9628 101.336 42.8141 101.336C42.6654 101.336 42.5492 101.22 42.5492 101.071C42.5492 100.922 42.6654 100.806 42.8141 100.806C42.9628 100.806 43.079 100.922 43.079 101.071Z" fill="white"/>
<path d="M55.0365 101.071C55.0365 101.215 54.9203 101.336 54.7716 101.336C54.6229 101.336 54.5067 101.22 54.5067 101.071C54.5067 100.922 54.6229 100.806 54.7716 100.806C54.9203 100.806 55.0365 100.922 55.0365 101.071Z" fill="white"/>
<path d="M69.4245 55.4065C69.4245 55.5505 69.3083 55.6714 69.1596 55.6714C69.0108 55.6714 68.8947 55.5552 68.8947 55.4065C68.8947 55.2578 69.0108 55.1416 69.1596 55.1416C69.3083 55.1416 69.4245 55.2578 69.4245 55.4065Z" fill="white"/>
<path d="M69.4245 61.1367C69.4245 61.2808 69.3083 61.4016 69.1596 61.4016C69.0108 61.4016 68.8947 61.2854 68.8947 61.1367C68.8947 60.988 69.0108 60.8718 69.1596 60.8718C69.3083 60.8718 69.4245 60.988 69.4245 61.1367Z" fill="white"/>
<path d="M69.4245 67.313C69.4245 67.457 69.3083 67.5779 69.1596 67.5779C69.0108 67.5779 68.8947 67.4617 68.8947 67.313C68.8947 67.1643 69.0108 67.0481 69.1596 67.0481C69.3083 67.0481 69.4245 67.1643 69.4245 67.313Z" fill="white"/>
<path d="M69.4245 73.4009C69.4245 73.545 69.3083 73.6658 69.1596 73.6658C69.0108 73.6658 68.8947 73.5496 68.8947 73.4009C68.8947 73.2522 69.0108 73.136 69.1596 73.136C69.3083 73.136 69.4245 73.2522 69.4245 73.4009Z" fill="white"/>
<path d="M69.4245 79.3308C69.4245 79.4749 69.3083 79.5957 69.1596 79.5957C69.0108 79.5957 68.8947 79.4795 68.8947 79.3308C68.8947 79.1821 69.0108 79.0659 69.1596 79.0659C69.3083 79.0659 69.4245 79.1821 69.4245 79.3308Z" fill="white"/>
<path d="M69.4245 85.1724C69.4245 85.3164 69.3083 85.4372 69.1596 85.4372C69.0108 85.4372 68.8947 85.3211 68.8947 85.1724C68.8947 85.0237 69.0108 84.9075 69.1596 84.9075C69.3083 84.9075 69.4245 85.0237 69.4245 85.1724Z" fill="white"/>
<path d="M69.4245 91.1397C69.4245 91.2837 69.3083 91.4046 69.1596 91.4046C69.0108 91.4046 68.8947 91.2884 68.8947 91.1397C68.8947 90.9909 69.0108 90.8748 69.1596 90.8748C69.3083 90.8748 69.4245 90.9909 69.4245 91.1397Z" fill="white"/>
<path d="M69.4245 100.234C69.4245 100.378 69.3083 100.499 69.1596 100.499C69.0108 100.499 68.8947 100.383 68.8947 100.234C68.8947 100.086 69.0108 99.9695 69.1596 99.9695C69.3083 99.9695 69.4245 100.086 69.4245 100.234Z" fill="white"/>
<path d="M41.8242 10.4767C39.2775 10.4163 38.6919 12.3589 38.5525 13.2976C38.4178 12.3635 37.8322 10.4163 35.2808 10.4767C31.9301 10.5557 31.4886 14.3107 32.6551 16.2068C33.8262 18.1029 34.4304 18.7117 35.6015 19.92C36.7029 21.0586 38.0227 22.3459 38.506 23.1313C38.506 23.1313 38.5339 23.2242 38.5479 23.1963C38.5618 23.2196 38.5897 23.1313 38.5897 23.1313C39.0777 22.3459 40.3929 21.0632 41.4943 19.92C42.6654 18.7071 43.2695 18.1029 44.4406 16.2068C45.6118 14.3107 45.1656 10.5557 41.8149 10.4767H41.8242Z" fill="#AF0F07"/>
<path d="M41.8242 93.6538C39.2775 93.7142 38.6919 91.7716 38.5525 90.8329C38.4178 91.767 37.8322 93.7142 35.2808 93.6538C31.9301 93.5748 31.4886 89.8198 32.6551 87.9237C33.8262 86.0276 34.4304 85.4188 35.6015 84.2105C36.7029 83.0719 38.0227 81.7846 38.506 80.9992C38.506 80.9992 38.5339 80.9063 38.5479 80.9342C38.5618 80.9109 38.5897 80.9992 38.5897 80.9992C39.0777 81.7846 40.3929 83.0673 41.4943 84.2105C42.6654 85.4234 43.2695 86.0276 44.4406 87.9237C45.6118 89.8198 45.1656 93.5748 41.8149 93.6538H41.8242Z" fill="#AF0F07"/>
<path d="M9.72076 14.1388C8.83778 14.1155 8.6333 14.794 8.58682 15.1193C8.54035 14.794 8.33588 14.1202 7.45289 14.1388C6.29107 14.1666 6.13771 15.4679 6.54202 16.1278C6.94633 16.7877 7.16011 16.9968 7.56442 17.4151C7.9455 17.8101 8.40558 18.2563 8.57288 18.5305C8.57288 18.5305 8.58218 18.563 8.58682 18.5537C8.59147 18.563 8.60077 18.5305 8.60077 18.5305C8.76807 18.2563 9.22815 17.8148 9.60923 17.4151C10.0135 16.9968 10.2273 16.7831 10.6316 16.1278C11.0359 15.4679 10.8826 14.1666 9.72076 14.1388Z" fill="#AF0F07"/>
<path d="M6.48159 11.1505C6.60706 10.8252 6.89055 10.4766 7.3274 10.1049L8.19179 9.36595C8.47528 9.12894 8.68905 8.87332 8.83776 8.58983C8.98648 8.30635 9.06083 7.98105 9.06083 7.61392C9.06083 7.14454 8.94466 6.78204 8.71694 6.52644C8.48922 6.27084 8.16391 6.14536 7.741 6.14536C7.55047 6.14536 7.36457 6.19185 7.18798 6.28015C7.01138 6.36844 6.86732 6.48925 6.75578 6.63797C6.64425 6.78668 6.58848 6.93541 6.58848 7.09342C6.58848 7.23749 6.62101 7.34438 6.68607 7.41409C6.75113 7.48379 6.84408 7.52561 6.95561 7.54419C7.14615 7.57208 7.29022 7.63716 7.38316 7.7394C7.47611 7.83699 7.52258 7.9578 7.52258 8.09722C7.52258 8.21341 7.48076 8.30635 7.40175 8.38535C7.3181 8.46436 7.20656 8.50154 7.0625 8.50154C6.81619 8.50154 6.61171 8.40394 6.44906 8.20875C6.2864 8.01357 6.2074 7.75798 6.2074 7.43732C6.2074 7.11665 6.2864 6.85177 6.43976 6.60546C6.59312 6.35916 6.8069 6.16859 7.08109 6.02917C7.35528 5.88976 7.662 5.82007 7.99661 5.82007C8.38233 5.82007 8.72623 5.89441 9.03295 6.03848C9.33967 6.18254 9.58133 6.39168 9.75328 6.66123C9.92988 6.93077 10.0135 7.25143 10.0135 7.61857C10.0135 7.9857 9.8834 8.31566 9.6278 8.60844C9.36755 8.90122 9.0283 9.19864 8.61005 9.50071L7.72706 10.1839C7.47611 10.3604 7.28092 10.5231 7.14615 10.6858C7.01138 10.8484 6.94167 11.0111 6.94167 11.1784C6.94167 11.3224 7.03462 11.3968 7.22051 11.3968H8.92606C9.16772 11.3968 9.33502 11.3457 9.43726 11.2388C9.53486 11.1319 9.60457 10.9832 9.64174 10.7926L9.73934 10.2582H9.93917L9.81369 12.1357H6.2957C6.2957 11.8058 6.36076 11.4758 6.48624 11.1505H6.48159Z" fill="#A43E32"/>
<path d="M70.828 96.893C70.7025 97.2183 70.419 97.5668 69.9822 97.9386L69.1178 98.6775C68.8343 98.9145 68.6205 99.1701 68.4718 99.4536C68.3231 99.7371 68.2487 100.062 68.2487 100.43C68.2487 100.899 68.3649 101.261 68.5926 101.517C68.8203 101.773 69.1456 101.898 69.5686 101.898C69.7591 101.898 69.945 101.852 70.1216 101.763C70.2982 101.675 70.4422 101.554 70.5538 101.405C70.6653 101.257 70.7211 101.108 70.7211 100.95C70.7211 100.806 70.6885 100.699 70.6235 100.629C70.5584 100.56 70.4655 100.518 70.3539 100.499C70.1634 100.467 70.0193 100.406 69.9264 100.304C69.8334 100.206 69.787 100.086 69.787 99.9462C69.787 99.83 69.8288 99.7371 69.9078 99.6581C69.9914 99.5791 70.103 99.5419 70.2471 99.5419C70.4934 99.5419 70.6978 99.6395 70.8605 99.8347C71.0232 100.03 71.1022 100.285 71.1022 100.606C71.1022 100.927 71.0231 101.187 70.8698 101.438C70.7164 101.684 70.5026 101.88 70.2285 102.014C69.9543 102.154 69.6475 102.223 69.3129 102.223C68.9272 102.223 68.5833 102.149 68.2766 102.005C67.9699 101.861 67.7282 101.652 67.5563 101.382C67.3797 101.113 67.296 100.792 67.296 100.425C67.296 100.058 67.4262 99.7278 67.6818 99.4304C67.942 99.1376 68.2813 98.8402 68.6995 98.5381L69.5825 97.8549C69.8334 97.6783 70.0286 97.5157 70.1634 97.353C70.2982 97.195 70.3679 97.0277 70.3679 96.8604C70.3679 96.7164 70.2749 96.642 70.089 96.642H68.3835C68.1418 96.642 67.9745 96.6931 67.8723 96.8C67.77 96.9069 67.705 97.0556 67.6678 97.2461L67.5702 97.7806H67.3704L67.4959 95.9031H71.0139C71.0139 96.233 70.9488 96.563 70.8233 96.8883L70.828 96.893Z" fill="#AF0F07"/>
<path d="M70.2842 93.7142C69.4013 93.7374 69.1968 93.0589 69.1503 92.7336C69.1038 93.0589 68.8994 93.7328 68.0164 93.7142C66.8546 93.6863 66.7012 92.3851 67.1055 91.7251C67.5098 91.0652 67.7236 90.8561 68.1279 90.4378C68.509 90.0428 68.9691 89.5967 69.1364 89.3225C69.1364 89.3225 69.1457 89.29 69.1503 89.2993C69.1549 89.29 69.1643 89.3225 69.1643 89.3225C69.3316 89.5967 69.7916 90.0382 70.1727 90.4378C70.577 90.8561 70.7908 91.0699 71.1951 91.7251C71.5994 92.3851 71.4461 93.6863 70.2842 93.7142Z" fill="#AF0F07"/>
</svg>
