<svg width="78" height="109" viewBox="0 0 78 109" fill="none" xmlns="http://www.w3.org/2000/svg">
<path d="M74.7816 0.6521H2.99023C1.46565 0.6521 0.229736 1.88799 0.229736 3.41256V106.127C0.229736 107.652 1.46565 108.887 2.99023 108.887H74.7816C76.3061 108.887 77.542 107.652 77.542 106.127V3.41256C77.542 1.88799 76.3061 0.6521 74.7816 0.6521Z" fill="white"/>
<path d="M74.7815 108.943H2.99021C1.43801 108.943 0.17395 107.679 0.17395 106.127V3.41269C0.17395 1.8605 1.43801 0.596436 2.99021 0.596436H74.7815C76.3337 0.596436 77.5978 1.8605 77.5978 3.41269V106.127C77.5978 107.679 76.3337 108.943 74.7815 108.943ZM2.99021 0.707994C1.49843 0.707994 0.285481 1.92091 0.285481 3.41269V106.127C0.285481 107.619 1.49843 108.832 2.99021 108.832H74.7815C76.2733 108.832 77.4862 107.619 77.4862 106.127V3.41269C77.4862 1.92091 76.2733 0.707994 74.7815 0.707994H2.99021Z" fill="#65A7DD"/>
<path d="M42.0879 10.4767C39.5412 10.4163 38.9556 12.3589 38.8162 13.2976C38.6814 12.3635 38.0959 10.4163 35.5445 10.4767C32.1938 10.5557 31.7523 14.3107 32.9188 16.2068C34.0853 18.1029 34.694 18.7117 35.8652 19.92C36.9666 21.0586 38.2864 22.3459 38.7697 23.1313C38.7697 23.1313 38.7976 23.2242 38.8116 23.1963C38.8255 23.2196 38.8534 23.1313 38.8534 23.1313C39.3413 22.3459 40.6565 21.0632 41.7579 19.92C42.9291 18.7071 43.5332 18.1029 44.7043 16.2068C45.8754 14.3107 45.4293 10.5557 42.0786 10.4767H42.0879Z" fill="#AF0F07"/>
<path d="M42.0879 45.703C39.5412 45.6426 38.9556 47.5852 38.8162 48.5239C38.6814 47.5898 38.0959 45.6426 35.5445 45.703C32.1938 45.782 31.7523 49.5371 32.9188 51.4332C34.0853 53.3292 34.694 53.938 35.8652 55.1463C36.9666 56.2849 38.2864 57.5722 38.7697 58.3576C38.7697 58.3576 38.7976 58.4506 38.8116 58.4227C38.8255 58.4459 38.8534 58.3576 38.8534 58.3576C39.3413 57.5722 40.6565 56.2896 41.7579 55.1463C42.9291 53.9334 43.5332 53.3292 44.7043 51.4332C45.8754 49.5371 45.4293 45.782 42.0786 45.703H42.0879Z" fill="#AF0F07"/>
<path d="M42.0879 93.6538C39.5412 93.7142 38.9556 91.7716 38.8162 90.8329C38.6814 91.767 38.0959 93.7142 35.5445 93.6538C32.1938 93.5748 31.7523 89.8198 32.9188 87.9237C34.0899 86.0276 34.694 85.4188 35.8652 84.2105C36.9666 83.0719 38.2864 81.7846 38.7697 80.9992C38.7697 80.9992 38.7976 80.9063 38.8116 80.9342C38.8255 80.9109 38.8534 80.9992 38.8534 80.9992C39.3413 81.7846 40.6565 83.0673 41.7579 84.2105C42.9291 85.4234 43.5332 86.0276 44.7043 87.9237C45.8754 89.8198 45.4293 93.5748 42.0786 93.6538H42.0879Z" fill="#AF0F07"/>
<path d="M9.81708 14.1388C8.93409 14.1155 8.72961 14.794 8.68314 15.1193C8.63667 14.794 8.43218 14.1202 7.5492 14.1388C6.38738 14.1666 6.23402 15.4679 6.63833 16.1278C7.04265 16.7877 7.25642 16.9968 7.66073 17.4151C8.04181 17.8101 8.50189 18.2563 8.6692 18.5305C8.6692 18.5305 8.67849 18.563 8.68314 18.5537C8.68779 18.563 8.69708 18.5305 8.69708 18.5305C8.86438 18.2563 9.32447 17.8148 9.70555 17.4151C10.1099 16.9968 10.3236 16.7831 10.7279 16.1278C11.1323 15.4679 10.9789 14.1666 9.81708 14.1388Z" fill="#AF0F07"/>
<path d="M6.9358 11.9685C6.62443 11.7593 6.46643 11.4573 6.46643 11.0622C6.46643 10.8438 6.53149 10.6626 6.65697 10.5092C6.78245 10.3558 6.94974 10.2768 7.15422 10.2768C7.32617 10.2768 7.46559 10.3233 7.56318 10.4163C7.66078 10.5092 7.7119 10.6393 7.7119 10.7973C7.7119 10.9228 7.67473 11.0344 7.60037 11.1273C7.52601 11.2202 7.42842 11.2667 7.30759 11.2667C7.09846 11.2667 6.99158 11.3178 6.99158 11.4201C6.99158 11.8012 7.36799 11.987 8.1255 11.987C8.56235 11.987 8.88302 11.8383 9.0782 11.5363C9.27339 11.2342 9.37099 10.8763 9.37099 10.4534C9.37099 9.97012 9.26874 9.61227 9.05961 9.37062C8.85048 9.12896 8.59954 9.00814 8.29746 9.00814C8.20917 9.00814 8.1348 9.01278 8.07439 9.02672C8.01862 9.04066 7.94427 9.05926 7.86062 9.09179C7.66078 9.15685 7.50741 9.18939 7.40053 9.18939C7.31223 9.18939 7.22859 9.16615 7.16352 9.12432C7.09381 9.0825 7.06128 9.01742 7.06128 8.93377C7.06128 8.85012 7.09381 8.78507 7.15887 8.74324C7.22393 8.70142 7.30758 8.67817 7.40053 8.67817C7.50277 8.67817 7.64219 8.69213 7.82343 8.72466C7.94426 8.74325 8.10692 8.75255 8.32069 8.75255C8.60883 8.75255 8.83189 8.62241 8.98525 8.36216C9.13861 8.10191 9.21298 7.79984 9.21298 7.46524C9.21298 7.07487 9.12467 6.74957 8.94343 6.48932C8.76219 6.22907 8.50194 6.10359 8.15804 6.10359C7.81414 6.10359 7.55389 6.15935 7.40518 6.27553C7.25646 6.39172 7.18675 6.5172 7.18675 6.66127C7.18675 6.71703 7.21 6.77279 7.25182 6.82856C7.29365 6.88433 7.34941 6.9308 7.42377 6.96797C7.64219 7.05627 7.74907 7.20499 7.74907 7.40947C7.74907 7.53495 7.70725 7.64183 7.6236 7.72083C7.53995 7.79984 7.41912 7.84167 7.26111 7.84167C7.08452 7.84167 6.9358 7.76732 6.80567 7.61861C6.67555 7.46989 6.6105 7.30724 6.6105 7.12599C6.6105 6.70309 6.77315 6.38241 7.09382 6.15005C7.41448 5.92233 7.80484 5.80615 8.26028 5.80615C8.80866 5.80615 9.2455 5.95022 9.58011 6.243C9.91471 6.53578 10.082 6.91687 10.082 7.39089C10.082 7.64185 10.0216 7.86954 9.90542 8.06473C9.78924 8.25991 9.64052 8.41794 9.46392 8.54341C9.28733 8.66889 9.10609 8.74788 8.92949 8.7897V8.86408C9.12932 8.90125 9.3338 8.9849 9.55222 9.11967C9.77065 9.25444 9.95189 9.43568 10.1006 9.6634C10.2493 9.89111 10.3283 10.1514 10.3283 10.4488C10.3283 10.8159 10.2307 11.1366 10.0309 11.4108C9.83106 11.685 9.56616 11.8941 9.23156 12.0428C8.89695 12.1915 8.52982 12.2659 8.1255 12.2659C7.64218 12.2659 7.24717 12.1636 6.9358 11.9545V11.9685Z" fill="#A43E32"/>
<path d="M70.9196 96.0797C71.231 96.2888 71.389 96.5909 71.389 96.9859C71.389 97.2043 71.3239 97.3856 71.1985 97.5389C71.073 97.6923 70.9057 97.7666 70.7012 97.7666C70.5293 97.7666 70.3898 97.7202 70.2922 97.6272C70.1946 97.5343 70.1435 97.4042 70.1435 97.2461C70.1435 97.1207 70.1807 97.0091 70.2551 96.9162C70.3294 96.8232 70.427 96.7768 70.5478 96.7768C70.757 96.7768 70.8638 96.7256 70.8638 96.6234C70.8638 96.2423 70.4874 96.0564 69.7299 96.0564C69.2931 96.0564 68.9724 96.2051 68.7772 96.5072C68.582 96.8093 68.4844 97.1671 68.4844 97.59C68.4844 98.0734 68.5867 98.4312 68.7958 98.6729C69.0049 98.9145 69.2559 99.0353 69.558 99.0353C69.6463 99.0353 69.7206 99.0307 69.781 99.0168C69.8368 99.0028 69.9112 98.9842 69.9948 98.9517C70.1946 98.8866 70.348 98.8541 70.4549 98.8541C70.5432 98.8541 70.6268 98.8773 70.6919 98.9192C70.7616 98.961 70.7941 99.0261 70.7941 99.1097C70.7941 99.1934 70.7616 99.2584 70.6966 99.3002C70.6315 99.3421 70.5478 99.3653 70.4549 99.3653C70.3527 99.3653 70.2132 99.3514 70.032 99.3188C69.9112 99.3003 69.7485 99.291 69.5347 99.291C69.2466 99.291 69.0235 99.4211 68.8702 99.6813C68.7168 99.9416 68.6424 100.244 68.6424 100.578C68.6424 100.969 68.7308 101.294 68.912 101.554C69.0932 101.814 69.3535 101.94 69.6974 101.94C70.0413 101.94 70.3015 101.884 70.4502 101.768C70.599 101.652 70.6687 101.526 70.6687 101.382C70.6687 101.326 70.6454 101.271 70.6036 101.215C70.5618 101.159 70.506 101.113 70.4317 101.076C70.2132 100.987 70.1064 100.838 70.1064 100.634C70.1064 100.509 70.1482 100.402 70.2318 100.323C70.3155 100.244 70.4363 100.202 70.5943 100.202C70.7709 100.202 70.9196 100.276 71.0498 100.425C71.1799 100.574 71.2449 100.736 71.2449 100.918C71.2449 101.34 71.0823 101.661 70.7616 101.893C70.441 102.121 70.0506 102.237 69.5951 102.237C69.0468 102.237 68.6099 102.093 68.2753 101.8C67.9407 101.508 67.7734 101.127 67.7734 100.653C67.7734 100.402 67.8338 100.174 67.95 99.9788C68.0662 99.7836 68.2149 99.6255 68.3915 99.5001C68.5681 99.3746 68.7493 99.2956 68.9259 99.2538V99.1794C68.7261 99.1422 68.5216 99.0586 68.3032 98.9238C68.0848 98.789 67.9035 98.6078 67.7548 98.3801C67.6061 98.1524 67.5271 97.8875 67.5271 97.5947C67.5271 97.2276 67.6247 96.9069 67.8245 96.6327C68.0244 96.3585 68.2893 96.1494 68.6239 96.0007C68.9585 95.852 69.3256 95.7776 69.7299 95.7776C70.2132 95.7776 70.6083 95.8798 70.9196 96.089V96.0797Z" fill="#AF0F07"/>
<path d="M70.3806 93.7142C69.4976 93.7374 69.2931 93.0589 69.2466 92.7336C69.2001 93.0589 68.9957 93.7328 68.1127 93.7142C66.9509 93.6863 66.7975 92.3851 67.2018 91.7251C67.6061 91.0652 67.8199 90.8561 68.2242 90.4378C68.6053 90.0428 69.0654 89.5967 69.2327 89.3225C69.2327 89.3225 69.242 89.29 69.2466 89.2993C69.2513 89.29 69.2606 89.3225 69.2606 89.3225C69.4279 89.5967 69.8879 90.0382 70.269 90.4378C70.6733 90.8561 70.8871 91.0699 71.2914 91.7251C71.6957 92.3851 71.5424 93.6863 70.3806 93.7142Z" fill="#AF0F07"/>
</svg>
