<svg width="78" height="109" viewBox="0 0 78 109" fill="none" xmlns="http://www.w3.org/2000/svg">
<path d="M74.8685 0.6521H3.07714C1.55256 0.6521 0.31665 1.88799 0.31665 3.41256V106.127C0.31665 107.652 1.55256 108.887 3.07714 108.887H74.8685C76.393 108.887 77.6289 107.652 77.6289 106.127V3.41256C77.6289 1.88799 76.393 0.6521 74.8685 0.6521Z" fill="white"/>
<path d="M74.8684 108.943H3.07712C1.52493 108.943 0.260864 107.679 0.260864 106.127V3.41269C0.260864 1.8605 1.52493 0.596436 3.07712 0.596436H74.8684C76.4206 0.596436 77.6847 1.8605 77.6847 3.41269V106.127C77.6847 107.679 76.4206 108.943 74.8684 108.943ZM3.07712 0.707994C1.58534 0.707994 0.372395 1.92091 0.372395 3.41269V106.127C0.372395 107.619 1.58534 108.832 3.07712 108.832H74.8684C76.3602 108.832 77.5732 107.619 77.5732 106.127V3.41269C77.5732 1.92091 76.3602 0.707994 74.8684 0.707994H3.07712Z" fill="#65A7DD"/>
<path d="M69.5984 9.18922C69.5984 9.33328 69.4822 9.45409 69.3335 9.45409C69.1848 9.45409 69.0686 9.33793 69.0686 9.18922C69.0686 9.0405 69.1848 8.92432 69.3335 8.92432C69.4822 8.92432 69.5984 9.0405 69.5984 9.18922Z" fill="white"/>
<path d="M56.9904 9.18922C56.9904 9.33328 56.8742 9.45409 56.7255 9.45409C56.5768 9.45409 56.4606 9.33793 56.4606 9.18922C56.4606 9.0405 56.5768 8.92432 56.7255 8.92432C56.8742 8.92432 56.9904 9.0405 56.9904 9.18922Z" fill="white"/>
<path d="M33.7539 9.27296C33.7539 9.41702 33.6377 9.53785 33.489 9.53785C33.3403 9.53785 33.2241 9.42167 33.2241 9.27296C33.2241 9.12424 33.3403 9.00806 33.489 9.00806C33.6377 9.00806 33.7539 9.12424 33.7539 9.27296Z" fill="white"/>
<path d="M69.5984 19.0137C69.5984 19.1577 69.4822 19.2786 69.3335 19.2786C69.1848 19.2786 69.0686 19.1624 69.0686 19.0137C69.0686 18.865 69.1848 18.7488 69.3335 18.7488C69.4822 18.7488 69.5984 18.865 69.5984 19.0137Z" fill="white"/>
<path d="M69.5984 27.9783C69.5984 28.1223 69.4822 28.2432 69.3335 28.2432C69.1848 28.2432 69.0686 28.127 69.0686 27.9783C69.0686 27.8296 69.1848 27.7134 69.3335 27.7134C69.4822 27.7134 69.5984 27.8296 69.5984 27.9783Z" fill="white"/>
<path d="M9.04884 9.45408C9.04884 9.59815 8.93266 9.71898 8.78394 9.71898C8.63523 9.71898 8.51904 9.60279 8.51904 9.45408C8.51904 9.30537 8.63523 9.18921 8.78394 9.18921C8.93266 9.18921 9.04884 9.30537 9.04884 9.45408Z" fill="white"/>
<path d="M21.7964 9.27296C21.7964 9.41702 21.6802 9.53785 21.5315 9.53785C21.3828 9.53785 21.2666 9.42167 21.2666 9.27296C21.2666 9.12424 21.3828 9.00806 21.5315 9.00806C21.6802 9.00806 21.7964 9.12424 21.7964 9.27296Z" fill="white"/>
<path d="M9.04884 18.8044C9.04884 18.9485 8.93266 19.0693 8.78394 19.0693C8.63523 19.0693 8.51904 18.9532 8.51904 18.8044C8.51904 18.6557 8.63523 18.5396 8.78394 18.5396C8.93266 18.5396 9.04884 18.6557 9.04884 18.8044Z" fill="white"/>
<path d="M9.04884 28.0434C9.04884 28.1875 8.93266 28.3083 8.78394 28.3083C8.63523 28.3083 8.51904 28.1921 8.51904 28.0434C8.51904 27.8947 8.63523 27.7786 8.78394 27.7786C8.93266 27.7786 9.04884 27.8947 9.04884 28.0434Z" fill="white"/>
<path d="M9.04884 37.31C9.04884 37.4541 8.93266 37.5749 8.78394 37.5749C8.63523 37.5749 8.51904 37.4587 8.51904 37.31C8.51904 37.1613 8.63523 37.0452 8.78394 37.0452C8.93266 37.0452 9.04884 37.1613 9.04884 37.31Z" fill="white"/>
<path d="M9.04884 43.3142C9.04884 43.4583 8.93266 43.5791 8.78394 43.5791C8.63523 43.5791 8.51904 43.4629 8.51904 43.3142C8.51904 43.1655 8.63523 43.0493 8.78394 43.0493C8.93266 43.0493 9.04884 43.1655 9.04884 43.3142Z" fill="white"/>
<path d="M9.04884 49.5418C9.04884 49.6858 8.93266 49.8067 8.78394 49.8067C8.63523 49.8067 8.51904 49.6905 8.51904 49.5418C8.51904 49.393 8.63523 49.2769 8.78394 49.2769C8.93266 49.2769 9.04884 49.393 9.04884 49.5418Z" fill="white"/>
<path d="M9.04884 55.5505C9.04884 55.6946 8.93266 55.8154 8.78394 55.8154C8.63523 55.8154 8.51904 55.6992 8.51904 55.5505C8.51904 55.4018 8.63523 55.2856 8.78394 55.2856C8.93266 55.2856 9.04884 55.4018 9.04884 55.5505Z" fill="white"/>
<path d="M9.04884 79.6003C9.04884 79.7444 8.93266 79.8652 8.78394 79.8652C8.63523 79.8652 8.51904 79.749 8.51904 79.6003C8.51904 79.4516 8.63523 79.3354 8.78394 79.3354C8.93266 79.3354 9.04884 79.4516 9.04884 79.6003Z" fill="white"/>
<path d="M9.04884 85.8276C9.04884 85.9717 8.93266 86.0925 8.78394 86.0925C8.63523 86.0925 8.51904 85.9764 8.51904 85.8276C8.51904 85.6789 8.63523 85.5627 8.78394 85.5627C8.93266 85.5627 9.04884 85.6789 9.04884 85.8276Z" fill="white"/>
<path d="M9.04884 91.8923C9.04884 92.0364 8.93266 92.1572 8.78394 92.1572C8.63523 92.1572 8.51904 92.0411 8.51904 91.8923C8.51904 91.7436 8.63523 91.6274 8.78394 91.6274C8.93266 91.6274 9.04884 91.7436 9.04884 91.8923Z" fill="white"/>
<path d="M9.15577 100.811C9.15577 100.955 9.03959 101.075 8.89088 101.075C8.74216 101.075 8.62598 100.959 8.62598 100.811C8.62598 100.662 8.74216 100.546 8.89088 100.546C9.03959 100.546 9.15577 100.662 9.15577 100.811Z" fill="white"/>
<path d="M30.984 101.071C30.984 101.215 30.8678 101.336 30.7191 101.336C30.5704 101.336 30.4542 101.22 30.4542 101.071C30.4542 100.922 30.5704 100.806 30.7191 100.806C30.8678 100.806 30.984 100.922 30.984 101.071Z" fill="white"/>
<path d="M43.2576 101.071C43.2576 101.215 43.1414 101.336 42.9927 101.336C42.844 101.336 42.7278 101.22 42.7278 101.071C42.7278 100.922 42.844 100.806 42.9927 100.806C43.1414 100.806 43.2576 100.922 43.2576 101.071Z" fill="white"/>
<path d="M55.2105 101.071C55.2105 101.215 55.0943 101.336 54.9456 101.336C54.7968 101.336 54.6807 101.22 54.6807 101.071C54.6807 100.922 54.7968 100.806 54.9456 100.806C55.0943 100.806 55.2105 100.922 55.2105 101.071Z" fill="white"/>
<path d="M69.5984 73.4009C69.5984 73.545 69.4822 73.6658 69.3335 73.6658C69.1848 73.6658 69.0686 73.5496 69.0686 73.4009C69.0686 73.2522 69.1848 73.136 69.3335 73.136C69.4822 73.136 69.5984 73.2522 69.5984 73.4009Z" fill="white"/>
<path d="M69.5984 79.3308C69.5984 79.4749 69.4822 79.5957 69.3335 79.5957C69.1848 79.5957 69.0686 79.4795 69.0686 79.3308C69.0686 79.1821 69.1848 79.0659 69.3335 79.0659C69.4822 79.0659 69.5984 79.1821 69.5984 79.3308Z" fill="white"/>
<path d="M69.5984 85.1724C69.5984 85.3164 69.4822 85.4372 69.3335 85.4372C69.1848 85.4372 69.0686 85.3211 69.0686 85.1724C69.0686 85.0237 69.1848 84.9075 69.3335 84.9075C69.4822 84.9075 69.5984 85.0237 69.5984 85.1724Z" fill="white"/>
<path d="M69.5984 91.1397C69.5984 91.2837 69.4822 91.4046 69.3335 91.4046C69.1848 91.4046 69.0686 91.2884 69.0686 91.1397C69.0686 90.9909 69.1848 90.8748 69.3335 90.8748C69.4822 90.8748 69.5984 90.9909 69.5984 91.1397Z" fill="white"/>
<path d="M69.5984 100.234C69.5984 100.378 69.4822 100.499 69.3335 100.499C69.1848 100.499 69.0686 100.383 69.0686 100.234C69.0686 100.086 69.1848 99.9695 69.3335 99.9695C69.4822 99.9695 69.5984 100.086 69.5984 100.234Z" fill="white"/>
<path d="M9.91327 14.1388C9.03028 14.1155 8.8258 14.794 8.77933 15.1193C8.73285 14.794 8.52839 14.1202 7.6454 14.1388C6.48358 14.1666 6.33021 15.4679 6.73452 16.1278C7.13884 16.7877 7.35262 16.9968 7.75693 17.4151C8.13801 17.8101 8.59808 18.2563 8.76539 18.5305C8.76539 18.5305 8.77468 18.563 8.77933 18.5537C8.78397 18.563 8.79327 18.5305 8.79327 18.5305C8.96057 18.2563 9.42066 17.8148 9.80174 17.4151C10.2061 16.9968 10.4198 16.7831 10.8241 16.1278C11.2285 15.4679 11.0751 14.1666 9.91327 14.1388Z" fill="#AF0F07"/>
<path d="M7.7662 11.8476H8.6399C8.72355 11.8476 8.78396 11.829 8.82579 11.7918C8.86296 11.7546 8.8862 11.6942 8.8862 11.6106V10.4023H6.59509V10.077L9.39276 5.95483H9.71807V10.077H10.8102V10.4023H9.71807V11.6106C9.71807 11.6942 9.73666 11.7546 9.77849 11.7918C9.82031 11.829 9.88073 11.8476 9.96438 11.8476H10.8381V12.1357H7.77086V11.8476H7.7662ZM7.00869 10.0816H8.8862V7.32114L7.00869 10.0816Z" fill="#A43E32"/>
<path d="M70.6347 96.2005H69.761C69.6774 96.2005 69.617 96.2191 69.5752 96.2562C69.538 96.2934 69.5147 96.3538 69.5147 96.4375V97.6458H71.8058V97.9711L69.0082 102.093H68.6829V97.9711H67.5907V97.6458H68.6829V96.4375C68.6829 96.3538 68.6643 96.2934 68.6224 96.2562C68.5853 96.2191 68.5202 96.2005 68.4366 96.2005H67.5629V95.9124H70.6301V96.2005H70.6347ZM71.3922 97.9711H69.5147V100.732L71.3922 97.9711Z" fill="#AF0F07"/>
<path d="M70.4768 93.7142C69.5938 93.7374 69.3893 93.0589 69.3428 92.7336C69.2963 93.0589 69.0919 93.7328 68.2089 93.7142C67.0471 93.6863 66.8937 92.3851 67.298 91.7251C67.7023 91.0652 67.9161 90.8561 68.3204 90.4378C68.7015 90.0428 69.1616 89.5967 69.3289 89.3225C69.3289 89.3225 69.3382 89.29 69.3428 89.2993C69.3475 89.29 69.3567 89.3225 69.3567 89.3225C69.524 89.5967 69.9841 90.0382 70.3652 90.4378C70.7695 90.8561 70.9833 91.0699 71.3876 91.7251C71.7919 92.3851 71.6386 93.6863 70.4768 93.7142Z" fill="#AF0F07"/>
<path d="M30.3055 12.1962C27.7588 12.1358 27.1733 14.0784 27.0338 15.0171C26.8991 14.083 26.3135 12.1358 23.7622 12.1962C20.4115 12.2752 19.97 16.0302 21.1364 17.9263C22.3029 19.8224 22.9117 20.4312 24.0828 21.6395C25.1842 22.7781 26.5041 24.0654 26.9874 24.8508C26.9874 24.8508 27.0153 24.9437 27.0292 24.9158C27.0431 24.9391 27.071 24.8508 27.071 24.8508C27.559 24.0654 28.8742 22.7827 29.9756 21.6395C31.1467 20.4266 31.7508 19.8224 32.922 17.9263C34.0931 16.0302 33.6469 12.2752 30.2962 12.1962H30.3055Z" fill="#AF0F07"/>
<path d="M30.3055 93.2263C27.7588 93.2867 27.1733 91.3442 27.0338 90.4054C26.8991 91.3395 26.3135 93.2867 23.7622 93.2263C20.4115 93.1473 19.97 89.3923 21.1364 87.4962C22.3029 85.6001 22.9117 84.9913 24.0828 83.783C25.1842 82.6444 26.5041 81.3571 26.9874 80.5718C26.9874 80.5718 27.0153 80.4788 27.0292 80.5067C27.0431 80.4834 27.071 80.5718 27.071 80.5718C27.559 81.3571 28.8742 82.6398 29.9756 83.783C31.1467 84.996 31.7508 85.6001 32.922 87.4962C34.0931 89.3923 33.6469 93.1473 30.2962 93.2263H30.3055Z" fill="#AF0F07"/>
<path d="M54.3552 12.1962C51.8085 12.1358 51.2229 14.0784 51.0835 15.0171C50.9487 14.083 50.3632 12.1358 47.8118 12.1962C44.4611 12.2752 44.0196 16.0302 45.1861 17.9263C46.3526 19.8224 46.9614 20.4312 48.1325 21.6395C49.2339 22.7781 50.5537 24.0654 51.0371 24.8508C51.0371 24.8508 51.0649 24.9437 51.0789 24.9158C51.0928 24.9391 51.1207 24.8508 51.1207 24.8508C51.6087 24.0654 52.9239 22.7827 54.0253 21.6395C55.1964 20.4266 55.8005 19.8224 56.9717 17.9263C58.1428 16.0302 57.6966 12.2752 54.3459 12.1962H54.3552Z" fill="#AF0F07"/>
<path d="M54.3552 93.2263C51.8085 93.2867 51.2229 91.3442 51.0835 90.4054C50.9487 91.3395 50.3632 93.2867 47.8118 93.2263C44.4611 93.1473 44.0196 89.3923 45.1861 87.4962C46.3526 85.6001 46.9614 84.9913 48.1325 83.783C49.2339 82.6444 50.5537 81.3571 51.0371 80.5718C51.0371 80.5718 51.0649 80.4788 51.0789 80.5067C51.0928 80.4834 51.1207 80.5718 51.1207 80.5718C51.6087 81.3571 52.9239 82.6398 54.0253 83.783C55.1964 84.996 55.8005 85.6001 56.9717 87.4962C58.1428 89.3923 57.6966 93.1473 54.3459 93.2263H54.3552Z" fill="#AF0F07"/>
</svg>
