<svg width="78" height="109" viewBox="0 0 78 109" fill="none" xmlns="http://www.w3.org/2000/svg">
<path d="M70.3547 96.721C69.4717 96.7443 69.2672 96.0658 69.2207 95.7405C69.1743 96.0658 68.9698 96.7396 68.0868 96.721C66.925 96.6932 66.7716 95.3919 67.1759 94.732C67.5802 94.0721 67.794 93.863 68.1983 93.4447C68.5794 93.0497 69.0395 92.6035 69.2068 92.3293C69.2068 92.3293 69.2161 92.2968 69.2207 92.3061C69.2254 92.2968 69.2347 92.3293 69.2347 92.3293C69.402 92.6035 69.8621 93.045 70.2432 93.4447C70.6475 93.863 70.8612 94.0767 71.2655 94.732C71.6699 95.3919 71.5165 96.6932 70.3547 96.721Z" fill="#AF0F07"/>
<path d="M74.9554 0.6521H3.16406C1.63948 0.6521 0.403564 1.88799 0.403564 3.41256V106.127C0.403564 107.652 1.63948 108.887 3.16406 108.887H74.9554C76.4799 108.887 77.7159 107.652 77.7159 106.127V3.41256C77.7159 1.88799 76.4799 0.6521 74.9554 0.6521Z" fill="white"/>
<path d="M74.9555 108.943H3.16416C1.61196 108.943 0.3479 107.679 0.3479 106.127V3.41269C0.3479 1.8605 1.61196 0.596436 3.16416 0.596436H74.9555C76.5077 0.596436 77.7717 1.8605 77.7717 3.41269V106.127C77.7717 107.679 76.5077 108.943 74.9555 108.943ZM3.16416 0.707994C1.67238 0.707994 0.459431 1.92091 0.459431 3.41269V106.127C0.459431 107.619 1.67238 108.832 3.16416 108.832H74.9555C76.4473 108.832 77.6602 107.619 77.6602 106.127V3.41269C77.6602 1.92091 76.4473 0.707994 74.9555 0.707994H3.16416Z" fill="#65A7DD"/>
<path d="M69.6854 9.18922C69.6854 9.33328 69.5693 9.45409 69.4205 9.45409C69.2718 9.45409 69.1556 9.33793 69.1556 9.18922C69.1556 9.0405 69.2718 8.92432 69.4205 8.92432C69.5693 8.92432 69.6854 9.0405 69.6854 9.18922Z" fill="white"/>
<path d="M57.0773 9.18922C57.0773 9.33328 56.9611 9.45409 56.8124 9.45409C56.6637 9.45409 56.5475 9.33793 56.5475 9.18922C56.5475 9.0405 56.6637 8.92432 56.8124 8.92432C56.9611 8.92432 57.0773 9.0405 57.0773 9.18922Z" fill="white"/>
<path d="M45.4824 9.18922C45.4824 9.33328 45.3662 9.45409 45.2175 9.45409C45.0688 9.45409 44.9526 9.33793 44.9526 9.18922C44.9526 9.0405 45.0688 8.92432 45.2175 8.92432C45.3662 8.92432 45.4824 9.0405 45.4824 9.18922Z" fill="white"/>
<path d="M33.8408 9.27296C33.8408 9.41702 33.7246 9.53785 33.5759 9.53785C33.4272 9.53785 33.311 9.42167 33.311 9.27296C33.311 9.12424 33.4272 9.00806 33.5759 9.00806C33.7246 9.00806 33.8408 9.12424 33.8408 9.27296Z" fill="white"/>
<path d="M69.6854 19.0137C69.6854 19.1577 69.5693 19.2786 69.4205 19.2786C69.2718 19.2786 69.1556 19.1624 69.1556 19.0137C69.1556 18.865 69.2718 18.7488 69.4205 18.7488C69.5693 18.7488 69.6854 18.865 69.6854 19.0137Z" fill="white"/>
<path d="M69.6854 27.9783C69.6854 28.1223 69.5693 28.2432 69.4205 28.2432C69.2718 28.2432 69.1556 28.127 69.1556 27.9783C69.1556 27.8296 69.2718 27.7134 69.4205 27.7134C69.5693 27.7134 69.6854 27.8296 69.6854 27.9783Z" fill="white"/>
<path d="M69.6854 37.375C69.6854 37.5191 69.5693 37.6399 69.4205 37.6399C69.2718 37.6399 69.1556 37.5237 69.1556 37.375C69.1556 37.2263 69.2718 37.1101 69.4205 37.1101C69.5693 37.1101 69.6854 37.2263 69.6854 37.375Z" fill="white"/>
<path d="M69.6854 43.3142C69.6854 43.4583 69.5693 43.5791 69.4205 43.5791C69.2718 43.5791 69.1556 43.4629 69.1556 43.3142C69.1556 43.1655 69.2718 43.0493 69.4205 43.0493C69.5693 43.0493 69.6854 43.1655 69.6854 43.3142Z" fill="white"/>
<path d="M69.6854 49.2768C69.6854 49.4209 69.5693 49.5417 69.4205 49.5417C69.2718 49.5417 69.1556 49.4255 69.1556 49.2768C69.1556 49.1281 69.2718 49.012 69.4205 49.012C69.5693 49.012 69.6854 49.1281 69.6854 49.2768Z" fill="white"/>
<path d="M9.13597 9.45408C9.13597 9.59815 9.01981 9.71898 8.8711 9.71898C8.72239 9.71898 8.6062 9.60279 8.6062 9.45408C8.6062 9.30537 8.72239 9.18921 8.8711 9.18921C9.01981 9.18921 9.13597 9.30537 9.13597 9.45408Z" fill="white"/>
<path d="M21.888 9.27296C21.888 9.41702 21.7719 9.53785 21.6232 9.53785C21.4745 9.53785 21.3583 9.42167 21.3583 9.27296C21.3583 9.12424 21.4745 9.00806 21.6232 9.00806C21.7719 9.00806 21.888 9.12424 21.888 9.27296Z" fill="white"/>
<path d="M9.13597 18.8044C9.13597 18.9485 9.01981 19.0693 8.8711 19.0693C8.72239 19.0693 8.6062 18.9532 8.6062 18.8044C8.6062 18.6557 8.72239 18.5396 8.8711 18.5396C9.01981 18.5396 9.13597 18.6557 9.13597 18.8044Z" fill="white"/>
<path d="M9.13597 28.0434C9.13597 28.1875 9.01981 28.3083 8.8711 28.3083C8.72239 28.3083 8.6062 28.1921 8.6062 28.0434C8.6062 27.8947 8.72239 27.7786 8.8711 27.7786C9.01981 27.7786 9.13597 27.8947 9.13597 28.0434Z" fill="white"/>
<path d="M9.13597 37.31C9.13597 37.4541 9.01981 37.5749 8.8711 37.5749C8.72239 37.5749 8.6062 37.4587 8.6062 37.31C8.6062 37.1613 8.72239 37.0452 8.8711 37.0452C9.01981 37.0452 9.13597 37.1613 9.13597 37.31Z" fill="white"/>
<path d="M9.13597 43.3142C9.13597 43.4583 9.01981 43.5791 8.8711 43.5791C8.72239 43.5791 8.6062 43.4629 8.6062 43.3142C8.6062 43.1655 8.72239 43.0493 8.8711 43.0493C9.01981 43.0493 9.13597 43.1655 9.13597 43.3142Z" fill="white"/>
<path d="M9.13597 49.5418C9.13597 49.6858 9.01981 49.8067 8.8711 49.8067C8.72239 49.8067 8.6062 49.6905 8.6062 49.5418C8.6062 49.393 8.72239 49.2769 8.8711 49.2769C9.01981 49.2769 9.13597 49.393 9.13597 49.5418Z" fill="white"/>
<path d="M9.13597 55.5505C9.13597 55.6946 9.01981 55.8154 8.8711 55.8154C8.72239 55.8154 8.6062 55.6992 8.6062 55.5505C8.6062 55.4018 8.72239 55.2856 8.8711 55.2856C9.01981 55.2856 9.13597 55.4018 9.13597 55.5505Z" fill="white"/>
<path d="M9.13597 61.5596C9.13597 61.7036 9.01981 61.8244 8.8711 61.8244C8.72239 61.8244 8.6062 61.7083 8.6062 61.5596C8.6062 61.4109 8.72239 61.2947 8.8711 61.2947C9.01981 61.2947 9.13597 61.4109 9.13597 61.5596Z" fill="white"/>
<path d="M9.13597 67.7869C9.13597 67.9309 9.01981 68.0518 8.8711 68.0518C8.72239 68.0518 8.6062 67.9356 8.6062 67.7869C8.6062 67.6382 8.72239 67.522 8.8711 67.522C9.01981 67.522 9.13597 67.6382 9.13597 67.7869Z" fill="white"/>
<path d="M9.13597 74.0237C9.13597 74.1677 9.01981 74.2886 8.8711 74.2886C8.72239 74.2886 8.6062 74.1724 8.6062 74.0237C8.6062 73.8749 8.72239 73.7588 8.8711 73.7588C9.01981 73.7588 9.13597 73.8749 9.13597 74.0237Z" fill="white"/>
<path d="M9.13597 79.6003C9.13597 79.7444 9.01981 79.8652 8.8711 79.8652C8.72239 79.8652 8.6062 79.749 8.6062 79.6003C8.6062 79.4516 8.72239 79.3354 8.8711 79.3354C9.01981 79.3354 9.13597 79.4516 9.13597 79.6003Z" fill="white"/>
<path d="M9.13597 85.8276C9.13597 85.9717 9.01981 86.0925 8.8711 86.0925C8.72239 86.0925 8.6062 85.9764 8.6062 85.8276C8.6062 85.6789 8.72239 85.5627 8.8711 85.5627C9.01981 85.5627 9.13597 85.6789 9.13597 85.8276Z" fill="white"/>
<path d="M9.13597 91.8923C9.13597 92.0364 9.01981 92.1572 8.8711 92.1572C8.72239 92.1572 8.6062 92.0411 8.6062 91.8923C8.6062 91.7436 8.72239 91.6274 8.8711 91.6274C9.01981 91.6274 9.13597 91.7436 9.13597 91.8923Z" fill="white"/>
<path d="M9.24281 100.811C9.24281 100.955 9.12662 101.075 8.97791 101.075C8.8292 101.075 8.71301 100.959 8.71301 100.811C8.71301 100.662 8.8292 100.546 8.97791 100.546C9.12662 100.546 9.24281 100.662 9.24281 100.811Z" fill="white"/>
<path d="M18.779 101.071C18.779 101.215 18.6629 101.336 18.5142 101.336C18.3655 101.336 18.2493 101.22 18.2493 101.071C18.2493 100.922 18.3655 100.806 18.5142 100.806C18.6629 100.806 18.779 100.922 18.779 101.071Z" fill="white"/>
<path d="M31.0712 101.071C31.0712 101.215 30.955 101.336 30.8063 101.336C30.6576 101.336 30.5414 101.22 30.5414 101.071C30.5414 100.922 30.6576 100.806 30.8063 100.806C30.955 100.806 31.0712 100.922 31.0712 101.071Z" fill="white"/>
<path d="M43.3445 101.071C43.3445 101.215 43.2283 101.336 43.0796 101.336C42.9309 101.336 42.8147 101.22 42.8147 101.071C42.8147 100.922 42.9309 100.806 43.0796 100.806C43.2283 100.806 43.3445 100.922 43.3445 101.071Z" fill="white"/>
<path d="M55.2975 101.071C55.2975 101.215 55.1813 101.336 55.0326 101.336C54.8839 101.336 54.7677 101.22 54.7677 101.071C54.7677 100.922 54.8839 100.806 55.0326 100.806C55.1813 100.806 55.2975 100.922 55.2975 101.071Z" fill="white"/>
<path d="M69.6854 55.4065C69.6854 55.5505 69.5693 55.6714 69.4205 55.6714C69.2718 55.6714 69.1556 55.5552 69.1556 55.4065C69.1556 55.2578 69.2718 55.1416 69.4205 55.1416C69.5693 55.1416 69.6854 55.2578 69.6854 55.4065Z" fill="white"/>
<path d="M69.6854 61.1367C69.6854 61.2808 69.5693 61.4016 69.4205 61.4016C69.2718 61.4016 69.1556 61.2854 69.1556 61.1367C69.1556 60.988 69.2718 60.8718 69.4205 60.8718C69.5693 60.8718 69.6854 60.988 69.6854 61.1367Z" fill="white"/>
<path d="M69.6854 67.313C69.6854 67.457 69.5693 67.5779 69.4205 67.5779C69.2718 67.5779 69.1556 67.4617 69.1556 67.313C69.1556 67.1643 69.2718 67.0481 69.4205 67.0481C69.5693 67.0481 69.6854 67.1643 69.6854 67.313Z" fill="white"/>
<path d="M69.6854 73.4009C69.6854 73.545 69.5693 73.6658 69.4205 73.6658C69.2718 73.6658 69.1556 73.5496 69.1556 73.4009C69.1556 73.2522 69.2718 73.136 69.4205 73.136C69.5693 73.136 69.6854 73.2522 69.6854 73.4009Z" fill="white"/>
<path d="M69.6854 79.3308C69.6854 79.4749 69.5693 79.5957 69.4205 79.5957C69.2718 79.5957 69.1556 79.4795 69.1556 79.3308C69.1556 79.1821 69.2718 79.0659 69.4205 79.0659C69.5693 79.0659 69.6854 79.1821 69.6854 79.3308Z" fill="white"/>
<path d="M69.6854 85.1724C69.6854 85.3164 69.5693 85.4372 69.4205 85.4372C69.2718 85.4372 69.1556 85.3211 69.1556 85.1724C69.1556 85.0237 69.2718 84.9075 69.4205 84.9075C69.5693 84.9075 69.6854 85.0237 69.6854 85.1724Z" fill="white"/>
<path d="M69.6854 91.1397C69.6854 91.2837 69.5693 91.4046 69.4205 91.4046C69.2718 91.4046 69.1556 91.2884 69.1556 91.1397C69.1556 90.9909 69.2718 90.8748 69.4205 90.8748C69.5693 90.8748 69.6854 90.9909 69.6854 91.1397Z" fill="white"/>
<path d="M69.6854 100.234C69.6854 100.378 69.5693 100.499 69.4205 100.499C69.2718 100.499 69.1556 100.383 69.1556 100.234C69.1556 100.086 69.2718 99.9695 69.4205 99.9695C69.5693 99.9695 69.6854 100.086 69.6854 100.234Z" fill="white"/>
<path d="M6.5799 13.9621C6.33359 13.8459 6.14306 13.6879 6.01294 13.4834C5.88282 13.2836 5.81311 13.0559 5.81311 12.8096C5.81311 12.5261 5.88745 12.3123 6.03152 12.1589C6.17559 12.0102 6.3429 11.9359 6.53809 11.9359C6.70074 11.9359 6.82622 11.987 6.91917 12.0846C7.01211 12.1822 7.05858 12.3077 7.05858 12.461C7.05858 12.5633 7.0307 12.6562 6.97028 12.7445C6.90987 12.8328 6.83086 12.8979 6.73792 12.9397C6.65427 12.9815 6.58921 13.0233 6.53809 13.0652C6.49161 13.107 6.46371 13.1628 6.46371 13.2371C6.46371 13.4276 6.53809 13.581 6.6868 13.6879C6.83552 13.7948 7.0911 13.8506 7.45359 13.8506C7.89973 13.8506 8.2204 13.66 8.42023 13.2743C8.62007 12.8886 8.71767 12.4006 8.71767 11.815C8.71767 11.262 8.62008 10.8391 8.42954 10.5417C8.239 10.2489 7.92297 10.1002 7.49077 10.1002C7.31418 10.1002 7.16548 10.1281 7.04 10.1792C6.91452 10.2303 6.78439 10.3233 6.65427 10.4534C6.59385 10.5138 6.54273 10.5928 6.50555 10.6904C6.46837 10.788 6.44513 10.8763 6.44513 10.946C6.44513 11.0111 6.42655 11.0668 6.39402 11.1087C6.36149 11.1505 6.31965 11.1737 6.26388 11.1737C6.16629 11.1737 6.11982 11.0994 6.11982 10.9507V7.83696L6.31965 7.68359C6.44513 7.79048 6.63102 7.88344 6.87268 7.95314C7.11434 8.0275 7.34207 8.06002 7.55584 8.06002C7.84398 8.06002 8.10422 8.03215 8.34124 7.98103C8.57825 7.92526 8.81525 7.82766 9.06156 7.68359L9.16844 7.80908C8.95002 8.09256 8.68513 8.3203 8.36912 8.49225C8.0531 8.6642 7.71848 8.74784 7.36529 8.74784C7.14222 8.74784 6.96564 8.73389 6.83087 8.706C6.70074 8.67812 6.57061 8.63165 6.44513 8.56659V10.2907L6.5009 10.3093C6.64497 10.142 6.82157 10.0119 7.0307 9.91894C7.23983 9.82599 7.45361 9.77953 7.67668 9.77953C8.30871 9.77953 8.80131 9.96542 9.14986 10.3372C9.50305 10.709 9.67966 11.2016 9.67966 11.815C9.67966 12.2519 9.57741 12.6516 9.37757 13.0047C9.17774 13.3579 8.9082 13.6368 8.56895 13.8413C8.23434 14.0411 7.86255 14.1433 7.45824 14.1433C7.12364 14.1433 6.83085 14.0829 6.58455 13.9667L6.5799 13.9621Z" fill="#A43E32"/>
<path d="M70.1829 98.7193C70.4292 98.8355 70.6197 98.9935 70.7498 99.198C70.88 99.3978 70.9497 99.6256 70.9497 99.8719C70.9497 100.155 70.8753 100.369 70.7313 100.522C70.5872 100.671 70.4199 100.746 70.2247 100.746C70.062 100.746 69.9366 100.694 69.8436 100.597C69.7507 100.499 69.7042 100.374 69.7042 100.22C69.7042 100.118 69.7321 100.025 69.7925 99.9369C69.8529 99.8486 69.9319 99.7835 70.0249 99.7417C70.1085 99.6999 70.1736 99.6581 70.2247 99.6162C70.2712 99.5744 70.2991 99.5186 70.2991 99.4443C70.2991 99.2537 70.2247 99.1004 70.076 98.9935C69.9273 98.8866 69.6717 98.8308 69.3092 98.8308C68.8631 98.8308 68.5424 99.0214 68.3426 99.4071C68.1427 99.7929 68.0451 100.281 68.0451 100.866C68.0451 101.419 68.1427 101.842 68.3333 102.14C68.5238 102.432 68.8398 102.581 69.272 102.581C69.4486 102.581 69.5973 102.553 69.7228 102.502C69.8483 102.451 69.9784 102.358 70.1085 102.228C70.1689 102.168 70.2201 102.089 70.2572 101.991C70.2944 101.893 70.3177 101.805 70.3177 101.735C70.3177 101.67 70.3362 101.615 70.3688 101.573C70.4013 101.531 70.4431 101.508 70.4989 101.508C70.5965 101.508 70.643 101.582 70.643 101.735V104.849L70.4431 105.002C70.3177 104.896 70.1318 104.803 69.8901 104.733C69.6485 104.659 69.4207 104.626 69.2069 104.626C68.9188 104.626 68.6586 104.654 68.4216 104.705C68.1845 104.761 67.9475 104.858 67.7012 105.002L67.5943 104.877C67.8128 104.593 68.0777 104.366 68.3937 104.198C68.7097 104.027 69.0443 103.943 69.3975 103.943C69.6206 103.943 69.7971 103.957 69.9319 103.985C70.062 104.013 70.1922 104.059 70.3177 104.124V102.4L70.2619 102.381C70.1178 102.549 69.9412 102.679 69.7321 102.772C69.523 102.865 69.3092 102.911 69.0861 102.911C68.4541 102.911 67.9615 102.725 67.6129 102.353C67.2597 101.982 67.0831 101.489 67.0831 100.876C67.0831 100.439 67.1854 100.039 67.3852 99.686C67.585 99.3328 67.8546 99.0539 68.1938 98.8494C68.5284 98.6496 68.9002 98.5474 69.3045 98.5474C69.6392 98.5474 69.9319 98.6078 70.1782 98.724L70.1829 98.7193Z" fill="#A43E32"/>
<path d="M9.36372 16.7132C8.48074 16.69 8.27625 17.3685 8.22978 17.6892C8.18331 17.3638 7.97883 16.69 7.09584 16.7132C5.93402 16.7411 5.78065 18.0423 6.18496 18.7023C6.58928 19.3622 6.80306 19.5713 7.20737 19.9896C7.58845 20.3846 8.04852 20.8307 8.21582 21.1049C8.21582 21.1049 8.22513 21.1375 8.22978 21.1282C8.23443 21.1375 8.24371 21.1049 8.24371 21.1049C8.41101 20.8307 8.87108 20.3892 9.25216 19.9896C9.65648 19.5713 9.87026 19.3575 10.2746 18.7023C10.6789 18.0423 10.5255 16.7411 9.36372 16.7132Z" fill="#AF0F07"/>
<path d="M29.3146 14.7753C26.7679 14.7149 26.1823 16.6575 26.0429 17.5962C25.9081 16.6621 25.3226 14.7149 22.7712 14.7753C19.4205 14.8543 18.979 18.6093 20.1455 20.5054C21.3119 22.4015 21.9207 23.0103 23.0919 24.2186C24.1933 25.3572 25.5131 26.6445 25.9964 27.4299C25.9964 27.4299 26.0243 27.5228 26.0383 27.4949C26.0522 27.5182 26.0801 27.4299 26.0801 27.4299C26.568 26.6445 27.8832 25.3618 28.9846 24.2186C30.1557 23.0057 30.7599 22.4015 31.931 20.5054C33.1021 18.6093 32.656 14.8543 29.3053 14.7753H29.3146Z" fill="#AF0F07"/>
<path d="M29.3146 95.8008C26.7679 95.8612 26.1823 93.9186 26.0429 92.9799C25.9081 93.914 25.3226 95.8612 22.7712 95.8008C19.4205 95.7218 18.979 91.9668 20.1455 90.0707C21.3166 88.1746 21.9207 87.5658 23.0919 86.3575C24.1933 85.2189 25.5131 83.9316 25.9964 83.1462C25.9964 83.1462 26.0243 83.0533 26.0383 83.0811C26.0522 83.0579 26.0801 83.1462 26.0801 83.1462C26.568 83.9316 27.8832 85.2142 28.9846 86.3575C30.1557 87.5704 30.7599 88.1746 31.931 90.0707C33.1021 91.9668 32.656 95.7218 29.3053 95.8008H29.3146Z" fill="#AF0F07"/>
<path d="M53.7965 14.7753C51.2498 14.7149 50.6642 16.6575 50.5248 17.5962C50.39 16.6621 49.8045 14.7149 47.2531 14.7753C43.9024 14.8543 43.4609 18.6093 44.6274 20.5054C45.7939 22.4015 46.4027 23.0103 47.5738 24.2186C48.6752 25.3572 49.995 26.6445 50.4783 27.4299C50.4783 27.4299 50.5062 27.5228 50.5202 27.4949C50.5341 27.5182 50.562 27.4299 50.562 27.4299C51.0499 26.6445 52.3651 25.3618 53.4665 24.2186C54.6376 23.0057 55.2418 22.4015 56.4129 20.5054C57.584 18.6093 57.1379 14.8543 53.7872 14.7753H53.7965Z" fill="#AF0F07"/>
<path d="M53.7965 95.8008C51.2498 95.8612 50.6642 93.9186 50.5248 92.9799C50.39 93.914 49.8045 95.8612 47.2531 95.8008C43.9024 95.7218 43.4609 91.9668 44.6274 90.0707C45.7985 88.1746 46.4027 87.5658 47.5738 86.3575C48.6752 85.2189 49.995 83.9316 50.4783 83.1462C50.4783 83.1462 50.5062 83.0533 50.5202 83.0811C50.5341 83.0579 50.562 83.1462 50.562 83.1462C51.0499 83.9316 52.3651 85.2142 53.4665 86.3575C54.6376 87.5704 55.2418 88.1746 56.4129 90.0707C57.584 91.9668 57.1379 95.7218 53.7872 95.8008H53.7965Z" fill="#AF0F07"/>
<path d="M41.3418 48.2777C38.7951 48.2173 38.2095 50.1599 38.0701 51.0987C37.9353 50.1645 37.3498 48.2173 34.7984 48.2777C31.4477 48.3567 31.0062 52.1118 32.1727 54.0079C33.3392 55.904 33.948 56.5127 35.1191 57.721C36.2205 58.8596 37.5403 60.1469 38.0236 60.9323C38.0236 60.9323 38.0515 61.0253 38.0654 60.9974C38.0794 61.0206 38.1073 60.9323 38.1073 60.9323C38.5952 60.1469 39.9104 58.8643 41.0118 57.721C42.183 56.5081 42.7871 55.904 43.9582 54.0079C45.1293 52.1118 44.6832 48.3567 41.3325 48.2777H41.3418Z" fill="#AF0F07"/>
</svg>
