<svg width="78" height="109" viewBox="0 0 78 109" fill="none" xmlns="http://www.w3.org/2000/svg">
<path d="M75.0424 0.6521H3.25109C1.72652 0.6521 0.490601 1.88799 0.490601 3.41256V106.127C0.490601 107.652 1.72652 108.887 3.25109 108.887H75.0424C76.567 108.887 77.8029 107.652 77.8029 106.127V3.41256C77.8029 1.88799 76.567 0.6521 75.0424 0.6521Z" fill="white"/>
<path d="M75.0424 108.943H3.25107C1.69888 108.943 0.434814 107.679 0.434814 106.127V3.41269C0.434814 1.8605 1.69888 0.596436 3.25107 0.596436H75.0424C76.5946 0.596436 77.8586 1.8605 77.8586 3.41269V106.127C77.8586 107.679 76.5946 108.943 75.0424 108.943ZM3.25107 0.707994C1.75929 0.707994 0.546345 1.92091 0.546345 3.41269V106.127C0.546345 107.619 1.75929 108.832 3.25107 108.832H75.0424C76.5342 108.832 77.7471 107.619 77.7471 106.127V3.41269C77.7471 1.92091 76.5342 0.707994 75.0424 0.707994H3.25107Z" fill="#65A7DD"/>
<path d="M69.7725 9.18922C69.7725 9.33328 69.6563 9.45409 69.5076 9.45409C69.3589 9.45409 69.2427 9.33793 69.2427 9.18922C69.2427 9.0405 69.3589 8.92432 69.5076 8.92432C69.6563 8.92432 69.7725 9.0405 69.7725 9.18922Z" fill="white"/>
<path d="M57.1643 9.18922C57.1643 9.33328 57.0481 9.45409 56.8994 9.45409C56.7507 9.45409 56.6345 9.33793 56.6345 9.18922C56.6345 9.0405 56.7507 8.92432 56.8994 8.92432C57.0481 8.92432 57.1643 9.0405 57.1643 9.18922Z" fill="white"/>
<path d="M45.5693 9.18922C45.5693 9.33328 45.4532 9.45409 45.3044 9.45409C45.1557 9.45409 45.0396 9.33793 45.0396 9.18922C45.0396 9.0405 45.1557 8.92432 45.3044 8.92432C45.4532 8.92432 45.5693 9.0405 45.5693 9.18922Z" fill="white"/>
<path d="M33.9277 9.27296C33.9277 9.41702 33.8116 9.53785 33.6628 9.53785C33.5141 9.53785 33.3979 9.42167 33.3979 9.27296C33.3979 9.12424 33.5141 9.00806 33.6628 9.00806C33.8116 9.00806 33.9277 9.12424 33.9277 9.27296Z" fill="white"/>
<path d="M69.7725 19.0137C69.7725 19.1577 69.6563 19.2786 69.5076 19.2786C69.3589 19.2786 69.2427 19.1624 69.2427 19.0137C69.2427 18.865 69.3589 18.7488 69.5076 18.7488C69.6563 18.7488 69.7725 18.865 69.7725 19.0137Z" fill="white"/>
<path d="M69.7725 27.9783C69.7725 28.1223 69.6563 28.2432 69.5076 28.2432C69.3589 28.2432 69.2427 28.127 69.2427 27.9783C69.2427 27.8296 69.3589 27.7134 69.5076 27.7134C69.6563 27.7134 69.7725 27.8296 69.7725 27.9783Z" fill="white"/>
<path d="M69.7725 37.375C69.7725 37.5191 69.6563 37.6399 69.5076 37.6399C69.3589 37.6399 69.2427 37.5237 69.2427 37.375C69.2427 37.2263 69.3589 37.1101 69.5076 37.1101C69.6563 37.1101 69.7725 37.2263 69.7725 37.375Z" fill="white"/>
<path d="M69.7725 43.3142C69.7725 43.4583 69.6563 43.5791 69.5076 43.5791C69.3589 43.5791 69.2427 43.4629 69.2427 43.3142C69.2427 43.1655 69.3589 43.0493 69.5076 43.0493C69.6563 43.0493 69.7725 43.1655 69.7725 43.3142Z" fill="white"/>
<path d="M69.7725 49.2768C69.7725 49.4209 69.6563 49.5417 69.5076 49.5417C69.3589 49.5417 69.2427 49.4255 69.2427 49.2768C69.2427 49.1281 69.3589 49.012 69.5076 49.012C69.6563 49.012 69.7725 49.1281 69.7725 49.2768Z" fill="white"/>
<path d="M9.22288 9.45408C9.22288 9.59815 9.10673 9.71898 8.95801 9.71898C8.8093 9.71898 8.69312 9.60279 8.69312 9.45408C8.69312 9.30537 8.8093 9.18921 8.95801 9.18921C9.10673 9.18921 9.22288 9.30537 9.22288 9.45408Z" fill="white"/>
<path d="M21.975 9.27296C21.975 9.41702 21.8588 9.53785 21.7101 9.53785C21.5614 9.53785 21.4452 9.42167 21.4452 9.27296C21.4452 9.12424 21.5614 9.00806 21.7101 9.00806C21.8588 9.00806 21.975 9.12424 21.975 9.27296Z" fill="white"/>
<path d="M9.22288 18.8044C9.22288 18.9485 9.10673 19.0693 8.95801 19.0693C8.8093 19.0693 8.69312 18.9532 8.69312 18.8044C8.69312 18.6557 8.8093 18.5396 8.95801 18.5396C9.10673 18.5396 9.22288 18.6557 9.22288 18.8044Z" fill="white"/>
<path d="M9.22288 28.0434C9.22288 28.1875 9.10673 28.3083 8.95801 28.3083C8.8093 28.3083 8.69312 28.1921 8.69312 28.0434C8.69312 27.8947 8.8093 27.7786 8.95801 27.7786C9.10673 27.7786 9.22288 27.8947 9.22288 28.0434Z" fill="white"/>
<path d="M9.22288 37.31C9.22288 37.4541 9.10673 37.5749 8.95801 37.5749C8.8093 37.5749 8.69312 37.4587 8.69312 37.31C8.69312 37.1613 8.8093 37.0452 8.95801 37.0452C9.10673 37.0452 9.22288 37.1613 9.22288 37.31Z" fill="white"/>
<path d="M9.22288 43.3142C9.22288 43.4583 9.10673 43.5791 8.95801 43.5791C8.8093 43.5791 8.69312 43.4629 8.69312 43.3142C8.69312 43.1655 8.8093 43.0493 8.95801 43.0493C9.10673 43.0493 9.22288 43.1655 9.22288 43.3142Z" fill="white"/>
<path d="M9.22288 49.5418C9.22288 49.6858 9.10673 49.8067 8.95801 49.8067C8.8093 49.8067 8.69312 49.6905 8.69312 49.5418C8.69312 49.393 8.8093 49.2769 8.95801 49.2769C9.10673 49.2769 9.22288 49.393 9.22288 49.5418Z" fill="white"/>
<path d="M9.22288 55.5505C9.22288 55.6946 9.10673 55.8154 8.95801 55.8154C8.8093 55.8154 8.69312 55.6992 8.69312 55.5505C8.69312 55.4018 8.8093 55.2856 8.95801 55.2856C9.10673 55.2856 9.22288 55.4018 9.22288 55.5505Z" fill="white"/>
<path d="M9.22288 61.5596C9.22288 61.7036 9.10673 61.8244 8.95801 61.8244C8.8093 61.8244 8.69312 61.7083 8.69312 61.5596C8.69312 61.4109 8.8093 61.2947 8.95801 61.2947C9.10673 61.2947 9.22288 61.4109 9.22288 61.5596Z" fill="white"/>
<path d="M9.22288 67.7869C9.22288 67.9309 9.10673 68.0518 8.95801 68.0518C8.8093 68.0518 8.69312 67.9356 8.69312 67.7869C8.69312 67.6382 8.8093 67.522 8.95801 67.522C9.10673 67.522 9.22288 67.6382 9.22288 67.7869Z" fill="white"/>
<path d="M9.22288 74.0237C9.22288 74.1677 9.10673 74.2886 8.95801 74.2886C8.8093 74.2886 8.69312 74.1724 8.69312 74.0237C8.69312 73.8749 8.8093 73.7588 8.95801 73.7588C9.10673 73.7588 9.22288 73.8749 9.22288 74.0237Z" fill="white"/>
<path d="M9.22288 79.6003C9.22288 79.7444 9.10673 79.8652 8.95801 79.8652C8.8093 79.8652 8.69312 79.749 8.69312 79.6003C8.69312 79.4516 8.8093 79.3354 8.95801 79.3354C9.10673 79.3354 9.22288 79.4516 9.22288 79.6003Z" fill="white"/>
<path d="M9.22288 85.8276C9.22288 85.9717 9.10673 86.0925 8.95801 86.0925C8.8093 86.0925 8.69312 85.9764 8.69312 85.8276C8.69312 85.6789 8.8093 85.5627 8.95801 85.5627C9.10673 85.5627 9.22288 85.6789 9.22288 85.8276Z" fill="white"/>
<path d="M9.22288 91.8923C9.22288 92.0364 9.10673 92.1572 8.95801 92.1572C8.8093 92.1572 8.69312 92.0411 8.69312 91.8923C8.69312 91.7436 8.8093 91.6274 8.95801 91.6274C9.10673 91.6274 9.22288 91.7436 9.22288 91.8923Z" fill="white"/>
<path d="M9.32972 100.811C9.32972 100.955 9.21354 101.075 9.06483 101.075C8.91611 101.075 8.79993 100.959 8.79993 100.811C8.79993 100.662 8.91611 100.546 9.06483 100.546C9.21354 100.546 9.32972 100.662 9.32972 100.811Z" fill="white"/>
<path d="M18.8707 101.071C18.8707 101.215 18.7545 101.336 18.6058 101.336C18.4571 101.336 18.3409 101.22 18.3409 101.071C18.3409 100.922 18.4571 100.806 18.6058 100.806C18.7545 100.806 18.8707 100.922 18.8707 101.071Z" fill="white"/>
<path d="M31.1581 101.071C31.1581 101.215 31.0419 101.336 30.8932 101.336C30.7445 101.336 30.6283 101.22 30.6283 101.071C30.6283 100.922 30.7445 100.806 30.8932 100.806C31.0419 100.806 31.1581 100.922 31.1581 101.071Z" fill="white"/>
<path d="M43.4315 101.071C43.4315 101.215 43.3153 101.336 43.1666 101.336C43.0179 101.336 42.9017 101.22 42.9017 101.071C42.9017 100.922 43.0179 100.806 43.1666 100.806C43.3153 100.806 43.4315 100.922 43.4315 101.071Z" fill="white"/>
<path d="M55.3844 101.071C55.3844 101.215 55.2682 101.336 55.1195 101.336C54.9708 101.336 54.8546 101.22 54.8546 101.071C54.8546 100.922 54.9708 100.806 55.1195 100.806C55.2682 100.806 55.3844 100.922 55.3844 101.071Z" fill="white"/>
<path d="M69.7725 55.4065C69.7725 55.5505 69.6563 55.6714 69.5076 55.6714C69.3589 55.6714 69.2427 55.5552 69.2427 55.4065C69.2427 55.2578 69.3589 55.1416 69.5076 55.1416C69.6563 55.1416 69.7725 55.2578 69.7725 55.4065Z" fill="white"/>
<path d="M69.7725 61.1367C69.7725 61.2808 69.6563 61.4016 69.5076 61.4016C69.3589 61.4016 69.2427 61.2854 69.2427 61.1367C69.2427 60.988 69.3589 60.8718 69.5076 60.8718C69.6563 60.8718 69.7725 60.988 69.7725 61.1367Z" fill="white"/>
<path d="M69.7725 67.313C69.7725 67.457 69.6563 67.5779 69.5076 67.5779C69.3589 67.5779 69.2427 67.4617 69.2427 67.313C69.2427 67.1643 69.3589 67.0481 69.5076 67.0481C69.6563 67.0481 69.7725 67.1643 69.7725 67.313Z" fill="white"/>
<path d="M69.7725 73.4009C69.7725 73.545 69.6563 73.6658 69.5076 73.6658C69.3589 73.6658 69.2427 73.5496 69.2427 73.4009C69.2427 73.2522 69.3589 73.136 69.5076 73.136C69.6563 73.136 69.7725 73.2522 69.7725 73.4009Z" fill="white"/>
<path d="M69.7725 79.3308C69.7725 79.4749 69.6563 79.5957 69.5076 79.5957C69.3589 79.5957 69.2427 79.4795 69.2427 79.3308C69.2427 79.1821 69.3589 79.0659 69.5076 79.0659C69.6563 79.0659 69.7725 79.1821 69.7725 79.3308Z" fill="white"/>
<path d="M69.7725 85.1724C69.7725 85.3164 69.6563 85.4372 69.5076 85.4372C69.3589 85.4372 69.2427 85.3211 69.2427 85.1724C69.2427 85.0237 69.3589 84.9075 69.5076 84.9075C69.6563 84.9075 69.7725 85.0237 69.7725 85.1724Z" fill="white"/>
<path d="M69.7725 91.1397C69.7725 91.2837 69.6563 91.4046 69.5076 91.4046C69.3589 91.4046 69.2427 91.2884 69.2427 91.1397C69.2427 90.9909 69.3589 90.8748 69.5076 90.8748C69.6563 90.8748 69.7725 90.9909 69.7725 91.1397Z" fill="white"/>
<path d="M69.7725 100.234C69.7725 100.378 69.6563 100.499 69.5076 100.499C69.3589 100.499 69.2427 100.383 69.2427 100.234C69.2427 100.086 69.3589 99.9695 69.5076 99.9695C69.6563 99.9695 69.7725 100.086 69.7725 100.234Z" fill="white"/>
<path d="M30.4795 13.9157C27.9328 13.8553 27.3472 15.7978 27.2078 16.7366C27.073 15.8025 26.4875 13.8553 23.9361 13.9157C20.5854 13.9947 20.1439 17.7497 21.3104 19.6458C22.4815 21.5419 23.0857 22.1507 24.2568 23.359C25.3582 24.4976 26.678 25.7849 27.1613 26.5702C27.1613 26.5702 27.1892 26.6632 27.2031 26.6353C27.2171 26.6585 27.245 26.5702 27.245 26.5702C27.7329 25.7849 29.0481 24.5022 30.1495 23.359C31.3207 22.146 31.9248 21.5419 33.0959 19.6458C34.267 17.7497 33.8209 13.9947 30.4702 13.9157H30.4795Z" fill="#AF0F07"/>
<path d="M30.4795 49.142C27.9328 49.0816 27.3472 51.0242 27.2078 51.9629C27.073 51.0288 26.4875 49.0816 23.9361 49.142C20.5854 49.221 20.1439 52.976 21.3104 54.8721C22.4815 56.7682 23.0857 57.377 24.2568 58.5853C25.3582 59.7239 26.678 61.0112 27.1613 61.7966C27.1613 61.7966 27.1892 61.8895 27.2031 61.8616C27.2171 61.8849 27.245 61.7966 27.245 61.7966C27.7329 61.0112 29.0481 59.7285 30.1495 58.5853C31.3207 57.3724 31.9248 56.7682 33.0959 54.8721C34.267 52.976 33.8209 49.221 30.4702 49.142H30.4795Z" fill="#AF0F07"/>
<path d="M30.4795 97.0928C27.9328 97.1532 27.3472 95.2106 27.2078 94.2719C27.073 95.206 26.4875 97.1532 23.9361 97.0928C20.5854 97.0138 20.1439 93.2587 21.3104 91.3626C22.4815 89.4666 23.0857 88.8578 24.2568 87.6495C25.3582 86.5109 26.678 85.2236 27.1613 84.4382C27.1613 84.4382 27.1892 84.3453 27.2031 84.3731C27.2171 84.3499 27.245 84.4382 27.245 84.4382C27.7329 85.2236 29.0481 86.5062 30.1495 87.6495C31.3207 88.8624 31.9248 89.4666 33.0959 91.3626C34.267 93.2587 33.8209 97.0138 30.4702 97.0928H30.4795Z" fill="#AF0F07"/>
<path d="M54.5292 13.9157C51.9825 13.8553 51.3969 15.7978 51.2575 16.7366C51.1227 15.8025 50.5372 13.8553 47.9858 13.9157C44.6351 13.9947 44.1936 17.7497 45.3601 19.6458C46.5265 21.5419 47.1353 22.1507 48.3065 23.359C49.4079 24.4976 50.7277 25.7849 51.211 26.5702C51.211 26.5702 51.2389 26.6632 51.2528 26.6353C51.2668 26.6585 51.2947 26.5702 51.2947 26.5702C51.7826 25.7849 53.0978 24.5022 54.1992 23.359C55.3703 22.146 55.9745 21.5419 57.1456 19.6458C58.3167 17.7497 57.8706 13.9947 54.5199 13.9157H54.5292Z" fill="#AF0F07"/>
<path d="M54.5292 49.142C51.9825 49.0816 51.3969 51.0242 51.2575 51.9629C51.1227 51.0288 50.5372 49.0816 47.9858 49.142C44.6351 49.221 44.1936 52.976 45.3601 54.8721C46.5265 56.7682 47.1353 57.377 48.3065 58.5853C49.4079 59.7239 50.7277 61.0112 51.211 61.7966C51.211 61.7966 51.2389 61.8895 51.2528 61.8616C51.2668 61.8849 51.2947 61.7966 51.2947 61.7966C51.7826 61.0112 53.0978 59.7285 54.1992 58.5853C55.3703 57.3724 55.9745 56.7682 57.1456 54.8721C58.3167 52.976 57.8706 49.221 54.5199 49.142H54.5292Z" fill="#AF0F07"/>
<path d="M54.5292 97.0928C51.9825 97.1532 51.3969 95.2106 51.2575 94.2719C51.1227 95.206 50.5372 97.1532 47.9858 97.0928C44.6351 97.0138 44.1936 93.2587 45.3601 91.3626C46.5265 89.4666 47.1353 88.8578 48.3065 87.6495C49.4079 86.5109 50.7277 85.2236 51.211 84.4382C51.211 84.4382 51.2389 84.3453 51.2528 84.3731C51.2668 84.3499 51.2947 84.4382 51.2947 84.4382C51.7826 85.2236 53.0978 86.5062 54.1992 87.6495C55.3703 88.8624 55.9745 89.4666 57.1456 91.3626C58.3167 93.2587 57.8706 97.0138 54.5199 97.0928H54.5292Z" fill="#AF0F07"/>
<path d="M7.02931 13.7808C6.73188 13.5392 6.49953 13.1953 6.34152 12.7491C6.17887 12.303 6.09985 11.7732 6.09985 11.1644C6.09985 10.6718 6.1649 10.1885 6.29038 9.71447C6.41586 9.24045 6.60177 8.84541 6.83879 8.53404C7.27563 7.96707 7.79145 7.68823 8.38166 7.68823C8.80921 7.68823 9.15313 7.83229 9.41803 8.12043C9.50632 8.22731 9.57138 8.34816 9.6132 8.48293C9.65038 8.61305 9.67362 8.73389 9.67362 8.83613C9.67362 9.04526 9.59927 9.2172 9.44591 9.35197C9.34367 9.44027 9.22284 9.48673 9.07413 9.48673C8.92542 9.48673 8.82782 9.43097 8.74881 9.32409C8.72093 9.28226 8.69769 9.24044 8.6884 9.20791C8.6791 9.17073 8.67444 9.12425 8.67444 9.06384C8.67444 8.97554 8.71162 8.88259 8.79062 8.79429C8.84639 8.73387 8.90216 8.68275 8.96257 8.64092C9.01834 8.60374 9.05554 8.56657 9.07413 8.52939C9.09737 8.49221 9.10664 8.44575 9.10664 8.38998C9.10664 8.28309 9.04624 8.1855 8.92076 8.1065C8.79528 8.02285 8.60938 7.98567 8.35843 7.98567C8.14001 7.98567 7.93552 8.05072 7.74033 8.17619C7.54515 8.30167 7.38249 8.51082 7.24772 8.80825C7.14548 9.03131 7.06648 9.31015 7.01536 9.6494C6.95959 9.98401 6.93171 10.2675 6.93171 10.4952V10.8995L6.99678 10.9274C7.10366 10.6997 7.27097 10.5091 7.49869 10.3651C7.72641 10.2164 7.94017 10.142 8.15395 10.142C8.55826 10.142 8.89752 10.2396 9.17171 10.4394C9.40407 10.6068 9.58533 10.8345 9.71081 11.1226C9.83628 11.4061 9.90133 11.7128 9.90133 12.0381C9.90133 12.3634 9.82699 12.6887 9.68292 13.0187C9.53886 13.3486 9.32508 13.6182 9.04625 13.8366C8.76741 14.055 8.43745 14.1619 8.05637 14.1619C7.67529 14.1619 7.32209 14.0411 7.02466 13.7994L7.02931 13.7808ZM8.86034 13.33C9.02765 12.9815 9.10664 12.5865 9.10664 12.1403C9.10664 11.6617 9.03229 11.2574 8.88823 10.9413C8.74416 10.6207 8.50251 10.4627 8.1679 10.4627C7.95878 10.4627 7.76822 10.5324 7.60092 10.6718C7.43362 10.8112 7.29885 11.0064 7.20126 11.262C7.10367 11.5176 7.05254 11.8104 7.05254 12.1403C7.05254 12.6376 7.13155 13.0512 7.28491 13.3719C7.44291 13.6925 7.69851 13.8552 8.061 13.8552C8.42348 13.8552 8.69304 13.6786 8.86034 13.33Z" fill="#A43E32"/>
<path d="M70.4044 98.9053C70.7018 99.1469 70.9342 99.4908 71.0922 99.9369C71.2502 100.383 71.3338 100.913 71.3338 101.522C71.3338 102.014 71.2688 102.498 71.1433 102.972C71.0178 103.446 70.8319 103.841 70.5949 104.152C70.1581 104.719 69.6422 104.998 69.052 104.998C68.6245 104.998 68.2806 104.854 68.0157 104.566C67.9274 104.459 67.8623 104.338 67.8205 104.203C67.7833 104.068 67.7601 103.952 67.7601 103.85C67.7601 103.641 67.8344 103.469 67.9878 103.334C68.09 103.246 68.2108 103.199 68.3596 103.199C68.5083 103.199 68.6059 103.255 68.6849 103.362C68.7128 103.404 68.736 103.446 68.7453 103.478C68.7546 103.515 68.7592 103.562 68.7592 103.622C68.7592 103.711 68.7221 103.803 68.6431 103.892C68.5873 103.952 68.5315 104.003 68.4711 104.045C68.4153 104.082 68.3781 104.12 68.3596 104.157C68.3363 104.194 68.327 104.245 68.327 104.296C68.327 104.403 68.3874 104.501 68.5129 104.58C68.6384 104.663 68.8243 104.7 69.0753 104.7C69.2937 104.7 69.4982 104.635 69.6933 104.51C69.8885 104.384 70.0512 104.175 70.186 103.878C70.2882 103.655 70.3672 103.376 70.4183 103.037C70.4741 102.697 70.502 102.419 70.502 102.191V101.787L70.4369 101.759C70.33 101.986 70.1627 102.177 69.935 102.321C69.7073 102.47 69.4935 102.539 69.2797 102.539C68.8754 102.539 68.5362 102.442 68.262 102.242C68.0296 102.075 67.8484 101.847 67.7229 101.563C67.5974 101.275 67.5323 100.973 67.5323 100.648C67.5323 100.323 67.6067 99.9974 67.7508 99.6674C67.8948 99.3375 68.1086 99.0679 68.3874 98.8495C68.6663 98.6311 68.9962 98.5242 69.3773 98.5242C69.7584 98.5242 70.1116 98.645 70.409 98.8866L70.4044 98.9053ZM68.5733 99.356C68.406 99.7046 68.327 100.1 68.327 100.546C68.327 101.024 68.4014 101.429 68.5455 101.745C68.6895 102.061 68.9312 102.223 69.2658 102.223C69.4749 102.223 69.6655 102.154 69.8328 102.014C70.0001 101.875 70.1348 101.68 70.2324 101.424C70.33 101.168 70.3811 100.876 70.3811 100.546C70.3811 100.048 70.3021 99.6349 70.1488 99.3142C69.9908 98.9936 69.7352 98.8309 69.3727 98.8309C69.0102 98.8309 68.7406 99.0028 68.5733 99.356Z" fill="#A43E32"/>
<path d="M9.52019 16.7132C8.63721 16.69 8.43273 17.3685 8.38625 17.6892C8.33978 17.3638 8.1353 16.69 7.25231 16.7132C6.09049 16.7411 5.93715 18.0423 6.34146 18.7023C6.74578 19.3622 6.95953 19.5713 7.36384 19.9896C7.74492 20.3846 8.20502 20.8307 8.37233 21.1049C8.37233 21.1049 8.38161 21.1375 8.38625 21.1282C8.3909 21.1375 8.40021 21.1049 8.40021 21.1049C8.56751 20.8307 9.02758 20.3892 9.40866 19.9896C9.81298 19.5713 10.0268 19.3575 10.4311 18.7023C10.8354 18.0423 10.682 16.7411 9.52019 16.7132Z" fill="#AF0F07"/>
<path d="M70.5112 96.721C69.6282 96.7443 69.4237 96.0658 69.3772 95.7405C69.3307 96.0658 69.1263 96.7396 68.2433 96.721C67.0815 96.6932 66.9281 95.3919 67.3324 94.732C67.7367 94.0721 67.9505 93.863 68.3548 93.4447C68.7359 93.0497 69.196 92.6035 69.3633 92.3293C69.3633 92.3293 69.3726 92.2968 69.3772 92.3061C69.3819 92.2968 69.3912 92.3293 69.3912 92.3293C69.5585 92.6035 70.0186 93.045 70.3996 93.4447C70.8039 93.863 71.0177 94.0767 71.422 94.732C71.8264 95.3919 71.673 96.6932 70.5112 96.721Z" fill="#AF0F07"/>
</svg>
