<svg width="78" height="109" viewBox="0 0 78 109" fill="none" xmlns="http://www.w3.org/2000/svg">
<path d="M75.1294 0.6521H3.33813C1.81355 0.6521 0.577637 1.88799 0.577637 3.41256V106.127C0.577637 107.652 1.81355 108.887 3.33813 108.887H75.1294C76.654 108.887 77.8899 107.652 77.8899 106.127V3.41256C77.8899 1.88799 76.654 0.6521 75.1294 0.6521Z" fill="white"/>
<path d="M75.1293 108.943H3.33798C1.78579 108.943 0.521729 107.679 0.521729 106.127V3.41269C0.521729 1.8605 1.78579 0.596436 3.33798 0.596436H75.1293C76.6815 0.596436 77.9456 1.8605 77.9456 3.41269V106.127C77.9456 107.679 76.6815 108.943 75.1293 108.943ZM3.33798 0.707994C1.8462 0.707994 0.633259 1.92091 0.633259 3.41269V106.127C0.633259 107.619 1.8462 108.832 3.33798 108.832H75.1293C76.6211 108.832 77.834 107.619 77.834 106.127V3.41269C77.834 1.92091 76.6211 0.707994 75.1293 0.707994H3.33798Z" fill="#65A7DD"/>
<path d="M69.8594 9.18922C69.8594 9.33328 69.7432 9.45409 69.5945 9.45409C69.4458 9.45409 69.3296 9.33793 69.3296 9.18922C69.3296 9.0405 69.4458 8.92432 69.5945 8.92432C69.7432 8.92432 69.8594 9.0405 69.8594 9.18922Z" fill="white"/>
<path d="M57.2512 9.18922C57.2512 9.33328 57.135 9.45409 56.9863 9.45409C56.8376 9.45409 56.7214 9.33793 56.7214 9.18922C56.7214 9.0405 56.8376 8.92432 56.9863 8.92432C57.135 8.92432 57.2512 9.0405 57.2512 9.18922Z" fill="white"/>
<path d="M45.6563 9.18922C45.6563 9.33328 45.5401 9.45409 45.3914 9.45409C45.2427 9.45409 45.1265 9.33793 45.1265 9.18922C45.1265 9.0405 45.2427 8.92432 45.3914 8.92432C45.5401 8.92432 45.6563 9.0405 45.6563 9.18922Z" fill="white"/>
<path d="M34.0148 9.27296C34.0148 9.41702 33.8986 9.53785 33.7499 9.53785C33.6012 9.53785 33.485 9.42167 33.485 9.27296C33.485 9.12424 33.6012 9.00806 33.7499 9.00806C33.8986 9.00806 34.0148 9.12424 34.0148 9.27296Z" fill="white"/>
<path d="M69.8594 19.0137C69.8594 19.1577 69.7432 19.2786 69.5945 19.2786C69.4458 19.2786 69.3296 19.1624 69.3296 19.0137C69.3296 18.865 69.4458 18.7488 69.5945 18.7488C69.7432 18.7488 69.8594 18.865 69.8594 19.0137Z" fill="white"/>
<path d="M69.8594 27.9783C69.8594 28.1223 69.7432 28.2432 69.5945 28.2432C69.4458 28.2432 69.3296 28.127 69.3296 27.9783C69.3296 27.8296 69.4458 27.7134 69.5945 27.7134C69.7432 27.7134 69.8594 27.8296 69.8594 27.9783Z" fill="white"/>
<path d="M69.8594 37.375C69.8594 37.5191 69.7432 37.6399 69.5945 37.6399C69.4458 37.6399 69.3296 37.5237 69.3296 37.375C69.3296 37.2263 69.4458 37.1101 69.5945 37.1101C69.7432 37.1101 69.8594 37.2263 69.8594 37.375Z" fill="white"/>
<path d="M69.8594 43.3142C69.8594 43.4583 69.7432 43.5791 69.5945 43.5791C69.4458 43.5791 69.3296 43.4629 69.3296 43.3142C69.3296 43.1655 69.4458 43.0493 69.5945 43.0493C69.7432 43.0493 69.8594 43.1655 69.8594 43.3142Z" fill="white"/>
<path d="M69.8594 49.2768C69.8594 49.4209 69.7432 49.5417 69.5945 49.5417C69.4458 49.5417 69.3296 49.4255 69.3296 49.2768C69.3296 49.1281 69.4458 49.012 69.5945 49.012C69.7432 49.012 69.8594 49.1281 69.8594 49.2768Z" fill="white"/>
<path d="M9.3098 9.45408C9.3098 9.59815 9.19364 9.71898 9.04493 9.71898C8.89621 9.71898 8.78003 9.60279 8.78003 9.45408C8.78003 9.30537 8.89621 9.18921 9.04493 9.18921C9.19364 9.18921 9.3098 9.30537 9.3098 9.45408Z" fill="white"/>
<path d="M22.0619 9.27296C22.0619 9.41702 21.9457 9.53785 21.797 9.53785C21.6483 9.53785 21.5321 9.42167 21.5321 9.27296C21.5321 9.12424 21.6483 9.00806 21.797 9.00806C21.9457 9.00806 22.0619 9.12424 22.0619 9.27296Z" fill="white"/>
<path d="M9.3098 18.8044C9.3098 18.9485 9.19364 19.0693 9.04493 19.0693C8.89621 19.0693 8.78003 18.9532 8.78003 18.8044C8.78003 18.6557 8.89621 18.5396 9.04493 18.5396C9.19364 18.5396 9.3098 18.6557 9.3098 18.8044Z" fill="white"/>
<path d="M9.3098 28.0434C9.3098 28.1875 9.19364 28.3083 9.04493 28.3083C8.89621 28.3083 8.78003 28.1921 8.78003 28.0434C8.78003 27.8947 8.89621 27.7786 9.04493 27.7786C9.19364 27.7786 9.3098 27.8947 9.3098 28.0434Z" fill="white"/>
<path d="M9.3098 37.31C9.3098 37.4541 9.19364 37.5749 9.04493 37.5749C8.89621 37.5749 8.78003 37.4587 8.78003 37.31C8.78003 37.1613 8.89621 37.0452 9.04493 37.0452C9.19364 37.0452 9.3098 37.1613 9.3098 37.31Z" fill="white"/>
<path d="M9.3098 43.3142C9.3098 43.4583 9.19364 43.5791 9.04493 43.5791C8.89621 43.5791 8.78003 43.4629 8.78003 43.3142C8.78003 43.1655 8.89621 43.0493 9.04493 43.0493C9.19364 43.0493 9.3098 43.1655 9.3098 43.3142Z" fill="white"/>
<path d="M9.3098 49.5418C9.3098 49.6858 9.19364 49.8067 9.04493 49.8067C8.89621 49.8067 8.78003 49.6905 8.78003 49.5418C8.78003 49.393 8.89621 49.2769 9.04493 49.2769C9.19364 49.2769 9.3098 49.393 9.3098 49.5418Z" fill="white"/>
<path d="M9.3098 55.5505C9.3098 55.6946 9.19364 55.8154 9.04493 55.8154C8.89621 55.8154 8.78003 55.6992 8.78003 55.5505C8.78003 55.4018 8.89621 55.2856 9.04493 55.2856C9.19364 55.2856 9.3098 55.4018 9.3098 55.5505Z" fill="white"/>
<path d="M9.3098 61.5596C9.3098 61.7036 9.19364 61.8244 9.04493 61.8244C8.89621 61.8244 8.78003 61.7083 8.78003 61.5596C8.78003 61.4109 8.89621 61.2947 9.04493 61.2947C9.19364 61.2947 9.3098 61.4109 9.3098 61.5596Z" fill="white"/>
<path d="M9.3098 67.7869C9.3098 67.9309 9.19364 68.0518 9.04493 68.0518C8.89621 68.0518 8.78003 67.9356 8.78003 67.7869C8.78003 67.6382 8.89621 67.522 9.04493 67.522C9.19364 67.522 9.3098 67.6382 9.3098 67.7869Z" fill="white"/>
<path d="M9.3098 74.0237C9.3098 74.1677 9.19364 74.2886 9.04493 74.2886C8.89621 74.2886 8.78003 74.1724 8.78003 74.0237C8.78003 73.8749 8.89621 73.7588 9.04493 73.7588C9.19364 73.7588 9.3098 73.8749 9.3098 74.0237Z" fill="white"/>
<path d="M9.3098 79.6003C9.3098 79.7444 9.19364 79.8652 9.04493 79.8652C8.89621 79.8652 8.78003 79.749 8.78003 79.6003C8.78003 79.4516 8.89621 79.3354 9.04493 79.3354C9.19364 79.3354 9.3098 79.4516 9.3098 79.6003Z" fill="white"/>
<path d="M9.3098 85.8276C9.3098 85.9717 9.19364 86.0925 9.04493 86.0925C8.89621 86.0925 8.78003 85.9764 8.78003 85.8276C8.78003 85.6789 8.89621 85.5627 9.04493 85.5627C9.19364 85.5627 9.3098 85.6789 9.3098 85.8276Z" fill="white"/>
<path d="M9.3098 91.8923C9.3098 92.0364 9.19364 92.1572 9.04493 92.1572C8.89621 92.1572 8.78003 92.0411 8.78003 91.8923C8.78003 91.7436 8.89621 91.6274 9.04493 91.6274C9.19364 91.6274 9.3098 91.7436 9.3098 91.8923Z" fill="white"/>
<path d="M9.41676 100.811C9.41676 100.955 9.30058 101.075 9.15186 101.075C9.00315 101.075 8.88696 100.959 8.88696 100.811C8.88696 100.662 9.00315 100.546 9.15186 100.546C9.30058 100.546 9.41676 100.662 9.41676 100.811Z" fill="white"/>
<path d="M18.9576 101.071C18.9576 101.215 18.8414 101.336 18.6927 101.336C18.544 101.336 18.4279 101.22 18.4279 101.071C18.4279 100.922 18.544 100.806 18.6927 100.806C18.8414 100.806 18.9576 100.922 18.9576 101.071Z" fill="white"/>
<path d="M31.2496 101.071C31.2496 101.215 31.1335 101.336 30.9847 101.336C30.836 101.336 30.7198 101.22 30.7198 101.071C30.7198 100.922 30.836 100.806 30.9847 100.806C31.1335 100.806 31.2496 100.922 31.2496 101.071Z" fill="white"/>
<path d="M43.5184 101.071C43.5184 101.215 43.4023 101.336 43.2535 101.336C43.1048 101.336 42.9886 101.22 42.9886 101.071C42.9886 100.922 43.1048 100.806 43.2535 100.806C43.4023 100.806 43.5184 100.922 43.5184 101.071Z" fill="white"/>
<path d="M55.4713 101.071C55.4713 101.215 55.3551 101.336 55.2064 101.336C55.0577 101.336 54.9415 101.22 54.9415 101.071C54.9415 100.922 55.0577 100.806 55.2064 100.806C55.3551 100.806 55.4713 100.922 55.4713 101.071Z" fill="white"/>
<path d="M69.8594 55.4065C69.8594 55.5505 69.7432 55.6714 69.5945 55.6714C69.4458 55.6714 69.3296 55.5552 69.3296 55.4065C69.3296 55.2578 69.4458 55.1416 69.5945 55.1416C69.7432 55.1416 69.8594 55.2578 69.8594 55.4065Z" fill="white"/>
<path d="M69.8594 61.1367C69.8594 61.2808 69.7432 61.4016 69.5945 61.4016C69.4458 61.4016 69.3296 61.2854 69.3296 61.1367C69.3296 60.988 69.4458 60.8718 69.5945 60.8718C69.7432 60.8718 69.8594 60.988 69.8594 61.1367Z" fill="white"/>
<path d="M69.8594 67.313C69.8594 67.457 69.7432 67.5779 69.5945 67.5779C69.4458 67.5779 69.3296 67.4617 69.3296 67.313C69.3296 67.1643 69.4458 67.0481 69.5945 67.0481C69.7432 67.0481 69.8594 67.1643 69.8594 67.313Z" fill="white"/>
<path d="M69.8594 73.4009C69.8594 73.545 69.7432 73.6658 69.5945 73.6658C69.4458 73.6658 69.3296 73.5496 69.3296 73.4009C69.3296 73.2522 69.4458 73.136 69.5945 73.136C69.7432 73.136 69.8594 73.2522 69.8594 73.4009Z" fill="white"/>
<path d="M69.8594 79.3308C69.8594 79.4749 69.7432 79.5957 69.5945 79.5957C69.4458 79.5957 69.3296 79.4795 69.3296 79.3308C69.3296 79.1821 69.4458 79.0659 69.5945 79.0659C69.7432 79.0659 69.8594 79.1821 69.8594 79.3308Z" fill="white"/>
<path d="M69.8594 85.1724C69.8594 85.3164 69.7432 85.4372 69.5945 85.4372C69.4458 85.4372 69.3296 85.3211 69.3296 85.1724C69.3296 85.0237 69.4458 84.9075 69.5945 84.9075C69.7432 84.9075 69.8594 85.0237 69.8594 85.1724Z" fill="white"/>
<path d="M69.8594 91.1397C69.8594 91.2837 69.7432 91.4046 69.5945 91.4046C69.4458 91.4046 69.3296 91.2884 69.3296 91.1397C69.3296 90.9909 69.4458 90.8748 69.5945 90.8748C69.7432 90.8748 69.8594 90.9909 69.8594 91.1397Z" fill="white"/>
<path d="M69.8594 100.234C69.8594 100.378 69.7432 100.499 69.5945 100.499C69.4458 100.499 69.3296 100.383 69.3296 100.234C69.3296 100.086 69.4458 99.9695 69.5945 99.9695C69.7432 99.9695 69.8594 100.086 69.8594 100.234Z" fill="white"/>
<path d="M7.74372 13.9063C7.6136 13.7483 7.54854 13.5392 7.54854 13.2743C7.54854 12.9118 7.63685 12.5446 7.81344 12.1589C7.99004 11.7778 8.21774 11.3875 8.49658 10.9925L9.21693 9.9561C9.34706 9.77021 9.45857 9.57039 9.54687 9.35661C9.63517 9.14284 9.67701 8.95695 9.67701 8.80358C9.67701 8.71529 9.65376 8.65021 9.60729 8.61768C9.56082 8.58515 9.49113 8.56657 9.39353 8.56657H7.52531C7.28365 8.56657 7.11633 8.6177 7.01409 8.72459C6.9165 8.83148 6.84682 8.98017 6.80964 9.17071L6.71204 9.70516H6.51221L6.63766 7.82764H10.0999C10.0999 8.13901 10.0534 8.49687 9.96049 8.90119C9.86754 9.3055 9.70952 9.67264 9.48646 10.0026L8.97061 10.7787C8.72431 11.1412 8.59884 11.5316 8.59884 11.9498C8.59884 12.2101 8.61742 12.4331 8.6546 12.6283L8.71037 12.9443C8.75684 13.186 8.78474 13.3951 8.78474 13.5764C8.78474 13.9574 8.60813 14.1433 8.25494 14.1433C8.03652 14.1433 7.86457 14.0643 7.73445 13.911L7.74372 13.9063Z" fill="#A43E32"/>
<path d="M70.3612 98.7751C70.4913 98.9331 70.5564 99.1422 70.5564 99.4071C70.5564 99.7696 70.4681 100.137 70.2915 100.522C70.1149 100.904 69.8871 101.294 69.6083 101.689L68.888 102.725C68.7578 102.911 68.6463 103.111 68.558 103.325C68.4697 103.539 68.4279 103.724 68.4279 103.878C68.4279 103.966 68.4511 104.031 68.4976 104.064C68.5441 104.096 68.6138 104.115 68.7114 104.115H70.5796C70.8213 104.115 70.9885 104.064 71.0908 103.957C71.1884 103.85 71.2581 103.701 71.2953 103.511L71.3929 102.981H71.5927L71.4672 104.858H68.005C68.005 104.547 68.0515 104.189 68.1444 103.785C68.2374 103.381 68.3954 103.013 68.6185 102.683L69.1343 101.907C69.3806 101.545 69.5061 101.155 69.5061 100.736C69.5061 100.476 69.4875 100.253 69.4503 100.058L69.3945 99.7417C69.3481 99.5001 69.3202 99.291 69.3202 99.1097C69.3202 98.7286 69.4968 98.5427 69.85 98.5427C70.0684 98.5427 70.2403 98.6217 70.3705 98.7751H70.3612Z" fill="#A43E32"/>
<path d="M9.67707 16.7132C8.79409 16.69 8.58961 17.3685 8.54313 17.6892C8.49666 17.3638 8.29218 16.69 7.4092 16.7132C6.24737 16.7411 6.094 18.0423 6.49832 18.7023C6.90263 19.3622 7.11641 19.5713 7.52073 19.9896C7.9018 20.3846 8.36188 20.8307 8.52918 21.1049C8.52918 21.1049 8.53849 21.1375 8.54313 21.1282C8.54778 21.1375 8.55706 21.1049 8.55706 21.1049C8.72436 20.8307 9.18447 20.3892 9.56554 19.9896C9.96986 19.5713 10.1836 19.3575 10.5879 18.7023C10.9922 18.0423 10.8389 16.7411 9.67707 16.7132Z" fill="#AF0F07"/>
<path d="M70.668 96.721C69.7851 96.7443 69.5806 96.0658 69.5341 95.7405C69.4876 96.0658 69.2831 96.7396 68.4002 96.721C67.2383 96.6932 67.085 95.3919 67.4893 94.732C67.8936 94.0721 68.1074 93.863 68.5117 93.4447C68.8928 93.0497 69.3528 92.6035 69.5201 92.3293C69.5201 92.3293 69.5295 92.2968 69.5341 92.3061C69.5387 92.2968 69.5481 92.3293 69.5481 92.3293C69.7154 92.6035 70.1754 93.045 70.5565 93.4447C70.9608 93.863 71.1746 94.0767 71.5789 94.732C71.9832 95.3919 71.8299 96.6932 70.668 96.721Z" fill="#AF0F07"/>
<path d="M30.3528 13.9157C27.8061 13.8553 27.2205 15.7978 27.0811 16.7366C26.9463 15.8025 26.3607 13.8553 23.8094 13.9157C20.4587 13.9947 20.0172 17.7497 21.1837 19.6458C22.3548 21.5419 22.9589 22.1507 24.13 23.359C25.2315 24.4976 26.5513 25.7849 27.0346 26.5702C27.0346 26.5702 27.0625 26.6632 27.0764 26.6353C27.0904 26.6585 27.1182 26.5702 27.1182 26.5702C27.6062 25.7849 28.9214 24.5022 30.0228 23.359C31.1939 22.146 31.7981 21.5419 32.9692 19.6458C34.1403 17.7497 33.6942 13.9947 30.3435 13.9157H30.3528Z" fill="#AF0F07"/>
<path d="M30.3528 49.142C27.8061 49.0816 27.2205 51.0242 27.0811 51.9629C26.9463 51.0288 26.3607 49.0816 23.8094 49.142C20.4587 49.221 20.0172 52.976 21.1837 54.8721C22.3548 56.7682 22.9589 57.377 24.13 58.5853C25.2315 59.7239 26.5513 61.0112 27.0346 61.7966C27.0346 61.7966 27.0625 61.8895 27.0764 61.8616C27.0904 61.8849 27.1182 61.7966 27.1182 61.7966C27.6062 61.0112 28.9214 59.7285 30.0228 58.5853C31.1939 57.3724 31.7981 56.7682 32.9692 54.8721C34.1403 52.976 33.6942 49.221 30.3435 49.142H30.3528Z" fill="#AF0F07"/>
<path d="M30.3528 97.0928C27.8061 97.1532 27.2205 95.2106 27.0811 94.2719C26.9463 95.206 26.3607 97.1532 23.8094 97.0928C20.4587 97.0138 20.0172 93.2587 21.1837 91.3626C22.3548 89.4666 22.9589 88.8578 24.13 87.6495C25.2315 86.5109 26.5513 85.2236 27.0346 84.4382C27.0346 84.4382 27.0625 84.3453 27.0764 84.3731C27.0904 84.3499 27.1182 84.4382 27.1182 84.4382C27.6062 85.2236 28.9214 86.5062 30.0228 87.6495C31.1939 88.8624 31.7981 89.4666 32.9692 91.3626C34.1403 93.2587 33.6942 97.0138 30.3435 97.0928H30.3528Z" fill="#AF0F07"/>
<path d="M54.8348 13.9157C52.2881 13.8553 51.7026 15.7978 51.5631 16.7366C51.4284 15.8025 50.8428 13.8553 48.2914 13.9157C44.9407 13.9947 44.4993 17.7497 45.6657 19.6458C46.8369 21.5419 47.441 22.1507 48.6121 23.359C49.7135 24.4976 51.0333 25.7849 51.5167 26.5702C51.5167 26.5702 51.5446 26.6632 51.5585 26.6353C51.5724 26.6585 51.6003 26.5702 51.6003 26.5702C52.0883 25.7849 53.4035 24.5022 54.5049 23.359C55.676 22.146 56.2801 21.5419 57.4513 19.6458C58.6224 17.7497 58.1762 13.9947 54.8255 13.9157H54.8348Z" fill="#AF0F07"/>
<path d="M54.8348 49.142C52.2881 49.0816 51.7026 51.0242 51.5631 51.9629C51.4284 51.0288 50.8428 49.0816 48.2914 49.142C44.9407 49.221 44.4993 52.976 45.6657 54.8721C46.8369 56.7682 47.441 57.377 48.6121 58.5853C49.7135 59.7239 51.0333 61.0112 51.5167 61.7966C51.5167 61.7966 51.5446 61.8895 51.5585 61.8616C51.5724 61.8849 51.6003 61.7966 51.6003 61.7966C52.0883 61.0112 53.4035 59.7285 54.5049 58.5853C55.676 57.3724 56.2801 56.7682 57.4513 54.8721C58.6224 52.976 58.1762 49.221 54.8255 49.142H54.8348Z" fill="#AF0F07"/>
<path d="M54.8348 97.0928C52.2881 97.1532 51.7026 95.2106 51.5631 94.2719C51.4284 95.206 50.8428 97.1532 48.2914 97.0928C44.9407 97.0138 44.4993 93.2587 45.6657 91.3626C46.8369 89.4666 47.441 88.8578 48.6121 87.6495C49.7135 86.5109 51.0333 85.2236 51.5167 84.4382C51.5167 84.4382 51.5446 84.3453 51.5585 84.3731C51.5724 84.3499 51.6003 84.4382 51.6003 84.4382C52.0883 85.2236 53.4035 86.5062 54.5049 87.6495C55.676 88.8624 56.2801 89.4666 57.4513 91.3626C58.6224 93.2587 58.1762 97.0138 54.8255 97.0928H54.8348Z" fill="#AF0F07"/>
<path d="M42.3754 31.9565C39.8286 31.896 39.2431 33.8386 39.1037 34.7774C38.9689 33.8433 38.3833 31.896 35.832 31.9565C32.4813 32.0355 32.0398 35.7904 33.2063 37.6865C34.3774 39.5826 34.9815 40.1915 36.1526 41.3997C37.254 42.5383 38.5739 43.8256 39.0572 44.611C39.0572 44.611 39.0851 44.704 39.099 44.6761C39.113 44.6993 39.1408 44.611 39.1408 44.611C39.6288 43.8256 40.944 42.543 42.0454 41.3997C43.2165 40.1868 43.8207 39.5826 44.9918 37.6865C46.1629 35.7904 45.7167 32.0355 42.3661 31.9565H42.3754Z" fill="#AF0F07"/>
</svg>
