<svg width="79" height="109" viewBox="0 0 79 109" fill="none" xmlns="http://www.w3.org/2000/svg">
<path d="M75.2164 0.6521H3.42504C1.90047 0.6521 0.664551 1.88799 0.664551 3.41256V106.127C0.664551 107.652 1.90047 108.887 3.42504 108.887H75.2164C76.741 108.887 77.9768 107.652 77.9768 106.127V3.41256C77.9768 1.88799 76.741 0.6521 75.2164 0.6521Z" fill="white"/>
<path d="M75.2162 108.943H3.4249C1.8727 108.943 0.608643 107.679 0.608643 106.127V3.41269C0.608643 1.8605 1.8727 0.596436 3.4249 0.596436H75.2162C76.7684 0.596436 78.0325 1.8605 78.0325 3.41269V106.127C78.0325 107.679 76.7684 108.943 75.2162 108.943ZM3.4249 0.707994C1.93312 0.707994 0.720173 1.92091 0.720173 3.41269V106.127C0.720173 107.619 1.93312 108.832 3.4249 108.832H75.2162C76.708 108.832 77.9209 107.619 77.9209 106.127V3.41269C77.9209 1.92091 76.708 0.707994 75.2162 0.707994H3.4249Z" fill="#65A7DD"/>
<path d="M69.9464 9.18922C69.9464 9.33328 69.8302 9.45409 69.6815 9.45409C69.5328 9.45409 69.4166 9.33793 69.4166 9.18922C69.4166 9.0405 69.5328 8.92432 69.6815 8.92432C69.8302 8.92432 69.9464 9.0405 69.9464 9.18922Z" fill="white"/>
<path d="M57.3428 9.18922C57.3428 9.33328 57.2266 9.45409 57.0779 9.45409C56.9292 9.45409 56.813 9.33793 56.813 9.18922C56.813 9.0405 56.9292 8.92432 57.0779 8.92432C57.2266 8.92432 57.3428 9.0405 57.3428 9.18922Z" fill="white"/>
<path d="M45.7432 9.18922C45.7432 9.33328 45.627 9.45409 45.4783 9.45409C45.3296 9.45409 45.2134 9.33793 45.2134 9.18922C45.2134 9.0405 45.3296 8.92432 45.4783 8.92432C45.627 8.92432 45.7432 9.0405 45.7432 9.18922Z" fill="white"/>
<path d="M34.1017 9.27296C34.1017 9.41702 33.9855 9.53785 33.8368 9.53785C33.6881 9.53785 33.5719 9.42167 33.5719 9.27296C33.5719 9.12424 33.6881 9.00806 33.8368 9.00806C33.9855 9.00806 34.1017 9.12424 34.1017 9.27296Z" fill="white"/>
<path d="M69.9464 19.0137C69.9464 19.1577 69.8302 19.2786 69.6815 19.2786C69.5328 19.2786 69.4166 19.1624 69.4166 19.0137C69.4166 18.865 69.5328 18.7488 69.6815 18.7488C69.8302 18.7488 69.9464 18.865 69.9464 19.0137Z" fill="white"/>
<path d="M69.9464 27.9783C69.9464 28.1223 69.8302 28.2432 69.6815 28.2432C69.5328 28.2432 69.4166 28.127 69.4166 27.9783C69.4166 27.8296 69.5328 27.7134 69.6815 27.7134C69.8302 27.7134 69.9464 27.8296 69.9464 27.9783Z" fill="white"/>
<path d="M69.9464 37.375C69.9464 37.5191 69.8302 37.6399 69.6815 37.6399C69.5328 37.6399 69.4166 37.5237 69.4166 37.375C69.4166 37.2263 69.5328 37.1101 69.6815 37.1101C69.8302 37.1101 69.9464 37.2263 69.9464 37.375Z" fill="white"/>
<path d="M69.9464 43.3142C69.9464 43.4583 69.8302 43.5791 69.6815 43.5791C69.5328 43.5791 69.4166 43.4629 69.4166 43.3142C69.4166 43.1655 69.5328 43.0493 69.6815 43.0493C69.8302 43.0493 69.9464 43.1655 69.9464 43.3142Z" fill="white"/>
<path d="M69.9464 49.2768C69.9464 49.4209 69.8302 49.5417 69.6815 49.5417C69.5328 49.5417 69.4166 49.4255 69.4166 49.2768C69.4166 49.1281 69.5328 49.012 69.6815 49.012C69.8302 49.012 69.9464 49.1281 69.9464 49.2768Z" fill="white"/>
<path d="M9.39683 9.45408C9.39683 9.59815 9.28068 9.71898 9.13196 9.71898C8.98325 9.71898 8.86707 9.60279 8.86707 9.45408C8.86707 9.30537 8.98325 9.18921 9.13196 9.18921C9.28068 9.18921 9.39683 9.30537 9.39683 9.45408Z" fill="white"/>
<path d="M22.1489 9.27296C22.1489 9.41702 22.0328 9.53785 21.884 9.53785C21.7353 9.53785 21.6191 9.42167 21.6191 9.27296C21.6191 9.12424 21.7353 9.00806 21.884 9.00806C22.0328 9.00806 22.1489 9.12424 22.1489 9.27296Z" fill="white"/>
<path d="M9.39683 18.8044C9.39683 18.9485 9.28068 19.0693 9.13196 19.0693C8.98325 19.0693 8.86707 18.9532 8.86707 18.8044C8.86707 18.6557 8.98325 18.5396 9.13196 18.5396C9.28068 18.5396 9.39683 18.6557 9.39683 18.8044Z" fill="white"/>
<path d="M9.39683 28.0434C9.39683 28.1875 9.28068 28.3083 9.13196 28.3083C8.98325 28.3083 8.86707 28.1921 8.86707 28.0434C8.86707 27.8947 8.98325 27.7786 9.13196 27.7786C9.28068 27.7786 9.39683 27.8947 9.39683 28.0434Z" fill="white"/>
<path d="M9.39683 37.31C9.39683 37.4541 9.28068 37.5749 9.13196 37.5749C8.98325 37.5749 8.86707 37.4587 8.86707 37.31C8.86707 37.1613 8.98325 37.0452 9.13196 37.0452C9.28068 37.0452 9.39683 37.1613 9.39683 37.31Z" fill="white"/>
<path d="M9.39683 43.3142C9.39683 43.4583 9.28068 43.5791 9.13196 43.5791C8.98325 43.5791 8.86707 43.4629 8.86707 43.3142C8.86707 43.1655 8.98325 43.0493 9.13196 43.0493C9.28068 43.0493 9.39683 43.1655 9.39683 43.3142Z" fill="white"/>
<path d="M9.39683 49.5418C9.39683 49.6858 9.28068 49.8067 9.13196 49.8067C8.98325 49.8067 8.86707 49.6905 8.86707 49.5418C8.86707 49.393 8.98325 49.2769 9.13196 49.2769C9.28068 49.2769 9.39683 49.393 9.39683 49.5418Z" fill="white"/>
<path d="M9.39683 55.5505C9.39683 55.6946 9.28068 55.8154 9.13196 55.8154C8.98325 55.8154 8.86707 55.6992 8.86707 55.5505C8.86707 55.4018 8.98325 55.2856 9.13196 55.2856C9.28068 55.2856 9.39683 55.4018 9.39683 55.5505Z" fill="white"/>
<path d="M9.39683 61.5596C9.39683 61.7036 9.28068 61.8244 9.13196 61.8244C8.98325 61.8244 8.86707 61.7083 8.86707 61.5596C8.86707 61.4109 8.98325 61.2947 9.13196 61.2947C9.28068 61.2947 9.39683 61.4109 9.39683 61.5596Z" fill="white"/>
<path d="M9.39683 67.7869C9.39683 67.9309 9.28068 68.0518 9.13196 68.0518C8.98325 68.0518 8.86707 67.9356 8.86707 67.7869C8.86707 67.6382 8.98325 67.522 9.13196 67.522C9.28068 67.522 9.39683 67.6382 9.39683 67.7869Z" fill="white"/>
<path d="M9.39683 74.0237C9.39683 74.1677 9.28068 74.2886 9.13196 74.2886C8.98325 74.2886 8.86707 74.1724 8.86707 74.0237C8.86707 73.8749 8.98325 73.7588 9.13196 73.7588C9.28068 73.7588 9.39683 73.8749 9.39683 74.0237Z" fill="white"/>
<path d="M9.39683 79.6003C9.39683 79.7444 9.28068 79.8652 9.13196 79.8652C8.98325 79.8652 8.86707 79.749 8.86707 79.6003C8.86707 79.4516 8.98325 79.3354 9.13196 79.3354C9.28068 79.3354 9.39683 79.4516 9.39683 79.6003Z" fill="white"/>
<path d="M9.39683 85.8276C9.39683 85.9717 9.28068 86.0925 9.13196 86.0925C8.98325 86.0925 8.86707 85.9764 8.86707 85.8276C8.86707 85.6789 8.98325 85.5627 9.13196 85.5627C9.28068 85.5627 9.39683 85.6789 9.39683 85.8276Z" fill="white"/>
<path d="M9.39683 91.8923C9.39683 92.0364 9.28068 92.1572 9.13196 92.1572C8.98325 92.1572 8.86707 92.0411 8.86707 91.8923C8.86707 91.7436 8.98325 91.6274 9.13196 91.6274C9.28068 91.6274 9.39683 91.7436 9.39683 91.8923Z" fill="white"/>
<path d="M9.50367 100.811C9.50367 100.955 9.38749 101.075 9.23878 101.075C9.09006 101.075 8.97388 100.959 8.97388 100.811C8.97388 100.662 9.09006 100.546 9.23878 100.546C9.38749 100.546 9.50367 100.662 9.50367 100.811Z" fill="white"/>
<path d="M19.0445 101.071C19.0445 101.215 18.9284 101.336 18.7796 101.336C18.6309 101.336 18.5148 101.22 18.5148 101.071C18.5148 100.922 18.6309 100.806 18.7796 100.806C18.9284 100.806 19.0445 100.922 19.0445 101.071Z" fill="white"/>
<path d="M31.3366 101.071C31.3366 101.215 31.2204 101.336 31.0717 101.336C30.9229 101.336 30.8068 101.22 30.8068 101.071C30.8068 100.922 30.9229 100.806 31.0717 100.806C31.2204 100.806 31.3366 100.922 31.3366 101.071Z" fill="white"/>
<path d="M43.6054 101.071C43.6054 101.215 43.4891 101.336 43.3404 101.336C43.1917 101.336 43.0756 101.22 43.0756 101.071C43.0756 100.922 43.1917 100.806 43.3404 100.806C43.4891 100.806 43.6054 100.922 43.6054 101.071Z" fill="white"/>
<path d="M55.5584 101.071C55.5584 101.215 55.4422 101.336 55.2935 101.336C55.1448 101.336 55.0286 101.22 55.0286 101.071C55.0286 100.922 55.1448 100.806 55.2935 100.806C55.4422 100.806 55.5584 100.922 55.5584 101.071Z" fill="white"/>
<path d="M69.9464 55.4065C69.9464 55.5505 69.8302 55.6714 69.6815 55.6714C69.5328 55.6714 69.4166 55.5552 69.4166 55.4065C69.4166 55.2578 69.5328 55.1416 69.6815 55.1416C69.8302 55.1416 69.9464 55.2578 69.9464 55.4065Z" fill="white"/>
<path d="M69.9464 61.1367C69.9464 61.2808 69.8302 61.4016 69.6815 61.4016C69.5328 61.4016 69.4166 61.2854 69.4166 61.1367C69.4166 60.988 69.5328 60.8718 69.6815 60.8718C69.8302 60.8718 69.9464 60.988 69.9464 61.1367Z" fill="white"/>
<path d="M69.9464 67.313C69.9464 67.457 69.8302 67.5779 69.6815 67.5779C69.5328 67.5779 69.4166 67.4617 69.4166 67.313C69.4166 67.1643 69.5328 67.0481 69.6815 67.0481C69.8302 67.0481 69.9464 67.1643 69.9464 67.313Z" fill="white"/>
<path d="M69.9464 73.4009C69.9464 73.545 69.8302 73.6658 69.6815 73.6658C69.5328 73.6658 69.4166 73.5496 69.4166 73.4009C69.4166 73.2522 69.5328 73.136 69.6815 73.136C69.8302 73.136 69.9464 73.2522 69.9464 73.4009Z" fill="white"/>
<path d="M69.9464 79.3308C69.9464 79.4749 69.8302 79.5957 69.6815 79.5957C69.5328 79.5957 69.4166 79.4795 69.4166 79.3308C69.4166 79.1821 69.5328 79.0659 69.6815 79.0659C69.8302 79.0659 69.9464 79.1821 69.9464 79.3308Z" fill="white"/>
<path d="M69.9464 85.1724C69.9464 85.3164 69.8302 85.4372 69.6815 85.4372C69.5328 85.4372 69.4166 85.3211 69.4166 85.1724C69.4166 85.0237 69.5328 84.9075 69.6815 84.9075C69.8302 84.9075 69.9464 85.0237 69.9464 85.1724Z" fill="white"/>
<path d="M69.9464 91.1397C69.9464 91.2837 69.8302 91.4046 69.6815 91.4046C69.5328 91.4046 69.4166 91.2884 69.4166 91.1397C69.4166 90.9909 69.5328 90.8748 69.6815 90.8748C69.8302 90.8748 69.9464 90.9909 69.9464 91.1397Z" fill="white"/>
<path d="M69.9464 100.234C69.9464 100.378 69.8302 100.499 69.6815 100.499C69.5328 100.499 69.4166 100.383 69.4166 100.234C69.4166 100.086 69.5328 99.9695 69.6815 99.9695C69.8302 99.9695 69.9464 100.086 69.9464 100.234Z" fill="white"/>
<path d="M7.59367 13.9342C7.2916 13.7948 7.04529 13.5996 6.86405 13.3394C6.6828 13.0791 6.58984 12.777 6.58984 12.4285C6.58984 11.9916 6.71531 11.6477 6.96162 11.4014C7.20793 11.1551 7.46818 10.9925 7.74701 10.9135V10.8763L7.64944 10.8298C7.32878 10.6997 7.08711 10.5045 6.91981 10.2443C6.75251 9.98401 6.66884 9.68658 6.66884 9.34268C6.66884 9.03131 6.76643 8.74785 6.95697 8.49225C7.14751 8.23664 7.39848 8.0368 7.7052 7.89738C8.01193 7.75796 8.33259 7.68359 8.66254 7.68359C9.07151 7.68359 9.42005 7.75797 9.70353 7.90668C9.98702 8.0554 10.2054 8.24593 10.3495 8.48294C10.4936 8.71995 10.5679 8.97091 10.5679 9.2358C10.5679 9.56111 10.4657 9.83995 10.2566 10.077C10.0474 10.314 9.80578 10.4952 9.53159 10.6253V10.6625L9.74072 10.7415C10.4518 11.0296 10.8049 11.4851 10.8049 12.1032C10.8049 12.475 10.7213 12.8189 10.5493 13.1256C10.3774 13.4369 10.1264 13.6833 9.79183 13.8645C9.45723 14.0504 9.05756 14.1387 8.59748 14.1387C8.24428 14.1387 7.91432 14.069 7.6076 13.9296L7.59367 13.9342ZM9.4944 13.6461C9.70353 13.5067 9.85688 13.3393 9.94982 13.1442C10.0428 12.949 10.0893 12.7631 10.0893 12.5911C10.0893 12.2519 10.0149 12.0056 9.86618 11.8429C9.71746 11.6803 9.50371 11.5408 9.22023 11.4293L8.00261 10.9878C7.7563 11.0901 7.56577 11.2527 7.42635 11.4758C7.28693 11.6989 7.21722 12.0242 7.21722 12.4517C7.21722 12.9304 7.36128 13.2882 7.65406 13.516C7.94684 13.7437 8.2861 13.8599 8.67647 13.8599C9.00643 13.8599 9.27597 13.7901 9.48975 13.6507L9.4944 13.6461ZM9.81972 10.0305C9.9266 9.82137 9.98236 9.57505 9.98236 9.29157C9.98236 9.04526 9.92197 8.82218 9.80114 8.6177C9.68031 8.41787 9.51763 8.25988 9.3178 8.1437C9.11797 8.02752 8.8949 7.97175 8.65324 7.97175C8.28146 7.97175 7.96546 8.07864 7.70986 8.28776C7.45426 8.49689 7.32878 8.77573 7.32878 9.12892C7.32878 9.37988 7.38917 9.58435 7.51465 9.73306C7.64013 9.88178 7.83067 10.0119 8.09556 10.1234L9.25738 10.5649C9.52228 10.4209 9.70818 10.2443 9.81506 10.0305H9.81972Z" fill="#A43E32"/>
<path d="M71.187 98.7472C71.4891 98.8866 71.7354 99.0818 71.9166 99.3421C72.0978 99.6023 72.1908 99.9044 72.1908 100.253C72.1908 100.69 72.0653 101.034 71.819 101.28C71.5727 101.526 71.3125 101.689 71.0337 101.768V101.805L71.1312 101.852C71.4519 101.982 71.6935 102.177 71.8608 102.437C72.0281 102.697 72.1118 102.995 72.1118 103.339C72.1118 103.65 72.0142 103.934 71.8237 104.189C71.6331 104.445 71.3822 104.645 71.0755 104.784C70.7687 104.923 70.4481 104.998 70.1181 104.998C69.7091 104.998 69.3606 104.923 69.0771 104.779C68.7936 104.631 68.5752 104.44 68.4311 104.203C68.2871 103.966 68.2127 103.715 68.2127 103.45C68.2127 103.125 68.315 102.846 68.5241 102.604C68.7332 102.367 68.9749 102.186 69.2491 102.061V102.024L69.04 101.94C68.3289 101.652 67.9757 101.196 67.9757 100.578C67.9757 100.206 68.0594 99.8626 68.2313 99.5558C68.4033 99.2445 68.6542 98.9982 68.9888 98.8169C69.3234 98.631 69.7231 98.5427 70.1832 98.5427C70.5364 98.5427 70.8663 98.6124 71.173 98.7519L71.187 98.7472ZM69.2863 99.0353C69.0771 99.1748 68.9238 99.3421 68.8309 99.5373C68.7379 99.7324 68.6914 99.9183 68.6914 100.09C68.6914 100.425 68.7658 100.676 68.9145 100.838C69.0632 101.001 69.277 101.141 69.5604 101.252L70.778 101.694C71.0243 101.591 71.2149 101.429 71.3543 101.206C71.4937 100.983 71.5635 100.657 71.5635 100.23C71.5635 99.7464 71.4194 99.3932 71.1266 99.1655C70.8338 98.9378 70.4946 98.8216 70.1042 98.8216C69.7742 98.8216 69.5047 98.8913 69.2909 99.0307L69.2863 99.0353ZM68.9609 102.651C68.854 102.86 68.7983 103.106 68.7983 103.39C68.7983 103.636 68.8587 103.859 68.9795 104.064C69.1004 104.264 69.263 104.422 69.4629 104.538C69.6627 104.654 69.8857 104.71 70.1274 104.71C70.4992 104.71 70.8152 104.603 71.0708 104.394C71.3264 104.185 71.4519 103.906 71.4519 103.557C71.4519 103.306 71.3915 103.102 71.266 102.953C71.1405 102.804 70.95 102.674 70.6851 102.567L69.5233 102.126C69.2584 102.27 69.0725 102.446 68.9656 102.66L68.9609 102.651Z" fill="#A43E32"/>
<path d="M9.83342 16.7132C8.95044 16.69 8.74596 17.3685 8.69949 17.6892C8.65301 17.3638 8.44853 16.69 7.56555 16.7132C6.40372 16.7411 6.25038 18.0423 6.6547 18.7023C7.05901 19.3622 7.27279 19.5713 7.6771 19.9896C8.05818 20.3846 8.51826 20.8307 8.68556 21.1049C8.68556 21.1049 8.69484 21.1375 8.69949 21.1282C8.70413 21.1375 8.71344 21.1049 8.71344 21.1049C8.88074 20.8307 9.34082 20.3892 9.72189 19.9896C10.1262 19.5713 10.34 19.3575 10.7443 18.7023C11.1486 18.0423 10.9952 16.7411 9.83342 16.7132Z" fill="#AF0F07"/>
<path d="M70.8245 96.721C69.9415 96.7443 69.7371 96.0658 69.6906 95.7405C69.6441 96.0658 69.4396 96.7396 68.5566 96.721C67.3948 96.6932 67.2415 95.3919 67.6458 94.732C68.0501 94.0721 68.2639 93.863 68.6682 93.4447C69.0492 93.0497 69.5093 92.6035 69.6766 92.3293C69.6766 92.3293 69.686 92.2968 69.6906 92.3061C69.6953 92.2968 69.7046 92.3293 69.7046 92.3293C69.8719 92.6035 70.3319 93.045 70.713 93.4447C71.1173 93.863 71.3311 94.0767 71.7354 94.732C72.1397 95.3919 71.9863 96.6932 70.8245 96.721Z" fill="#AF0F07"/>
<path d="M30.6533 13.9157C28.1066 13.8553 27.521 15.7978 27.3816 16.7366C27.2468 15.8025 26.6613 13.8553 24.1099 13.9157C20.7592 13.9947 20.3177 17.7497 21.4842 19.6458C22.6553 21.5419 23.2595 22.1507 24.4306 23.359C25.532 24.4976 26.8518 25.7849 27.3352 26.5702C27.3352 26.5702 27.363 26.6632 27.377 26.6353C27.3909 26.6585 27.4188 26.5702 27.4188 26.5702C27.9068 25.7849 29.222 24.5022 30.3234 23.359C31.4945 22.146 32.0986 21.5419 33.2698 19.6458C34.4409 17.7497 33.9947 13.9947 30.644 13.9157H30.6533Z" fill="#AF0F07"/>
<path d="M30.6533 49.142C28.1066 49.0816 27.521 51.0242 27.3816 51.9629C27.2468 51.0288 26.6613 49.0816 24.1099 49.142C20.7592 49.221 20.3177 52.976 21.4842 54.8721C22.6553 56.7682 23.2595 57.377 24.4306 58.5853C25.532 59.7239 26.8518 61.0112 27.3352 61.7966C27.3352 61.7966 27.363 61.8895 27.377 61.8616C27.3909 61.8849 27.4188 61.7966 27.4188 61.7966C27.9068 61.0112 29.222 59.7285 30.3234 58.5853C31.4945 57.3724 32.0986 56.7682 33.2698 54.8721C34.4409 52.976 33.9947 49.221 30.644 49.142H30.6533Z" fill="#AF0F07"/>
<path d="M30.6533 97.0928C28.1066 97.1532 27.521 95.2106 27.3816 94.2719C27.2468 95.206 26.6613 97.1532 24.1099 97.0928C20.7592 97.0138 20.3177 93.2587 21.4842 91.3626C22.6553 89.4666 23.2595 88.8578 24.4306 87.6495C25.532 86.5109 26.8518 85.2236 27.3352 84.4382C27.3352 84.4382 27.363 84.3453 27.377 84.3731C27.3909 84.3499 27.4188 84.4382 27.4188 84.4382C27.9068 85.2236 29.222 86.5062 30.3234 87.6495C31.4945 88.8624 32.0986 89.4666 33.2698 91.3626C34.4409 93.2587 33.9947 97.0138 30.644 97.0928H30.6533Z" fill="#AF0F07"/>
<path d="M55.1352 13.9157C52.5885 13.8553 52.003 15.7978 51.8636 16.7366C51.7288 15.8025 51.1432 13.8553 48.5919 13.9157C45.2412 13.9947 44.7997 17.7497 45.9661 19.6458C47.1326 21.5419 47.7414 22.1507 48.9125 23.359C50.0139 24.4976 51.3337 25.7849 51.8171 26.5702C51.8171 26.5702 51.845 26.6632 51.8589 26.6353C51.8729 26.6585 51.9007 26.5702 51.9007 26.5702C52.3887 25.7849 53.7039 24.5022 54.8053 23.359C55.9764 22.146 56.5805 21.5419 57.7517 19.6458C58.9228 17.7497 58.4767 13.9947 55.126 13.9157H55.1352Z" fill="#AF0F07"/>
<path d="M55.1352 49.142C52.5885 49.0816 52.003 51.0242 51.8636 51.9629C51.7288 51.0288 51.1432 49.0816 48.5919 49.142C45.2412 49.221 44.7997 52.976 45.9661 54.8721C47.1326 56.7682 47.7414 57.377 48.9125 58.5853C50.0139 59.7239 51.3337 61.0112 51.8171 61.7966C51.8171 61.7966 51.845 61.8895 51.8589 61.8616C51.8729 61.8849 51.9007 61.7966 51.9007 61.7966C52.3887 61.0112 53.7039 59.7285 54.8053 58.5853C55.9764 57.3724 56.5805 56.7682 57.7517 54.8721C58.9228 52.976 58.4767 49.221 55.126 49.142H55.1352Z" fill="#AF0F07"/>
<path d="M55.1352 97.0928C52.5885 97.1532 52.003 95.2106 51.8636 94.2719C51.7288 95.206 51.1432 97.1532 48.5919 97.0928C45.2412 97.0138 44.7997 93.2587 45.9661 91.3626C47.1326 89.4666 47.7414 88.8578 48.9125 87.6495C50.0139 86.5109 51.3337 85.2236 51.8171 84.4382C51.8171 84.4382 51.845 84.3453 51.8589 84.3731C51.8729 84.3499 51.9007 84.4382 51.9007 84.4382C52.3887 85.2236 53.7039 86.5062 54.8053 87.6495C55.9764 88.8624 56.5805 89.4666 57.7517 91.3626C58.9228 93.2587 58.4767 97.0138 55.126 97.0928H55.1352Z" fill="#AF0F07"/>
<path d="M42.6806 31.9565C40.1338 31.896 39.5483 33.8386 39.4089 34.7774C39.2741 33.8433 38.6885 31.896 36.1371 31.9565C32.7864 32.0355 32.345 35.7904 33.5114 37.6865C34.6826 39.5826 35.2867 40.1915 36.4578 41.3997C37.5592 42.5383 38.8791 43.8256 39.3624 44.611C39.3624 44.611 39.3903 44.704 39.4042 44.6761C39.4181 44.6993 39.446 44.611 39.446 44.611C39.934 43.8256 41.2492 42.543 42.3506 41.3997C43.5217 40.1868 44.1259 39.5826 45.297 37.6865C46.4681 35.7904 46.022 32.0355 42.6713 31.9565H42.6806Z" fill="#AF0F07"/>
<path d="M42.6806 78.6152C40.1338 78.6756 39.5483 76.7331 39.4089 75.7943C39.2741 76.7284 38.6885 78.6756 36.1371 78.6152C32.7864 78.5362 32.345 74.7812 33.5114 72.8851C34.6826 70.989 35.2867 70.3802 36.4578 69.1719C37.5592 68.0333 38.8791 66.7461 39.3624 65.9607C39.3624 65.9607 39.3903 65.8677 39.4042 65.8956C39.4181 65.8724 39.446 65.9607 39.446 65.9607C39.934 66.7461 41.2492 68.0287 42.3506 69.1719C43.5217 70.3849 44.1259 70.989 45.297 72.8851C46.4681 74.7812 46.022 78.5362 42.6713 78.6152H42.6806Z" fill="#AF0F07"/>
</svg>
