<svg width="79" height="109" viewBox="0 0 79 109" fill="none" xmlns="http://www.w3.org/2000/svg">
<path d="M3.52584 0.6521H75.2707C76.795 0.6521 78.0312 1.88825 78.0312 3.41256V106.099C78.0312 107.623 76.795 108.86 75.2707 108.86H3.52584C2.00153 108.86 0.765381 107.623 0.765381 106.099V3.41256C0.765381 1.88825 2.00153 0.6521 3.52584 0.6521Z" fill="white"/>
<path d="M75.2707 108.915H3.52581C1.97361 108.915 0.714233 107.651 0.714233 106.104V3.41732C0.714233 1.86512 1.97361 0.605713 3.52581 0.605713H75.2707C76.8229 0.605713 78.0823 1.86512 78.0823 3.41732V106.104C78.0823 107.656 76.8229 108.915 75.2707 108.915ZM3.52581 0.707968C2.03403 0.707968 0.821112 1.92089 0.821112 3.41267V106.099C0.821112 107.591 2.03403 108.804 3.52581 108.804H75.2707C76.7624 108.804 77.9754 107.591 77.9754 106.099V3.41267C77.9754 1.92089 76.7624 0.707968 75.2707 0.707968H3.52581Z" fill="#65A7DD"/>
<path d="M7.21112 11.499C7.12282 11.3921 7.05774 11.2713 7.01591 11.1365C6.97873 11.0064 6.9555 10.8855 6.9555 10.7833C6.9555 10.5742 7.02985 10.4022 7.18321 10.2674C7.2901 10.1791 7.4156 10.1327 7.55501 10.1327C7.69443 10.1327 7.8013 10.1884 7.8803 10.2953C7.91283 10.3372 7.93142 10.3743 7.94072 10.4115C7.95001 10.4487 7.95467 10.4952 7.95467 10.5556C7.95467 10.6439 7.9175 10.7368 7.83849 10.8251C7.78272 10.8855 7.72696 10.9366 7.66654 10.9785C7.61078 11.0157 7.5736 11.0528 7.55501 11.09C7.53178 11.1272 7.52245 11.1737 7.52245 11.2294C7.52245 11.3363 7.58288 11.4339 7.70835 11.5129C7.83383 11.5919 8.01976 11.6337 8.27071 11.6337C8.48914 11.6337 8.6936 11.5687 8.88878 11.4432C9.08397 11.3177 9.2466 11.1086 9.38137 10.8112C9.48361 10.5881 9.56262 10.3093 9.61838 9.97002C9.67415 9.63077 9.69741 9.34729 9.69741 9.12886V8.72455L9.63234 8.69667C9.52545 8.92439 9.35817 9.11491 9.13045 9.25897C8.90738 9.40769 8.68894 9.48206 8.47517 9.48206C8.07085 9.48206 7.73163 9.38446 7.45744 9.18463C7.22043 9.01733 7.04381 8.7896 6.91834 8.50611C6.79286 8.22263 6.72778 7.91592 6.72778 7.59061C6.72778 7.2653 6.80213 6.93997 6.94619 6.61001C7.09026 6.2847 7.30403 6.01054 7.58287 5.79211C7.86171 5.57369 8.19166 5.4668 8.56809 5.4668C8.94452 5.4668 9.30241 5.58761 9.59983 5.82927C9.89726 6.07093 10.125 6.41484 10.2876 6.86098C10.4503 7.30712 10.5293 7.8369 10.5293 8.4457C10.5293 8.93831 10.4642 9.42163 10.3387 9.89565C10.2133 10.3697 10.0273 10.7647 9.79033 11.0761C9.34884 11.643 8.83766 11.9219 8.24746 11.9219C7.81991 11.9219 7.47601 11.7778 7.21112 11.4897V11.499ZM9.02357 8.94761C9.19088 8.80819 9.32564 8.613 9.42323 8.3574C9.52083 8.1018 9.57192 7.80901 9.57192 7.47905C9.57192 6.98179 9.49291 6.5682 9.33491 6.24754C9.1769 5.92688 8.92133 5.76423 8.55884 5.76423C8.19636 5.76423 7.92677 5.9408 7.75947 6.28935C7.59217 6.63789 7.5132 7.03291 7.5132 7.47905C7.5132 7.95772 7.58755 8.36205 7.73161 8.67806C7.87568 8.99872 8.1173 9.15675 8.45191 9.15675C8.66104 9.15675 8.85162 9.08703 9.01892 8.94761H9.02357Z" fill="#A43E32"/>
<path d="M71.4784 96.7535C71.5667 96.8604 71.6318 96.9812 71.6736 97.116C71.7108 97.2461 71.734 97.3669 71.734 97.4692C71.734 97.6783 71.6597 97.8502 71.5063 97.985C71.3994 98.0733 71.2739 98.1198 71.1345 98.1198C70.9951 98.1198 70.8882 98.064 70.8092 97.9571C70.7813 97.9153 70.7581 97.8781 70.7488 97.8409C70.7395 97.8038 70.7348 97.7573 70.7348 97.6969C70.7348 97.6086 70.772 97.5156 70.851 97.4273C70.9068 97.3669 70.9626 97.3158 71.023 97.274C71.0787 97.2368 71.1159 97.1996 71.1345 97.1624C71.1577 97.1253 71.1671 97.0788 71.1671 97.023C71.1671 96.9161 71.1066 96.8185 70.9812 96.7395C70.8557 96.6605 70.6698 96.6187 70.4189 96.6187C70.2004 96.6187 69.9959 96.6838 69.8007 96.8093C69.6055 96.9347 69.4429 97.1438 69.3081 97.4413C69.2059 97.6643 69.1269 97.9432 69.0711 98.2824C69.0154 98.6217 68.9921 98.9052 68.9921 99.1236V99.5279L69.0572 99.5558C69.1641 99.3281 69.3314 99.1375 69.5591 98.9935C69.7822 98.8448 70.0006 98.7704 70.2143 98.7704C70.6187 98.7704 70.9579 98.868 71.2321 99.0678C71.4645 99.2351 71.6457 99.4629 71.7712 99.7463C71.8967 100.03 71.9617 100.337 71.9617 100.662C71.9617 100.987 71.8874 101.312 71.7433 101.642C71.5993 101.968 71.3855 102.242 71.1066 102.46C70.8278 102.679 70.4979 102.786 70.1214 102.786C69.745 102.786 69.3872 102.665 69.0897 102.423C68.7923 102.182 68.5645 101.838 68.4019 101.391C68.2392 100.945 68.1603 100.416 68.1603 99.8068C68.1603 99.3141 68.2253 98.8308 68.3508 98.3568C68.4763 97.8828 68.6622 97.4877 68.8992 97.1764C69.336 96.6094 69.8519 96.3306 70.4421 96.3306C70.8696 96.3306 71.2136 96.4747 71.4784 96.7628V96.7535ZM69.666 99.3048C69.4987 99.4443 69.3639 99.6395 69.2663 99.8951C69.1687 100.151 69.1176 100.443 69.1176 100.773C69.1176 101.271 69.1966 101.684 69.3546 102.005C69.5126 102.326 69.7682 102.488 70.1307 102.488C70.4932 102.488 70.7627 102.312 70.93 101.963C71.0973 101.615 71.1764 101.22 71.1764 100.773C71.1764 100.29 71.102 99.8904 70.9579 99.5744C70.8138 99.2537 70.5722 99.0957 70.2376 99.0957C70.0285 99.0957 69.8379 99.1654 69.6706 99.3048H69.666Z" fill="#AF0F07"/>
<path d="M71.2693 94.3602C70.3864 94.3834 70.1819 93.7049 70.1354 93.3843C70.089 93.7096 69.8844 94.3834 69.0015 94.3602C67.8396 94.3323 67.6863 93.0311 68.0906 92.3712C68.4949 91.7113 68.704 91.5021 69.113 91.0839C69.4941 90.6888 69.9495 90.2427 70.1215 89.9685C70.1215 89.9685 70.1308 89.936 70.1354 89.9453C70.1401 89.936 70.1493 89.9685 70.1493 89.9685C70.3166 90.2427 70.7767 90.6842 71.1578 91.0839C71.5621 91.5021 71.7712 91.7159 72.1802 92.3712C72.5891 93.0264 72.4312 94.3323 71.2693 94.3602Z" fill="#AF0F07"/>
<path d="M9.79497 14.2223C8.91199 14.199 8.70753 14.8776 8.66106 15.1982C8.61459 14.8729 8.41008 14.199 7.52709 14.2223C6.36527 14.2501 6.21193 15.5514 6.61624 16.2113C7.02056 16.8712 7.22966 17.0804 7.63862 17.4986C8.0197 17.8936 8.47516 18.3398 8.64711 18.614C8.64711 18.614 8.65641 18.6465 8.66106 18.6372C8.66571 18.6465 8.67502 18.614 8.67502 18.614C8.84232 18.3398 9.30237 17.8983 9.68344 17.4986C10.0878 17.0804 10.2969 16.8666 10.7059 16.2113C11.1148 15.5561 10.9568 14.2501 9.79497 14.2223Z" fill="#AF0F07"/>
<path d="M24.7732 13.2323C22.2265 13.1719 21.6409 15.1145 21.5062 16.0532C21.3714 15.1191 20.7858 13.1719 18.2391 13.2323C14.8931 13.3113 14.4469 17.0664 15.618 18.9624C16.7891 20.8585 17.3933 21.4627 18.5644 22.6756C19.6658 23.8142 20.981 25.0969 21.4689 25.8869C21.4689 25.8869 21.4969 25.9798 21.5108 25.952C21.5248 25.9752 21.5526 25.8869 21.5526 25.8869C22.0406 25.1015 23.3558 23.8189 24.4572 22.6756C25.6283 21.4673 26.2324 20.8585 27.4035 18.9624C28.5747 17.0664 28.1285 13.3113 24.7825 13.2323H24.7732Z" fill="#AF0F07"/>
<path d="M41.0665 48.445C38.5198 48.3846 37.9342 50.3271 37.7994 51.2659C37.6647 50.3318 37.0791 48.3846 34.5324 48.445C31.1864 48.524 30.7402 52.279 31.9114 54.1751C33.0825 56.0712 33.6866 56.6753 34.8577 57.8883C35.9591 59.0269 37.2743 60.3095 37.7623 61.0995C37.7623 61.0995 37.7901 61.1925 37.8041 61.1646C37.818 61.1878 37.8459 61.0995 37.8459 61.0995C38.3339 60.3141 39.649 59.0315 40.7505 57.8883C41.9216 56.68 42.5258 56.0712 43.6969 54.1751C44.868 52.279 44.4218 48.524 41.0758 48.445H41.0665Z" fill="#AF0F07"/>
<path d="M24.7732 36.7057C22.2265 36.6453 21.6409 38.5879 21.5062 39.5266C21.3714 38.5925 20.7858 36.6453 18.2391 36.7057C14.8931 36.7847 14.4469 40.5397 15.618 42.4358C16.7891 44.3319 17.3933 44.9361 18.5644 46.149C19.6658 47.2876 20.981 48.5703 21.4689 49.3603C21.4689 49.3603 21.4969 49.4532 21.5108 49.4254C21.5248 49.4486 21.5526 49.3603 21.5526 49.3603C22.0406 48.5749 23.3558 47.2923 24.4572 46.149C25.6283 44.9407 26.2324 44.3319 27.4035 42.4358C28.5747 40.5397 28.1285 36.7847 24.7825 36.7057H24.7732Z" fill="#AF0F07"/>
<path d="M24.7732 96.3863C22.2265 96.4467 21.6409 94.5041 21.5062 93.5653C21.3714 94.4994 20.7858 96.4467 18.2391 96.3863C14.8931 96.3072 14.4469 92.5522 15.618 90.6561C16.7891 88.76 17.3933 88.1559 18.5644 86.943C19.6658 85.8044 20.981 84.5217 21.4689 83.7317C21.4689 83.7317 21.4969 83.6387 21.5108 83.6666C21.5248 83.6434 21.5526 83.7317 21.5526 83.7317C22.0406 84.5171 23.3558 85.7997 24.4572 86.943C25.6283 88.1513 26.2324 88.76 27.4035 90.6561C28.5747 92.5522 28.1285 96.3072 24.7825 96.3863H24.7732Z" fill="#AF0F07"/>
<path d="M24.7732 72.9082C22.2265 72.9686 21.6409 71.026 21.5062 70.0873C21.3714 71.0214 20.7858 72.9686 18.2391 72.9082C14.8931 72.8292 14.4469 69.0742 15.618 67.1781C16.7891 65.282 17.3933 64.6778 18.5644 63.4649C19.6658 62.3263 20.981 61.0437 21.4689 60.2536C21.4689 60.2536 21.4969 60.1607 21.5108 60.1886C21.5248 60.1653 21.5526 60.2536 21.5526 60.2536C22.0406 61.039 23.3558 62.3217 24.4572 63.4649C25.6283 64.6732 26.2324 65.282 27.4035 67.1781C28.5747 69.0742 28.1285 72.8292 24.7825 72.9082H24.7732Z" fill="#AF0F07"/>
<path d="M59.112 13.2323C56.5653 13.1719 55.9798 15.1145 55.845 16.0532C55.7103 15.1191 55.1247 13.1719 52.578 13.2323C49.2319 13.3113 48.7858 17.0664 49.9569 18.9624C51.128 20.8585 51.7321 21.4627 52.9033 22.6756C54.0047 23.8142 55.3198 25.0969 55.8078 25.8869C55.8078 25.8869 55.8357 25.9798 55.8497 25.952C55.8636 25.9752 55.8915 25.8869 55.8915 25.8869C56.3795 25.1015 57.6946 23.8189 58.796 22.6756C59.9672 21.4673 60.5713 20.8585 61.7424 18.9624C62.9135 17.0664 62.4674 13.3113 59.1213 13.2323H59.112Z" fill="#AF0F07"/>
<path d="M59.112 36.7057C56.5653 36.6453 55.9798 38.5879 55.845 39.5266C55.7103 38.5925 55.1247 36.6453 52.578 36.7057C49.2319 36.7847 48.7858 40.5397 49.9569 42.4358C51.128 44.3319 51.7321 44.9361 52.9033 46.149C54.0047 47.2876 55.3198 48.5703 55.8078 49.3603C55.8078 49.3603 55.8357 49.4532 55.8497 49.4254C55.8636 49.4486 55.8915 49.3603 55.8915 49.3603C56.3795 48.5749 57.6946 47.2923 58.796 46.149C59.9672 44.9407 60.5713 44.3319 61.7424 42.4358C62.9135 40.5397 62.4674 36.7847 59.1213 36.7057H59.112Z" fill="#AF0F07"/>
<path d="M59.112 96.3863C56.5653 96.4467 55.9798 94.5041 55.845 93.5653C55.7103 94.4994 55.1247 96.4467 52.578 96.3863C49.2319 96.3072 48.7858 92.5522 49.9569 90.6561C51.128 88.76 51.7321 88.1559 52.9033 86.943C54.0047 85.8044 55.3198 84.5217 55.8078 83.7317C55.8078 83.7317 55.8357 83.6387 55.8497 83.6666C55.8636 83.6434 55.8915 83.7317 55.8915 83.7317C56.3795 84.5171 57.6946 85.7997 58.796 86.943C59.9672 88.1513 60.5713 88.76 61.7424 90.6561C62.9135 92.5522 62.4674 96.3072 59.1213 96.3863H59.112Z" fill="#AF0F07"/>
<path d="M59.112 72.9082C56.5653 72.9686 55.9798 71.026 55.845 70.0873C55.7103 71.0214 55.1247 72.9686 52.578 72.9082C49.2319 72.8292 48.7858 69.0742 49.9569 67.1781C51.128 65.282 51.7321 64.6778 52.9033 63.4649C54.0047 62.3263 55.3198 61.0437 55.8078 60.2536C55.8078 60.2536 55.8357 60.1607 55.8497 60.1886C55.8636 60.1653 55.8915 60.2536 55.8915 60.2536C56.3795 61.039 57.6946 62.3217 58.796 63.4649C59.9672 64.6732 60.5713 65.282 61.7424 67.1781C62.9135 69.0742 62.4674 72.8292 59.1213 72.9082H59.112Z" fill="#AF0F07"/>
<path d="M69.8427 9.18458C69.8427 9.32864 69.7264 9.44948 69.5777 9.44948C69.429 9.44948 69.3129 9.33329 69.3129 9.18458C69.3129 9.03586 69.429 8.91968 69.5777 8.91968C69.7264 8.91968 69.8427 9.03586 69.8427 9.18458Z" fill="white"/>
<path d="M56.9791 9.44948C57.1254 9.44948 57.244 9.33087 57.244 9.18458C57.244 9.03828 57.1254 8.91968 56.9791 8.91968C56.8328 8.91968 56.7142 9.03828 56.7142 9.18458C56.7142 9.33087 56.8328 9.44948 56.9791 9.44948Z" fill="white"/>
<path d="M45.6536 9.18458C45.6536 9.32864 45.5374 9.44948 45.3887 9.44948C45.24 9.44948 45.1238 9.33329 45.1238 9.18458C45.1238 9.03586 45.24 8.91968 45.3887 8.91968C45.5374 8.91968 45.6536 9.03586 45.6536 9.18458Z" fill="white"/>
<path d="M33.7518 9.53785C33.8981 9.53785 34.0167 9.41925 34.0167 9.27296C34.0167 9.12666 33.8981 9.00806 33.7518 9.00806C33.6055 9.00806 33.4869 9.12666 33.4869 9.27296C33.4869 9.41925 33.6055 9.53785 33.7518 9.53785Z" fill="white"/>
<path d="M69.8427 19.009C69.8427 19.1531 69.7264 19.2739 69.5777 19.2739C69.429 19.2739 69.3129 19.1578 69.3129 19.009C69.3129 18.8603 69.429 18.7441 69.5777 18.7441C69.7264 18.7441 69.8427 18.8603 69.8427 19.009Z" fill="white"/>
<path d="M69.8427 27.9736C69.8427 28.1177 69.7264 28.2385 69.5777 28.2385C69.429 28.2385 69.3129 28.1224 69.3129 27.9736C69.3129 27.8249 69.429 27.7087 69.5777 27.7087C69.7264 27.7087 69.8427 27.8249 69.8427 27.9736Z" fill="white"/>
<path d="M69.8427 37.3657C69.8427 37.5098 69.7264 37.6306 69.5777 37.6306C69.429 37.6306 69.3129 37.5144 69.3129 37.3657C69.3129 37.217 69.429 37.1008 69.5777 37.1008C69.7264 37.1008 69.8427 37.217 69.8427 37.3657Z" fill="white"/>
<path d="M69.8427 43.3049C69.8427 43.449 69.7264 43.5698 69.5777 43.5698C69.429 43.5698 69.3129 43.4537 69.3129 43.3049C69.3129 43.1562 69.429 43.04 69.5777 43.04C69.7264 43.04 69.8427 43.1562 69.8427 43.3049Z" fill="white"/>
<path d="M69.8427 49.2676C69.8427 49.4117 69.7264 49.5325 69.5777 49.5325C69.429 49.5325 69.3129 49.4163 69.3129 49.2676C69.3129 49.1189 69.429 49.0027 69.5777 49.0027C69.7264 49.0027 69.8427 49.1189 69.8427 49.2676Z" fill="white"/>
<path d="M9.06089 9.71437C9.20719 9.71437 9.32576 9.59577 9.32576 9.44947C9.32576 9.30317 9.20719 9.18457 9.06089 9.18457C8.91459 9.18457 8.79602 9.30317 8.79602 9.44947C8.79602 9.59577 8.91459 9.71437 9.06089 9.71437Z" fill="white"/>
<path d="M21.8083 9.53785C21.9546 9.53785 22.0731 9.41925 22.0731 9.27296C22.0731 9.12666 21.9546 9.00806 21.8083 9.00806C21.662 9.00806 21.5433 9.12666 21.5433 9.27296C21.5433 9.41925 21.662 9.53785 21.8083 9.53785Z" fill="white"/>
<path d="M9.32576 18.7998C9.32576 18.9439 9.2096 19.0647 9.06089 19.0647C8.91218 19.0647 8.79602 18.9485 8.79602 18.7998C8.79602 18.6511 8.91218 18.5349 9.06089 18.5349C9.2096 18.5349 9.32576 18.6511 9.32576 18.7998Z" fill="white"/>
<path d="M9.06089 28.2988C9.20719 28.2988 9.32576 28.1802 9.32576 28.0339C9.32576 27.8876 9.20719 27.769 9.06089 27.769C8.91459 27.769 8.79602 27.8876 8.79602 28.0339C8.79602 28.1802 8.91459 28.2988 9.06089 28.2988Z" fill="white"/>
<path d="M9.06089 37.5657C9.20719 37.5657 9.32576 37.4471 9.32576 37.3008C9.32576 37.1545 9.20719 37.0359 9.06089 37.0359C8.91459 37.0359 8.79602 37.1545 8.79602 37.3008C8.79602 37.4471 8.91459 37.5657 9.06089 37.5657Z" fill="white"/>
<path d="M9.06089 43.5698C9.20719 43.5698 9.32576 43.4512 9.32576 43.3049C9.32576 43.1586 9.20719 43.04 9.06089 43.04C8.91459 43.04 8.79602 43.1586 8.79602 43.3049C8.79602 43.4512 8.91459 43.5698 9.06089 43.5698Z" fill="white"/>
<path d="M9.06089 49.7927C9.20719 49.7927 9.32576 49.6741 9.32576 49.5278C9.32576 49.3815 9.20719 49.2629 9.06089 49.2629C8.91459 49.2629 8.79602 49.3815 8.79602 49.5278C8.79602 49.6741 8.91459 49.7927 9.06089 49.7927Z" fill="white"/>
<path d="M9.06089 55.8015C9.20719 55.8015 9.32576 55.6829 9.32576 55.5366C9.32576 55.3903 9.20719 55.2717 9.06089 55.2717C8.91459 55.2717 8.79602 55.3903 8.79602 55.5366C8.79602 55.6829 8.91459 55.8015 9.06089 55.8015Z" fill="white"/>
<path d="M9.06089 61.8059C9.20719 61.8059 9.32576 61.6873 9.32576 61.541C9.32576 61.3947 9.20719 61.2761 9.06089 61.2761C8.91459 61.2761 8.79602 61.3947 8.79602 61.541C8.79602 61.6873 8.91459 61.8059 9.06089 61.8059Z" fill="white"/>
<path d="M9.06089 68.0332C9.20719 68.0332 9.32576 67.9146 9.32576 67.7683C9.32576 67.622 9.20719 67.5034 9.06089 67.5034C8.91459 67.5034 8.79602 67.622 8.79602 67.7683C8.79602 67.9146 8.91459 68.0332 9.06089 68.0332Z" fill="white"/>
<path d="M9.06089 74.2698C9.20719 74.2698 9.32576 74.1512 9.32576 74.0049C9.32576 73.8586 9.20719 73.74 9.06089 73.74C8.91459 73.74 8.79602 73.8586 8.79602 74.0049C8.79602 74.1512 8.91459 74.2698 9.06089 74.2698Z" fill="white"/>
<path d="M9.06089 79.8467C9.20719 79.8467 9.32576 79.7281 9.32576 79.5818C9.32576 79.4355 9.20719 79.3169 9.06089 79.3169C8.91459 79.3169 8.79602 79.4355 8.79602 79.5818C8.79602 79.7281 8.91459 79.8467 9.06089 79.8467Z" fill="white"/>
<path d="M9.06089 86.074C9.20719 86.074 9.32576 85.9554 9.32576 85.8091C9.32576 85.6628 9.20719 85.5442 9.06089 85.5442C8.91459 85.5442 8.79602 85.6628 8.79602 85.8091C8.79602 85.9554 8.91459 86.074 9.06089 86.074Z" fill="white"/>
<path d="M9.06089 92.134C9.20719 92.134 9.32576 92.0154 9.32576 91.8691C9.32576 91.7228 9.20719 91.6042 9.06089 91.6042C8.91459 91.6042 8.79602 91.7228 8.79602 91.8691C8.79602 92.0154 8.91459 92.134 9.06089 92.134Z" fill="white"/>
<path d="M9.17222 101.048C9.31852 101.048 9.43715 100.929 9.43715 100.783C9.43715 100.636 9.31852 100.518 9.17222 100.518C9.02592 100.518 8.90735 100.636 8.90735 100.783C8.90735 100.929 9.02592 101.048 9.17222 101.048Z" fill="white"/>
<path d="M18.704 101.313C18.8503 101.313 18.9688 101.194 18.9688 101.048C18.9688 100.901 18.8503 100.783 18.704 100.783C18.5577 100.783 18.4391 100.901 18.4391 101.048C18.4391 101.194 18.5577 101.313 18.704 101.313Z" fill="white"/>
<path d="M30.9867 101.313C31.133 101.313 31.2516 101.194 31.2516 101.048C31.2516 100.901 31.133 100.783 30.9867 100.783C30.8404 100.783 30.7218 100.901 30.7218 101.048C30.7218 101.194 30.8404 101.313 30.9867 101.313Z" fill="white"/>
<path d="M43.2508 101.313C43.3971 101.313 43.5158 101.194 43.5158 101.048C43.5158 100.901 43.3971 100.783 43.2508 100.783C43.1045 100.783 42.986 100.901 42.986 101.048C42.986 101.194 43.1045 101.313 43.2508 101.313Z" fill="white"/>
<path d="M55.1991 101.313C55.3454 101.313 55.464 101.194 55.464 101.048C55.464 100.901 55.3454 100.783 55.1991 100.783C55.0528 100.783 54.9342 100.901 54.9342 101.048C54.9342 101.194 55.0528 101.313 55.1991 101.313Z" fill="white"/>
<path d="M69.8427 55.3926C69.8427 55.5367 69.7264 55.6575 69.5777 55.6575C69.429 55.6575 69.3129 55.5413 69.3129 55.3926C69.3129 55.2439 69.429 55.1277 69.5777 55.1277C69.7264 55.1277 69.8427 55.2439 69.8427 55.3926Z" fill="white"/>
<path d="M69.8427 61.1182C69.8427 61.2622 69.7264 61.3831 69.5777 61.3831C69.429 61.3831 69.3129 61.2669 69.3129 61.1182C69.3129 60.9695 69.429 60.8533 69.5777 60.8533C69.7264 60.8533 69.8427 60.9695 69.8427 61.1182Z" fill="white"/>
<path d="M69.8427 67.2942C69.8427 67.4383 69.7264 67.5591 69.5777 67.5591C69.429 67.5591 69.3129 67.4429 69.3129 67.2942C69.3129 67.1455 69.429 67.0293 69.5777 67.0293C69.7264 67.0293 69.8427 67.1455 69.8427 67.2942Z" fill="white"/>
<path d="M69.8427 73.3823C69.8427 73.5264 69.7264 73.6472 69.5777 73.6472C69.429 73.6472 69.3129 73.531 69.3129 73.3823C69.3129 73.2336 69.429 73.1174 69.5777 73.1174C69.7264 73.1174 69.8427 73.2336 69.8427 73.3823Z" fill="white"/>
<path d="M69.8427 79.3076C69.8427 79.4517 69.7264 79.5725 69.5777 79.5725C69.429 79.5725 69.3129 79.4563 69.3129 79.3076C69.3129 79.1589 69.429 79.0427 69.5777 79.0427C69.7264 79.0427 69.8427 79.1589 69.8427 79.3076Z" fill="white"/>
<path d="M69.8427 85.1538C69.8427 85.2979 69.7264 85.4187 69.5777 85.4187C69.429 85.4187 69.3129 85.3025 69.3129 85.1538C69.3129 85.0051 69.429 84.8889 69.5777 84.8889C69.7264 84.8889 69.8427 85.0051 69.8427 85.1538Z" fill="white"/>
<path d="M69.8427 91.1162C69.8427 91.2603 69.7264 91.3811 69.5777 91.3811C69.429 91.3811 69.3129 91.2649 69.3129 91.1162C69.3129 90.9675 69.429 90.8513 69.5777 90.8513C69.7264 90.8513 69.8427 90.9675 69.8427 91.1162Z" fill="white"/>
<path d="M69.8427 100.211C69.8427 100.355 69.7264 100.476 69.5777 100.476C69.429 100.476 69.3129 100.36 69.3129 100.211C69.3129 100.062 69.429 99.9463 69.5777 99.9463C69.7264 99.9463 69.8427 100.062 69.8427 100.211Z" fill="white"/>
</svg>
