<svg width="78" height="109" viewBox="0 0 78 109" fill="none" xmlns="http://www.w3.org/2000/svg">
<path d="M74.6076 0.356201H2.81628C1.2917 0.356201 0.0557861 1.59212 0.0557861 3.11669V105.831C0.0557861 107.356 1.2917 108.592 2.81628 108.592H74.6076C76.1322 108.592 77.3681 107.356 77.3681 105.831V3.11669C77.3681 1.59212 76.1322 0.356201 74.6076 0.356201Z" fill="white"/>
<path d="M74.6029 108.643H2.81626C1.26406 108.643 0 107.379 0 105.827V3.11215C0 1.55996 1.26406 0.295898 2.81626 0.295898H74.6029C76.1551 0.295898 77.4192 1.55996 77.4192 3.11215V105.827C77.4192 107.379 76.1551 108.643 74.6029 108.643ZM2.81626 0.407429C1.32448 0.407429 0.111535 1.62037 0.111535 3.11215V105.827C0.111535 107.318 1.32448 108.531 2.81626 108.531H74.6029C76.0947 108.531 77.3077 107.318 77.3077 105.827V3.11215C77.3077 1.62037 76.0947 0.407429 74.6029 0.407429H2.81626Z" fill="#65A7DD"/>
<path d="M69.3375 8.88868C69.3375 9.03274 69.2214 9.15358 69.0726 9.15358C68.9239 9.15358 68.8077 9.03739 68.8077 8.88868C68.8077 8.73996 68.9239 8.62378 69.0726 8.62378C69.2214 8.62378 69.3375 8.73996 69.3375 8.88868Z" fill="white"/>
<path d="M56.7295 8.88868C56.7295 9.03274 56.6133 9.15358 56.4646 9.15358C56.3159 9.15358 56.1997 9.03739 56.1997 8.88868C56.1997 8.73996 56.3159 8.62378 56.4646 8.62378C56.6133 8.62378 56.7295 8.73996 56.7295 8.88868Z" fill="white"/>
<path d="M45.1298 8.88868C45.1298 9.03274 45.0136 9.15358 44.8649 9.15358C44.7162 9.15358 44.6 9.03739 44.6 8.88868C44.6 8.73996 44.7162 8.62378 44.8649 8.62378C45.0136 8.62378 45.1298 8.73996 45.1298 8.88868Z" fill="white"/>
<path d="M33.4884 8.97242C33.4884 9.11648 33.3722 9.23732 33.2235 9.23732C33.0748 9.23732 32.9586 9.12113 32.9586 8.97242C32.9586 8.82371 33.0748 8.70752 33.2235 8.70752C33.3722 8.70752 33.4884 8.82371 33.4884 8.97242Z" fill="white"/>
<path d="M69.3375 18.7131C69.3375 18.8572 69.2214 18.978 69.0726 18.978C68.9239 18.978 68.8077 18.8618 68.8077 18.7131C68.8077 18.5644 68.9239 18.4482 69.0726 18.4482C69.2214 18.4482 69.3375 18.5644 69.3375 18.7131Z" fill="white"/>
<path d="M69.3375 27.6777C69.3375 27.8218 69.2214 27.9426 69.0726 27.9426C68.9239 27.9426 68.8077 27.8265 68.8077 27.6777C68.8077 27.529 68.9239 27.4128 69.0726 27.4128C69.2214 27.4128 69.3375 27.529 69.3375 27.6777Z" fill="white"/>
<path d="M69.3375 37.0745C69.3375 37.2185 69.2214 37.3394 69.0726 37.3394C68.9239 37.3394 68.8077 37.2232 68.8077 37.0745C68.8077 36.9258 68.9239 36.8096 69.0726 36.8096C69.2214 36.8096 69.3375 36.9258 69.3375 37.0745Z" fill="white"/>
<path d="M69.3375 43.0137C69.3375 43.1577 69.2214 43.2786 69.0726 43.2786C68.9239 43.2786 68.8077 43.1624 68.8077 43.0137C68.8077 42.865 68.9239 42.7488 69.0726 42.7488C69.2214 42.7488 69.3375 42.865 69.3375 43.0137Z" fill="white"/>
<path d="M69.3375 48.9763C69.3375 49.1204 69.2214 49.2412 69.0726 49.2412C68.9239 49.2412 68.8077 49.125 68.8077 48.9763C68.8077 48.8276 68.9239 48.7114 69.0726 48.7114C69.2214 48.7114 69.3375 48.8276 69.3375 48.9763Z" fill="white"/>
<path d="M8.78333 9.15357C8.78333 9.29764 8.66715 9.41846 8.51844 9.41846C8.36972 9.41846 8.25354 9.30228 8.25354 9.15357C8.25354 9.00486 8.36972 8.88867 8.51844 8.88867C8.66715 8.88867 8.78333 9.00486 8.78333 9.15357Z" fill="white"/>
<path d="M21.5355 8.97242C21.5355 9.11648 21.4193 9.23732 21.2706 9.23732C21.1219 9.23732 21.0057 9.12113 21.0057 8.97242C21.0057 8.82371 21.1219 8.70752 21.2706 8.70752C21.4193 8.70752 21.5355 8.82371 21.5355 8.97242Z" fill="white"/>
<path d="M8.78333 18.5039C8.78333 18.648 8.66715 18.7688 8.51844 18.7688C8.36972 18.7688 8.25354 18.6526 8.25354 18.5039C8.25354 18.3552 8.36972 18.239 8.51844 18.239C8.66715 18.239 8.78333 18.3552 8.78333 18.5039Z" fill="white"/>
<path d="M8.78333 27.7427C8.78333 27.8867 8.66715 28.0076 8.51844 28.0076C8.36972 28.0076 8.25354 27.8914 8.25354 27.7427C8.25354 27.594 8.36972 27.4778 8.51844 27.4778C8.66715 27.4778 8.78333 27.594 8.78333 27.7427Z" fill="white"/>
<path d="M8.78333 37.0095C8.78333 37.1536 8.66715 37.2744 8.51844 37.2744C8.36972 37.2744 8.25354 37.1582 8.25354 37.0095C8.25354 36.8608 8.36972 36.7446 8.51844 36.7446C8.66715 36.7446 8.78333 36.8608 8.78333 37.0095Z" fill="white"/>
<path d="M8.78333 43.0137C8.78333 43.1577 8.66715 43.2786 8.51844 43.2786C8.36972 43.2786 8.25354 43.1624 8.25354 43.0137C8.25354 42.865 8.36972 42.7488 8.51844 42.7488C8.66715 42.7488 8.78333 42.865 8.78333 43.0137Z" fill="white"/>
<path d="M8.78333 49.2412C8.78333 49.3853 8.66715 49.5061 8.51844 49.5061C8.36972 49.5061 8.25354 49.3899 8.25354 49.2412C8.25354 49.0925 8.36972 48.9763 8.51844 48.9763C8.66715 48.9763 8.78333 49.0925 8.78333 49.2412Z" fill="white"/>
<path d="M8.78333 55.25C8.78333 55.3941 8.66715 55.5149 8.51844 55.5149C8.36972 55.5149 8.25354 55.3987 8.25354 55.25C8.25354 55.1013 8.36972 54.9851 8.51844 54.9851C8.66715 54.9851 8.78333 55.1013 8.78333 55.25Z" fill="white"/>
<path d="M8.78333 61.259C8.78333 61.4031 8.66715 61.5239 8.51844 61.5239C8.36972 61.5239 8.25354 61.4078 8.25354 61.259C8.25354 61.1103 8.36972 60.9941 8.51844 60.9941C8.66715 60.9941 8.78333 61.1103 8.78333 61.259Z" fill="white"/>
<path d="M8.78333 67.4863C8.78333 67.6304 8.66715 67.7512 8.51844 67.7512C8.36972 67.7512 8.25354 67.635 8.25354 67.4863C8.25354 67.3376 8.36972 67.2214 8.51844 67.2214C8.66715 67.2214 8.78333 67.3376 8.78333 67.4863Z" fill="white"/>
<path d="M8.78333 73.7278C8.78333 73.8718 8.66715 73.9927 8.51844 73.9927C8.36972 73.9927 8.25354 73.8765 8.25354 73.7278C8.25354 73.5791 8.36972 73.4629 8.51844 73.4629C8.66715 73.4629 8.78333 73.5791 8.78333 73.7278Z" fill="white"/>
<path d="M8.78333 79.3044C8.78333 79.4485 8.66715 79.5693 8.51844 79.5693C8.36972 79.5693 8.25354 79.4531 8.25354 79.3044C8.25354 79.1557 8.36972 79.0396 8.51844 79.0396C8.66715 79.0396 8.78333 79.1557 8.78333 79.3044Z" fill="white"/>
<path d="M8.78333 85.5271C8.78333 85.6712 8.66715 85.792 8.51844 85.792C8.36972 85.792 8.25354 85.6758 8.25354 85.5271C8.25354 85.3784 8.36972 85.2622 8.51844 85.2622C8.66715 85.2622 8.78333 85.3784 8.78333 85.5271Z" fill="white"/>
<path d="M8.78333 91.5918C8.78333 91.7359 8.66715 91.8567 8.51844 91.8567C8.36972 91.8567 8.25354 91.7405 8.25354 91.5918C8.25354 91.4431 8.36972 91.3269 8.51844 91.3269C8.66715 91.3269 8.78333 91.4431 8.78333 91.5918Z" fill="white"/>
<path d="M8.89026 100.51C8.89026 100.654 8.77408 100.775 8.62537 100.775C8.47666 100.775 8.36047 100.659 8.36047 100.51C8.36047 100.361 8.47666 100.245 8.62537 100.245C8.77408 100.245 8.89026 100.361 8.89026 100.51Z" fill="white"/>
<path d="M18.4312 100.77C18.4312 100.914 18.315 101.035 18.1663 101.035C18.0175 101.035 17.9014 100.919 17.9014 100.77C17.9014 100.622 18.0175 100.505 18.1663 100.505C18.315 100.505 18.4312 100.622 18.4312 100.77Z" fill="white"/>
<path d="M30.7232 100.77C30.7232 100.914 30.607 101.035 30.4583 101.035C30.3095 101.035 30.1934 100.919 30.1934 100.77C30.1934 100.622 30.3095 100.505 30.4583 100.505C30.607 100.505 30.7232 100.622 30.7232 100.77Z" fill="white"/>
<path d="M42.9921 100.77C42.9921 100.914 42.8759 101.035 42.7272 101.035C42.5785 101.035 42.4623 100.919 42.4623 100.77C42.4623 100.622 42.5785 100.505 42.7272 100.505C42.8759 100.505 42.9921 100.622 42.9921 100.77Z" fill="white"/>
<path d="M54.9448 100.77C54.9448 100.914 54.8287 101.035 54.6799 101.035C54.5312 101.035 54.415 100.919 54.415 100.77C54.415 100.622 54.5312 100.505 54.6799 100.505C54.8287 100.505 54.9448 100.622 54.9448 100.77Z" fill="white"/>
<path d="M69.3375 55.106C69.3375 55.25 69.2214 55.3708 69.0726 55.3708C68.9239 55.3708 68.8077 55.2547 68.8077 55.106C68.8077 54.9573 68.9239 54.8411 69.0726 54.8411C69.2214 54.8411 69.3375 54.9573 69.3375 55.106Z" fill="white"/>
<path d="M69.3375 60.8362C69.3375 60.9803 69.2214 61.1011 69.0726 61.1011C68.9239 61.1011 68.8077 60.9849 68.8077 60.8362C68.8077 60.6875 68.9239 60.5713 69.0726 60.5713C69.2214 60.5713 69.3375 60.6875 69.3375 60.8362Z" fill="white"/>
<path d="M69.3375 67.0125C69.3375 67.1565 69.2214 67.2773 69.0726 67.2773C68.9239 67.2773 68.8077 67.1612 68.8077 67.0125C68.8077 66.8637 68.9239 66.7476 69.0726 66.7476C69.2214 66.7476 69.3375 66.8637 69.3375 67.0125Z" fill="white"/>
<path d="M69.3375 73.1003C69.3375 73.2444 69.2214 73.3652 69.0726 73.3652C68.9239 73.3652 68.8077 73.249 68.8077 73.1003C68.8077 72.9516 68.9239 72.8354 69.0726 72.8354C69.2214 72.8354 69.3375 72.9516 69.3375 73.1003Z" fill="white"/>
<path d="M69.3375 79.0303C69.3375 79.1743 69.2214 79.2952 69.0726 79.2952C68.9239 79.2952 68.8077 79.179 68.8077 79.0303C68.8077 78.8816 68.9239 78.7654 69.0726 78.7654C69.2214 78.7654 69.3375 78.8816 69.3375 79.0303Z" fill="white"/>
<path d="M69.3375 84.8718C69.3375 85.0159 69.2214 85.1367 69.0726 85.1367C68.9239 85.1367 68.8077 85.0205 68.8077 84.8718C68.8077 84.7231 68.9239 84.6069 69.0726 84.6069C69.2214 84.6069 69.3375 84.7231 69.3375 84.8718Z" fill="white"/>
<path d="M69.3375 90.8391C69.3375 90.9832 69.2214 91.104 69.0726 91.104C68.9239 91.104 68.8077 90.9878 68.8077 90.8391C68.8077 90.6904 68.9239 90.5742 69.0726 90.5742C69.2214 90.5742 69.3375 90.6904 69.3375 90.8391Z" fill="white"/>
<path d="M69.3375 99.9338C69.3375 100.078 69.2214 100.199 69.0726 100.199C68.9239 100.199 68.8077 100.083 68.8077 99.9338C68.8077 99.7851 68.9239 99.6689 69.0726 99.6689C69.2214 99.6689 69.3375 99.7851 69.3375 99.9338Z" fill="white"/>
<path d="M10.7493 14.8745C10.252 14.3307 9.67112 13.8009 9.42946 13.5221C9.24822 13.313 9.11809 13.155 9.06697 13.0899V13.0574C9.06697 13.0574 9.06232 13.062 9.05303 13.076C9.04373 13.0667 9.03909 13.0574 9.03909 13.0574V13.0899C8.98797 13.155 8.85784 13.313 8.6766 13.5221C8.43494 13.8009 7.85403 14.3307 7.35677 14.8745C6.85951 15.4182 6.81768 15.9619 6.91063 16.4127C7.00357 16.8635 7.4776 17.2864 8.21652 17.1935C8.44888 17.1656 8.62083 17.054 8.74166 16.9146C8.65801 17.5513 8.31411 17.8859 8.31411 17.8859H9.75012C9.48987 17.5931 9.39693 17.1795 9.35975 16.9193C9.48523 17.0587 9.65253 17.1656 9.88489 17.1935C10.6238 17.2864 11.0978 16.8635 11.1908 16.4127C11.2837 15.9619 11.2465 15.4182 10.7446 14.8745H10.7493Z" fill="#151515"/>
<path d="M48.1134 51.114C45.4041 48.163 42.2579 45.2817 40.9427 43.7713C39.9528 42.6374 39.2557 41.773 38.9676 41.4151V41.2292C38.9676 41.2292 38.9397 41.2618 38.8932 41.3222C38.8468 41.2618 38.8189 41.2292 38.8189 41.2292V41.4151C38.5307 41.773 37.829 42.6374 36.8438 43.7713C35.5286 45.2817 32.3824 48.163 29.673 51.114C26.9636 54.0651 26.7452 57.0207 27.2564 59.4652C27.7676 61.9143 30.3283 64.2194 34.3528 63.7128C35.6169 63.5548 36.5417 62.9507 37.2156 62.1932C36.7648 65.6601 34.8919 67.4632 34.8919 67.4632H42.6947C41.268 65.8738 40.7661 63.6152 40.5848 62.2118C41.2587 62.96 42.1742 63.5548 43.429 63.7128C47.4535 64.2147 50.0142 61.9143 50.5254 59.4652C51.0366 57.0161 50.8182 54.0651 48.1088 51.114H48.1134Z" fill="#151515"/>
<path d="M6.3064 11.1891H6.64101C6.9942 11.1891 7.25445 10.9707 7.41711 10.5292L9.35503 5.05469H9.5781L11.5346 10.7894C11.595 10.9382 11.6647 11.045 11.753 11.1008C11.8367 11.1566 11.9436 11.1845 12.0783 11.1845H12.5849V11.4726H9.78722V11.1845H10.3821C10.4704 11.1845 10.5494 11.1612 10.6098 11.1148C10.6702 11.0683 10.6981 11.0172 10.6981 10.9568C10.6981 10.8777 10.6842 10.8127 10.6609 10.7569L10.238 9.55791H8.12814L7.90972 10.1621C7.82607 10.4037 7.78424 10.5757 7.78424 10.6872C7.78424 10.8173 7.81677 10.9335 7.88184 11.0357C7.9469 11.1333 8.06308 11.1845 8.22574 11.1845H8.77412V11.4726H6.30176V11.1845L6.3064 11.1891ZM8.22574 9.27907H10.1358L9.19702 6.52787L8.22109 9.27907H8.22574Z" fill="black"/>
<path d="M66.0055 95.2539H68.4779V95.542H67.9295C67.7668 95.542 67.6506 95.5932 67.5856 95.6908C67.5205 95.7884 67.488 95.9045 67.488 96.0393C67.488 96.1462 67.5298 96.3228 67.6135 96.5598L67.8319 97.164H69.9417L70.3647 95.965C70.3879 95.9092 70.4018 95.8441 70.4018 95.7651C70.4018 95.7047 70.3739 95.6536 70.3135 95.6071C70.2531 95.5606 70.1788 95.5374 70.0858 95.5374H69.491V95.2493H72.2886V95.5374H71.7821C71.6473 95.5374 71.5404 95.5653 71.4568 95.6257C71.3731 95.6815 71.2988 95.7884 71.2383 95.9371L69.2818 101.672H69.0588L67.1208 96.1973C66.9582 95.7605 66.6979 95.5374 66.3447 95.5374H66.0101V95.2493L66.0055 95.2539ZM68.9008 100.208L69.8395 97.4567H67.9295L68.9054 100.208H68.9008Z" fill="black"/>
<path d="M71.3081 92.0891C70.8109 92.6328 70.23 93.1626 69.9883 93.4414C69.8071 93.6506 69.6769 93.8086 69.6258 93.8736V93.9062C69.6258 93.9062 69.6212 93.9015 69.6119 93.8876C69.6026 93.8969 69.5979 93.9062 69.5979 93.9062V93.8736C69.5468 93.8086 69.4167 93.6506 69.2354 93.4414C68.9938 93.1626 68.4129 92.6328 67.9156 92.0891C67.4183 91.5454 67.3765 91.0016 67.4695 90.5508C67.5624 90.1 68.0364 89.6771 68.7754 89.7701C69.0077 89.798 69.1797 89.9095 69.3005 90.0489C69.2168 89.4122 68.8729 89.0776 68.8729 89.0776H70.309C70.0487 89.3704 69.9558 89.784 69.9186 90.0443C70.0441 89.9049 70.2114 89.798 70.4437 89.7701C71.1827 89.6771 71.6567 90.1 71.7496 90.5508C71.8426 91.0016 71.8054 91.5454 71.3035 92.0891H71.3081Z" fill="#151515"/>
</svg>
