<svg width="79" height="109" viewBox="0 0 79 109" fill="none" xmlns="http://www.w3.org/2000/svg">
<path d="M3.61288 0.356201H75.3856C76.91 0.356201 78.1461 1.59238 78.1461 3.11669V105.831C78.1461 107.355 76.91 108.592 75.3856 108.592H3.61288C2.08857 108.592 0.852417 107.355 0.852417 105.831V3.11669C0.852417 1.59238 2.08857 0.356201 3.61288 0.356201Z" fill="white"/>
<path d="M75.3902 108.643H3.61748C2.06529 108.643 0.805908 107.379 0.805908 105.827V3.11215C0.805908 1.55996 2.06994 0.295898 3.61748 0.295898H75.3902C76.9424 0.295898 78.2018 1.55996 78.2018 3.11215V105.827C78.2018 107.379 76.9378 108.643 75.3902 108.643ZM3.61748 0.407429C2.1257 0.407429 0.912787 1.62037 0.912787 3.11215V105.827C0.912787 107.318 2.1257 108.531 3.61748 108.531H75.3902C76.882 108.531 78.0949 107.318 78.0949 105.827V3.11215C78.0949 1.62037 76.882 0.407429 75.3902 0.407429H3.61748Z" fill="#65A7DD"/>
<path d="M7.10327 12.4672H7.96766C8.05596 12.4672 8.12104 12.4486 8.16287 12.4114C8.20005 12.3743 8.22328 12.3138 8.22328 12.2302V7.80133H7.10327V7.47601H7.60056C7.92587 7.47601 8.1861 7.38771 8.39058 7.21576C8.59041 7.03917 8.71592 6.83005 8.76704 6.58374H9.05517V12.2302C9.05517 12.3138 9.07376 12.3743 9.11558 12.4114C9.15276 12.4486 9.21779 12.4672 9.31073 12.4672H10.1751V12.7553H7.10792V12.4672H7.10327Z" fill="black"/>
<path d="M12.7309 12.4393C12.401 12.1326 12.1454 11.7329 11.9595 11.2357C11.7783 10.7384 11.6853 10.2179 11.6853 9.66955C11.6853 9.12117 11.7783 8.60068 11.9595 8.10342C12.1408 7.60616 12.401 7.2065 12.7309 6.89977C13.0609 6.59305 13.442 6.4397 13.8649 6.4397C14.2878 6.4397 14.6642 6.59305 14.9988 6.89977C15.3334 7.2065 15.589 7.60616 15.7749 8.10342C15.9562 8.60068 16.0491 9.12117 16.0491 9.66955C16.0491 10.2179 15.9562 10.7384 15.7749 11.2357C15.5937 11.7329 15.3334 12.1326 14.9988 12.4393C14.6642 12.7461 14.2878 12.8994 13.8649 12.8994C13.442 12.8994 13.0609 12.7461 12.7309 12.4393ZM14.8548 11.7608C15.0128 11.1939 15.0918 10.4968 15.0918 9.66955C15.0918 8.84234 15.0128 8.1406 14.8548 7.57827C14.6968 7.01131 14.3668 6.73246 13.8696 6.73246C13.3723 6.73246 13.0423 7.0113 12.8843 7.57362C12.7263 8.13594 12.6473 8.83304 12.6473 9.66955C12.6473 10.5061 12.7263 11.2032 12.8843 11.7655C13.0423 12.3278 13.3723 12.6066 13.8696 12.6066C14.3668 12.6066 14.6968 12.3232 14.8548 11.7608Z" fill="black"/>
<path d="M71.6075 97.7403H70.7431C70.6548 97.7403 70.5897 97.7589 70.5479 97.796C70.5107 97.8332 70.4875 97.8936 70.4875 97.9773V102.406H71.6075V102.731H71.1102C70.7849 102.731 70.5247 102.82 70.3202 102.992C70.1204 103.168 69.9949 103.377 69.9437 103.624H69.6556V97.9773C69.6556 97.8936 69.637 97.8332 69.5952 97.796C69.558 97.7589 69.493 97.7403 69.4 97.7403H68.5356V97.4521H71.6028V97.7403H71.6075Z" fill="black"/>
<path d="M65.9844 97.7682C66.3144 98.0749 66.5699 98.4746 66.7558 98.9718C66.9371 99.4691 67.0301 99.9896 67.0301 100.538C67.0301 101.086 66.9371 101.607 66.7558 102.104C66.5746 102.601 66.3144 103.001 65.9844 103.308C65.6545 103.614 65.2734 103.768 64.8505 103.768C64.4276 103.768 64.0512 103.614 63.7166 103.308C63.3819 103.001 63.1263 102.601 62.9404 102.104C62.7592 101.607 62.6663 101.086 62.6663 100.538C62.6663 99.9896 62.7592 99.4691 62.9404 98.9718C63.1217 98.4746 63.3819 98.0749 63.7166 97.7682C64.0512 97.4615 64.4276 97.3081 64.8505 97.3081C65.2734 97.3081 65.6545 97.4615 65.9844 97.7682ZM63.8606 98.4467C63.7026 99.0137 63.6236 99.7107 63.6236 100.538C63.6236 101.365 63.7026 102.067 63.8606 102.629C64.0186 103.196 64.3486 103.475 64.8458 103.475C65.3431 103.475 65.673 103.196 65.831 102.634C65.989 102.072 66.0681 101.374 66.0681 100.538C66.0681 99.7015 65.989 99.0044 65.831 98.442C65.673 97.8797 65.3431 97.6009 64.8458 97.6009C64.3486 97.6009 64.0186 97.8844 63.8606 98.4467Z" fill="black"/>
<path d="M44.9972 31.8139C43.3102 29.9736 41.3491 28.1751 40.5265 27.2317C39.9084 26.5253 39.4762 25.9862 39.295 25.7632V25.647C39.295 25.647 39.281 25.6656 39.2485 25.7027C39.2206 25.6656 39.202 25.647 39.202 25.647V25.7632C39.0208 25.9862 38.5839 26.5253 37.9705 27.2317C37.1479 28.1751 35.1868 29.9689 33.4998 31.8139C31.8128 33.6542 31.6734 35.4946 31.9941 37.0235C32.3147 38.5525 33.9088 39.9885 36.4183 39.6725C37.2084 39.5749 37.78 39.1938 38.2029 38.7245C37.9194 40.8854 36.7529 42.0101 36.7529 42.0101H41.6186C40.731 41.0156 40.415 39.6121 40.3034 38.7384C40.7217 39.2031 41.2933 39.5749 42.074 39.6725C44.5836 39.9885 46.1822 38.5479 46.4983 37.0235C46.8189 35.4946 46.6795 33.6542 44.9925 31.8139H44.9972Z" fill="#151515"/>
<path d="M30.3444 20.0842C28.6574 18.2439 26.6962 16.4454 25.8737 15.502C25.2556 14.7956 24.8234 14.2565 24.6421 14.0334V13.9172C24.6421 13.9172 24.6282 13.9358 24.5957 13.973C24.5678 13.9358 24.5492 13.9172 24.5492 13.9172V14.0334C24.368 14.2565 23.9311 14.7956 23.3177 15.502C22.4951 16.4454 20.5339 18.2392 18.847 20.0842C17.16 21.9245 17.0206 23.7648 17.3413 25.2938C17.6619 26.8227 19.2559 28.2588 21.7655 27.9428C22.5555 27.8452 23.1271 27.4687 23.55 26.9947C23.2665 29.1557 22.1001 30.2803 22.1001 30.2803H26.9658C26.0781 29.2858 25.7621 27.8823 25.6506 27.0086C26.0689 27.4734 26.6405 27.8452 27.4258 27.9428C29.9354 28.2588 31.5341 26.8181 31.8501 25.2938C32.1661 23.7695 32.0313 21.9245 30.3444 20.0842Z" fill="#151515"/>
<path d="M30.3444 43.5854C28.6574 41.7451 26.6962 39.9466 25.8737 39.0032C25.2556 38.2968 24.8234 37.7577 24.6421 37.5346V37.4185C24.6421 37.4185 24.6282 37.4371 24.5957 37.4742C24.5678 37.4371 24.5492 37.4185 24.5492 37.4185V37.5346C24.368 37.7577 23.9311 38.2968 23.3177 39.0032C22.4951 39.9466 20.5339 41.7404 18.847 43.5854C17.16 45.4257 17.0206 47.2661 17.3413 48.795C17.6619 50.324 19.2559 51.76 21.7655 51.444C22.5555 51.3464 23.1271 50.9653 23.55 50.4959C23.2665 52.6569 22.1001 53.7816 22.1001 53.7816H26.9658C26.0781 52.7871 25.7621 51.3836 25.6506 50.5099C26.0689 50.9746 26.6405 51.3464 27.4258 51.444C29.9354 51.76 31.5341 50.3193 31.8501 48.795C32.1707 47.2661 32.0313 45.4257 30.3444 43.5854Z" fill="#151515"/>
<path d="M30.3444 94.6127C28.6574 96.453 26.6962 98.2515 25.8737 99.1949C25.2556 99.9013 24.8234 100.44 24.6421 100.663V100.78C24.6421 100.78 24.6282 100.761 24.5957 100.724C24.5678 100.761 24.5492 100.78 24.5492 100.78V100.663C24.368 100.44 23.9311 99.9013 23.3177 99.1949C22.4951 98.2515 20.5339 96.4576 18.847 94.6127C17.16 92.7723 17.0206 90.932 17.3413 89.4031C17.6619 87.8741 19.2559 86.4381 21.7655 86.7541C22.5555 86.8517 23.1271 87.2328 23.55 87.7021C23.2665 85.5412 22.1001 84.4165 22.1001 84.4165H26.9658C26.0781 85.411 25.7621 86.8145 25.6506 87.6882C26.0689 87.2235 26.6405 86.8517 27.4258 86.7541C29.9354 86.4381 31.5341 87.8787 31.8501 89.4031C32.1707 90.932 32.0313 92.7723 30.3444 94.6127Z" fill="#151515"/>
<path d="M60.073 20.0842C58.386 18.2439 56.4249 16.4454 55.6023 15.502C54.9842 14.7956 54.5521 14.2565 54.3708 14.0334V13.9172C54.3708 13.9172 54.3568 13.9358 54.3243 13.973C54.2964 13.9358 54.2778 13.9172 54.2778 13.9172V14.0334C54.0966 14.2565 53.6597 14.7956 53.0463 15.502C52.2237 16.4454 50.2626 18.2392 48.5756 20.0842C46.8886 21.9245 46.7492 23.7648 47.0699 25.2938C47.3906 26.8227 48.9846 28.2588 51.4941 27.9428C52.2842 27.8452 52.8558 27.4687 53.2787 26.9947C52.9952 29.1557 51.8287 30.2803 51.8287 30.2803H56.6945C55.8068 29.2858 55.4908 27.8823 55.3792 27.0086C55.7975 27.4734 56.3691 27.8452 57.1499 27.9428C59.6594 28.2588 61.2581 26.8181 61.5741 25.2938C61.8901 23.7695 61.7553 21.9245 60.0683 20.0842H60.073Z" fill="#151515"/>
<path d="M60.073 43.5854C58.386 41.7451 56.4249 39.9466 55.6023 39.0032C54.9842 38.2968 54.5521 37.7577 54.3708 37.5346V37.4185C54.3708 37.4185 54.3568 37.4371 54.3243 37.4742C54.2964 37.4371 54.2778 37.4185 54.2778 37.4185V37.5346C54.0966 37.7577 53.6597 38.2968 53.0463 39.0032C52.2237 39.9466 50.2626 41.7404 48.5756 43.5854C46.8886 45.4304 46.7492 47.2661 47.0699 48.795C47.3906 50.324 48.9846 51.76 51.4941 51.444C52.2842 51.3464 52.8558 50.9653 53.2787 50.4959C52.9952 52.6569 51.8287 53.7816 51.8287 53.7816H56.6945C55.8068 52.7871 55.4908 51.3836 55.3792 50.5099C55.7975 50.9746 56.3691 51.3464 57.1499 51.444C59.6594 51.76 61.2581 50.3193 61.5741 48.795C61.8948 47.2661 61.7553 45.4257 60.0683 43.5854H60.073Z" fill="#151515"/>
<path d="M60.073 94.6127C58.386 96.453 56.4249 98.2515 55.6023 99.1949C54.9842 99.9013 54.5521 100.44 54.3708 100.663V100.78C54.3708 100.78 54.3568 100.761 54.3243 100.724C54.2964 100.761 54.2778 100.78 54.2778 100.78V100.663C54.0966 100.44 53.6597 99.9013 53.0463 99.1949C52.2237 98.2515 50.2626 96.4576 48.5756 94.6127C46.8886 92.7677 46.7492 90.932 47.0699 89.4031C47.3906 87.8741 48.9846 86.4381 51.4941 86.7541C52.2842 86.8517 52.8558 87.2328 53.2787 87.7021C52.9952 85.5412 51.8287 84.4165 51.8287 84.4165H56.6945C55.8068 85.411 55.4908 86.8145 55.3792 87.6882C55.7975 87.2235 56.3691 86.8517 57.1499 86.7541C59.6594 86.4381 61.2581 87.8787 61.5741 89.4031C61.8948 90.932 61.7553 92.7723 60.0683 94.6127H60.073Z" fill="#151515"/>
<path d="M30.3444 71.1161C28.6574 72.9564 26.6962 74.7549 25.8737 75.6983C25.2556 76.4047 24.8234 76.9438 24.6421 77.1668V77.283C24.6421 77.283 24.6282 77.2644 24.5957 77.2273C24.5678 77.2644 24.5492 77.283 24.5492 77.283V77.1668C24.368 76.9438 23.9311 76.4047 23.3177 75.6983C22.4951 74.7549 20.5339 72.961 18.847 71.1161C17.16 69.2757 17.0206 67.4354 17.3413 65.9065C17.6619 64.3775 19.2559 62.9415 21.7655 63.2575C22.5555 63.3551 23.1271 63.7362 23.55 64.2056C23.2665 62.0446 22.1001 60.9199 22.1001 60.9199H26.9658C26.0781 61.9144 25.7621 63.3179 25.6506 64.1916C26.0689 63.7269 26.6405 63.3551 27.4258 63.2575C29.9354 62.9415 31.5341 64.3822 31.8501 65.9065C32.1707 67.4354 32.0313 69.2757 30.3444 71.1161Z" fill="#151515"/>
<path d="M60.073 71.1161C58.386 72.9564 56.4249 74.7549 55.6023 75.6983C54.9842 76.4047 54.5521 76.9438 54.3708 77.1668V77.283C54.3708 77.283 54.3568 77.2644 54.3243 77.2273C54.2964 77.2644 54.2778 77.283 54.2778 77.283V77.1668C54.0966 76.9438 53.6597 76.4047 53.0463 75.6983C52.2237 74.7549 50.2626 72.961 48.5756 71.1161C46.8886 69.2711 46.7492 67.4354 47.0699 65.9065C47.3906 64.3775 48.9846 62.9415 51.4941 63.2575C52.2842 63.3551 52.8558 63.7362 53.2787 64.2056C52.9952 62.0446 51.8287 60.9199 51.8287 60.9199H56.6945C55.8068 61.9144 55.4908 63.3179 55.3792 64.1916C55.7975 63.7269 56.3691 63.3551 57.1499 63.2575C59.6594 62.9415 61.2581 64.3822 61.5741 65.9065C61.8948 67.4354 61.7553 69.2757 60.0683 71.1161H60.073Z" fill="#151515"/>
<path d="M44.9972 82.2323C43.3102 84.0726 41.3491 85.8711 40.5265 86.8145C39.9084 87.5209 39.4762 88.06 39.295 88.2831V88.3992C39.295 88.3992 39.281 88.3806 39.2485 88.3435C39.2206 88.3806 39.202 88.3992 39.202 88.3992V88.2831C39.0208 88.06 38.5839 87.5209 37.9705 86.8145C37.1479 85.8711 35.1868 84.0773 33.4998 82.2323C31.8128 80.392 31.6734 78.5516 31.9941 77.0227C32.3147 75.4937 33.9088 74.0577 36.4183 74.3737C37.2084 74.4713 37.78 74.8524 38.2029 75.3218C37.9194 73.1608 36.7529 72.0361 36.7529 72.0361H41.6186C40.731 73.0307 40.415 74.4341 40.3034 75.3078C40.7217 74.8431 41.2933 74.4713 42.074 74.3737C44.5836 74.0577 46.1822 75.4984 46.4983 77.0227C46.8189 78.5516 46.6795 80.392 44.9925 82.2323H44.9972Z" fill="#151515"/>
<path d="M12.7311 16.4406C12.2338 15.8969 11.6529 15.3671 11.4113 15.0883C11.23 14.8791 11.0999 14.7211 11.0488 14.6561V14.6235C11.0488 14.6235 11.0442 14.6282 11.0349 14.6421C11.0256 14.6328 11.0209 14.6235 11.0209 14.6235V14.6561C10.9698 14.7211 10.8397 14.8791 10.6584 15.0883C10.4168 15.3671 9.83587 15.8969 9.33861 16.4406C8.84135 16.9844 8.79949 17.5281 8.89243 17.9789C8.98538 18.4297 9.45943 18.8526 10.1983 18.7596C10.4307 18.7317 10.6027 18.6202 10.7235 18.4808C10.6398 19.1175 10.2959 19.4521 10.2959 19.4521H11.732C11.4717 19.1593 11.3787 18.7457 11.3416 18.4854C11.467 18.6249 11.6343 18.7317 11.8667 18.7596C12.6056 18.8526 13.0797 18.4297 13.1726 17.9789C13.2656 17.5281 13.2284 16.9844 12.7264 16.4406H12.7311Z" fill="#151515"/>
<path d="M68.9865 93.6506C68.4892 94.1943 67.9083 94.7241 67.6667 95.003C67.4854 95.2121 67.3553 95.3701 67.3042 95.4352V95.4677C67.3042 95.4677 67.2995 95.463 67.2902 95.4491C67.2809 95.4584 67.2763 95.4677 67.2763 95.4677V95.4352C67.2251 95.3701 67.0951 95.2121 66.9138 95.003C66.6721 94.7241 66.0912 94.1943 65.5939 93.6506C65.0967 93.1069 65.0549 92.5631 65.1478 92.1123C65.2408 91.6616 65.7148 91.2387 66.4537 91.3316C66.6861 91.3595 66.858 91.471 66.9788 91.6104C66.8952 90.9738 66.5513 90.6392 66.5513 90.6392H67.9873C67.7271 90.9319 67.6341 91.3455 67.5969 91.6058C67.7224 91.4664 67.8897 91.3595 68.1221 91.3316C68.861 91.2387 69.335 91.6616 69.4279 92.1123C69.5209 92.5631 69.4837 93.1069 68.9818 93.6506H68.9865Z" fill="#151515"/>
<path d="M70.1202 8.88868C70.1202 9.03274 70.004 9.15358 69.8553 9.15358C69.7066 9.15358 69.5905 9.03739 69.5905 8.88868C69.5905 8.73996 69.7066 8.62378 69.8553 8.62378C70.004 8.62378 70.1202 8.73996 70.1202 8.88868Z" fill="white"/>
<path d="M57.5169 8.88868C57.5169 9.03274 57.4007 9.15358 57.252 9.15358C57.1033 9.15358 56.9871 9.03739 56.9871 8.88868C56.9871 8.73996 57.1033 8.62378 57.252 8.62378C57.4007 8.62378 57.5169 8.73996 57.5169 8.88868Z" fill="white"/>
<path d="M45.9219 8.88868C45.9219 9.03274 45.8057 9.15358 45.657 9.15358C45.5083 9.15358 45.3921 9.03739 45.3921 8.88868C45.3921 8.73996 45.5083 8.62378 45.657 8.62378C45.8057 8.62378 45.9219 8.73996 45.9219 8.88868Z" fill="white"/>
<path d="M34.285 8.97242C34.285 9.11648 34.1689 9.23732 34.0202 9.23732C33.8715 9.23732 33.7552 9.12113 33.7552 8.97242C33.7552 8.82371 33.8715 8.70752 34.0202 8.70752C34.1689 8.70752 34.285 8.82371 34.285 8.97242Z" fill="white"/>
<path d="M70.1202 18.7131C70.1202 18.8572 70.004 18.978 69.8553 18.978C69.7066 18.978 69.5905 18.8618 69.5905 18.7131C69.5905 18.5644 69.7066 18.4482 69.8553 18.4482C70.004 18.4482 70.1202 18.5644 70.1202 18.7131Z" fill="white"/>
<path d="M70.1202 27.6777C70.1202 27.8218 70.004 27.9426 69.8553 27.9426C69.7066 27.9426 69.5905 27.8265 69.5905 27.6777C69.5905 27.529 69.7066 27.4128 69.8553 27.4128C70.004 27.4128 70.1202 27.529 70.1202 27.6777Z" fill="white"/>
<path d="M70.1202 37.0745C70.1202 37.2185 70.004 37.3394 69.8553 37.3394C69.7066 37.3394 69.5905 37.2232 69.5905 37.0745C69.5905 36.9258 69.7066 36.8096 69.8553 36.8096C70.004 36.8096 70.1202 36.9258 70.1202 37.0745Z" fill="white"/>
<path d="M70.1202 43.0137C70.1202 43.1577 70.004 43.2786 69.8553 43.2786C69.7066 43.2786 69.5905 43.1624 69.5905 43.0137C69.5905 42.865 69.7066 42.7488 69.8553 42.7488C70.004 42.7488 70.1202 42.865 70.1202 43.0137Z" fill="white"/>
<path d="M70.1202 48.9763C70.1202 49.1204 70.004 49.2412 69.8553 49.2412C69.7066 49.2412 69.5905 49.125 69.5905 48.9763C69.5905 48.8276 69.7066 48.7114 69.8553 48.7114C70.004 48.7114 70.1202 48.8276 70.1202 48.9763Z" fill="white"/>
<path d="M9.58467 9.15357C9.58467 9.29764 9.46852 9.41846 9.3198 9.41846C9.17109 9.41846 9.05493 9.30228 9.05493 9.15357C9.05493 9.00486 9.17109 8.88867 9.3198 8.88867C9.46852 8.88867 9.58467 9.00486 9.58467 9.15357Z" fill="white"/>
<path d="M22.3322 8.97242C22.3322 9.11648 22.216 9.23732 22.0673 9.23732C21.9186 9.23732 21.8024 9.12113 21.8024 8.97242C21.8024 8.82371 21.9186 8.70752 22.0673 8.70752C22.216 8.70752 22.3322 8.82371 22.3322 8.97242Z" fill="white"/>
<path d="M9.58467 18.5039C9.58467 18.648 9.46852 18.7688 9.3198 18.7688C9.17109 18.7688 9.05493 18.6526 9.05493 18.5039C9.05493 18.3552 9.17109 18.239 9.3198 18.239C9.46852 18.239 9.58467 18.3552 9.58467 18.5039Z" fill="white"/>
<path d="M9.58467 27.7427C9.58467 27.8867 9.46852 28.0076 9.3198 28.0076C9.17109 28.0076 9.05493 27.8914 9.05493 27.7427C9.05493 27.594 9.17109 27.4778 9.3198 27.4778C9.46852 27.4778 9.58467 27.594 9.58467 27.7427Z" fill="white"/>
<path d="M9.58467 37.0095C9.58467 37.1536 9.46852 37.2744 9.3198 37.2744C9.17109 37.2744 9.05493 37.1582 9.05493 37.0095C9.05493 36.8608 9.17109 36.7446 9.3198 36.7446C9.46852 36.7446 9.58467 36.8608 9.58467 37.0095Z" fill="white"/>
<path d="M9.58467 43.0137C9.58467 43.1577 9.46852 43.2786 9.3198 43.2786C9.17109 43.2786 9.05493 43.1624 9.05493 43.0137C9.05493 42.865 9.17109 42.7488 9.3198 42.7488C9.46852 42.7488 9.58467 42.865 9.58467 43.0137Z" fill="white"/>
<path d="M9.58467 49.2412C9.58467 49.3853 9.46852 49.5061 9.3198 49.5061C9.17109 49.5061 9.05493 49.3899 9.05493 49.2412C9.05493 49.0925 9.17109 48.9763 9.3198 48.9763C9.46852 48.9763 9.58467 49.0925 9.58467 49.2412Z" fill="white"/>
<path d="M9.58467 55.25C9.58467 55.3941 9.46852 55.5149 9.3198 55.5149C9.17109 55.5149 9.05493 55.3987 9.05493 55.25C9.05493 55.1013 9.17109 54.9851 9.3198 54.9851C9.46852 54.9851 9.58467 55.1013 9.58467 55.25Z" fill="white"/>
<path d="M9.58467 61.259C9.58467 61.4031 9.46852 61.5239 9.3198 61.5239C9.17109 61.5239 9.05493 61.4078 9.05493 61.259C9.05493 61.1103 9.17109 60.9941 9.3198 60.9941C9.46852 60.9941 9.58467 61.1103 9.58467 61.259Z" fill="white"/>
<path d="M9.58467 67.4863C9.58467 67.6304 9.46852 67.7512 9.3198 67.7512C9.17109 67.7512 9.05493 67.635 9.05493 67.4863C9.05493 67.3376 9.17109 67.2214 9.3198 67.2214C9.46852 67.2214 9.58467 67.3376 9.58467 67.4863Z" fill="white"/>
<path d="M9.58467 73.7278C9.58467 73.8718 9.46852 73.9927 9.3198 73.9927C9.17109 73.9927 9.05493 73.8765 9.05493 73.7278C9.05493 73.5791 9.17109 73.4629 9.3198 73.4629C9.46852 73.4629 9.58467 73.5791 9.58467 73.7278Z" fill="white"/>
<path d="M9.58467 79.3044C9.58467 79.4485 9.46852 79.5693 9.3198 79.5693C9.17109 79.5693 9.05493 79.4531 9.05493 79.3044C9.05493 79.1557 9.17109 79.0396 9.3198 79.0396C9.46852 79.0396 9.58467 79.1557 9.58467 79.3044Z" fill="white"/>
<path d="M9.58467 85.5271C9.58467 85.6712 9.46852 85.792 9.3198 85.792C9.17109 85.792 9.05493 85.6758 9.05493 85.5271C9.05493 85.3784 9.17109 85.2622 9.3198 85.2622C9.46852 85.2622 9.58467 85.3784 9.58467 85.5271Z" fill="white"/>
<path d="M9.58467 91.5918C9.58467 91.7359 9.46852 91.8567 9.3198 91.8567C9.17109 91.8567 9.05493 91.7405 9.05493 91.5918C9.05493 91.4431 9.17109 91.3269 9.3198 91.3269C9.46852 91.3269 9.58467 91.4431 9.58467 91.5918Z" fill="white"/>
<path d="M9.69166 100.51C9.69166 100.654 9.57545 100.775 9.42674 100.775C9.27802 100.775 9.16187 100.659 9.16187 100.51C9.16187 100.361 9.27802 100.245 9.42674 100.245C9.57545 100.245 9.69166 100.361 9.69166 100.51Z" fill="white"/>
<path d="M19.2279 100.77C19.2279 100.914 19.1117 101.035 18.963 101.035C18.8143 101.035 18.6981 100.919 18.6981 100.77C18.6981 100.622 18.8143 100.505 18.963 100.505C19.1117 100.505 19.2279 100.622 19.2279 100.77Z" fill="white"/>
<path d="M31.5153 100.77C31.5153 100.914 31.3991 101.035 31.2504 101.035C31.1017 101.035 30.9855 100.919 30.9855 100.77C30.9855 100.622 31.1017 100.505 31.2504 100.505C31.3991 100.505 31.5153 100.622 31.5153 100.77Z" fill="white"/>
<path d="M43.7842 100.77C43.7842 100.914 43.668 101.035 43.5193 101.035C43.3706 101.035 43.2544 100.919 43.2544 100.77C43.2544 100.622 43.3706 100.505 43.5193 100.505C43.668 100.505 43.7842 100.622 43.7842 100.77Z" fill="white"/>
<path d="M55.737 100.77C55.737 100.914 55.6208 101.035 55.4721 101.035C55.3234 101.035 55.2072 100.919 55.2072 100.77C55.2072 100.622 55.3234 100.505 55.4721 100.505C55.6208 100.505 55.737 100.622 55.737 100.77Z" fill="white"/>
<path d="M70.1202 55.106C70.1202 55.25 70.004 55.3708 69.8553 55.3708C69.7066 55.3708 69.5905 55.2547 69.5905 55.106C69.5905 54.9573 69.7066 54.8411 69.8553 54.8411C70.004 54.8411 70.1202 54.9573 70.1202 55.106Z" fill="white"/>
<path d="M70.1202 60.8362C70.1202 60.9803 70.004 61.1011 69.8553 61.1011C69.7066 61.1011 69.5905 60.9849 69.5905 60.8362C69.5905 60.6875 69.7066 60.5713 69.8553 60.5713C70.004 60.5713 70.1202 60.6875 70.1202 60.8362Z" fill="white"/>
<path d="M70.1202 67.0125C70.1202 67.1565 70.004 67.2773 69.8553 67.2773C69.7066 67.2773 69.5905 67.1612 69.5905 67.0125C69.5905 66.8637 69.7066 66.7476 69.8553 66.7476C70.004 66.7476 70.1202 66.8637 70.1202 67.0125Z" fill="white"/>
<path d="M70.1202 73.1003C70.1202 73.2444 70.004 73.3652 69.8553 73.3652C69.7066 73.3652 69.5905 73.249 69.5905 73.1003C69.5905 72.9516 69.7066 72.8354 69.8553 72.8354C70.004 72.8354 70.1202 72.9516 70.1202 73.1003Z" fill="white"/>
<path d="M70.1202 79.0303C70.1202 79.1743 70.004 79.2952 69.8553 79.2952C69.7066 79.2952 69.5905 79.179 69.5905 79.0303C69.5905 78.8816 69.7066 78.7654 69.8553 78.7654C70.004 78.7654 70.1202 78.8816 70.1202 79.0303Z" fill="white"/>
<path d="M70.1202 84.8718C70.1202 85.0159 70.004 85.1367 69.8553 85.1367C69.7066 85.1367 69.5905 85.0205 69.5905 84.8718C69.5905 84.7231 69.7066 84.6069 69.8553 84.6069C70.004 84.6069 70.1202 84.7231 70.1202 84.8718Z" fill="white"/>
<path d="M69.8553 91.104C70.0016 91.104 70.1202 90.9854 70.1202 90.8391C70.1202 90.6928 70.0016 90.5742 69.8553 90.5742C69.709 90.5742 69.5905 90.6928 69.5905 90.8391C69.5905 90.9854 69.709 91.104 69.8553 91.104Z" fill="white"/>
<path d="M70.1202 99.9338C70.1202 100.078 70.004 100.199 69.8553 100.199C69.7066 100.199 69.5905 100.083 69.5905 99.9338C69.5905 99.7851 69.7066 99.6689 69.8553 99.6689C70.004 99.6689 70.1202 99.7851 70.1202 99.9338Z" fill="white"/>
</svg>
