<svg width="78" height="109" viewBox="0 0 78 109" fill="none" xmlns="http://www.w3.org/2000/svg">
<path d="M74.6945 0.356201H2.90319C1.37861 0.356201 0.1427 1.59212 0.1427 3.11669V105.831C0.1427 107.356 1.37861 108.592 2.90319 108.592H74.6945C76.2191 108.592 77.455 107.356 77.455 105.831V3.11669C77.455 1.59212 76.2191 0.356201 74.6945 0.356201Z" fill="white"/>
<path d="M74.6898 108.643H2.90317C1.35098 108.643 0.0869141 107.379 0.0869141 105.827V3.11215C0.0869141 1.55996 1.35098 0.295898 2.90317 0.295898H74.6945C76.2467 0.295898 77.5108 1.55996 77.5108 3.11215V105.827C77.5108 107.379 76.2467 108.643 74.6945 108.643H74.6898ZM2.89853 0.407429C1.40675 0.407429 0.1938 1.62037 0.1938 3.11215V105.827C0.1938 107.318 1.40675 108.531 2.89853 108.531H74.6898C76.1816 108.531 77.3946 107.318 77.3946 105.827V3.11215C77.3946 1.62037 76.1816 0.407429 74.6898 0.407429H2.90317H2.89853Z" fill="#65A7DD"/>
<path d="M69.4245 8.88868C69.4245 9.03274 69.3083 9.15358 69.1596 9.15358C69.0108 9.15358 68.8947 9.03739 68.8947 8.88868C68.8947 8.73996 69.0108 8.62378 69.1596 8.62378C69.3083 8.62378 69.4245 8.73996 69.4245 8.88868Z" fill="white"/>
<path d="M56.8163 8.88868C56.8163 9.03274 56.7001 9.15358 56.5514 9.15358C56.4027 9.15358 56.2865 9.03739 56.2865 8.88868C56.2865 8.73996 56.4027 8.62378 56.5514 8.62378C56.7001 8.62378 56.8163 8.73996 56.8163 8.88868Z" fill="white"/>
<path d="M45.2167 8.88868C45.2167 9.03274 45.1005 9.15358 44.9518 9.15358C44.8031 9.15358 44.6869 9.03739 44.6869 8.88868C44.6869 8.73996 44.8031 8.62378 44.9518 8.62378C45.1005 8.62378 45.2167 8.73996 45.2167 8.88868Z" fill="white"/>
<path d="M33.5753 8.97242C33.5753 9.11648 33.4591 9.23732 33.3104 9.23732C33.1617 9.23732 33.0455 9.12113 33.0455 8.97242C33.0455 8.82371 33.1617 8.70752 33.3104 8.70752C33.4591 8.70752 33.5753 8.82371 33.5753 8.97242Z" fill="white"/>
<path d="M69.4245 18.7131C69.4245 18.8572 69.3083 18.978 69.1596 18.978C69.0108 18.978 68.8947 18.8618 68.8947 18.7131C68.8947 18.5644 69.0108 18.4482 69.1596 18.4482C69.3083 18.4482 69.4245 18.5644 69.4245 18.7131Z" fill="white"/>
<path d="M69.4245 27.6777C69.4245 27.8218 69.3083 27.9426 69.1596 27.9426C69.0108 27.9426 68.8947 27.8265 68.8947 27.6777C68.8947 27.529 69.0108 27.4128 69.1596 27.4128C69.3083 27.4128 69.4245 27.529 69.4245 27.6777Z" fill="white"/>
<path d="M69.4245 37.0745C69.4245 37.2185 69.3083 37.3394 69.1596 37.3394C69.0108 37.3394 68.8947 37.2232 68.8947 37.0745C68.8947 36.9258 69.0108 36.8096 69.1596 36.8096C69.3083 36.8096 69.4245 36.9258 69.4245 37.0745Z" fill="white"/>
<path d="M69.4245 43.0137C69.4245 43.1577 69.3083 43.2786 69.1596 43.2786C69.0108 43.2786 68.8947 43.1624 68.8947 43.0137C68.8947 42.865 69.0108 42.7488 69.1596 42.7488C69.3083 42.7488 69.4245 42.865 69.4245 43.0137Z" fill="white"/>
<path d="M69.4245 48.9763C69.4245 49.1204 69.3083 49.2412 69.1596 49.2412C69.0108 49.2412 68.8947 49.125 68.8947 48.9763C68.8947 48.8276 69.0108 48.7114 69.1596 48.7114C69.3083 48.7114 69.4245 48.8276 69.4245 48.9763Z" fill="white"/>
<path d="M8.87024 9.15357C8.87024 9.29764 8.75407 9.41846 8.60535 9.41846C8.45664 9.41846 8.34045 9.30228 8.34045 9.15357C8.34045 9.00486 8.45664 8.88867 8.60535 8.88867C8.75407 8.88867 8.87024 9.00486 8.87024 9.15357Z" fill="white"/>
<path d="M21.6224 8.97242C21.6224 9.11648 21.5063 9.23732 21.3576 9.23732C21.2088 9.23732 21.0927 9.12113 21.0927 8.97242C21.0927 8.82371 21.2088 8.70752 21.3576 8.70752C21.5063 8.70752 21.6224 8.82371 21.6224 8.97242Z" fill="white"/>
<path d="M8.87024 18.5039C8.87024 18.648 8.75407 18.7688 8.60535 18.7688C8.45664 18.7688 8.34045 18.6526 8.34045 18.5039C8.34045 18.3552 8.45664 18.239 8.60535 18.239C8.75407 18.239 8.87024 18.3552 8.87024 18.5039Z" fill="white"/>
<path d="M8.87024 27.7427C8.87024 27.8867 8.75407 28.0076 8.60535 28.0076C8.45664 28.0076 8.34045 27.8914 8.34045 27.7427C8.34045 27.594 8.45664 27.4778 8.60535 27.4778C8.75407 27.4778 8.87024 27.594 8.87024 27.7427Z" fill="white"/>
<path d="M8.87024 37.0095C8.87024 37.1536 8.75407 37.2744 8.60535 37.2744C8.45664 37.2744 8.34045 37.1582 8.34045 37.0095C8.34045 36.8608 8.45664 36.7446 8.60535 36.7446C8.75407 36.7446 8.87024 36.8608 8.87024 37.0095Z" fill="white"/>
<path d="M8.87024 43.0137C8.87024 43.1577 8.75407 43.2786 8.60535 43.2786C8.45664 43.2786 8.34045 43.1624 8.34045 43.0137C8.34045 42.865 8.45664 42.7488 8.60535 42.7488C8.75407 42.7488 8.87024 42.865 8.87024 43.0137Z" fill="white"/>
<path d="M8.87024 49.2412C8.87024 49.3853 8.75407 49.5061 8.60535 49.5061C8.45664 49.5061 8.34045 49.3899 8.34045 49.2412C8.34045 49.0925 8.45664 48.9763 8.60535 48.9763C8.75407 48.9763 8.87024 49.0925 8.87024 49.2412Z" fill="white"/>
<path d="M8.87024 55.25C8.87024 55.3941 8.75407 55.5149 8.60535 55.5149C8.45664 55.5149 8.34045 55.3987 8.34045 55.25C8.34045 55.1013 8.45664 54.9851 8.60535 54.9851C8.75407 54.9851 8.87024 55.1013 8.87024 55.25Z" fill="white"/>
<path d="M8.87024 61.259C8.87024 61.4031 8.75407 61.5239 8.60535 61.5239C8.45664 61.5239 8.34045 61.4078 8.34045 61.259C8.34045 61.1103 8.45664 60.9941 8.60535 60.9941C8.75407 60.9941 8.87024 61.1103 8.87024 61.259Z" fill="white"/>
<path d="M8.87024 67.4863C8.87024 67.6304 8.75407 67.7512 8.60535 67.7512C8.45664 67.7512 8.34045 67.635 8.34045 67.4863C8.34045 67.3376 8.45664 67.2214 8.60535 67.2214C8.75407 67.2214 8.87024 67.3376 8.87024 67.4863Z" fill="white"/>
<path d="M8.87024 73.7278C8.87024 73.8718 8.75407 73.9927 8.60535 73.9927C8.45664 73.9927 8.34045 73.8765 8.34045 73.7278C8.34045 73.5791 8.45664 73.4629 8.60535 73.4629C8.75407 73.4629 8.87024 73.5791 8.87024 73.7278Z" fill="white"/>
<path d="M8.87024 79.3044C8.87024 79.4485 8.75407 79.5693 8.60535 79.5693C8.45664 79.5693 8.34045 79.4531 8.34045 79.3044C8.34045 79.1557 8.45664 79.0396 8.60535 79.0396C8.75407 79.0396 8.87024 79.1557 8.87024 79.3044Z" fill="white"/>
<path d="M8.87024 85.5271C8.87024 85.6712 8.75407 85.792 8.60535 85.792C8.45664 85.792 8.34045 85.6758 8.34045 85.5271C8.34045 85.3784 8.45664 85.2622 8.60535 85.2622C8.75407 85.2622 8.87024 85.3784 8.87024 85.5271Z" fill="white"/>
<path d="M8.87024 91.5918C8.87024 91.7359 8.75407 91.8567 8.60535 91.8567C8.45664 91.8567 8.34045 91.7405 8.34045 91.5918C8.34045 91.4431 8.45664 91.3269 8.60535 91.3269C8.75407 91.3269 8.87024 91.4431 8.87024 91.5918Z" fill="white"/>
<path d="M8.97718 100.51C8.97718 100.654 8.86099 100.775 8.71228 100.775C8.56357 100.775 8.44739 100.659 8.44739 100.51C8.44739 100.361 8.56357 100.245 8.71228 100.245C8.86099 100.245 8.97718 100.361 8.97718 100.51Z" fill="white"/>
<path d="M18.5181 100.77C18.5181 100.914 18.4019 101.035 18.2532 101.035C18.1045 101.035 17.9883 100.919 17.9883 100.77C17.9883 100.622 18.1045 100.505 18.2532 100.505C18.4019 100.505 18.5181 100.622 18.5181 100.77Z" fill="white"/>
<path d="M30.8101 100.77C30.8101 100.914 30.6939 101.035 30.5452 101.035C30.3965 101.035 30.2803 100.919 30.2803 100.77C30.2803 100.622 30.3965 100.505 30.5452 100.505C30.6939 100.505 30.8101 100.622 30.8101 100.77Z" fill="white"/>
<path d="M43.079 100.77C43.079 100.914 42.9628 101.035 42.8141 101.035C42.6654 101.035 42.5492 100.919 42.5492 100.77C42.5492 100.622 42.6654 100.505 42.8141 100.505C42.9628 100.505 43.079 100.622 43.079 100.77Z" fill="white"/>
<path d="M55.0365 100.77C55.0365 100.914 54.9203 101.035 54.7716 101.035C54.6229 101.035 54.5067 100.919 54.5067 100.77C54.5067 100.622 54.6229 100.505 54.7716 100.505C54.9203 100.505 55.0365 100.622 55.0365 100.77Z" fill="white"/>
<path d="M69.4245 55.106C69.4245 55.25 69.3083 55.3708 69.1596 55.3708C69.0108 55.3708 68.8947 55.2547 68.8947 55.106C68.8947 54.9573 69.0108 54.8411 69.1596 54.8411C69.3083 54.8411 69.4245 54.9573 69.4245 55.106Z" fill="white"/>
<path d="M69.4245 60.8362C69.4245 60.9803 69.3083 61.1011 69.1596 61.1011C69.0108 61.1011 68.8947 60.9849 68.8947 60.8362C68.8947 60.6875 69.0108 60.5713 69.1596 60.5713C69.3083 60.5713 69.4245 60.6875 69.4245 60.8362Z" fill="white"/>
<path d="M69.4245 67.0125C69.4245 67.1565 69.3083 67.2773 69.1596 67.2773C69.0108 67.2773 68.8947 67.1612 68.8947 67.0125C68.8947 66.8637 69.0108 66.7476 69.1596 66.7476C69.3083 66.7476 69.4245 66.8637 69.4245 67.0125Z" fill="white"/>
<path d="M69.4245 73.1003C69.4245 73.2444 69.3083 73.3652 69.1596 73.3652C69.0108 73.3652 68.8947 73.249 68.8947 73.1003C68.8947 72.9516 69.0108 72.8354 69.1596 72.8354C69.3083 72.8354 69.4245 72.9516 69.4245 73.1003Z" fill="white"/>
<path d="M69.4245 79.0303C69.4245 79.1743 69.3083 79.2952 69.1596 79.2952C69.0108 79.2952 68.8947 79.179 68.8947 79.0303C68.8947 78.8816 69.0108 78.7654 69.1596 78.7654C69.3083 78.7654 69.4245 78.8816 69.4245 79.0303Z" fill="white"/>
<path d="M69.4245 84.8718C69.4245 85.0159 69.3083 85.1367 69.1596 85.1367C69.0108 85.1367 68.8947 85.0205 68.8947 84.8718C68.8947 84.7231 69.0108 84.6069 69.1596 84.6069C69.3083 84.6069 69.4245 84.7231 69.4245 84.8718Z" fill="white"/>
<path d="M69.4245 90.8391C69.4245 90.9832 69.3083 91.104 69.1596 91.104C69.0108 91.104 68.8947 90.9878 68.8947 90.8391C68.8947 90.6904 69.0108 90.5742 69.1596 90.5742C69.3083 90.5742 69.4245 90.6904 69.4245 90.8391Z" fill="white"/>
<path d="M69.4245 99.9338C69.4245 100.078 69.3083 100.199 69.1596 100.199C69.0108 100.199 68.8947 100.083 68.8947 99.9338C68.8947 99.7851 69.0108 99.6689 69.1596 99.6689C69.3083 99.6689 69.4245 99.7851 69.4245 99.9338Z" fill="white"/>
<path d="M45.2167 16.7193C43.5065 14.8558 41.5221 13.0387 40.6949 12.086C40.0722 11.3703 39.6307 10.8266 39.4494 10.5988V10.4827C39.4494 10.4827 39.4309 10.5013 39.403 10.5431C39.3751 10.5059 39.3565 10.4827 39.3565 10.4827V10.5988C39.1752 10.8266 38.7338 11.3703 38.111 12.086C37.2792 13.0387 35.2948 14.8558 33.5892 16.7193C31.879 18.5829 31.7442 20.4465 32.0649 21.9894C32.3856 23.5323 34.0028 24.9869 36.5449 24.6708C37.3442 24.5732 37.9251 24.1875 38.348 23.7135C38.0645 25.8977 36.8795 27.0363 36.8795 27.0363H41.8056C40.9087 26.0325 40.588 24.6104 40.4718 23.7228C40.8947 24.1922 41.4757 24.5686 42.2657 24.6708C44.8031 24.9869 46.4204 23.5369 46.7457 21.9894C47.071 20.4418 46.9316 18.5829 45.2214 16.7193H45.2167Z" fill="#151515"/>
<path d="M10.5712 14.8745C10.0739 14.3307 9.49302 13.8009 9.25136 13.5221C9.07011 13.313 8.93999 13.155 8.88887 13.0899V13.0574C8.88887 13.0574 8.88422 13.062 8.87493 13.076C8.86563 13.0667 8.86099 13.0574 8.86099 13.0574V13.0899C8.80987 13.155 8.67974 13.313 8.4985 13.5221C8.25684 13.8009 7.67592 14.3307 7.17866 14.8745C6.6814 15.4182 6.63958 15.9619 6.73253 16.4127C6.82547 16.8635 7.2995 17.2864 8.03842 17.1935C8.27078 17.1656 8.44273 17.054 8.56356 16.9146C8.47991 17.5513 8.13601 17.8859 8.13601 17.8859H9.57202C9.31177 17.5931 9.21883 17.1795 9.18165 16.9193C9.30713 17.0587 9.47443 17.1656 9.70679 17.1935C10.4457 17.2864 10.9197 16.8635 11.0127 16.4127C11.1056 15.9619 11.0684 15.4182 10.5665 14.8745H10.5712Z" fill="#151515"/>
<path d="M7.1415 10.4921C7.26697 10.1668 7.55046 9.81821 7.98731 9.44642L8.8517 8.70749C9.13519 8.47048 9.34896 8.21489 9.49768 7.9314C9.64639 7.64792 9.72074 7.3226 9.72074 6.95547C9.72074 6.48609 9.60457 6.1236 9.37685 5.868C9.14913 5.6124 8.82382 5.48692 8.40092 5.48692C8.21038 5.48692 8.02448 5.5334 7.84789 5.6217C7.67129 5.71 7.52723 5.83082 7.41569 5.97953C7.30416 6.12825 7.24839 6.27697 7.24839 6.43497C7.24839 6.57904 7.28092 6.68593 7.34598 6.75564C7.41104 6.82535 7.50399 6.86717 7.61552 6.88576C7.80606 6.91365 7.95013 6.9787 8.04307 7.08094C8.13602 7.17853 8.18249 7.29937 8.18249 7.43879C8.18249 7.55497 8.14067 7.64792 8.06167 7.72692C7.97802 7.80592 7.86648 7.8431 7.72241 7.8431C7.4761 7.8431 7.27163 7.74551 7.10897 7.55032C6.94632 7.35513 6.86731 7.09953 6.86731 6.77887C6.86731 6.45821 6.94631 6.19795 7.09967 5.947C7.25303 5.70069 7.46681 5.51016 7.741 5.37074C8.01519 5.23132 8.32191 5.16162 8.65652 5.16162C9.04224 5.16162 9.38614 5.23598 9.69286 5.38004C9.99958 5.52411 10.2412 5.73324 10.4132 6.00278C10.5898 6.27232 10.6734 6.59298 10.6734 6.96012C10.6734 7.32726 10.5433 7.65722 10.2877 7.94999C10.0275 8.24277 9.68821 8.54019 9.26996 8.84227L8.38698 9.52542C8.13602 9.70201 7.94084 9.86468 7.80606 10.0273C7.67129 10.1853 7.60158 10.3526 7.60158 10.5199C7.60158 10.664 7.69453 10.7384 7.88042 10.7384H9.58598C9.82764 10.7384 9.99493 10.6872 10.0972 10.5803C10.1948 10.4735 10.2645 10.3248 10.3017 10.1342L10.3993 9.59978H10.5991L10.4736 11.4773H6.95561C6.95561 11.1473 7.02067 10.8174 7.14615 10.4921H7.1415Z" fill="black"/>
<path d="M71.4925 96.2391C71.367 96.5645 71.0835 96.913 70.6467 97.2848L69.7823 98.0237C69.4988 98.2607 69.285 98.5163 69.1363 98.7998C68.9876 99.0833 68.9133 99.4086 68.9133 99.7757C68.9133 100.245 69.0295 100.608 69.2572 100.863C69.4849 101.119 69.8102 101.244 70.2331 101.244C70.4236 101.244 70.6095 101.198 70.7861 101.11C70.9627 101.021 71.1068 100.9 71.2183 100.752C71.3299 100.603 71.3856 100.454 71.3856 100.296C71.3856 100.152 71.3531 100.045 71.288 99.9756C71.223 99.9059 71.13 99.864 71.0185 99.8454C70.828 99.8176 70.6839 99.7525 70.5909 99.6503C70.498 99.5527 70.4515 99.4318 70.4515 99.2924C70.4515 99.1762 70.4934 99.0833 70.5724 99.0043C70.656 98.9253 70.7675 98.8881 70.9116 98.8881C71.1579 98.8881 71.3624 98.9857 71.525 99.1809C71.6877 99.3761 71.7667 99.6317 71.7667 99.9523C71.7667 100.273 71.6877 100.533 71.5343 100.784C71.381 101.03 71.1672 101.226 70.893 101.36C70.6188 101.5 70.3121 101.57 69.9775 101.57C69.5918 101.57 69.2479 101.495 68.9412 101.351C68.6344 101.207 68.3928 100.998 68.2208 100.728C68.0442 100.459 67.9606 100.138 67.9606 99.7711C67.9606 99.4039 68.0907 99.074 68.3463 98.7766C68.6066 98.4838 68.9458 98.1864 69.3641 97.8843L70.247 97.2011C70.498 97.0245 70.6932 96.8619 70.828 96.6992C70.9627 96.5412 71.0324 96.3739 71.0324 96.2066C71.0324 96.0625 70.9395 95.9882 70.7536 95.9882H69.048C68.8064 95.9882 68.6391 96.0393 68.5368 96.1462C68.4393 96.2531 68.3695 96.4018 68.3324 96.5923L68.2348 97.1268H68.0349L68.1604 95.2493H71.6784C71.6784 95.5792 71.6134 95.9092 71.4879 96.2345L71.4925 96.2391Z" fill="black"/>
<path d="M45.2167 90.8065C43.5065 92.67 41.5221 94.4871 40.6949 95.4398C40.0722 96.1555 39.6307 96.6992 39.4494 96.927V97.0431C39.4494 97.0431 39.4309 97.0246 39.403 96.9827C39.3751 97.0199 39.3565 97.0431 39.3565 97.0431V96.927C39.1752 96.6992 38.7338 96.1555 38.111 95.4398C37.2792 94.4871 35.2948 92.67 33.5892 90.8065C31.879 88.9429 31.7442 87.0794 32.0649 85.5365C32.3856 83.9936 34.0028 82.539 36.5449 82.855C37.3442 82.9526 37.9251 83.3383 38.348 83.8123C38.0645 81.6281 36.8795 80.4895 36.8795 80.4895H41.8056C40.9087 81.4933 40.588 82.9154 40.4718 83.803C40.8947 83.3336 41.4757 82.9572 42.2657 82.855C44.8031 82.539 46.4204 83.9889 46.7457 85.5365C47.071 87.084 46.9316 88.9429 45.2214 90.8065H45.2167Z" fill="#151515"/>
<path d="M71.1299 92.0891C70.6326 92.6328 70.0517 93.1626 69.8101 93.4414C69.6288 93.6506 69.4987 93.8086 69.4476 93.8736V93.9062C69.4476 93.9062 69.4429 93.9015 69.4337 93.8876C69.4244 93.8969 69.4197 93.9062 69.4197 93.9062V93.8736C69.3686 93.8086 69.2385 93.6506 69.0572 93.4414C68.8156 93.1626 68.2347 92.6328 67.7374 92.0891C67.2401 91.5454 67.1983 91.0016 67.2912 90.5508C67.3842 90.1 67.8582 89.6771 68.5971 89.7701C68.8295 89.798 69.0014 89.9095 69.1223 90.0489C69.0386 89.4122 68.6947 89.0776 68.6947 89.0776H70.1307C69.8705 89.3704 69.7776 89.784 69.7404 90.0443C69.8658 89.9049 70.0332 89.798 70.2655 89.7701C71.0044 89.6771 71.4785 90.1 71.5714 90.5508C71.6644 91.0016 71.6272 91.5454 71.1253 92.0891H71.1299Z" fill="#151515"/>
</svg>
