<svg width="78" height="109" viewBox="0 0 78 109" fill="none" xmlns="http://www.w3.org/2000/svg">
<path d="M74.7816 0.356201H2.99023C1.46565 0.356201 0.229736 1.59212 0.229736 3.11669V105.831C0.229736 107.356 1.46565 108.592 2.99023 108.592H74.7816C76.3061 108.592 77.542 107.356 77.542 105.831V3.11669C77.542 1.59212 76.3061 0.356201 74.7816 0.356201Z" fill="white"/>
<path d="M74.7815 108.643H2.99021C1.43801 108.643 0.17395 107.379 0.17395 105.827V3.11215C0.17395 1.55996 1.43801 0.295898 2.99021 0.295898H74.7815C76.3337 0.295898 77.5978 1.55996 77.5978 3.11215V105.827C77.5978 107.379 76.3337 108.643 74.7815 108.643ZM2.99021 0.407429C1.49843 0.407429 0.285481 1.62037 0.285481 3.11215V105.827C0.285481 107.318 1.49843 108.531 2.99021 108.531H74.7815C76.2733 108.531 77.4862 107.318 77.4862 105.827V3.11215C77.4862 1.62037 76.2733 0.407429 74.7815 0.407429H2.99021Z" fill="#65A7DD"/>
<path d="M10.714 14.8745C10.2167 14.3307 9.63583 13.8009 9.39417 13.5221C9.21293 13.313 9.08281 13.155 9.03169 13.0899V13.0574C9.03169 13.0574 9.02704 13.062 9.01774 13.076C9.00845 13.0667 9.0038 13.0574 9.0038 13.0574V13.0899C8.95268 13.155 8.82256 13.313 8.64132 13.5221C8.39966 13.8009 7.81875 14.3307 7.32149 14.8745C6.82423 15.4182 6.78241 15.9619 6.87535 16.4127C6.9683 16.8635 7.44232 17.2864 8.18124 17.1935C8.4136 17.1656 8.58554 17.054 8.70637 16.9146C8.62272 17.5513 8.27883 17.8859 8.27883 17.8859H9.71484C9.45459 17.5931 9.36165 17.1795 9.32447 16.9193C9.44994 17.0587 9.61725 17.1656 9.84961 17.1935C10.5885 17.2864 11.0626 16.8635 11.1555 16.4127C11.2484 15.9619 11.2113 15.4182 10.7094 14.8745H10.714Z" fill="#151515"/>
<path d="M7.45168 11.31C7.14031 11.1009 6.9823 10.7988 6.9823 10.4038C6.9823 10.1854 7.04736 10.0041 7.17284 9.85076C7.29832 9.6974 7.46562 9.61839 7.6701 9.61839C7.84205 9.61839 7.98147 9.66486 8.07907 9.75781C8.17666 9.85075 8.22777 9.98088 8.22777 10.1389C8.22777 10.2644 8.1906 10.3759 8.11624 10.4688C8.04188 10.5618 7.94429 10.6083 7.82346 10.6083C7.61433 10.6083 7.50745 10.6594 7.50745 10.7616C7.50745 11.1427 7.88388 11.3286 8.64139 11.3286C9.07823 11.3286 9.39889 11.1799 9.59407 10.8778C9.78926 10.5757 9.88686 10.2179 9.88686 9.79499C9.88686 9.31168 9.78462 8.95383 9.5755 8.71217C9.36637 8.47051 9.11541 8.34968 8.81333 8.34968C8.72503 8.34968 8.65067 8.35433 8.59026 8.36827C8.53449 8.38222 8.46014 8.4008 8.37649 8.43333C8.17665 8.49839 8.0233 8.53093 7.91641 8.53093C7.82811 8.53093 7.74446 8.50769 7.67939 8.46586C7.60968 8.42404 7.57715 8.35897 7.57715 8.27532C7.57715 8.19167 7.60969 8.12661 7.67476 8.08478C7.73982 8.04296 7.82346 8.01973 7.91641 8.01973C8.01865 8.01973 8.15807 8.03367 8.33931 8.0662C8.46014 8.08479 8.6228 8.09408 8.83658 8.09408C9.12471 8.09408 9.34778 7.96396 9.50114 7.70371C9.6545 7.44347 9.72885 7.14138 9.72885 6.80678C9.72885 6.4164 9.64056 6.09109 9.45931 5.83084C9.27807 5.57059 9.01782 5.44512 8.67392 5.44512C8.33002 5.44512 8.06977 5.50089 7.92106 5.61707C7.77235 5.73325 7.70264 5.85874 7.70264 6.0028C7.70264 6.05857 7.72587 6.11433 7.76769 6.1701C7.80952 6.22587 7.86528 6.27235 7.93964 6.30953C8.15806 6.39783 8.26496 6.54653 8.26496 6.75101C8.26496 6.87649 8.22314 6.98338 8.13948 7.06239C8.05583 7.14139 7.93499 7.18321 7.77698 7.18321C7.60039 7.18321 7.45168 7.10886 7.32156 6.96014C7.19143 6.81143 7.12636 6.64878 7.12636 6.46753C7.12636 6.04463 7.28902 5.72396 7.60969 5.4916C7.93035 5.26388 8.32073 5.14771 8.77616 5.14771C9.32454 5.14771 9.76138 5.29176 10.096 5.58454C10.4306 5.87732 10.5979 6.25839 10.5979 6.73242C10.5979 6.98337 10.5375 7.21109 10.4213 7.40628C10.3051 7.60147 10.1564 7.75947 9.97981 7.88495C9.80321 8.01043 9.62197 8.08943 9.44537 8.13126V8.20562C9.64521 8.24279 9.84968 8.32644 10.0681 8.46121C10.2865 8.59598 10.4678 8.77723 10.6165 9.00495C10.7652 9.23267 10.8442 9.49292 10.8442 9.79034C10.8442 10.1575 10.7466 10.4781 10.5468 10.7523C10.3469 11.0265 10.082 11.2356 9.74744 11.3844C9.41284 11.5331 9.0457 11.6074 8.64139 11.6074C8.15807 11.6074 7.76305 11.5052 7.45168 11.2961V11.31Z" fill="black"/>
<path d="M71.4403 95.4212C71.7516 95.6304 71.9096 95.9324 71.9096 96.3274C71.9096 96.5459 71.8446 96.7271 71.7191 96.8805C71.5936 97.0338 71.4263 97.1082 71.2218 97.1082C71.0499 97.1082 70.9105 97.0617 70.8129 96.9688C70.7153 96.8758 70.6642 96.7457 70.6642 96.5877C70.6642 96.4622 70.7013 96.3507 70.7757 96.2577C70.8501 96.1648 70.9476 96.1183 71.0685 96.1183C71.2776 96.1183 71.3845 96.0672 71.3845 95.965C71.3845 95.5839 71.0081 95.398 70.2506 95.398C69.8137 95.398 69.493 95.5467 69.2979 95.8488C69.1027 96.1508 69.0051 96.5087 69.0051 96.9316C69.0051 97.4149 69.1073 97.7727 69.3164 98.0144C69.5256 98.2561 69.7765 98.3769 70.0786 98.3769C70.1669 98.3769 70.2413 98.3722 70.3017 98.3583C70.3574 98.3444 70.4318 98.3258 70.5154 98.2932C70.7153 98.2282 70.8686 98.1956 70.9755 98.1956C71.0638 98.1956 71.1475 98.2189 71.2125 98.2607C71.2822 98.3025 71.3148 98.3676 71.3148 98.4513C71.3148 98.5349 71.2822 98.6 71.2172 98.6418C71.1521 98.6836 71.0685 98.7068 70.9755 98.7068C70.8733 98.7068 70.7339 98.6929 70.5526 98.6604C70.4318 98.6418 70.2691 98.6325 70.0554 98.6325C69.7672 98.6325 69.5442 98.7626 69.3908 99.0229C69.2374 99.2831 69.1631 99.5852 69.1631 99.9198C69.1631 100.31 69.2514 100.635 69.4326 100.896C69.6139 101.156 69.8741 101.281 70.218 101.281C70.5619 101.281 70.8222 101.226 70.9709 101.11C71.1196 100.993 71.1893 100.868 71.1893 100.724C71.1893 100.668 71.1661 100.612 71.1242 100.556C71.0824 100.501 71.0266 100.454 70.9523 100.417C70.7339 100.329 70.627 100.18 70.627 99.9756C70.627 99.8501 70.6688 99.7432 70.7525 99.6642C70.8361 99.5852 70.9569 99.5434 71.1149 99.5434C71.2915 99.5434 71.4403 99.6177 71.5704 99.7664C71.7005 99.9151 71.7656 100.078 71.7656 100.259C71.7656 100.682 71.6029 101.003 71.2823 101.235C70.9616 101.463 70.5712 101.579 70.1158 101.579C69.5674 101.579 69.1306 101.435 68.796 101.142C68.4613 100.849 68.294 100.468 68.294 99.9942C68.294 99.7432 68.3545 99.5155 68.4706 99.3203C68.5868 99.1251 68.7355 98.9671 68.9121 98.8416C69.0887 98.7161 69.27 98.6371 69.4466 98.5953V98.521C69.2467 98.4838 69.0423 98.4001 68.8238 98.2654C68.6054 98.1306 68.4242 97.9493 68.2755 97.7216C68.1267 97.4939 68.0477 97.229 68.0477 96.9362C68.0477 96.5691 68.1453 96.2484 68.3452 95.9742C68.545 95.7001 68.8099 95.4909 69.1445 95.3422C69.4791 95.1935 69.8462 95.1191 70.2506 95.1191C70.7339 95.1191 71.1289 95.2214 71.4403 95.4305V95.4212Z" fill="black"/>
<path d="M45.313 16.7193C43.6028 14.8558 41.6184 13.0387 40.7912 12.086C40.1685 11.3703 39.727 10.8266 39.5458 10.5988V10.4827C39.5458 10.4827 39.5272 10.5013 39.4993 10.5431C39.4714 10.5059 39.4528 10.4827 39.4528 10.4827V10.5988C39.2716 10.8266 38.8301 11.3703 38.2073 12.086C37.3755 13.0387 35.3911 14.8558 33.6855 16.7193C31.9753 18.5829 31.8405 20.4465 32.1612 21.9894C32.4865 23.5323 34.0991 24.9869 36.6412 24.6708C37.4405 24.5732 38.0214 24.1875 38.4444 23.7135C38.1609 25.8977 36.9758 27.0363 36.9758 27.0363H41.9019C41.005 26.0325 40.6843 24.6104 40.5682 23.7228C40.9911 24.1922 41.572 24.5686 42.362 24.6708C44.8994 24.9869 46.5167 23.5369 46.842 21.9894C47.1673 20.4418 47.0279 18.5829 45.3177 16.7193H45.313Z" fill="#151515"/>
<path d="M45.313 52.3084C43.6028 50.4449 41.6184 48.6278 40.7912 47.6751C40.1685 46.9594 39.727 46.4157 39.5458 46.188V46.0718C39.5458 46.0718 39.5272 46.0904 39.4993 46.1322C39.4714 46.095 39.4528 46.0718 39.4528 46.0718V46.188C39.2716 46.4157 38.8301 46.9594 38.2073 47.6751C37.3755 48.6278 35.3911 50.4449 33.6855 52.3084C31.9753 54.172 31.8405 56.0356 32.1612 57.5785C32.4865 59.1214 34.0991 60.576 36.6412 60.26C37.4405 60.1624 38.0214 59.7766 38.4444 59.3026C38.1609 61.4868 36.9758 62.6254 36.9758 62.6254H41.9019C41.005 61.6216 40.6843 60.1995 40.5682 59.3119C40.9911 59.7813 41.572 60.1577 42.362 60.26C44.8994 60.576 46.5167 59.126 46.842 57.5785C47.1673 56.0356 47.0279 54.172 45.3177 52.3084H45.313Z" fill="#151515"/>
<path d="M45.313 90.8065C43.6028 92.67 41.6184 94.4871 40.7912 95.4398C40.1685 96.1555 39.727 96.6992 39.5458 96.927V97.0431C39.5458 97.0431 39.5272 97.0246 39.4993 96.9827C39.4714 97.0199 39.4528 97.0431 39.4528 97.0431V96.927C39.2716 96.6992 38.8301 96.1555 38.2073 95.4398C37.3755 94.4871 35.3911 92.67 33.6855 90.8065C31.9753 88.9429 31.8405 87.0794 32.1612 85.5365C32.4865 83.9936 34.0991 82.539 36.6412 82.855C37.4405 82.9526 38.0214 83.3383 38.4444 83.8123C38.1609 81.6281 36.9758 80.4895 36.9758 80.4895H41.9019C41.005 81.4933 40.6843 82.9154 40.5682 83.803C40.9911 83.3336 41.572 82.9572 42.362 82.855C44.8994 82.539 46.5167 83.9889 46.842 85.5365C47.1673 87.0794 47.0279 88.9429 45.3177 90.8065H45.313Z" fill="#151515"/>
<path d="M71.273 92.0891C70.7757 92.6328 70.1948 93.1626 69.9531 93.4414C69.7719 93.6506 69.6418 93.8086 69.5906 93.8736V93.9062C69.5906 93.9062 69.586 93.9015 69.5767 93.8876C69.5674 93.8969 69.5628 93.9062 69.5628 93.9062V93.8736C69.5116 93.8086 69.3815 93.6506 69.2003 93.4414C68.9586 93.1626 68.3777 92.6328 67.8804 92.0891C67.3832 91.5454 67.3414 91.0016 67.4343 90.5508C67.5273 90.1 68.0013 89.6771 68.7402 89.7701C68.9726 89.798 69.1445 89.9095 69.2653 90.0489C69.1817 89.4122 68.8378 89.0776 68.8378 89.0776H70.2738C70.0135 89.3704 69.9206 89.784 69.8834 90.0443C70.0089 89.9049 70.1762 89.798 70.4086 89.7701C71.1475 89.6771 71.6215 90.1 71.7145 90.5508C71.8074 91.0016 71.7702 91.5454 71.2683 92.0891H71.273Z" fill="#151515"/>
</svg>
