<svg width="78" height="109" viewBox="0 0 78 109" fill="none" xmlns="http://www.w3.org/2000/svg">
<path d="M74.8685 0.356201H3.07714C1.55256 0.356201 0.31665 1.59212 0.31665 3.11669V105.831C0.31665 107.356 1.55256 108.592 3.07714 108.592H74.8685C76.393 108.592 77.6289 107.356 77.6289 105.831V3.11669C77.6289 1.59212 76.393 0.356201 74.8685 0.356201Z" fill="white"/>
<path d="M74.8684 108.643H3.07712C1.52493 108.643 0.260864 107.379 0.260864 105.827V3.11215C0.260864 1.55996 1.52493 0.295898 3.07712 0.295898H74.8684C76.4206 0.295898 77.6847 1.55996 77.6847 3.11215V105.827C77.6847 107.379 76.4206 108.643 74.8684 108.643ZM3.07712 0.407429C1.58534 0.407429 0.372395 1.62037 0.372395 3.11215V105.827C0.372395 107.318 1.58534 108.531 3.07712 108.531H74.8684C76.3602 108.531 77.5732 107.318 77.5732 105.827V3.11215C77.5732 1.62037 76.3602 0.407429 74.8684 0.407429H3.07712Z" fill="#65A7DD"/>
<path d="M69.5984 8.88868C69.5984 9.03274 69.4822 9.15358 69.3335 9.15358C69.1848 9.15358 69.0686 9.03739 69.0686 8.88868C69.0686 8.73996 69.1848 8.62378 69.3335 8.62378C69.4822 8.62378 69.5984 8.73996 69.5984 8.88868Z" fill="white"/>
<path d="M56.9904 8.88868C56.9904 9.03274 56.8742 9.15358 56.7255 9.15358C56.5768 9.15358 56.4606 9.03739 56.4606 8.88868C56.4606 8.73996 56.5768 8.62378 56.7255 8.62378C56.8742 8.62378 56.9904 8.73996 56.9904 8.88868Z" fill="white"/>
<path d="M33.7539 8.97242C33.7539 9.11648 33.6377 9.23732 33.489 9.23732C33.3403 9.23732 33.2241 9.12113 33.2241 8.97242C33.2241 8.82371 33.3403 8.70752 33.489 8.70752C33.6377 8.70752 33.7539 8.82371 33.7539 8.97242Z" fill="white"/>
<path d="M69.5984 18.7131C69.5984 18.8572 69.4822 18.978 69.3335 18.978C69.1848 18.978 69.0686 18.8618 69.0686 18.7131C69.0686 18.5644 69.1848 18.4482 69.3335 18.4482C69.4822 18.4482 69.5984 18.5644 69.5984 18.7131Z" fill="white"/>
<path d="M69.5984 27.6777C69.5984 27.8218 69.4822 27.9426 69.3335 27.9426C69.1848 27.9426 69.0686 27.8265 69.0686 27.6777C69.0686 27.529 69.1848 27.4128 69.3335 27.4128C69.4822 27.4128 69.5984 27.529 69.5984 27.6777Z" fill="white"/>
<path d="M9.04884 9.15357C9.04884 9.29764 8.93266 9.41846 8.78394 9.41846C8.63523 9.41846 8.51904 9.30228 8.51904 9.15357C8.51904 9.00486 8.63523 8.88867 8.78394 8.88867C8.93266 8.88867 9.04884 9.00486 9.04884 9.15357Z" fill="white"/>
<path d="M21.7964 8.97242C21.7964 9.11648 21.6802 9.23732 21.5315 9.23732C21.3828 9.23732 21.2666 9.12113 21.2666 8.97242C21.2666 8.82371 21.3828 8.70752 21.5315 8.70752C21.6802 8.70752 21.7964 8.82371 21.7964 8.97242Z" fill="white"/>
<path d="M9.04884 18.5039C9.04884 18.648 8.93266 18.7688 8.78394 18.7688C8.63523 18.7688 8.51904 18.6526 8.51904 18.5039C8.51904 18.3552 8.63523 18.239 8.78394 18.239C8.93266 18.239 9.04884 18.3552 9.04884 18.5039Z" fill="white"/>
<path d="M9.04884 27.7427C9.04884 27.8867 8.93266 28.0076 8.78394 28.0076C8.63523 28.0076 8.51904 27.8914 8.51904 27.7427C8.51904 27.594 8.63523 27.4778 8.78394 27.4778C8.93266 27.4778 9.04884 27.594 9.04884 27.7427Z" fill="white"/>
<path d="M9.04884 37.0095C9.04884 37.1536 8.93266 37.2744 8.78394 37.2744C8.63523 37.2744 8.51904 37.1582 8.51904 37.0095C8.51904 36.8608 8.63523 36.7446 8.78394 36.7446C8.93266 36.7446 9.04884 36.8608 9.04884 37.0095Z" fill="white"/>
<path d="M9.04884 43.0137C9.04884 43.1577 8.93266 43.2786 8.78394 43.2786C8.63523 43.2786 8.51904 43.1624 8.51904 43.0137C8.51904 42.865 8.63523 42.7488 8.78394 42.7488C8.93266 42.7488 9.04884 42.865 9.04884 43.0137Z" fill="white"/>
<path d="M9.04884 49.2412C9.04884 49.3853 8.93266 49.5061 8.78394 49.5061C8.63523 49.5061 8.51904 49.3899 8.51904 49.2412C8.51904 49.0925 8.63523 48.9763 8.78394 48.9763C8.93266 48.9763 9.04884 49.0925 9.04884 49.2412Z" fill="white"/>
<path d="M9.04884 55.25C9.04884 55.3941 8.93266 55.5149 8.78394 55.5149C8.63523 55.5149 8.51904 55.3987 8.51904 55.25C8.51904 55.1013 8.63523 54.9851 8.78394 54.9851C8.93266 54.9851 9.04884 55.1013 9.04884 55.25Z" fill="white"/>
<path d="M9.04884 79.3044C9.04884 79.4485 8.93266 79.5693 8.78394 79.5693C8.63523 79.5693 8.51904 79.4531 8.51904 79.3044C8.51904 79.1557 8.63523 79.0396 8.78394 79.0396C8.93266 79.0396 9.04884 79.1557 9.04884 79.3044Z" fill="white"/>
<path d="M9.04884 85.5271C9.04884 85.6712 8.93266 85.792 8.78394 85.792C8.63523 85.792 8.51904 85.6758 8.51904 85.5271C8.51904 85.3784 8.63523 85.2622 8.78394 85.2622C8.93266 85.2622 9.04884 85.3784 9.04884 85.5271Z" fill="white"/>
<path d="M9.04884 91.5918C9.04884 91.7359 8.93266 91.8567 8.78394 91.8567C8.63523 91.8567 8.51904 91.7405 8.51904 91.5918C8.51904 91.4431 8.63523 91.3269 8.78394 91.3269C8.93266 91.3269 9.04884 91.4431 9.04884 91.5918Z" fill="white"/>
<path d="M9.15577 100.51C9.15577 100.654 9.03959 100.775 8.89088 100.775C8.74216 100.775 8.62598 100.659 8.62598 100.51C8.62598 100.361 8.74216 100.245 8.89088 100.245C9.03959 100.245 9.15577 100.361 9.15577 100.51Z" fill="white"/>
<path d="M30.984 100.77C30.984 100.914 30.8678 101.035 30.7191 101.035C30.5704 101.035 30.4542 100.919 30.4542 100.77C30.4542 100.622 30.5704 100.505 30.7191 100.505C30.8678 100.505 30.984 100.622 30.984 100.77Z" fill="white"/>
<path d="M43.2576 100.77C43.2576 100.914 43.1414 101.035 42.9927 101.035C42.844 101.035 42.7278 100.919 42.7278 100.77C42.7278 100.622 42.844 100.505 42.9927 100.505C43.1414 100.505 43.2576 100.622 43.2576 100.77Z" fill="white"/>
<path d="M55.2105 100.77C55.2105 100.914 55.0943 101.035 54.9456 101.035C54.7968 101.035 54.6807 100.919 54.6807 100.77C54.6807 100.622 54.7968 100.505 54.9456 100.505C55.0943 100.505 55.2105 100.622 55.2105 100.77Z" fill="white"/>
<path d="M69.5984 73.1003C69.5984 73.2444 69.4822 73.3652 69.3335 73.3652C69.1848 73.3652 69.0686 73.249 69.0686 73.1003C69.0686 72.9516 69.1848 72.8354 69.3335 72.8354C69.4822 72.8354 69.5984 72.9516 69.5984 73.1003Z" fill="white"/>
<path d="M69.5984 79.0303C69.5984 79.1743 69.4822 79.2952 69.3335 79.2952C69.1848 79.2952 69.0686 79.179 69.0686 79.0303C69.0686 78.8816 69.1848 78.7654 69.3335 78.7654C69.4822 78.7654 69.5984 78.8816 69.5984 79.0303Z" fill="white"/>
<path d="M69.5984 84.8718C69.5984 85.0159 69.4822 85.1367 69.3335 85.1367C69.1848 85.1367 69.0686 85.0205 69.0686 84.8718C69.0686 84.7231 69.1848 84.6069 69.3335 84.6069C69.4822 84.6069 69.5984 84.7231 69.5984 84.8718Z" fill="white"/>
<path d="M69.5984 90.8391C69.5984 90.9832 69.4822 91.104 69.3335 91.104C69.1848 91.104 69.0686 90.9878 69.0686 90.8391C69.0686 90.6904 69.1848 90.5742 69.3335 90.5742C69.4822 90.5742 69.5984 90.6904 69.5984 90.8391Z" fill="white"/>
<path d="M69.5984 99.9338C69.5984 100.078 69.4822 100.199 69.3335 100.199C69.1848 100.199 69.0686 100.083 69.0686 99.9338C69.0686 99.7851 69.1848 99.6689 69.3335 99.6689C69.4822 99.6689 69.5984 99.7851 69.5984 99.9338Z" fill="white"/>
<path d="M10.852 14.8745C10.3547 14.3307 9.77379 13.8009 9.53213 13.5221C9.35088 13.313 9.22076 13.155 9.16964 13.0899V13.0574C9.16964 13.0574 9.16499 13.062 9.1557 13.076C9.1464 13.0667 9.14174 13.0574 9.14174 13.0574V13.0899C9.09062 13.155 8.9605 13.313 8.77925 13.5221C8.5376 13.8009 7.95669 14.3307 7.45943 14.8745C6.96217 15.4182 6.92034 15.9619 7.01329 16.4127C7.10624 16.8635 7.58026 17.2864 8.31918 17.1935C8.55154 17.1656 8.72349 17.054 8.84432 16.9146C8.76067 17.5513 8.41677 17.8859 8.41677 17.8859H9.85279C9.59254 17.5931 9.49958 17.1795 9.46241 16.9193C9.58788 17.0587 9.75519 17.1656 9.98755 17.1935C10.7265 17.2864 11.2005 16.8635 11.2934 16.4127C11.3864 15.9619 11.3492 15.4182 10.8473 14.8745H10.852Z" fill="#151515"/>
<path d="M8.14267 11.1892H9.01636C9.10001 11.1892 9.16042 11.1706 9.20225 11.1334C9.23943 11.0962 9.26267 11.0358 9.26267 10.9521V9.74385H6.97156V9.41853L9.76922 5.29639H10.0945V9.41853H11.1867V9.74385H10.0945V10.9521C10.0945 11.0358 10.1131 11.0962 10.155 11.1334C10.1921 11.1706 10.2572 11.1892 10.3408 11.1892H11.2145V11.4773H8.14732V11.1892H8.14267ZM7.38516 9.42318H9.26267V6.66269L7.38516 9.42318Z" fill="black"/>
<path d="M71.0112 95.542H70.1375C70.0538 95.542 69.9934 95.5606 69.9516 95.5978C69.9144 95.635 69.8912 95.6954 69.8912 95.7791V96.9874H72.1823V97.3127L69.3846 101.435H69.0593V97.3127H67.9672V96.9874H69.0593V95.7791C69.0593 95.6954 69.0407 95.635 68.9989 95.5978C68.9617 95.5606 68.8967 95.542 68.813 95.542H67.9393V95.2539H71.0065V95.542H71.0112ZM71.7687 97.3127H69.8912V100.073L71.7687 97.3127Z" fill="black"/>
<path d="M32.5269 16.7193C30.8167 14.8558 28.8323 13.0387 28.0051 12.086C27.3824 11.3703 26.9409 10.8266 26.7596 10.5988V10.4827C26.7596 10.4827 26.741 10.5013 26.7131 10.5431C26.6853 10.5059 26.6667 10.4827 26.6667 10.4827V10.5988C26.4854 10.8266 26.0439 11.3703 25.4212 12.086C24.5893 13.0387 22.6049 14.8558 20.8994 16.7193C19.1892 18.5829 19.0544 20.4465 19.3751 21.9894C19.7004 23.5323 21.313 24.9869 23.8551 24.6708C24.6544 24.5732 25.2353 24.1875 25.6582 23.7135C25.3747 25.8977 24.1897 27.0363 24.1897 27.0363H29.1158C28.2189 26.0325 27.8982 24.6104 27.782 23.7228C28.2049 24.1922 28.7858 24.5686 29.5759 24.6708C32.1133 24.9869 33.7305 23.5369 34.0559 21.9894C34.3812 20.4465 34.2418 18.5829 32.5315 16.7193H32.5269Z" fill="#151515"/>
<path d="M32.5269 90.8065C30.8167 92.67 28.8323 94.4871 28.0051 95.4398C27.3824 96.1555 26.9409 96.6992 26.7596 96.927V97.0431C26.7596 97.0431 26.741 97.0246 26.7131 96.9827C26.6853 97.0199 26.6667 97.0431 26.6667 97.0431V96.927C26.4854 96.6992 26.0439 96.1555 25.4212 95.4398C24.5893 94.4871 22.6049 92.67 20.8994 90.8065C19.1892 88.9429 19.0544 87.0794 19.3751 85.5365C19.7004 83.9936 21.313 82.539 23.8551 82.855C24.6544 82.9526 25.2353 83.3383 25.6582 83.8123C25.3747 81.6281 24.1897 80.4895 24.1897 80.4895H29.1158C28.2189 81.4933 27.8982 82.9154 27.782 83.803C28.2049 83.3336 28.7858 82.9572 29.5759 82.855C32.1133 82.539 33.7305 83.9889 34.0559 85.5365C34.3812 87.0794 34.2418 88.9429 32.5315 90.8065H32.5269Z" fill="#151515"/>
<path d="M57.8686 16.7193C56.1584 14.8558 54.174 13.0387 53.3468 12.086C52.724 11.3703 52.2825 10.8266 52.1013 10.5988V10.4827C52.1013 10.4827 52.0827 10.5013 52.0548 10.5431C52.0269 10.5059 52.0083 10.4827 52.0083 10.4827V10.5988C51.8271 10.8266 51.3856 11.3703 50.7629 12.086C49.931 13.0387 47.9466 14.8558 46.2411 16.7193C44.5309 18.5829 44.3961 20.4465 44.7167 21.9894C45.0374 23.5323 46.6547 24.9869 49.1967 24.6708C49.9961 24.5732 50.577 24.1875 50.9999 23.7135C50.7164 25.8977 49.5313 27.0363 49.5313 27.0363H54.4575C53.5605 26.0325 53.2399 24.6104 53.1237 23.7228C53.5466 24.1922 54.1275 24.5686 54.9175 24.6708C57.455 24.9869 59.0722 23.5369 59.3975 21.9894C59.7228 20.4418 59.5834 18.5829 57.8732 16.7193H57.8686Z" fill="#151515"/>
<path d="M57.8686 90.8065C56.1584 92.67 54.174 94.4871 53.3468 95.4398C52.724 96.1555 52.2825 96.6992 52.1013 96.927V97.0431C52.1013 97.0431 52.0827 97.0246 52.0548 96.9827C52.0269 97.0199 52.0083 97.0431 52.0083 97.0431V96.927C51.8271 96.6992 51.3856 96.1555 50.7629 95.4398C49.931 94.4871 47.9466 92.67 46.2411 90.8065C44.5309 88.9429 44.3961 87.0794 44.7167 85.5365C45.0374 83.9936 46.6547 82.539 49.1967 82.855C49.9961 82.9526 50.577 83.3383 50.9999 83.8123C50.7164 81.6281 49.5313 80.4895 49.5313 80.4895H54.4575C53.5605 81.4933 53.2399 82.9154 53.1237 83.803C53.5466 83.3336 54.1275 82.9572 54.9175 82.855C57.455 82.539 59.0722 83.9889 59.3975 85.5365C59.7228 87.084 59.5834 88.9429 57.8732 90.8065H57.8686Z" fill="#151515"/>
<path d="M71.4154 92.0891C70.9182 92.6328 70.3373 93.1626 70.0956 93.4414C69.9144 93.6506 69.7842 93.8086 69.7331 93.8736V93.9062C69.7331 93.9062 69.7285 93.9015 69.7192 93.8876C69.7099 93.8969 69.7052 93.9062 69.7052 93.9062V93.8736C69.6541 93.8086 69.524 93.6506 69.3428 93.4414C69.1011 93.1626 68.5202 92.6328 68.0229 92.0891C67.5257 91.5454 67.4838 91.0016 67.5768 90.5508C67.6697 90.1 68.1437 89.6771 68.8827 89.7701C69.115 89.798 69.287 89.9095 69.4078 90.0489C69.3241 89.4122 68.9803 89.0776 68.9803 89.0776H70.4163C70.156 89.3704 70.0631 89.784 70.0259 90.0443C70.1514 89.9049 70.3187 89.798 70.551 89.7701C71.29 89.6771 71.764 90.1 71.8569 90.5508C71.9499 91.0016 71.9127 91.5454 71.4108 92.0891H71.4154Z" fill="#151515"/>
</svg>
