<svg width="78" height="109" viewBox="0 0 78 109" fill="none" xmlns="http://www.w3.org/2000/svg">
<path d="M74.9554 0.356201H3.16406C1.63948 0.356201 0.403564 1.59212 0.403564 3.11669V105.831C0.403564 107.356 1.63948 108.592 3.16406 108.592H74.9554C76.4799 108.592 77.7159 107.356 77.7159 105.831V3.11669C77.7159 1.59212 76.4799 0.356201 74.9554 0.356201Z" fill="white"/>
<path d="M74.9555 108.643H3.16416C1.61196 108.643 0.3479 107.379 0.3479 105.827V3.11215C0.3479 1.55996 1.61196 0.295898 3.16416 0.295898H74.9555C76.5077 0.295898 77.7717 1.55996 77.7717 3.11215V105.827C77.7717 107.379 76.5077 108.643 74.9555 108.643ZM3.16416 0.407429C1.67238 0.407429 0.459431 1.62037 0.459431 3.11215V105.827C0.459431 107.318 1.67238 108.531 3.16416 108.531H74.9555C76.4473 108.531 77.6602 107.318 77.6602 105.827V3.11215C77.6602 1.62037 76.4473 0.407429 74.9555 0.407429H3.16416Z" fill="#65A7DD"/>
<path d="M69.6854 8.88868C69.6854 9.03274 69.5693 9.15358 69.4205 9.15358C69.2718 9.15358 69.1556 9.03739 69.1556 8.88868C69.1556 8.73996 69.2718 8.62378 69.4205 8.62378C69.5693 8.62378 69.6854 8.73996 69.6854 8.88868Z" fill="white"/>
<path d="M57.0773 8.88868C57.0773 9.03274 56.9611 9.15358 56.8124 9.15358C56.6637 9.15358 56.5475 9.03739 56.5475 8.88868C56.5475 8.73996 56.6637 8.62378 56.8124 8.62378C56.9611 8.62378 57.0773 8.73996 57.0773 8.88868Z" fill="white"/>
<path d="M45.4824 8.88868C45.4824 9.03274 45.3662 9.15358 45.2175 9.15358C45.0688 9.15358 44.9526 9.03739 44.9526 8.88868C44.9526 8.73996 45.0688 8.62378 45.2175 8.62378C45.3662 8.62378 45.4824 8.73996 45.4824 8.88868Z" fill="white"/>
<path d="M33.8408 8.97242C33.8408 9.11648 33.7246 9.23732 33.5759 9.23732C33.4272 9.23732 33.311 9.12113 33.311 8.97242C33.311 8.82371 33.4272 8.70752 33.5759 8.70752C33.7246 8.70752 33.8408 8.82371 33.8408 8.97242Z" fill="white"/>
<path d="M69.6854 18.7131C69.6854 18.8572 69.5693 18.978 69.4205 18.978C69.2718 18.978 69.1556 18.8618 69.1556 18.7131C69.1556 18.5644 69.2718 18.4482 69.4205 18.4482C69.5693 18.4482 69.6854 18.5644 69.6854 18.7131Z" fill="white"/>
<path d="M69.6854 27.6777C69.6854 27.8218 69.5693 27.9426 69.4205 27.9426C69.2718 27.9426 69.1556 27.8265 69.1556 27.6777C69.1556 27.529 69.2718 27.4128 69.4205 27.4128C69.5693 27.4128 69.6854 27.529 69.6854 27.6777Z" fill="white"/>
<path d="M69.6854 37.0745C69.6854 37.2185 69.5693 37.3394 69.4205 37.3394C69.2718 37.3394 69.1556 37.2232 69.1556 37.0745C69.1556 36.9258 69.2718 36.8096 69.4205 36.8096C69.5693 36.8096 69.6854 36.9258 69.6854 37.0745Z" fill="white"/>
<path d="M69.6854 43.0137C69.6854 43.1577 69.5693 43.2786 69.4205 43.2786C69.2718 43.2786 69.1556 43.1624 69.1556 43.0137C69.1556 42.865 69.2718 42.7488 69.4205 42.7488C69.5693 42.7488 69.6854 42.865 69.6854 43.0137Z" fill="white"/>
<path d="M69.6854 48.9763C69.6854 49.1204 69.5693 49.2412 69.4205 49.2412C69.2718 49.2412 69.1556 49.125 69.1556 48.9763C69.1556 48.8276 69.2718 48.7114 69.4205 48.7114C69.5693 48.7114 69.6854 48.8276 69.6854 48.9763Z" fill="white"/>
<path d="M9.13597 9.15357C9.13597 9.29764 9.01981 9.41846 8.8711 9.41846C8.72239 9.41846 8.6062 9.30228 8.6062 9.15357C8.6062 9.00486 8.72239 8.88867 8.8711 8.88867C9.01981 8.88867 9.13597 9.00486 9.13597 9.15357Z" fill="white"/>
<path d="M21.888 8.97242C21.888 9.11648 21.7719 9.23732 21.6232 9.23732C21.4745 9.23732 21.3583 9.12113 21.3583 8.97242C21.3583 8.82371 21.4745 8.70752 21.6232 8.70752C21.7719 8.70752 21.888 8.82371 21.888 8.97242Z" fill="white"/>
<path d="M9.13597 18.5039C9.13597 18.648 9.01981 18.7688 8.8711 18.7688C8.72239 18.7688 8.6062 18.6526 8.6062 18.5039C8.6062 18.3552 8.72239 18.239 8.8711 18.239C9.01981 18.239 9.13597 18.3552 9.13597 18.5039Z" fill="white"/>
<path d="M9.13597 27.7427C9.13597 27.8867 9.01981 28.0076 8.8711 28.0076C8.72239 28.0076 8.6062 27.8914 8.6062 27.7427C8.6062 27.594 8.72239 27.4778 8.8711 27.4778C9.01981 27.4778 9.13597 27.594 9.13597 27.7427Z" fill="white"/>
<path d="M9.13597 37.0095C9.13597 37.1536 9.01981 37.2744 8.8711 37.2744C8.72239 37.2744 8.6062 37.1582 8.6062 37.0095C8.6062 36.8608 8.72239 36.7446 8.8711 36.7446C9.01981 36.7446 9.13597 36.8608 9.13597 37.0095Z" fill="white"/>
<path d="M9.13597 43.0137C9.13597 43.1577 9.01981 43.2786 8.8711 43.2786C8.72239 43.2786 8.6062 43.1624 8.6062 43.0137C8.6062 42.865 8.72239 42.7488 8.8711 42.7488C9.01981 42.7488 9.13597 42.865 9.13597 43.0137Z" fill="white"/>
<path d="M9.13597 49.2412C9.13597 49.3853 9.01981 49.5061 8.8711 49.5061C8.72239 49.5061 8.6062 49.3899 8.6062 49.2412C8.6062 49.0925 8.72239 48.9763 8.8711 48.9763C9.01981 48.9763 9.13597 49.0925 9.13597 49.2412Z" fill="white"/>
<path d="M9.13597 55.25C9.13597 55.3941 9.01981 55.5149 8.8711 55.5149C8.72239 55.5149 8.6062 55.3987 8.6062 55.25C8.6062 55.1013 8.72239 54.9851 8.8711 54.9851C9.01981 54.9851 9.13597 55.1013 9.13597 55.25Z" fill="white"/>
<path d="M9.13597 61.259C9.13597 61.4031 9.01981 61.5239 8.8711 61.5239C8.72239 61.5239 8.6062 61.4078 8.6062 61.259C8.6062 61.1103 8.72239 60.9941 8.8711 60.9941C9.01981 60.9941 9.13597 61.1103 9.13597 61.259Z" fill="white"/>
<path d="M9.13597 67.4863C9.13597 67.6304 9.01981 67.7512 8.8711 67.7512C8.72239 67.7512 8.6062 67.635 8.6062 67.4863C8.6062 67.3376 8.72239 67.2214 8.8711 67.2214C9.01981 67.2214 9.13597 67.3376 9.13597 67.4863Z" fill="white"/>
<path d="M9.13597 73.7278C9.13597 73.8718 9.01981 73.9927 8.8711 73.9927C8.72239 73.9927 8.6062 73.8765 8.6062 73.7278C8.6062 73.5791 8.72239 73.4629 8.8711 73.4629C9.01981 73.4629 9.13597 73.5791 9.13597 73.7278Z" fill="white"/>
<path d="M9.13597 79.3044C9.13597 79.4485 9.01981 79.5693 8.8711 79.5693C8.72239 79.5693 8.6062 79.4531 8.6062 79.3044C8.6062 79.1557 8.72239 79.0396 8.8711 79.0396C9.01981 79.0396 9.13597 79.1557 9.13597 79.3044Z" fill="white"/>
<path d="M9.13597 85.5271C9.13597 85.6712 9.01981 85.792 8.8711 85.792C8.72239 85.792 8.6062 85.6758 8.6062 85.5271C8.6062 85.3784 8.72239 85.2622 8.8711 85.2622C9.01981 85.2622 9.13597 85.3784 9.13597 85.5271Z" fill="white"/>
<path d="M9.13597 91.5918C9.13597 91.7359 9.01981 91.8567 8.8711 91.8567C8.72239 91.8567 8.6062 91.7405 8.6062 91.5918C8.6062 91.4431 8.72239 91.3269 8.8711 91.3269C9.01981 91.3269 9.13597 91.4431 9.13597 91.5918Z" fill="white"/>
<path d="M9.24281 100.51C9.24281 100.654 9.12662 100.775 8.97791 100.775C8.8292 100.775 8.71301 100.659 8.71301 100.51C8.71301 100.361 8.8292 100.245 8.97791 100.245C9.12662 100.245 9.24281 100.361 9.24281 100.51Z" fill="white"/>
<path d="M18.779 100.77C18.779 100.914 18.6629 101.035 18.5142 101.035C18.3655 101.035 18.2493 100.919 18.2493 100.77C18.2493 100.622 18.3655 100.505 18.5142 100.505C18.6629 100.505 18.779 100.622 18.779 100.77Z" fill="white"/>
<path d="M31.0712 100.77C31.0712 100.914 30.955 101.035 30.8063 101.035C30.6576 101.035 30.5414 100.919 30.5414 100.77C30.5414 100.622 30.6576 100.505 30.8063 100.505C30.955 100.505 31.0712 100.622 31.0712 100.77Z" fill="white"/>
<path d="M43.3445 100.77C43.3445 100.914 43.2283 101.035 43.0796 101.035C42.9309 101.035 42.8147 100.919 42.8147 100.77C42.8147 100.622 42.9309 100.505 43.0796 100.505C43.2283 100.505 43.3445 100.622 43.3445 100.77Z" fill="white"/>
<path d="M55.2975 100.77C55.2975 100.914 55.1813 101.035 55.0326 101.035C54.8839 101.035 54.7677 100.919 54.7677 100.77C54.7677 100.622 54.8839 100.505 55.0326 100.505C55.1813 100.505 55.2975 100.622 55.2975 100.77Z" fill="white"/>
<path d="M69.6854 55.106C69.6854 55.25 69.5693 55.3708 69.4205 55.3708C69.2718 55.3708 69.1556 55.2547 69.1556 55.106C69.1556 54.9573 69.2718 54.8411 69.4205 54.8411C69.5693 54.8411 69.6854 54.9573 69.6854 55.106Z" fill="white"/>
<path d="M69.6854 60.8362C69.6854 60.9803 69.5693 61.1011 69.4205 61.1011C69.2718 61.1011 69.1556 60.9849 69.1556 60.8362C69.1556 60.6875 69.2718 60.5713 69.4205 60.5713C69.5693 60.5713 69.6854 60.6875 69.6854 60.8362Z" fill="white"/>
<path d="M69.6854 67.0125C69.6854 67.1565 69.5693 67.2773 69.4205 67.2773C69.2718 67.2773 69.1556 67.1612 69.1556 67.0125C69.1556 66.8637 69.2718 66.7476 69.4205 66.7476C69.5693 66.7476 69.6854 66.8637 69.6854 67.0125Z" fill="white"/>
<path d="M69.6854 73.1003C69.6854 73.2444 69.5693 73.3652 69.4205 73.3652C69.2718 73.3652 69.1556 73.249 69.1556 73.1003C69.1556 72.9516 69.2718 72.8354 69.4205 72.8354C69.5693 72.8354 69.6854 72.9516 69.6854 73.1003Z" fill="white"/>
<path d="M69.6854 79.0303C69.6854 79.1743 69.5693 79.2952 69.4205 79.2952C69.2718 79.2952 69.1556 79.179 69.1556 79.0303C69.1556 78.8816 69.2718 78.7654 69.4205 78.7654C69.5693 78.7654 69.6854 78.8816 69.6854 79.0303Z" fill="white"/>
<path d="M69.6854 84.8718C69.6854 85.0159 69.5693 85.1367 69.4205 85.1367C69.2718 85.1367 69.1556 85.0205 69.1556 84.8718C69.1556 84.7231 69.2718 84.6069 69.4205 84.6069C69.5693 84.6069 69.6854 84.7231 69.6854 84.8718Z" fill="white"/>
<path d="M69.6854 90.8391C69.6854 90.9832 69.5693 91.104 69.4205 91.104C69.2718 91.104 69.1556 90.9878 69.1556 90.8391C69.1556 90.6904 69.2718 90.5742 69.4205 90.5742C69.5693 90.5742 69.6854 90.6904 69.6854 90.8391Z" fill="white"/>
<path d="M69.6854 99.9338C69.6854 100.078 69.5693 100.199 69.4205 100.199C69.2718 100.199 69.1556 100.083 69.1556 99.9338C69.1556 99.7851 69.2718 99.6689 69.4205 99.6689C69.5693 99.6689 69.6854 99.7851 69.6854 99.9338Z" fill="white"/>
<path d="M6.75665 10.9289C6.51035 10.8127 6.31982 10.6547 6.1897 10.4502C6.05957 10.2504 5.98987 10.0227 5.98987 9.77638C5.98987 9.49289 6.06421 9.27912 6.20828 9.12576C6.35234 8.97704 6.51966 8.89803 6.71484 8.89803C6.8775 8.89803 7.00298 8.94915 7.09593 9.04675C7.18887 9.14434 7.23534 9.26982 7.23534 9.42318C7.23534 9.52542 7.20745 9.61837 7.14704 9.70667C7.08662 9.79497 7.00762 9.86002 6.91467 9.90185C6.83102 9.94367 6.76596 9.98551 6.71484 10.0273C6.66837 10.0692 6.64047 10.1249 6.64047 10.1993C6.64047 10.3898 6.71485 10.5432 6.86356 10.6501C7.01227 10.757 7.26786 10.8127 7.63035 10.8127C8.07649 10.8127 8.39716 10.6222 8.59699 10.2365C8.79682 9.85073 8.89442 9.36277 8.89442 8.77721C8.89442 8.22418 8.79683 7.80127 8.60629 7.50384C8.41576 7.21106 8.09973 7.06236 7.66753 7.06236C7.49094 7.06236 7.34224 7.09025 7.21676 7.13672C7.09128 7.18784 6.96115 7.28078 6.83103 7.41091C6.77061 7.47132 6.71949 7.55032 6.68231 7.64791C6.64513 7.7455 6.62189 7.83381 6.62189 7.90352C6.62189 7.96858 6.60331 8.02435 6.57078 8.06618C6.53825 8.108 6.49641 8.13123 6.44064 8.13123C6.34305 8.13123 6.29658 8.05687 6.29658 7.90816V4.79448L6.49641 4.64111C6.62188 4.748 6.80778 4.84095 7.04944 4.91066C7.29109 4.98502 7.51883 5.01754 7.7326 5.01754C8.02073 5.01754 8.28098 4.98966 8.51799 4.93389C8.75501 4.87813 8.99201 4.78054 9.23832 4.63647L9.3452 4.76195C9.12677 5.04543 8.86189 5.27314 8.54588 5.44045C8.22986 5.6124 7.89524 5.69606 7.54205 5.69606C7.31898 5.69606 7.1424 5.68212 7.00763 5.65423C6.8775 5.62635 6.74737 5.57987 6.62189 5.5148V7.23896L6.67766 7.25754C6.82172 7.09024 6.99833 6.96011 7.20746 6.86717C7.41658 6.77422 7.63037 6.72775 7.85344 6.72775C8.48547 6.72775 8.97807 6.91364 9.32662 7.28542C9.67981 7.6572 9.85642 8.14983 9.85642 8.76327C9.85642 9.20011 9.75416 9.59978 9.55433 9.95297C9.3545 10.3062 9.08496 10.585 8.74571 10.7895C8.4111 10.9893 8.03931 11.0916 7.635 11.0916C7.30039 11.0916 7.00761 11.0311 6.76131 10.915L6.75665 10.9289Z" fill="black"/>
<path d="M70.3594 95.6861C70.6057 95.8023 70.7962 95.9603 70.9264 96.1648C71.0565 96.3646 71.1262 96.5923 71.1262 96.8386C71.1262 97.1221 71.0518 97.3359 70.9078 97.4893C70.7637 97.638 70.5964 97.7123 70.4012 97.7123C70.2386 97.7123 70.1131 97.6612 70.0201 97.5636C69.9272 97.466 69.8807 97.3405 69.8807 97.1872C69.8807 97.0849 69.9086 96.992 69.969 96.9037C70.0294 96.8154 70.1084 96.7503 70.2014 96.7085C70.285 96.6667 70.3501 96.6249 70.4012 96.583C70.4477 96.5412 70.4756 96.4854 70.4756 96.4111C70.4756 96.2205 70.4012 96.0672 70.2525 95.9603C70.1038 95.8534 69.8482 95.7977 69.4857 95.7977C69.0396 95.7977 68.7189 95.9882 68.5191 96.3739C68.3192 96.7596 68.2216 97.2476 68.2216 97.8332C68.2216 98.3862 68.3192 98.8091 68.5098 99.1065C68.7003 99.3993 69.0163 99.548 69.4485 99.548C69.6251 99.548 69.7738 99.5201 69.8993 99.469C70.0248 99.4179 70.1549 99.3249 70.285 99.1948C70.3454 99.1344 70.3966 99.0554 70.4337 98.9578C70.4709 98.8602 70.4942 98.7719 70.4942 98.7022C70.4942 98.6371 70.5127 98.5814 70.5453 98.5396C70.5778 98.4977 70.6197 98.4745 70.6754 98.4745C70.773 98.4745 70.8195 98.5488 70.8195 98.7022V101.816L70.6197 101.969C70.4942 101.862 70.3083 101.769 70.0666 101.7C69.825 101.625 69.5972 101.593 69.3835 101.593C69.0953 101.593 68.8351 101.621 68.5981 101.672C68.3611 101.728 68.124 101.825 67.8777 101.969L67.7709 101.844C67.9893 101.56 68.2542 101.333 68.5702 101.165C68.8862 100.993 69.2208 100.91 69.574 100.91C69.7971 100.91 69.9737 100.924 70.1084 100.951C70.2386 100.979 70.3687 101.026 70.4942 101.091V99.3668L70.4384 99.3482C70.2943 99.5155 70.1177 99.6456 69.9086 99.7385C69.6995 99.8315 69.4857 99.878 69.2626 99.878C68.6306 99.878 68.138 99.6921 67.7894 99.3203C67.4362 98.9485 67.2596 98.4559 67.2596 97.8425C67.2596 97.4056 67.3619 97.0059 67.5617 96.6528C67.7616 96.2996 68.0311 96.0207 68.3704 95.8162C68.705 95.6164 69.0767 95.5142 69.4811 95.5142C69.8157 95.5142 70.1084 95.5746 70.3548 95.6908L70.3594 95.6861Z" fill="black"/>
<path d="M31.7684 16.4918C30.0581 14.6282 28.0738 12.8111 27.2465 11.8584C26.6238 11.1428 26.1823 10.599 26.0011 10.3713V10.2551C26.0011 10.2551 25.9825 10.2737 25.9546 10.3155C25.9267 10.2784 25.9081 10.2551 25.9081 10.2551V10.3713C25.7269 10.599 25.2854 11.1428 24.6627 11.8584C23.8308 12.8111 21.8464 14.6282 20.1409 16.4918C18.4306 18.3553 18.2959 20.2189 18.6165 21.7618C18.9418 23.3047 20.5545 24.7593 23.0965 24.4433C23.8959 24.3457 24.4768 23.96 24.8997 23.486C24.6162 25.6702 23.4311 26.8088 23.4311 26.8088H28.3573C27.4603 25.805 27.1397 24.3829 27.0235 23.4952C27.4464 23.9646 28.0273 24.3411 28.8173 24.4433C31.3548 24.7593 32.972 23.3094 33.2973 21.7618C33.6226 20.2189 33.4832 18.3553 31.773 16.4918H31.7684Z" fill="#151515"/>
<path d="M31.7684 90.5787C30.0581 92.4423 28.0738 94.2594 27.2465 95.2121C26.6238 95.9277 26.1823 96.4715 26.0011 96.6992V96.8154C26.0011 96.8154 25.9825 96.7968 25.9546 96.755C25.9267 96.7921 25.9081 96.8154 25.9081 96.8154V96.6992C25.7269 96.4715 25.2854 95.9277 24.6627 95.2121C23.8308 94.2594 21.8464 92.4423 20.1409 90.5787C18.4306 88.7151 18.2959 86.8516 18.6165 85.3087C18.9418 83.7658 20.5545 82.3112 23.0965 82.6272C23.8959 82.7248 24.4768 83.1105 24.8997 83.5845C24.6162 81.4003 23.4311 80.2617 23.4311 80.2617H28.3573C27.4603 81.2655 27.1397 82.6876 27.0235 83.5752C27.4464 83.1059 28.0273 82.7294 28.8173 82.6272C31.3548 82.3112 32.972 83.7611 33.2973 85.3087C33.6226 86.8516 33.4832 88.7151 31.773 90.5787H31.7684Z" fill="#151515"/>
<path d="M57.11 16.4918C55.3998 14.6282 53.4154 12.8111 52.5882 11.8584C51.9655 11.1428 51.524 10.599 51.3427 10.3713V10.2551C51.3427 10.2551 51.3242 10.2737 51.2963 10.3155C51.2684 10.2784 51.2498 10.2551 51.2498 10.2551V10.3713C51.0686 10.599 50.627 11.1428 50.0043 11.8584C49.1724 12.8111 47.1881 14.6282 45.4825 16.4918C43.7723 18.3553 43.6375 20.2189 43.9582 21.7618C44.2835 23.3047 45.8961 24.7593 48.4382 24.4433C49.2375 24.3457 49.8184 23.96 50.2413 23.486C49.9578 25.6702 48.7728 26.8088 48.7728 26.8088H53.6989C52.802 25.805 52.4813 24.3829 52.3651 23.4952C52.788 23.9646 53.3689 24.3411 54.159 24.4433C56.6964 24.7593 58.3137 23.3094 58.639 21.7618C58.9643 20.2189 58.8249 18.3553 57.1147 16.4918H57.11Z" fill="#151515"/>
<path d="M57.11 90.5787C55.3998 92.4423 53.4154 94.2594 52.5882 95.2121C51.9655 95.9277 51.524 96.4715 51.3427 96.6992V96.8154C51.3427 96.8154 51.3242 96.7968 51.2963 96.755C51.2684 96.7921 51.2498 96.8154 51.2498 96.8154V96.6992C51.0686 96.4715 50.627 95.9277 50.0043 95.2121C49.1724 94.2594 47.1881 92.4423 45.4825 90.5787C43.7723 88.7151 43.6375 86.8516 43.9582 85.3087C44.2835 83.7658 45.8961 82.3112 48.4382 82.6272C49.2375 82.7248 49.8184 83.1105 50.2413 83.5845C49.9578 81.4003 48.7728 80.2617 48.7728 80.2617H53.6989C52.802 81.2655 52.4813 82.6876 52.3651 83.5752C52.788 83.1059 53.3689 82.7294 54.159 82.6272C56.6964 82.3112 58.3137 83.7611 58.639 85.3087C58.9643 86.8516 58.8249 88.7151 57.1147 90.5787H57.11Z" fill="#151515"/>
<path d="M44.2232 52.0807C42.513 50.2171 40.5286 48.4 39.7014 47.4473C39.0786 46.7316 38.6372 46.1879 38.4559 45.9602V45.844C38.4559 45.844 38.4373 45.8626 38.4094 45.9044C38.3816 45.8672 38.363 45.844 38.363 45.844V45.9602C38.1817 46.1879 37.7402 46.7316 37.1175 47.4473C36.2856 48.4 34.3012 50.2171 32.5957 52.0807C30.8855 53.9442 30.7507 55.8078 31.0714 57.3507C31.3967 58.8936 33.0093 60.3482 35.5514 60.0322C36.3507 59.9346 36.9316 59.5489 37.3545 59.0748C37.071 61.2591 35.8859 62.3976 35.8859 62.3976H40.8121C39.9152 61.3938 39.5945 59.9718 39.4783 59.0841C39.9012 59.5535 40.4821 59.9299 41.2722 60.0322C43.8096 60.3482 45.4269 58.8982 45.7522 57.3507C46.0775 55.8031 45.938 53.9442 44.2278 52.0807H44.2232Z" fill="#151515"/>
<path d="M71.0287 91.8569C70.5315 92.4006 69.9505 92.9304 69.7089 93.2093C69.5276 93.4184 69.3975 93.5764 69.3464 93.6415V93.674C69.3464 93.674 69.3417 93.6693 69.3324 93.6554C69.3231 93.6647 69.3185 93.674 69.3185 93.674V93.6415C69.2674 93.5764 69.1373 93.4184 68.956 93.2093C68.7144 92.9304 68.1334 92.4006 67.6362 91.8569C67.1389 91.3132 67.0971 90.7694 67.1901 90.3187C67.283 89.8679 67.757 89.445 68.4959 89.5379C68.7283 89.5658 68.9003 89.6773 69.0211 89.8167C68.9374 89.1801 68.5935 88.8455 68.5935 88.8455H70.0295C69.7693 89.1382 69.6763 89.5519 69.6392 89.8121C69.7646 89.6727 69.9319 89.5658 70.1643 89.5379C70.9032 89.445 71.3772 89.8679 71.4702 90.3187C71.5631 90.7694 71.526 91.3132 71.0241 91.8569H71.0287Z" fill="#151515"/>
<path d="M10.4652 14.6467C9.96798 14.1029 9.38706 13.5732 9.1454 13.2943C8.96415 13.0852 8.83404 12.9272 8.78292 12.8621V12.8296C8.78292 12.8296 8.77826 12.8342 8.76897 12.8482C8.75967 12.8389 8.75504 12.8296 8.75504 12.8296V12.8621C8.70392 12.9272 8.57378 13.0852 8.39254 13.2943C8.15088 13.5732 7.56996 14.1029 7.0727 14.6467C6.57544 15.1904 6.53363 15.7341 6.62657 16.1849C6.71952 16.6357 7.19354 17.0586 7.93246 16.9657C8.16483 16.9378 8.33678 16.8263 8.45761 16.6868C8.37396 17.3235 8.03006 17.6581 8.03006 17.6581H9.46606C9.20581 17.3653 9.11288 16.9517 9.0757 16.6915C9.20118 16.8309 9.36846 16.9378 9.60082 16.9657C10.3397 17.0586 10.8138 16.6357 10.9067 16.1849C10.9997 15.7341 10.9625 15.1904 10.4606 14.6467H10.4652Z" fill="#151515"/>
</svg>
