<svg width="78" height="109" viewBox="0 0 78 109" fill="none" xmlns="http://www.w3.org/2000/svg">
<path d="M75.0424 0.356201H3.25109C1.72652 0.356201 0.490601 1.59212 0.490601 3.11669V105.831C0.490601 107.356 1.72652 108.592 3.25109 108.592H75.0424C76.567 108.592 77.8029 107.356 77.8029 105.831V3.11669C77.8029 1.59212 76.567 0.356201 75.0424 0.356201Z" fill="white"/>
<path d="M75.0424 108.643H3.25107C1.69888 108.643 0.434814 107.379 0.434814 105.827V3.11215C0.434814 1.55996 1.69888 0.295898 3.25107 0.295898H75.0424C76.5946 0.295898 77.8586 1.55996 77.8586 3.11215V105.827C77.8586 107.379 76.5946 108.643 75.0424 108.643ZM3.25107 0.407429C1.75929 0.407429 0.546345 1.62037 0.546345 3.11215V105.827C0.546345 107.318 1.75929 108.531 3.25107 108.531H75.0424C76.5342 108.531 77.7471 107.318 77.7471 105.827V3.11215C77.7471 1.62037 76.5342 0.407429 75.0424 0.407429H3.25107Z" fill="#65A7DD"/>
<path d="M69.7725 8.88868C69.7725 9.03274 69.6563 9.15358 69.5076 9.15358C69.3589 9.15358 69.2427 9.03739 69.2427 8.88868C69.2427 8.73996 69.3589 8.62378 69.5076 8.62378C69.6563 8.62378 69.7725 8.73996 69.7725 8.88868Z" fill="white"/>
<path d="M57.1643 8.88868C57.1643 9.03274 57.0481 9.15358 56.8994 9.15358C56.7507 9.15358 56.6345 9.03739 56.6345 8.88868C56.6345 8.73996 56.7507 8.62378 56.8994 8.62378C57.0481 8.62378 57.1643 8.73996 57.1643 8.88868Z" fill="white"/>
<path d="M45.5693 8.88868C45.5693 9.03274 45.4532 9.15358 45.3044 9.15358C45.1557 9.15358 45.0396 9.03739 45.0396 8.88868C45.0396 8.73996 45.1557 8.62378 45.3044 8.62378C45.4532 8.62378 45.5693 8.73996 45.5693 8.88868Z" fill="white"/>
<path d="M33.9277 8.97242C33.9277 9.11648 33.8116 9.23732 33.6628 9.23732C33.5141 9.23732 33.3979 9.12113 33.3979 8.97242C33.3979 8.82371 33.5141 8.70752 33.6628 8.70752C33.8116 8.70752 33.9277 8.82371 33.9277 8.97242Z" fill="white"/>
<path d="M69.7725 18.7131C69.7725 18.8572 69.6563 18.978 69.5076 18.978C69.3589 18.978 69.2427 18.8618 69.2427 18.7131C69.2427 18.5644 69.3589 18.4482 69.5076 18.4482C69.6563 18.4482 69.7725 18.5644 69.7725 18.7131Z" fill="white"/>
<path d="M69.7725 27.6777C69.7725 27.8218 69.6563 27.9426 69.5076 27.9426C69.3589 27.9426 69.2427 27.8265 69.2427 27.6777C69.2427 27.529 69.3589 27.4128 69.5076 27.4128C69.6563 27.4128 69.7725 27.529 69.7725 27.6777Z" fill="white"/>
<path d="M69.7725 37.0745C69.7725 37.2185 69.6563 37.3394 69.5076 37.3394C69.3589 37.3394 69.2427 37.2232 69.2427 37.0745C69.2427 36.9258 69.3589 36.8096 69.5076 36.8096C69.6563 36.8096 69.7725 36.9258 69.7725 37.0745Z" fill="white"/>
<path d="M69.7725 43.0137C69.7725 43.1577 69.6563 43.2786 69.5076 43.2786C69.3589 43.2786 69.2427 43.1624 69.2427 43.0137C69.2427 42.865 69.3589 42.7488 69.5076 42.7488C69.6563 42.7488 69.7725 42.865 69.7725 43.0137Z" fill="white"/>
<path d="M69.7725 48.9763C69.7725 49.1204 69.6563 49.2412 69.5076 49.2412C69.3589 49.2412 69.2427 49.125 69.2427 48.9763C69.2427 48.8276 69.3589 48.7114 69.5076 48.7114C69.6563 48.7114 69.7725 48.8276 69.7725 48.9763Z" fill="white"/>
<path d="M9.22288 9.15357C9.22288 9.29764 9.10673 9.41846 8.95801 9.41846C8.8093 9.41846 8.69312 9.30228 8.69312 9.15357C8.69312 9.00486 8.8093 8.88867 8.95801 8.88867C9.10673 8.88867 9.22288 9.00486 9.22288 9.15357Z" fill="white"/>
<path d="M21.975 8.97242C21.975 9.11648 21.8588 9.23732 21.7101 9.23732C21.5614 9.23732 21.4452 9.12113 21.4452 8.97242C21.4452 8.82371 21.5614 8.70752 21.7101 8.70752C21.8588 8.70752 21.975 8.82371 21.975 8.97242Z" fill="white"/>
<path d="M9.22288 18.5039C9.22288 18.648 9.10673 18.7688 8.95801 18.7688C8.8093 18.7688 8.69312 18.6526 8.69312 18.5039C8.69312 18.3552 8.8093 18.239 8.95801 18.239C9.10673 18.239 9.22288 18.3552 9.22288 18.5039Z" fill="white"/>
<path d="M9.22288 27.7427C9.22288 27.8867 9.10673 28.0076 8.95801 28.0076C8.8093 28.0076 8.69312 27.8914 8.69312 27.7427C8.69312 27.594 8.8093 27.4778 8.95801 27.4778C9.10673 27.4778 9.22288 27.594 9.22288 27.7427Z" fill="white"/>
<path d="M9.22288 37.0095C9.22288 37.1536 9.10673 37.2744 8.95801 37.2744C8.8093 37.2744 8.69312 37.1582 8.69312 37.0095C8.69312 36.8608 8.8093 36.7446 8.95801 36.7446C9.10673 36.7446 9.22288 36.8608 9.22288 37.0095Z" fill="white"/>
<path d="M9.22288 43.0137C9.22288 43.1577 9.10673 43.2786 8.95801 43.2786C8.8093 43.2786 8.69312 43.1624 8.69312 43.0137C8.69312 42.865 8.8093 42.7488 8.95801 42.7488C9.10673 42.7488 9.22288 42.865 9.22288 43.0137Z" fill="white"/>
<path d="M9.22288 49.2412C9.22288 49.3853 9.10673 49.5061 8.95801 49.5061C8.8093 49.5061 8.69312 49.3899 8.69312 49.2412C8.69312 49.0925 8.8093 48.9763 8.95801 48.9763C9.10673 48.9763 9.22288 49.0925 9.22288 49.2412Z" fill="white"/>
<path d="M9.22288 55.25C9.22288 55.3941 9.10673 55.5149 8.95801 55.5149C8.8093 55.5149 8.69312 55.3987 8.69312 55.25C8.69312 55.1013 8.8093 54.9851 8.95801 54.9851C9.10673 54.9851 9.22288 55.1013 9.22288 55.25Z" fill="white"/>
<path d="M9.22288 61.259C9.22288 61.4031 9.10673 61.5239 8.95801 61.5239C8.8093 61.5239 8.69312 61.4078 8.69312 61.259C8.69312 61.1103 8.8093 60.9941 8.95801 60.9941C9.10673 60.9941 9.22288 61.1103 9.22288 61.259Z" fill="white"/>
<path d="M9.22288 67.4863C9.22288 67.6304 9.10673 67.7512 8.95801 67.7512C8.8093 67.7512 8.69312 67.635 8.69312 67.4863C8.69312 67.3376 8.8093 67.2214 8.95801 67.2214C9.10673 67.2214 9.22288 67.3376 9.22288 67.4863Z" fill="white"/>
<path d="M9.22288 73.7278C9.22288 73.8718 9.10673 73.9927 8.95801 73.9927C8.8093 73.9927 8.69312 73.8765 8.69312 73.7278C8.69312 73.5791 8.8093 73.4629 8.95801 73.4629C9.10673 73.4629 9.22288 73.5791 9.22288 73.7278Z" fill="white"/>
<path d="M9.22288 79.3044C9.22288 79.4485 9.10673 79.5693 8.95801 79.5693C8.8093 79.5693 8.69312 79.4531 8.69312 79.3044C8.69312 79.1557 8.8093 79.0396 8.95801 79.0396C9.10673 79.0396 9.22288 79.1557 9.22288 79.3044Z" fill="white"/>
<path d="M9.22288 85.5271C9.22288 85.6712 9.10673 85.792 8.95801 85.792C8.8093 85.792 8.69312 85.6758 8.69312 85.5271C8.69312 85.3784 8.8093 85.2622 8.95801 85.2622C9.10673 85.2622 9.22288 85.3784 9.22288 85.5271Z" fill="white"/>
<path d="M9.22288 91.5918C9.22288 91.7359 9.10673 91.8567 8.95801 91.8567C8.8093 91.8567 8.69312 91.7405 8.69312 91.5918C8.69312 91.4431 8.8093 91.3269 8.95801 91.3269C9.10673 91.3269 9.22288 91.4431 9.22288 91.5918Z" fill="white"/>
<path d="M9.32972 100.51C9.32972 100.654 9.21354 100.775 9.06483 100.775C8.91611 100.775 8.79993 100.659 8.79993 100.51C8.79993 100.361 8.91611 100.245 9.06483 100.245C9.21354 100.245 9.32972 100.361 9.32972 100.51Z" fill="white"/>
<path d="M18.8707 100.77C18.8707 100.914 18.7545 101.035 18.6058 101.035C18.4571 101.035 18.3409 100.919 18.3409 100.77C18.3409 100.622 18.4571 100.505 18.6058 100.505C18.7545 100.505 18.8707 100.622 18.8707 100.77Z" fill="white"/>
<path d="M31.1581 100.77C31.1581 100.914 31.0419 101.035 30.8932 101.035C30.7445 101.035 30.6283 100.919 30.6283 100.77C30.6283 100.622 30.7445 100.505 30.8932 100.505C31.0419 100.505 31.1581 100.622 31.1581 100.77Z" fill="white"/>
<path d="M43.4315 100.77C43.4315 100.914 43.3153 101.035 43.1666 101.035C43.0179 101.035 42.9017 100.919 42.9017 100.77C42.9017 100.622 43.0179 100.505 43.1666 100.505C43.3153 100.505 43.4315 100.622 43.4315 100.77Z" fill="white"/>
<path d="M55.3844 100.77C55.3844 100.914 55.2682 101.035 55.1195 101.035C54.9708 101.035 54.8546 100.919 54.8546 100.77C54.8546 100.622 54.9708 100.505 55.1195 100.505C55.2682 100.505 55.3844 100.622 55.3844 100.77Z" fill="white"/>
<path d="M69.7725 55.106C69.7725 55.25 69.6563 55.3708 69.5076 55.3708C69.3589 55.3708 69.2427 55.2547 69.2427 55.106C69.2427 54.9573 69.3589 54.8411 69.5076 54.8411C69.6563 54.8411 69.7725 54.9573 69.7725 55.106Z" fill="white"/>
<path d="M69.7725 60.8362C69.7725 60.9803 69.6563 61.1011 69.5076 61.1011C69.3589 61.1011 69.2427 60.9849 69.2427 60.8362C69.2427 60.6875 69.3589 60.5713 69.5076 60.5713C69.6563 60.5713 69.7725 60.6875 69.7725 60.8362Z" fill="white"/>
<path d="M69.7725 67.0125C69.7725 67.1565 69.6563 67.2773 69.5076 67.2773C69.3589 67.2773 69.2427 67.1612 69.2427 67.0125C69.2427 66.8637 69.3589 66.7476 69.5076 66.7476C69.6563 66.7476 69.7725 66.8637 69.7725 67.0125Z" fill="white"/>
<path d="M69.7725 73.1003C69.7725 73.2444 69.6563 73.3652 69.5076 73.3652C69.3589 73.3652 69.2427 73.249 69.2427 73.1003C69.2427 72.9516 69.3589 72.8354 69.5076 72.8354C69.6563 72.8354 69.7725 72.9516 69.7725 73.1003Z" fill="white"/>
<path d="M69.7725 79.0303C69.7725 79.1743 69.6563 79.2952 69.5076 79.2952C69.3589 79.2952 69.2427 79.179 69.2427 79.0303C69.2427 78.8816 69.3589 78.7654 69.5076 78.7654C69.6563 78.7654 69.7725 78.8816 69.7725 79.0303Z" fill="white"/>
<path d="M69.7725 84.8718C69.7725 85.0159 69.6563 85.1367 69.5076 85.1367C69.3589 85.1367 69.2427 85.0205 69.2427 84.8718C69.2427 84.7231 69.3589 84.6069 69.5076 84.6069C69.6563 84.6069 69.7725 84.7231 69.7725 84.8718Z" fill="white"/>
<path d="M69.7725 90.8391C69.7725 90.9832 69.6563 91.104 69.5076 91.104C69.3589 91.104 69.2427 90.9878 69.2427 90.8391C69.2427 90.6904 69.3589 90.5742 69.5076 90.5742C69.6563 90.5742 69.7725 90.6904 69.7725 90.8391Z" fill="white"/>
<path d="M69.7725 99.9338C69.7725 100.078 69.6563 100.199 69.5076 100.199C69.3589 100.199 69.2427 100.083 69.2427 99.9338C69.2427 99.7851 69.3589 99.6689 69.5076 99.6689C69.6563 99.6689 69.7725 99.7851 69.7725 99.9338Z" fill="white"/>
<path d="M7.20595 10.7476C6.90852 10.506 6.67617 10.1621 6.51816 9.71593C6.3555 9.26979 6.27649 8.74 6.27649 8.13121C6.27649 7.63859 6.34154 7.15528 6.46702 6.68125C6.59249 6.20723 6.77838 5.81221 7.01539 5.50084C7.45224 4.93387 7.96809 4.65503 8.5583 4.65503C8.98585 4.65503 9.32977 4.79911 9.59466 5.08724C9.68296 5.19413 9.74801 5.31495 9.78984 5.44973C9.82702 5.57985 9.85026 5.70067 9.85026 5.80291C9.85026 6.01204 9.7759 6.184 9.62254 6.31877C9.5203 6.40707 9.39945 6.45354 9.25074 6.45354C9.10202 6.45354 9.00445 6.39777 8.92545 6.29088C8.89757 6.24906 8.87433 6.20723 8.86503 6.1747C8.85574 6.13752 8.85108 6.09105 8.85108 6.03064C8.85108 5.94234 8.88826 5.84938 8.96726 5.76109C9.02303 5.70067 9.07879 5.64956 9.13921 5.60773C9.19497 5.57055 9.23215 5.53338 9.25074 5.4962C9.27397 5.45902 9.28327 5.41254 9.28327 5.35677C9.28327 5.24989 9.22287 5.1523 9.0974 5.0733C8.97192 4.98965 8.78602 4.95246 8.53507 4.95246C8.31664 4.95246 8.11215 5.01753 7.91697 5.143C7.72178 5.26848 7.55913 5.4776 7.42436 5.77503C7.32212 5.9981 7.24311 6.27693 7.19199 6.61619C7.13622 6.95079 7.10834 7.23428 7.10834 7.462V7.86631L7.17341 7.89419C7.2803 7.66647 7.44761 7.47594 7.67533 7.33187C7.90305 7.18316 8.11681 7.1088 8.33058 7.1088C8.7349 7.1088 9.07415 7.2064 9.34834 7.40623C9.58071 7.57353 9.76197 7.80125 9.88744 8.08473C10.0129 8.36822 10.078 8.67494 10.078 9.00025C10.078 9.32556 10.0036 9.65088 9.85956 9.98083C9.71549 10.3108 9.50169 10.5803 9.22285 10.7987C8.94402 11.0172 8.61409 11.1241 8.23301 11.1241C7.85193 11.1241 7.49872 11.0032 7.2013 10.7616L7.20595 10.7476ZM9.03698 10.2968C9.20428 9.9483 9.28327 9.55328 9.28327 9.10714C9.28327 8.62847 9.20893 8.22415 9.06486 7.90813C8.9208 7.59212 8.67914 7.42946 8.34454 7.42946C8.13541 7.42946 7.94486 7.49918 7.77755 7.6386C7.61025 7.77801 7.47549 7.97319 7.37789 8.2288C7.2803 8.4844 7.22918 8.77718 7.22918 9.10714C7.22918 9.6044 7.30818 10.018 7.46154 10.3387C7.61955 10.6593 7.87514 10.822 8.23763 10.822C8.60012 10.822 8.86968 10.65 9.03698 10.2968Z" fill="black"/>
<path d="M70.5811 95.8674C70.8786 96.1091 71.1109 96.453 71.2689 96.8991C71.4269 97.3452 71.5106 97.875 71.5106 98.4838C71.5106 98.9764 71.4455 99.4598 71.3201 99.9338C71.1946 100.408 71.0087 100.803 70.7717 101.114C70.3348 101.681 69.819 101.96 69.2288 101.96C68.8012 101.96 68.4573 101.816 68.1924 101.528C68.1041 101.421 68.0391 101.3 67.9972 101.165C67.9601 101.031 67.9368 100.914 67.9368 100.812C67.9368 100.603 68.0112 100.431 68.1645 100.296C68.2668 100.208 68.3876 100.161 68.5363 100.161C68.685 100.161 68.7826 100.217 68.8616 100.324C68.8895 100.366 68.9127 100.408 68.922 100.44C68.9313 100.478 68.936 100.524 68.936 100.584C68.936 100.673 68.8988 100.766 68.8198 100.854C68.764 100.914 68.7083 100.965 68.6479 101.007C68.5921 101.044 68.5549 101.082 68.5363 101.119C68.5131 101.156 68.5038 101.207 68.5038 101.258C68.5038 101.365 68.5642 101.463 68.6897 101.542C68.8152 101.625 69.0011 101.663 69.252 101.663C69.4704 101.663 69.6749 101.598 69.8701 101.472C70.0653 101.347 70.2279 101.137 70.3627 100.84C70.4649 100.617 70.5439 100.338 70.5951 99.9988C70.6508 99.6596 70.6787 99.3808 70.6787 99.153V98.7487L70.6137 98.7208C70.5068 98.9486 70.3395 99.1391 70.1117 99.2832C69.884 99.4319 69.6703 99.5016 69.4565 99.5016C69.0522 99.5016 68.7129 99.404 68.4387 99.2042C68.2064 99.0369 68.0251 98.8091 67.8996 98.5257C67.7742 98.2375 67.7091 97.9355 67.7091 97.6101C67.7091 97.2848 67.7834 96.9595 67.9275 96.6296C68.0716 96.2996 68.2854 96.0301 68.5642 95.8116C68.843 95.5932 69.173 95.4863 69.5541 95.4863C69.9351 95.4863 70.2884 95.6072 70.5858 95.8488L70.5811 95.8674ZM68.7501 96.3182C68.5828 96.6667 68.5038 97.0618 68.5038 97.5079C68.5038 97.9866 68.5781 98.3909 68.7222 98.7069C68.8663 99.0276 69.1079 99.1856 69.4425 99.1856C69.6517 99.1856 69.8422 99.1159 70.0095 98.9764C70.1768 98.837 70.3116 98.6418 70.4092 98.3862C70.5068 98.1306 70.5579 97.8379 70.5579 97.5079C70.5579 97.0106 70.4789 96.597 70.3255 96.2764C70.1675 95.9557 69.9119 95.7931 69.5494 95.7931C69.1869 95.7931 68.9174 95.965 68.7501 96.3182Z" fill="black"/>
<path d="M31.2093 16.6451C29.4991 14.7816 27.5147 12.9645 26.6875 12.0118C26.0647 11.2961 25.6232 10.7523 25.442 10.5246V10.4084C25.442 10.4084 25.4234 10.427 25.3955 10.4689C25.3676 10.4317 25.349 10.4084 25.349 10.4084V10.5246C25.1678 10.7523 24.7263 11.2961 24.1036 12.0118C23.2717 12.9645 21.2873 14.7816 19.5818 16.6451C17.8716 18.5087 17.7368 20.3722 18.0574 21.9151C18.3828 23.458 19.9954 24.9126 22.5374 24.5966C23.3368 24.499 23.9177 24.1133 24.3406 23.6393C24.0571 25.8235 22.8721 26.9621 22.8721 26.9621H27.7982C26.9012 25.9583 26.5806 24.5362 26.4644 23.6486C26.8873 24.118 27.4682 24.4944 28.2583 24.5966C30.7957 24.9126 32.4129 23.4627 32.7382 21.9151C33.0636 20.3722 32.9241 18.5087 31.2139 16.6451H31.2093Z" fill="#151515"/>
<path d="M31.2093 52.234C29.4991 50.3704 27.5147 48.5533 26.6875 47.6006C26.0647 46.8849 25.6232 46.3412 25.442 46.1135V45.9973C25.442 45.9973 25.4234 46.0159 25.3955 46.0577C25.3676 46.0206 25.349 45.9973 25.349 45.9973V46.1135C25.1678 46.3412 24.7263 46.8849 24.1036 47.6006C23.2717 48.5533 21.2873 50.3704 19.5818 52.234C17.8716 54.0975 17.7368 55.9611 18.0574 57.504C18.3828 59.0469 19.9954 60.5015 22.5374 60.1855C23.3368 60.0879 23.9177 59.7022 24.3406 59.2281C24.0571 61.4124 22.8721 62.551 22.8721 62.551H27.7982C26.9012 61.5471 26.5806 60.1251 26.4644 59.2374C26.8873 59.7068 27.4682 60.0832 28.2583 60.1855C30.7957 60.5015 32.4129 59.0515 32.7382 57.504C33.0636 55.9611 32.9241 54.0975 31.2139 52.234H31.2093Z" fill="#151515"/>
<path d="M31.2093 90.732C29.4991 92.5956 27.5147 94.4127 26.6875 95.3654C26.0647 96.081 25.6232 96.6248 25.442 96.8525V96.9687C25.442 96.9687 25.4234 96.9501 25.3955 96.9083C25.3676 96.9454 25.349 96.9687 25.349 96.9687V96.8525C25.1678 96.6248 24.7263 96.081 24.1036 95.3654C23.2717 94.4127 21.2873 92.5956 19.5818 90.732C17.8716 88.8684 17.7368 87.0049 18.0574 85.462C18.3781 83.9191 19.9954 82.4645 22.5374 82.7805C23.3368 82.8781 23.9177 83.2638 24.3406 83.7378C24.0571 81.5536 22.8721 80.415 22.8721 80.415H27.7982C26.9012 81.4189 26.5806 82.8409 26.4644 83.7286C26.8873 83.2592 27.4682 82.8827 28.2583 82.7805C30.7957 82.4645 32.4129 83.9144 32.7382 85.462C33.0636 87.0049 32.9241 88.8684 31.2139 90.732H31.2093Z" fill="#151515"/>
<path d="M59.1303 16.6451C57.4201 14.7816 55.4357 12.9645 54.6085 12.0118C53.9857 11.2961 53.5443 10.7523 53.363 10.5246V10.4084C53.363 10.4084 53.3444 10.427 53.3165 10.4689C53.2886 10.4317 53.2701 10.4084 53.2701 10.4084V10.5246C53.0888 10.7523 52.6473 11.2961 52.0246 12.0118C51.1927 12.9645 49.2083 14.7816 47.5028 16.6451C45.7926 18.5087 45.6578 20.3722 45.9785 21.9151C46.3038 23.458 47.9164 24.9126 50.4585 24.5966C51.2578 24.499 51.8387 24.1133 52.2616 23.6393C51.9781 25.8235 50.7931 26.9621 50.7931 26.9621H55.7192C54.8223 25.9583 54.5016 24.5362 54.3854 23.6486C54.8083 24.118 55.3892 24.4944 56.1793 24.5966C58.7167 24.9126 60.334 23.4627 60.6593 21.9151C60.9846 20.3722 60.8451 18.5087 59.1349 16.6451H59.1303Z" fill="#151515"/>
<path d="M59.1303 52.234C57.4201 50.3704 55.4357 48.5533 54.6085 47.6006C53.9857 46.8849 53.5443 46.3412 53.363 46.1135V45.9973C53.363 45.9973 53.3444 46.0159 53.3165 46.0577C53.2886 46.0206 53.2701 45.9973 53.2701 45.9973V46.1135C53.0888 46.3412 52.6473 46.8849 52.0246 47.6006C51.1927 48.5533 49.2083 50.3704 47.5028 52.234C45.7926 54.0975 45.6578 55.9611 45.9785 57.504C46.3038 59.0469 47.9164 60.5015 50.4585 60.1855C51.2578 60.0879 51.8387 59.7022 52.2616 59.2281C51.9781 61.4124 50.7931 62.551 50.7931 62.551H55.7192C54.8223 61.5471 54.5016 60.1251 54.3854 59.2374C54.8083 59.7068 55.3892 60.0832 56.1793 60.1855C58.7167 60.5015 60.334 59.0515 60.6593 57.504C60.9846 55.9564 60.8451 54.0975 59.1349 52.234H59.1303Z" fill="#151515"/>
<path d="M59.1303 90.732C57.4201 92.5956 55.4357 94.4127 54.6085 95.3654C53.9857 96.081 53.5443 96.6248 53.363 96.8525V96.9687C53.363 96.9687 53.3444 96.9501 53.3165 96.9083C53.2886 96.9454 53.2701 96.9687 53.2701 96.9687V96.8525C53.0888 96.6248 52.6473 96.081 52.0246 95.3654C51.1927 94.4127 49.2083 92.5956 47.5028 90.732C45.7926 88.8684 45.6578 87.0049 45.9785 85.462C46.2991 83.9191 47.9164 82.4645 50.4585 82.7805C51.2578 82.8781 51.8387 83.2638 52.2616 83.7378C51.9781 81.5536 50.7931 80.415 50.7931 80.415H55.7192C54.8223 81.4189 54.5016 82.8409 54.3854 83.7286C54.8083 83.2592 55.3892 82.8827 56.1793 82.7805C58.7167 82.4645 60.334 83.9144 60.6593 85.462C60.9846 87.0049 60.8451 88.8684 59.1349 90.732H59.1303Z" fill="#151515"/>
<path d="M70.8693 91.8567C70.372 92.4004 69.7911 92.9302 69.5494 93.209C69.3682 93.4182 69.2381 93.5762 69.187 93.6412V93.6738C69.187 93.6738 69.1823 93.6691 69.173 93.6552C69.1637 93.6645 69.1591 93.6738 69.1591 93.6738V93.6412C69.108 93.5762 68.9778 93.4182 68.7966 93.209C68.5549 92.9302 67.974 92.4004 67.4768 91.8567C66.9795 91.3129 66.9377 90.7692 67.0306 90.3184C67.1236 89.8676 67.5976 89.4447 68.3365 89.5377C68.5689 89.5656 68.7408 89.6771 68.8617 89.8165C68.778 89.1798 68.4341 88.8452 68.4341 88.8452H69.8701C69.6099 89.138 69.5169 89.5516 69.4798 89.8119C69.6052 89.6724 69.7725 89.5656 70.0049 89.5377C70.7438 89.4447 71.2178 89.8676 71.3108 90.3184C71.4037 90.7692 71.3665 91.3129 70.8646 91.8567H70.8693Z" fill="#151515"/>
<path d="M10.3104 14.6467C9.81319 14.1029 9.23227 13.5732 8.99061 13.2943C8.80936 13.0852 8.67925 12.9272 8.62813 12.8621V12.8296C8.62813 12.8296 8.62347 12.8342 8.61418 12.8482C8.60488 12.8389 8.60025 12.8296 8.60025 12.8296V12.8621C8.54913 12.9272 8.41899 13.0852 8.23775 13.2943C7.99609 13.5732 7.41519 14.1029 6.91793 14.6467C6.42067 15.1904 6.37884 15.7341 6.47178 16.1849C6.56473 16.6357 7.03875 17.0586 7.77767 16.9657C8.01004 16.9378 8.18199 16.8263 8.30282 16.6868C8.21917 17.3235 7.87527 17.6581 7.87527 17.6581H9.31127C9.05102 17.3653 8.95809 16.9517 8.92091 16.6915C9.04639 16.8309 9.2137 16.9378 9.44606 16.9657C10.185 17.0586 10.659 16.6357 10.7519 16.1849C10.8449 15.7341 10.8077 15.1904 10.3058 14.6467H10.3104Z" fill="#151515"/>
</svg>
