<svg width="78" height="109" viewBox="0 0 78 109" fill="none" xmlns="http://www.w3.org/2000/svg">
<path d="M74.6077 0.0605469H2.8164C1.29182 0.0605469 0.0559082 1.29646 0.0559082 2.82104V105.535C0.0559082 107.06 1.29182 108.296 2.8164 108.296H74.6077C76.1323 108.296 77.3682 107.06 77.3682 105.535V2.82104C77.3682 1.29646 76.1323 0.0605469 74.6077 0.0605469Z" fill="white"/>
<path d="M74.6076 108.347H2.81626C1.26406 108.347 0 107.083 0 105.531V2.81626C0 1.26406 1.26406 0 2.81626 0H74.6076C76.1598 0 77.4238 1.26406 77.4238 2.81626V105.531C77.4238 107.083 76.1598 108.347 74.6076 108.347ZM2.81626 0.11153C1.32448 0.11153 0.11153 1.32448 0.11153 2.81626V105.531C0.11153 107.022 1.32448 108.235 2.81626 108.235H74.6076C76.0994 108.235 77.3123 107.022 77.3123 105.531V2.81626C77.3123 1.32448 76.0994 0.11153 74.6076 0.11153H2.81626Z" fill="#65A7DD"/>
<path d="M69.3377 8.59302C69.3377 8.73709 69.2215 8.85792 69.0728 8.85792C68.924 8.85792 68.8079 8.74174 68.8079 8.59302C68.8079 8.44431 68.924 8.32812 69.0728 8.32812C69.2215 8.32812 69.3377 8.44431 69.3377 8.59302Z" fill="white"/>
<path d="M56.7295 8.59302C56.7295 8.73709 56.6133 8.85792 56.4646 8.85792C56.3159 8.85792 56.1997 8.74174 56.1997 8.59302C56.1997 8.44431 56.3159 8.32812 56.4646 8.32812C56.6133 8.32812 56.7295 8.44431 56.7295 8.59302Z" fill="white"/>
<path d="M45.1345 8.59302C45.1345 8.73709 45.0183 8.85792 44.8696 8.85792C44.7209 8.85792 44.6047 8.74174 44.6047 8.59302C44.6047 8.44431 44.7209 8.32812 44.8696 8.32812C45.0183 8.32812 45.1345 8.44431 45.1345 8.59302Z" fill="white"/>
<path d="M33.4931 8.67652C33.4931 8.82059 33.3769 8.94142 33.2282 8.94142C33.0794 8.94142 32.9633 8.82523 32.9633 8.67652C32.9633 8.52781 33.0794 8.41162 33.2282 8.41162C33.3769 8.41162 33.4931 8.52781 33.4931 8.67652Z" fill="white"/>
<path d="M69.3377 18.4172C69.3377 18.5613 69.2215 18.6821 69.0728 18.6821C68.924 18.6821 68.8079 18.5659 68.8079 18.4172C68.8079 18.2685 68.924 18.1523 69.0728 18.1523C69.2215 18.1523 69.3377 18.2685 69.3377 18.4172Z" fill="white"/>
<path d="M69.3377 27.3816C69.3377 27.5257 69.2215 27.6465 69.0728 27.6465C68.924 27.6465 68.8079 27.5303 68.8079 27.3816C68.8079 27.2329 68.924 27.1167 69.0728 27.1167C69.2215 27.1167 69.3377 27.2329 69.3377 27.3816Z" fill="white"/>
<path d="M69.3377 36.7786C69.3377 36.9226 69.2215 37.0435 69.0728 37.0435C68.924 37.0435 68.8079 36.9273 68.8079 36.7786C68.8079 36.6299 68.924 36.5137 69.0728 36.5137C69.2215 36.5137 69.3377 36.6299 69.3377 36.7786Z" fill="white"/>
<path d="M69.3377 42.718C69.3377 42.8621 69.2215 42.9829 69.0728 42.9829C68.924 42.9829 68.8079 42.8667 68.8079 42.718C68.8079 42.5693 68.924 42.4531 69.0728 42.4531C69.2215 42.4531 69.3377 42.5693 69.3377 42.718Z" fill="white"/>
<path d="M69.3377 48.6804C69.3377 48.8245 69.2215 48.9453 69.0728 48.9453C68.924 48.9453 68.8079 48.8291 68.8079 48.6804C68.8079 48.5317 68.924 48.4155 69.0728 48.4155C69.2215 48.4155 69.3377 48.5317 69.3377 48.6804Z" fill="white"/>
<path d="M8.78807 8.85767C8.78807 9.00174 8.67191 9.12256 8.5232 9.12256C8.37449 9.12256 8.2583 9.00639 8.2583 8.85767C8.2583 8.70896 8.37449 8.59277 8.5232 8.59277C8.67191 8.59277 8.78807 8.70896 8.78807 8.85767Z" fill="white"/>
<path d="M21.5401 8.67652C21.5401 8.82059 21.424 8.94142 21.2753 8.94142C21.1266 8.94142 21.0104 8.82523 21.0104 8.67652C21.0104 8.52781 21.1266 8.41162 21.2753 8.41162C21.424 8.41162 21.5401 8.52781 21.5401 8.67652Z" fill="white"/>
<path d="M8.78807 18.2083C8.78807 18.3523 8.67191 18.4732 8.5232 18.4732C8.37449 18.4732 8.2583 18.357 8.2583 18.2083C8.2583 18.0595 8.37449 17.9434 8.5232 17.9434C8.67191 17.9434 8.78807 18.0595 8.78807 18.2083Z" fill="white"/>
<path d="M8.78807 27.447C8.78807 27.5911 8.67191 27.7119 8.5232 27.7119C8.37449 27.7119 8.2583 27.5957 8.2583 27.447C8.2583 27.2983 8.37449 27.1821 8.5232 27.1821C8.67191 27.1821 8.78807 27.2983 8.78807 27.447Z" fill="white"/>
<path d="M8.78807 36.7136C8.78807 36.8577 8.67191 36.9785 8.5232 36.9785C8.37449 36.9785 8.2583 36.8623 8.2583 36.7136C8.2583 36.5649 8.37449 36.4487 8.5232 36.4487C8.67191 36.4487 8.78807 36.5649 8.78807 36.7136Z" fill="white"/>
<path d="M8.78807 42.718C8.78807 42.8621 8.67191 42.9829 8.5232 42.9829C8.37449 42.9829 8.2583 42.8667 8.2583 42.718C8.2583 42.5693 8.37449 42.4531 8.5232 42.4531C8.67191 42.4531 8.78807 42.5693 8.78807 42.718Z" fill="white"/>
<path d="M8.78807 48.9451C8.78807 49.0891 8.67191 49.21 8.5232 49.21C8.37449 49.21 8.2583 49.0938 8.2583 48.9451C8.2583 48.7963 8.37449 48.6802 8.5232 48.6802C8.67191 48.6802 8.78807 48.7963 8.78807 48.9451Z" fill="white"/>
<path d="M8.78807 54.9544C8.78807 55.0984 8.67191 55.2192 8.5232 55.2192C8.37449 55.2192 8.2583 55.1031 8.2583 54.9544C8.2583 54.8056 8.37449 54.6895 8.5232 54.6895C8.67191 54.6895 8.78807 54.8056 8.78807 54.9544Z" fill="white"/>
<path d="M8.78807 60.9631C8.78807 61.1072 8.67191 61.228 8.5232 61.228C8.37449 61.228 8.2583 61.1119 8.2583 60.9631C8.2583 60.8144 8.37449 60.6982 8.5232 60.6982C8.67191 60.6982 8.78807 60.8144 8.78807 60.9631Z" fill="white"/>
<path d="M8.78807 67.1907C8.78807 67.3347 8.67191 67.4556 8.5232 67.4556C8.37449 67.4556 8.2583 67.3394 8.2583 67.1907C8.2583 67.042 8.37449 66.9258 8.5232 66.9258C8.67191 66.9258 8.78807 67.042 8.78807 67.1907Z" fill="white"/>
<path d="M8.78807 73.4319C8.78807 73.5759 8.67191 73.6968 8.5232 73.6968C8.37449 73.6968 8.2583 73.5806 8.2583 73.4319C8.2583 73.2832 8.37449 73.167 8.5232 73.167C8.67191 73.167 8.78807 73.2832 8.78807 73.4319Z" fill="white"/>
<path d="M8.78807 79.0085C8.78807 79.1526 8.67191 79.2734 8.5232 79.2734C8.37449 79.2734 8.2583 79.1573 8.2583 79.0085C8.2583 78.8598 8.37449 78.7437 8.5232 78.7437C8.67191 78.7437 8.78807 78.8598 8.78807 79.0085Z" fill="white"/>
<path d="M8.78807 85.2312C8.78807 85.3753 8.67191 85.4961 8.5232 85.4961C8.37449 85.4961 8.2583 85.3799 8.2583 85.2312C8.2583 85.0825 8.37449 84.9663 8.5232 84.9663C8.67191 84.9663 8.78807 85.0825 8.78807 85.2312Z" fill="white"/>
<path d="M8.78807 91.2961C8.78807 91.4402 8.67191 91.561 8.5232 91.561C8.37449 91.561 8.2583 91.4449 8.2583 91.2961C8.2583 91.1474 8.37449 91.0312 8.5232 91.0312C8.67191 91.0312 8.78807 91.1474 8.78807 91.2961Z" fill="white"/>
<path d="M8.89503 100.214C8.89503 100.358 8.77885 100.479 8.63013 100.479C8.48142 100.479 8.36523 100.363 8.36523 100.214C8.36523 100.065 8.48142 99.9492 8.63013 99.9492C8.77885 99.9492 8.89503 100.065 8.89503 100.214Z" fill="white"/>
<path d="M18.4359 100.474C18.4359 100.618 18.3197 100.739 18.171 100.739C18.0223 100.739 17.9061 100.623 17.9061 100.474C17.9061 100.326 18.0223 100.209 18.171 100.209C18.3197 100.209 18.4359 100.326 18.4359 100.474Z" fill="white"/>
<path d="M30.7279 100.474C30.7279 100.618 30.6117 100.739 30.463 100.739C30.3143 100.739 30.1981 100.623 30.1981 100.474C30.1981 100.326 30.3143 100.209 30.463 100.209C30.6117 100.209 30.7279 100.326 30.7279 100.474Z" fill="white"/>
<path d="M42.9967 100.474C42.9967 100.618 42.8805 100.739 42.7318 100.739C42.5831 100.739 42.4669 100.623 42.4669 100.474C42.4669 100.326 42.5831 100.209 42.7318 100.209C42.8805 100.209 42.9967 100.326 42.9967 100.474Z" fill="white"/>
<path d="M54.9496 100.474C54.9496 100.618 54.8334 100.739 54.6847 100.739C54.536 100.739 54.4198 100.623 54.4198 100.474C54.4198 100.326 54.536 100.209 54.6847 100.209C54.8334 100.209 54.9496 100.326 54.9496 100.474Z" fill="white"/>
<path d="M69.3377 54.8103C69.3377 54.9544 69.2215 55.0752 69.0728 55.0752C68.924 55.0752 68.8079 54.959 68.8079 54.8103C68.8079 54.6616 68.924 54.5454 69.0728 54.5454C69.2215 54.5454 69.3377 54.6616 69.3377 54.8103Z" fill="white"/>
<path d="M69.3377 60.5403C69.3377 60.6844 69.2215 60.8052 69.0728 60.8052C68.924 60.8052 68.8079 60.689 68.8079 60.5403C68.8079 60.3916 68.924 60.2754 69.0728 60.2754C69.2215 60.2754 69.3377 60.3916 69.3377 60.5403Z" fill="white"/>
<path d="M69.3377 66.7166C69.3377 66.8606 69.2215 66.9814 69.0728 66.9814C68.924 66.9814 68.8079 66.8653 68.8079 66.7166C68.8079 66.5678 68.924 66.4517 69.0728 66.4517C69.2215 66.4517 69.3377 66.5678 69.3377 66.7166Z" fill="white"/>
<path d="M69.3377 72.8044C69.3377 72.9485 69.2215 73.0693 69.0728 73.0693C68.924 73.0693 68.8079 72.9531 68.8079 72.8044C68.8079 72.6557 68.924 72.5396 69.0728 72.5396C69.2215 72.5396 69.3377 72.6557 69.3377 72.8044Z" fill="white"/>
<path d="M69.3377 78.7341C69.3377 78.8782 69.2215 78.999 69.0728 78.999C68.924 78.999 68.8079 78.8829 68.8079 78.7341C68.8079 78.5854 68.924 78.4692 69.0728 78.4692C69.2215 78.4692 69.3377 78.5854 69.3377 78.7341Z" fill="white"/>
<path d="M69.3377 84.5759C69.3377 84.72 69.2215 84.8408 69.0728 84.8408C68.924 84.8408 68.8079 84.7246 68.8079 84.5759C68.8079 84.4272 68.924 84.311 69.0728 84.311C69.2215 84.311 69.3377 84.4272 69.3377 84.5759Z" fill="white"/>
<path d="M69.3377 90.5432C69.3377 90.6873 69.2215 90.8081 69.0728 90.8081C68.924 90.8081 68.8079 90.6919 68.8079 90.5432C68.8079 90.3945 68.924 90.2783 69.0728 90.2783C69.2215 90.2783 69.3377 90.3945 69.3377 90.5432Z" fill="white"/>
<path d="M69.3377 99.6379C69.3377 99.782 69.2215 99.9028 69.0728 99.9028C68.924 99.9028 68.8079 99.7867 68.8079 99.6379C68.8079 99.4892 68.924 99.373 69.0728 99.373C69.2215 99.373 69.3377 99.4892 69.3377 99.6379Z" fill="white"/>
<path d="M7.39851 10.5774C7.26838 10.4194 7.20333 10.2103 7.20333 9.94542C7.20333 9.58293 7.29163 9.21579 7.46823 8.83007C7.64482 8.44899 7.87253 8.05861 8.15137 7.6636L8.87172 6.62724C9.00184 6.44135 9.11336 6.24153 9.20166 6.02775C9.28996 5.81398 9.3318 5.62809 9.3318 5.47473C9.3318 5.38643 9.30855 5.32135 9.26207 5.28882C9.2156 5.25629 9.14588 5.23771 9.04829 5.23771H7.1801C6.93844 5.23771 6.77112 5.28883 6.66888 5.39572C6.57129 5.5026 6.50158 5.65131 6.4644 5.84185L6.36682 6.37165H6.16699L6.29245 4.49414H9.75469C9.75469 4.80551 9.70822 5.16335 9.61527 5.56766C9.52233 5.97198 9.36431 6.33911 9.14124 6.66907L8.6254 7.44517C8.37909 7.80766 8.25362 8.19803 8.25362 8.61628C8.25362 8.87653 8.27221 9.09961 8.30939 9.2948L8.36515 9.61081C8.41162 9.85247 8.4395 10.0616 8.4395 10.2428C8.4395 10.6193 8.26292 10.8098 7.90973 10.8098C7.6913 10.8098 7.51936 10.7308 7.38923 10.5774H7.39851Z" fill="black"/>
<path d="M70.0161 95.4462C70.1462 95.6042 70.2113 95.8134 70.2113 96.0783C70.2113 96.4408 70.123 96.8079 69.9464 97.1936C69.7698 97.5747 69.542 97.9651 69.2632 98.3601L68.5429 99.3964C68.4128 99.5823 68.3012 99.7822 68.2129 99.9959C68.1246 100.21 68.0828 100.396 68.0828 100.549C68.0828 100.637 68.1061 100.702 68.1525 100.735C68.199 100.767 68.2687 100.786 68.3663 100.786H70.2345C70.4762 100.786 70.6435 100.735 70.7457 100.628C70.8433 100.521 70.913 100.372 70.9502 100.182L71.0478 99.652H71.2476L71.1221 101.53H67.6599C67.6599 101.218 67.7064 100.86 67.7993 100.456C67.8923 100.052 68.0503 99.6846 68.2733 99.3546L68.7892 98.5785C69.0355 98.216 69.161 97.8256 69.161 97.4074C69.161 97.1471 69.1424 96.9241 69.1052 96.7289L69.0494 96.4129C69.003 96.1712 68.9751 95.9621 68.9751 95.7808C68.9751 95.3998 69.1517 95.2139 69.5049 95.2139C69.7233 95.2139 69.8952 95.2929 70.0254 95.4462H70.0161Z" fill="black"/>
<path d="M44.7348 34.0321C43.0246 32.1685 41.0402 30.3514 40.213 29.3987C39.5902 28.683 39.1487 28.1393 38.9675 27.9116V27.7954C38.9675 27.7954 38.9489 27.814 38.921 27.8558C38.8931 27.8186 38.8746 27.7954 38.8746 27.7954V27.9116C38.6933 28.1393 38.2518 28.683 37.6291 29.3987C36.7972 30.3514 34.8128 32.1685 33.1073 34.0321C31.3971 35.8956 31.2623 37.7592 31.583 39.3021C31.9083 40.845 33.5209 42.2996 36.0629 41.9836C36.8623 41.886 37.4432 41.5003 37.8661 41.0262C37.5826 43.2105 36.3975 44.3491 36.3975 44.3491H41.3237C40.4267 43.3452 40.1061 41.9232 39.9899 41.0355C40.4128 41.5049 40.9937 41.8813 41.7837 41.9836C44.3212 42.2996 45.9384 40.8496 46.2637 39.3021C46.589 37.7592 46.4496 35.8956 44.7394 34.0321H44.7348Z" fill="#151515"/>
<path d="M30.9927 16.3495C29.2825 14.4859 27.2981 12.6688 26.4709 11.7161C25.8482 11.0004 25.4067 10.4567 25.2255 10.229V10.1128C25.2255 10.1128 25.2069 10.1314 25.179 10.1732C25.1511 10.136 25.1325 10.1128 25.1325 10.1128V10.229C24.9513 10.4567 24.5098 11.0004 23.887 11.7161C23.0552 12.6688 21.0708 14.4859 19.3652 16.3495C17.6597 18.213 17.5202 20.0766 17.8409 21.6195C18.1662 23.1624 19.7788 24.617 22.3209 24.301C23.1202 24.2034 23.7011 23.8176 24.124 23.3436C23.8405 25.5279 22.6555 26.6664 22.6555 26.6664H27.5816C26.6847 25.6626 26.364 24.2406 26.2478 23.3529C26.6707 23.8223 27.2517 24.1987 28.0417 24.301C30.5791 24.617 32.1964 23.167 32.5217 21.6195C32.847 20.0766 32.7076 18.213 30.9974 16.3495H30.9927Z" fill="#151515"/>
<path d="M30.9927 51.9383C29.2825 50.0748 27.2981 48.2577 26.4709 47.305C25.8482 46.5893 25.4067 46.0456 25.2254 45.8178V45.7017C25.2254 45.7017 25.2068 45.7203 25.179 45.7621C25.1511 45.7249 25.1325 45.7017 25.1325 45.7017V45.8178C24.9513 46.0456 24.5098 46.5893 23.887 47.305C23.0552 48.2577 21.0707 50.0748 19.3652 51.9383C17.655 53.8019 17.5202 55.6654 17.8409 57.2083C18.1616 58.7512 19.7788 60.2058 22.3209 59.8898C23.1202 59.7922 23.7011 59.4065 24.124 58.9325C23.8405 61.1167 22.6555 62.2553 22.6555 62.2553H27.5816C26.6847 61.2515 26.364 59.8294 26.2478 58.9418C26.6707 59.4112 27.2517 59.7876 28.0417 59.8898C30.5791 60.2058 32.1964 58.7559 32.5217 57.2083C32.847 55.6654 32.7076 53.8019 30.9974 51.9383H30.9927Z" fill="#151515"/>
<path d="M30.9927 90.4366C29.2825 92.3002 27.2981 94.1173 26.4709 95.07C25.8482 95.7856 25.4067 96.3294 25.2254 96.5571V96.6733C25.2254 96.6733 25.2068 96.6547 25.179 96.6129C25.1511 96.65 25.1325 96.6733 25.1325 96.6733V96.5571C24.9513 96.3294 24.5098 95.7856 23.887 95.07C23.0552 94.1173 21.0707 92.3002 19.3652 90.4366C17.655 88.573 17.5202 86.7095 17.8409 85.1666C18.1616 83.6237 19.7788 82.1691 22.3209 82.4851C23.1202 82.5827 23.7011 82.9684 24.124 83.4424C23.8405 81.2582 22.6555 80.1196 22.6555 80.1196H27.5816C26.6847 81.1234 26.364 82.5455 26.2478 83.4331C26.6707 82.9638 27.2517 82.5873 28.0417 82.4851C30.5791 82.1691 32.1964 83.619 32.5217 85.1666C32.847 86.7095 32.7076 88.573 30.9974 90.4366H30.9927Z" fill="#151515"/>
<path d="M58.9091 16.3495C57.1989 14.4859 55.2145 12.6688 54.3873 11.7161C53.7646 11.0004 53.323 10.4567 53.1418 10.229V10.1128C53.1418 10.1128 53.1232 10.1314 53.0953 10.1732C53.0675 10.136 53.0489 10.1128 53.0489 10.1128V10.229C52.8676 10.4567 52.4261 11.0004 51.8034 11.7161C50.9715 12.6688 48.9871 14.4859 47.2816 16.3495C45.5714 18.213 45.4366 20.0766 45.7573 21.6195C46.0826 23.1624 47.6952 24.617 50.2372 24.301C51.0366 24.2034 51.6175 23.8176 52.0404 23.3436C51.7569 25.5279 50.5719 26.6664 50.5719 26.6664H55.498C54.6011 25.6626 54.2804 24.2406 54.1642 23.3529C54.5871 23.8223 55.168 24.1987 55.9581 24.301C58.4955 24.617 60.1127 23.167 60.438 21.6195C60.7634 20.0766 60.624 18.213 58.9138 16.3495H58.9091Z" fill="#151515"/>
<path d="M58.9091 51.9383C57.1989 50.0748 55.2145 48.2577 54.3873 47.305C53.7646 46.5893 53.323 46.0456 53.1418 45.8178V45.7017C53.1418 45.7017 53.1232 45.7203 53.0953 45.7621C53.0675 45.7249 53.0489 45.7017 53.0489 45.7017V45.8178C52.8676 46.0456 52.4261 46.5893 51.8034 47.305C50.9715 48.2577 48.9871 50.0748 47.2816 51.9383C45.5714 53.8019 45.4366 55.6654 45.7573 57.2083C46.0826 58.7512 47.6952 60.2058 50.2372 59.8898C51.0366 59.7922 51.6175 59.4065 52.0404 58.9325C51.7569 61.1167 50.5719 62.2553 50.5719 62.2553H55.498C54.6011 61.2515 54.2804 59.8294 54.1642 58.9418C54.5871 59.4112 55.168 59.7876 55.9581 59.8898C58.4955 60.2058 60.1127 58.7559 60.438 57.2083C60.7634 55.6654 60.624 53.8019 58.9138 51.9383H58.9091Z" fill="#151515"/>
<path d="M58.9091 90.4366C57.1989 92.3002 55.2145 94.1173 54.3873 95.07C53.7646 95.7856 53.323 96.3294 53.1418 96.5571V96.6733C53.1418 96.6733 53.1232 96.6547 53.0953 96.6129C53.0675 96.65 53.0489 96.6733 53.0489 96.6733V96.5571C52.8676 96.3294 52.4261 95.7856 51.8034 95.07C50.9715 94.1173 48.9871 92.3002 47.2816 90.4366C45.5714 88.573 45.4366 86.7095 45.7573 85.1666C46.0826 83.6237 47.6952 82.1691 50.2372 82.4851C51.0366 82.5827 51.6175 82.9684 52.0404 83.4424C51.7569 81.2582 50.5719 80.1196 50.5719 80.1196H55.498C54.6011 81.1234 54.2804 82.5455 54.1642 83.4331C54.5871 82.9638 55.168 82.5873 55.9581 82.4851C58.4955 82.1691 60.1127 83.619 60.438 85.1666C60.7634 86.7095 60.624 88.573 58.9138 90.4366H58.9091Z" fill="#151515"/>
<path d="M70.6946 91.5613C70.1973 92.105 69.6164 92.6348 69.3748 92.9136C69.1935 93.1227 69.0634 93.2807 69.0123 93.3458V93.3783C69.0123 93.3783 69.0076 93.3737 68.9983 93.3598C68.989 93.369 68.9844 93.3783 68.9844 93.3783V93.3458C68.9333 93.2807 68.8031 93.1227 68.6219 92.9136C68.3802 92.6348 67.7993 92.105 67.3021 91.5613C66.8048 91.0175 66.763 90.4738 66.8559 90.023C66.9489 89.5722 67.4229 89.1493 68.1618 89.2423C68.3942 89.2701 68.5661 89.3817 68.687 89.5211C68.6033 88.8844 68.2594 88.5498 68.2594 88.5498H69.6954C69.4352 88.8426 69.3422 89.2562 69.3051 89.5164C69.4305 89.377 69.5979 89.2701 69.8302 89.2423C70.5691 89.1493 71.0432 89.5722 71.1361 90.023C71.229 90.4738 71.1919 91.0175 70.69 91.5613H70.6946Z" fill="#151515"/>
<path d="M10.1356 14.3513C9.63838 13.8075 9.05746 13.2777 8.8158 12.9989C8.63456 12.7898 8.50445 12.6318 8.45333 12.5667V12.5342C8.45333 12.5342 8.44867 12.5388 8.43937 12.5528C8.43008 12.5435 8.42545 12.5342 8.42545 12.5342V12.5667C8.37433 12.6318 8.24419 12.7898 8.06294 12.9989C7.82128 13.2777 7.24039 13.8075 6.74313 14.3513C6.24587 14.895 6.20403 15.4387 6.29698 15.8895C6.38993 16.3403 6.86395 16.7632 7.60287 16.6703C7.83523 16.6424 8.00718 16.5308 8.12801 16.3914C8.04436 17.0281 7.70047 17.3627 7.70047 17.3627H9.13647C8.87622 17.0699 8.78329 16.6563 8.74611 16.3961C8.87159 16.5355 9.03889 16.6424 9.27126 16.6703C10.0102 16.7632 10.4842 16.3403 10.5771 15.8895C10.6701 15.4387 10.6329 14.895 10.131 14.3513H10.1356Z" fill="#151515"/>
</svg>
