<svg width="79" height="109" viewBox="0 0 79 109" fill="none" xmlns="http://www.w3.org/2000/svg">
<path d="M75.2164 0.356201H3.42504C1.90047 0.356201 0.664551 1.59212 0.664551 3.11669V105.831C0.664551 107.356 1.90047 108.592 3.42504 108.592H75.2164C76.741 108.592 77.9768 107.356 77.9768 105.831V3.11669C77.9768 1.59212 76.741 0.356201 75.2164 0.356201Z" fill="white"/>
<path d="M75.2162 108.643H3.4249C1.8727 108.643 0.608643 107.379 0.608643 105.827V3.11215C0.608643 1.55996 1.8727 0.295898 3.4249 0.295898H75.2162C76.7684 0.295898 78.0325 1.55996 78.0325 3.11215V105.827C78.0325 107.379 76.7684 108.643 75.2162 108.643ZM3.4249 0.407429C1.93312 0.407429 0.720173 1.62037 0.720173 3.11215V105.827C0.720173 107.318 1.93312 108.531 3.4249 108.531H75.2162C76.708 108.531 77.9209 107.318 77.9209 105.827V3.11215C77.9209 1.62037 76.708 0.407429 75.2162 0.407429H3.4249Z" fill="#65A7DD"/>
<path d="M69.9464 8.88868C69.9464 9.03274 69.8302 9.15358 69.6815 9.15358C69.5328 9.15358 69.4166 9.03739 69.4166 8.88868C69.4166 8.73996 69.5328 8.62378 69.6815 8.62378C69.8302 8.62378 69.9464 8.73996 69.9464 8.88868Z" fill="white"/>
<path d="M57.3428 8.88868C57.3428 9.03274 57.2266 9.15358 57.0779 9.15358C56.9292 9.15358 56.813 9.03739 56.813 8.88868C56.813 8.73996 56.9292 8.62378 57.0779 8.62378C57.2266 8.62378 57.3428 8.73996 57.3428 8.88868Z" fill="white"/>
<path d="M45.7432 8.88868C45.7432 9.03274 45.627 9.15358 45.4783 9.15358C45.3296 9.15358 45.2134 9.03739 45.2134 8.88868C45.2134 8.73996 45.3296 8.62378 45.4783 8.62378C45.627 8.62378 45.7432 8.73996 45.7432 8.88868Z" fill="white"/>
<path d="M34.1017 8.97242C34.1017 9.11648 33.9855 9.23732 33.8368 9.23732C33.6881 9.23732 33.5719 9.12113 33.5719 8.97242C33.5719 8.82371 33.6881 8.70752 33.8368 8.70752C33.9855 8.70752 34.1017 8.82371 34.1017 8.97242Z" fill="white"/>
<path d="M69.9464 18.7131C69.9464 18.8572 69.8302 18.978 69.6815 18.978C69.5328 18.978 69.4166 18.8618 69.4166 18.7131C69.4166 18.5644 69.5328 18.4482 69.6815 18.4482C69.8302 18.4482 69.9464 18.5644 69.9464 18.7131Z" fill="white"/>
<path d="M69.9464 27.6777C69.9464 27.8218 69.8302 27.9426 69.6815 27.9426C69.5328 27.9426 69.4166 27.8265 69.4166 27.6777C69.4166 27.529 69.5328 27.4128 69.6815 27.4128C69.8302 27.4128 69.9464 27.529 69.9464 27.6777Z" fill="white"/>
<path d="M69.9464 37.0745C69.9464 37.2185 69.8302 37.3394 69.6815 37.3394C69.5328 37.3394 69.4166 37.2232 69.4166 37.0745C69.4166 36.9258 69.5328 36.8096 69.6815 36.8096C69.8302 36.8096 69.9464 36.9258 69.9464 37.0745Z" fill="white"/>
<path d="M69.9464 43.0137C69.9464 43.1577 69.8302 43.2786 69.6815 43.2786C69.5328 43.2786 69.4166 43.1624 69.4166 43.0137C69.4166 42.865 69.5328 42.7488 69.6815 42.7488C69.8302 42.7488 69.9464 42.865 69.9464 43.0137Z" fill="white"/>
<path d="M69.9464 48.9763C69.9464 49.1204 69.8302 49.2412 69.6815 49.2412C69.5328 49.2412 69.4166 49.125 69.4166 48.9763C69.4166 48.8276 69.5328 48.7114 69.6815 48.7114C69.8302 48.7114 69.9464 48.8276 69.9464 48.9763Z" fill="white"/>
<path d="M9.39683 9.15357C9.39683 9.29764 9.28068 9.41846 9.13196 9.41846C8.98325 9.41846 8.86707 9.30228 8.86707 9.15357C8.86707 9.00486 8.98325 8.88867 9.13196 8.88867C9.28068 8.88867 9.39683 9.00486 9.39683 9.15357Z" fill="white"/>
<path d="M22.1489 8.97242C22.1489 9.11648 22.0328 9.23732 21.884 9.23732C21.7353 9.23732 21.6191 9.12113 21.6191 8.97242C21.6191 8.82371 21.7353 8.70752 21.884 8.70752C22.0328 8.70752 22.1489 8.82371 22.1489 8.97242Z" fill="white"/>
<path d="M9.39683 18.5039C9.39683 18.648 9.28068 18.7688 9.13196 18.7688C8.98325 18.7688 8.86707 18.6526 8.86707 18.5039C8.86707 18.3552 8.98325 18.239 9.13196 18.239C9.28068 18.239 9.39683 18.3552 9.39683 18.5039Z" fill="white"/>
<path d="M9.39683 27.7427C9.39683 27.8867 9.28068 28.0076 9.13196 28.0076C8.98325 28.0076 8.86707 27.8914 8.86707 27.7427C8.86707 27.594 8.98325 27.4778 9.13196 27.4778C9.28068 27.4778 9.39683 27.594 9.39683 27.7427Z" fill="white"/>
<path d="M9.39683 37.0095C9.39683 37.1536 9.28068 37.2744 9.13196 37.2744C8.98325 37.2744 8.86707 37.1582 8.86707 37.0095C8.86707 36.8608 8.98325 36.7446 9.13196 36.7446C9.28068 36.7446 9.39683 36.8608 9.39683 37.0095Z" fill="white"/>
<path d="M9.39683 43.0137C9.39683 43.1577 9.28068 43.2786 9.13196 43.2786C8.98325 43.2786 8.86707 43.1624 8.86707 43.0137C8.86707 42.865 8.98325 42.7488 9.13196 42.7488C9.28068 42.7488 9.39683 42.865 9.39683 43.0137Z" fill="white"/>
<path d="M9.39683 49.2412C9.39683 49.3853 9.28068 49.5061 9.13196 49.5061C8.98325 49.5061 8.86707 49.3899 8.86707 49.2412C8.86707 49.0925 8.98325 48.9763 9.13196 48.9763C9.28068 48.9763 9.39683 49.0925 9.39683 49.2412Z" fill="white"/>
<path d="M9.39683 55.25C9.39683 55.3941 9.28068 55.5149 9.13196 55.5149C8.98325 55.5149 8.86707 55.3987 8.86707 55.25C8.86707 55.1013 8.98325 54.9851 9.13196 54.9851C9.28068 54.9851 9.39683 55.1013 9.39683 55.25Z" fill="white"/>
<path d="M9.39683 61.259C9.39683 61.4031 9.28068 61.5239 9.13196 61.5239C8.98325 61.5239 8.86707 61.4078 8.86707 61.259C8.86707 61.1103 8.98325 60.9941 9.13196 60.9941C9.28068 60.9941 9.39683 61.1103 9.39683 61.259Z" fill="white"/>
<path d="M9.39683 67.4863C9.39683 67.6304 9.28068 67.7512 9.13196 67.7512C8.98325 67.7512 8.86707 67.635 8.86707 67.4863C8.86707 67.3376 8.98325 67.2214 9.13196 67.2214C9.28068 67.2214 9.39683 67.3376 9.39683 67.4863Z" fill="white"/>
<path d="M9.39683 73.7278C9.39683 73.8718 9.28068 73.9927 9.13196 73.9927C8.98325 73.9927 8.86707 73.8765 8.86707 73.7278C8.86707 73.5791 8.98325 73.4629 9.13196 73.4629C9.28068 73.4629 9.39683 73.5791 9.39683 73.7278Z" fill="white"/>
<path d="M9.39683 79.3044C9.39683 79.4485 9.28068 79.5693 9.13196 79.5693C8.98325 79.5693 8.86707 79.4531 8.86707 79.3044C8.86707 79.1557 8.98325 79.0396 9.13196 79.0396C9.28068 79.0396 9.39683 79.1557 9.39683 79.3044Z" fill="white"/>
<path d="M9.39683 85.5271C9.39683 85.6712 9.28068 85.792 9.13196 85.792C8.98325 85.792 8.86707 85.6758 8.86707 85.5271C8.86707 85.3784 8.98325 85.2622 9.13196 85.2622C9.28068 85.2622 9.39683 85.3784 9.39683 85.5271Z" fill="white"/>
<path d="M9.39683 91.5918C9.39683 91.7359 9.28068 91.8567 9.13196 91.8567C8.98325 91.8567 8.86707 91.7405 8.86707 91.5918C8.86707 91.4431 8.98325 91.3269 9.13196 91.3269C9.28068 91.3269 9.39683 91.4431 9.39683 91.5918Z" fill="white"/>
<path d="M9.50367 100.51C9.50367 100.654 9.38749 100.775 9.23878 100.775C9.09006 100.775 8.97388 100.659 8.97388 100.51C8.97388 100.361 9.09006 100.245 9.23878 100.245C9.38749 100.245 9.50367 100.361 9.50367 100.51Z" fill="white"/>
<path d="M19.0445 100.77C19.0445 100.914 18.9284 101.035 18.7796 101.035C18.6309 101.035 18.5148 100.919 18.5148 100.77C18.5148 100.622 18.6309 100.505 18.7796 100.505C18.9284 100.505 19.0445 100.622 19.0445 100.77Z" fill="white"/>
<path d="M31.3366 100.77C31.3366 100.914 31.2204 101.035 31.0717 101.035C30.9229 101.035 30.8068 100.919 30.8068 100.77C30.8068 100.622 30.9229 100.505 31.0717 100.505C31.2204 100.505 31.3366 100.622 31.3366 100.77Z" fill="white"/>
<path d="M43.6054 100.77C43.6054 100.914 43.4891 101.035 43.3404 101.035C43.1917 101.035 43.0756 100.919 43.0756 100.77C43.0756 100.622 43.1917 100.505 43.3404 100.505C43.4891 100.505 43.6054 100.622 43.6054 100.77Z" fill="white"/>
<path d="M55.5584 100.77C55.5584 100.914 55.4422 101.035 55.2935 101.035C55.1448 101.035 55.0286 100.919 55.0286 100.77C55.0286 100.622 55.1448 100.505 55.2935 100.505C55.4422 100.505 55.5584 100.622 55.5584 100.77Z" fill="white"/>
<path d="M69.9464 55.106C69.9464 55.25 69.8302 55.3708 69.6815 55.3708C69.5328 55.3708 69.4166 55.2547 69.4166 55.106C69.4166 54.9573 69.5328 54.8411 69.6815 54.8411C69.8302 54.8411 69.9464 54.9573 69.9464 55.106Z" fill="white"/>
<path d="M69.9464 60.8362C69.9464 60.9803 69.8302 61.1011 69.6815 61.1011C69.5328 61.1011 69.4166 60.9849 69.4166 60.8362C69.4166 60.6875 69.5328 60.5713 69.6815 60.5713C69.8302 60.5713 69.9464 60.6875 69.9464 60.8362Z" fill="white"/>
<path d="M69.9464 67.0125C69.9464 67.1565 69.8302 67.2773 69.6815 67.2773C69.5328 67.2773 69.4166 67.1612 69.4166 67.0125C69.4166 66.8637 69.5328 66.7476 69.6815 66.7476C69.8302 66.7476 69.9464 66.8637 69.9464 67.0125Z" fill="white"/>
<path d="M69.9464 73.1003C69.9464 73.2444 69.8302 73.3652 69.6815 73.3652C69.5328 73.3652 69.4166 73.249 69.4166 73.1003C69.4166 72.9516 69.5328 72.8354 69.6815 72.8354C69.8302 72.8354 69.9464 72.9516 69.9464 73.1003Z" fill="white"/>
<path d="M69.9464 79.0303C69.9464 79.1743 69.8302 79.2952 69.6815 79.2952C69.5328 79.2952 69.4166 79.179 69.4166 79.0303C69.4166 78.8816 69.5328 78.7654 69.6815 78.7654C69.8302 78.7654 69.9464 78.8816 69.9464 79.0303Z" fill="white"/>
<path d="M69.9464 84.8718C69.9464 85.0159 69.8302 85.1367 69.6815 85.1367C69.5328 85.1367 69.4166 85.0205 69.4166 84.8718C69.4166 84.7231 69.5328 84.6069 69.6815 84.6069C69.8302 84.6069 69.9464 84.7231 69.9464 84.8718Z" fill="white"/>
<path d="M69.9464 90.8391C69.9464 90.9832 69.8302 91.104 69.6815 91.104C69.5328 91.104 69.4166 90.9878 69.4166 90.8391C69.4166 90.6904 69.5328 90.5742 69.6815 90.5742C69.8302 90.5742 69.9464 90.6904 69.9464 90.8391Z" fill="white"/>
<path d="M69.9464 99.9338C69.9464 100.078 69.8302 100.199 69.6815 100.199C69.5328 100.199 69.4166 100.083 69.4166 99.9338C69.4166 99.7851 69.5328 99.6689 69.6815 99.6689C69.8302 99.6689 69.9464 99.7851 69.9464 99.9338Z" fill="white"/>
<path d="M7.76555 10.901C7.46348 10.7616 7.21717 10.5664 7.03592 10.3061C6.85468 10.0459 6.76172 9.74382 6.76172 9.39527C6.76172 8.95842 6.88719 8.61453 7.1335 8.36822C7.3798 8.12192 7.64005 7.95925 7.91889 7.88025V7.84308L7.82131 7.7966C7.50065 7.66648 7.25899 7.47129 7.09169 7.21104C6.92438 6.95079 6.84071 6.65338 6.84071 6.30948C6.84071 5.99811 6.93833 5.71462 7.12887 5.45901C7.31941 5.20341 7.57036 5.00358 7.87708 4.86416C8.1838 4.72474 8.50446 4.65039 8.83442 4.65039C9.24338 4.65039 9.59192 4.72474 9.87541 4.87345C10.1589 5.02216 10.3773 5.21271 10.5214 5.44972C10.6655 5.68674 10.7398 5.93769 10.7398 6.20258C10.7398 6.52789 10.6376 6.80673 10.4284 7.04374C10.2193 7.28075 9.97765 7.462 9.70346 7.58748V7.62465L9.91259 7.70366C10.6236 7.99179 10.9768 8.44723 10.9768 9.06532C10.9768 9.4371 10.8932 9.78099 10.7212 10.0877C10.5493 10.3991 10.2983 10.6454 9.96371 10.8266C9.6291 11.0125 9.22943 11.1008 8.76935 11.1008C8.41616 11.1008 8.0862 11.0311 7.77948 10.8917L7.76555 10.901ZM9.66627 10.6129C9.8754 10.4734 10.0288 10.3061 10.1217 10.111C10.2146 9.91577 10.2611 9.72988 10.2611 9.55793C10.2611 9.22332 10.1868 8.97236 10.0381 8.80971C9.88934 8.64705 9.67558 8.50764 9.3921 8.3961L8.17451 7.95461C7.92821 8.05685 7.73764 8.21951 7.59823 8.44258C7.45881 8.66565 7.38912 8.99095 7.38912 9.4185C7.38912 9.90182 7.53319 10.255 7.82597 10.4827C8.11875 10.7104 8.45797 10.8266 8.84835 10.8266C9.1783 10.8266 9.44785 10.7569 9.66162 10.6175L9.66627 10.6129ZM9.99159 6.99727C10.0985 6.78814 10.1542 6.54183 10.1542 6.25835C10.1542 6.01204 10.0938 5.78897 9.97301 5.58449C9.85218 5.38465 9.68951 5.22665 9.48968 5.11047C9.28984 4.99429 9.06678 4.93852 8.82512 4.93852C8.45333 4.93852 8.13733 5.0454 7.88173 5.25453C7.62613 5.46366 7.50065 5.74714 7.50065 6.09569C7.50065 6.34664 7.56105 6.55113 7.68652 6.69985C7.812 6.84856 8.00254 6.97868 8.26744 7.08557L9.42926 7.52706C9.69415 7.383 9.88005 7.20639 9.98694 6.99261L9.99159 6.99727Z" fill="black"/>
<path d="M71.3592 95.714C71.6613 95.8534 71.9077 96.0486 72.0889 96.3089C72.2701 96.5691 72.3631 96.8712 72.3631 97.2197C72.3631 97.6566 72.2376 98.0005 71.9913 98.2468C71.745 98.4931 71.4847 98.6557 71.2059 98.7347V98.7719L71.3035 98.8184C71.6241 98.9485 71.8658 99.1437 72.0331 99.404C72.2004 99.6642 72.284 99.9616 72.284 100.306C72.284 100.617 72.1865 100.9 71.9959 101.156C71.8054 101.412 71.5544 101.611 71.2477 101.751C70.941 101.89 70.6203 101.965 70.2903 101.965C69.8814 101.965 69.5328 101.89 69.2494 101.746C68.9659 101.597 68.7475 101.407 68.6034 101.17C68.4594 100.933 68.385 100.682 68.385 100.417C68.385 100.092 68.4872 99.8129 68.6964 99.5713C68.9055 99.3343 69.1471 99.153 69.4213 99.0275V98.9904L69.2122 98.9067C68.5012 98.6186 68.1479 98.1631 68.1479 97.545C68.1479 97.1733 68.2316 96.8294 68.4036 96.5226C68.5755 96.2113 68.8265 95.965 69.1611 95.7837C69.4957 95.5978 69.8953 95.5095 70.3554 95.5095C70.7086 95.5095 71.0386 95.5792 71.3453 95.7187L71.3592 95.714ZM69.4585 96.0021C69.2494 96.1416 69.096 96.3089 69.0031 96.504C68.9101 96.6992 68.8636 96.8851 68.8636 97.0571C68.8636 97.3917 68.938 97.6426 69.0867 97.8053C69.2354 97.9679 69.4492 98.1074 69.7327 98.2189L70.9503 98.6604C71.1966 98.5581 71.3871 98.3955 71.5265 98.1724C71.666 97.9494 71.7357 97.624 71.7357 97.1965C71.7357 96.7132 71.5916 96.36 71.2988 96.1323C71.006 95.9046 70.6668 95.7884 70.2764 95.7884C69.9465 95.7884 69.6769 95.8581 69.4632 95.9975L69.4585 96.0021ZM69.1332 99.6177C69.0263 99.8269 68.9705 100.073 68.9705 100.357C68.9705 100.603 69.031 100.826 69.1518 101.031C69.2726 101.23 69.4353 101.388 69.6351 101.505C69.8349 101.621 70.058 101.676 70.2996 101.676C70.6714 101.676 70.9875 101.57 71.2431 101.36C71.4987 101.151 71.6242 100.868 71.6242 100.519C71.6242 100.268 71.5637 100.064 71.4383 99.9152C71.3128 99.7664 71.1223 99.6363 70.8574 99.5294L69.6955 99.0879C69.4306 99.232 69.2447 99.4086 69.1378 99.6224L69.1332 99.6177Z" fill="black"/>
<path d="M45.1298 34.328C43.4196 32.4644 41.4352 30.6473 40.608 29.6946C39.9852 28.9789 39.5438 28.4352 39.3625 28.2075V28.0913C39.3625 28.0913 39.3439 28.1099 39.3161 28.1517C39.2882 28.1145 39.2695 28.0913 39.2695 28.0913V28.2075C39.0883 28.4352 38.6468 28.9789 38.0241 29.6946C37.1922 30.6473 35.2079 32.4644 33.5023 34.328C31.7921 36.1915 31.6573 38.0551 31.978 39.598C32.3033 41.1409 33.9159 42.5955 36.458 42.2795C37.2573 42.1819 37.8382 41.7962 38.2611 41.3221C37.9776 43.5064 36.7926 44.645 36.7926 44.645H41.7187C40.8218 43.6411 40.5011 42.2191 40.3849 41.3314C40.8078 41.8008 41.3887 42.1772 42.1788 42.2795C44.7162 42.5955 46.3334 41.1455 46.6587 39.598C46.9841 38.0551 46.8447 36.1915 45.1345 34.328H45.1298Z" fill="#151515"/>
<path d="M31.3879 16.6451C29.6777 14.7816 27.6933 12.9645 26.8661 12.0118C26.2433 11.2961 25.8018 10.7523 25.6206 10.5246V10.4084C25.6206 10.4084 25.602 10.427 25.5741 10.4689C25.5462 10.4317 25.5276 10.4084 25.5276 10.4084V10.5246C25.3464 10.7523 24.9049 11.2961 24.2822 12.0118C23.4503 12.9645 21.4659 14.7816 19.7604 16.6451C18.0502 18.5087 17.9154 20.3722 18.236 21.9151C18.5613 23.458 20.174 24.9126 22.716 24.5966C23.5154 24.499 24.0963 24.1133 24.5192 23.6393C24.2357 25.8235 23.0506 26.9621 23.0506 26.9621H27.9768C27.0798 25.9583 26.7592 24.5362 26.643 23.6486C27.0659 24.118 27.6468 24.4944 28.4368 24.5966C30.9743 24.9126 32.5915 23.4627 32.9168 21.9151C33.2421 20.3722 33.1027 18.5087 31.3925 16.6451H31.3879Z" fill="#151515"/>
<path d="M31.3879 52.234C29.6777 50.3704 27.6933 48.5533 26.8661 47.6006C26.2433 46.8849 25.8018 46.3412 25.6206 46.1135V45.9973C25.6206 45.9973 25.602 46.0159 25.5741 46.0577C25.5462 46.0206 25.5276 45.9973 25.5276 45.9973V46.1135C25.3464 46.3412 24.9049 46.8849 24.2822 47.6006C23.4503 48.5533 21.4659 50.3704 19.7604 52.234C18.0502 54.0975 17.9154 55.9611 18.236 57.504C18.5613 59.0469 20.174 60.5015 22.716 60.1855C23.5154 60.0879 24.0963 59.7022 24.5192 59.2281C24.2357 61.4124 23.0506 62.551 23.0506 62.551H27.9768C27.0798 61.5471 26.7592 60.1251 26.643 59.2374C27.0659 59.7068 27.6468 60.0832 28.4368 60.1855C30.9743 60.5015 32.5915 59.0515 32.9168 57.504C33.2421 55.9564 33.1027 54.0975 31.3925 52.234H31.3879Z" fill="#151515"/>
<path d="M31.3879 90.732C29.6777 92.5956 27.6933 94.4127 26.8661 95.3654C26.2433 96.081 25.8018 96.6248 25.6206 96.8525V96.9687C25.6206 96.9687 25.602 96.9501 25.5741 96.9083C25.5462 96.9454 25.5276 96.9687 25.5276 96.9687V96.8525C25.3464 96.6248 24.9049 96.081 24.2822 95.3654C23.4503 94.4127 21.4659 92.5956 19.7604 90.732C18.0502 88.8684 17.9154 87.0049 18.236 85.462C18.5567 83.9191 20.174 82.4645 22.716 82.7805C23.5154 82.8781 24.0963 83.2638 24.5192 83.7378C24.2357 81.5536 23.0506 80.415 23.0506 80.415H27.9768C27.0798 81.4189 26.7592 82.8409 26.643 83.7286C27.0659 83.2592 27.6468 82.8827 28.4368 82.7805C30.9743 82.4645 32.5915 83.9144 32.9168 85.462C33.2421 87.0049 33.1027 88.8684 31.3925 90.732H31.3879Z" fill="#151515"/>
<path d="M59.3042 16.6451C57.594 14.7816 55.6095 12.9645 54.7823 12.0118C54.1596 11.2961 53.7181 10.7523 53.5369 10.5246V10.4084C53.5369 10.4084 53.5183 10.427 53.4904 10.4689C53.4625 10.4317 53.4439 10.4084 53.4439 10.4084V10.5246C53.2626 10.7523 52.8212 11.2961 52.1984 12.0118C51.3666 12.9645 49.3822 14.7816 47.6766 16.6451C45.9711 18.5087 45.8316 20.3722 46.1523 21.9151C46.4776 23.458 48.0902 24.9126 50.6323 24.5966C51.4316 24.499 52.0125 24.1133 52.4355 23.6393C52.152 25.8235 50.9669 26.9621 50.9669 26.9621H55.893C54.9961 25.9583 54.6754 24.5362 54.5592 23.6486C54.9821 24.118 55.563 24.4944 56.3531 24.5966C58.8905 24.9126 60.5078 23.4627 60.8331 21.9151C61.1584 20.3722 61.019 18.5087 59.3088 16.6451H59.3042Z" fill="#151515"/>
<path d="M59.304 52.234C57.5938 50.3704 55.6094 48.5533 54.7822 47.6006C54.1594 46.8849 53.718 46.3412 53.5367 46.1135V45.9973C53.5367 45.9973 53.5181 46.0159 53.4903 46.0577C53.4624 46.0206 53.4437 45.9973 53.4437 45.9973V46.1135C53.2625 46.3412 52.821 46.8849 52.1983 47.6006C51.3664 48.5533 49.3821 50.3704 47.6765 52.234C45.9663 54.0975 45.8315 55.9611 46.1522 57.504C46.4728 59.0469 48.0901 60.5015 50.6322 60.1855C51.4315 60.0879 52.0124 59.7022 52.4353 59.2281C52.1518 61.4124 50.9668 62.551 50.9668 62.551H55.8929C54.9959 61.5471 54.6753 60.1251 54.5591 59.2374C54.982 59.7068 55.5629 60.0832 56.3529 60.1855C58.8904 60.5015 60.5076 59.0515 60.8329 57.504C61.1583 55.9564 61.0189 54.0975 59.3087 52.234H59.304Z" fill="#151515"/>
<path d="M59.304 90.732C57.5938 92.5956 55.6094 94.4127 54.7822 95.3654C54.1594 96.081 53.718 96.6248 53.5367 96.8525V96.9687C53.5367 96.9687 53.5181 96.9501 53.4903 96.9083C53.4624 96.9454 53.4437 96.9687 53.4437 96.9687V96.8525C53.2625 96.6248 52.821 96.081 52.1983 95.3654C51.3664 94.4127 49.3821 92.5956 47.6765 90.732C45.9663 88.8684 45.8315 87.0049 46.1522 85.462C46.4728 83.9191 48.0901 82.4645 50.6322 82.7805C51.4315 82.8781 52.0124 83.2638 52.4353 83.7378C52.1518 81.5536 50.9668 80.415 50.9668 80.415H55.8929C54.9959 81.4189 54.6753 82.8409 54.5591 83.7286C54.982 83.2592 55.5629 82.8827 56.3529 82.7805C58.8904 82.4645 60.5076 83.9144 60.8329 85.462C61.1583 87.0049 61.0189 88.8684 59.3087 90.732H59.304Z" fill="#151515"/>
<path d="M45.1298 74.0577C43.4196 75.9213 41.4352 77.7384 40.608 78.6911C39.9852 79.4067 39.5438 79.9505 39.3625 80.1782V80.2944C39.3625 80.2944 39.3439 80.2758 39.3161 80.2339C39.2882 80.2711 39.2695 80.2944 39.2695 80.2944V80.1782C39.0883 79.9505 38.6468 79.4067 38.0241 78.6911C37.1922 77.7384 35.2079 75.9213 33.5023 74.0577C31.7921 72.1941 31.6573 70.3306 31.978 68.7877C32.3033 67.2448 33.9159 65.7902 36.458 66.1062C37.2573 66.2038 37.8382 66.5895 38.2611 67.0635C37.9776 64.8793 36.7926 63.7407 36.7926 63.7407H41.7187C40.8218 64.7445 40.5011 66.1666 40.3849 67.0542C40.8078 66.5849 41.3887 66.2084 42.1788 66.1062C44.7162 65.7902 46.3334 67.2401 46.6587 68.7877C46.9841 70.3306 46.8447 72.1941 45.1345 74.0577H45.1298Z" fill="#151515"/>
<path d="M71.5638 91.8567C71.0665 92.4004 70.4855 92.9302 70.2439 93.209C70.0626 93.4182 69.9326 93.5762 69.8814 93.6412V93.6738C69.8814 93.6738 69.8768 93.6691 69.8675 93.6552C69.8582 93.6645 69.8535 93.6738 69.8535 93.6738V93.6412C69.8024 93.5762 69.6723 93.4182 69.491 93.209C69.2494 92.9302 68.6685 92.4004 68.1712 91.8567C67.6739 91.3129 67.6321 90.7692 67.7251 90.3184C67.818 89.8676 68.292 89.4447 69.0309 89.5377C69.2633 89.5656 69.4353 89.6771 69.5561 89.8165C69.4724 89.1798 69.1285 88.8452 69.1285 88.8452H70.5646C70.3043 89.138 70.2113 89.5516 70.1742 89.8119C70.2996 89.6724 70.4669 89.5656 70.6993 89.5377C71.4382 89.4447 71.9123 89.8676 72.0052 90.3184C72.0982 90.7692 72.061 91.3129 71.5591 91.8567H71.5638Z" fill="#151515"/>
<path d="M11.0048 14.6467C10.5075 14.1029 9.92663 13.5732 9.68497 13.2943C9.50373 13.0852 9.37359 12.9272 9.32247 12.8621V12.8296C9.32247 12.8296 9.31781 12.8342 9.30851 12.8482C9.29922 12.8389 9.29459 12.8296 9.29459 12.8296V12.8621C9.24347 12.9272 9.11333 13.0852 8.93208 13.2943C8.69043 13.5732 8.10953 14.1029 7.61227 14.6467C7.11501 15.1904 7.07317 15.7341 7.16612 16.1849C7.25907 16.6357 7.73309 17.0586 8.47201 16.9657C8.70437 16.9378 8.87632 16.8263 8.99715 16.6868C8.9135 17.3235 8.56961 17.6581 8.56961 17.6581H10.0056C9.74536 17.3653 9.65243 16.9517 9.61525 16.6915C9.74073 16.8309 9.90803 16.9378 10.1404 16.9657C10.8793 17.0586 11.3533 16.6357 11.4463 16.1849C11.5392 15.7341 11.502 15.1904 11.0001 14.6467H11.0048Z" fill="#151515"/>
</svg>
