<svg width="79" height="109" viewBox="0 0 79 109" fill="none" xmlns="http://www.w3.org/2000/svg">
<path d="M3.52572 0.356201H75.2985C76.8228 0.356201 78.0589 1.59238 78.0589 3.11669V105.831C78.0589 107.355 76.8228 108.592 75.2985 108.592H3.52572C2.00141 108.592 0.765259 107.355 0.765259 105.831V3.11669C0.765259 1.59238 2.00141 0.356201 3.52572 0.356201Z" fill="white"/>
<path d="M75.3031 108.643H3.53033C1.97813 108.643 0.71875 107.379 0.71875 105.827V3.11215C0.71875 1.55996 1.98278 0.295898 3.53033 0.295898H75.3031C76.8553 0.295898 78.1147 1.55996 78.1147 3.11215V105.827C78.1147 107.379 76.8506 108.643 75.3031 108.643ZM3.53033 0.407429C2.03855 0.407429 0.825629 1.62037 0.825629 3.11215V105.827C0.825629 107.318 2.03855 108.531 3.53033 108.531H75.3031C76.7949 108.531 78.0078 107.318 78.0078 105.827V3.11215C78.0078 1.62037 76.7949 0.407429 75.3031 0.407429H3.53033Z" fill="#65A7DD"/>
<path d="M6.67201 12.4673C6.58371 12.3604 6.51863 12.2395 6.47681 12.1048C6.43963 11.9746 6.41645 11.8538 6.41645 11.7516C6.41645 11.5424 6.4908 11.3705 6.64416 11.2357C6.75105 11.1474 6.87649 11.101 7.01591 11.101C7.15533 11.101 7.26225 11.1567 7.34125 11.2636C7.36914 11.3054 7.39237 11.3426 7.40167 11.3798C7.41096 11.417 7.41557 11.4634 7.41557 11.5238C7.41557 11.6121 7.37839 11.7051 7.29939 11.7934C7.24362 11.8538 7.18785 11.9049 7.12744 11.9468C7.07167 11.9839 7.0345 12.0211 7.01591 12.0583C6.99267 12.0955 6.9834 12.1419 6.9834 12.1977C6.9834 12.3046 7.04383 12.4022 7.16931 12.4812C7.29013 12.5602 7.48066 12.602 7.73161 12.602C7.95003 12.602 8.15449 12.537 8.34968 12.4115C8.54486 12.286 8.70755 12.0769 8.84232 11.7795C8.94456 11.5564 9.02356 11.2775 9.07468 10.9383C9.13045 10.599 9.15365 10.3156 9.15365 10.0971V9.69283L9.08864 9.66493C8.98175 9.89265 8.81441 10.0832 8.58669 10.2273C8.36362 10.376 8.14519 10.4503 7.93141 10.4503C7.5271 10.4503 7.18787 10.3527 6.91368 10.1529C6.68132 9.9856 6.50006 9.75788 6.37458 9.46975C6.2491 9.18627 6.18408 8.87954 6.18408 8.55423C6.18408 8.22892 6.25843 7.90361 6.40249 7.57365C6.54656 7.24369 6.76033 6.97416 7.03917 6.75574C7.318 6.53731 7.64796 6.43042 8.02439 6.43042C8.40082 6.43042 8.75865 6.55125 9.05608 6.79291C9.3535 7.03457 9.58586 7.37847 9.74386 7.82461C9.90652 8.27075 9.98553 8.80054 9.98553 9.40933C9.98553 9.90195 9.92045 10.3853 9.79498 10.8593C9.6695 11.3333 9.48364 11.7283 9.24663 12.0397C8.80978 12.6067 8.2939 12.8855 7.7037 12.8855C7.27615 12.8855 6.93226 12.7414 6.66736 12.4533L6.67201 12.4673ZM8.48447 9.91589C8.65177 9.77647 8.78653 9.58129 8.88413 9.32569C8.98172 9.07009 9.03282 8.7773 9.03282 8.44734C9.03282 7.95008 8.95381 7.53648 8.80045 7.21581C8.64244 6.89515 8.38688 6.73249 8.02439 6.73249C7.6619 6.73249 7.39237 6.90909 7.22507 7.25764C7.05777 7.60618 6.97875 8.0012 6.97875 8.44734C6.97875 8.93066 7.05309 9.33033 7.19716 9.64635C7.34123 9.96701 7.58291 10.125 7.91751 10.125C8.12664 10.125 8.31717 10.0553 8.48447 9.91589Z" fill="black"/>
<path d="M70.9624 97.7403C71.0507 97.8472 71.1158 97.968 71.1577 98.1028C71.1948 98.2329 71.2181 98.3537 71.2181 98.456C71.2181 98.6651 71.1437 98.837 70.9904 98.9718C70.8835 99.0601 70.758 99.1066 70.6186 99.1066C70.4791 99.1066 70.3723 99.0508 70.2933 98.9439C70.2654 98.9021 70.2421 98.8649 70.2328 98.8277C70.2236 98.7906 70.2189 98.7441 70.2189 98.6837C70.2189 98.5954 70.2561 98.5024 70.3351 98.4141C70.3908 98.3537 70.4466 98.3026 70.507 98.2608C70.5628 98.2236 70.6 98.1864 70.6186 98.1492C70.6418 98.1121 70.6511 98.0656 70.6511 98.0098C70.6511 97.9029 70.5907 97.8053 70.4652 97.7263C70.3444 97.6473 70.1539 97.6055 69.9029 97.6055C69.6845 97.6055 69.48 97.6706 69.2848 97.796C69.0896 97.9215 68.927 98.1306 68.7922 98.4281C68.69 98.6511 68.611 98.93 68.5598 99.2692C68.5041 99.6085 68.4808 99.892 68.4808 100.11V100.515L68.5459 100.543C68.6528 100.315 68.82 100.124 69.0478 99.9803C69.2755 99.8316 69.4893 99.7572 69.703 99.7572C70.1074 99.7572 70.4466 99.8548 70.7208 100.055C70.9532 100.222 71.1344 100.45 71.2599 100.738C71.3854 101.021 71.4504 101.328 71.4504 101.653C71.4504 101.979 71.3761 102.304 71.232 102.634C71.088 102.964 70.8742 103.233 70.5953 103.452C70.3165 103.67 69.9866 103.777 69.6101 103.777C69.2337 103.777 68.8758 103.656 68.5784 103.415C68.281 103.173 68.0486 102.829 67.8906 102.383C67.7279 101.937 67.6489 101.407 67.6489 100.798C67.6489 100.306 67.714 99.8223 67.8395 99.3482C67.965 98.8742 68.1509 98.4792 68.3879 98.1678C68.8247 97.6008 69.3406 97.322 69.9308 97.322C70.3583 97.322 70.7022 97.4661 70.9671 97.7542L70.9624 97.7403ZM69.15 100.292C68.9827 100.431 68.8479 100.626 68.7503 100.882C68.6527 101.137 68.6016 101.43 68.6016 101.76C68.6016 102.257 68.6806 102.671 68.834 102.992C68.992 103.312 69.2476 103.475 69.6101 103.475C69.9726 103.475 70.2421 103.298 70.4094 102.95C70.5767 102.601 70.6558 102.206 70.6558 101.76C70.6558 101.277 70.5814 100.877 70.4373 100.561C70.2932 100.241 70.0516 100.083 69.717 100.083C69.5079 100.083 69.3174 100.152 69.15 100.292Z" fill="black"/>
<path d="M42.7721 53.289C41.0851 51.4487 39.124 49.6502 38.3014 48.7068C37.6833 48.0004 37.2511 47.4613 37.0699 47.2383V47.1221C37.0699 47.1221 37.0559 47.1407 37.0234 47.1778C36.9955 47.1407 36.9769 47.1221 36.9769 47.1221V47.2383C36.7956 47.4613 36.3588 48.0004 35.7454 48.7068C34.9228 49.6502 32.9617 51.4441 31.2747 53.289C29.5877 55.134 29.4483 56.9697 29.769 58.4986C30.0897 60.0276 31.6836 61.4636 34.1932 61.1476C34.9832 61.05 35.5549 60.6689 35.9778 60.1995C35.6943 62.3605 34.5278 63.4852 34.5278 63.4852H39.3935C38.5059 62.4907 38.1898 61.0872 38.0783 60.2135C38.4965 60.6782 39.0682 61.05 39.8536 61.1476C42.3631 61.4636 43.9618 60.023 44.2778 58.4986C44.5985 56.9697 44.4591 55.1294 42.7721 53.289Z" fill="#151515"/>
<path d="M28.1193 20.0842C26.4323 18.2439 24.4711 16.4454 23.6486 15.502C23.0305 14.7956 22.5983 14.2565 22.417 14.0334V13.9172C22.417 13.9172 22.4031 13.9358 22.3706 13.973C22.3427 13.9358 22.3241 13.9172 22.3241 13.9172V14.0334C22.1429 14.2565 21.706 14.7956 21.0926 15.502C20.27 16.4454 18.3088 18.2392 16.6219 20.0842C14.9349 21.9292 14.7955 23.7648 15.1162 25.2938C15.4368 26.8227 17.0308 28.2588 19.5404 27.9428C20.3304 27.8452 20.902 27.4687 21.3249 26.9947C21.0414 29.1557 19.875 30.2803 19.875 30.2803H24.7407C23.853 29.2858 23.537 27.8823 23.4255 27.0086C23.8438 27.4734 24.4154 27.8452 25.2008 27.9428C27.7103 28.2588 29.309 26.8181 29.625 25.2938C29.941 23.7695 29.8062 21.9245 28.1193 20.0842Z" fill="#151515"/>
<path d="M28.1193 43.5854C26.4323 41.7451 24.4711 39.9466 23.6486 39.0032C23.0305 38.2968 22.5983 37.7577 22.417 37.5346V37.4185C22.417 37.4185 22.4031 37.4371 22.3706 37.4742C22.3427 37.4371 22.3241 37.4185 22.3241 37.4185V37.5346C22.1429 37.7577 21.706 38.2968 21.0926 39.0032C20.27 39.9466 18.3088 41.7404 16.6219 43.5854C14.9349 45.4304 14.7955 47.2661 15.1162 48.795C15.4368 50.324 17.0308 51.76 19.5404 51.444C20.3304 51.3464 20.902 50.9653 21.3249 50.4959C21.0414 52.6569 19.875 53.7816 19.875 53.7816H24.7407C23.853 52.7871 23.537 51.3836 23.4255 50.5099C23.8438 50.9746 24.4154 51.3464 25.2008 51.444C27.7103 51.76 29.309 50.3193 29.625 48.795C29.9456 47.2661 29.8062 45.4257 28.1193 43.5854Z" fill="#151515"/>
<path d="M28.1193 94.6127C26.4323 96.453 24.4711 98.2515 23.6486 99.1949C23.0305 99.9013 22.5983 100.44 22.417 100.663V100.78C22.417 100.78 22.4031 100.761 22.3706 100.724C22.3427 100.761 22.3241 100.78 22.3241 100.78V100.663C22.1429 100.44 21.706 99.9013 21.0926 99.1949C20.27 98.2515 18.3088 96.4576 16.6219 94.6127C14.9349 92.7677 14.7955 90.932 15.1162 89.4031C15.4368 87.8741 17.0308 86.4381 19.5404 86.7541C20.3304 86.8517 20.902 87.2328 21.3249 87.7021C21.0414 85.5412 19.875 84.4165 19.875 84.4165H24.7407C23.853 85.411 23.537 86.8145 23.4255 87.6882C23.8438 87.2235 24.4154 86.8517 25.2008 86.7541C27.7103 86.4381 29.309 87.8787 29.625 89.4031C29.9456 90.932 29.8062 92.7723 28.1193 94.6127Z" fill="#151515"/>
<path d="M59.995 20.0842C58.308 18.2439 56.3469 16.4454 55.5243 15.502C54.9062 14.7956 54.474 14.2565 54.2928 14.0334V13.9172C54.2928 13.9172 54.2788 13.9358 54.2463 13.973C54.2184 13.9358 54.1998 13.9172 54.1998 13.9172V14.0334C54.0186 14.2565 53.5817 14.7956 52.9683 15.502C52.1457 16.4454 50.1846 18.2392 48.4976 20.0842C46.8106 21.9245 46.6712 23.7648 46.9919 25.2938C47.3126 26.8227 48.9066 28.2588 51.4161 27.9428C52.2062 27.8452 52.7778 27.4687 53.2007 26.9947C52.9172 29.1557 51.7507 30.2803 51.7507 30.2803H56.6164C55.7288 29.2858 55.4128 27.8823 55.3012 27.0086C55.7195 27.4734 56.2911 27.8452 57.0765 27.9428C59.586 28.2588 61.1847 26.8181 61.5007 25.2938C61.8167 23.7695 61.682 21.9245 59.995 20.0842Z" fill="#151515"/>
<path d="M59.995 43.5854C58.308 41.7451 56.3469 39.9466 55.5243 39.0032C54.9062 38.2968 54.474 37.7577 54.2928 37.5346V37.4185C54.2928 37.4185 54.2788 37.4371 54.2463 37.4742C54.2184 37.4371 54.1998 37.4185 54.1998 37.4185V37.5346C54.0186 37.7577 53.5817 38.2968 52.9683 39.0032C52.1457 39.9466 50.1846 41.7404 48.4976 43.5854C46.8106 45.4257 46.6712 47.2661 46.9919 48.795C47.3126 50.324 48.9066 51.76 51.4161 51.444C52.2062 51.3464 52.7778 50.9653 53.2007 50.4959C52.9172 52.6569 51.7507 53.7816 51.7507 53.7816H56.6164C55.7288 52.7871 55.4128 51.3836 55.3012 50.5099C55.7195 50.9746 56.2911 51.3464 57.0765 51.444C59.586 51.76 61.1847 50.3193 61.5007 48.795C61.8214 47.2661 61.682 45.4257 59.995 43.5854Z" fill="#151515"/>
<path d="M59.995 94.6127C58.308 96.453 56.3469 98.2515 55.5243 99.1949C54.9062 99.9013 54.474 100.44 54.2928 100.663V100.78C54.2928 100.78 54.2788 100.761 54.2463 100.724C54.2184 100.761 54.1998 100.78 54.1998 100.78V100.663C54.0186 100.44 53.5817 99.9013 52.9683 99.1949C52.1457 98.2515 50.1846 96.4576 48.4976 94.6127C46.8106 92.7723 46.6712 90.932 46.9919 89.4031C47.3126 87.8741 48.9066 86.4381 51.4161 86.7541C52.2062 86.8517 52.7778 87.2328 53.2007 87.7021C52.9172 85.5412 51.7507 84.4165 51.7507 84.4165H56.6164C55.7288 85.411 55.4128 86.8145 55.3012 87.6882C55.7195 87.2235 56.2911 86.8517 57.0765 86.7541C59.586 86.4381 61.1847 87.8787 61.5007 89.4031C61.8214 90.932 61.682 92.7723 59.995 94.6127Z" fill="#151515"/>
<path d="M28.1193 71.1161C26.4323 72.9564 24.4711 74.7549 23.6486 75.6983C23.0305 76.4047 22.5983 76.9438 22.417 77.1668V77.283C22.417 77.283 22.4031 77.2644 22.3706 77.2273C22.3427 77.2644 22.3241 77.283 22.3241 77.283V77.1668C22.1429 76.9438 21.706 76.4047 21.0926 75.6983C20.27 74.7549 18.3088 72.961 16.6219 71.1161C14.9349 69.2711 14.7955 67.4354 15.1162 65.9065C15.4368 64.3775 17.0308 62.9415 19.5404 63.2575C20.3304 63.3551 20.902 63.7315 21.3249 64.2056C21.0414 62.0446 19.875 60.9199 19.875 60.9199H24.7407C23.853 61.9144 23.537 63.3179 23.4255 64.1916C23.8438 63.7269 24.4154 63.3551 25.2008 63.2575C27.7103 62.9415 29.309 64.3822 29.625 65.9065C29.9456 67.4354 29.8062 69.2757 28.1193 71.1161Z" fill="#151515"/>
<path d="M59.995 71.1161C58.308 72.9564 56.3469 74.7549 55.5243 75.6983C54.9062 76.4047 54.474 76.9438 54.2928 77.1668V77.283C54.2928 77.283 54.2788 77.2644 54.2463 77.2273C54.2184 77.2644 54.1998 77.283 54.1998 77.283V77.1668C54.0186 76.9438 53.5817 76.4047 52.9683 75.6983C52.1457 74.7549 50.1846 72.961 48.4976 71.1161C46.8106 69.2711 46.6712 67.4354 46.9919 65.9065C47.3126 64.3775 48.9066 62.9415 51.4161 63.2575C52.2062 63.3551 52.7778 63.7315 53.2007 64.2056C52.9172 62.0446 51.7507 60.9199 51.7507 60.9199H56.6164C55.7288 61.9144 55.4128 63.3179 55.3012 64.1916C55.7195 63.7269 56.2911 63.3551 57.0765 63.2575C59.586 62.9415 61.1847 64.3822 61.5007 65.9065C61.8214 67.4354 61.682 69.2757 59.995 71.1161Z" fill="#151515"/>
<path d="M10.1064 16.4406C9.60909 15.8969 9.0282 15.3671 8.78654 15.0883C8.60529 14.8791 8.47516 14.7211 8.42404 14.6561V14.6235C8.42404 14.6235 8.41938 14.6282 8.41008 14.6421C8.40079 14.6328 8.39613 14.6235 8.39613 14.6235V14.6561C8.34501 14.7211 8.21492 14.8791 8.03368 15.0883C7.79202 15.3671 7.21107 15.8969 6.71381 16.4406C6.21655 16.9844 6.17474 17.5281 6.26769 17.9789C6.36063 18.4297 6.83468 18.8526 7.5736 18.7596C7.80597 18.7317 7.97792 18.6202 8.09875 18.4808C8.0151 19.1175 7.67118 19.4521 7.67118 19.4521H9.10717C8.84693 19.1593 8.754 18.7457 8.71682 18.4854C8.84229 18.6249 9.0096 18.7317 9.24196 18.7596C9.98088 18.8526 10.4549 18.4297 10.5478 17.9789C10.6408 17.5281 10.6036 16.9844 10.1017 16.4406H10.1064Z" fill="#151515"/>
<path d="M70.6559 93.6508C70.1587 94.1946 69.5777 94.7244 69.336 95.0032C69.1548 95.2123 69.0247 95.3703 68.9736 95.4354V95.4679C68.9736 95.4679 68.9689 95.4633 68.9596 95.4494C68.9503 95.4586 68.9457 95.4679 68.9457 95.4679V95.4354C68.8946 95.3703 68.7644 95.2123 68.5832 95.0032C68.3415 94.7244 67.7606 94.1946 67.2634 93.6508C66.7661 93.1071 66.7243 92.5634 66.8172 92.1126C66.9102 91.6618 67.3842 91.2389 68.1231 91.3318C68.3555 91.3597 68.5274 91.4713 68.6483 91.6107C68.5646 90.974 68.2207 90.6394 68.2207 90.6394H69.6567C69.3965 90.9322 69.3036 91.3458 69.2664 91.606C69.3919 91.4666 69.5592 91.3597 69.7915 91.3318C70.5304 91.2389 71.0044 91.6618 71.0974 92.1126C71.1903 92.5634 71.1532 93.1071 70.6513 93.6508H70.6559Z" fill="#151515"/>
<path d="M70.0332 8.88868C70.0332 9.03274 69.917 9.15358 69.7683 9.15358C69.6196 9.15358 69.5034 9.03739 69.5034 8.88868C69.5034 8.73996 69.6196 8.62378 69.7683 8.62378C69.917 8.62378 70.0332 8.73996 70.0332 8.88868Z" fill="white"/>
<path d="M57.4297 8.88868C57.4297 9.03274 57.3135 9.15358 57.1648 9.15358C57.0161 9.15358 56.8999 9.03739 56.8999 8.88868C56.8999 8.73996 57.0161 8.62378 57.1648 8.62378C57.3135 8.62378 57.4297 8.73996 57.4297 8.88868Z" fill="white"/>
<path d="M45.8347 8.88868C45.8347 9.03274 45.7186 9.15358 45.5699 9.15358C45.4211 9.15358 45.3049 9.03739 45.3049 8.88868C45.3049 8.73996 45.4211 8.62378 45.5699 8.62378C45.7186 8.62378 45.8347 8.73996 45.8347 8.88868Z" fill="white"/>
<path d="M34.1932 8.97242C34.1932 9.11648 34.0771 9.23732 33.9284 9.23732C33.7797 9.23732 33.6635 9.12113 33.6635 8.97242C33.6635 8.82371 33.7797 8.70752 33.9284 8.70752C34.0771 8.70752 34.1932 8.82371 34.1932 8.97242Z" fill="white"/>
<path d="M70.0332 18.7131C70.0332 18.8572 69.917 18.978 69.7683 18.978C69.6196 18.978 69.5034 18.8618 69.5034 18.7131C69.5034 18.5644 69.6196 18.4482 69.7683 18.4482C69.917 18.4482 70.0332 18.5644 70.0332 18.7131Z" fill="white"/>
<path d="M70.0332 27.6777C70.0332 27.8218 69.917 27.9426 69.7683 27.9426C69.6196 27.9426 69.5034 27.8265 69.5034 27.6777C69.5034 27.529 69.6196 27.4128 69.7683 27.4128C69.917 27.4128 70.0332 27.529 70.0332 27.6777Z" fill="white"/>
<path d="M70.0332 37.0745C70.0332 37.2185 69.917 37.3394 69.7683 37.3394C69.6196 37.3394 69.5034 37.2232 69.5034 37.0745C69.5034 36.9258 69.6196 36.8096 69.7683 36.8096C69.917 36.8096 70.0332 36.9258 70.0332 37.0745Z" fill="white"/>
<path d="M70.0332 43.0137C70.0332 43.1577 69.917 43.2786 69.7683 43.2786C69.6196 43.2786 69.5034 43.1624 69.5034 43.0137C69.5034 42.865 69.6196 42.7488 69.7683 42.7488C69.917 42.7488 70.0332 42.865 70.0332 43.0137Z" fill="white"/>
<path d="M70.0332 48.9763C70.0332 49.1204 69.917 49.2412 69.7683 49.2412C69.6196 49.2412 69.5034 49.125 69.5034 48.9763C69.5034 48.8276 69.6196 48.7114 69.7683 48.7114C69.917 48.7114 70.0332 48.8276 70.0332 48.9763Z" fill="white"/>
<path d="M9.49293 9.15357C9.49293 9.29764 9.37672 9.41846 9.22801 9.41846C9.07929 9.41846 8.96313 9.30228 8.96313 9.15357C8.96313 9.00486 9.07929 8.88867 9.22801 8.88867C9.37672 8.88867 9.49293 9.00486 9.49293 9.15357Z" fill="white"/>
<path d="M22.2451 8.97242C22.2451 9.11648 22.129 9.23732 21.9803 9.23732C21.8315 9.23732 21.7153 9.12113 21.7153 8.97242C21.7153 8.82371 21.8315 8.70752 21.9803 8.70752C22.129 8.70752 22.2451 8.82371 22.2451 8.97242Z" fill="white"/>
<path d="M9.49293 18.5039C9.49293 18.648 9.37672 18.7688 9.22801 18.7688C9.07929 18.7688 8.96313 18.6526 8.96313 18.5039C8.96313 18.3552 9.07929 18.239 9.22801 18.239C9.37672 18.239 9.49293 18.3552 9.49293 18.5039Z" fill="white"/>
<path d="M9.49293 27.7427C9.49293 27.8867 9.37672 28.0076 9.22801 28.0076C9.07929 28.0076 8.96313 27.8914 8.96313 27.7427C8.96313 27.594 9.07929 27.4778 9.22801 27.4778C9.37672 27.4778 9.49293 27.594 9.49293 27.7427Z" fill="white"/>
<path d="M9.49293 37.0095C9.49293 37.1536 9.37672 37.2744 9.22801 37.2744C9.07929 37.2744 8.96313 37.1582 8.96313 37.0095C8.96313 36.8608 9.07929 36.7446 9.22801 36.7446C9.37672 36.7446 9.49293 36.8608 9.49293 37.0095Z" fill="white"/>
<path d="M9.49293 43.0137C9.49293 43.1577 9.37672 43.2786 9.22801 43.2786C9.07929 43.2786 8.96313 43.1624 8.96313 43.0137C8.96313 42.865 9.07929 42.7488 9.22801 42.7488C9.37672 42.7488 9.49293 42.865 9.49293 43.0137Z" fill="white"/>
<path d="M9.49293 49.2412C9.49293 49.3853 9.37672 49.5061 9.22801 49.5061C9.07929 49.5061 8.96313 49.3899 8.96313 49.2412C8.96313 49.0925 9.07929 48.9763 9.22801 48.9763C9.37672 48.9763 9.49293 49.0925 9.49293 49.2412Z" fill="white"/>
<path d="M9.49293 55.25C9.49293 55.3941 9.37672 55.5149 9.22801 55.5149C9.07929 55.5149 8.96313 55.3987 8.96313 55.25C8.96313 55.1013 9.07929 54.9851 9.22801 54.9851C9.37672 54.9851 9.49293 55.1013 9.49293 55.25Z" fill="white"/>
<path d="M9.49293 61.259C9.49293 61.4031 9.37672 61.5239 9.22801 61.5239C9.07929 61.5239 8.96313 61.4078 8.96313 61.259C8.96313 61.1103 9.07929 60.9941 9.22801 60.9941C9.37672 60.9941 9.49293 61.1103 9.49293 61.259Z" fill="white"/>
<path d="M9.49293 67.4863C9.49293 67.6304 9.37672 67.7512 9.22801 67.7512C9.07929 67.7512 8.96313 67.635 8.96313 67.4863C8.96313 67.3376 9.07929 67.2214 9.22801 67.2214C9.37672 67.2214 9.49293 67.3376 9.49293 67.4863Z" fill="white"/>
<path d="M9.49293 73.7278C9.49293 73.8718 9.37672 73.9927 9.22801 73.9927C9.07929 73.9927 8.96313 73.8765 8.96313 73.7278C8.96313 73.5791 9.07929 73.4629 9.22801 73.4629C9.37672 73.4629 9.49293 73.5791 9.49293 73.7278Z" fill="white"/>
<path d="M9.49293 79.3044C9.49293 79.4485 9.37672 79.5693 9.22801 79.5693C9.07929 79.5693 8.96313 79.4531 8.96313 79.3044C8.96313 79.1557 9.07929 79.0396 9.22801 79.0396C9.37672 79.0396 9.49293 79.1557 9.49293 79.3044Z" fill="white"/>
<path d="M9.49293 85.5271C9.49293 85.6712 9.37672 85.792 9.22801 85.792C9.07929 85.792 8.96313 85.6758 8.96313 85.5271C8.96313 85.3784 9.07929 85.2622 9.22801 85.2622C9.37672 85.2622 9.49293 85.3784 9.49293 85.5271Z" fill="white"/>
<path d="M9.49293 91.5918C9.49293 91.7359 9.37672 91.8567 9.22801 91.8567C9.07929 91.8567 8.96313 91.7405 8.96313 91.5918C8.96313 91.4431 9.07929 91.3269 9.22801 91.3269C9.37672 91.3269 9.49293 91.4431 9.49293 91.5918Z" fill="white"/>
<path d="M9.60438 100.51C9.60438 100.654 9.48817 100.775 9.33946 100.775C9.19074 100.775 9.07458 100.659 9.07458 100.51C9.07458 100.361 9.19074 100.245 9.33946 100.245C9.48817 100.245 9.60438 100.361 9.60438 100.51Z" fill="white"/>
<path d="M19.1406 100.77C19.1406 100.914 19.0244 101.035 18.8757 101.035C18.727 101.035 18.6108 100.919 18.6108 100.77C18.6108 100.622 18.727 100.505 18.8757 100.505C19.0244 100.505 19.1406 100.622 19.1406 100.77Z" fill="white"/>
<path d="M31.4281 100.77C31.4281 100.914 31.312 101.035 31.1632 101.035C31.0145 101.035 30.8983 100.919 30.8983 100.77C30.8983 100.622 31.0145 100.505 31.1632 100.505C31.312 100.505 31.4281 100.622 31.4281 100.77Z" fill="white"/>
<path d="M43.697 100.77C43.697 100.914 43.5808 101.035 43.4321 101.035C43.2834 101.035 43.1672 100.919 43.1672 100.77C43.1672 100.622 43.2834 100.505 43.4321 100.505C43.5808 100.505 43.697 100.622 43.697 100.77Z" fill="white"/>
<path d="M55.6497 100.77C55.6497 100.914 55.5335 101.035 55.3848 101.035C55.2361 101.035 55.1199 100.919 55.1199 100.77C55.1199 100.622 55.2361 100.505 55.3848 100.505C55.5335 100.505 55.6497 100.622 55.6497 100.77Z" fill="white"/>
<path d="M70.0332 55.106C70.0332 55.25 69.917 55.3708 69.7683 55.3708C69.6196 55.3708 69.5034 55.2547 69.5034 55.106C69.5034 54.9573 69.6196 54.8411 69.7683 54.8411C69.917 54.8411 70.0332 54.9573 70.0332 55.106Z" fill="white"/>
<path d="M70.0332 60.8362C70.0332 60.9803 69.917 61.1011 69.7683 61.1011C69.6196 61.1011 69.5034 60.9849 69.5034 60.8362C69.5034 60.6875 69.6196 60.5713 69.7683 60.5713C69.917 60.5713 70.0332 60.6875 70.0332 60.8362Z" fill="white"/>
<path d="M70.0332 67.0125C70.0332 67.1565 69.917 67.2773 69.7683 67.2773C69.6196 67.2773 69.5034 67.1612 69.5034 67.0125C69.5034 66.8637 69.6196 66.7476 69.7683 66.7476C69.917 66.7476 70.0332 66.8637 70.0332 67.0125Z" fill="white"/>
<path d="M70.0332 73.1003C70.0332 73.2444 69.917 73.3652 69.7683 73.3652C69.6196 73.3652 69.5034 73.249 69.5034 73.1003C69.5034 72.9516 69.6196 72.8354 69.7683 72.8354C69.917 72.8354 70.0332 72.9516 70.0332 73.1003Z" fill="white"/>
<path d="M70.0332 79.0303C70.0332 79.1743 69.917 79.2952 69.7683 79.2952C69.6196 79.2952 69.5034 79.179 69.5034 79.0303C69.5034 78.8816 69.6196 78.7654 69.7683 78.7654C69.917 78.7654 70.0332 78.8816 70.0332 79.0303Z" fill="white"/>
<path d="M70.0332 84.8718C70.0332 85.0159 69.917 85.1367 69.7683 85.1367C69.6196 85.1367 69.5034 85.0205 69.5034 84.8718C69.5034 84.7231 69.6196 84.6069 69.7683 84.6069C69.917 84.6069 70.0332 84.7231 70.0332 84.8718Z" fill="white"/>
<path d="M70.0332 90.8391C70.0332 90.9832 69.917 91.104 69.7683 91.104C69.6196 91.104 69.5034 90.9878 69.5034 90.8391C69.5034 90.6904 69.6196 90.5742 69.7683 90.5742C69.917 90.5742 70.0332 90.6904 70.0332 90.8391Z" fill="white"/>
<path d="M70.0332 99.9338C70.0332 100.078 69.917 100.199 69.7683 100.199C69.6196 100.199 69.5034 100.083 69.5034 99.9338C69.5034 99.7851 69.6196 99.6689 69.7683 99.6689C69.917 99.6689 70.0332 99.7851 70.0332 99.9338Z" fill="white"/>
</svg>
