<svg width="70" height="40" viewBox="0 0 70 40" fill="none" xmlns="http://www.w3.org/2000/svg">
<path fill-rule="evenodd" clip-rule="evenodd" d="M1.27295 31.0909L5.76493 2H65.8826L68.7275 8.90908L64.2355 38H4.11787L1.27295 31.0909Z" fill="#130B5E" fill-opacity="0.95"/>
<path d="M5.7647 2V0H5.19399L4.99358 1.29775L5.7647 2ZM1.27272 31.0909L0.501623 30.3887L0.31543 31.5945L0.690396 32.5051L1.27272 31.0909ZM65.8823 2L66.4646 0.585787L66.2233 0H65.8823V2ZM68.7272 8.90908L69.4985 9.61133L69.6846 8.4055L69.3095 7.49487L68.7272 8.90908ZM64.2353 38V40H64.806L65.0065 38.7022L64.2353 38ZM4.11764 38L3.53532 39.4142L3.77652 40H4.11764V38ZM4.99358 1.29775L0.501623 30.3887L2.04381 31.7932L6.53581 2.70225L4.99358 1.29775ZM65.8823 0H5.7647V4H65.8823V0ZM69.3095 7.49487L66.4646 0.585787L65.3001 3.41421L68.145 10.3233L69.3095 7.49487ZM67.956 8.20683L63.464 37.2978L65.0065 38.7022L69.4985 9.61133L67.956 8.20683ZM4.11764 40H64.2353V36H4.11764V40ZM0.690396 32.5051L3.53532 39.4142L4.69995 36.5858L1.85504 29.6767L0.690396 32.5051Z" fill="black" fill-opacity="0.5"/>
<path d="M5.76457 2V1H5.47921L5.37903 1.64888L5.76457 2ZM1.27259 31.0909L0.887041 30.7398L0.793945 31.3427L0.98143 31.798L1.27259 31.0909ZM65.8822 2L66.1733 1.29289L66.0527 1H65.8822V2ZM68.7271 8.90908L69.1125 9.2602L69.206 8.65729L69.0182 8.20197L68.7271 8.90908ZM64.2352 38V39H64.5205L64.6206 38.3511L64.2352 38ZM4.11751 38L3.82635 38.7071L3.94695 39H4.11751V38ZM5.37903 1.64888L0.887041 30.7398L1.65814 31.442L6.1501 2.35112L5.37903 1.64888ZM65.8822 1H5.76457V3H65.8822V1ZM69.0182 8.20197L66.1733 1.29289L65.5911 2.70711L68.436 9.61619L69.0182 8.20197ZM68.3417 8.55796L63.8497 37.6489L64.6206 38.3511L69.1125 9.2602L68.3417 8.55796ZM4.11751 39H64.2352V37H4.11751V39ZM0.98143 31.798L3.82635 38.7071L4.40867 37.2929L1.56375 30.3838L0.98143 31.798Z" fill="url(#paint0_linear_112_249)"/>
<path fill-rule="evenodd" clip-rule="evenodd" d="M6.58841 15C6.81583 15 7.00017 14.5523 7.00017 14C7.00017 13.4477 6.81583 13 6.58841 13C6.36099 13 6.17664 13.4477 6.17664 14C6.17664 14.5523 6.36099 15 6.58841 15ZM6.17664 18C6.17664 18.5523 5.9923 19 5.76488 19C5.53746 19 5.35311 18.5523 5.35311 18C5.35311 17.4477 5.53746 17 5.76488 17C5.9923 17 6.17664 17.4477 6.17664 18ZM4.94135 23C5.16877 23 5.35311 22.5523 5.35311 22C5.35311 21.4477 5.16877 21 4.94135 21C4.71393 21 4.52958 21.4477 4.52958 22C4.52958 22.5523 4.71393 23 4.94135 23ZM4.11782 27C4.34524 27 4.52958 26.5523 4.52958 26C4.52958 25.4477 4.34524 25 4.11782 25C3.89041 25 3.70605 25.4477 3.70605 26C3.70605 26.5523 3.89041 27 4.11782 27ZM6.17664 26C6.17664 26.5523 5.9923 27 5.76488 27C5.53746 27 5.35311 26.5523 5.35311 26C5.35311 25.4477 5.53746 25 5.76488 25C5.9923 25 6.17664 25.4477 6.17664 26ZM6.58841 23C6.81583 23 7.00017 22.5523 7.00017 22C7.00017 21.4477 6.81583 21 6.58841 21C6.36099 21 6.17664 21.4477 6.17664 22C6.17664 22.5523 6.36099 23 6.58841 23ZM7.8237 18C7.8237 18.5523 7.63935 19 7.41194 19C7.18452 19 7.00017 18.5523 7.00017 18C7.00017 17.4477 7.18452 17 7.41194 17C7.63935 17 7.8237 17.4477 7.8237 18ZM8.23547 15C8.46288 15 8.64723 14.5523 8.64723 14C8.64723 13.4477 8.46288 13 8.23547 13C8.00805 13 7.8237 13.4477 7.8237 14C7.8237 14.5523 8.00805 15 8.23547 15Z" fill="#0488A0"/>
<path fill-rule="evenodd" clip-rule="evenodd" d="M64.647 15C64.8743 15 65.0588 14.5523 65.0588 14C65.0588 13.4477 64.8743 13 64.647 13C64.4197 13 64.2352 13.4477 64.2352 14C64.2352 14.5523 64.4197 15 64.647 15ZM64.2352 18C64.2352 18.5523 64.0508 19 63.8235 19C63.5962 19 63.4117 18.5523 63.4117 18C63.4117 17.4477 63.5962 17 63.8235 17C64.0508 17 64.2352 17.4477 64.2352 18ZM62.9999 23C63.2272 23 63.4117 22.5523 63.4117 22C63.4117 21.4477 63.2272 21 62.9999 21C62.7726 21 62.5882 21.4477 62.5882 22C62.5882 22.5523 62.7726 23 62.9999 23ZM62.1764 27C62.4037 27 62.5882 26.5523 62.5882 26C62.5882 25.4477 62.4037 25 62.1764 25C61.9491 25 61.7646 25.4477 61.7646 26C61.7646 26.5523 61.9491 27 62.1764 27ZM64.2352 26C64.2352 26.5523 64.0508 27 63.8235 27C63.5962 27 63.4117 26.5523 63.4117 26C63.4117 25.4477 63.5962 25 63.8235 25C64.0508 25 64.2352 25.4477 64.2352 26ZM64.647 23C64.8743 23 65.0588 22.5523 65.0588 22C65.0588 21.4477 64.8743 21 64.647 21C64.4197 21 64.2352 21.4477 64.2352 22C64.2352 22.5523 64.4197 23 64.647 23ZM65.8823 18C65.8823 18.5523 65.6978 19 65.4705 19C65.2432 19 65.0588 18.5523 65.0588 18C65.0588 17.4477 65.2432 17 65.4705 17C65.6978 17 65.8823 17.4477 65.8823 18ZM66.2941 15C66.5214 15 66.7058 14.5523 66.7058 14C66.7058 13.4477 66.5214 13 66.2941 13C66.0668 13 65.8823 13.4477 65.8823 14C65.8823 14.5523 66.0668 15 66.2941 15Z" fill="#0488A0"/>
<path fill-rule="evenodd" clip-rule="evenodd" d="M22.2354 3L23.2648 5H47.5589L48.5883 3H22.2354Z" fill="#0592A6"/>
<defs>
<linearGradient id="paint0_linear_112_249" x1="38.0893" y1="0.8" x2="38.0893" y2="39.2" gradientUnits="userSpaceOnUse">
<stop stop-color="#0593A7"/>
<stop offset="1" stop-color="#026F8F"/>
</linearGradient>
</defs>
</svg>
