<svg width="136" height="42" viewBox="0 0 136 42" fill="none" xmlns="http://www.w3.org/2000/svg">
<g filter="url(#filter0_d_22_133)">
<g clip-path="url(#clip0_22_133)">
<path fill-rule="evenodd" clip-rule="evenodd" d="M10.0936 32C13.7579 28.0702 16 22.797 16 17C16 11.203 13.7579 5.92975 10.0936 2L130 2V32H10.0936Z" fill="#1E2328" fill-opacity="0.95"/>
<path d="M10.0936 32L8.63085 30.6361L5.49412 34H10.0936V32ZM10.0936 2V0L5.49412 0L8.63085 3.36395L10.0936 2ZM130 2H132V0L130 0V2ZM130 32V34H132V32H130ZM14 17C14 22.271 11.9636 27.0619 8.63085 30.6361L11.5563 33.3639C15.5522 29.0786 18 23.3229 18 17H14ZM8.63085 3.36395C11.9636 6.93811 14 11.729 14 17H18C18 10.6771 15.5522 4.92139 11.5563 0.636051L8.63085 3.36395ZM10.0936 4L130 4V0L10.0936 0V4ZM128 2V32H132V2H128ZM130 30H10.0936V34H130V30Z" fill="black" fill-opacity="0.5"/>
<g filter="url(#filter1_d_22_133)">
<path fill-rule="evenodd" clip-rule="evenodd" d="M10.0936 32C13.7579 28.0702 16 22.797 16 17C16 11.203 13.7579 5.92975 10.0936 2L130 2V32H10.0936Z" fill="#1E2328" fill-opacity="0.95" shape-rendering="crispEdges"/>
<path d="M10.0936 32L9.36222 31.318L7.79386 33H10.0936V32ZM10.0936 2V1L7.79386 1L9.36222 2.68197L10.0936 2ZM130 2H131V1H130V2ZM130 32V33H131V32H130ZM15 17C15 22.534 12.8608 27.5661 9.36222 31.318L10.825 32.682C14.6551 28.5744 17 23.0599 17 17H15ZM9.36222 2.68197C12.8608 6.43393 15 11.466 15 17H17C17 10.9401 14.6551 5.42557 10.825 1.31803L9.36222 2.68197ZM10.0936 3L130 3V1L10.0936 1V3ZM129 2V32H131V2H129ZM130 31H10.0936V33H130V31Z" fill="#0B4052"/>
</g>
<path d="M115 2L116.414 0.585786L115.828 0H115V2ZM10.0936 2V0H5.49412L8.63085 3.36395L10.0936 2ZM130 17L131.414 18.4142L132.828 17L131.414 15.5858L130 17ZM115 32V34H115.828L116.414 33.4142L115 32ZM10.0936 32L8.63085 30.6361L5.49412 34H10.0936V32ZM115 0H10.0936V4H115V0ZM131.414 15.5858L116.414 0.585786L113.586 3.41421L128.586 18.4142L131.414 15.5858ZM128.586 15.5858L113.586 30.5858L116.414 33.4142L131.414 18.4142L128.586 15.5858ZM10.0936 34H115V30H10.0936V34ZM14 17C14 22.271 11.9636 27.0619 8.63085 30.6361L11.5563 33.3639C15.5522 29.0786 18 23.3229 18 17H14ZM8.63085 3.36395C11.9636 6.93811 14 11.729 14 17H18C18 10.6771 15.5522 4.92139 11.5563 0.636051L8.63085 3.36395Z" fill="black" fill-opacity="0.5"/>
<path d="M115 2L115.707 1.29289L115.414 1H115V2ZM10.0936 2V1H7.79386L9.36222 2.68197L10.0936 2ZM130 17L130.707 17.7071L131.414 17L130.707 16.2929L130 17ZM115 32V33H115.414L115.707 32.7071L115 32ZM10.0936 32L9.36222 31.318L7.79386 33H10.0936V32ZM115 1H10.0936V3H115V1ZM130.707 16.2929L115.707 1.29289L114.293 2.70711L129.293 17.7071L130.707 16.2929ZM129.293 16.2929L114.293 31.2929L115.707 32.7071L130.707 17.7071L129.293 16.2929ZM10.0936 33H115V31H10.0936V33ZM15 17C15 22.534 12.8608 27.5661 9.36222 31.318L10.825 32.682C14.6551 28.5744 17 23.0599 17 17H15ZM9.36222 2.68197C12.8608 6.43393 15 11.466 15 17H17C17 10.9401 14.6551 5.42557 10.825 1.31803L9.36222 2.68197Z" fill="url(#paint0_linear_22_133)"/>
</g>
<path d="M51.4067 20.835C51.4067 22.365 50.7317 22.5 50.6267 22.5H54.3017C54.1667 22.485 53.4317 22.32 53.4317 20.835V18.645C53.7617 18.75 54.2867 18.825 54.7667 18.825C57.0917 18.825 58.4117 17.37 58.4117 15.555C58.4117 13.95 57.2267 12.51 55.1267 12.51H50.5217C50.6717 12.54 51.4067 12.75 51.4067 14.235V20.835ZM53.4317 13.875H54.4367C55.5917 13.875 56.2217 14.61 56.2217 15.615C56.2217 16.68 55.6217 17.43 54.5417 17.43C54.1517 17.43 53.7167 17.355 53.4317 17.265V13.875ZM60.0308 20.64C60.0308 22.335 59.4308 22.485 59.3408 22.5H66.1658L66.5708 19.905C65.9708 20.985 65.5358 21.12 64.1408 21.12H62.1158V14.205C62.1158 12.675 62.7908 12.525 62.8958 12.51H59.2658C59.4008 12.54 60.0308 12.735 60.0308 14.205V20.64ZM68.445 20.58C67.77 22.29 67.17 22.485 67.035 22.5H70.395C70.26 22.485 69.78 22.365 69.78 21.72C69.78 21.57 69.825 21.36 69.93 21.06L70.245 20.13H74.07C74.295 20.76 74.61 21.51 74.61 21.795C74.61 22.365 74.175 22.485 74.055 22.5H78.09C77.955 22.47 77.295 22.245 76.665 20.625L73.365 12.51H71.595L68.445 20.58ZM70.74 18.825L72.135 15.135L73.56 18.825H70.74ZM79.8552 20.82C79.8552 22.35 79.1802 22.485 79.0752 22.5H82.7802C82.6602 22.485 82.0302 22.305 82.0302 20.82V18.3L84.4302 14.265C85.3602 12.675 85.9152 12.525 85.9602 12.51H82.7052C82.7952 12.525 83.1252 12.63 83.1252 13.08C83.1252 13.365 82.9602 13.77 82.5852 14.43L81.3102 16.635L79.8852 14.16C79.6002 13.665 79.4952 13.335 79.4952 13.095C79.4952 12.6 79.8702 12.525 79.9602 12.51H75.9252C76.0302 12.54 76.6302 12.72 77.5002 14.235L79.8552 18.375V20.82Z" fill="#F0E6D2"/>
</g>
<defs>
<filter id="filter0_d_22_133" x="0" y="0" width="136" height="42" filterUnits="userSpaceOnUse" color-interpolation-filters="sRGB">
<feFlood flood-opacity="0" result="BackgroundImageFix"/>
<feColorMatrix in="SourceAlpha" type="matrix" values="0 0 0 0 0 0 0 0 0 0 0 0 0 0 0 0 0 0 127 0" result="hardAlpha"/>
<feOffset dy="4"/>
<feGaussianBlur stdDeviation="2"/>
<feComposite in2="hardAlpha" operator="out"/>
<feColorMatrix type="matrix" values="0 0 0 0 0 0 0 0 0 0 0 0 0 0 0 0 0 0 0.25 0"/>
<feBlend mode="normal" in2="BackgroundImageFix" result="effect1_dropShadow_22_133"/>
<feBlend mode="normal" in="SourceGraphic" in2="effect1_dropShadow_22_133" result="shape"/>
</filter>
<filter id="filter1_d_22_133" x="3.79385" y="1" width="131.206" height="40" filterUnits="userSpaceOnUse" color-interpolation-filters="sRGB">
<feFlood flood-opacity="0" result="BackgroundImageFix"/>
<feColorMatrix in="SourceAlpha" type="matrix" values="0 0 0 0 0 0 0 0 0 0 0 0 0 0 0 0 0 0 127 0" result="hardAlpha"/>
<feOffset dy="4"/>
<feGaussianBlur stdDeviation="2"/>
<feComposite in2="hardAlpha" operator="out"/>
<feColorMatrix type="matrix" values="0 0 0 0 0 0 0 0 0 0 0 0 0 0 0 0 0 0 0.25 0"/>
<feBlend mode="normal" in2="BackgroundImageFix" result="effect1_dropShadow_22_133"/>
<feBlend mode="normal" in="SourceGraphic" in2="effect1_dropShadow_22_133" result="shape"/>
</filter>
<linearGradient id="paint0_linear_22_133" x1="75.0426" y1="1" x2="75.0426" y2="33" gradientUnits="userSpaceOnUse">
<stop stop-color="#0593A7"/>
<stop offset="1" stop-color="#026F8F"/>
</linearGradient>
<clipPath id="clip0_22_133">
<rect width="128" height="34" fill="white" transform="translate(4)"/>
</clipPath>
</defs>
</svg>
