<svg width="128" height="34" viewBox="0 0 128 34" fill="none" xmlns="http://www.w3.org/2000/svg">
<path fill-rule="evenodd" clip-rule="evenodd" d="M6.0936 32C9.75791 28.0702 12 22.797 12 17C12 11.203 9.75791 5.92975 6.0936 2H126V32H6.0936Z" fill="#1E2328" fill-opacity="0.95"/>
<path d="M6.0936 32L4.63085 30.6361L1.49412 34H6.0936V32ZM6.0936 2V0H1.49412L4.63085 3.36395L6.0936 2ZM126 2H128V0H126V2ZM126 32V34H128V32H126ZM10 17C10 22.271 7.96359 27.0619 4.63085 30.6361L7.55635 33.3639C11.5522 29.0786 14 23.3229 14 17H10ZM4.63085 3.36395C7.96359 6.93811 10 11.729 10 17H14C14 10.6771 11.5522 4.92139 7.55635 0.636051L4.63085 3.36395ZM6.0936 4H126V0H6.0936V4ZM124 2V32H128V2H124ZM126 30H6.0936V34H126V30Z" fill="black" fill-opacity="0.5"/>
<path fill-rule="evenodd" clip-rule="evenodd" d="M6.0936 32C9.75791 28.0702 12 22.797 12 17C12 11.203 9.75791 5.92975 6.0936 2H126V32H6.0936Z" fill="#1E2328" fill-opacity="0.95"/>
<path d="M6.0936 32L5.36222 31.318L3.79386 33H6.0936V32ZM6.0936 2V1H3.79386L5.36222 2.68197L6.0936 2ZM126 2H127V1H126V2ZM126 32V33H127V32H126ZM11 17C11 22.534 8.86075 27.5661 5.36222 31.318L6.82497 32.682C10.6551 28.5744 13 23.0599 13 17H11ZM5.36222 2.68197C8.86075 6.43393 11 11.466 11 17H13C13 10.9401 10.6551 5.42557 6.82497 1.31803L5.36222 2.68197ZM6.0936 3H126V1H6.0936V3ZM125 2V32H127V2H125ZM126 31H6.0936V33H126V31Z" fill="#0B4052"/>
<path d="M5.22913 32L4.56739 31.2503L2.58495 33H5.22913V32ZM5.22913 2V1H2.58495L4.56739 2.74974L5.22913 2ZM126 2H127V1H126V2ZM126 32V33H127V32H126ZM11 17C11 22.6746 8.51355 27.7673 4.56739 31.2503L5.89086 32.7497C10.2489 28.9032 13 23.2723 13 17H11ZM4.56739 2.74974C8.51355 6.23269 11 11.3254 11 17H13C13 10.7277 10.2489 5.09676 5.89086 1.25026L4.56739 2.74974ZM5.22913 3H126V1H5.22913V3ZM125 2V32H127V2H125ZM126 31H5.22913V33H126V31Z" fill="url(#paint0_linear_39_240)"/>
<path d="M44.5652 22.5H46.1702L48.1802 16.695L50.1002 22.5H51.7352L54.4052 14.385C54.9602 12.705 55.7102 12.525 55.8152 12.51H52.3652C52.4852 12.54 52.9502 12.66 52.9502 13.365C52.9502 13.575 52.9202 13.86 52.8002 14.205L51.1652 19.14L49.5302 14.235C49.4102 13.875 49.3502 13.59 49.3502 13.38C49.3502 12.63 49.8602 12.525 49.9352 12.51H46.3502C46.4402 12.54 46.8902 12.735 47.3702 14.115L47.4902 14.475L45.7952 19.155L44.1602 14.235C44.0402 13.845 43.9802 13.56 43.9802 13.32C43.9802 12.63 44.3852 12.525 44.4752 12.51H40.4402C40.5752 12.54 41.2952 12.72 41.8352 14.31L44.5652 22.5ZM57.5264 17.61C57.3614 17.535 57.2264 17.355 57.2264 17.115C57.2264 16.77 57.5414 16.365 58.3064 16.365C58.9664 16.365 59.2964 16.785 59.2964 17.655V18.225C56.8514 18.75 55.3214 19.71 55.3214 20.91C55.3214 22.02 56.2214 22.725 57.4664 22.725C58.2764 22.725 59.1764 22.455 59.5664 21.93C59.6714 22.29 60.2114 22.77 60.7364 22.845L62.5664 21.645C62.5214 21.645 62.4464 21.675 62.4014 21.675C61.6214 21.675 61.1864 21.165 61.1864 20.265V17.49C61.1864 16.17 60.4964 15.225 58.4864 15.225C56.9714 15.225 55.4564 16.11 55.4564 17.49C55.4564 17.79 55.5314 18.075 55.6364 18.33L57.5264 17.61ZM59.2964 20.37C59.2964 21.09 58.6814 21.525 58.0814 21.525C57.5264 21.525 57.1214 21.18 57.1214 20.7C57.1214 20.115 57.7664 19.575 59.2964 19.275V20.37ZM63.3439 20.91C63.3439 22.35 62.6839 22.485 62.5789 22.5H65.9989C65.8789 22.485 65.2489 22.32 65.2489 20.91V15.165L62.2789 16.29H62.4739C62.8939 16.29 63.3439 16.5 63.3439 17.655V20.91ZM62.9989 13.305C62.9989 13.95 63.4639 14.445 64.1689 14.445C64.8889 14.445 65.3389 13.95 65.3389 13.305C65.3389 12.675 64.8889 12.195 64.1689 12.195C63.4639 12.195 62.9989 12.675 62.9989 13.305ZM67.3283 20.895C67.3283 21.975 68.0033 22.74 69.1883 22.74C70.2833 22.74 71.1833 22.155 71.3933 20.55C71.1383 20.955 70.5533 21.285 70.0583 21.285C69.5933 21.285 69.2333 21 69.2333 20.28V16.74H71.1683V15.51H69.2333V13.365L66.2633 16.74H67.3283V20.895ZM72.6604 20.91C72.6604 22.35 72.0004 22.485 71.8954 22.5H75.3154C75.1954 22.485 74.5654 22.32 74.5654 20.91V15.165L71.5954 16.29H71.7904C72.2104 16.29 72.6604 16.5 72.6604 17.655V20.91ZM72.3154 13.305C72.3154 13.95 72.7804 14.445 73.4854 14.445C74.2054 14.445 74.6554 13.95 74.6554 13.305C74.6554 12.675 74.2054 12.195 73.4854 12.195C72.7804 12.195 72.3154 12.675 72.3154 13.305ZM76.6297 20.955C76.6297 22.335 75.9997 22.485 75.8647 22.5H79.2397C79.0897 22.485 78.5347 22.305 78.5347 20.97V18.21C78.5347 17.31 79.1947 16.68 79.9297 16.68C80.5747 16.68 80.9497 17.145 80.9497 18.15V20.97C80.9497 22.365 80.3647 22.485 80.2747 22.5H83.6047C83.4847 22.485 82.8697 22.32 82.8697 20.91V17.67C82.8697 15.975 81.9847 15.225 80.6947 15.225C79.9297 15.225 78.9847 15.66 78.4897 16.245L78.4747 15.165L75.5947 16.29H75.8047C76.2247 16.29 76.6297 16.485 76.6297 17.685V20.955ZM87.5154 21.27C87.0204 21.255 86.5254 21.15 86.5254 20.925C86.5254 20.745 86.7204 20.55 87.1404 20.325C87.2154 20.34 87.3654 20.37 87.5604 20.37C89.6154 20.37 90.6054 19.17 90.6054 17.925C90.6054 17.505 90.4854 17.055 90.2454 16.725C90.3654 16.725 91.2804 16.71 91.3554 16.68V15.3C91.0554 15.48 90.6204 15.555 90.1704 15.555C89.7354 15.555 89.2404 15.48 88.8654 15.39C88.4904 15.3 88.0704 15.225 87.6654 15.225C85.5954 15.225 84.4854 16.485 84.4854 17.925C84.4854 18.885 85.1004 19.71 85.9704 20.07C85.3404 20.415 84.6204 21.06 84.6204 21.6C84.6204 22.08 85.0254 22.38 85.5654 22.53C84.9504 22.8 84.2454 23.4 84.2454 24.105C84.2454 24.855 85.1754 25.425 87.1254 25.425C90.1404 25.425 91.3554 24.09 91.3554 22.92C91.3554 22.185 90.8454 21.375 89.2404 21.33L87.5154 21.27ZM87.6504 19.23C86.8854 19.23 86.4354 18.435 86.4354 17.64C86.4354 16.995 86.7654 16.365 87.4554 16.365C88.2654 16.365 88.6704 17.19 88.6704 17.925C88.6704 18.6 88.3404 19.23 87.6504 19.23ZM86.6754 22.755C86.7654 22.755 88.3854 22.815 88.3854 22.815C89.2554 22.845 89.6454 23.055 89.6454 23.43C89.6454 23.91 88.8804 24.24 87.5454 24.24C86.4954 24.24 85.9704 23.985 85.9704 23.565C85.9704 23.28 86.2704 22.98 86.6754 22.755Z" fill="#5C5B57"/>
<defs>
<linearGradient id="paint0_linear_39_240" x1="65.6146" y1="2" x2="65.6146" y2="32" gradientUnits="userSpaceOnUse">
<stop stop-color="#5C5B57"/>
<stop offset="1" stop-color="#5C5B57"/>
</linearGradient>
</defs>
</svg>
