<svg width="70" height="40" viewBox="0 0 70 40" fill="none" xmlns="http://www.w3.org/2000/svg">
<g clip-path="url(#clip0_112_311)">
<path fill-rule="evenodd" clip-rule="evenodd" d="M1.27271 31.0909L5.76468 2H65.8823L68.7272 8.90908L64.2353 38H4.11762L1.27271 31.0909Z" fill="#760709" fill-opacity="0.95"/>
<path d="M5.7647 2V0H5.19399L4.99358 1.29775L5.7647 2ZM1.27272 31.0909L0.501623 30.3887L0.31543 31.5945L0.690396 32.5051L1.27272 31.0909ZM65.8823 2L66.4646 0.585787L66.2233 0H65.8823V2ZM68.7272 8.90908L69.4985 9.61133L69.6846 8.4055L69.3095 7.49487L68.7272 8.90908ZM64.2353 38V40H64.806L65.0065 38.7022L64.2353 38ZM4.11764 38L3.53532 39.4142L3.77652 40H4.11764V38ZM4.99358 1.29775L0.501623 30.3887L2.04381 31.7932L6.53581 2.70225L4.99358 1.29775ZM65.8823 0H5.7647V4H65.8823V0ZM69.3095 7.49487L66.4646 0.585787L65.3001 3.41421L68.145 10.3233L69.3095 7.49487ZM67.956 8.20683L63.464 37.2978L65.0065 38.7022L69.4985 9.61133L67.956 8.20683ZM4.11764 40H64.2353V36H4.11764V40ZM0.690396 32.5051L3.53532 39.4142L4.69995 36.5858L1.85504 29.6767L0.690396 32.5051Z" fill="black" fill-opacity="0.5"/>
<path d="M5.76481 2V1H5.47946L5.37928 1.64888L5.76481 2ZM1.27283 31.0909L0.887285 30.7398L0.794189 31.3427L0.981674 31.798L1.27283 31.0909ZM65.8825 2L66.1736 1.29289L66.0529 1H65.8825V2ZM68.7273 8.90908L69.1128 9.2602L69.2062 8.65729L69.0185 8.20197L68.7273 8.90908ZM64.2354 38V39H64.5207L64.6208 38.3511L64.2354 38ZM4.11775 38L3.82659 38.7071L3.9472 39H4.11775V38ZM5.37928 1.64888L0.887285 30.7398L1.65838 31.442L6.15035 2.35112L5.37928 1.64888ZM65.8825 1H5.76481V3H65.8825V1ZM69.0185 8.20197L66.1736 1.29289L65.5913 2.70711L68.4362 9.61619L69.0185 8.20197ZM68.3419 8.55796L63.85 37.6489L64.6208 38.3511L69.1128 9.2602L68.3419 8.55796ZM4.11775 39H64.2354V37H4.11775V39ZM0.981674 31.798L3.82659 38.7071L4.40891 37.2929L1.564 30.3838L0.981674 31.798Z" fill="url(#paint0_linear_112_311)"/>
<path fill-rule="evenodd" clip-rule="evenodd" d="M6.58816 15C6.81558 15 6.99993 14.5523 6.99993 14C6.99993 13.4477 6.81558 13 6.58816 13C6.36075 13 6.1764 13.4477 6.1764 14C6.1764 14.5523 6.36075 15 6.58816 15ZM6.1764 18C6.1764 18.5523 5.99205 19 5.76463 19C5.53722 19 5.35287 18.5523 5.35287 18C5.35287 17.4477 5.53722 17 5.76463 17C5.99205 17 6.1764 17.4477 6.1764 18ZM4.9411 23C5.16852 23 5.35287 22.5523 5.35287 22C5.35287 21.4477 5.16852 21 4.9411 21C4.71369 21 4.52934 21.4477 4.52934 22C4.52934 22.5523 4.71369 23 4.9411 23ZM4.11758 27C4.34499 27 4.52934 26.5523 4.52934 26C4.52934 25.4477 4.34499 25 4.11758 25C3.89017 25 3.70581 25.4477 3.70581 26C3.70581 26.5523 3.89017 27 4.11758 27ZM6.1764 26C6.1764 26.5523 5.99205 27 5.76463 27C5.53722 27 5.35287 26.5523 5.35287 26C5.35287 25.4477 5.53722 25 5.76463 25C5.99205 25 6.1764 25.4477 6.1764 26ZM6.58816 23C6.81558 23 6.99993 22.5523 6.99993 22C6.99993 21.4477 6.81558 21 6.58816 21C6.36075 21 6.1764 21.4477 6.1764 22C6.1764 22.5523 6.36075 23 6.58816 23ZM7.82346 18C7.82346 18.5523 7.63911 19 7.41169 19C7.18428 19 6.99993 18.5523 6.99993 18C6.99993 17.4477 7.18428 17 7.41169 17C7.63911 17 7.82346 17.4477 7.82346 18ZM8.23522 15C8.46264 15 8.64699 14.5523 8.64699 14C8.64699 13.4477 8.46264 13 8.23522 13C8.0078 13 7.82346 13.4477 7.82346 14C7.82346 14.5523 8.0078 15 8.23522 15Z" fill="#0488A0"/>
<path fill-rule="evenodd" clip-rule="evenodd" d="M64.647 15C64.8743 15 65.0588 14.5523 65.0588 14C65.0588 13.4477 64.8743 13 64.647 13C64.4197 13 64.2352 13.4477 64.2352 14C64.2352 14.5523 64.4197 15 64.647 15ZM64.2352 18C64.2352 18.5523 64.0508 19 63.8235 19C63.5962 19 63.4117 18.5523 63.4117 18C63.4117 17.4477 63.5962 17 63.8235 17C64.0508 17 64.2352 17.4477 64.2352 18ZM62.9999 23C63.2272 23 63.4117 22.5523 63.4117 22C63.4117 21.4477 63.2272 21 62.9999 21C62.7726 21 62.5882 21.4477 62.5882 22C62.5882 22.5523 62.7726 23 62.9999 23ZM62.1764 27C62.4037 27 62.5882 26.5523 62.5882 26C62.5882 25.4477 62.4037 25 62.1764 25C61.9491 25 61.7646 25.4477 61.7646 26C61.7646 26.5523 61.9491 27 62.1764 27ZM64.2352 26C64.2352 26.5523 64.0508 27 63.8235 27C63.5962 27 63.4117 26.5523 63.4117 26C63.4117 25.4477 63.5962 25 63.8235 25C64.0508 25 64.2352 25.4477 64.2352 26ZM64.647 23C64.8743 23 65.0588 22.5523 65.0588 22C65.0588 21.4477 64.8743 21 64.647 21C64.4197 21 64.2352 21.4477 64.2352 22C64.2352 22.5523 64.4197 23 64.647 23ZM65.8823 18C65.8823 18.5523 65.6978 19 65.4705 19C65.2432 19 65.0588 18.5523 65.0588 18C65.0588 17.4477 65.2432 17 65.4705 17C65.6978 17 65.8823 17.4477 65.8823 18ZM66.2941 15C66.5214 15 66.7058 14.5523 66.7058 14C66.7058 13.4477 66.5214 13 66.2941 13C66.0668 13 65.8823 13.4477 65.8823 14C65.8823 14.5523 66.0668 15 66.2941 15Z" fill="#0488A0"/>
<path fill-rule="evenodd" clip-rule="evenodd" d="M22.2354 3L23.2648 5H47.5589L48.5883 3H22.2354Z" fill="#0592A6"/>
</g>
<defs>
<linearGradient id="paint0_linear_112_311" x1="38.0896" y1="0.8" x2="38.0896" y2="39.2" gradientUnits="userSpaceOnUse">
<stop stop-color="#0593A7"/>
<stop offset="1" stop-color="#026F8F"/>
</linearGradient>
<clipPath id="clip0_112_311">
<rect width="70" height="40" fill="white"/>
</clipPath>
</defs>
</svg>
